<svg width="25" height="25" viewBox="0 0 25 25" fill="none" xmlns="http://www.w3.org/2000/svg">
<path d="M17.4606 10.0447C17.2733 9.85845 17.0198 9.75391 16.7556 9.75391C16.4915 9.75391 16.238 9.85845 16.0506 10.0447L12.4606 13.5847L8.92064 10.0447C8.73328 9.85845 8.47983 9.75391 8.21564 9.75391C7.95146 9.75391 7.698 9.85845 7.51064 10.0447C7.41691 10.1377 7.34252 10.2483 7.29175 10.3701C7.24098 10.492 7.21484 10.6227 7.21484 10.7547C7.21484 10.8867 7.24098 11.0174 7.29175 11.1393C7.34252 11.2611 7.41691 11.3717 7.51064 11.4647L11.7506 15.7047C11.8436 15.7984 11.9542 15.8728 12.0761 15.9236C12.1979 15.9744 12.3286 16.0005 12.4606 16.0005C12.5927 16.0005 12.7234 15.9744 12.8452 15.9236C12.9671 15.8728 13.0777 15.7984 13.1706 15.7047L17.4606 11.4647C17.5544 11.3717 17.6288 11.2611 17.6795 11.1393C17.7303 11.0174 17.7564 10.8867 17.7564 10.7547C17.7564 10.6227 17.7303 10.492 17.6795 10.3701C17.6288 10.2483 17.5544 10.1377 17.4606 10.0447Z" fill="#054169"/>
</svg>
