<svg width="156" height="161" viewBox="0 0 156 161" fill="none" xmlns="http://www.w3.org/2000/svg">
<path d="M49.5019 3.98756C45.5019 11.9876 63.1686 22.3209 72.5019 26.4876H74.5C100.5 22.487 100.667 9.82066 97.5 3.98756C84.7 0.786988 76.8333 7.98732 74.5 11.9876C72.5 5.98756 54.5019 -6.01244 49.5019 3.98756Z" fill="#C48EAB"/>
<path d="M42.7428 31.9462C37.6205 42.2723 60.2441 55.6101 72.1962 60.9883H74.7549C108.05 55.8245 108.263 39.4753 104.208 31.9462C87.8168 27.815 77.7429 37.1089 74.7549 42.2723C72.1937 34.5277 49.1457 19.0386 42.7428 31.9462Z" fill="#C48EAB"/>
<path d="M44.0419 74.771C39.5547 85.3885 62.9449 97.3309 75.201 101.975L77.755 101.82C110.676 94.648 109.898 78.3159 105.394 71.0463C88.7827 67.916 79.2905 77.8033 76.6208 83.1382C73.5951 75.5631 49.6508 61.4991 44.0419 74.771Z" fill="#C48EAB"/>
<path d="M25.5019 80.9886C67.1019 101.789 68.1685 140.655 63.5019 157.489C50.0038 164.489 30 157.489 29 144.488C28 131.488 7.00188 119.489 3.50188 98.4886C0.00187969 77.4886 5.50188 31.4886 21.0019 33.9886C33.4019 35.9886 29.1685 66.1552 25.5019 80.9886Z" fill="#C48EAB"/>
<path d="M132.889 80.9886C91.2887 101.789 90.2221 140.655 94.8887 157.489C108.387 164.489 128.391 157.489 129.391 144.488C130.391 131.488 151.389 119.489 154.889 98.4886C158.389 77.4886 152.889 31.4886 137.389 33.9886C124.989 35.9886 129.222 66.1552 132.889 80.9886Z" fill="#C48EAB"/>
<path fill-rule="evenodd" clip-rule="evenodd" d="M48.7339 99.6371C28.2058 77.9081 28.2058 77.9081 28.2058 77.9081C27.8826 77.5826 27.4784 77.3384 26.9936 77.2571C26.8319 77.2571 23.9225 76.8502 21.0129 77.7453C21.0129 40.6353 21.0129 40.6353 21.0129 40.6353C21.0129 40.0656 20.7705 39.4959 20.3664 39.1704C16.972 35.671 13.3352 34.0434 9.61749 34.2876C4.04094 34.6131 0.565811 39.1704 0.404117 39.3332C0.161694 39.7401 0 40.147 0 40.6353C0 96.5446 0 96.5446 0 96.5446C0 96.8701 0.0808468 97.1956 0.242541 97.5212C26.1854 144.885 26.1854 144.885 26.1854 144.885C26.1854 155.872 26.1854 155.872 26.1854 155.872C26.1854 157.011 27.1552 157.988 28.2867 157.988C65.1402 157.988 65.1402 157.988 65.1402 157.988C66.2716 157.988 67.2414 157.011 67.2414 155.872C67.2414 126.412 67.2414 126.412 67.2414 126.412C67.2414 126.249 67.2414 126.086 67.1606 125.923C66.999 125.272 63.1197 110.624 48.7339 99.6371ZM63.0389 153.756C30.388 153.756 30.388 153.756 30.388 153.756C30.388 144.397 30.388 144.397 30.388 144.397C30.388 143.99 30.3071 143.665 30.1456 143.339C4.20263 95.9749 4.20263 95.9749 4.20263 95.9749C4.20263 41.4491 4.20263 41.4491 4.20263 41.4491C5.09159 40.5539 7.19291 38.6821 9.94076 38.5194C12.1229 38.3566 14.4667 39.4146 16.8104 41.5305C16.8104 80.431 16.8104 80.431 16.8104 80.431C15.0324 82.5469 14.3858 85.558 14.9515 89.3829C15.0324 89.7898 15.1941 90.1155 15.4365 90.441C36.3685 115.181 36.3685 115.181 36.3685 115.181C37.0959 116.076 38.4699 116.158 39.3588 115.425C40.2479 114.693 40.3288 113.309 39.6014 112.414C19.0733 88.1622 19.0733 88.1622 19.0733 88.1622C18.8309 86.2091 18.9924 84.7442 19.639 83.6863C20.2048 83.4421 20.6896 82.9538 20.8513 82.3842C22.3868 81.4076 24.4073 81.3262 25.7005 81.4076C45.8243 102.73 45.8243 102.73 45.8243 102.73C45.9052 102.811 45.986 102.892 46.0669 102.892C58.4321 112.251 62.4731 124.865 63.0389 126.737V153.756Z" fill="#891C56"/>
<path fill-rule="evenodd" clip-rule="evenodd" d="M155.595 39.2782C155.433 39.1172 151.958 34.6898 146.382 34.2873C142.664 34.0458 139.027 35.6557 135.633 39.1172C135.229 39.5197 134.986 40.0027 134.986 40.5661C134.986 77.2728 134.986 77.2728 134.986 77.2728C132.077 76.3873 129.167 76.7898 129.006 76.7898C128.521 76.8703 128.117 77.1118 127.793 77.4338C107.265 98.9265 107.265 98.9265 107.265 98.9265C92.8795 109.794 89.0002 124.283 88.8385 124.927C88.7578 125.088 88.7578 125.249 88.7578 125.41C88.7578 154.55 88.7578 154.55 88.7578 154.55C88.7578 155.677 89.7276 156.643 90.859 156.643C127.713 156.643 127.713 156.643 127.713 156.643C128.844 156.643 129.814 155.677 129.814 154.55C129.814 143.683 129.814 143.683 129.814 143.683C155.757 96.8336 155.757 96.8336 155.757 96.8336C155.918 96.592 155.999 96.1895 155.999 95.8676C155.999 40.5661 155.999 40.5661 155.999 40.5661C155.999 40.0831 155.837 39.6807 155.595 39.2782ZM151.797 95.3041C125.854 142.153 125.854 142.153 125.854 142.153C125.692 142.475 125.611 142.797 125.611 143.2C125.611 152.457 125.611 152.457 125.611 152.457C92.9603 152.457 92.9603 152.457 92.9603 152.457C92.9603 125.732 92.9603 125.732 92.9603 125.732C93.526 123.881 97.5671 111.404 109.932 102.227C110.013 102.146 110.094 102.066 110.175 101.985C130.299 80.8951 130.299 80.8951 130.299 80.8951C131.511 80.8146 133.612 80.9756 135.148 81.8611C135.31 82.4246 135.794 82.9075 136.36 83.149C137.007 84.1955 137.168 85.6445 136.926 87.5764C116.398 111.565 116.398 111.565 116.398 111.565C115.67 112.45 115.751 113.818 116.64 114.543C117.529 115.267 118.903 115.187 119.631 114.301C140.563 89.8303 140.563 89.8303 140.563 89.8303C140.805 89.5084 140.967 89.1864 141.048 88.7839C141.613 85.0004 140.967 82.0221 139.189 79.9292C139.189 41.4516 139.189 41.4516 139.189 41.4516C141.533 39.3587 143.876 38.3121 146.058 38.4731C148.806 38.6341 150.908 40.4856 151.797 41.3711V95.3041Z" fill="#891C56"/>
<path fill-rule="evenodd" clip-rule="evenodd" d="M96.9288 94.1258C109.029 87.2505 112.815 70.5877 112.898 69.9407C113.062 69.2935 112.898 68.7273 112.568 68.242C112.239 67.7567 111.745 67.4332 111.169 67.3522C95.365 65.2492 85.7343 72.1245 80.1369 78.919C80.1369 60.0724 80.1369 60.0724 80.1369 60.0724C82.1125 60.4769 84.088 60.7195 85.9812 60.7195C89.9323 60.7195 93.5541 59.7489 96.9288 57.8885C109.029 51.013 112.815 34.3504 112.898 33.6224C113.062 33.0562 112.898 32.4899 112.568 32.0047C112.239 31.5194 111.745 31.1957 111.169 31.1149C95.365 28.9309 85.7343 35.8064 80.1369 42.6009C80.1369 22.9453 80.1369 22.9453 80.1369 22.9453C81.7832 23.3497 83.4294 23.5924 84.9111 23.5924C87.5452 23.5924 89.9323 22.9453 92.237 21.8129C100.962 17.2024 103.679 5.31191 103.761 4.7458C103.925 4.17957 103.761 3.61334 103.432 3.12806C103.102 2.64265 102.526 2.31913 101.95 2.2383C94.4594 1.26761 87.8743 3.12806 82.771 7.73859C80.7131 9.67986 79.1492 11.8638 77.9967 13.8051C76.8443 11.8638 75.2805 9.67986 73.2225 7.73859C68.1191 3.12806 61.534 1.26761 54.0435 2.2383C53.4673 2.31913 52.8911 2.64265 52.5619 3.12806C52.2326 3.61334 52.068 4.17957 52.2326 4.7458C52.3149 5.31191 55.0313 17.2024 63.7565 21.8129C67.3783 23.6733 71.4116 24.0777 75.8567 22.9453C75.8567 42.6009 75.8567 42.6009 75.8567 42.6009C70.2593 35.8064 60.6287 28.9309 44.8244 31.1149C44.2482 31.1957 43.7544 31.5194 43.4251 32.0047C43.0958 32.4899 42.9313 33.0562 43.0958 33.6224C43.1782 34.3504 46.9646 51.013 59.0647 57.8885C64.0035 60.7195 69.6831 61.4475 75.8567 60.0724C75.8567 78.919 75.8567 78.919 75.8567 78.919C70.2593 72.1245 60.6287 65.2492 44.8244 67.3522C44.2482 67.4332 43.7544 67.7567 43.4251 68.242C43.0958 68.7273 42.9313 69.2935 43.0958 69.9407C43.1782 70.5877 46.9646 87.2505 59.0647 94.1258C64.0035 96.9568 69.6831 97.6848 75.8567 96.3098C75.8567 118.23 75.8567 118.23 75.8567 118.23C75.8567 119.363 76.8443 120.333 77.9967 120.333C79.1492 120.333 80.1369 119.363 80.1369 118.23C80.1369 96.3098 80.1369 96.3098 80.1369 96.3098C82.1125 96.7951 84.088 97.0378 85.9812 97.0378C89.9323 97.0378 93.5541 96.0671 96.9288 94.1258ZM108.123 34.9974C106.724 39.5271 102.773 49.638 94.7887 54.2485C90.5084 56.6752 85.6519 57.1605 80.1369 55.7045C80.1369 50.1233 80.1369 50.1233 80.1369 50.1233C84.4996 42.3582 92.8955 33.865 108.123 34.9974ZM98.9044 6.20167C97.7521 9.5181 95.1179 15.5037 90.1792 18.0921C87.3805 19.5481 84.088 19.7099 80.3838 18.5774C82.0301 14.6139 87.1336 5.79732 98.9044 6.20167ZM65.8144 18.0921C60.8756 15.5037 58.2415 9.5181 57.0891 6.20167C68.86 5.79732 73.9634 14.6139 75.6096 18.5774C71.9056 19.7099 68.613 19.5481 65.8144 18.0921ZM61.2049 54.2485C53.2204 49.638 49.2693 39.5271 47.87 34.9974C63.098 33.865 71.494 42.3582 75.8567 50.1233C75.8567 55.7045 75.8567 55.7045 75.8567 55.7045C70.3416 57.1605 65.4851 56.6752 61.2049 54.2485ZM61.2049 90.4859C53.2204 85.9562 49.2693 75.8453 47.87 71.3157C63.098 70.1833 71.494 78.6764 75.8567 86.3607C75.8567 92.0228 75.8567 92.0228 75.8567 92.0228C70.3416 93.3978 65.4851 92.9125 61.2049 90.4859ZM80.1369 86.3607C84.4996 78.6764 92.8955 70.1833 108.123 71.3157C106.724 75.8453 102.773 85.9562 94.7887 90.4859C90.5084 92.9125 85.6519 93.3978 80.1369 92.0228V86.3607Z" fill="#891C56"/>
</svg>
