<svg width="341" height="217" viewBox="0 0 341 217" fill="none" xmlns="http://www.w3.org/2000/svg">
<path fill-rule="evenodd" clip-rule="evenodd" d="M323.286 93.7119C357.675 142.818 339.945 164.336 277.561 179.588C256.13 184.828 191.515 177.634 158.776 183.051C115.716 190.175 93.9287 195.66 58.2025 189.333C-14.8348 176.399 -12.3269 122.921 31.6875 99.6909C70.6114 79.1478 53.0462 40.8592 64.0933 14.3471C84.6077 -18.7281 152.324 16.2355 213.317 31.8733C269.776 46.3488 308.143 72.0876 323.286 93.7119Z" fill="#F2DCE8"/>
<path d="M149.502 59.9876C145.502 67.9876 163.169 78.3209 172.502 82.4876H174.5C200.5 78.487 200.667 65.8207 197.5 59.9876C184.7 56.787 176.833 63.9873 174.5 67.9876C172.5 61.9876 154.502 49.9876 149.502 59.9876Z" fill="#C48EAB"/>
<path d="M142.743 87.9462C137.62 98.2723 160.244 111.61 172.196 116.988H174.755C208.05 111.825 208.263 95.4753 204.208 87.9462C187.817 83.815 177.743 93.1089 174.755 98.2723C172.194 90.5277 149.146 75.0386 142.743 87.9462Z" fill="#C48EAB"/>
<path d="M144.042 130.771C139.555 141.388 162.945 153.331 175.201 157.975L177.755 157.82C210.676 150.648 209.898 134.316 205.394 127.046C188.783 123.916 179.29 133.803 176.621 139.138C173.595 131.563 149.651 117.499 144.042 130.771Z" fill="#C48EAB"/>
<path d="M125.502 136.989C167.102 157.789 168.169 196.655 163.502 213.489C150.004 220.489 130 213.489 129 200.488C128 187.488 107.002 175.489 103.502 154.489C100.002 133.489 105.502 87.4886 121.002 89.9886C133.402 91.9886 129.169 122.155 125.502 136.989Z" fill="#C48EAB"/>
<path d="M232.889 136.989C191.289 157.789 190.222 196.655 194.889 213.489C208.387 220.489 228.391 213.489 229.391 200.488C230.391 187.488 251.389 175.489 254.889 154.489C258.389 133.489 252.889 87.4886 237.389 89.9886C224.989 91.9886 229.222 122.155 232.889 136.989Z" fill="#C48EAB"/>
<path fill-rule="evenodd" clip-rule="evenodd" d="M148.734 155.637C128.206 133.908 128.206 133.908 128.206 133.908C127.883 133.583 127.478 133.338 126.994 133.257C126.832 133.257 123.922 132.85 121.013 133.745C121.013 96.6353 121.013 96.6353 121.013 96.6353C121.013 96.0656 120.77 95.4959 120.366 95.1704C116.972 91.671 113.335 90.0434 109.617 90.2876C104.041 90.6131 100.566 95.1704 100.404 95.3332C100.162 95.7401 100 96.147 100 96.6353C100 152.545 100 152.545 100 152.545C100 152.87 100.081 153.196 100.243 153.521C126.185 200.885 126.185 200.885 126.185 200.885C126.185 211.872 126.185 211.872 126.185 211.872C126.185 213.011 127.155 213.988 128.287 213.988C165.14 213.988 165.14 213.988 165.14 213.988C166.272 213.988 167.241 213.011 167.241 211.872C167.241 182.412 167.241 182.412 167.241 182.412C167.241 182.249 167.241 182.086 167.161 181.923C166.999 181.272 163.12 166.624 148.734 155.637ZM163.039 209.756C130.388 209.756 130.388 209.756 130.388 209.756C130.388 200.397 130.388 200.397 130.388 200.397C130.388 199.99 130.307 199.665 130.146 199.339C104.203 151.975 104.203 151.975 104.203 151.975C104.203 97.4491 104.203 97.4491 104.203 97.4491C105.092 96.5539 107.193 94.6821 109.941 94.5194C112.123 94.3566 114.467 95.4146 116.81 97.5305C116.81 136.431 116.81 136.431 116.81 136.431C115.032 138.547 114.386 141.558 114.952 145.383C115.032 145.79 115.194 146.115 115.436 146.441C136.369 171.181 136.369 171.181 136.369 171.181C137.096 172.076 138.47 172.158 139.359 171.425C140.248 170.693 140.329 169.309 139.601 168.414C119.073 144.162 119.073 144.162 119.073 144.162C118.831 142.209 118.992 140.744 119.639 139.686C120.205 139.442 120.69 138.954 120.851 138.384C122.387 137.408 124.407 137.326 125.701 137.408C145.824 158.73 145.824 158.73 145.824 158.73C145.905 158.811 145.986 158.892 146.067 158.892C158.432 168.251 162.473 180.865 163.039 182.737V209.756Z" fill="#891C56"/>
<path fill-rule="evenodd" clip-rule="evenodd" d="M255.595 95.2782C255.433 95.1172 251.958 90.6898 246.382 90.2873C242.664 90.0458 239.027 91.6557 235.633 95.1172C235.229 95.5197 234.986 96.0027 234.986 96.5661C234.986 133.273 234.986 133.273 234.986 133.273C232.077 132.387 229.167 132.79 229.006 132.79C228.521 132.87 228.117 133.112 227.793 133.434C207.265 154.927 207.265 154.927 207.265 154.927C192.879 165.794 189 180.283 188.839 180.927C188.758 181.088 188.758 181.249 188.758 181.41C188.758 210.55 188.758 210.55 188.758 210.55C188.758 211.677 189.728 212.643 190.859 212.643C227.713 212.643 227.713 212.643 227.713 212.643C228.844 212.643 229.814 211.677 229.814 210.55C229.814 199.683 229.814 199.683 229.814 199.683C255.757 152.834 255.757 152.834 255.757 152.834C255.918 152.592 255.999 152.19 255.999 151.868C255.999 96.5661 255.999 96.5661 255.999 96.5661C255.999 96.0831 255.837 95.6807 255.595 95.2782ZM251.797 151.304C225.854 198.153 225.854 198.153 225.854 198.153C225.692 198.475 225.611 198.797 225.611 199.2C225.611 208.457 225.611 208.457 225.611 208.457C192.96 208.457 192.96 208.457 192.96 208.457C192.96 181.732 192.96 181.732 192.96 181.732C193.526 179.881 197.567 167.404 209.932 158.227C210.013 158.146 210.094 158.066 210.175 157.985C230.299 136.895 230.299 136.895 230.299 136.895C231.511 136.815 233.612 136.976 235.148 137.861C235.31 138.425 235.794 138.908 236.36 139.149C237.007 140.195 237.168 141.645 236.926 143.576C216.398 167.565 216.398 167.565 216.398 167.565C215.67 168.45 215.751 169.818 216.64 170.543C217.529 171.267 218.903 171.187 219.631 170.301C240.563 145.83 240.563 145.83 240.563 145.83C240.805 145.508 240.967 145.186 241.048 144.784C241.613 141 240.967 138.022 239.189 135.929C239.189 97.4516 239.189 97.4516 239.189 97.4516C241.533 95.3587 243.876 94.3121 246.058 94.4731C248.806 94.6341 250.908 96.4856 251.797 97.3711V151.304Z" fill="#891C56"/>
<path fill-rule="evenodd" clip-rule="evenodd" d="M196.929 150.126C209.029 143.25 212.815 126.588 212.898 125.941C213.062 125.293 212.898 124.727 212.568 124.242C212.239 123.757 211.745 123.433 211.169 123.352C195.365 121.249 185.734 128.125 180.137 134.919C180.137 116.072 180.137 116.072 180.137 116.072C182.112 116.477 184.088 116.719 185.981 116.719C189.932 116.719 193.554 115.749 196.929 113.888C209.029 107.013 212.815 90.3504 212.898 89.6224C213.062 89.0562 212.898 88.4899 212.568 88.0047C212.239 87.5194 211.745 87.1957 211.169 87.1149C195.365 84.9309 185.734 91.8064 180.137 98.6009C180.137 78.9453 180.137 78.9453 180.137 78.9453C181.783 79.3497 183.429 79.5924 184.911 79.5924C187.545 79.5924 189.932 78.9453 192.237 77.8129C200.962 73.2024 203.679 61.3119 203.761 60.7458C203.925 60.1796 203.761 59.6133 203.432 59.1281C203.102 58.6427 202.526 58.3191 201.95 58.2383C194.459 57.2676 187.874 59.1281 182.771 63.7386C180.713 65.6799 179.149 67.8638 177.997 69.8051C176.844 67.8638 175.28 65.6799 173.223 63.7386C168.119 59.1281 161.534 57.2676 154.044 58.2383C153.467 58.3191 152.891 58.6427 152.562 59.1281C152.233 59.6133 152.068 60.1796 152.233 60.7458C152.315 61.3119 155.031 73.2024 163.756 77.8129C167.378 79.6733 171.412 80.0777 175.857 78.9453C175.857 98.6009 175.857 98.6009 175.857 98.6009C170.259 91.8064 160.629 84.9309 144.824 87.1149C144.248 87.1957 143.754 87.5194 143.425 88.0047C143.096 88.4899 142.931 89.0562 143.096 89.6224C143.178 90.3504 146.965 107.013 159.065 113.888C164.004 116.719 169.683 117.447 175.857 116.072C175.857 134.919 175.857 134.919 175.857 134.919C170.259 128.125 160.629 121.249 144.824 123.352C144.248 123.433 143.754 123.757 143.425 124.242C143.096 124.727 142.931 125.293 143.096 125.941C143.178 126.588 146.965 143.25 159.065 150.126C164.004 152.957 169.683 153.685 175.857 152.31C175.857 174.23 175.857 174.23 175.857 174.23C175.857 175.363 176.844 176.333 177.997 176.333C179.149 176.333 180.137 175.363 180.137 174.23C180.137 152.31 180.137 152.31 180.137 152.31C182.112 152.795 184.088 153.038 185.981 153.038C189.932 153.038 193.554 152.067 196.929 150.126ZM208.123 90.9974C206.724 95.5271 202.773 105.638 194.789 110.248C190.508 112.675 185.652 113.16 180.137 111.704C180.137 106.123 180.137 106.123 180.137 106.123C184.5 98.3582 192.895 89.865 208.123 90.9974ZM198.904 62.2017C197.752 65.5181 195.118 71.5037 190.179 74.0921C187.381 75.5481 184.088 75.7099 180.384 74.5774C182.03 70.6139 187.134 61.7973 198.904 62.2017ZM165.814 74.0921C160.876 71.5037 158.242 65.5181 157.089 62.2017C168.86 61.7973 173.963 70.6139 175.61 74.5774C171.906 75.7099 168.613 75.5481 165.814 74.0921ZM161.205 110.248C153.22 105.638 149.269 95.5271 147.87 90.9974C163.098 89.865 171.494 98.3582 175.857 106.123C175.857 111.704 175.857 111.704 175.857 111.704C170.342 113.16 165.485 112.675 161.205 110.248ZM161.205 146.486C153.22 141.956 149.269 131.845 147.87 127.316C163.098 126.183 171.494 134.676 175.857 142.361C175.857 148.023 175.857 148.023 175.857 148.023C170.342 149.398 165.485 148.913 161.205 146.486ZM180.137 142.361C184.5 134.676 192.895 126.183 208.123 127.316C206.724 131.845 202.773 141.956 194.789 146.486C190.508 148.913 185.652 149.398 180.137 148.023V142.361Z" fill="#891C56"/>
</svg>