<svg width="25" height="24" viewBox="0 0 25 24" fill="none" xmlns="http://www.w3.org/2000/svg">
<path d="M7.49248 14.8303C7.67985 15.0166 7.9333 15.1211 8.19748 15.1211C8.46167 15.1211 8.71512 15.0166 8.90248 14.8303L12.4925 11.2903L16.0325 14.8303C16.2198 15.0166 16.4733 15.1211 16.7375 15.1211C17.0017 15.1211 17.2551 15.0166 17.4425 14.8303C17.5362 14.7373 17.6106 14.6267 17.6614 14.5049C17.7121 14.383 17.7383 14.2523 17.7383 14.1203C17.7383 13.9883 17.7121 13.8576 17.6614 13.7357C17.6106 13.6139 17.5362 13.5033 17.4425 13.4103L13.2025 9.1703C13.1095 9.07657 12.9989 9.00218 12.8771 8.95141C12.7552 8.90064 12.6245 8.8745 12.4925 8.8745C12.3605 8.8745 12.2298 8.90064 12.1079 8.95141C11.986 9.00218 11.8754 9.07657 11.7825 9.1703L7.49248 13.4103C7.39876 13.5033 7.32436 13.6139 7.27359 13.7357C7.22282 13.8576 7.19668 13.9883 7.19668 14.1203C7.19668 14.2523 7.22282 14.383 7.27359 14.5049C7.32436 14.6267 7.39876 14.7373 7.49248 14.8303Z" fill="#054169"/>
</svg>
