<?xml version="1.0" encoding="utf-8"?>
<!-- Generator: Adobe Illustrator 26.0.3, SVG Export Plug-In . SVG Version: 6.00 Build 0)  -->
<svg version="1.1" id="Layer_1" xmlns="http://www.w3.org/2000/svg" xmlns:xlink="http://www.w3.org/1999/xlink" x="0px" y="0px"
	 viewBox="0 0 427.9 420.9" style="enable-background:new 0 0 427.9 420.9;" xml:space="preserve">
<style type="text/css">
	.st0{fill:none;stroke:#434343;stroke-width:13;stroke-linecap:round;stroke-linejoin:round;stroke-miterlimit:10;}
</style>
<g>
	<polyline class="st0" points="304.5,158.6 411.7,158.6 411.7,408.8 18.6,408.8 18.6,158.6 125.8,158.6 	"/>
	<path class="st0" d="M215.1,239c20.2-67.3,80.4-81.2,80.4-143c0-43.3-38.5-80.4-80.4-80.4S134.7,52.7,134.7,96
		C134.7,157.8,194.9,171.7,215.1,239"/>
	<path class="st0" d="M215.2,69.3c14.9,0,26.9,12,26.9,26.7s-12.1,26.7-26.9,26.7c-14.9,0-26.9-12-26.9-26.7
		C188.3,81.2,200.4,69.3,215.2,69.3z"/>
	<polyline class="st0" points="349.1,408.8 259.8,319.4 143.6,319.4 18.6,194.3 	"/>
	<polyline class="st0" points="54.3,158.6 170.4,274.8 286.6,274.8 411.7,399.8 	"/>
	<polyline class="st0" points="241.9,408.8 197.2,364.1 107.9,364.1 18.6,274.8 	"/>
	<line class="st0" x1="277.7" y1="203.3" x2="411.7" y2="337.3"/>
	<line class="st0" x1="349.1" y1="274.8" x2="319.1" y2="304.8"/>
	<line class="st0" x1="102.9" y1="278.7" x2="63.2" y2="310.5"/>
</g>
</svg>
