<svg width="61" height="61" viewBox="0 0 61 61" fill="none" xmlns="http://www.w3.org/2000/svg">
<path fill-rule="evenodd" clip-rule="evenodd" d="M12.3934 31.1532C8.48102 31.1532 8.48102 31.1532 8.48102 31.1532C8.05305 31.1532 7.68624 31.5304 7.68624 31.9705C7.68624 35.9944 7.68624 35.9944 7.68624 35.9944C7.68624 36.4345 8.05305 36.8117 8.48102 36.8117C12.3934 36.8117 12.3934 36.8117 12.3934 36.8117C12.8214 36.8117 13.1882 36.4345 13.1882 35.9944C13.1882 31.9705 13.1882 31.9705 13.1882 31.9705C13.1882 31.5304 12.8214 31.1532 12.3934 31.1532ZM11.5987 35.177C9.27571 35.177 9.27571 35.177 9.27571 35.177C9.27571 32.7879 9.27571 32.7879 9.27571 32.7879C11.5987 32.7879 11.5987 32.7879 11.5987 32.7879V35.177Z" fill="#050F01"/>
<path fill-rule="evenodd" clip-rule="evenodd" d="M22.4031 31.1532C18.3755 31.1532 18.3755 31.1532 18.3755 31.1532C17.935 31.1532 17.5574 31.5304 17.5574 31.9705C17.5574 35.9944 17.5574 35.9944 17.5574 35.9944C17.5574 36.4345 17.935 36.8117 18.3755 36.8117C22.4031 36.8117 22.4031 36.8117 22.4031 36.8117C22.8436 36.8117 23.2212 36.4345 23.2212 35.9944C23.2212 31.9705 23.2212 31.9705 23.2212 31.9705C23.2212 31.5304 22.8436 31.1532 22.4031 31.1532ZM21.5849 35.177C19.1936 35.177 19.1936 35.177 19.1936 35.177C19.1936 32.7879 19.1936 32.7879 19.1936 32.7879C21.5849 32.7879 21.5849 32.7879 21.5849 32.7879V35.177Z" fill="#050F01"/>
<path fill-rule="evenodd" clip-rule="evenodd" d="M12.3934 23.3929C8.48102 23.3929 8.48102 23.3929 8.48102 23.3929C8.05305 23.3929 7.68624 23.7702 7.68624 24.2103C7.68624 28.2341 7.68624 28.2341 7.68624 28.2341C7.68624 28.6742 8.05305 29.0515 8.48102 29.0515C12.3934 29.0515 12.3934 29.0515 12.3934 29.0515C12.8214 29.0515 13.1882 28.6742 13.1882 28.2341C13.1882 24.2103 13.1882 24.2103 13.1882 24.2103C13.1882 23.7702 12.8214 23.3929 12.3934 23.3929ZM11.5987 27.4168C9.27571 27.4168 9.27571 27.4168 9.27571 27.4168C9.27571 25.0276 9.27571 25.0276 9.27571 25.0276C11.5987 25.0276 11.5987 25.0276 11.5987 25.0276V27.4168Z" fill="#050F01"/>
<path fill-rule="evenodd" clip-rule="evenodd" d="M22.4031 23.3929C18.3755 23.3929 18.3755 23.3929 18.3755 23.3929C17.935 23.3929 17.5574 23.7702 17.5574 24.2103C17.5574 28.2341 17.5574 28.2341 17.5574 28.2341C17.5574 28.6742 17.935 29.0515 18.3755 29.0515C22.4031 29.0515 22.4031 29.0515 22.4031 29.0515C22.8436 29.0515 23.2212 28.6742 23.2212 28.2341C23.2212 24.2103 23.2212 24.2103 23.2212 24.2103C23.2212 23.7702 22.8436 23.3929 22.4031 23.3929ZM21.5849 27.4168C19.1936 27.4168 19.1936 27.4168 19.1936 27.4168C19.1936 25.0276 19.1936 25.0276 19.1936 25.0276C21.5849 25.0276 21.5849 25.0276 21.5849 25.0276V27.4168Z" fill="#050F01"/>
<path fill-rule="evenodd" clip-rule="evenodd" d="M12.3934 15.6327C8.48102 15.6327 8.48102 15.6327 8.48102 15.6327C8.05305 15.6327 7.68624 15.9991 7.68624 16.4266C7.68624 20.3355 7.68624 20.3355 7.68624 20.3355C7.68624 20.763 8.05305 21.1295 8.48102 21.1295C12.3934 21.1295 12.3934 21.1295 12.3934 21.1295C12.8214 21.1295 13.1882 20.763 13.1882 20.3355C13.1882 16.4266 13.1882 16.4266 13.1882 16.4266C13.1882 15.9991 12.8214 15.6327 12.3934 15.6327ZM11.5987 19.5415C9.27571 19.5415 9.27571 19.5415 9.27571 19.5415C9.27571 17.2206 9.27571 17.2206 9.27571 17.2206C11.5987 17.2206 11.5987 17.2206 11.5987 17.2206V19.5415Z" fill="#050F01"/>
<path fill-rule="evenodd" clip-rule="evenodd" d="M22.4031 15.6327C18.3755 15.6327 18.3755 15.6327 18.3755 15.6327C17.935 15.6327 17.5574 15.9991 17.5574 16.4266C17.5574 20.3355 17.5574 20.3355 17.5574 20.3355C17.5574 20.763 17.935 21.1295 18.3755 21.1295C22.4031 21.1295 22.4031 21.1295 22.4031 21.1295C22.8436 21.1295 23.2212 20.763 23.2212 20.3355C23.2212 16.4266 23.2212 16.4266 23.2212 16.4266C23.2212 15.9991 22.8436 15.6327 22.4031 15.6327ZM21.5849 19.5415C19.1936 19.5415 19.1936 19.5415 19.1936 19.5415C19.1936 17.2206 19.1936 17.2206 19.1936 17.2206C21.5849 17.2206 21.5849 17.2206 21.5849 17.2206V19.5415Z" fill="#050F01"/>
<path fill-rule="evenodd" clip-rule="evenodd" d="M47.5281 48.4291C48.3682 47.6222 48.3682 47.6222 48.3682 47.6222C48.3993 47.5911 48.4304 47.5911 48.4615 47.5601C49.1149 46.9704 49.1149 46.9704 49.1149 46.9704C49.1771 46.9394 49.2082 46.8773 49.2704 46.8462C50.4527 45.8221 51.7284 44.8599 53.0351 43.9599C54.0619 43.246 54.0619 43.246 54.0619 43.246C54.093 43.215 54.1241 43.215 54.1552 43.184C54.7152 42.8426 54.7152 42.8426 54.7152 42.8426C56.1775 41.9425 57.6709 41.1356 59.2266 40.4217C59.9422 40.0804 59.9422 40.0804 59.9422 40.0804C60.2533 39.9252 60.44 39.5527 60.3777 39.2114C60.2533 38.5286 60.2533 38.5286 60.2533 38.5286C60.2533 31.7006 60.2533 31.7006 60.2533 31.7006C60.2845 31.4833 60.1911 31.2351 60.0044 31.0799C55.0264 26.1141 55.0264 26.1141 55.0264 26.1141C54.9019 25.9589 54.6841 25.8658 54.4663 25.8658C45.5058 25.8658 45.5058 25.8658 45.5058 25.8658C45.4747 25.8658 45.4436 25.8658 45.4125 25.8658C45.3814 25.8658 45.3814 25.8658 45.3814 25.8658C45.3502 25.8968 45.3191 25.8968 45.288 25.8968C45.2569 25.8968 45.2569 25.8968 45.2569 25.8968C45.2257 25.8968 45.1947 25.9279 45.1636 25.9279V25.9589C45.1325 25.9589 45.1013 25.9899 45.0702 25.9899C45.0391 26.021 45.008 26.052 44.9769 26.052C44.9769 26.0831 44.9769 26.0831 44.9458 26.0831C44.9458 26.0831 44.9458 26.0831 44.9458 26.1141C39.9988 31.0178 39.9988 31.0178 39.9988 31.0178C39.8121 31.173 39.7188 31.3903 39.7188 31.6385C39.7188 35.3629 39.7188 35.3629 39.7188 35.3629C38.7854 35.1767 37.852 35.0525 36.8875 34.9594C36.8875 33.3766 36.8875 33.3766 36.8875 33.3766C36.9498 33.2524 36.9809 33.1283 36.9809 33.0041C36.9809 32.9731 36.9809 32.9731 36.9809 32.9731C38.3187 31.3281 38.3187 31.3281 38.3187 31.3281C39.6566 29.6833 40.3722 27.6659 40.3722 25.5554C40.3722 23.0415 39.2521 20.5897 37.2298 18.6965C36.5453 18.0447 36.5453 18.0447 36.5453 18.0447C36.2342 17.7654 35.7675 17.7654 35.4564 18.0447C34.7719 18.6965 34.7719 18.6965 34.7719 18.6965C32.7184 20.5897 31.5983 23.0415 31.5983 25.5554C31.5983 27.6038 32.345 29.5902 33.7763 31.3281C35.1141 32.9731 35.1141 32.9731 35.1141 32.9731C35.1141 33.0041 35.1141 33.0041 35.1141 33.0041C35.1141 33.1903 35.1763 33.3455 35.2697 33.4697C35.2697 34.8352 35.2697 34.8352 35.2697 34.8352C34.7096 34.8042 34.1185 34.8042 33.5584 34.8042C32.5006 34.8042 31.4428 34.8663 30.416 34.9594C30.3849 34.9594 30.3849 34.9594 30.3849 34.9594C30.3849 8.79594 30.3849 8.79594 30.3849 8.79594C30.3849 8.4235 30.136 8.11314 29.7938 8.02002C1.91662 0.0437277 1.91662 0.0437277 1.91662 0.0437277C1.66772 -0.0493509 1.41882 0.0127148 1.20109 0.167899C1.01437 0.323083 0.889923 0.540332 0.889923 0.819648C0.889923 58.0192 0.889923 58.0192 0.889923 58.0192C0.889923 58.3296 1.04547 58.6089 1.32554 58.7331C2.07224 59.1676 2.07224 59.1676 2.07224 59.1676C2.19669 59.2297 2.32114 59.2607 2.47668 59.2607C7.4236 59.2607 7.4236 59.2607 7.4236 59.2607C23.3535 59.2607 23.3535 59.2607 23.3535 59.2607C28.7671 59.2607 28.7671 59.2607 28.7671 59.2607C28.8915 59.2607 29.016 59.2297 29.1093 59.1986C29.9182 58.7952 29.9182 58.7952 29.9182 58.7952C30.1983 58.671 30.3849 58.3917 30.3849 58.0813C30.3849 50.8499 30.3849 50.8499 30.3849 50.8499C30.6338 50.8189 30.6338 50.8189 30.6338 50.8189C30.8827 50.8189 31.1316 50.8189 31.3494 50.8189C34.7719 50.8189 38.1632 51.6569 41.1811 53.2707C41.0566 53.4259 41.0566 53.4259 41.0566 53.4259C39.781 55.226 38.6299 57.1192 37.6031 59.0745C37.4165 59.478 37.572 59.9745 37.9765 60.1607C38.0698 60.2228 38.2254 60.2538 38.3187 60.2538C38.6299 60.2538 38.9099 60.0987 39.0654 59.8193C40.0299 57.9261 41.15 56.095 42.3634 54.388C43.0167 53.488 43.0167 53.488 43.0167 53.488C43.5145 52.8362 43.5145 52.8362 43.5145 52.8362C44.728 51.2844 46.0658 49.8257 47.5281 48.4291ZM35.0208 30.304C33.8384 28.8453 33.2162 27.2314 33.2162 25.5554C33.2162 23.476 34.1496 21.4587 35.8608 19.8758C35.9853 19.7517 35.9853 19.7517 35.9853 19.7517C36.1097 19.8758 36.1097 19.8758 36.1097 19.8758C37.8209 21.4587 38.7543 23.476 38.7543 25.5554C38.7543 27.2935 38.1632 28.9384 37.0742 30.304C36.8875 30.5212 36.8875 30.5212 36.8875 30.5212C36.8875 25.0899 36.8875 25.0899 36.8875 25.0899C36.8875 24.6554 36.5142 24.283 36.0786 24.283C35.643 24.283 35.2697 24.6554 35.2697 25.0899C35.2697 30.6143 35.2697 30.6143 35.2697 30.6143L35.0208 30.304ZM58.5421 38.932C56.9553 39.6769 55.3686 40.5459 53.8752 41.446C53.7818 41.508 53.7818 41.508 53.7818 41.508C53.0351 41.0114 53.0351 41.0114 53.0351 41.0114C52.8796 40.8873 52.724 40.7942 52.5684 40.67L52.5373 40.639C52.3507 40.5149 52.1639 40.3907 51.9461 40.2666C51.884 40.2045 51.7906 40.1424 51.6972 40.0804C51.604 40.0183 51.5106 39.9562 51.4172 39.8941C51.3862 39.8941 51.3862 39.8941 51.3551 39.8941C51.2928 39.8321 51.2928 39.8321 51.2928 39.8321C51.2928 39.5838 51.2928 39.5838 51.2928 39.5838C51.2928 32.4454 51.2928 32.4454 51.2928 32.4454C58.6354 32.4454 58.6354 32.4454 58.6354 32.4454C58.6354 38.5906 58.6354 38.5906 58.6354 38.5906C58.6354 38.6527 58.6354 38.6837 58.6354 38.7458C58.6665 38.8699 58.6665 38.8699 58.6665 38.8699L58.5421 38.932ZM41.3367 32.4454C49.6749 32.4454 49.6749 32.4454 49.6749 32.4454C49.6749 38.901 49.6749 38.901 49.6749 38.901C49.395 38.7458 49.395 38.7458 49.395 38.7458C49.0527 38.5596 48.6793 38.3734 48.306 38.1871C48.306 34.618 48.306 34.618 48.306 34.618C48.306 34.587 48.306 34.5559 48.306 34.5249C48.306 34.5249 48.306 34.4939 48.306 34.4628C48.306 34.4628 48.306 34.4628 48.2748 34.4628C48.2748 34.4318 48.2748 34.4007 48.2748 34.4007V34.3697C48.2748 34.3697 48.2437 34.3387 48.2437 34.3076C48.2437 34.2766 48.2126 34.2766 48.2126 34.2456C48.2126 34.2145 48.1815 34.2145 48.1815 34.1835C48.1504 34.1525 48.1504 34.1525 48.1504 34.1214C48.1193 34.1214 48.1193 34.1214 48.1193 34.0904C48.1193 34.0904 48.0882 34.0594 48.0571 34.0594C48.0571 34.0283 48.0259 33.9973 48.0259 33.9973C47.9948 33.9973 47.9948 33.9973 47.9948 33.9662C47.9637 33.9662 47.9637 33.9662 47.9326 33.9352C47.9015 33.9352 47.9015 33.9042 47.8704 33.9042C47.8393 33.9042 47.8393 33.8731 47.8082 33.8731C47.777 33.8731 47.7459 33.8421 47.7459 33.8421C47.7148 33.8421 47.7148 33.8421 47.7148 33.8421C47.7148 33.8421 47.6837 33.8421 47.6526 33.8111C47.6526 33.8111 47.6526 33.8111 47.6215 33.8111H47.5904C47.5593 33.8111 47.5281 33.8111 47.497 33.8111C43.5145 33.8111 43.5145 33.8111 43.5145 33.8111C43.079 33.8111 42.7057 34.1835 42.7057 34.618C42.7057 36.0457 42.7057 36.0457 42.7057 36.0457C42.4568 35.9836 42.4568 35.9836 42.4568 35.9836C42.1456 35.8905 41.8345 35.8284 41.4922 35.7353C41.3367 35.7043 41.3367 35.7043 41.3367 35.7043V32.4454ZM46.6881 37.4113C46.6881 37.4423 46.6881 37.4423 46.6881 37.4423C46.4392 37.3492 46.4392 37.3492 46.4392 37.3492C45.7858 37.0698 45.1013 36.8216 44.448 36.6043C44.3235 36.5422 44.3235 36.5422 44.3235 36.5422C44.3235 35.4249 44.3235 35.4249 44.3235 35.4249C46.6881 35.4249 46.6881 35.4249 46.6881 35.4249V37.4113ZM54.1241 27.4797C57.4843 30.8316 57.4843 30.8316 57.4843 30.8316C50.8261 30.8316 50.8261 30.8316 50.8261 30.8316C47.4659 27.4797 47.4659 27.4797 47.4659 27.4797H54.1241ZM45.5058 27.8211C46.4081 28.6901 46.4081 28.6901 46.4081 28.6901C48.5237 30.8316 48.5237 30.8316 48.5237 30.8316C42.4878 30.8316 42.4878 30.8316 42.4878 30.8316L45.5058 27.8211ZM30.5405 36.5422C31.5672 36.4491 32.5628 36.4181 33.5584 36.4181C39.6255 36.4181 45.4747 38.0941 50.5461 41.2908C50.5772 41.2908 50.6083 41.3218 50.6395 41.3528C50.795 41.4149 50.9194 41.508 51.075 41.6011C51.2617 41.7253 51.4483 41.8494 51.604 41.9736C51.6351 42.0046 51.6661 42.0046 51.6972 42.0356C51.915 42.1598 52.1018 42.315 52.3195 42.4701C52.1018 42.6253 52.1018 42.6253 52.1018 42.6253C50.7639 43.5564 49.426 44.5496 48.2126 45.6358C48.1504 45.6669 48.0882 45.7289 48.0571 45.76C47.8393 45.9462 47.8393 45.9462 47.8393 45.9462C47.1548 45.5737 47.1548 45.5737 47.1548 45.5737C47.0614 45.5117 46.9681 45.4806 46.8748 45.4186C46.8437 45.4186 46.8437 45.3876 46.8437 45.3876C46.6881 45.3255 46.5636 45.2634 46.4392 45.1703C46.4081 45.1703 46.4081 45.1703 46.377 45.1703C46.2525 45.1082 46.1281 45.0151 46.0036 44.9531C45.9725 44.9531 45.9725 44.9531 45.9414 44.922C45.8169 44.8599 45.6925 44.7979 45.568 44.7358C45.568 44.7358 45.5369 44.7358 45.5058 44.7048C45.3814 44.6737 45.288 44.6116 45.1636 44.5496C45.1325 44.5496 45.1013 44.5185 45.0391 44.4875C44.9769 44.4564 44.8836 44.4254 44.7902 44.3944C44.728 44.3633 44.6658 44.3323 44.6035 44.3013C44.5724 44.3013 44.5724 44.2703 44.5413 44.2703C42.0834 43.184 39.501 42.4391 36.8564 42.0667C36.8564 42.0667 36.8564 42.0667 36.8253 42.0667C36.7009 42.0356 36.5453 42.0356 36.3897 42.0046H36.3586C36.2031 41.9736 36.0786 41.9736 35.923 41.9425C35.8919 41.9425 35.8919 41.9425 35.8608 41.9425C35.7053 41.9115 35.5808 41.9115 35.4564 41.8805C35.4252 41.8805 35.3941 41.8805 35.363 41.8805C35.2386 41.8805 35.1141 41.8494 34.9897 41.8494C34.9274 41.8494 34.8963 41.8494 34.8652 41.8494C34.7408 41.8494 34.6163 41.8184 34.4919 41.8184C34.4296 41.8184 34.3985 41.8184 34.3362 41.8184C34.243 41.7873 34.1185 41.7873 34.0252 41.7873C33.9629 41.7873 33.8696 41.7873 33.8074 41.7873C33.714 41.7873 33.6207 41.7873 33.5274 41.7563C33.434 41.7563 33.3406 41.7563 33.2474 41.7563C33.1851 41.7563 33.1228 41.7563 33.0606 41.7563C32.8739 41.7563 32.7184 41.7563 32.5628 41.7563C32.4073 41.7563 32.2517 41.7563 32.065 41.7563C31.9406 41.7563 31.8161 41.7563 31.6917 41.7563C31.6606 41.7563 31.6294 41.7563 31.5672 41.7873C31.4428 41.7873 31.2872 41.7873 31.1316 41.7873C31.1005 41.7873 31.1005 41.7873 31.1005 41.7873C30.945 41.7873 30.7894 41.8184 30.6338 41.8184C30.6027 41.8184 30.6027 41.8184 30.5716 41.8184C30.5405 41.8184 30.5405 41.8184 30.5405 41.8184C30.5094 41.8184 30.4783 41.8184 30.4472 41.8184C30.3849 41.8494 30.3849 41.8494 30.3849 41.8494C30.3849 36.5733 30.3849 36.5733 30.3849 36.5733L30.5405 36.5422ZM22.5445 47.3428C22.5445 57.6468 22.5445 57.6468 22.5445 57.6468C16.1975 57.6468 16.1975 57.6468 16.1975 57.6468C16.1975 47.3428 16.1975 47.3428 16.1975 47.3428H22.5445ZM14.5796 57.6468C8.23256 57.6468 8.23256 57.6468 8.23256 57.6468C8.23256 47.3428 8.23256 47.3428 8.23256 47.3428C14.5796 47.3428 14.5796 47.3428 14.5796 47.3428V57.6468ZM28.7671 57.5537C28.5804 57.6468 28.5804 57.6468 28.5804 57.6468C24.1623 57.6468 24.1623 57.6468 24.1623 57.6468C24.1623 46.5359 24.1623 46.5359 24.1623 46.5359C24.1623 46.1014 23.789 45.7289 23.3535 45.7289C7.4236 45.7289 7.4236 45.7289 7.4236 45.7289C6.98806 45.7289 6.61471 46.1014 6.61471 46.5359C6.61471 57.6468 6.61471 57.6468 6.61471 57.6468C2.66332 57.6468 2.66332 57.6468 2.66332 57.6468C2.50778 57.5537 2.50778 57.5537 2.50778 57.5537C2.50778 1.87488 2.50778 1.87488 2.50778 1.87488C28.7671 9.38562 28.7671 9.38562 28.7671 9.38562C28.7671 35.8284 28.7671 35.8284 28.7671 35.8284C28.7671 42.6874 28.7671 42.6874 28.7671 42.6874C28.7671 50.074 28.7671 50.074 28.7671 50.074V57.5537ZM30.5716 49.205C30.3849 49.236 30.3849 49.236 30.3849 49.236C30.3849 43.4633 30.3849 43.4633 30.3849 43.4633C30.4783 43.4323 30.4783 43.4323 30.4783 43.4323C30.6649 43.4323 30.6649 43.4323 30.6649 43.4323C30.6649 43.4323 30.6961 43.4323 30.7272 43.4323C30.8827 43.4323 31.0072 43.4012 31.1627 43.4012C31.3183 43.4012 31.4739 43.4012 31.6294 43.3702C31.6606 43.3702 31.6917 43.3702 31.7228 43.3702C31.8472 43.3702 31.9717 43.3702 32.0961 43.3702C32.2517 43.3702 32.4073 43.3702 32.5628 43.3702C32.7184 43.3702 32.8739 43.3702 33.0296 43.3702C33.0917 43.3702 33.154 43.3702 33.2162 43.3702C33.3095 43.3702 33.4029 43.3702 33.4963 43.3702C33.5584 43.4012 33.6518 43.4012 33.7452 43.4012C33.8074 43.4012 33.8696 43.4012 33.9318 43.4012C34.0252 43.4012 34.1496 43.4012 34.243 43.4323C34.3051 43.4323 34.3362 43.4323 34.3985 43.4323C34.4919 43.4323 34.6163 43.4323 34.7408 43.4633C34.7719 43.4633 34.803 43.4633 34.834 43.4633C34.9585 43.4633 35.083 43.4943 35.2075 43.4943C35.2386 43.4943 35.2697 43.4943 35.3008 43.4943C35.4252 43.5254 35.5497 43.5254 35.6741 43.5564C35.7053 43.5564 35.7053 43.5564 35.7364 43.5564C35.8608 43.5564 36.0164 43.5874 36.1408 43.5874C36.1719 43.5874 36.1719 43.5874 36.1719 43.5874C36.3275 43.6185 36.452 43.6495 36.6075 43.6495C39.1588 44.0219 41.6167 44.7358 43.9502 45.76C44.0124 45.791 44.0746 45.8221 44.1369 45.8531C44.2302 45.8841 44.2924 45.9152 44.3858 45.9772C44.4169 45.9772 44.448 46.0082 44.5102 46.0082C44.6035 46.0704 44.6969 46.1014 44.7902 46.1634C44.8213 46.1634 44.8524 46.1945 44.8836 46.1945C44.9769 46.2565 45.1013 46.3186 45.2257 46.3807C45.2257 46.3807 45.2569 46.3807 45.288 46.4117C45.3814 46.4738 45.5058 46.5359 45.6303 46.598C45.6614 46.598 45.6614 46.598 45.6925 46.598C45.8169 46.6911 45.9414 46.7531 46.0658 46.8152C46.0658 46.8152 46.0658 46.8152 46.097 46.8152C46.2525 46.9083 46.4081 47.0014 46.5636 47.0945C46.4081 47.2807 46.4081 47.2807 46.4081 47.2807C44.9147 48.7084 43.5145 50.2292 42.27 51.8431C42.1456 51.9672 42.1456 51.9672 42.1456 51.9672C42.0211 51.8741 42.0211 51.8741 42.0211 51.8741C38.7543 50.1361 35.083 49.205 31.3494 49.205C31.1005 49.205 30.8516 49.205 30.5716 49.205Z" fill="#050F01"/>
</svg>
