<svg width="1920" height="1080" viewBox="0 0 1920 1080" fill="none" xmlns="http://www.w3.org/2000/svg">
<path d="M390.5 316.4H109.5V690.3H390.5V316.4Z" fill="white" stroke="#054169" stroke-width="3" stroke-miterlimit="10"/>
<path d="M453.5 248.5H172.5V622.4H453.5V248.5Z" fill="#D6F3FF"/>
<mask id="mask0_250_3628" style="mask-type:alpha" maskUnits="userSpaceOnUse" x="172" y="248" width="282" height="375">
<path d="M453.5 248.5H172.5V622.4H453.5V248.5Z" fill="#D6F3FF"/>
</mask>
<g mask="url(#mask0_250_3628)">
<path d="M319.4 167.6L-40.5 527.5" stroke="#9DDEFA" stroke-width="2" stroke-miterlimit="10"/>
<path d="M302.4 155.6L-57.5 515.5" stroke="#9DDEFA" stroke-width="2" stroke-miterlimit="10"/>
<path d="M336.2 179.1L-23.8 539" stroke="#9DDEFA" stroke-width="2" stroke-miterlimit="10"/>
<path d="M352.9 190.6L-7.09998 550.5" stroke="#9DDEFA" stroke-width="2" stroke-miterlimit="10"/>
<path d="M369.6 202.1L9.70001 562" stroke="#9DDEFA" stroke-width="2" stroke-miterlimit="10"/>
<path d="M386.3 213.6L26.4 573.5" stroke="#9DDEFA" stroke-width="2" stroke-miterlimit="10"/>
<path d="M403 225.1L43.1 585" stroke="#9DDEFA" stroke-width="2" stroke-miterlimit="10"/>
<path d="M419.8 236.6L59.8 596.5" stroke="#9DDEFA" stroke-width="2" stroke-miterlimit="10"/>
<path d="M436.5 248.1L76.5 608" stroke="#9DDEFA" stroke-width="2" stroke-miterlimit="10"/>
<path d="M453.2 259.6L93.2 619.5" stroke="#9DDEFA" stroke-width="2" stroke-miterlimit="10"/>
<path d="M469.9 271.1L110 631" stroke="#9DDEFA" stroke-width="2" stroke-miterlimit="10"/>
<path d="M478 290L118.1 649.9" stroke="#9DDEFA" stroke-width="2" stroke-miterlimit="10"/>
<path d="M494.8 301.5L134.8 661.4" stroke="#9DDEFA" stroke-width="2" stroke-miterlimit="10"/>
<path d="M511.5 313L151.5 672.9" stroke="#9DDEFA" stroke-width="2" stroke-miterlimit="10"/>
<path d="M528.2 324.5L168.2 684.4" stroke="#9DDEFA" stroke-width="2" stroke-miterlimit="10"/>
<path d="M544.9 336L185 695.9" stroke="#9DDEFA" stroke-width="2" stroke-miterlimit="10"/>
<path d="M561.6 347.5L201.7 707.4" stroke="#9DDEFA" stroke-width="2" stroke-miterlimit="10"/>
<path d="M578.3 359L218.4 718.9" stroke="#9DDEFA" stroke-width="2" stroke-miterlimit="10"/>
<path d="M595.1 370.5L235.1 730.4" stroke="#9DDEFA" stroke-width="2" stroke-miterlimit="10"/>
<path d="M611.8 382L251.8 741.9" stroke="#9DDEFA" stroke-width="2" stroke-miterlimit="10"/>
<path d="M628.5 393.5L268.6 753.5" stroke="#9DDEFA" stroke-width="2" stroke-miterlimit="10"/>
</g>
<path d="M454.5 248.4H173.5V622.3H454.5V248.4Z" stroke="#054169" stroke-width="3" stroke-miterlimit="10"/>
<path d="M363.5 316.6H82.5V690.5H363.5V316.6Z" fill="white" stroke="#054169" stroke-width="3" stroke-miterlimit="10"/>
<path d="M883.5 327.5H588.5V701.4H883.5V327.5Z" fill="white"/>
<path d="M883.5 695.4V701.4H877.5" stroke="#054169" stroke-width="5" stroke-miterlimit="10"/>
<path d="M867.2 701.4H599.7" stroke="#054169" stroke-width="5" stroke-miterlimit="10" stroke-dasharray="12.39 12.39"/>
<path d="M594.5 701.4H588.5V695.4" stroke="#054169" stroke-width="5" stroke-miterlimit="10"/>
<path d="M588.5 685.4V338.5" stroke="#054169" stroke-width="5" stroke-miterlimit="10" stroke-dasharray="12 12"/>
<path d="M588.5 333.5V327.5H594.5" stroke="#054169" stroke-width="5" stroke-miterlimit="10"/>
<path d="M605 327.5H872.5" stroke="#054169" stroke-width="5" stroke-miterlimit="10" stroke-dasharray="12.39 12.39"/>
<path d="M877.5 327.5H883.5V333.5" stroke="#054169" stroke-width="5" stroke-miterlimit="10"/>
<path d="M883.5 343.5V690.4" stroke="#054169" stroke-width="5" stroke-miterlimit="10" stroke-dasharray="12 12"/>
<path d="M1230.5 327.5H935.5V701.4H1230.5V327.5Z" fill="white"/>
<path d="M1230.5 695.4V701.4H1224.5" stroke="#054169" stroke-width="5" stroke-miterlimit="10"/>
<path d="M1214.2 701.4H946.7" stroke="#054169" stroke-width="5" stroke-miterlimit="10" stroke-dasharray="12.39 12.39"/>
<path d="M941.5 701.4H935.5V695.4" stroke="#054169" stroke-width="5" stroke-miterlimit="10"/>
<path d="M935.5 685.4V338.5" stroke="#054169" stroke-width="5" stroke-miterlimit="10" stroke-dasharray="12 12"/>
<path d="M935.5 333.5V327.5H941.5" stroke="#054169" stroke-width="5" stroke-miterlimit="10"/>
<path d="M951.8 327.5H1219.3" stroke="#054169" stroke-width="5" stroke-miterlimit="10" stroke-dasharray="12.39 12.39"/>
<path d="M1224.5 327.5H1230.5V333.5" stroke="#054169" stroke-width="5" stroke-miterlimit="10"/>
<path d="M1230.5 343.5V690.4" stroke="#054169" stroke-width="5" stroke-miterlimit="10" stroke-dasharray="12 12"/>
<path d="M1587.5 327.5H1292.5V701.4H1587.5V327.5Z" fill="white"/>
<path d="M1587.5 695.4V701.4H1581.5" stroke="#054169" stroke-width="5" stroke-miterlimit="10"/>
<path d="M1571.2 701.4H1303.7" stroke="#054169" stroke-width="5" stroke-miterlimit="10" stroke-dasharray="12.39 12.39"/>
<path d="M1298.5 701.4H1292.5V695.4" stroke="#054169" stroke-width="5" stroke-miterlimit="10"/>
<path d="M1292.5 685.4V338.5" stroke="#054169" stroke-width="5" stroke-miterlimit="10" stroke-dasharray="12 12"/>
<path d="M1292.5 333.5V327.5H1298.5" stroke="#054169" stroke-width="5" stroke-miterlimit="10"/>
<path d="M1308.8 327.5H1576.3" stroke="#054169" stroke-width="5" stroke-miterlimit="10" stroke-dasharray="12.39 12.39"/>
<path d="M1581.5 327.5H1587.5V333.5" stroke="#054169" stroke-width="5" stroke-miterlimit="10"/>
<path d="M1587.5 343.5V690.4" stroke="#054169" stroke-width="5" stroke-miterlimit="10" stroke-dasharray="12 12"/>
<path d="M249.5 813.8C267.725 813.8 282.5 799.025 282.5 780.8C282.5 762.575 267.725 747.8 249.5 747.8C231.275 747.8 216.5 762.575 216.5 780.8C216.5 799.025 231.275 813.8 249.5 813.8Z" fill="#054169" stroke="#054169" stroke-width="3" stroke-miterlimit="10"/>
<path d="M1738.5 813.5C1756.73 813.5 1771.5 798.725 1771.5 780.5C1771.5 762.275 1756.73 747.5 1738.5 747.5C1720.27 747.5 1705.5 762.275 1705.5 780.5C1705.5 798.725 1720.27 813.5 1738.5 813.5Z" fill="white" stroke="#054169" stroke-width="3" stroke-miterlimit="10"/>
<path d="M1647.5 766.5H340.5V796.5H1647.5V766.5Z" fill="#054169" stroke="#054169" stroke-width="3" stroke-miterlimit="10"/>
<path d="M136.6 873.3C136.7 874.7 137 876 137.6 877.2C138.1 878.2 138.9 879.1 139.8 879.8C140.7 880.5 141.7 881 142.8 881.3C144 881.6 145.3 881.8 146.5 881.8C147.9 881.8 149.2 881.6 150.5 881.2C151.5 880.9 152.4 880.3 153.2 879.6C153.9 879 154.4 878.2 154.8 877.3C155.1 876.4 155.3 875.5 155.3 874.6C155.4 873.4 155 872.3 154.4 871.3C153.8 870.5 153 869.8 152 869.3C150.9 868.7 149.8 868.3 148.6 868C147.3 867.7 146 867.4 144.7 867.1C143.4 866.8 142.1 866.4 140.8 866C139.6 865.6 138.5 865 137.4 864.3C136.4 863.6 135.6 862.7 135 861.6C133.9 859.2 133.8 856.4 134.9 853.9C135.4 852.8 136.2 851.7 137.1 850.9C138.2 850 139.4 849.3 140.8 848.8C142.4 848.3 144.2 848 145.9 848C147.6 848 149.4 848.2 151 848.8C152.4 849.3 153.6 850 154.6 851C155.6 851.9 156.3 853 156.8 854.3C157.3 855.6 157.5 856.9 157.5 858.3H154.4C154.4 857.1 154.2 856 153.7 854.9C153.3 854 152.6 853.2 151.8 852.6C151 852 150.1 851.5 149.1 851.3C148.1 851 147 850.9 145.9 850.9C144.5 850.9 143 851.1 141.7 851.6C140.7 852 139.7 852.6 139 853.4C138.3 854.1 137.9 854.9 137.6 855.9C137.3 856.8 137.3 857.7 137.5 858.6C137.6 859.6 138.1 860.6 138.9 861.3C139.7 862 140.5 862.6 141.5 863C142.6 863.5 143.7 863.8 144.9 864.1C146.1 864.4 147.4 864.7 148.7 865C150 865.3 151.2 865.7 152.4 866.1C153.5 866.5 154.6 867.1 155.6 867.8C156.5 868.5 157.3 869.4 157.8 870.5C158.4 871.8 158.7 873.2 158.6 874.7C158.7 877.6 157.5 880.3 155.3 882.1C153.1 883.9 150 884.7 146 884.7C144.3 884.7 142.6 884.5 141 884C139.5 883.6 138.2 882.9 137 881.9C135.9 880.9 135 879.7 134.4 878.4C133.7 876.8 133.4 875.2 133.5 873.5L136.6 873.3Z" fill="#054169"/>
<path d="M181 858.8H183.9V883.7H181V880.3C180.6 880.7 180.2 881.2 179.7 881.7C179.2 882.2 178.6 882.6 178.1 883C177.4 883.4 176.7 883.8 175.9 884C175 884.3 174 884.4 173 884.4C171.6 884.4 170.2 884.2 168.8 883.7C167.7 883.3 166.8 882.6 166.1 881.7C165.4 880.9 164.9 879.9 164.6 878.8C164.3 877.6 164.1 876.4 164.1 875.2V858.9H167V875.2C166.9 877 167.4 878.7 168.5 880.1C169.5 881.2 171.1 881.8 173.4 881.8C174.5 881.8 175.6 881.6 176.6 881.1C177.5 880.6 178.3 880 179 879.1C179.7 878.2 180.2 877.2 180.5 876.1C180.9 874.9 181 873.6 181 872.3V858.8Z" fill="#054169"/>
<path d="M194 883.7H191.1V849.1H194V862.8C194.9 861.3 196.2 860.1 197.8 859.3C199.4 858.5 201.1 858.1 202.9 858.1C204.6 858.1 206.3 858.4 207.8 859.2C209.2 859.9 210.3 860.9 211.2 862.1C212.1 863.4 212.8 864.8 213.2 866.3C213.7 867.9 213.9 869.6 213.9 871.3C213.9 873 213.7 874.8 213.3 876.4C212.9 877.9 212.2 879.3 211.3 880.6C210.4 881.8 209.2 882.7 207.8 883.4C206.2 884.1 204.4 884.5 202.7 884.4C201.9 884.4 201 884.3 200.3 884.1C199.5 883.9 198.6 883.5 197.9 883.1C197.1 882.7 196.4 882.2 195.7 881.5C195 880.9 194.5 880.1 194.1 879.3V883.7H194ZM194 871.1C194 872.5 194.2 873.9 194.6 875.3C194.9 876.5 195.5 877.7 196.2 878.7C196.9 879.6 197.8 880.4 198.8 880.9C199.9 881.5 201.2 881.7 202.4 881.7C203.6 881.7 204.7 881.5 205.8 881C206.8 880.6 207.7 879.9 208.5 879.1C209.3 878.2 209.9 877.2 210.3 876.1C210.8 874.8 211 873.4 210.9 871.9C211 870.4 210.8 868.9 210.5 867.5C210.2 866.2 209.7 865 209 863.9C208.3 862.9 207.4 862.1 206.3 861.5C205.1 860.9 203.8 860.6 202.4 860.6C201.2 860.6 200 860.9 198.9 861.4C197.9 862 197 862.7 196.3 863.6C195.6 864.6 195 865.7 194.6 866.9C194.2 868.4 194 869.8 194 871.1Z" fill="#054169"/>
<path d="M222.6 883.7H219.7V858.8H222.6V862.5H222.7C223.4 861.1 224.5 860 225.9 859.2C227.3 858.4 228.8 858.1 230.4 858.1C231.4 858.1 232.4 858.2 233.3 858.5C234 858.7 234.7 859.1 235.3 859.5C235.8 859.9 236.3 860.4 236.7 861C237.1 861.6 237.4 862.2 237.6 862.9C238.3 861.4 239.5 860.1 240.9 859.3C242.4 858.5 244 858.1 245.7 858.1C247.1 858 248.5 858.3 249.7 858.9C250.7 859.4 251.5 860.2 252 861.1C252.6 862.1 252.9 863.1 253.1 864.3C253.3 865.5 253.4 866.7 253.4 868V883.7H250.5V866.5C250.6 865 250.2 863.5 249.4 862.3C248.6 861.3 247.2 860.8 245.2 860.8C244.2 860.8 243.1 861 242.2 861.5C241.2 862 240.3 862.7 239.6 863.6C239.3 864 239 864.5 238.8 865.1C238.6 865.7 238.4 866.3 238.3 866.9C238.2 867.5 238.1 868.1 238 868.7C238 869.3 237.9 869.9 237.9 870.4V883.8H235V866.6C235.1 865.1 234.7 863.6 233.9 862.4C233.2 861.4 231.8 860.9 229.7 860.9C228.7 860.9 227.6 861.1 226.7 861.6C225.7 862.1 224.8 862.8 224.1 863.7C223.8 864.1 223.5 864.6 223.3 865.2C223.1 865.8 222.9 866.4 222.8 867C222.7 867.6 222.6 868.2 222.5 868.8C222.5 869.4 222.4 870 222.4 870.5L222.6 883.7Z" fill="#054169"/>
<path d="M260.4 853.4V849.1H263.6V853.4H260.4ZM260.6 883.6V858.7H263.5V883.6H260.6Z" fill="#054169"/>
<path d="M272.5 875.9C272.7 877.7 273.6 879.3 274.9 880.4C276.4 881.4 278.1 881.8 279.9 881.7C280.8 881.7 281.7 881.6 282.6 881.3C283.3 881.1 283.9 880.8 284.5 880.3C285 879.9 285.4 879.4 285.6 878.8C285.9 878.3 286 877.7 286 877.1C286.1 876.1 285.6 875 284.8 874.4C283.9 873.8 282.9 873.3 281.8 873C280.5 872.6 279.3 872.4 278 872.1C276.7 871.9 275.4 871.5 274.2 871C273.1 870.6 272.1 869.8 271.2 868.9C270.4 867.8 269.9 866.5 270 865.1C269.9 863.1 270.8 861.3 272.3 860C274.1 858.6 276.4 857.9 278.8 858C281.1 857.9 283.4 858.5 285.3 859.8C287 861 288 863 288.3 865.8H285.4C285.3 864.2 284.5 862.7 283.2 861.7C281.8 860.9 280.3 860.5 278.7 860.5C277.2 860.4 275.7 860.8 274.5 861.7C273.6 862.4 273 863.6 273.1 864.8C273 865.8 273.5 866.8 274.3 867.4C275.2 868 276.2 868.5 277.3 868.8C278.5 869.2 279.8 869.5 281.1 869.8C282.4 870.1 283.7 870.5 285 871C286.1 871.5 287.2 872.2 288 873.1C288.8 874.2 289.3 875.5 289.2 876.9C289.2 878 289 879.1 288.4 880C287.9 880.9 287.2 881.7 286.3 882.3C285.3 882.9 284.2 883.4 283.1 883.7C281.8 884 280.4 884.2 279 884.2C277.7 884.2 276.3 884 275.1 883.6C274 883.2 273 882.6 272.2 881.8C271.4 881 270.8 880.1 270.3 879.1C269.8 878.1 269.6 876.9 269.5 875.8L272.5 875.9Z" fill="#054169"/>
<path d="M296.5 875.9C296.7 877.7 297.6 879.3 298.9 880.4C300.4 881.4 302.1 881.8 303.9 881.7C304.8 881.7 305.7 881.6 306.6 881.3C307.3 881.1 307.9 880.8 308.5 880.3C309 879.9 309.4 879.4 309.6 878.8C309.9 878.3 310 877.7 310 877.1C310.1 876.1 309.6 875 308.8 874.4C307.9 873.8 306.9 873.3 305.8 873C304.5 872.6 303.3 872.4 302 872.1C300.7 871.9 299.4 871.5 298.2 871C297.1 870.6 296.1 869.8 295.2 868.9C294.4 867.8 293.9 866.5 294 865.1C293.9 863.1 294.8 861.3 296.3 860C298.1 858.6 300.4 857.9 302.8 858C305.1 857.9 307.4 858.5 309.3 859.8C311 861 312 863 312.3 865.8H309.4C309.3 864.2 308.5 862.7 307.2 861.7C305.8 860.9 304.3 860.5 302.7 860.5C301.2 860.4 299.7 860.8 298.5 861.7C297.6 862.4 297 863.6 297.1 864.8C297 865.8 297.5 866.8 298.3 867.4C299.2 868 300.2 868.5 301.3 868.8C302.5 869.2 303.8 869.5 305.1 869.8C306.4 870.1 307.7 870.5 309 871C310.1 871.5 311.2 872.2 312 873.1C312.8 874.2 313.3 875.5 313.2 876.9C313.2 878 313 879.1 312.4 880C311.9 880.9 311.2 881.7 310.3 882.3C309.3 882.9 308.2 883.4 307.1 883.7C305.8 884 304.4 884.2 303 884.2C301.7 884.2 300.3 884 299.1 883.6C298 883.2 297 882.6 296.2 881.8C295.4 881 294.8 880.1 294.3 879.1C293.8 878.1 293.6 876.9 293.5 875.8L296.5 875.9Z" fill="#054169"/>
<path d="M319.1 853.4V849.1H322.3V853.4H319.1ZM319.2 883.6V858.7H322.1V883.6H319.2Z" fill="#054169"/>
<path d="M339.3 884.3C337.8 884.3 336.2 884 334.8 883.4C333.4 882.9 332.2 882 331.2 880.9C330.1 879.7 329.3 878.3 328.7 876.8C328.1 875 327.7 873 327.8 871.1C327.8 869.4 328 867.6 328.5 866C328.9 864.5 329.7 863.1 330.7 861.8C331.7 860.6 332.9 859.6 334.3 859C335.9 858.3 337.6 858 339.3 858C341.1 857.9 342.8 858.3 344.4 859C345.8 859.6 347 860.6 348 861.8C349 863 349.7 864.4 350.1 866C350.6 867.7 350.8 869.4 350.8 871.1C350.8 872.9 350.5 874.7 350 876.5C349.5 878 348.7 879.4 347.7 880.6C346.7 881.7 345.4 882.7 344.1 883.3C342.5 884 340.9 884.3 339.3 884.3ZM347.8 871.2C347.8 869.8 347.6 868.4 347.3 867.1C347 865.9 346.5 864.8 345.8 863.8C345.1 862.9 344.2 862.1 343.2 861.6C342 861 340.7 860.7 339.3 860.8C338 860.8 336.6 861.1 335.4 861.7C334.4 862.3 333.5 863.1 332.8 864C332.1 865 331.6 866.2 331.3 867.4C331 868.7 330.8 870 330.8 871.3C330.8 872.7 331 874.2 331.3 875.5C331.6 876.7 332.1 877.8 332.9 878.8C333.6 879.7 334.5 880.5 335.5 881C336.6 881.5 337.9 881.8 339.1 881.8C340.4 881.8 341.8 881.5 343 880.9C344.1 880.3 345 879.5 345.6 878.5C346.3 877.5 346.8 876.3 347.1 875.1C347.6 873.8 347.8 872.5 347.8 871.2Z" fill="#054169"/>
<path d="M359 883.7H356.1V858.8H359V862.3C360.1 861.2 361.3 860.1 362.6 859.3C363.9 858.5 365.5 858.1 367 858.1C368.5 858.1 369.9 858.4 371.3 858.9C372.7 859.5 373.8 860.4 374.6 861.7C375.2 862.5 375.6 863.5 375.7 864.5C375.8 865.5 375.9 866.5 375.9 867.5V883.8H373V867.6C373.1 865.8 372.6 864 371.5 862.6C370.5 861.5 368.9 860.9 366.6 860.9C365.8 860.9 364.9 861 364.1 861.3C363.4 861.6 362.7 861.9 362.1 862.4C361.5 862.8 361 863.3 360.6 863.9C360.2 864.5 359.8 865.1 359.6 865.7C359.3 866.4 359.2 867.2 359.1 868C359 868.7 359 869.5 359 870.4V883.7Z" fill="#054169"/>
<path d="M1651.2 878.7V844.1H1663C1664 844.1 1664.9 844.1 1665.8 844.2C1666.7 844.3 1667.6 844.4 1668.5 844.5C1669.4 844.7 1670.3 844.9 1671.1 845.3C1672 845.7 1672.8 846.1 1673.6 846.7C1674.7 847.5 1675.7 848.6 1676.4 849.7C1677.1 850.9 1677.7 852.2 1678.2 853.5C1678.6 854.8 1678.9 856.1 1679.1 857.5C1679.3 858.7 1679.4 860 1679.4 861.3C1679.4 862.5 1679.3 863.6 1679.2 864.8C1679.1 866 1678.8 867.1 1678.5 868.3C1678.2 869.4 1677.8 870.5 1677.2 871.6C1676.7 872.6 1676 873.6 1675.2 874.5C1674.4 875.4 1673.6 876.1 1672.6 876.7C1671.7 877.2 1670.6 877.7 1669.6 878C1668.5 878.3 1667.5 878.5 1666.4 878.6C1665.3 878.7 1664.1 878.8 1663 878.8L1651.2 878.7ZM1654.5 875.9H1662.3C1663.7 875.9 1665.1 875.8 1666.5 875.6C1667.9 875.4 1669.3 875 1670.5 874.3C1671.6 873.8 1672.6 872.9 1673.3 872C1674 871 1674.6 869.9 1675.1 868.8C1675.5 867.6 1675.8 866.4 1676 865.1C1676.2 863.9 1676.3 862.6 1676.3 861.4C1676.3 860.1 1676.2 858.9 1676.1 857.6C1675.9 856.3 1675.6 855.1 1675.2 853.9C1674.8 852.7 1674.2 851.7 1673.4 850.7C1672.6 849.7 1671.6 848.9 1670.4 848.3C1669.3 847.7 1668 847.4 1666.8 847.3C1665.4 847.1 1664 847.1 1662.5 847.1H1654.7L1654.5 875.9Z" fill="#054169"/>
<path d="M1687.2 866.9C1687.2 868.2 1687.4 869.5 1687.7 870.7C1688 871.8 1688.5 872.9 1689.3 873.8C1690 874.7 1690.9 875.4 1691.9 875.9C1693 876.4 1694.3 876.7 1695.6 876.7C1697.3 876.7 1699 876.2 1700.4 875.2C1701.8 874.2 1702.7 872.7 1703.1 871H1706.3C1706 872.1 1705.5 873.2 1704.9 874.3C1704.3 875.3 1703.6 876.2 1702.7 876.9C1701.8 877.7 1700.7 878.3 1699.6 878.7C1698.3 879.1 1696.9 879.3 1695.5 879.3C1693.7 879.3 1692 879 1690.4 878.3C1689 877.7 1687.8 876.7 1686.8 875.5C1685.8 874.3 1685.1 872.9 1684.7 871.4C1684.2 869.7 1684 868 1684 866.3C1684 864.6 1684.3 862.8 1684.8 861.2C1685.3 859.7 1686 858.2 1687 857C1688 855.8 1689.2 854.8 1690.6 854.2C1692.1 853.5 1693.7 853.2 1695.4 853.2C1698.5 853.1 1701.5 854.4 1703.5 856.7C1705.4 859.1 1706.4 862.5 1706.4 866.9H1687.2ZM1703.5 864.5C1703.5 863.3 1703.3 862.2 1703 861.1C1702.7 860.1 1702.2 859.1 1701.5 858.3C1700.8 857.5 1700 856.9 1699 856.4C1697.9 855.9 1696.8 855.7 1695.6 855.7C1694.4 855.7 1693.3 855.9 1692.2 856.4C1691.2 856.9 1690.4 857.5 1689.7 858.3C1689 859.1 1688.4 860.1 1688 861.1C1687.6 862.2 1687.3 863.3 1687.2 864.5H1703.5Z" fill="#054169"/>
<path d="M1729.8 861.6C1729.4 859.9 1728.5 858.4 1727.2 857.3C1725.9 856.2 1724.2 855.7 1722.4 855.7C1721.1 855.7 1719.8 856 1718.6 856.6C1717.6 857.2 1716.7 858 1716 859C1715.3 860 1714.8 861.2 1714.5 862.4C1714.2 863.6 1714 864.9 1714 866.2C1714 867.5 1714.1 868.8 1714.4 870C1714.7 871.2 1715.2 872.3 1715.9 873.4C1716.6 874.4 1717.5 875.2 1718.5 875.8C1719.7 876.4 1721 876.7 1722.3 876.7C1724.2 876.8 1726 876.2 1727.5 874.9C1728.9 873.6 1729.7 871.9 1730 870H1733.1C1732.9 871.3 1732.5 872.6 1731.9 873.8C1731.4 874.9 1730.6 875.9 1729.7 876.7C1728.8 877.5 1727.7 878.2 1726.6 878.6C1723.6 879.6 1720.3 879.5 1717.3 878.3C1715.9 877.7 1714.7 876.7 1713.7 875.5C1712.7 874.3 1712 872.9 1711.6 871.3C1711.1 869.6 1710.9 867.9 1710.9 866.2C1710.9 864.5 1711.1 862.8 1711.6 861.2C1712.1 859.7 1712.8 858.3 1713.8 857C1714.8 855.8 1716 854.8 1717.4 854.1C1718.9 853.4 1720.6 853 1722.3 853C1724.8 852.9 1727.3 853.6 1729.3 855.1C1731.2 856.7 1732.4 859 1732.6 861.5L1729.8 861.6Z" fill="#054169"/>
<path d="M1739.1 848.4V844.1H1742.3V848.4H1739.1ZM1739.3 878.6V853.7H1742.2V878.6H1739.3Z" fill="#054169"/>
<path d="M1751.2 870.9C1751.4 872.7 1752.3 874.3 1753.6 875.4C1755.1 876.4 1756.8 876.8 1758.6 876.7C1759.5 876.7 1760.5 876.6 1761.3 876.3C1762 876.1 1762.6 875.8 1763.2 875.3C1763.7 874.9 1764.1 874.4 1764.3 873.8C1764.6 873.3 1764.7 872.7 1764.7 872.1C1764.8 871.1 1764.3 870 1763.5 869.4C1762.6 868.8 1761.6 868.3 1760.6 868C1759.3 867.6 1758.1 867.4 1756.8 867.1C1755.5 866.9 1754.2 866.5 1753 866C1751.8 865.6 1750.8 864.9 1750 863.9C1749.2 862.8 1748.7 861.5 1748.8 860.1C1748.7 858.1 1749.6 856.3 1751.1 855C1752.9 853.6 1755.2 852.9 1757.5 853C1759.8 852.9 1762.1 853.5 1764.1 854.8C1765.8 856 1766.8 858 1767.1 860.8H1764.2C1764.1 859.2 1763.3 857.7 1762 856.7C1760.6 855.9 1759.1 855.5 1757.5 855.5C1756 855.4 1754.5 855.8 1753.3 856.7C1752.4 857.4 1751.8 858.6 1751.9 859.8C1751.8 860.8 1752.3 861.8 1753.1 862.4C1754 863.1 1755 863.5 1756.1 863.8C1757.3 864.2 1758.6 864.5 1759.9 864.8C1761.2 865.1 1762.5 865.5 1763.7 866C1764.8 866.5 1765.9 867.2 1766.7 868.1C1767.5 869.2 1768 870.5 1767.9 871.9C1767.9 873 1767.7 874.1 1767.1 875C1766.6 875.9 1765.9 876.7 1765 877.3C1764 877.9 1762.9 878.4 1761.8 878.7C1760.5 879 1759.1 879.2 1757.8 879.2C1756.5 879.2 1755.1 879 1753.9 878.6C1752.8 878.2 1751.8 877.6 1751 876.8C1750.2 876 1749.6 875.1 1749.1 874.1C1748.6 873.1 1748.4 871.9 1748.3 870.8L1751.2 870.9Z" fill="#054169"/>
<path d="M1773.8 848.4V844.1H1777V848.4H1773.8ZM1773.9 878.6V853.7H1776.8V878.6H1773.9Z" fill="#054169"/>
<path d="M1794 879.3C1792.5 879.3 1790.9 879 1789.5 878.4C1788.1 877.9 1786.9 877 1785.9 875.9C1784.8 874.7 1784 873.3 1783.4 871.8C1782.8 870 1782.4 868 1782.5 866.1C1782.5 864.4 1782.7 862.6 1783.2 861C1783.6 859.5 1784.4 858.1 1785.4 856.8C1786.4 855.6 1787.6 854.6 1789 854C1790.6 853.3 1792.3 853 1794 853C1795.8 852.9 1797.5 853.3 1799.1 854C1800.5 854.6 1801.7 855.6 1802.7 856.8C1803.7 858 1804.4 859.4 1804.8 861C1805.3 862.7 1805.5 864.4 1805.5 866.1C1805.5 867.9 1805.3 869.7 1804.7 871.5C1804.2 873 1803.4 874.4 1802.4 875.6C1801.4 876.8 1800.2 877.7 1798.7 878.3C1797.2 879 1795.6 879.3 1794 879.3ZM1802.4 866.2C1802.4 864.8 1802.2 863.4 1801.9 862.1C1801.6 860.9 1801.1 859.8 1800.4 858.8C1799.7 857.9 1798.8 857.1 1797.8 856.6C1796.6 856 1795.3 855.7 1793.9 855.8C1792.6 855.8 1791.2 856.1 1790 856.7C1789 857.3 1788.1 858.1 1787.4 859C1786.7 860 1786.2 861.2 1785.9 862.4C1785.6 863.7 1785.4 865 1785.4 866.3C1785.4 867.7 1785.6 869.2 1786 870.5C1786.3 871.7 1786.9 872.8 1787.6 873.8C1788.3 874.7 1789.2 875.5 1790.2 876C1791.3 876.5 1792.6 876.8 1793.9 876.8C1795.2 876.8 1796.6 876.5 1797.8 875.9C1798.8 875.3 1799.7 874.5 1800.4 873.5C1801.1 872.5 1801.6 871.3 1801.9 870.1C1802.3 868.8 1802.5 867.5 1802.4 866.2Z" fill="#054169"/>
<path d="M1813.7 878.7H1810.8V853.8H1813.7V857.3C1814.8 856.2 1816 855.1 1817.3 854.3C1818.6 853.5 1820.2 853.1 1821.7 853.1C1823.2 853.1 1824.6 853.4 1826 853.9C1827.4 854.5 1828.5 855.4 1829.3 856.7C1829.9 857.5 1830.3 858.5 1830.4 859.5C1830.5 860.5 1830.6 861.5 1830.6 862.5V878.8H1827.7V862.6C1827.8 860.8 1827.3 859 1826.2 857.6C1825.2 856.5 1823.6 855.9 1821.3 855.9C1820.5 855.9 1819.6 856 1818.9 856.3C1818.2 856.6 1817.5 856.9 1816.9 857.4C1816.3 857.8 1815.8 858.3 1815.4 858.9C1815 859.5 1814.6 860.1 1814.4 860.7C1814.1 861.4 1813.9 862.2 1813.9 863C1813.8 863.7 1813.8 864.5 1813.8 865.4L1813.7 878.7Z" fill="#054169"/>
<path d="M1396.9 505.7C1396.9 503.3 1397.2 500.9 1397.9 498.6C1398.5 496.5 1399.5 494.5 1400.9 492.8C1402.3 491.1 1404 489.8 1405.9 488.9C1408.1 487.9 1410.4 487.4 1412.8 487.5C1415.2 487.4 1417.7 487.9 1419.9 488.9C1421.9 489.8 1423.6 491.1 1425 492.8C1426.4 494.5 1427.4 496.5 1428.1 498.6C1428.8 500.9 1429.1 503.3 1429.1 505.7C1429.1 508.1 1428.8 510.4 1428.1 512.7C1427.5 514.8 1426.5 516.7 1425.1 518.5C1423.7 520.2 1422 521.5 1420.1 522.4C1415.6 524.3 1410.6 524.3 1406.1 522.4C1404.2 521.5 1402.5 520.1 1401.1 518.5C1399.7 516.8 1398.7 514.8 1398.1 512.7C1397.3 510.4 1396.9 508.1 1396.9 505.7ZM1413 521C1415 521.1 1417 520.6 1418.8 519.7C1420.4 518.9 1421.7 517.7 1422.8 516.3C1423.9 514.8 1424.7 513.2 1425.1 511.4C1425.6 509.5 1425.9 507.6 1425.9 505.6C1425.9 503.4 1425.6 501.2 1425 499.1C1424.5 497.3 1423.6 495.7 1422.4 494.2C1421.3 492.9 1419.9 491.8 1418.3 491.1C1416.6 490.4 1414.8 490 1412.9 490C1410.9 489.9 1408.9 490.4 1407.2 491.3C1405.6 492.1 1404.3 493.3 1403.2 494.7C1402.1 496.2 1401.4 497.9 1400.9 499.6C1399.9 503.4 1399.9 507.4 1400.9 511.3C1401.4 513.1 1402.1 514.7 1403.2 516.2C1404.3 517.6 1405.6 518.8 1407.2 519.6C1409 520.6 1411 521.1 1413 521Z" fill="#054169"/>
<path d="M1438.2 522.9H1435.3V498H1438.2V502.7H1438.3C1438.9 501 1439.9 499.6 1441.4 498.6C1442.9 497.8 1444.7 497.3 1446.4 497.4V500.5C1445 500.4 1443.7 500.7 1442.4 501.3C1441.4 501.8 1440.5 502.6 1439.9 503.5C1439.2 504.5 1438.8 505.6 1438.6 506.8C1438.4 508.1 1438.2 509.5 1438.2 510.8V522.9Z" fill="#054169"/>
<path d="M1462.6 508.4C1463.2 508.3 1463.8 508.2 1464.6 508.1C1465.2 508 1465.9 507.8 1466.4 507.6C1466.9 507.4 1467.2 507 1467.3 506.5C1467.4 506 1467.5 505.5 1467.5 505C1467.5 503.7 1467 502.3 1466.1 501.4C1465.1 500.5 1463.6 500 1461.3 500C1460.4 500 1459.5 500.1 1458.6 500.3C1457.8 500.5 1457.1 500.8 1456.4 501.2C1455.8 501.7 1455.2 502.2 1454.9 502.9C1454.5 503.7 1454.2 504.7 1454.1 505.6H1451.1C1451.2 504.3 1451.5 503 1452.1 501.8C1452.6 500.8 1453.4 499.9 1454.3 499.3C1455.3 498.6 1456.3 498.1 1457.5 497.9C1458.7 497.6 1460 497.4 1461.3 497.4C1462.5 497.4 1463.7 497.5 1464.8 497.8C1465.8 498 1466.8 498.5 1467.7 499.1C1468.5 499.7 1469.2 500.5 1469.6 501.5C1470.1 502.7 1470.3 503.9 1470.3 505.1V518.6C1470.3 519.7 1470.5 520.4 1470.9 520.7C1471.3 521 1472.1 520.9 1473.3 520.5V522.7L1472.3 523C1471.9 523.1 1471.5 523.2 1471 523.2C1470.6 523.2 1470.1 523.2 1469.7 523.1C1469.3 523.1 1468.9 522.9 1468.5 522.6C1468.2 522.4 1468 522.1 1467.8 521.7C1467.6 521.4 1467.5 521 1467.4 520.6C1467.3 520.2 1467.3 519.8 1467.3 519.3C1466.1 520.6 1464.7 521.6 1463.1 522.4C1461.5 523.1 1459.8 523.5 1458 523.5C1456.9 523.5 1455.9 523.4 1454.8 523.1C1453.8 522.8 1452.9 522.4 1452.1 521.8C1451.3 521.2 1450.7 520.4 1450.3 519.6C1449.8 518.6 1449.6 517.5 1449.6 516.5C1449.6 512.3 1452.5 509.8 1458.3 509L1462.6 508.4ZM1467.4 509.9C1466.2 510.4 1465 510.7 1463.7 510.9C1462.5 511.1 1461.2 511.2 1459.9 511.3C1458.1 511.3 1456.3 511.9 1454.7 512.8C1453.5 513.7 1452.8 515.1 1452.9 516.6C1452.9 517.3 1453 518 1453.3 518.6C1453.6 519.1 1454 519.6 1454.5 520C1455 520.4 1455.6 520.7 1456.2 520.8C1456.9 521 1457.5 521.1 1458.2 521.1C1459.3 521.1 1460.5 521 1461.6 520.7C1462.6 520.4 1463.6 520 1464.5 519.4C1465.3 518.8 1466 518 1466.5 517.1C1467 516.1 1467.3 515 1467.3 513.9L1467.4 509.9Z" fill="#054169"/>
<path d="M1478.2 522.9V488.3H1481.1V522.9H1478.2Z" fill="#054169"/>
<path d="M1018.6 500.2C1018.3 498.1 1017.1 496.1 1015.4 494.8C1013.6 493.7 1011.4 493.1 1009.3 493.2C1006.2 493.1 1003.3 494.6 1001.5 497.1C1000.6 498.4 1000 499.8 999.7 501.3C999.3 502.9 999.1 504.6 999.1 506.3C999.1 507.9 999.3 509.6 999.6 511.1C999.9 512.6 1000.5 514 1001.3 515.3C1002.1 516.5 1003.2 517.6 1004.5 518.3C1006 519.1 1007.8 519.5 1009.5 519.5C1010.7 519.5 1011.8 519.3 1012.9 518.9C1013.9 518.5 1014.8 517.9 1015.6 517.2C1016.4 516.5 1017.1 515.6 1017.6 514.6C1018.1 513.6 1018.6 512.5 1018.8 511.4H1021.7C1021.4 512.8 1020.9 514.1 1020.3 515.4C1019 518 1016.8 520 1014.1 521C1012.5 521.6 1010.7 521.9 1009 521.8C1007 521.9 1005 521.4 1003.2 520.6C1001.6 519.8 1000.2 518.7 999.2 517.2C998.1 515.7 997.4 514 997 512.3C996.5 510.3 996.3 508.3 996.3 506.3C996.2 503.9 996.6 501.4 997.3 499.1C997.9 497.3 998.9 495.7 1000.2 494.3C1001.4 493.1 1002.9 492.1 1004.5 491.6C1006.3 491 1008.1 490.7 1010 490.8C1011.4 490.8 1012.8 491 1014.2 491.4C1015.5 491.8 1016.6 492.4 1017.7 493.2C1018.7 494 1019.5 495 1020.2 496.1C1020.9 497.3 1021.3 498.7 1021.5 500.1L1018.6 500.2Z" fill="#054169"/>
<path d="M1035.3 521.7C1034 521.7 1032.7 521.4 1031.5 521C1030.3 520.5 1029.3 519.8 1028.4 518.9C1027.5 517.9 1026.7 516.7 1026.3 515.4C1025.8 513.8 1025.5 512.2 1025.5 510.5C1025.5 509 1025.7 507.6 1026.1 506.1C1026.5 504.8 1027.1 503.6 1027.9 502.6C1028.7 501.6 1029.8 500.8 1031 500.2C1033.8 499 1036.9 499 1039.7 500.2C1040.9 500.8 1041.9 501.6 1042.8 502.6C1043.6 503.6 1044.3 504.8 1044.6 506.1C1045 507.5 1045.2 509 1045.2 510.5C1045.2 512.1 1045 513.6 1044.5 515.1C1044.1 516.4 1043.4 517.6 1042.5 518.6C1041.6 519.6 1040.6 520.4 1039.4 520.9C1038.1 521.5 1036.7 521.7 1035.3 521.7ZM1042.6 510.5C1042.6 509.3 1042.5 508.1 1042.2 507C1042 506 1041.5 505 1040.9 504.1C1040.3 503.3 1039.6 502.6 1038.7 502.2C1037.7 501.7 1036.5 501.5 1035.4 501.5C1034.3 501.5 1033.1 501.7 1032.1 502.3C1031.2 502.8 1030.4 503.5 1029.9 504.3C1029.3 505.2 1028.9 506.1 1028.6 507.2C1028.3 508.3 1028.2 509.4 1028.2 510.5C1028.2 511.7 1028.3 512.9 1028.7 514.1C1029 515.1 1029.5 516.1 1030.1 517C1030.7 517.8 1031.5 518.4 1032.3 518.8C1033.3 519.3 1034.3 519.5 1035.4 519.5C1036.5 519.5 1037.7 519.3 1038.7 518.7C1039.6 518.2 1040.4 517.5 1040.9 516.7C1041.5 515.8 1041.9 514.9 1042.2 513.8C1042.4 512.8 1042.6 511.6 1042.6 510.5Z" fill="#054169"/>
<path d="M1051.8 521.1H1049.3V499.9H1051.8V503.1H1051.9C1052.5 501.9 1053.4 500.9 1054.6 500.3C1055.8 499.6 1057.1 499.3 1058.4 499.3C1059.2 499.3 1060.1 499.4 1060.9 499.6C1061.5 499.8 1062.1 500.1 1062.6 500.5C1063.1 500.9 1063.5 501.3 1063.8 501.8C1064.1 502.3 1064.4 502.8 1064.6 503.4C1065.2 502.1 1066.2 501 1067.4 500.3C1068.6 499.6 1070.1 499.3 1071.5 499.3C1072.7 499.2 1073.9 499.5 1075 500C1075.8 500.4 1076.5 501.1 1077 501.9C1077.5 502.7 1077.8 503.6 1077.9 504.6C1078 505.6 1078.1 506.7 1078.1 507.7V521.1H1075.6V506.5C1075.7 505.2 1075.3 504 1074.6 502.9C1074 502 1072.8 501.6 1071 501.6C1069.1 501.6 1067.3 502.5 1066.2 504C1065.9 504.4 1065.7 504.8 1065.5 505.2C1065.3 505.7 1065.2 506.2 1065.1 506.7C1065 507.2 1064.9 507.7 1064.9 508.3C1064.9 508.8 1064.8 509.3 1064.8 509.7V521.1H1062.3V506.4C1062.4 505.1 1062 503.9 1061.3 502.8C1060.6 501.9 1059.5 501.5 1057.7 501.5C1055.8 501.5 1054 502.4 1052.9 503.9C1052.6 504.3 1052.4 504.7 1052.2 505.1C1052 505.6 1051.9 506.1 1051.8 506.6C1051.7 507.1 1051.6 507.6 1051.6 508.2C1051.6 508.7 1051.5 509.2 1051.5 509.6L1051.8 521.1Z" fill="#054169"/>
<path d="M1086 521.1H1083.5V499.9H1086V503.1H1086.1C1086.7 501.9 1087.6 500.9 1088.8 500.3C1090 499.6 1091.3 499.3 1092.6 499.3C1093.4 499.3 1094.3 499.4 1095.1 499.6C1095.7 499.8 1096.3 500.1 1096.8 500.5C1097.3 500.9 1097.7 501.3 1098 501.8C1098.3 502.3 1098.6 502.8 1098.8 503.4C1099.4 502.1 1100.4 501 1101.6 500.3C1102.8 499.6 1104.3 499.3 1105.7 499.3C1106.9 499.2 1108.1 499.5 1109.2 500C1110 500.4 1110.7 501.1 1111.2 501.9C1111.7 502.7 1112 503.6 1112.1 504.6C1112.3 505.6 1112.3 506.7 1112.3 507.7V521.1H1109.8V506.5C1109.9 505.2 1109.5 504 1108.8 502.9C1108.2 502 1107 501.6 1105.2 501.6C1103.3 501.6 1101.5 502.5 1100.4 504C1100.1 504.4 1099.9 504.8 1099.7 505.2C1099.5 505.7 1099.4 506.2 1099.3 506.7C1099.2 507.2 1099.1 507.7 1099.1 508.3C1099.1 508.8 1099 509.3 1099 509.7V521.1H1096.5V506.4C1096.6 505.1 1096.2 503.9 1095.5 502.8C1094.9 501.9 1093.7 501.5 1091.9 501.5C1090 501.5 1088.2 502.4 1087.1 503.9C1086.8 504.3 1086.6 504.7 1086.4 505.1C1086.2 505.6 1086.1 506.1 1086 506.6C1085.9 507.1 1085.8 507.6 1085.8 508.2C1085.8 508.7 1085.7 509.2 1085.7 509.6L1086 521.1Z" fill="#054169"/>
<path d="M1119.5 511.1C1119.5 512.2 1119.6 513.3 1119.9 514.4C1120.2 515.4 1120.6 516.3 1121.2 517.1C1121.8 517.9 1122.6 518.5 1123.4 518.9C1125.8 520 1128.5 519.8 1130.6 518.3C1131.8 517.4 1132.6 516.1 1132.9 514.7H1135.7C1135.4 515.7 1135 516.6 1134.5 517.5C1134 518.4 1133.4 519.1 1132.7 519.8C1131.9 520.5 1131 521 1130.1 521.3C1129 521.7 1127.8 521.9 1126.6 521.8C1125.1 521.8 1123.6 521.5 1122.2 520.9C1121 520.4 1120 519.6 1119.2 518.6C1118.4 517.6 1117.8 516.4 1117.4 515.1C1117 513.7 1116.8 512.2 1116.8 510.7C1116.8 509.2 1117 507.7 1117.5 506.3C1117.9 505 1118.6 503.8 1119.4 502.7C1120.2 501.7 1121.2 500.9 1122.4 500.3C1123.7 499.7 1125.1 499.4 1126.5 499.4C1129.1 499.3 1131.7 500.4 1133.4 502.4C1135.1 504.4 1135.9 507.3 1135.9 511.2L1119.5 511.1ZM1133.4 509.1C1133.4 508.1 1133.3 507.1 1133 506.2C1132.7 505.3 1132.3 504.5 1131.7 503.8C1131.1 503.1 1130.4 502.6 1129.6 502.2C1128.7 501.8 1127.7 501.6 1126.7 501.6C1125.7 501.6 1124.7 501.8 1123.8 502.2C1123 502.6 1122.3 503.2 1121.7 503.8C1121.1 504.5 1120.6 505.3 1120.3 506.2C1119.9 507.1 1119.7 508.1 1119.6 509.1H1133.4Z" fill="#054169"/>
<path d="M1143.3 521.1H1140.8V499.9H1143.3V502.9C1144.2 501.9 1145.2 501.1 1146.3 500.4C1147.4 499.7 1148.8 499.4 1150.1 499.4C1151.3 499.4 1152.6 499.6 1153.7 500.1C1154.9 500.6 1155.8 501.4 1156.5 502.5C1157 503.2 1157.3 504 1157.4 504.9C1157.5 505.7 1157.5 506.6 1157.5 507.4V521.3H1155V507.4C1155.1 505.9 1154.7 504.3 1153.7 503.1C1152.9 502.1 1151.4 501.7 1149.5 501.7C1148.8 501.7 1148.1 501.8 1147.4 502.1C1146.8 502.3 1146.2 502.6 1145.7 503C1145.2 503.4 1144.8 503.8 1144.4 504.3C1144.1 504.8 1143.8 505.3 1143.6 505.8C1143.4 506.4 1143.2 507.1 1143.2 507.8C1143.2 508.4 1143.1 509.1 1143.1 509.8L1143.3 521.1Z" fill="#054169"/>
<path d="M1171.1 521.2C1170.8 521.3 1170.4 521.4 1169.9 521.5C1169.4 521.6 1168.8 521.7 1168.3 521.7C1167.3 521.8 1166.3 521.4 1165.5 520.8C1164.7 519.9 1164.4 518.7 1164.5 517.5V502H1161.5V499.9H1164.5V494H1167V499.9H1171V502H1167V516.6C1167 517.1 1167 517.6 1167 517.9C1167 518.2 1167.1 518.5 1167.2 518.8C1167.3 519.1 1167.6 519.2 1167.8 519.3C1168.2 519.4 1168.6 519.5 1169 519.5C1169.3 519.5 1169.7 519.5 1170 519.4C1170.3 519.3 1170.7 519.3 1171 519.2L1171.1 521.2Z" fill="#054169"/>
<path d="M436.2 225.6V191H459.2V193.8H439.5V206.3H457.3V209.1H439.5V222.8H459.7V225.6H436.2Z" fill="#054169"/>
<path d="M466.9 215.3C467 216.7 467.3 218 467.9 219.2C468.4 220.2 469.2 221.1 470.1 221.8C471 222.5 472 223 473.1 223.3C474.3 223.6 475.5 223.8 476.8 223.8C478.2 223.8 479.5 223.6 480.8 223.2C481.8 222.9 482.7 222.4 483.5 221.6C484.2 221 484.7 220.2 485.1 219.3C485.4 218.4 485.6 217.5 485.6 216.6C485.7 215.4 485.3 214.3 484.7 213.3C484.1 212.5 483.3 211.8 482.3 211.3C481.2 210.7 480.1 210.3 478.9 210C477.6 209.7 476.3 209.4 475 209.1C473.7 208.8 472.4 208.4 471.1 208C469.9 207.6 468.8 207 467.7 206.3C466.7 205.6 465.9 204.7 465.3 203.6C464.6 202.3 464.3 200.9 464.4 199.4C464.4 198.2 464.7 197 465.1 196C465.6 194.8 466.4 193.8 467.3 193C468.4 192.1 469.6 191.4 471 190.9C472.6 190.4 474.4 190.1 476.1 190.1C477.8 190.1 479.6 190.3 481.2 190.9C482.6 191.4 483.8 192.1 484.8 193.1C485.8 194 486.5 195.1 487 196.4C487.5 197.7 487.7 199 487.7 200.4H484.6C484.6 199.2 484.4 198.1 483.9 197C483.5 196.1 482.8 195.3 482 194.6C481.2 194 480.3 193.5 479.3 193.3C478.3 193 477.2 192.9 476.1 192.9C474.7 192.9 473.2 193.1 471.9 193.6C470.9 194 469.9 194.6 469.2 195.4C468.5 196.1 468.1 196.9 467.8 197.8C467.6 198.7 467.5 199.6 467.7 200.5C467.8 201.5 468.3 202.5 469 203.2C469.8 203.9 470.6 204.5 471.6 204.9C472.7 205.4 473.8 205.7 475 206C476.2 206.3 477.5 206.6 478.8 206.9C480.1 207.2 481.3 207.6 482.5 208C483.6 208.4 484.7 209 485.7 209.7C486.6 210.4 487.4 211.3 487.9 212.4C488.5 213.7 488.8 215.1 488.7 216.5C488.8 219.4 487.6 222.1 485.4 223.9C483.2 225.7 480.1 226.5 476.1 226.5C474.4 226.5 472.7 226.3 471.1 225.8C469.6 225.4 468.3 224.7 467.1 223.7C466 222.7 465.1 221.5 464.5 220.2C463.8 218.6 463.5 217 463.6 215.3H466.9Z" fill="#054169"/>
<path d="M491.7 225.6L505.3 191H509L522.2 225.6H518.8L514.8 214.7H499.1L495 225.6H491.7ZM500.3 212H513.8L507 193.9L500.3 212Z" fill="#054169"/>
<path d="M103.1 514.7L116.7 480.1H120.4L133.7 514.7H130.3L126.3 503.8H110.6L106.5 514.7H103.1ZM111.6 501H125.1L118.3 482.9L111.6 501Z" fill="#054169"/>
<path d="M141 524.4H138.1V489.8H141V494.2H141.1C141.5 493.4 142.1 492.7 142.7 492C143.3 491.4 144.1 490.8 144.9 490.4C145.7 490 146.5 489.6 147.3 489.4C148.1 489.2 148.9 489.1 149.7 489.1C151.5 489 153.2 489.4 154.8 490.1C156.2 490.7 157.3 491.7 158.3 492.9C159.2 494.1 159.9 495.6 160.3 497.1C160.7 498.8 160.9 500.5 160.9 502.2C160.9 503.9 160.7 505.6 160.2 507.2C159.8 508.7 159.1 510.1 158.2 511.4C157.3 512.6 156.1 513.6 154.8 514.3C153.3 515 151.6 515.4 149.9 515.4C148.1 515.4 146.4 515 144.8 514.2C143.2 513.4 141.9 512.2 141 510.7V524.4ZM141 502.3C141 503.7 141.2 505 141.6 506.3C142 507.5 142.5 508.6 143.3 509.6C144 510.5 144.9 511.3 145.9 511.8C147 512.4 148.2 512.7 149.4 512.6C150.7 512.6 152.1 512.3 153.3 511.7C154.4 511.1 155.3 510.3 156 509.3C156.7 508.2 157.3 507 157.5 505.7C157.8 504.3 158 502.8 157.9 501.3C157.9 499.9 157.7 498.5 157.3 497.2C156.9 496.1 156.3 495 155.5 494.2C154.8 493.4 153.8 492.7 152.8 492.3C151.7 491.9 150.6 491.6 149.4 491.7C148.2 491.7 146.9 492 145.8 492.5C144.8 493 143.9 493.8 143.2 494.7C142.5 495.7 141.9 496.8 141.6 498.1C141.2 499.5 141 500.9 141 502.3Z" fill="#054169"/>
<path d="M170.4 524.4H167.5V489.8H170.4V494.2H170.5C170.9 493.4 171.5 492.7 172.1 492C172.7 491.4 173.5 490.8 174.3 490.4C175.1 490 175.9 489.6 176.7 489.4C177.5 489.2 178.3 489.1 179.1 489.1C180.9 489 182.6 489.4 184.2 490.1C185.6 490.7 186.7 491.7 187.7 492.9C188.6 494.1 189.3 495.6 189.7 497.1C190.1 498.8 190.3 500.5 190.3 502.2C190.3 503.9 190.1 505.6 189.6 507.2C189.2 508.7 188.5 510.1 187.6 511.4C186.7 512.6 185.5 513.6 184.1 514.3C182.6 515.1 180.9 515.4 179.2 515.4C177.4 515.4 175.7 515 174.1 514.2C172.5 513.4 171.2 512.2 170.3 510.7L170.4 524.4ZM170.4 502.3C170.4 503.7 170.6 505 171 506.3C171.3 507.5 171.9 508.6 172.6 509.6C173.3 510.5 174.2 511.3 175.2 511.8C176.3 512.4 177.5 512.7 178.7 512.6C180 512.6 181.4 512.3 182.6 511.7C183.7 511.1 184.6 510.3 185.3 509.3C186 508.2 186.6 507 186.8 505.7C187.1 504.3 187.2 502.8 187.2 501.3C187.2 499.9 187 498.5 186.6 497.2C186.2 496.1 185.6 495 184.8 494.2C184.1 493.4 183.1 492.7 182.1 492.3C181 491.9 179.9 491.6 178.7 491.7C177.5 491.7 176.2 492 175.1 492.5C174.1 493 173.2 493.8 172.5 494.7C171.8 495.7 171.2 496.9 170.9 498.1C170.5 499.5 170.3 500.9 170.4 502.3Z" fill="#054169"/>
<path d="M196.9 514.7V480.1H199.8V514.7H196.9Z" fill="#054169"/>
<path d="M207.4 484.4V480.1H210.6V484.4H207.4ZM207.6 514.6V489.7H210.5V514.6H207.6Z" fill="#054169"/>
<path d="M235.4 497.6C235 495.9 234.1 494.4 232.8 493.3C231.5 492.2 229.8 491.7 228 491.7C226.7 491.7 225.4 492 224.2 492.6C223.2 493.2 222.3 494 221.6 495C220.9 496 220.4 497.2 220.1 498.4C219.8 499.6 219.6 500.9 219.6 502.2C219.6 503.5 219.7 504.8 220 506C220.3 507.2 220.8 508.3 221.5 509.4C222.2 510.4 223.1 511.2 224.1 511.8C225.3 512.4 226.6 512.7 227.9 512.7C229.8 512.8 231.6 512.2 233.1 510.9C234.5 509.6 235.3 507.9 235.6 506H238.7C238.5 507.3 238.1 508.6 237.5 509.8C237 510.9 236.2 511.9 235.3 512.7C234.4 513.5 233.3 514.2 232.2 514.6C229.2 515.6 225.8 515.5 222.9 514.3C221.5 513.7 220.3 512.7 219.3 511.5C218.3 510.3 217.6 508.9 217.2 507.3C216.7 505.6 216.5 503.9 216.5 502.2C216.5 500.5 216.7 498.8 217.3 497.2C217.8 495.7 218.5 494.3 219.5 493C220.5 491.8 221.7 490.8 223.1 490.1C224.6 489.4 226.3 489 228 489C230.5 488.9 233 489.6 235 491.1C236.9 492.7 238.1 495 238.3 497.5L235.4 497.6Z" fill="#054169"/>
<path d="M255.9 500.2C256.4 500.1 257.1 500 257.8 499.9C258.4 499.8 259.1 499.6 259.7 499.4C260.2 499.2 260.5 498.8 260.6 498.3C260.7 497.8 260.8 497.3 260.8 496.8C260.8 495.4 260.3 494.1 259.4 493.2C258.4 492.3 256.9 491.8 254.6 491.8C253.7 491.8 252.8 491.9 251.9 492.1C251.1 492.3 250.4 492.6 249.7 493C249.1 493.5 248.5 494 248.2 494.7C247.8 495.5 247.5 496.5 247.4 497.4H244.5C244.5 496.1 244.9 494.8 245.5 493.6C246 492.6 246.8 491.7 247.7 491.1C248.7 490.4 249.7 489.9 250.9 489.7C252.1 489.4 253.4 489.2 254.7 489.2C255.9 489.2 257.1 489.3 258.2 489.6C259.2 489.8 260.2 490.3 261.1 490.9C261.9 491.5 262.6 492.3 263 493.3C263.5 494.4 263.7 495.7 263.7 496.9V510.4C263.7 511.5 263.9 512.2 264.3 512.5C264.7 512.8 265.5 512.7 266.7 512.3V514.6L265.7 514.9C265.3 515 264.9 515.1 264.4 515.1C264 515.1 263.5 515.1 263.1 514.9C262.7 514.9 262.3 514.7 262 514.4C261.7 514.2 261.5 513.9 261.3 513.5C261.1 513.2 261 512.8 260.9 512.4C260.8 512 260.8 511.6 260.8 511.1C259.6 512.4 258.2 513.4 256.6 514.2C255 514.9 253.3 515.3 251.5 515.2C250.4 515.2 249.4 515.1 248.4 514.8C247.4 514.5 246.5 514.1 245.7 513.5C244.9 512.9 244.3 512.1 243.9 511.3C243.4 510.3 243.2 509.2 243.2 508.2C243.2 504 246.1 501.5 251.9 500.7L255.9 500.2ZM260.8 501.6C259.6 502.1 258.4 502.4 257.1 502.6C255.9 502.8 254.6 502.9 253.4 503C251.6 503 249.8 503.6 248.2 504.5C247 505.3 246.3 506.8 246.3 508.3C246.3 509 246.4 509.7 246.7 510.3C247 510.8 247.4 511.3 247.9 511.7C248.4 512.1 249 512.4 249.6 512.5C250.3 512.7 250.9 512.8 251.6 512.8C252.7 512.8 253.9 512.7 255 512.4C256 512.1 257 511.7 257.9 511.1C258.7 510.5 259.4 509.7 259.9 508.8C260.4 507.8 260.7 506.7 260.7 505.6L260.8 501.6Z" fill="#054169"/>
<path d="M279.9 514.8C279.5 514.9 279.1 515 278.5 515.1C277.9 515.3 277.2 515.3 276.6 515.3C275.4 515.4 274.2 515 273.3 514.2C272.5 513.5 272.2 512.2 272.2 510.3V492.1H268.7V489.7H272.2V482.8H275.1V489.7H279.8V492.1H275V509.1C275 509.7 275 510.2 275 510.7C275 511.1 275.1 511.5 275.3 511.8C275.5 512.1 275.7 512.3 276 512.4C276.5 512.5 276.9 512.6 277.4 512.6C277.8 512.6 278.2 512.6 278.6 512.5C279 512.4 279.4 512.3 279.8 512.3L279.9 514.8Z" fill="#054169"/>
<path d="M284.8 484.4V480.1H288V484.4H284.8ZM284.9 514.6V489.7H287.8V514.6H284.9Z" fill="#054169"/>
<path d="M305 515.3C303.5 515.3 301.9 515 300.5 514.4C299.1 513.9 297.9 513 296.9 511.9C295.8 510.7 295 509.3 294.4 507.8C293.8 506 293.4 504 293.5 502.1C293.5 500.4 293.7 498.6 294.2 497C294.6 495.5 295.4 494.1 296.4 492.9C297.4 491.7 298.6 490.7 300 490.1C301.6 489.4 303.3 489.1 305 489.1C306.8 489 308.5 489.4 310.1 490.1C311.5 490.7 312.7 491.7 313.7 492.9C314.7 494.1 315.4 495.5 315.8 497C316.3 498.7 316.5 500.4 316.5 502.1C316.5 503.9 316.2 505.7 315.7 507.5C315.2 509 314.4 510.4 313.4 511.6C312.4 512.8 311.2 513.7 309.8 514.3C308.3 515 306.7 515.3 305 515.3ZM313.5 502.2C313.5 500.8 313.3 499.4 313 498.1C312.7 496.9 312.2 495.8 311.5 494.8C310.8 493.9 309.9 493.1 308.9 492.6C307.7 492 306.4 491.7 305 491.8C303.7 491.8 302.3 492.1 301.1 492.7C300.1 493.3 299.2 494.1 298.5 495.1C297.8 496.1 297.3 497.3 297 498.5C296.7 499.8 296.5 501.1 296.5 502.4C296.5 503.8 296.7 505.3 297 506.6C297.3 507.8 297.9 508.9 298.6 509.9C299.3 510.8 300.2 511.6 301.2 512.1C302.3 512.6 303.6 512.9 304.8 512.9C306.1 512.9 307.5 512.6 308.7 512C309.8 511.4 310.6 510.6 311.3 509.6C312 508.6 312.5 507.4 312.8 506.2C313.3 504.9 313.5 503.5 313.5 502.2Z" fill="#054169"/>
<path d="M324.7 514.7H321.8V489.8H324.7V493.3C325.8 492.2 327 491.1 328.3 490.3C329.6 489.5 331.2 489.1 332.7 489.2C334.2 489.2 335.6 489.5 337 490C338.4 490.6 339.5 491.5 340.3 492.8C340.9 493.6 341.3 494.6 341.4 495.6C341.5 496.6 341.6 497.6 341.6 498.6V514.9H338.7V498.7C338.8 496.9 338.3 495.1 337.2 493.7C336.2 492.6 334.6 492 332.2 492C331.4 492 330.5 492.1 329.8 492.4C329.1 492.7 328.4 493 327.8 493.5C327.2 493.9 326.7 494.4 326.3 495C325.9 495.6 325.5 496.2 325.3 496.8C325 497.5 324.8 498.3 324.8 499.1C324.7 499.8 324.7 500.6 324.7 501.5V514.7Z" fill="#054169"/>
<path d="M112.5 295.4C112.9 289.8 114.7 285.4 117.9 282.3C121.8 278.6 127.6 276.9 135.3 277.1L135.9 268L157 285.3L133.8 299.7L134.4 290.7C130.7 290.4 127 290.7 123.4 291.7C120.5 292.7 117.8 294.3 115.5 296.4L112.3 299.1L112.5 295.4Z" fill="#054169"/>
<path d="M640.157 500H642.945V470.726H640.157V500ZM648.508 500H651.091V487.659C651.173 483.518 653.633 480.402 657.733 480.402C661.915 480.402 663.104 483.149 663.104 486.798V500H665.687V486.388C665.687 481.345 663.883 478.229 657.938 478.229C654.945 478.229 652.116 479.951 651.173 482.493H651.091V478.844H648.508V500ZM678.729 478.844H674.547V476.999C674.588 474.703 674.506 472.899 677.376 472.899C677.991 472.899 678.565 472.981 679.262 473.104V470.89C678.442 470.767 677.827 470.726 677.089 470.726C672.948 470.726 671.923 473.268 671.964 476.917V478.844H668.356V481.017H671.964V500H674.547V481.017H678.729V478.844ZM690.119 478.229C683.641 478.229 680.115 483.354 680.115 489.422C680.115 495.49 683.641 500.615 690.119 500.615C696.597 500.615 700.123 495.49 700.123 489.422C700.123 483.354 696.597 478.229 690.119 478.229ZM690.119 480.402C695.08 480.402 697.54 484.912 697.54 489.422C697.54 493.932 695.08 498.442 690.119 498.442C685.158 498.442 682.698 493.932 682.698 489.422C682.698 484.912 685.158 480.402 690.119 480.402ZM703.963 500H706.546V488.725C706.546 484.338 709.744 480.894 714.418 481.14V478.557C710.605 478.393 707.735 480.402 706.423 483.805H706.341V478.844H703.963V500ZM716.896 500H719.479V488.192C719.52 483.764 721.324 480.402 725.793 480.402C729.073 480.402 730.262 482.78 730.221 485.65V500H732.804V488.028C732.804 484.092 734.075 480.402 738.544 480.402C742.234 480.402 743.546 482.288 743.546 485.773V500H746.129V485.65C746.129 480.648 743.751 478.229 739.118 478.229C736.33 478.229 733.665 479.582 732.394 482.37C731.615 479.582 729.114 478.229 726.326 478.229C722.964 478.229 720.75 479.869 719.397 482.411H719.274V478.844H716.896V500ZM764.579 491.8C764.62 495.941 761.135 498.442 757.199 498.442C754.78 498.442 752.484 496.843 752.484 494.26C752.484 490.119 757.937 490.16 762.324 489.381C763.021 489.258 764.169 489.053 764.497 488.438H764.579V491.8ZM753.386 485.322C753.468 481.878 755.846 480.402 759.044 480.402C762.078 480.402 764.579 481.263 764.579 484.748C764.579 487.085 763.39 487.372 761.258 487.618C755.682 488.274 749.901 488.479 749.901 494.424C749.901 498.688 753.099 500.615 756.994 500.615C761.053 500.615 762.898 499.057 764.702 496.31H764.784C764.784 498.524 765.194 500 767.818 500C768.515 500 768.925 499.959 769.499 499.836V497.663C769.294 497.745 768.966 497.827 768.679 497.827C767.654 497.827 767.162 497.253 767.162 496.269V485.035C767.162 479.377 763.103 478.229 759.372 478.229C754.534 478.229 751.049 480.361 750.803 485.322H753.386ZM776.41 472.489H773.827V478.844H770.137V481.017H773.827V495.49C773.786 499.098 774.975 500.246 778.419 500.246C779.198 500.246 779.936 500.164 780.715 500.164V497.95C779.977 498.032 779.239 498.073 778.501 498.073C776.656 497.95 776.41 496.966 776.41 495.285V481.017H780.715V478.844H776.41V472.489ZM784.482 500H787.065V478.844H784.482V500ZM784.482 474.867H787.065V470.726H784.482V474.867ZM800.947 478.229C794.469 478.229 790.943 483.354 790.943 489.422C790.943 495.49 794.469 500.615 800.947 500.615C807.425 500.615 810.951 495.49 810.951 489.422C810.951 483.354 807.425 478.229 800.947 478.229ZM800.947 480.402C805.908 480.402 808.368 484.912 808.368 489.422C808.368 493.932 805.908 498.442 800.947 498.442C795.986 498.442 793.526 493.932 793.526 489.422C793.526 484.912 795.986 480.402 800.947 480.402ZM814.75 500H817.333V487.659C817.415 483.518 819.875 480.402 823.975 480.402C828.157 480.402 829.346 483.149 829.346 486.798V500H831.929V486.388C831.929 481.345 830.125 478.229 824.18 478.229C821.187 478.229 818.358 479.951 817.415 482.493H817.333V478.844H814.75V500ZM639.952 549H642.74V536.003H653.318C658.607 535.798 658.935 540.349 659.181 544.449C659.263 545.679 659.263 547.852 659.96 549H663.035C661.805 547.524 661.805 543.506 661.682 541.497C661.477 538.012 660.37 535.388 656.557 534.896V534.814C660.329 534.076 662.256 531.042 662.256 527.352C662.256 522.063 658.197 519.726 653.359 519.726H639.952V549ZM642.74 522.104H653.154C657.336 522.104 659.468 524.359 659.468 527.926C659.468 531.493 656.557 533.625 653.154 533.625H642.74V522.104ZM684.601 539.119C684.806 533.174 682.1 527.229 675.294 527.229C668.57 527.229 665.741 532.846 665.741 538.422C665.741 544.449 668.57 549.615 675.294 549.615C680.624 549.615 683.412 546.827 684.519 542.03H681.936C681.116 545.228 679.066 547.442 675.294 547.442C670.333 547.442 668.365 542.891 668.324 539.119H684.601ZM668.324 536.946C668.734 533.092 671.071 529.402 675.294 529.402C679.476 529.402 681.895 533.051 682.018 536.946H668.324ZM689.748 538.422C689.748 534.035 691.757 529.402 696.677 529.402C702.171 529.402 704.098 534.035 704.098 538.422C704.098 542.809 702.171 547.442 696.677 547.442C691.757 547.442 689.748 542.809 689.748 538.422ZM706.681 527.844H704.303V531.862H704.221C703.114 529.115 699.752 527.229 696.677 527.229C690.24 527.229 687.165 532.436 687.165 538.422C687.165 544.408 690.24 549.615 696.677 549.615C699.834 549.615 702.909 548.016 704.016 544.982H704.098V556.831H706.681V527.844ZM728.748 527.844H726.165V538.955C726.165 543.26 724.238 547.442 719.81 547.442C715.71 547.442 714.275 545.433 714.152 541.62V527.844H711.569V541.579C711.569 546.499 713.66 549.615 718.99 549.615C722.147 549.615 724.935 548.016 726.288 545.187H726.37V549H728.748V527.844ZM751.426 539.119C751.631 533.174 748.925 527.229 742.119 527.229C735.395 527.229 732.566 532.846 732.566 538.422C732.566 544.449 735.395 549.615 742.119 549.615C747.449 549.615 750.237 546.827 751.344 542.03H748.761C747.941 545.228 745.891 547.442 742.119 547.442C737.158 547.442 735.19 542.891 735.149 539.119H751.426ZM735.149 536.946C735.559 533.092 737.896 529.402 742.119 529.402C746.301 529.402 748.72 533.051 748.843 536.946H735.149ZM770.145 534.035C769.981 529.443 766.619 527.229 762.396 527.229C758.665 527.229 754.442 528.869 754.442 533.174C754.442 536.782 756.984 537.93 760.346 538.832L763.667 539.57C766.004 540.144 768.3 540.964 768.3 543.424C768.3 546.376 764.938 547.442 762.519 547.442C759.075 547.442 756.492 545.638 756.287 542.153H753.704C754.114 547.319 757.476 549.615 762.396 549.615C766.332 549.615 770.883 547.852 770.883 543.26C770.883 539.57 767.808 537.848 764.856 537.397L761.412 536.618C759.649 536.167 757.025 535.347 757.025 533.051C757.025 530.304 759.731 529.402 762.027 529.402C764.979 529.402 767.439 530.837 767.562 534.035H770.145ZM778.732 521.489H776.149V527.844H772.459V530.017H776.149V544.49C776.108 548.098 777.297 549.246 780.741 549.246C781.52 549.246 782.258 549.164 783.037 549.164V546.95C782.299 547.032 781.561 547.073 780.823 547.073C778.978 546.95 778.732 545.966 778.732 544.285V530.017H783.037V527.844H778.732V521.489Z" fill="#054169"/>
</svg>
