<svg width="788" height="443" viewBox="0 0 788 443" fill="none" xmlns="http://www.w3.org/2000/svg">
<path d="M160.268 129.778H44.9404V283.134H160.268V129.778Z" fill="white" stroke="#054169" stroke-width="3" stroke-miterlimit="10"/>
<path d="M186.535 101.89H71.2075V255.246H186.535V101.89Z" fill="#D6F3FF" stroke="#054169" stroke-width="3" stroke-miterlimit="10"/>
<mask id="mask0" mask-type="alpha" maskUnits="userSpaceOnUse" x="70" y="101" width="117" height="155">
<path d="M186.124 101.935H70.7969V255.291H186.124V101.935Z" fill="#D6F3FF"/>
</mask>
<g mask="url(#mask0)">
<path d="M131.103 68.7295L-16.6221 216.376" stroke="#9DDEFA" stroke-width="2" stroke-miterlimit="10"/>
<path d="M124.126 63.8076L-23.5991 211.454" stroke="#9DDEFA" stroke-width="2" stroke-miterlimit="10"/>
<path d="M137.966 73.4512L-9.75977 221.093" stroke="#9DDEFA" stroke-width="2" stroke-miterlimit="10"/>
<path d="M144.828 78.168L-2.89746 225.81" stroke="#9DDEFA" stroke-width="2" stroke-miterlimit="10"/>
<path d="M151.69 82.8896L3.96436 230.532" stroke="#9DDEFA" stroke-width="2" stroke-miterlimit="10"/>
<path d="M158.548 87.6064L10.8228 235.249" stroke="#9DDEFA" stroke-width="2" stroke-miterlimit="10"/>
<path d="M165.41 92.3242L17.6846 239.966" stroke="#9DDEFA" stroke-width="2" stroke-miterlimit="10"/>
<path d="M172.272 97.0449L24.5469 244.687" stroke="#9DDEFA" stroke-width="2" stroke-miterlimit="10"/>
<path d="M179.135 101.762L31.4092 249.404" stroke="#9DDEFA" stroke-width="2" stroke-miterlimit="10"/>
<path d="M185.997 106.479L38.2715 254.126" stroke="#9DDEFA" stroke-width="2" stroke-miterlimit="10"/>
<path d="M192.859 111.2L45.1333 258.842" stroke="#9DDEFA" stroke-width="2" stroke-miterlimit="10"/>
<path d="M196.191 118.94L48.4658 266.582" stroke="#9DDEFA" stroke-width="2" stroke-miterlimit="10"/>
<path d="M203.053 123.662L55.3281 271.304" stroke="#9DDEFA" stroke-width="2" stroke-miterlimit="10"/>
<path d="M209.916 128.379L62.1904 276.021" stroke="#9DDEFA" stroke-width="2" stroke-miterlimit="10"/>
<path d="M216.778 133.097L69.0522 280.739" stroke="#9DDEFA" stroke-width="2" stroke-miterlimit="10"/>
<path d="M223.64 137.817L75.9146 285.459" stroke="#9DDEFA" stroke-width="2" stroke-miterlimit="10"/>
<path d="M230.502 142.534L82.7769 290.176" stroke="#9DDEFA" stroke-width="2" stroke-miterlimit="10"/>
<path d="M237.36 147.252L89.6348 294.894" stroke="#9DDEFA" stroke-width="2" stroke-miterlimit="10"/>
<path d="M244.222 151.973L96.4971 299.615" stroke="#9DDEFA" stroke-width="2" stroke-miterlimit="10"/>
<path d="M251.085 156.689L103.359 304.331" stroke="#9DDEFA" stroke-width="2" stroke-miterlimit="10"/>
<path d="M257.947 161.411L110.221 309.053" stroke="#9DDEFA" stroke-width="2" stroke-miterlimit="10"/>
</g>
<path d="M186.535 101.89H71.2075V255.246H186.535V101.89Z" stroke="#054169" stroke-width="3" stroke-miterlimit="10"/>
<path d="M149.186 129.877H33.8594V283.233H149.186V129.877Z" fill="white" stroke="#054169" stroke-width="3" stroke-miterlimit="10"/>
<path d="M362.603 134.315H241.53V287.7H362.603V134.315Z" fill="white"/>
<path d="M362.603 285.238V287.699H360.141" stroke="#054169" stroke-width="5" stroke-miterlimit="10"/>
<path d="M355.901 287.7H246.11" stroke="#054169" stroke-width="5" stroke-miterlimit="10" stroke-dasharray="12.39 10.33"/>
<path d="M243.993 287.699H241.53V285.238" stroke="#054169" stroke-width="5" stroke-miterlimit="10"/>
<path d="M241.53 281.137V138.827" stroke="#054169" stroke-width="5" stroke-miterlimit="10" stroke-dasharray="12 10"/>
<path d="M241.53 136.777V134.315H243.993" stroke="#054169" stroke-width="5" stroke-miterlimit="10"/>
<path d="M248.232 134.315H358.023" stroke="#054169" stroke-width="5" stroke-miterlimit="10" stroke-dasharray="12.39 10.33"/>
<path d="M360.141 134.315H362.603V136.777" stroke="#054169" stroke-width="5" stroke-miterlimit="10"/>
<path d="M362.603 140.878V283.188" stroke="#054169" stroke-width="5" stroke-miterlimit="10" stroke-dasharray="12 10"/>
<path d="M505.018 134.315H383.945V287.7H505.018V134.315Z" fill="white"/>
<path d="M505.018 285.238V287.699H502.555" stroke="#054169" stroke-width="5" stroke-miterlimit="10"/>
<path d="M498.315 287.7H388.525" stroke="#054169" stroke-width="5" stroke-miterlimit="10" stroke-dasharray="12.39 10.33"/>
<path d="M386.407 287.699H383.945V285.238" stroke="#054169" stroke-width="5" stroke-miterlimit="10"/>
<path d="M383.945 281.137V138.827" stroke="#054169" stroke-width="5" stroke-miterlimit="10" stroke-dasharray="12 10"/>
<path d="M383.945 136.777V134.315H386.407" stroke="#054169" stroke-width="5" stroke-miterlimit="10"/>
<path d="M390.647 134.315H500.437" stroke="#054169" stroke-width="5" stroke-miterlimit="10" stroke-dasharray="12.39 10.33"/>
<path d="M502.555 134.315H505.018V136.777" stroke="#054169" stroke-width="5" stroke-miterlimit="10"/>
<path d="M505.018 140.878V283.188" stroke="#054169" stroke-width="5" stroke-miterlimit="10" stroke-dasharray="12 10"/>
<path d="M651.536 134.315H530.463V287.7H651.536V134.315Z" fill="white"/>
<path d="M651.537 285.238V287.699H649.074" stroke="#054169" stroke-width="5" stroke-miterlimit="10"/>
<path d="M644.835 287.7H535.044" stroke="#054169" stroke-width="5" stroke-miterlimit="10" stroke-dasharray="12.39 10.33"/>
<path d="M532.926 287.699H530.463V285.238" stroke="#054169" stroke-width="5" stroke-miterlimit="10"/>
<path d="M530.463 281.137V138.827" stroke="#054169" stroke-width="5" stroke-miterlimit="10" stroke-dasharray="12 10"/>
<path d="M530.463 136.777V134.315H532.926" stroke="#054169" stroke-width="5" stroke-miterlimit="10"/>
<path d="M537.166 134.315H646.956" stroke="#054169" stroke-width="5" stroke-miterlimit="10" stroke-dasharray="12.39 10.33"/>
<path d="M649.074 134.315H651.537V136.777" stroke="#054169" stroke-width="5" stroke-miterlimit="10"/>
<path d="M651.537 140.878V283.188" stroke="#054169" stroke-width="5" stroke-miterlimit="10" stroke-dasharray="12 10"/>
<path d="M102.399 333.821C109.879 333.821 115.942 327.761 115.942 320.285C115.942 312.809 109.879 306.749 102.399 306.749C94.9187 306.749 88.855 312.809 88.855 320.285C88.855 327.761 94.9187 333.821 102.399 333.821Z" fill="#054169" stroke="#054169" stroke-width="3" stroke-miterlimit="10"/>
<path d="M713.51 333.686C720.99 333.686 727.053 327.625 727.053 320.149C727.053 312.674 720.99 306.613 713.51 306.613C706.03 306.613 699.966 312.674 699.966 320.149C699.966 327.625 706.03 333.686 713.51 333.686Z" fill="white" stroke="#054169" stroke-width="3" stroke-miterlimit="10"/>
<path d="M676.162 314.407H139.747V326.713H676.162V314.407Z" fill="#054169" stroke="#054169" stroke-width="3" stroke-miterlimit="10"/>
<path d="M56.0547 358.227C56.0837 358.783 56.2232 359.329 56.4651 359.831C56.6765 360.251 56.9794 360.618 57.3516 360.905C57.7187 361.184 58.1371 361.387 58.5829 361.504C59.0785 361.634 59.5891 361.697 60.1014 361.693C60.6581 361.706 61.213 361.625 61.7431 361.455C62.1591 361.324 62.5425 361.106 62.8676 360.815C63.1496 360.556 63.3686 360.236 63.5079 359.88C63.6449 359.523 63.7144 359.143 63.7131 358.76C63.7358 358.285 63.6049 357.814 63.3396 357.419C63.0789 357.076 62.7452 356.796 62.3628 356.598C61.9262 356.369 61.4631 356.194 60.9838 356.078C60.4667 355.946 59.9332 355.819 59.3873 355.696C58.8415 355.573 58.312 355.421 57.7949 355.253C57.3026 355.095 56.8375 354.863 56.4159 354.564C56.0108 354.27 55.6769 353.889 55.4391 353.448C55.2092 352.956 55.0874 352.42 55.0817 351.877C55.076 351.333 55.1867 350.795 55.4063 350.298C55.6159 349.827 55.9254 349.407 56.3133 349.067C56.7557 348.691 57.2673 348.404 57.8195 348.222C58.4934 348.002 59.1995 347.895 59.9085 347.907C60.6222 347.891 61.3327 348.005 62.0058 348.243C62.5616 348.439 63.0694 348.751 63.4956 349.158C63.8856 349.538 64.1881 349.998 64.3821 350.507C64.5823 351.031 64.6825 351.587 64.6776 352.148H63.3971C63.4075 351.666 63.3094 351.188 63.1098 350.749C62.931 350.37 62.6635 350.039 62.33 349.785C61.9956 349.531 61.6151 349.345 61.2096 349.236C60.7863 349.116 60.3485 349.055 59.9085 349.055C59.3209 349.04 58.7358 349.138 58.1848 349.342C57.7635 349.502 57.3834 349.754 57.0726 350.081C56.8053 350.366 56.6098 350.71 56.5021 351.086C56.3958 351.444 56.3747 351.821 56.4405 352.189C56.4977 352.607 56.6926 352.994 56.9946 353.288C57.3026 353.58 57.6633 353.811 58.0576 353.969C58.5064 354.154 58.9706 354.3 59.4448 354.404C59.9496 354.515 60.4667 354.634 60.992 354.757C61.5174 354.88 62.0263 355.027 62.5188 355.2C62.9883 355.36 63.43 355.593 63.828 355.889C64.2146 356.184 64.5279 356.564 64.7432 357C64.9898 357.533 65.1078 358.116 65.088 358.703C65.1175 359.282 65.0099 359.861 64.7739 360.391C64.5378 360.921 64.18 361.388 63.7295 361.755C62.8239 362.476 61.5502 362.837 59.9085 362.837C59.2143 362.844 58.523 362.748 57.8565 362.554C57.2554 362.382 56.6965 362.087 56.2148 361.689C55.753 361.296 55.3867 360.804 55.1436 360.249C54.8723 359.612 54.7408 358.924 54.7578 358.231L56.0547 358.227Z" fill="#054169"/>
<path d="M74.2855 352.263H75.4675V362.46H74.2855V361.045C74.1295 361.225 73.9489 361.418 73.7519 361.615C73.546 361.819 73.319 362 73.0747 362.156C72.7926 362.328 72.4909 362.466 72.1759 362.567C71.7929 362.683 71.3941 362.738 70.9939 362.731C70.4105 362.748 69.8293 362.652 69.2825 362.448C68.8476 362.274 68.4647 361.991 68.1703 361.627C67.8829 361.279 67.6743 360.874 67.5587 360.438C67.4281 359.954 67.3645 359.454 67.3699 358.953V352.263H68.5396V358.957C68.4957 359.678 68.7144 360.39 69.1553 360.963C69.5657 361.43 70.2306 361.66 71.1663 361.66C71.6186 361.667 72.0665 361.57 72.4755 361.377C72.8566 361.188 73.1893 360.914 73.4482 360.577C73.7257 360.208 73.933 359.791 74.0597 359.347C74.2086 358.841 74.2819 358.315 74.2773 357.788L74.2855 352.263Z" fill="#054169"/>
<path d="M79.621 362.46H78.439V348.284H79.621V353.896C79.9899 353.276 80.534 352.779 81.1847 352.468C81.8327 352.152 82.5444 351.988 83.2655 351.988C83.9644 351.972 84.6569 352.124 85.2847 352.431C85.8396 352.713 86.3236 353.117 86.7006 353.612C87.0801 354.13 87.3586 354.715 87.5215 355.335C87.7073 356.003 87.7999 356.693 87.7965 357.386C87.8003 358.095 87.7149 358.802 87.542 359.49C87.3877 360.109 87.1083 360.69 86.7212 361.197C86.3382 361.679 85.8495 362.066 85.2929 362.329C84.6289 362.62 83.9083 362.761 83.1834 362.739C82.8438 362.737 82.5058 362.692 82.1779 362.604C81.833 362.503 81.5 362.365 81.1847 362.194C80.8619 362.021 80.5638 361.806 80.2982 361.554C80.0271 361.295 79.8034 360.991 79.6374 360.655H79.621V362.46ZM79.621 357.321C79.6153 357.903 79.6913 358.482 79.8467 359.043C79.9777 359.54 80.2019 360.008 80.5075 360.422C80.7923 360.808 81.1633 361.122 81.591 361.34C82.0496 361.568 82.5564 361.682 83.0685 361.673C83.5415 361.679 84.0108 361.588 84.4475 361.406C84.8661 361.231 85.2415 360.966 85.5474 360.631C85.8761 360.268 86.1275 359.843 86.2861 359.38C86.4745 358.832 86.5648 358.256 86.5529 357.677C86.5843 357.073 86.5318 356.467 86.3969 355.877C86.2841 355.35 86.0739 354.849 85.7772 354.4C85.4922 353.984 85.1106 353.644 84.665 353.407C84.1763 353.154 83.6312 353.028 83.0808 353.042C82.5766 353.034 82.0783 353.152 81.632 353.387C81.2089 353.613 80.8394 353.928 80.5485 354.31C80.2427 354.72 80.012 355.181 79.8672 355.672C79.7042 356.206 79.6212 356.762 79.621 357.321Z" fill="#054169"/>
<path d="M91.3754 362.46H90.1934V352.263H91.3754V353.797H91.4164C91.7009 353.224 92.1552 352.753 92.7174 352.447C93.2852 352.139 93.9223 351.981 94.5684 351.988C94.9749 351.977 95.3805 352.03 95.7709 352.144C96.0655 352.234 96.3429 352.372 96.5918 352.554C96.8161 352.726 97.0091 352.936 97.1622 353.173C97.317 353.416 97.445 353.674 97.5439 353.944C97.8425 353.323 98.3198 352.804 98.9147 352.455C99.5157 352.128 100.192 351.962 100.876 351.976C101.444 351.952 102.008 352.071 102.518 352.32C102.913 352.529 103.243 352.841 103.474 353.222C103.703 353.621 103.854 354.06 103.918 354.515C103.991 355.01 104.027 355.511 104.024 356.012V362.447H102.842V355.413C102.877 354.8 102.716 354.193 102.383 353.678C102.071 353.259 101.496 353.05 100.659 353.05C100.233 353.052 99.812 353.149 99.4277 353.333C99.0115 353.538 98.6499 353.839 98.373 354.211C98.2368 354.394 98.1276 354.596 98.0487 354.81C97.9606 355.044 97.892 355.286 97.8435 355.532C97.7902 355.778 97.7532 356.027 97.7327 356.278C97.7327 356.529 97.704 356.758 97.704 356.967V362.46H96.522V355.413C96.5553 354.8 96.3929 354.192 96.0582 353.678C95.7518 353.259 95.1772 353.05 94.3345 353.05C93.9082 353.053 93.4879 353.15 93.1032 353.333C92.6876 353.539 92.3263 353.84 92.0484 354.211C91.9123 354.394 91.8031 354.596 91.7242 354.81C91.638 355.045 91.5694 355.286 91.519 355.532C91.4657 355.778 91.4287 356.027 91.4082 356.278C91.4082 356.529 91.3795 356.758 91.3795 356.967L91.3754 362.46Z" fill="#054169"/>
<path d="M106.881 350.036V348.284H108.182V350.036H106.881ZM106.938 362.46V352.263H108.12V362.46H106.938Z" fill="#054169"/>
<path d="M111.826 359.273C111.919 359.993 112.272 360.653 112.819 361.131C113.427 361.527 114.147 361.717 114.871 361.672C115.251 361.679 115.629 361.627 115.992 361.516C116.276 361.431 116.54 361.292 116.772 361.106C116.965 360.939 117.123 360.733 117.235 360.503C117.339 360.281 117.392 360.039 117.391 359.794C117.407 359.583 117.371 359.372 117.287 359.178C117.202 358.984 117.072 358.814 116.907 358.682C116.542 358.419 116.132 358.226 115.696 358.112C115.178 357.966 114.652 357.848 114.12 357.759C113.581 357.667 113.053 357.519 112.544 357.316C112.079 357.134 111.664 356.842 111.334 356.467C110.987 356.026 110.815 355.473 110.849 354.913C110.839 354.515 110.917 354.121 111.079 353.758C111.241 353.396 111.482 353.074 111.785 352.816C112.538 352.228 113.482 351.936 114.436 351.996C115.388 351.953 116.329 352.211 117.125 352.734C117.814 353.227 118.231 354.047 118.376 355.196H117.174C117.157 354.869 117.069 354.55 116.914 354.262C116.759 353.974 116.542 353.724 116.279 353.53C115.718 353.192 115.07 353.025 114.416 353.05C113.807 353.009 113.203 353.178 112.704 353.53C112.514 353.682 112.361 353.876 112.259 354.096C112.156 354.317 112.106 354.558 112.113 354.802C112.101 355.003 112.138 355.205 112.222 355.389C112.305 355.573 112.433 355.733 112.594 355.856C112.961 356.12 113.37 356.319 113.804 356.447C114.293 356.598 114.818 356.73 115.38 356.857C115.926 356.964 116.459 357.131 116.969 357.353C117.439 357.55 117.859 357.848 118.2 358.227C118.542 358.664 118.713 359.211 118.68 359.765C118.69 360.215 118.581 360.659 118.364 361.053C118.153 361.429 117.856 361.749 117.498 361.988C117.098 362.251 116.655 362.442 116.189 362.55C115.643 362.678 115.083 362.74 114.522 362.735C113.976 362.745 113.432 362.656 112.918 362.472C112.477 362.306 112.072 362.055 111.728 361.734C111.4 361.421 111.139 361.046 110.96 360.631C110.772 360.201 110.665 359.741 110.644 359.273H111.826Z" fill="#054169"/>
<path d="M121.676 359.273C121.769 359.993 122.123 360.653 122.669 361.131C123.277 361.527 123.997 361.717 124.721 361.672C125.101 361.679 125.479 361.627 125.842 361.516C126.126 361.431 126.39 361.292 126.622 361.106C126.815 360.939 126.973 360.733 127.085 360.503C127.189 360.281 127.242 360.039 127.241 359.794C127.257 359.583 127.221 359.372 127.137 359.178C127.052 358.984 126.922 358.814 126.757 358.682C126.392 358.419 125.982 358.226 125.546 358.112C125.028 357.966 124.502 357.848 123.97 357.759C123.431 357.667 122.903 357.519 122.394 357.316C121.929 357.134 121.514 356.842 121.184 356.467C120.837 356.026 120.665 355.473 120.699 354.913C120.689 354.515 120.767 354.121 120.929 353.758C121.091 353.396 121.332 353.074 121.635 352.816C122.388 352.228 123.332 351.936 124.286 351.996C125.238 351.953 126.179 352.211 126.975 352.734C127.664 353.227 128.081 354.047 128.226 355.196H127.024C127.007 354.869 126.919 354.55 126.764 354.262C126.609 353.974 126.392 353.724 126.129 353.53C125.568 353.192 124.921 353.025 124.266 353.05C123.657 353.009 123.053 353.178 122.554 353.53C122.364 353.682 122.211 353.876 122.109 354.096C122.006 354.317 121.956 354.558 121.963 354.802C121.951 355.003 121.988 355.205 122.072 355.389C122.155 355.573 122.283 355.733 122.444 355.856C122.811 356.12 123.22 356.319 123.654 356.447C124.143 356.598 124.668 356.73 125.23 356.857C125.776 356.964 126.309 357.131 126.819 357.353C127.289 357.55 127.709 357.848 128.05 358.227C128.393 358.664 128.563 359.211 128.53 359.765C128.54 360.215 128.431 360.659 128.214 361.053C128.003 361.429 127.706 361.749 127.348 361.988C126.948 362.251 126.505 362.442 126.039 362.55C125.493 362.678 124.933 362.74 124.373 362.735C123.826 362.745 123.282 362.656 122.768 362.472C122.327 362.306 121.922 362.055 121.578 361.734C121.251 361.421 120.99 361.046 120.81 360.631C120.623 360.201 120.515 359.741 120.494 359.273H121.676Z" fill="#054169"/>
<path d="M130.952 350.036V348.284H132.253V350.036H130.952ZM131.013 362.46V352.263H132.195V362.46H131.013Z" fill="#054169"/>
<path d="M139.267 362.735C138.636 362.727 138.012 362.607 137.424 362.382C136.856 362.162 136.344 361.819 135.926 361.377C135.478 360.894 135.133 360.324 134.912 359.703C134.648 358.951 134.522 358.158 134.539 357.361C134.533 356.652 134.633 355.946 134.834 355.265C135.015 354.645 135.316 354.067 135.721 353.563C136.12 353.072 136.625 352.678 137.198 352.41C137.843 352.122 138.544 351.982 139.25 352C139.968 351.979 140.682 352.119 141.339 352.41C141.91 352.677 142.415 353.066 142.817 353.551C143.222 354.052 143.52 354.632 143.691 355.253C143.887 355.938 143.984 356.648 143.978 357.361C143.989 358.11 143.875 358.856 143.642 359.568C143.438 360.189 143.115 360.763 142.689 361.258C142.277 361.73 141.766 362.104 141.191 362.353C140.583 362.611 139.928 362.741 139.267 362.735ZM142.735 357.361C142.738 356.791 142.672 356.222 142.538 355.667C142.422 355.178 142.214 354.714 141.926 354.301C141.651 353.914 141.286 353.599 140.863 353.383C140.365 353.147 139.818 353.033 139.267 353.05C138.716 353.033 138.17 353.159 137.682 353.415C137.252 353.646 136.883 353.976 136.607 354.379C136.322 354.798 136.115 355.265 135.996 355.757C135.863 356.282 135.797 356.821 135.799 357.361C135.792 357.95 135.868 358.537 136.024 359.105C136.153 359.596 136.371 360.059 136.669 360.471C136.954 360.848 137.325 361.152 137.752 361.357C138.22 361.576 138.733 361.684 139.25 361.672C139.801 361.689 140.347 361.564 140.834 361.307C141.266 361.075 141.635 360.741 141.91 360.335C142.192 359.915 142.399 359.448 142.521 358.957C142.659 358.436 142.731 357.9 142.735 357.361Z" fill="#054169"/>
<path d="M147.34 362.461H146.158V352.263H147.34V353.678C147.775 353.207 148.269 352.793 148.809 352.448C149.359 352.121 149.991 351.957 150.631 351.976C151.231 351.97 151.826 352.08 152.384 352.3C152.94 352.533 153.413 352.928 153.742 353.432C153.981 353.767 154.133 354.156 154.185 354.564C154.233 354.973 154.256 355.384 154.255 355.795V362.469H153.086V355.807C153.137 355.072 152.92 354.343 152.474 353.756C152.066 353.297 151.391 353.067 150.447 353.067C150.104 353.061 149.763 353.118 149.441 353.235C149.146 353.34 148.87 353.49 148.62 353.678C148.382 353.855 148.171 354.066 147.996 354.306C147.826 354.536 147.688 354.789 147.586 355.057C147.475 355.361 147.403 355.678 147.373 356C147.344 356.304 147.332 356.632 147.332 356.985L147.34 362.461Z" fill="#054169"/>
<path d="M677.696 360.409V346.233H682.523C682.933 346.233 683.307 346.233 683.688 346.262C684.065 346.284 684.439 346.33 684.809 346.402C685.177 346.475 685.537 346.583 685.884 346.726C686.243 346.876 686.583 347.068 686.898 347.296C687.363 347.633 687.758 348.058 688.059 348.547C688.36 349.035 688.601 349.557 688.778 350.101C688.954 350.635 689.081 351.185 689.155 351.742C689.223 352.254 689.258 352.769 689.262 353.284C689.262 353.766 689.232 354.247 689.172 354.724C689.114 355.207 689.02 355.684 688.888 356.152C688.757 356.613 688.582 357.06 688.367 357.489C688.148 357.916 687.872 358.31 687.546 358.662C687.237 359.011 686.876 359.31 686.475 359.548C686.087 359.77 685.674 359.945 685.244 360.069C684.81 360.196 684.365 360.281 683.914 360.323C683.449 360.371 682.982 360.395 682.515 360.393L677.696 360.409ZM679.034 359.269H682.244C682.815 359.271 683.385 359.234 683.951 359.158C684.526 359.077 685.082 358.894 685.593 358.617C686.051 358.392 686.449 358.062 686.754 357.653C687.056 357.246 687.297 356.799 687.472 356.324C687.652 355.837 687.777 355.333 687.846 354.819C687.918 354.316 687.955 353.809 687.957 353.301C687.956 352.778 687.923 352.257 687.858 351.738C687.793 351.219 687.667 350.709 687.481 350.22C687.302 349.745 687.05 349.301 686.734 348.904C686.399 348.487 685.98 348.147 685.502 347.907C685.034 347.679 684.528 347.54 684.009 347.497C683.425 347.431 682.839 347.398 682.252 347.398H679.042L679.034 359.269Z" fill="#054169"/>
<path d="M692.467 355.585C692.465 356.115 692.538 356.643 692.685 357.152C692.816 357.615 693.033 358.049 693.325 358.432C693.614 358.797 693.981 359.093 694.4 359.297C694.867 359.522 695.38 359.633 695.898 359.621C696.611 359.641 697.31 359.426 697.889 359.01C698.451 358.583 698.841 357.969 698.989 357.279H700.31C700.172 357.749 699.981 358.202 699.74 358.629C699.507 359.037 699.207 359.403 698.853 359.711C698.482 360.029 698.053 360.273 697.589 360.429C697.044 360.609 696.472 360.695 695.898 360.684C695.174 360.703 694.453 360.563 693.789 360.273C693.222 360.013 692.724 359.626 692.332 359.141C691.939 358.639 691.65 358.063 691.482 357.447C691.296 356.764 691.204 356.059 691.207 355.351C691.202 354.635 691.313 353.923 691.535 353.243C691.733 352.616 692.046 352.032 692.459 351.52C692.858 351.03 693.36 350.634 693.928 350.359C694.545 350.073 695.219 349.932 695.898 349.949C696.524 349.919 697.148 350.034 697.721 350.284C698.295 350.535 698.803 350.914 699.206 351.393C700.005 352.361 700.399 353.762 700.388 355.597L692.467 355.585ZM699.128 354.601C699.131 354.124 699.062 353.65 698.923 353.194C698.795 352.777 698.588 352.39 698.312 352.053C698.034 351.725 697.688 351.462 697.298 351.282C696.858 351.087 696.38 350.99 695.898 350.999C695.418 350.989 694.942 351.09 694.507 351.294C694.116 351.484 693.768 351.752 693.485 352.082C693.196 352.422 692.966 352.807 692.804 353.222C692.63 353.665 692.517 354.128 692.467 354.601H699.128Z" fill="#054169"/>
<path d="M709.923 353.42C709.755 352.729 709.376 352.106 708.839 351.64C708.287 351.199 707.595 350.972 706.89 351C706.347 350.984 705.81 351.113 705.334 351.373C704.911 351.613 704.548 351.947 704.275 352.349C703.992 352.777 703.785 353.25 703.664 353.748C703.533 354.26 703.467 354.787 703.467 355.315C703.466 355.846 703.528 356.374 703.651 356.89C703.769 357.382 703.974 357.848 704.255 358.268C704.527 358.672 704.891 359.006 705.318 359.241C705.802 359.497 706.346 359.623 706.894 359.606C707.667 359.643 708.424 359.383 709.011 358.88C709.569 358.345 709.927 357.636 710.025 356.87H711.285C711.191 357.406 711.023 357.926 710.784 358.416C710.564 358.867 710.264 359.274 709.898 359.618C709.524 359.959 709.086 360.223 708.609 360.393C707.358 360.801 706.003 360.754 704.784 360.258C704.218 359.998 703.719 359.61 703.327 359.126C702.934 358.619 702.647 358.039 702.482 357.419C702.294 356.734 702.201 356.026 702.207 355.315C702.201 354.62 702.304 353.928 702.51 353.264C702.703 352.64 703.008 352.056 703.409 351.541C703.803 351.041 704.304 350.634 704.874 350.352C705.503 350.047 706.195 349.895 706.894 349.909C707.919 349.859 708.932 350.156 709.767 350.754C710.549 351.421 711.039 352.368 711.133 353.391L709.923 353.42Z" fill="#054169"/>
<path d="M713.764 347.985V346.233H715.065V347.985H713.764ZM713.825 360.409V350.212H715.007V360.409H713.825Z" fill="#054169"/>
<path d="M718.709 357.222C718.806 357.941 719.159 358.6 719.703 359.08C720.31 359.477 721.03 359.666 721.755 359.622C722.135 359.629 722.515 359.576 722.879 359.466C723.162 359.38 723.425 359.241 723.655 359.056C723.85 358.889 724.008 358.684 724.119 358.453C724.224 358.231 724.277 357.988 724.275 357.743C724.29 357.533 724.255 357.322 724.171 357.128C724.087 356.935 723.958 356.764 723.795 356.631C723.429 356.37 723.018 356.177 722.584 356.061C722.065 355.916 721.539 355.799 721.008 355.708C720.468 355.618 719.94 355.469 719.432 355.265C718.959 355.085 718.537 354.794 718.2 354.416C717.855 353.974 717.684 353.421 717.72 352.862C717.71 352.465 717.788 352.07 717.95 351.708C718.112 351.345 718.353 351.023 718.656 350.766C719.408 350.177 720.35 349.885 721.303 349.945C722.256 349.901 723.199 350.159 723.996 350.684C724.685 351.176 725.096 351.996 725.227 353.145H724.028C724.01 352.818 723.921 352.5 723.765 352.212C723.61 351.924 723.393 351.674 723.13 351.479C722.57 351.141 721.924 350.974 721.27 351C720.66 350.958 720.055 351.127 719.555 351.479C719.364 351.631 719.212 351.825 719.109 352.045C719.006 352.266 718.957 352.508 718.964 352.751C718.952 352.953 718.989 353.155 719.074 353.339C719.158 353.523 719.287 353.683 719.448 353.805C719.821 354.073 720.238 354.272 720.679 354.396C721.164 354.548 721.689 354.679 722.255 354.806C722.797 354.918 723.325 355.087 723.831 355.311C724.302 355.507 724.722 355.805 725.063 356.184C725.407 356.621 725.579 357.168 725.547 357.722C725.555 358.172 725.446 358.616 725.231 359.01C725.019 359.385 724.722 359.705 724.365 359.946C723.964 360.209 723.519 360.399 723.052 360.508C722.514 360.634 721.963 360.696 721.41 360.692C720.864 360.702 720.32 360.614 719.805 360.43C719.362 360.265 718.956 360.014 718.611 359.691C718.285 359.377 718.024 359.003 717.843 358.588C717.658 358.158 717.551 357.698 717.527 357.23L718.709 357.222Z" fill="#054169"/>
<path d="M727.989 347.985V346.233H729.31V347.985H727.989ZM728.046 360.409V350.212H729.228V360.409H728.046Z" fill="#054169"/>
<path d="M736.287 360.684C735.657 360.676 735.033 360.557 734.445 360.331C733.878 360.111 733.368 359.768 732.951 359.326C732.501 358.844 732.156 358.274 731.937 357.653C731.672 356.901 731.544 356.108 731.559 355.311C731.554 354.601 731.653 353.895 731.855 353.214C732.036 352.594 732.337 352.016 732.741 351.512C733.14 351.021 733.646 350.627 734.219 350.36C734.864 350.072 735.565 349.932 736.271 349.949C736.989 349.928 737.703 350.068 738.36 350.36C738.931 350.626 739.435 351.015 739.837 351.5C740.243 352.002 740.541 352.581 740.716 353.202C740.908 353.888 741.004 354.598 740.999 355.311C741.009 356.059 740.897 356.805 740.667 357.517C740.462 358.138 740.137 358.712 739.71 359.207C739.299 359.68 738.787 360.054 738.212 360.303C737.604 360.561 736.948 360.69 736.287 360.684ZM739.755 355.311C739.759 354.74 739.693 354.171 739.558 353.616C739.444 353.126 739.236 352.662 738.947 352.251C738.673 351.862 738.308 351.547 737.884 351.332C737.386 351.096 736.838 350.982 736.287 350.999C735.737 350.983 735.191 351.108 734.703 351.365C734.274 351.597 733.906 351.928 733.628 352.328C733.342 352.747 733.137 353.214 733.02 353.707C732.888 354.231 732.822 354.77 732.823 355.311C732.817 355.899 732.893 356.486 733.049 357.054C733.179 357.547 733.404 358.011 733.71 358.42C733.993 358.797 734.364 359.101 734.789 359.306C735.258 359.525 735.77 359.633 736.287 359.622C736.839 359.639 737.387 359.513 737.876 359.257C738.305 359.023 738.673 358.69 738.947 358.284C739.231 357.865 739.438 357.398 739.558 356.906C739.695 356.385 739.765 355.849 739.768 355.311H739.755Z" fill="#054169"/>
<path d="M744.377 360.41H743.195V350.212H744.377V351.628C744.814 351.158 745.308 350.745 745.847 350.397C746.397 350.07 747.029 349.906 747.669 349.925C748.268 349.919 748.864 350.029 749.421 350.249C749.978 350.481 750.451 350.876 750.78 351.381C751.019 351.717 751.171 352.106 751.223 352.514C751.273 352.922 751.296 353.333 751.293 353.744V360.418H750.111V353.756C750.164 353.021 749.946 352.292 749.499 351.706C749.092 351.246 748.416 351.016 747.472 351.016C747.129 351.011 746.788 351.068 746.466 351.185C746.172 351.29 745.895 351.439 745.646 351.628C745.408 351.804 745.199 352.016 745.026 352.255C744.852 352.484 744.714 352.737 744.615 353.006C744.501 353.309 744.428 353.627 744.398 353.949C744.373 354.253 744.357 354.581 744.357 354.934L744.377 360.41Z" fill="#054169"/>
<path d="M573.307 207.423C573.297 206.436 573.436 205.453 573.718 204.506C573.973 203.645 574.391 202.84 574.949 202.136C575.506 201.456 576.207 200.909 577.001 200.532C577.884 200.124 578.848 199.922 579.82 199.941C580.82 199.92 581.811 200.117 582.726 200.519C583.533 200.889 584.247 201.434 584.815 202.115C585.388 202.819 585.816 203.629 586.075 204.498C586.359 205.447 586.497 206.433 586.485 207.423C586.496 208.395 586.357 209.363 586.075 210.294C585.818 211.152 585.4 211.954 584.844 212.657C584.289 213.338 583.587 213.887 582.792 214.261C581.884 214.649 580.907 214.85 579.919 214.85C578.931 214.85 577.954 214.649 577.046 214.261C576.252 213.884 575.551 213.337 574.994 212.657C574.434 211.956 574.016 211.154 573.763 210.294C573.469 209.365 573.316 208.397 573.307 207.423ZM579.919 213.707C580.741 213.728 581.555 213.548 582.291 213.182C582.938 212.853 583.5 212.378 583.933 211.795C584.373 211.192 584.693 210.509 584.877 209.785C585.084 209.009 585.187 208.21 585.184 207.406C585.196 206.51 585.073 205.617 584.819 204.757C584.603 204.028 584.245 203.349 583.764 202.759C583.314 202.213 582.74 201.781 582.09 201.5C581.393 201.201 580.64 201.053 579.882 201.065C579.066 201.044 578.257 201.227 577.53 201.598C576.882 201.934 576.32 202.416 575.889 203.005C575.451 203.613 575.131 204.298 574.945 205.023C574.54 206.592 574.54 208.237 574.945 209.806C575.13 210.529 575.45 211.211 575.889 211.816C576.32 212.398 576.882 212.87 577.53 213.194C578.274 213.553 579.093 213.729 579.919 213.707Z" fill="#054169"/>
<path d="M590.249 214.49H589.067V204.272H590.249V206.183H590.29C590.522 205.496 590.966 204.9 591.558 204.481C592.184 204.132 592.894 203.965 593.61 203.997V205.277C593.045 205.247 592.482 205.355 591.969 205.593C591.551 205.8 591.194 206.112 590.934 206.499C590.665 206.907 590.483 207.367 590.401 207.849C590.299 208.39 590.25 208.939 590.253 209.489L590.249 214.49Z" fill="#054169"/>
<path d="M600.255 208.542C600.481 208.518 600.747 208.477 601.076 208.423C601.337 208.386 601.593 208.314 601.835 208.21C601.928 208.168 602.01 208.104 602.073 208.023C602.136 207.942 602.178 207.847 602.196 207.746C602.242 207.549 602.265 207.346 602.266 207.144C602.276 206.87 602.229 206.597 602.13 206.341C602.03 206.086 601.88 205.854 601.687 205.659C601.277 205.273 600.645 205.076 599.725 205.076C599.348 205.073 598.971 205.111 598.601 205.187C598.281 205.25 597.976 205.377 597.706 205.56C597.444 205.745 597.227 205.988 597.074 206.27C596.895 206.616 596.785 206.993 596.75 207.381H595.515C595.535 206.842 595.676 206.314 595.925 205.835C596.149 205.423 596.463 205.066 596.844 204.793C597.234 204.514 597.675 204.314 598.141 204.202C598.654 204.074 599.181 204.01 599.709 204.014C600.197 204.012 600.683 204.068 601.158 204.182C601.583 204.28 601.985 204.461 602.34 204.715C602.681 204.967 602.952 205.302 603.128 205.687C603.33 206.16 603.426 206.671 603.411 207.185V212.738C603.411 213.198 603.493 213.489 603.657 213.612C603.821 213.739 604.154 213.706 604.655 213.526V214.449L604.244 214.568C604.075 214.619 603.9 214.646 603.723 214.646C603.544 214.646 603.365 214.626 603.189 214.588C603.018 214.57 602.855 214.504 602.717 214.4C602.6 214.303 602.504 214.183 602.434 214.047C602.359 213.905 602.309 213.751 602.286 213.592C602.258 213.419 602.244 213.245 602.245 213.071C601.769 213.606 601.186 214.035 600.534 214.33C599.877 214.623 599.164 214.771 598.445 214.765C598.008 214.767 597.573 214.707 597.152 214.588C596.756 214.477 596.385 214.289 596.06 214.035C595.746 213.789 595.489 213.476 595.309 213.12C595.119 212.718 595.025 212.277 595.034 211.832C595.034 210.098 596.223 209.074 598.601 208.76L600.255 208.542ZM602.245 209.133C601.762 209.338 601.252 209.476 600.731 209.543C600.218 209.609 599.705 209.662 599.192 209.699C598.445 209.717 597.716 209.927 597.074 210.31C596.824 210.482 596.623 210.715 596.491 210.988C596.358 211.26 596.299 211.562 596.319 211.865C596.312 212.149 596.375 212.431 596.504 212.685C596.623 212.91 596.791 213.105 596.996 213.255C597.209 213.411 597.45 213.524 597.706 213.588C597.974 213.661 598.25 213.699 598.527 213.698C598.992 213.698 599.456 213.638 599.906 213.522C600.332 213.413 600.735 213.23 601.096 212.98C601.436 212.737 601.716 212.42 601.917 212.053C602.138 211.646 602.247 211.187 602.233 210.724L602.245 209.133Z" fill="#054169"/>
<path d="M606.698 214.49V200.313H607.88V214.49H606.698Z" fill="#054169"/>
<path d="M418.058 205.171C417.921 204.295 417.45 203.506 416.745 202.968C415.996 202.499 415.121 202.27 414.237 202.312C413.613 202.289 412.992 202.426 412.434 202.708C411.877 202.991 411.4 203.411 411.049 203.928C410.695 204.446 410.439 205.024 410.293 205.634C410.126 206.305 410.043 206.994 410.047 207.685C410.046 208.353 410.118 209.018 410.261 209.67C410.386 210.288 410.622 210.877 410.958 211.41C411.288 211.922 411.739 212.345 412.272 212.64C412.903 212.973 413.61 213.136 414.324 213.112C414.806 213.119 415.285 213.034 415.736 212.862C416.149 212.701 416.529 212.465 416.856 212.164C417.185 211.86 417.462 211.504 417.677 211.11C417.9 210.691 418.067 210.244 418.173 209.781H419.368C419.235 210.349 419.036 210.9 418.777 211.422C418.258 212.491 417.344 213.318 416.228 213.727C415.552 213.97 414.837 214.086 414.118 214.072C413.291 214.094 412.471 213.918 411.726 213.559C411.075 213.236 410.512 212.76 410.084 212.173C409.65 211.562 409.338 210.874 409.165 210.146C408.971 209.34 408.876 208.514 408.882 207.685C408.851 206.689 408.99 205.694 409.292 204.744C409.536 204.005 409.941 203.33 410.478 202.767C410.976 202.259 411.588 201.878 412.263 201.655C412.985 201.42 413.741 201.303 414.5 201.311C415.084 201.306 415.665 201.389 416.224 201.557C416.738 201.708 417.219 201.956 417.64 202.287C418.053 202.617 418.396 203.026 418.649 203.489C418.923 204.001 419.108 204.556 419.195 205.13L418.058 205.171Z" fill="#054169"/>
<path d="M424.925 213.997C424.386 213.992 423.852 213.891 423.349 213.698C422.866 213.509 422.43 213.216 422.073 212.841C421.688 212.428 421.393 211.941 421.207 211.409C420.981 210.766 420.873 210.088 420.886 209.407C420.881 208.802 420.965 208.199 421.137 207.619C421.292 207.088 421.55 206.594 421.896 206.163C422.237 205.744 422.668 205.408 423.156 205.178C423.717 204.94 424.321 204.817 424.931 204.817C425.541 204.817 426.145 204.94 426.706 205.178C427.194 205.406 427.626 205.74 427.97 206.155C428.317 206.582 428.571 207.076 428.717 207.607C428.885 208.192 428.968 208.798 428.963 209.407C428.973 210.046 428.876 210.683 428.676 211.29C428.502 211.823 428.223 212.315 427.855 212.738C427.503 213.139 427.067 213.458 426.579 213.673C426.056 213.894 425.493 214.005 424.925 213.997ZM427.884 209.407C427.889 208.921 427.832 208.436 427.716 207.963C427.62 207.544 427.443 207.146 427.195 206.794C426.96 206.464 426.649 206.195 426.288 206.011C425.862 205.809 425.395 205.71 424.925 205.724C424.454 205.711 423.988 205.818 423.571 206.036C423.205 206.235 422.89 206.515 422.651 206.856C422.408 207.214 422.232 207.613 422.13 208.033C422.018 208.481 421.961 208.941 421.962 209.403C421.958 209.906 422.023 210.407 422.155 210.892C422.271 211.316 422.466 211.713 422.729 212.065C422.972 212.388 423.288 212.647 423.653 212.82C424.053 213.008 424.491 213.1 424.933 213.091C425.404 213.104 425.87 212.997 426.288 212.779C426.654 212.583 426.968 212.302 427.203 211.959C427.446 211.601 427.622 211.202 427.724 210.781C427.837 210.332 427.891 209.87 427.884 209.407Z" fill="#054169"/>
<path d="M431.689 213.764H430.679V205.051H431.689V206.364H431.722C431.965 205.874 432.353 205.472 432.834 205.211C433.317 204.942 433.861 204.801 434.414 204.801C434.761 204.793 435.107 204.839 435.44 204.936C435.697 205.014 435.939 205.136 436.154 205.297C436.347 205.444 436.512 205.623 436.643 205.826C436.775 206.033 436.886 206.253 436.971 206.483C437.224 205.951 437.631 205.507 438.141 205.211C438.653 204.931 439.231 204.79 439.815 204.801C440.307 204.778 440.797 204.88 441.239 205.096C441.579 205.273 441.863 205.54 442.06 205.867C442.259 206.206 442.389 206.581 442.442 206.971C442.503 207.393 442.533 207.82 442.532 208.247V213.747H441.522V207.742C441.547 207.217 441.403 206.698 441.112 206.261C440.849 205.904 440.357 205.724 439.639 205.724C439.256 205.725 438.88 205.816 438.538 205.988C438.197 206.161 437.901 206.41 437.673 206.717C437.554 206.872 437.46 207.045 437.394 207.229C437.319 207.43 437.26 207.635 437.217 207.845C437.172 208.056 437.14 208.269 437.123 208.484C437.123 208.698 437.098 208.895 437.098 209.071V213.764H436.088V207.742C436.113 207.217 435.969 206.698 435.678 206.261C435.411 205.904 434.923 205.724 434.205 205.724C433.822 205.725 433.444 205.815 433.102 205.987C432.76 206.16 432.463 206.409 432.235 206.717C432.117 206.872 432.025 207.045 431.96 207.229C431.884 207.429 431.825 207.635 431.783 207.845C431.738 208.056 431.706 208.269 431.689 208.484C431.689 208.698 431.664 208.895 431.664 209.071L431.689 213.764Z" fill="#054169"/>
<path d="M445.713 213.764H444.703V205.052H445.713V206.365H445.746C445.988 205.875 446.377 205.472 446.858 205.212C447.341 204.944 447.885 204.802 448.438 204.802C448.786 204.794 449.134 204.84 449.468 204.937C449.725 205.016 449.967 205.138 450.182 205.298C450.374 205.446 450.539 205.625 450.671 205.827C450.802 206.034 450.912 206.254 450.999 206.484C451.252 205.952 451.659 205.508 452.169 205.212C452.681 204.931 453.259 204.789 453.843 204.802C454.334 204.779 454.822 204.881 455.263 205.097C455.601 205.275 455.885 205.542 456.084 205.868C456.28 206.208 456.408 206.583 456.462 206.972C456.524 207.394 456.556 207.82 456.556 208.247V213.748H455.546V207.743C455.571 207.218 455.427 206.699 455.136 206.262C454.873 205.905 454.381 205.725 453.667 205.725C453.284 205.726 452.906 205.816 452.564 205.988C452.222 206.161 451.925 206.41 451.697 206.717C451.578 206.873 451.484 207.046 451.418 207.23C451.343 207.431 451.284 207.636 451.241 207.845C451.197 208.057 451.167 208.27 451.151 208.485C451.151 208.699 451.122 208.896 451.122 209.072V213.764H450.112V207.743C450.137 207.218 449.993 206.699 449.702 206.262C449.439 205.905 448.947 205.725 448.229 205.725C447.846 205.726 447.47 205.817 447.128 205.989C446.787 206.161 446.491 206.411 446.263 206.717C446.144 206.873 446.05 207.046 445.984 207.23C445.909 207.431 445.85 207.636 445.807 207.845C445.762 208.056 445.73 208.27 445.713 208.485C445.713 208.699 445.688 208.896 445.688 209.072L445.713 213.764Z" fill="#054169"/>
<path d="M459.47 209.646C459.468 210.098 459.53 210.548 459.654 210.983C459.765 211.378 459.95 211.748 460.2 212.074C460.448 212.385 460.762 212.638 461.12 212.812C461.595 213.031 462.118 213.124 462.639 213.081C463.16 213.039 463.662 212.863 464.095 212.57C464.578 212.207 464.913 211.681 465.039 211.089H466.168C466.05 211.491 465.886 211.878 465.679 212.242C465.48 212.591 465.223 212.905 464.92 213.169C464.605 213.441 464.239 213.648 463.845 213.78C463.378 213.935 462.888 214.008 462.396 213.998C461.778 214.014 461.164 213.894 460.598 213.645C460.119 213.422 459.698 213.093 459.367 212.681C459.033 212.251 458.787 211.759 458.645 211.233C458.485 210.649 458.406 210.046 458.411 209.441C458.406 208.831 458.499 208.224 458.686 207.644C458.857 207.109 459.126 206.609 459.478 206.171C459.811 205.755 460.231 205.416 460.709 205.179C461.235 204.931 461.811 204.807 462.392 204.818C462.926 204.791 463.459 204.889 463.95 205.102C464.441 205.315 464.875 205.639 465.22 206.048C465.906 206.869 466.243 208.066 466.229 209.641L459.47 209.646ZM465.158 208.805C465.16 208.396 465.1 207.99 464.982 207.599C464.873 207.244 464.696 206.914 464.46 206.627C464.223 206.346 463.926 206.121 463.59 205.97C463.216 205.8 462.808 205.716 462.396 205.724C461.986 205.717 461.58 205.804 461.21 205.979C460.875 206.141 460.578 206.37 460.336 206.651C460.087 206.94 459.891 207.271 459.757 207.627C459.608 208.005 459.511 208.401 459.47 208.805H465.158Z" fill="#054169"/>
<path d="M469.213 213.764H468.204V205.051H469.213V206.282C469.579 205.885 469.993 205.535 470.444 205.24C470.915 204.96 471.456 204.817 472.004 204.83C472.515 204.824 473.022 204.918 473.498 205.105C473.974 205.303 474.379 205.64 474.659 206.073C474.862 206.36 474.993 206.692 475.041 207.041C475.079 207.384 475.098 207.729 475.098 208.074V213.776H474.089V208.079C474.138 207.447 473.952 206.819 473.568 206.315C473.219 205.905 472.64 205.724 471.836 205.724C471.542 205.721 471.251 205.77 470.974 205.868C470.725 205.96 470.49 206.087 470.276 206.245C470.075 206.399 469.896 206.582 469.747 206.786C469.605 206.982 469.492 207.196 469.41 207.422C469.313 207.687 469.251 207.962 469.226 208.243C469.226 208.501 469.193 208.78 469.193 209.083L469.213 213.764Z" fill="#054169"/>
<path d="M480.622 213.797C480.499 213.822 480.335 213.859 480.134 213.916C479.914 213.974 479.688 214.002 479.461 213.998C479.042 214.029 478.627 213.893 478.308 213.621C478.153 213.433 478.038 213.217 477.967 212.985C477.897 212.753 477.873 212.509 477.897 212.267V205.913H476.666V205.052H477.897V202.632H478.907V205.052H480.549V205.913H478.907V211.886C478.907 212.099 478.907 212.296 478.907 212.439C478.911 212.574 478.945 212.705 479.005 212.825C479.063 212.928 479.156 213.007 479.268 213.046C479.428 213.097 479.597 213.119 479.765 213.112C479.902 213.111 480.039 213.1 480.175 213.079C480.315 213.055 480.454 213.03 480.585 212.993L480.622 213.797Z" fill="#054169"/>
<path d="M298.943 214.49V200.313H300.281V214.49H298.943Z" fill="#054169"/>
<path d="M305.268 208.05V214.49H303.926V200.313H309.483C311.045 200.313 312.239 200.605 313.066 201.187C313.892 201.77 314.302 202.719 314.297 204.034C314.336 204.781 314.147 205.522 313.755 206.159C313.3 206.758 312.69 207.221 311.99 207.5C312.37 207.615 312.711 207.832 312.975 208.128C313.213 208.406 313.395 208.727 313.509 209.075C313.629 209.438 313.705 209.814 313.735 210.195C313.768 210.605 313.792 210.97 313.804 211.339C313.804 211.877 313.841 212.324 313.874 212.676C313.897 212.967 313.936 213.256 313.989 213.542C314.023 213.723 314.08 213.9 314.157 214.067C314.213 214.179 314.295 214.276 314.395 214.35V214.469H312.918C312.751 214.165 312.646 213.83 312.61 213.485C312.553 213.074 312.508 212.623 312.475 212.164C312.442 211.704 312.413 211.257 312.397 210.827C312.385 210.47 312.348 210.115 312.286 209.764C312.23 209.433 312.099 209.119 311.904 208.845C311.734 208.625 311.515 208.446 311.264 208.324C311.005 208.203 310.728 208.124 310.443 208.091C310.126 208.049 309.807 208.029 309.487 208.029L305.268 208.05ZM309.454 206.909C309.923 206.913 310.39 206.859 310.845 206.749C311.246 206.658 311.624 206.488 311.958 206.249C312.273 206.019 312.529 205.719 312.705 205.371C312.899 204.973 312.993 204.534 312.98 204.091C312.996 203.642 312.899 203.196 312.696 202.795C312.517 202.459 312.252 202.176 311.929 201.975C311.589 201.773 311.215 201.634 310.825 201.565C310.399 201.485 309.966 201.445 309.532 201.446H305.268V206.901L309.454 206.909Z" fill="#054169"/>
<path d="M179.04 92.5588V78.3828H188.48V79.5272H180.378V84.6463H187.688V85.7866H180.378V91.4185H188.673V92.5588H179.04Z" fill="#054169"/>
<path d="M191.628 88.3249C191.655 88.8817 191.794 89.4273 192.038 89.9287C192.249 90.3487 192.552 90.716 192.924 91.0034C193.292 91.2819 193.71 91.4854 194.156 91.6023C194.65 91.7316 195.159 91.795 195.67 91.7909C196.227 91.8036 196.782 91.7232 197.312 91.553C197.727 91.4229 198.109 91.2046 198.432 90.9131C198.717 90.6565 198.936 90.336 199.072 89.9779C199.213 89.6213 199.284 89.2413 199.282 88.8581C199.302 88.3828 199.172 87.9131 198.908 87.5168C198.647 87.1753 198.313 86.8952 197.932 86.6964C197.494 86.4684 197.031 86.2935 196.553 86.1755C196.031 86.0442 195.502 85.9171 194.956 85.794C194.41 85.671 193.881 85.5192 193.359 85.351C192.868 85.1916 192.403 84.9593 191.98 84.6619C191.577 84.3677 191.244 83.9864 191.008 83.5462C190.739 83.0128 190.611 82.42 190.634 81.8234C190.634 81.3355 190.737 80.8531 190.938 80.4083C191.146 79.9365 191.456 79.5164 191.845 79.1777C192.287 78.8003 192.799 78.5132 193.351 78.3328C194.025 78.112 194.731 78.0052 195.44 78.0169C196.154 78.002 196.864 78.1159 197.538 78.3533C198.092 78.5503 198.598 78.862 199.023 79.268C199.413 79.6481 199.716 80.1087 199.91 80.6175C200.11 81.1412 200.21 81.6977 200.205 82.2582H198.925C198.936 81.7767 198.84 81.2986 198.642 80.8595C198.461 80.4812 198.194 80.1509 197.862 79.8956C197.527 79.6417 197.147 79.455 196.741 79.3459C196.318 79.2263 195.88 79.1656 195.44 79.1654C194.853 79.1498 194.267 79.2473 193.717 79.4526C193.295 79.6124 192.915 79.8647 192.604 80.1909C192.336 80.476 192.139 80.8204 192.03 81.1959C191.927 81.5546 191.907 81.9319 191.972 82.2993C192.03 82.7161 192.223 83.1024 192.522 83.3986C192.833 83.6898 193.194 83.9207 193.589 84.0795C194.038 84.2645 194.502 84.41 194.977 84.5143C195.481 84.625 195.998 84.744 196.524 84.867C197.049 84.9901 197.558 85.1377 198.051 85.31C198.52 85.4705 198.962 85.703 199.36 85.9991C199.746 86.2943 200.06 86.6747 200.275 87.1107C200.522 87.6434 200.64 88.2264 200.62 88.813C200.649 89.3926 200.542 89.971 200.306 90.5012C200.07 91.0315 199.712 91.4986 199.261 91.8648C198.356 92.5867 197.082 92.9477 195.44 92.9477C194.746 92.9544 194.055 92.859 193.388 92.6646C192.787 92.4923 192.228 92.1977 191.747 91.7991C191.285 91.4067 190.918 90.9143 190.675 90.3594C190.404 89.7219 190.273 89.0338 190.29 88.3413L191.628 88.3249Z" fill="#054169"/>
<path d="M201.81 92.5588L207.388 78.3828H208.902L214.34 92.5588H212.961L211.319 88.1083H204.864L203.189 92.5588H201.81ZM205.319 86.9598H210.872L208.081 79.5272L205.319 86.9598Z" fill="#054169"/>
<path d="M42.3018 211.102L47.8752 196.926H49.3938L54.8318 211.102H53.4528L51.8111 206.651H45.3553L43.6808 211.102H42.3018ZM45.8067 205.503H51.3638L48.5852 198.062L45.8067 205.503Z" fill="#054169"/>
<path d="M57.869 215.118H56.687V200.905H57.869V202.697H57.9059C58.0774 202.368 58.3005 202.069 58.5667 201.811C58.8298 201.553 59.1283 201.333 59.4532 201.159C59.7686 200.987 60.1016 200.85 60.4464 200.749C60.7744 200.661 61.1123 200.615 61.4519 200.613C62.1769 200.592 62.8975 200.732 63.5615 201.024C64.1181 201.287 64.6067 201.674 64.9897 202.156C65.3769 202.663 65.6562 203.243 65.8106 203.862C65.9834 204.55 66.0689 205.257 66.065 205.966C66.0684 206.659 65.9759 207.35 65.7901 208.017C65.6272 208.638 65.3487 209.222 64.9692 209.74C64.5922 210.235 64.1082 210.639 63.5533 210.921C62.9255 211.229 62.2329 211.381 61.534 211.364C60.8129 211.365 60.1013 211.201 59.4532 210.885C58.8025 210.573 58.2585 210.077 57.8895 209.457L57.869 215.118ZM57.869 206.044C57.8661 206.6 57.9449 207.153 58.103 207.685C58.2477 208.176 58.4784 208.637 58.7842 209.047C59.0751 209.429 59.4446 209.743 59.8677 209.97C60.314 210.205 60.8123 210.323 61.3165 210.314C61.867 210.328 62.412 210.203 62.9007 209.949C63.3472 209.714 63.7291 209.374 64.0129 208.957C64.3137 208.511 64.5281 208.013 64.645 207.488C64.7798 206.898 64.8323 206.292 64.8009 205.687C64.8129 205.109 64.7226 204.533 64.5342 203.985C64.3755 203.522 64.1241 203.097 63.7954 202.734C63.4895 202.399 63.1142 202.134 62.6955 201.959C62.2588 201.777 61.7896 201.686 61.3165 201.692C60.8044 201.683 60.2976 201.797 59.839 202.025C59.4113 202.243 59.0404 202.557 58.7555 202.943C58.45 203.357 58.2257 203.824 58.0947 204.322C57.9394 204.882 57.8634 205.462 57.869 206.044Z" fill="#054169"/>
<path d="M69.9188 215.118H68.7368V200.905H69.9188V202.697H69.9599C70.1299 202.368 70.3532 202.068 70.6206 201.811C70.8829 201.552 71.1816 201.332 71.5071 201.159C71.8225 200.987 72.1555 200.85 72.5003 200.749C72.8282 200.66 73.1662 200.615 73.5059 200.613C74.2295 200.592 74.9488 200.732 75.6113 201.024C76.1686 201.286 76.6575 201.673 77.0396 202.156C77.4281 202.662 77.7076 203.243 77.8604 203.862C78.0332 204.55 78.1187 205.257 78.1148 205.966C78.1182 206.659 78.0257 207.35 77.8399 208.017C77.677 208.638 77.3985 209.222 77.019 209.74C76.6404 210.235 76.1551 210.639 75.599 210.921C74.9715 211.23 74.2787 211.382 73.5797 211.364C72.8599 211.365 72.1495 211.201 71.503 210.885C70.8521 210.572 70.307 210.076 69.9352 209.457L69.9188 215.118ZM69.9188 206.044C69.9152 206.6 69.9955 207.153 70.1569 207.685C70.3003 208.175 70.5296 208.637 70.834 209.047C71.125 209.428 71.4944 209.743 71.9175 209.97C72.364 210.204 72.8622 210.322 73.3663 210.314C73.918 210.328 74.4643 210.202 74.9546 209.949C75.4003 209.713 75.782 209.373 76.0669 208.957C76.366 208.51 76.5803 208.012 76.6989 207.488C76.8298 206.897 76.8822 206.292 76.8549 205.687C76.8646 205.109 76.7743 204.533 76.5881 203.985C76.4294 203.522 76.1781 203.097 75.8493 202.734C75.5419 202.399 75.1652 202.134 74.7453 201.959C74.3089 201.776 73.8394 201.686 73.3663 201.692C72.8543 201.684 72.3477 201.798 71.8888 202.025C71.4626 202.245 71.0921 202.559 70.8053 202.943C70.5027 203.358 70.28 203.825 70.1487 204.322C69.9918 204.882 69.9145 205.462 69.9188 206.044Z" fill="#054169"/>
<path d="M80.8149 211.102V196.926H81.9969V211.102H80.8149Z" fill="#054169"/>
<path d="M85.1284 198.677V196.926H86.4294V198.677H85.1284ZM85.1859 211.102V200.905H86.3679V211.102H85.1859Z" fill="#054169"/>
<path d="M96.6119 204.112C96.4445 203.421 96.0658 202.799 95.5284 202.332C94.9764 201.892 94.2845 201.665 93.5789 201.692C93.0364 201.676 92.4995 201.805 92.0234 202.065C91.5967 202.309 91.2327 202.649 90.9604 203.058C90.6772 203.485 90.4703 203.959 90.3489 204.457C90.2186 204.969 90.1524 205.495 90.1519 206.024C90.1511 206.554 90.2131 207.083 90.3366 207.599C90.4545 208.09 90.6588 208.557 90.9399 208.977C91.2118 209.381 91.5762 209.714 92.0029 209.949C92.4873 210.206 93.0307 210.332 93.5789 210.314C94.3517 210.351 95.1094 210.092 95.6967 209.588C96.2541 209.053 96.6118 208.344 96.7104 207.578H97.9704C97.8763 208.115 97.7078 208.635 97.4697 209.125C97.2496 209.576 96.9492 209.983 96.5832 210.326C96.2094 210.668 95.7713 210.932 95.2944 211.102C94.0435 211.51 92.6883 211.462 91.4693 210.966C90.903 210.706 90.4044 210.319 90.0124 209.834C89.6192 209.328 89.3317 208.747 89.1669 208.128C88.9776 207.443 88.8837 206.735 88.8878 206.024C88.8837 205.328 88.9875 204.636 89.1956 203.973C89.3851 203.348 89.6885 202.764 90.0903 202.25C90.4865 201.75 90.9882 201.344 91.5596 201.06C92.1881 200.755 92.8802 200.603 93.5789 200.617C94.6048 200.564 95.6183 200.862 96.4518 201.462C97.2366 202.128 97.7288 203.075 97.8226 204.1L96.6119 204.112Z" fill="#054169"/>
<path d="M105.026 205.158C105.248 205.13 105.514 205.093 105.822 205.04C106.083 204.999 106.338 204.926 106.581 204.822C106.675 204.78 106.758 204.716 106.821 204.636C106.885 204.555 106.928 204.46 106.947 204.359C106.99 204.162 107.014 203.961 107.016 203.76C107.024 203.485 106.976 203.212 106.876 202.956C106.776 202.7 106.626 202.467 106.434 202.271C106.042 201.885 105.388 201.692 104.472 201.692C104.096 201.69 103.72 201.726 103.351 201.799C103.03 201.863 102.725 201.99 102.453 202.172C102.192 202.358 101.977 202.601 101.825 202.882C101.644 203.228 101.534 203.605 101.5 203.994H100.298C100.317 203.455 100.457 202.928 100.708 202.451C100.931 202.039 101.244 201.681 101.624 201.405C102.017 201.129 102.458 200.929 102.925 200.815C103.436 200.689 103.961 200.627 104.488 200.63C104.976 200.627 105.462 200.682 105.937 200.794C106.361 200.896 106.762 201.077 107.119 201.327C107.462 201.579 107.733 201.916 107.907 202.304C108.11 202.774 108.208 203.284 108.194 203.797V209.351C108.194 209.81 108.272 210.101 108.441 210.228C108.609 210.356 108.933 210.323 109.434 210.138V211.065L109.023 211.18C108.853 211.233 108.676 211.26 108.498 211.262C108.32 211.263 108.142 211.242 107.969 211.2C107.797 211.186 107.632 211.122 107.497 211.016C107.377 210.918 107.279 210.797 107.209 210.659C107.134 210.518 107.084 210.366 107.062 210.208C107.033 210.036 107.019 209.861 107.021 209.687C106.543 210.22 105.96 210.649 105.309 210.946C104.651 211.236 103.939 211.383 103.22 211.377C102.784 211.379 102.35 211.32 101.931 211.2C101.533 211.091 101.161 210.904 100.836 210.651C100.522 210.405 100.267 210.093 100.089 209.736C99.8953 209.333 99.8011 208.89 99.8136 208.444C99.8136 206.713 101.001 205.689 103.376 205.372L105.026 205.158ZM107.016 205.749C106.531 205.954 106.02 206.092 105.498 206.159C104.985 206.225 104.472 206.278 103.963 206.319C103.216 206.335 102.486 206.546 101.845 206.93C101.594 207.101 101.392 207.334 101.258 207.607C101.125 207.879 101.066 208.182 101.086 208.485C101.078 208.77 101.141 209.052 101.271 209.305C101.391 209.529 101.559 209.724 101.763 209.876C101.977 210.031 102.217 210.145 102.473 210.212C102.741 210.282 103.017 210.318 103.294 210.319C103.759 210.32 104.223 210.261 104.673 210.142C105.1 210.033 105.504 209.849 105.867 209.601C106.207 209.357 106.487 209.04 106.688 208.674C106.907 208.266 107.015 207.808 107.004 207.345L107.016 205.749Z" fill="#054169"/>
<path d="M114.876 211.143C114.728 211.168 114.539 211.213 114.301 211.278C114.044 211.347 113.779 211.38 113.513 211.377C113.024 211.411 112.54 211.252 112.167 210.934C111.855 210.638 111.703 210.113 111.703 209.35V201.889H110.267V200.905H111.703V198.07H112.885V200.905H114.798V201.889H112.885V208.862C112.885 209.113 112.885 209.326 112.906 209.51C112.91 209.669 112.95 209.825 113.025 209.966C113.091 210.085 113.199 210.176 113.328 210.22C113.515 210.28 113.711 210.306 113.907 210.298C114.069 210.298 114.231 210.285 114.391 210.261C114.555 210.232 114.716 210.199 114.876 210.163V211.143Z" fill="#054169"/>
<path d="M116.883 198.677V196.926H118.2V198.677H116.883ZM116.944 211.102V200.905H118.126V211.102H116.944Z" fill="#054169"/>
<path d="M125.198 211.376C124.567 211.368 123.944 211.249 123.355 211.024C122.787 210.804 122.275 210.461 121.857 210.019C121.409 209.535 121.064 208.966 120.843 208.345C120.58 207.593 120.453 206.8 120.47 206.003C120.464 205.293 120.564 204.587 120.765 203.907C120.946 203.287 121.247 202.708 121.652 202.205C122.051 201.714 122.556 201.32 123.129 201.052C123.774 200.764 124.475 200.624 125.181 200.642C125.9 200.62 126.614 200.76 127.27 201.052C127.841 201.318 128.346 201.708 128.748 202.192C129.153 202.694 129.451 203.273 129.622 203.895C129.818 204.58 129.915 205.29 129.909 206.003C129.92 206.752 129.807 207.498 129.573 208.21C129.369 208.831 129.044 209.405 128.616 209.9C128.207 210.372 127.696 210.746 127.123 210.995C126.514 211.253 125.859 211.382 125.198 211.376ZM128.666 206.003C128.67 205.432 128.604 204.863 128.469 204.309C128.353 203.819 128.145 203.356 127.857 202.943C127.582 202.556 127.217 202.24 126.794 202.024C126.296 201.789 125.749 201.675 125.198 201.692C124.646 201.675 124.099 201.801 123.609 202.057C123.181 202.289 122.814 202.619 122.538 203.021C122.253 203.44 122.046 203.907 121.927 204.399C121.795 204.923 121.728 205.462 121.73 206.003C121.724 206.592 121.8 207.178 121.955 207.746C122.089 208.239 122.313 208.702 122.616 209.112C122.898 209.497 123.27 209.807 123.7 210.015C124.168 210.234 124.681 210.342 125.198 210.33C125.748 210.347 126.294 210.222 126.782 209.965C127.213 209.732 127.582 209.398 127.857 208.993C128.139 208.573 128.346 208.106 128.469 207.615C128.602 207.088 128.669 206.546 128.666 206.003Z" fill="#054169"/>
<path d="M133.275 211.102H132.093V200.905H133.275V202.32C133.709 201.85 134.202 201.436 134.74 201.089C135.291 200.763 135.922 200.599 136.562 200.618C137.163 200.611 137.76 200.721 138.319 200.942C138.875 201.175 139.348 201.569 139.677 202.074C139.916 202.409 140.068 202.798 140.121 203.206C140.167 203.607 140.191 204.012 140.19 204.416V211.09H139.008V204.449C139.06 203.714 138.842 202.985 138.397 202.398C137.992 201.938 137.315 201.709 136.365 201.709C136.024 201.703 135.684 201.76 135.364 201.877C135.07 201.983 134.793 202.132 134.543 202.32C134.306 202.497 134.098 202.709 133.923 202.947C133.753 203.178 133.615 203.43 133.513 203.698C133.401 204.002 133.328 204.319 133.295 204.641C133.271 204.945 133.258 205.273 133.258 205.626L133.275 211.102Z" fill="#054169"/>
<path d="M46.1761 121.152C46.3321 118.843 47.075 117.05 48.3883 115.783C49.9766 114.269 52.3693 113.556 55.5131 113.658L55.7594 109.934L64.4356 117.038L54.9057 122.924L55.152 119.232C53.6347 119.11 52.1076 119.249 50.6374 119.643C49.4348 120.046 48.3303 120.698 47.3951 121.554L46.0776 122.645L46.1761 121.152Z" fill="#054169"/>
</svg>
