<svg width="1175" height="661" viewBox="0 0 1175 661" fill="none" xmlns="http://www.w3.org/2000/svg">
<path d="M238.978 193.643H67.0117V422.465H238.978V193.643Z" fill="white" stroke="#054169" stroke-width="3" stroke-miterlimit="10"/>
<path d="M277.533 152.098H105.566V380.92H277.533V152.098Z" fill="#D6F3FF"/>
<mask id="mask0" mask-type="alpha" maskUnits="userSpaceOnUse" x="106" y="153" width="172" height="229">
<path d="M277.966 153H106V381.822H277.966V153Z" fill="#D6F3FF"/>
</mask>
<g mask="url(#mask0)">
<path d="M195.491 102.554L-24.7852 322.856" stroke="#9DDEFA" stroke-width="2" stroke-miterlimit="10"/>
<path d="M185.087 95.209L-35.1885 315.512" stroke="#9DDEFA" stroke-width="2" stroke-miterlimit="10"/>
<path d="M205.723 109.598L-14.5527 329.894" stroke="#9DDEFA" stroke-width="2" stroke-miterlimit="10"/>
<path d="M215.955 116.637L-4.32031 336.933" stroke="#9DDEFA" stroke-width="2" stroke-miterlimit="10"/>
<path d="M226.188 123.681L5.91211 343.977" stroke="#9DDEFA" stroke-width="2" stroke-miterlimit="10"/>
<path d="M236.413 130.72L16.1377 351.016" stroke="#9DDEFA" stroke-width="2" stroke-miterlimit="10"/>
<path d="M246.646 137.758L26.3701 358.054" stroke="#9DDEFA" stroke-width="2" stroke-miterlimit="10"/>
<path d="M256.878 144.802L36.6025 365.098" stroke="#9DDEFA" stroke-width="2" stroke-miterlimit="10"/>
<path d="M267.111 151.841L46.835 372.137" stroke="#9DDEFA" stroke-width="2" stroke-miterlimit="10"/>
<path d="M277.343 158.879L57.0674 379.182" stroke="#9DDEFA" stroke-width="2" stroke-miterlimit="10"/>
<path d="M287.576 165.924L67.2998 386.22" stroke="#9DDEFA" stroke-width="2" stroke-miterlimit="10"/>
<path d="M292.544 177.473L72.2686 397.769" stroke="#9DDEFA" stroke-width="2" stroke-miterlimit="10"/>
<path d="M302.777 184.518L82.501 404.814" stroke="#9DDEFA" stroke-width="2" stroke-miterlimit="10"/>
<path d="M313.009 191.556L92.7334 411.852" stroke="#9DDEFA" stroke-width="2" stroke-miterlimit="10"/>
<path d="M323.242 198.595L102.966 418.891" stroke="#9DDEFA" stroke-width="2" stroke-miterlimit="10"/>
<path d="M333.474 205.639L113.198 425.935" stroke="#9DDEFA" stroke-width="2" stroke-miterlimit="10"/>
<path d="M343.706 212.678L123.431 432.974" stroke="#9DDEFA" stroke-width="2" stroke-miterlimit="10"/>
<path d="M353.932 219.716L133.656 440.012" stroke="#9DDEFA" stroke-width="2" stroke-miterlimit="10"/>
<path d="M364.164 226.76L143.889 447.056" stroke="#9DDEFA" stroke-width="2" stroke-miterlimit="10"/>
<path d="M374.397 233.799L154.121 454.095" stroke="#9DDEFA" stroke-width="2" stroke-miterlimit="10"/>
<path d="M384.629 240.843L164.354 461.139" stroke="#9DDEFA" stroke-width="2" stroke-miterlimit="10"/>
</g>
<path d="M278.145 152.03H106.179V380.853H278.145V152.03Z" stroke="#054169" stroke-width="3" stroke-miterlimit="10"/>
<path d="M222.454 193.789H50.4883V422.611H222.454V193.789Z" fill="white" stroke="#054169" stroke-width="3" stroke-miterlimit="10"/>
<path d="M540.683 200.412H360.149V429.277H540.683V200.412Z" fill="white"/>
<path d="M540.684 425.604V429.277H537.012" stroke="#054169" stroke-width="5" stroke-miterlimit="10"/>
<path d="M530.69 429.277H366.979" stroke="#054169" stroke-width="5" stroke-miterlimit="10" stroke-dasharray="12.39 10.33"/>
<path d="M363.821 429.277H360.149V425.604" stroke="#054169" stroke-width="5" stroke-miterlimit="10"/>
<path d="M360.149 419.485V207.145" stroke="#054169" stroke-width="5" stroke-miterlimit="10" stroke-dasharray="12 10"/>
<path d="M360.149 204.084V200.412H363.821" stroke="#054169" stroke-width="5" stroke-miterlimit="10"/>
<path d="M370.144 200.412H533.854" stroke="#054169" stroke-width="5" stroke-miterlimit="10" stroke-dasharray="12.39 10.33"/>
<path d="M537.012 200.412H540.684V204.084" stroke="#054169" stroke-width="5" stroke-miterlimit="10"/>
<path d="M540.684 210.204V422.544" stroke="#054169" stroke-width="5" stroke-miterlimit="10" stroke-dasharray="12 10"/>
<path d="M753.041 200.412H572.507V429.277H753.041V200.412Z" fill="white"/>
<path d="M753.04 425.604V429.277H749.368" stroke="#054169" stroke-width="5" stroke-miterlimit="10"/>
<path d="M743.047 429.277H579.336" stroke="#054169" stroke-width="5" stroke-miterlimit="10" stroke-dasharray="12.39 10.33"/>
<path d="M576.179 429.277H572.507V425.604" stroke="#054169" stroke-width="5" stroke-miterlimit="10"/>
<path d="M572.507 419.485V207.145" stroke="#054169" stroke-width="5" stroke-miterlimit="10" stroke-dasharray="12 10"/>
<path d="M572.507 204.084V200.412H576.179" stroke="#054169" stroke-width="5" stroke-miterlimit="10"/>
<path d="M582.5 200.412H746.21" stroke="#054169" stroke-width="5" stroke-miterlimit="10" stroke-dasharray="12.39 10.33"/>
<path d="M749.368 200.412H753.04V204.084" stroke="#054169" stroke-width="5" stroke-miterlimit="10"/>
<path d="M753.04 210.204V422.544" stroke="#054169" stroke-width="5" stroke-miterlimit="10" stroke-dasharray="12 10"/>
<path d="M971.517 200.412H790.983V429.277H971.517V200.412Z" fill="white"/>
<path d="M971.517 425.604V429.277H967.845" stroke="#054169" stroke-width="5" stroke-miterlimit="10"/>
<path d="M961.523 429.277H797.812" stroke="#054169" stroke-width="5" stroke-miterlimit="10" stroke-dasharray="12.39 10.33"/>
<path d="M794.655 429.277H790.983V425.604" stroke="#054169" stroke-width="5" stroke-miterlimit="10"/>
<path d="M790.983 419.485V207.145" stroke="#054169" stroke-width="5" stroke-miterlimit="10" stroke-dasharray="12 10"/>
<path d="M790.983 204.084V200.412H794.655" stroke="#054169" stroke-width="5" stroke-miterlimit="10"/>
<path d="M800.977 200.412H964.687" stroke="#054169" stroke-width="5" stroke-miterlimit="10" stroke-dasharray="12.39 10.33"/>
<path d="M967.845 200.412H971.517V204.084" stroke="#054169" stroke-width="5" stroke-miterlimit="10"/>
<path d="M971.517 210.204V422.544" stroke="#054169" stroke-width="5" stroke-miterlimit="10" stroke-dasharray="12 10"/>
<path d="M152.688 498.094C163.842 498.094 172.884 489.051 172.884 477.896C172.884 466.742 163.842 457.699 152.688 457.699C141.535 457.699 132.493 466.742 132.493 477.896C132.493 489.051 141.535 498.094 152.688 498.094Z" fill="#054169" stroke="#054169" stroke-width="3" stroke-miterlimit="10"/>
<path d="M1063.93 497.893C1075.08 497.893 1084.12 488.85 1084.12 477.695C1084.12 466.541 1075.08 457.498 1063.93 457.498C1052.77 457.498 1043.73 466.541 1043.73 477.695C1043.73 488.85 1052.77 497.893 1063.93 497.893Z" fill="white" stroke="#054169" stroke-width="3" stroke-miterlimit="10"/>
<path d="M1008.24 469.126H208.379V487.487H1008.24V469.126Z" fill="#054169" stroke="#054169" stroke-width="3" stroke-miterlimit="10"/>
<path d="M68.8539 180.771C69.0865 177.326 70.1941 174.651 72.1525 172.76C74.5208 170.501 78.0887 169.437 82.7764 169.59L83.1436 164.032L96.0809 174.633L81.8707 183.415L82.2379 177.907C79.9755 177.724 77.6985 177.931 75.5061 178.519C73.713 179.122 72.0661 180.093 70.6715 181.371L68.707 182.999L68.8539 180.771Z" fill="#054169"/>
<path d="M267.539 137.317V117.511H280.727V119.109H269.412V126.27H279.626V127.867H269.412V135.744H281.003V137.341L267.539 137.317ZM272.135 115.945L275.195 112.113H277.312L273.555 115.945H272.135Z" fill="#054169"/>
<path d="M285.183 137.317V117.512H298.371V119.109H287.019V126.27H297.232V127.867H287.019V135.744H298.646V137.342L285.183 137.317Z" fill="#054169"/>
<path d="M303.542 131.392C303.596 132.174 303.804 132.937 304.154 133.638C304.447 134.221 304.865 134.733 305.378 135.138C305.898 135.533 306.494 135.818 307.128 135.976C307.819 136.157 308.531 136.245 309.245 136.239C310.021 136.255 310.794 136.144 311.534 135.909C312.113 135.724 312.647 135.419 313.101 135.015C313.495 134.653 313.801 134.205 313.994 133.706C314.191 133.207 314.291 132.675 314.288 132.139C314.318 131.474 314.133 130.818 313.762 130.266C313.401 129.777 312.934 129.375 312.397 129.091C311.787 128.77 311.139 128.525 310.469 128.363C309.747 128.179 309.001 128.001 308.242 127.824C307.483 127.646 306.736 127.445 306.008 127.212C305.32 126.991 304.67 126.667 304.08 126.251C303.516 125.839 303.052 125.306 302.722 124.69C302.345 123.946 302.164 123.118 302.195 122.285C302.195 121.601 302.341 120.925 302.624 120.302C302.915 119.646 303.347 119.063 303.891 118.594C304.507 118.064 305.223 117.661 305.996 117.407C306.937 117.098 307.924 116.949 308.915 116.966C309.912 116.947 310.905 117.107 311.846 117.438C312.631 117.713 313.348 118.156 313.945 118.735C314.485 119.268 314.902 119.911 315.169 120.62C315.446 121.351 315.585 122.128 315.579 122.909H313.792C313.809 122.234 313.671 121.564 313.388 120.951C313.141 120.421 312.77 119.959 312.305 119.604C311.834 119.25 311.301 118.988 310.732 118.833C310.135 118.665 309.517 118.58 308.896 118.582C308.075 118.561 307.256 118.696 306.485 118.98C305.897 119.206 305.367 119.559 304.931 120.014C304.559 120.415 304.287 120.897 304.135 121.422C303.988 121.923 303.959 122.451 304.05 122.964C304.131 123.549 304.402 124.091 304.821 124.507C305.255 124.91 305.759 125.232 306.308 125.455C306.936 125.715 307.585 125.919 308.248 126.067C308.958 126.222 309.68 126.388 310.414 126.563C311.134 126.729 311.845 126.934 312.544 127.175C313.203 127.398 313.823 127.724 314.38 128.142C314.92 128.556 315.357 129.087 315.659 129.697C316.003 130.442 316.169 131.257 316.142 132.078C316.186 132.891 316.037 133.704 315.706 134.449C315.375 135.193 314.872 135.849 314.239 136.362C312.97 137.37 311.189 137.874 308.896 137.874C307.928 137.881 306.963 137.747 306.032 137.476C305.196 137.227 304.42 136.81 303.75 136.252C303.102 135.703 302.588 135.014 302.244 134.238C301.871 133.345 301.689 132.384 301.712 131.417L303.542 131.392Z" fill="#054169"/>
<path d="M81.3936 541.262V521.456H88.6394C89.7152 521.425 90.7887 521.574 91.8156 521.897C92.5654 522.139 93.2456 522.559 93.7984 523.121C94.2787 523.62 94.6296 524.23 94.8204 524.896C95.0134 525.581 95.1102 526.289 95.108 527.001C95.1449 527.956 94.9115 528.902 94.4348 529.731C94.0003 530.43 93.3989 531.011 92.6846 531.42C91.9255 531.85 91.0971 532.144 90.2367 532.289C89.332 532.453 88.4144 532.535 87.495 532.534H83.254V541.298L81.3936 541.262ZM87.5623 530.906C88.3548 530.912 89.1467 530.857 89.9307 530.741C90.5577 530.66 91.1616 530.451 91.7054 530.129C92.1888 529.833 92.5808 529.41 92.8376 528.905C93.1264 528.261 93.2625 527.559 93.2354 526.854C93.2701 526.318 93.1773 525.781 92.9646 525.287C92.7518 524.794 92.4252 524.357 92.0114 524.014C91.1954 523.374 89.896 523.053 88.1131 523.053H83.2662V530.93L87.5623 530.906Z" fill="#054169"/>
<path d="M99.8086 541.262H98.1562V526.965H99.8086V529.639H99.8637C100.187 528.677 100.809 527.844 101.638 527.259C102.518 526.77 103.516 526.537 104.521 526.585V528.372C103.725 528.326 102.93 528.477 102.208 528.813C101.624 529.106 101.125 529.542 100.757 530.08C100.385 530.652 100.133 531.293 100.017 531.965C99.8749 532.716 99.8052 533.478 99.8086 534.242V541.262Z" fill="#054169"/>
<path d="M107.77 534.511C107.765 535.252 107.866 535.989 108.069 536.702C108.252 537.348 108.555 537.955 108.963 538.489C109.365 539.007 109.88 539.425 110.468 539.713C111.249 540.077 112.111 540.232 112.969 540.162C113.827 540.092 114.653 539.801 115.364 539.315C116.158 538.713 116.706 537.843 116.906 536.867H118.742C118.549 537.524 118.28 538.157 117.941 538.752C117.621 539.323 117.207 539.836 116.717 540.27C116.198 540.713 115.6 541.053 114.954 541.274C114.191 541.527 113.39 541.649 112.586 541.635C111.57 541.65 110.563 541.441 109.636 541.023C108.841 540.663 108.142 540.12 107.598 539.438C107.049 538.735 106.648 537.93 106.417 537.069C106.154 536.114 106.024 535.128 106.032 534.137C106.028 533.156 106.181 532.181 106.484 531.248C106.763 530.372 107.201 529.555 107.776 528.837C108.334 528.151 109.036 527.595 109.832 527.209C110.691 526.797 111.633 526.588 112.586 526.597C113.46 526.555 114.333 526.715 115.135 527.066C115.938 527.416 116.649 527.947 117.212 528.617C118.33 529.967 118.881 531.928 118.865 534.498L107.77 534.511ZM117.078 533.134C117.082 532.465 116.983 531.801 116.784 531.163C116.608 530.58 116.319 530.037 115.933 529.565C115.544 529.108 115.06 528.743 114.514 528.494C113.901 528.218 113.234 528.082 112.561 528.096C111.89 528.082 111.224 528.222 110.615 528.507C110.069 528.774 109.582 529.148 109.183 529.608C108.78 530.084 108.46 530.624 108.235 531.206C107.994 531.824 107.838 532.473 107.77 533.134H117.078ZM110.854 525.452L113.914 521.621H116.037L112.262 525.452H110.854Z" fill="#054169"/>
<path d="M123.008 536.8C123.14 537.807 123.634 538.732 124.397 539.401C125.25 539.957 126.258 540.224 127.274 540.16C127.806 540.171 128.337 540.097 128.847 539.94C129.245 539.81 129.613 539.602 129.93 539.328C130.202 539.097 130.423 538.811 130.578 538.489C130.725 538.179 130.8 537.841 130.799 537.498C130.821 537.203 130.771 536.907 130.654 536.635C130.536 536.363 130.355 536.124 130.126 535.937C129.614 535.57 129.039 535.3 128.43 535.141C127.706 534.935 126.97 534.77 126.227 534.646C125.474 534.519 124.735 534.314 124.024 534.034C123.374 533.777 122.793 533.37 122.329 532.846C121.847 532.229 121.607 531.456 121.656 530.674C121.64 530.117 121.75 529.564 121.977 529.056C122.203 528.547 122.541 528.096 122.965 527.736C124.011 526.924 125.316 526.519 126.637 526.597C127.967 526.537 129.281 526.897 130.395 527.626C131.362 528.319 131.945 529.472 132.145 531.084H130.468C130.446 530.627 130.322 530.181 130.105 529.778C129.888 529.376 129.583 529.027 129.214 528.758C128.432 528.282 127.527 528.048 126.613 528.085C125.759 528.023 124.911 528.261 124.214 528.758C123.947 528.968 123.733 529.239 123.59 529.547C123.446 529.855 123.377 530.193 123.388 530.533C123.373 530.815 123.426 531.096 123.543 531.353C123.66 531.61 123.838 531.835 124.061 532.008C124.576 532.376 125.149 532.655 125.756 532.834C126.435 533.042 127.17 533.232 127.959 533.397C128.717 533.551 129.456 533.787 130.162 534.101C130.81 534.38 131.389 534.798 131.857 535.325C132.337 535.935 132.577 536.699 132.531 537.473C132.543 538.103 132.391 538.725 132.09 539.279C131.79 539.805 131.371 540.254 130.866 540.589C130.305 540.955 129.683 541.22 129.03 541.372C128.268 541.552 127.487 541.64 126.705 541.635C125.94 541.647 125.179 541.521 124.459 541.262C123.84 541.033 123.274 540.681 122.794 540.227C122.336 539.79 121.97 539.266 121.717 538.685C121.457 538.085 121.307 537.442 121.276 536.788L123.008 536.8Z" fill="#054169"/>
<path d="M136.851 534.51C136.846 535.251 136.947 535.989 137.151 536.702C137.333 537.348 137.636 537.955 138.044 538.489C138.446 539.006 138.961 539.425 139.55 539.713C140.33 540.077 141.192 540.232 142.05 540.162C142.909 540.092 143.734 539.8 144.445 539.315C145.239 538.713 145.787 537.843 145.988 536.867H147.824C147.63 537.524 147.361 538.157 147.022 538.752C146.702 539.323 146.288 539.836 145.798 540.27C145.279 540.712 144.681 541.053 144.035 541.273C143.272 541.526 142.471 541.649 141.667 541.635C140.651 541.649 139.644 541.44 138.717 541.023C137.922 540.663 137.223 540.12 136.679 539.437C136.13 538.735 135.729 537.93 135.498 537.069C135.235 536.114 135.105 535.127 135.113 534.137C135.104 533.138 135.256 532.144 135.566 531.193C135.844 530.317 136.282 529.499 136.857 528.782C137.415 528.096 138.117 527.54 138.913 527.154C139.772 526.742 140.714 526.533 141.667 526.542C142.542 526.5 143.414 526.66 144.216 527.011C145.019 527.361 145.73 527.892 146.294 528.561C147.416 529.912 147.966 531.873 147.946 534.443L136.851 534.51ZM146.159 533.133C146.163 532.465 146.064 531.8 145.865 531.163C145.689 530.58 145.4 530.037 145.015 529.565C144.626 529.108 144.141 528.743 143.595 528.494C142.982 528.217 142.315 528.081 141.643 528.096C140.971 528.082 140.305 528.222 139.696 528.506C139.15 528.774 138.663 529.148 138.264 529.608C137.862 530.084 137.541 530.624 137.316 531.205C137.075 531.824 136.919 532.473 136.851 533.133H146.159Z" fill="#054169"/>
<path d="M152.793 541.261H151.159V526.964H152.812V528.953C153.411 528.309 154.089 527.743 154.831 527.27C155.602 526.813 156.487 526.584 157.383 526.609C158.221 526.599 159.052 526.753 159.831 527.062C160.611 527.386 161.275 527.939 161.734 528.647C162.061 529.117 162.271 529.659 162.346 530.226C162.411 530.789 162.443 531.355 162.444 531.922V541.261H160.792V531.952C160.867 530.915 160.562 529.886 159.935 529.057C159.368 528.417 158.423 528.097 157.101 528.097C156.622 528.088 156.145 528.167 155.694 528.329C155.284 528.475 154.899 528.681 154.55 528.941C154.22 529.191 153.929 529.488 153.687 529.822C153.453 530.143 153.268 530.495 153.136 530.869C152.977 531.295 152.874 531.739 152.83 532.191C152.793 532.599 152.775 533.058 152.775 533.568L152.793 541.261Z" fill="#054169"/>
<path d="M171.465 541.317C171.263 541.354 171 541.415 170.669 541.507C170.31 541.603 169.939 541.651 169.568 541.647C168.881 541.698 168.203 541.479 167.677 541.035C167.248 540.625 167.034 539.885 167.034 538.82V528.366H165.021V526.965H167.034V523.005H168.686V526.965H171.355V528.342H168.686V538.134C168.686 538.483 168.686 538.789 168.686 539.046C168.697 539.26 168.754 539.468 168.852 539.658C168.945 539.827 169.098 539.955 169.28 540.019C169.543 540.103 169.818 540.141 170.094 540.13C170.32 540.13 170.545 540.109 170.767 540.068C170.994 540.036 171.218 539.991 171.44 539.934L171.465 541.317Z" fill="#054169"/>
<path d="M180.663 532.944C180.975 532.908 181.349 532.852 181.777 532.779C182.144 532.724 182.502 532.622 182.842 532.473C182.973 532.414 183.088 532.325 183.176 532.212C183.265 532.099 183.324 531.966 183.35 531.824C183.41 531.549 183.443 531.268 183.448 530.986C183.46 530.602 183.394 530.22 183.254 529.862C183.114 529.504 182.903 529.179 182.634 528.905C182.089 528.366 181.177 528.097 179.892 528.097C179.366 528.093 178.841 528.142 178.325 528.244C177.876 528.333 177.449 528.512 177.071 528.77C176.701 529.025 176.399 529.365 176.19 529.762C175.937 530.245 175.783 530.773 175.737 531.316H174.054C174.085 530.562 174.283 529.824 174.635 529.156C174.946 528.578 175.383 528.078 175.914 527.693C176.469 527.304 177.092 527.024 177.75 526.867C178.467 526.692 179.203 526.606 179.941 526.61C180.621 526.603 181.3 526.682 181.96 526.842C182.548 526.979 183.103 527.228 183.594 527.577C184.074 527.928 184.453 528.399 184.696 528.942C184.983 529.601 185.121 530.316 185.1 531.035V538.801C185.1 539.414 185.21 539.854 185.443 540.026C185.675 540.197 186.134 540.16 186.832 539.903V541.201L186.269 541.366C186.032 541.433 185.787 541.468 185.541 541.47C185.29 541.472 185.039 541.445 184.794 541.39C184.552 541.37 184.322 541.278 184.133 541.127C183.967 540.992 183.831 540.823 183.735 540.631C183.632 540.44 183.562 540.234 183.527 540.019C183.49 539.778 183.471 539.535 183.472 539.291C182.809 540.045 181.992 540.647 181.075 541.056C180.158 541.465 179.164 541.671 178.16 541.66C177.55 541.661 176.942 541.576 176.355 541.409C175.799 541.256 175.279 540.994 174.825 540.638C174.388 540.292 174.031 539.855 173.778 539.358C173.504 538.786 173.372 538.156 173.393 537.522C173.393 535.099 175.055 533.671 178.38 533.238L180.663 532.944ZM183.448 533.771C182.769 534.058 182.055 534.251 181.324 534.346C180.606 534.44 179.89 534.513 179.176 534.566C178.131 534.592 177.111 534.887 176.214 535.423C175.865 535.663 175.583 535.989 175.398 536.37C175.212 536.75 175.129 537.173 175.155 537.596C175.144 537.993 175.235 538.387 175.418 538.74C175.585 539.053 175.819 539.325 176.104 539.536C176.402 539.753 176.738 539.913 177.095 540.007C177.469 540.106 177.853 540.158 178.24 540.16C178.89 540.16 179.538 540.076 180.167 539.909C180.763 539.758 181.327 539.501 181.832 539.15C182.309 538.813 182.702 538.371 182.983 537.859C183.284 537.294 183.435 536.662 183.423 536.023L183.448 533.771Z" fill="#054169"/>
<path d="M194.432 541.317C194.23 541.354 193.967 541.415 193.637 541.507C193.277 541.603 192.907 541.651 192.535 541.647C191.849 541.698 191.17 541.479 190.644 541.035C190.216 540.625 190.032 539.885 190.032 538.82V528.366H188.019V526.965H190.032V523.005H191.684V526.965H194.353V528.342H191.684V538.134C191.684 538.483 191.684 538.789 191.684 539.046C191.696 539.26 191.752 539.468 191.85 539.658C191.943 539.827 192.096 539.955 192.278 540.019C192.541 540.103 192.816 540.141 193.092 540.13C193.318 540.13 193.543 540.109 193.765 540.068C193.992 540.036 194.216 539.991 194.438 539.934L194.432 541.317Z" fill="#054169"/>
<path d="M197.241 523.904V521.456H199.077V523.904H197.241ZM197.327 541.286V526.964H198.979V541.237L197.327 541.286Z" fill="#054169"/>
<path d="M208.863 541.653C207.982 541.641 207.109 541.474 206.287 541.157C205.494 540.846 204.78 540.366 204.194 539.75C203.568 539.074 203.087 538.279 202.78 537.412C202.411 536.358 202.233 535.247 202.254 534.131C202.247 533.139 202.387 532.151 202.67 531.199C202.918 530.333 203.334 529.524 203.894 528.819C204.454 528.133 205.161 527.58 205.962 527.203C206.867 526.786 207.854 526.576 208.851 526.591C209.857 526.574 210.855 526.783 211.77 527.203C212.568 527.578 213.274 528.123 213.838 528.8C214.402 529.504 214.818 530.314 215.062 531.181C215.332 532.141 215.466 533.134 215.46 534.131C215.473 535.17 215.315 536.203 214.995 537.191C214.71 538.062 214.254 538.867 213.655 539.56C213.08 540.219 212.365 540.742 211.562 541.09C210.711 541.462 209.792 541.653 208.863 541.653ZM213.71 534.131C213.715 533.333 213.623 532.538 213.434 531.762C213.273 531.076 212.984 530.427 212.584 529.847C212.198 529.307 211.688 528.868 211.097 528.568C210.4 528.237 209.634 528.078 208.863 528.102C208.093 528.078 207.33 528.253 206.648 528.61C206.048 528.934 205.534 529.395 205.148 529.957C204.751 530.544 204.461 531.197 204.292 531.885C204.107 532.619 204.015 533.374 204.016 534.131C204.006 534.958 204.113 535.782 204.334 536.579C204.518 537.271 204.832 537.921 205.258 538.495C205.658 539.017 206.176 539.437 206.77 539.719C207.425 540.023 208.141 540.174 208.863 540.16C209.633 540.182 210.397 540.005 211.078 539.645C211.683 539.321 212.199 538.855 212.584 538.287C212.977 537.698 213.265 537.046 213.434 536.359C213.62 535.629 213.712 534.878 213.71 534.125V534.131Z" fill="#054169"/>
<path d="M220.153 541.261H218.477V526.964H220.129V528.953C220.736 528.298 221.425 527.724 222.179 527.246C222.95 526.789 223.835 526.56 224.731 526.585C225.569 526.575 226.4 526.729 227.179 527.038C227.959 527.361 228.623 527.914 229.082 528.623C229.409 529.093 229.619 529.634 229.694 530.202C229.758 530.765 229.791 531.331 229.792 531.897V541.237H228.14V531.952C228.215 530.915 227.91 529.887 227.283 529.057C226.712 528.417 225.767 528.097 224.449 528.097C223.97 528.089 223.493 528.167 223.042 528.329C222.632 528.475 222.247 528.682 221.898 528.941C221.568 529.191 221.277 529.488 221.035 529.823C220.801 530.143 220.616 530.495 220.484 530.869C220.325 531.295 220.222 531.739 220.178 532.191C220.141 532.599 220.123 533.058 220.123 533.568L220.153 541.261Z" fill="#054169"/>
<path d="M1011.71 537.589V517.783H1018.48C1019.03 517.783 1019.57 517.783 1020.1 517.82C1020.63 517.848 1021.16 517.913 1021.68 518.016C1022.19 518.115 1022.69 518.267 1023.17 518.469C1023.68 518.681 1024.15 518.948 1024.59 519.264C1025.24 519.736 1025.8 520.331 1026.22 521.015C1026.64 521.698 1026.97 522.43 1027.22 523.194C1027.47 523.947 1027.64 524.721 1027.75 525.507C1027.84 526.223 1027.89 526.945 1027.9 527.668C1027.9 528.341 1027.86 529.013 1027.77 529.681C1027.69 530.356 1027.56 531.023 1027.37 531.676C1027.19 532.322 1026.95 532.949 1026.64 533.549C1026.34 534.145 1025.95 534.697 1025.5 535.19C1025.07 535.675 1024.56 536.088 1024 536.414C1023.46 536.724 1022.89 536.968 1022.29 537.142C1021.69 537.318 1021.08 537.438 1020.46 537.503C1019.85 537.564 1019.17 537.601 1018.51 537.601L1011.71 537.589ZM1013.58 535.991H1018.06C1018.86 535.992 1019.66 535.941 1020.45 535.838C1021.25 535.718 1022.01 535.461 1022.72 535.079C1023.36 534.766 1023.92 534.305 1024.34 533.733C1024.76 533.172 1025.1 532.553 1025.35 531.897C1025.6 531.216 1025.77 530.51 1025.87 529.791C1025.97 529.088 1026.02 528.378 1026.03 527.668C1026.02 526.935 1025.98 526.203 1025.89 525.477C1025.8 524.752 1025.62 524.041 1025.37 523.359C1025.11 522.698 1024.76 522.079 1024.32 521.523C1023.85 520.945 1023.27 520.471 1022.61 520.133C1021.96 519.8 1021.25 519.592 1020.52 519.521C1019.71 519.431 1018.89 519.386 1018.07 519.387H1013.58L1013.58 535.991Z" fill="#054169"/>
<path d="M1033.16 530.839C1033.15 531.58 1033.26 532.318 1033.46 533.03C1033.64 533.678 1033.95 534.284 1034.36 534.817C1034.75 535.335 1035.27 535.754 1035.85 536.041C1036.64 536.404 1037.5 536.558 1038.36 536.488C1039.21 536.419 1040.04 536.127 1040.75 535.643C1041.54 535.041 1042.09 534.171 1042.29 533.195H1044.13C1043.94 533.852 1043.67 534.485 1043.33 535.08C1043.01 535.651 1042.6 536.164 1042.11 536.598C1041.59 537.041 1040.99 537.381 1040.35 537.602C1039.58 537.855 1038.78 537.977 1037.98 537.963C1036.96 537.978 1035.96 537.769 1035.03 537.351C1034.24 536.991 1033.54 536.448 1033 535.766C1032.45 535.064 1032.04 534.258 1031.81 533.397C1031.55 532.442 1031.42 531.456 1031.42 530.465C1031.42 529.466 1031.57 528.472 1031.88 527.521C1032.16 526.645 1032.6 525.827 1033.17 525.11C1033.73 524.423 1034.43 523.867 1035.22 523.482C1036.08 523.07 1037.03 522.861 1037.98 522.87C1038.85 522.828 1039.73 522.988 1040.53 523.339C1041.33 523.689 1042.04 524.22 1042.61 524.89C1043.73 526.24 1044.28 528.201 1044.26 530.771L1033.16 530.839ZM1042.46 529.462C1042.47 528.794 1042.37 528.13 1042.18 527.491C1042 526.907 1041.71 526.365 1041.32 525.893C1040.93 525.435 1040.45 525.069 1039.91 524.822C1039.29 524.546 1038.62 524.41 1037.95 524.425C1037.28 524.409 1036.61 524.55 1036.01 524.835C1035.46 525.099 1034.97 525.474 1034.58 525.936C1034.17 526.411 1033.85 526.951 1033.63 527.534C1033.38 528.152 1033.23 528.801 1033.16 529.462H1042.46ZM1036.24 521.781L1039.3 517.949H1041.42L1037.65 521.781H1036.24Z" fill="#054169"/>
<path d="M1058.36 527.809C1058.12 526.841 1057.59 525.97 1056.84 525.318C1056.07 524.701 1055.1 524.384 1054.12 524.424C1053.36 524.401 1052.61 524.581 1051.94 524.944C1051.34 525.286 1050.83 525.761 1050.45 526.334C1050.06 526.933 1049.77 527.596 1049.6 528.292C1049.42 529.008 1049.33 529.744 1049.32 530.483C1049.32 531.225 1049.41 531.965 1049.58 532.687C1049.75 533.374 1050.03 534.027 1050.43 534.615C1050.81 535.179 1051.32 535.645 1051.91 535.973C1052.59 536.333 1053.35 536.51 1054.12 536.487C1055.2 536.539 1056.26 536.173 1057.07 535.465C1057.85 534.719 1058.35 533.727 1058.49 532.656H1060.25C1060.12 533.406 1059.89 534.133 1059.55 534.817C1059.25 535.448 1058.83 536.018 1058.33 536.5C1057.8 536.978 1057.19 537.348 1056.52 537.589C1054.77 538.164 1052.88 538.094 1051.18 537.393C1050.38 537.034 1049.69 536.49 1049.14 535.808C1048.59 535.102 1048.19 534.292 1047.96 533.427C1047.7 532.468 1047.57 531.478 1047.57 530.483C1047.57 529.517 1047.71 528.555 1048 527.631C1048.25 526.76 1048.67 525.942 1049.22 525.22C1049.77 524.521 1050.47 523.952 1051.27 523.555C1052.15 523.13 1053.12 522.92 1054.1 522.943C1055.53 522.874 1056.94 523.29 1058.1 524.124C1059.19 525.052 1059.88 526.37 1060.02 527.796L1058.36 527.809Z" fill="#054169"/>
<path d="M1064.53 520.231V517.783H1066.36V520.231H1064.53ZM1064.6 537.613V523.292H1066.26V537.564L1064.6 537.613Z" fill="#054169"/>
<path d="M1072.24 533.127C1072.37 534.134 1072.86 535.059 1073.63 535.729C1074.48 536.285 1075.49 536.551 1076.5 536.487C1077.03 536.498 1077.57 536.424 1078.07 536.267C1078.47 536.137 1078.84 535.929 1079.16 535.655C1079.43 535.424 1079.65 535.138 1079.81 534.817C1079.95 534.507 1080.03 534.168 1080.03 533.825C1080.05 533.53 1080 533.234 1079.88 532.962C1079.76 532.69 1079.58 532.451 1079.35 532.264C1078.84 531.897 1078.27 531.628 1077.66 531.469C1076.93 531.263 1076.2 531.097 1075.46 530.973C1074.7 530.846 1073.96 530.641 1073.25 530.361C1072.6 530.104 1072.02 529.697 1071.56 529.174C1071.07 528.556 1070.84 527.783 1070.88 527.001C1070.87 526.444 1070.98 525.891 1071.2 525.383C1071.43 524.875 1071.77 524.424 1072.19 524.063C1073.24 523.251 1074.54 522.846 1075.87 522.925C1077.19 522.864 1078.51 523.224 1079.62 523.953C1080.59 524.646 1081.17 525.799 1081.37 527.411H1079.7C1079.68 526.957 1079.56 526.512 1079.35 526.11C1079.14 525.708 1078.84 525.358 1078.47 525.085C1077.69 524.609 1076.79 524.375 1075.87 524.412C1075.02 524.35 1074.17 524.588 1073.47 525.085C1073.21 525.296 1072.99 525.566 1072.85 525.874C1072.7 526.182 1072.64 526.52 1072.65 526.86C1072.63 527.142 1072.68 527.423 1072.8 527.68C1072.92 527.937 1073.1 528.162 1073.32 528.335C1073.83 528.703 1074.41 528.982 1075.01 529.161C1075.69 529.369 1076.43 529.559 1077.22 529.724C1077.98 529.878 1078.71 530.114 1079.42 530.428C1080.07 530.707 1080.65 531.125 1081.12 531.652C1081.6 532.262 1081.84 533.026 1081.79 533.801C1081.8 534.43 1081.65 535.053 1081.35 535.606C1081.05 536.133 1080.63 536.581 1080.12 536.916C1079.56 537.283 1078.94 537.548 1078.29 537.699C1077.53 537.879 1076.75 537.967 1075.96 537.962C1075.2 537.974 1074.44 537.848 1073.72 537.589C1073.1 537.362 1072.53 537.01 1072.05 536.555C1071.6 536.117 1071.23 535.593 1070.98 535.012C1070.72 534.412 1070.57 533.769 1070.54 533.115L1072.24 533.127Z" fill="#054169"/>
<path d="M1086.01 520.231V517.783H1087.84V520.231H1086.01ZM1086.09 537.613V523.292H1087.74V537.564L1086.09 537.613Z" fill="#054169"/>
<path d="M1098.42 537.981C1097.54 537.97 1096.67 537.802 1095.85 537.485C1095.06 537.175 1094.34 536.694 1093.75 536.078C1093.13 535.403 1092.64 534.608 1092.33 533.74C1091.97 532.686 1091.79 531.575 1091.81 530.459C1091.81 529.467 1091.94 528.479 1092.22 527.528C1092.48 526.663 1092.89 525.854 1093.45 525.147C1094.01 524.461 1094.71 523.909 1095.51 523.531C1096.43 523.143 1097.42 522.943 1098.42 522.943C1099.42 522.943 1100.4 523.143 1101.32 523.531C1102.13 523.903 1102.83 524.449 1103.4 525.128C1103.97 525.83 1104.38 526.641 1104.62 527.509C1104.89 528.469 1105.03 529.462 1105.02 530.459C1105.03 531.498 1104.87 532.532 1104.55 533.519C1104.27 534.39 1103.81 535.195 1103.22 535.888C1102.64 536.548 1101.93 537.071 1101.12 537.418C1100.27 537.79 1099.35 537.982 1098.42 537.981ZM1103.27 530.459C1103.28 529.661 1103.18 528.866 1103 528.091C1102.83 527.406 1102.54 526.756 1102.14 526.175C1101.76 525.636 1101.24 525.198 1100.65 524.896C1099.96 524.564 1099.19 524.405 1098.42 524.431C1097.65 524.406 1096.89 524.581 1096.21 524.939C1095.61 525.262 1095.09 525.724 1094.7 526.285C1094.31 526.874 1094.02 527.526 1093.85 528.213C1093.67 528.948 1093.58 529.702 1093.58 530.459C1093.57 531.286 1093.67 532.111 1093.9 532.907C1094.08 533.598 1094.39 534.249 1094.81 534.823C1095.22 535.346 1095.74 535.765 1096.33 536.047C1096.99 536.352 1097.7 536.502 1098.42 536.488C1099.19 536.51 1099.96 536.333 1100.64 535.974C1101.24 535.648 1101.76 535.182 1102.14 534.615C1102.54 534.025 1102.82 533.373 1103 532.687C1103.18 531.957 1103.27 531.206 1103.27 530.453V530.459Z" fill="#054169"/>
<path d="M1110.52 537.59H1108.86V523.293H1110.52V525.282C1111.12 524.625 1111.81 524.051 1112.57 523.574C1113.33 523.116 1114.22 522.887 1115.11 522.913C1115.95 522.903 1116.78 523.057 1117.56 523.366C1118.34 523.688 1119.01 524.241 1119.46 524.951C1119.79 525.42 1120 525.962 1120.08 526.53C1120.14 527.093 1120.18 527.659 1120.17 528.226V537.565H1118.52V528.281C1118.6 527.244 1118.29 526.215 1117.66 525.386C1117.1 524.745 1116.15 524.425 1114.83 524.425C1114.35 524.417 1113.87 524.496 1113.42 524.657C1113.01 524.803 1112.63 525.009 1112.28 525.269C1111.63 525.758 1111.14 526.429 1110.86 527.197C1110.71 527.623 1110.6 528.067 1110.56 528.519C1110.52 528.942 1110.51 529.401 1110.51 529.896L1110.52 537.59Z" fill="#054169"/>
<path d="M821.319 314.195L829.11 294.39H831.233L838.834 314.22H836.907L834.618 307.995H825.56L823.223 314.22L821.319 314.195ZM826.215 306.373H833.981L830.095 295.969L826.215 306.373Z" fill="#054169"/>
<path d="M851.723 299.929H853.375V314.195H851.723V312.212C851.503 312.469 851.252 312.733 850.976 313.008C850.688 313.294 850.37 313.549 850.028 313.767C849.645 314.009 849.234 314.202 848.804 314.342C848.269 314.51 847.711 314.59 847.151 314.581C846.335 314.605 845.522 314.468 844.759 314.177C844.155 313.942 843.621 313.559 843.204 313.063C842.803 312.575 842.511 312.008 842.347 311.398C842.168 310.719 842.08 310.02 842.084 309.317V299.929H843.736V309.293C843.669 310.306 843.973 311.31 844.593 312.114C845.162 312.763 846.099 313.094 847.402 313.094C848.037 313.105 848.666 312.967 849.238 312.69C849.775 312.431 850.242 312.05 850.603 311.576C850.987 311.062 851.275 310.484 851.454 309.868C851.663 309.163 851.766 308.431 851.76 307.695L851.723 299.929Z" fill="#054169"/>
<path d="M869.183 294.39H870.835V314.22H869.183V311.71H869.128C868.893 312.178 868.581 312.602 868.204 312.965C867.837 313.316 867.426 313.617 866.98 313.859C866.537 314.094 866.068 314.278 865.584 314.409C865.128 314.536 864.657 314.602 864.183 314.605C863.166 314.624 862.158 314.415 861.233 313.993C860.453 313.628 859.77 313.085 859.238 312.408C858.697 311.701 858.308 310.891 858.094 310.027C857.85 309.065 857.731 308.076 857.739 307.083C857.735 306.115 857.865 305.152 858.124 304.219C858.358 303.349 858.755 302.53 859.293 301.808C859.821 301.114 860.499 300.549 861.276 300.155C862.153 299.726 863.121 299.516 864.097 299.543C865.105 299.54 866.1 299.77 867.004 300.216C867.916 300.649 868.679 301.343 869.195 302.211L869.183 294.39ZM869.183 307.028C869.187 306.249 869.075 305.474 868.852 304.727C868.651 304.043 868.33 303.401 867.904 302.83C867.497 302.293 866.979 301.851 866.386 301.532C865.761 301.207 865.065 301.043 864.36 301.055C863.587 301.032 862.82 301.207 862.133 301.563C861.514 301.895 860.985 302.372 860.59 302.952C860.172 303.575 859.873 304.27 859.709 305.002C859.522 305.829 859.448 306.677 859.489 307.524C859.473 308.333 859.6 309.139 859.862 309.905C860.082 310.552 860.432 311.148 860.89 311.655C861.321 312.124 861.847 312.496 862.433 312.745C863.044 312.996 863.699 313.123 864.36 313.118C865.078 313.129 865.787 312.968 866.429 312.647C867.024 312.342 867.541 311.904 867.94 311.368C868.364 310.787 868.677 310.133 868.865 309.44C869.085 308.647 869.192 307.827 869.183 307.004V307.028Z" fill="#054169"/>
<path d="M875.957 296.838V294.39H877.793V296.838H875.957ZM876.037 314.22V299.929H877.689V314.195L876.037 314.22Z" fill="#054169"/>
<path d="M883.698 307.445C883.693 308.186 883.794 308.924 883.998 309.636C884.18 310.284 884.486 310.891 884.898 311.423C885.296 311.942 885.81 312.361 886.397 312.647C887.178 313.012 888.039 313.167 888.898 313.097C889.756 313.027 890.582 312.735 891.293 312.25C892.087 311.647 892.635 310.777 892.835 309.802H894.671C894.478 310.459 894.209 311.091 893.869 311.687C893.55 312.258 893.136 312.771 892.645 313.204C892.126 313.647 891.528 313.988 890.883 314.208C890.119 314.461 889.319 314.583 888.515 314.569C887.498 314.584 886.491 314.375 885.565 313.957C884.77 313.598 884.071 313.054 883.527 312.372C882.978 311.67 882.576 310.864 882.346 310.003C882.082 309.049 881.953 308.062 881.96 307.072C881.954 306.073 882.107 305.079 882.413 304.128C882.692 303.259 883.128 302.447 883.698 301.735C884.253 301.048 884.953 300.492 885.748 300.107C886.608 299.695 887.55 299.486 888.502 299.495C889.377 299.453 890.249 299.613 891.052 299.964C891.854 300.314 892.565 300.845 893.129 301.515C894.247 302.865 894.798 304.826 894.781 307.396L883.698 307.445ZM893.006 306.068C893.01 305.4 892.913 304.736 892.719 304.097C892.538 303.515 892.247 302.973 891.862 302.5C891.474 302.042 890.989 301.676 890.442 301.429C889.829 301.152 889.162 301.016 888.49 301.031C887.82 301.016 887.156 301.156 886.55 301.441C886.002 301.705 885.514 302.08 885.118 302.543C884.712 303.017 884.389 303.557 884.163 304.14C883.923 304.759 883.766 305.407 883.698 306.068H893.006Z" fill="#054169"/>
<path d="M900.467 314.196H898.814V299.93H900.467V301.913C901.074 301.258 901.763 300.684 902.517 300.205C903.286 299.747 904.169 299.518 905.063 299.544C905.9 299.535 906.732 299.689 907.511 299.997C908.289 300.321 908.951 300.874 909.408 301.582C909.735 302.052 909.945 302.594 910.02 303.161C910.082 303.724 910.113 304.29 910.112 304.856V314.196H908.459V304.887C908.536 303.851 908.234 302.822 907.609 301.992C907.042 301.352 906.095 301.031 904.769 301.031C904.292 301.023 903.817 301.102 903.368 301.264C902.958 301.41 902.572 301.616 902.223 301.876C901.57 302.364 901.076 303.035 900.803 303.804C900.647 304.23 900.546 304.674 900.504 305.126C900.467 305.534 900.448 305.993 900.448 306.503L900.467 314.196Z" fill="#054169"/>
<path d="M925.031 304.415C924.797 303.447 924.267 302.576 923.514 301.924C922.744 301.307 921.776 300.99 920.79 301.03C920.031 301.007 919.279 301.187 918.612 301.551C918.015 301.892 917.506 302.368 917.125 302.94C916.731 303.539 916.444 304.202 916.274 304.898C916.091 305.614 915.999 306.351 915.999 307.09C915.996 307.832 916.085 308.572 916.262 309.293C916.422 309.981 916.706 310.634 917.1 311.221C917.481 311.785 917.991 312.251 918.587 312.579C919.265 312.939 920.024 313.117 920.79 313.094C921.872 313.145 922.932 312.779 923.752 312.072C924.529 311.323 925.028 310.332 925.166 309.262H926.929C926.795 310.011 926.561 310.738 926.231 311.423C925.927 312.053 925.512 312.623 925.007 313.106C924.473 313.587 923.849 313.958 923.171 314.195C921.424 314.77 919.529 314.7 917.828 313.999C917.033 313.64 916.335 313.097 915.791 312.414C915.24 311.708 914.839 310.899 914.609 310.033C914.347 309.074 914.217 308.084 914.224 307.09C914.219 306.122 914.363 305.16 914.652 304.237C914.907 303.365 915.322 302.547 915.876 301.826C916.429 301.125 917.132 300.557 917.932 300.161C918.811 299.735 919.778 299.525 920.754 299.549C922.185 299.481 923.597 299.897 924.762 300.73C925.852 301.66 926.537 302.977 926.672 304.403L925.031 304.415Z" fill="#054169"/>
<path d="M932.045 307.445C932.042 308.186 932.145 308.924 932.351 309.636C932.531 310.284 932.834 310.891 933.244 311.423C933.644 311.94 934.157 312.359 934.744 312.647C935.524 313.01 936.386 313.165 937.244 313.095C938.102 313.025 938.927 312.734 939.639 312.25C940.433 311.647 940.981 310.777 941.182 309.802H943.018C942.826 310.459 942.559 311.091 942.222 311.687C941.902 312.258 941.488 312.771 940.998 313.204C940.479 313.647 939.881 313.988 939.235 314.208C938.472 314.461 937.671 314.583 936.867 314.569C935.853 314.584 934.848 314.375 933.923 313.957C933.128 313.598 932.43 313.054 931.886 312.372C931.335 311.67 930.931 310.865 930.698 310.003C930.435 309.049 930.305 308.062 930.313 307.072C930.306 306.072 930.461 305.078 930.772 304.128C931.044 303.258 931.476 302.447 932.045 301.735C932.6 301.048 933.3 300.492 934.095 300.107C934.954 299.695 935.896 299.486 936.849 299.495C937.723 299.453 938.596 299.613 939.398 299.964C940.201 300.314 940.911 300.845 941.475 301.515C942.593 302.865 943.144 304.826 943.128 307.396L932.045 307.445ZM941.353 306.068C941.356 305.4 941.259 304.736 941.065 304.097C940.889 303.514 940.6 302.972 940.215 302.5C939.826 302.043 939.341 301.677 938.795 301.429C938.18 301.152 937.511 301.016 936.836 301.031C936.167 301.016 935.503 301.156 934.897 301.441C934.348 301.705 933.86 302.08 933.464 302.543C933.06 303.017 932.739 303.558 932.516 304.14C932.273 304.759 932.115 305.407 932.045 306.068H941.353Z" fill="#054169"/>
<path d="M848.815 337.355C848.813 335.973 849.019 334.599 849.427 333.279C849.792 332.071 850.386 330.944 851.178 329.962C851.954 329.01 852.932 328.243 854.042 327.715C855.273 327.144 856.619 326.861 857.977 326.889C859.375 326.858 860.762 327.136 862.04 327.703C863.17 328.214 864.169 328.976 864.959 329.931C865.762 330.915 866.362 332.049 866.722 333.267C867.132 334.59 867.339 335.969 867.334 337.355C867.339 338.723 867.132 340.083 866.722 341.388C866.358 342.593 865.764 343.715 864.972 344.693C864.19 345.65 863.203 346.418 862.083 346.939C860.813 347.485 859.445 347.766 858.062 347.766C856.68 347.766 855.312 347.485 854.042 346.939C852.92 346.418 851.931 345.65 851.147 344.693C850.359 343.716 849.77 342.593 849.415 341.388C849.015 340.081 848.813 338.722 848.815 337.355ZM858.069 346.168C859.219 346.198 860.359 345.948 861.392 345.44C862.29 344.976 863.071 344.312 863.674 343.5C864.291 342.657 864.739 341.703 864.996 340.691C865.286 339.602 865.43 338.481 865.425 337.355C865.441 336.102 865.27 334.854 864.917 333.652C864.614 332.632 864.113 331.681 863.442 330.855C862.809 330.092 862.006 329.489 861.098 329.092C860.131 328.678 859.089 328.47 858.038 328.48C856.897 328.452 855.768 328.709 854.752 329.227C853.85 329.7 853.067 330.372 852.463 331.192C851.853 332.045 851.405 333.004 851.141 334.019C850.855 335.106 850.71 336.225 850.713 337.349C850.709 338.483 850.853 339.612 851.141 340.709C851.403 341.719 851.851 342.672 852.463 343.518C853.065 344.33 853.849 344.99 854.752 345.446C855.788 345.95 856.929 346.197 858.081 346.168H858.069Z" fill="#054169"/>
<path d="M873.295 347.245H871.643V332.979H873.295V335.647H873.35C873.674 334.685 874.295 333.851 875.125 333.266C876.002 332.778 876.998 332.545 878.001 332.593V334.38C877.205 334.334 876.411 334.485 875.688 334.821C875.106 335.114 874.609 335.55 874.243 336.088C873.871 336.659 873.619 337.301 873.503 337.973C873.361 338.724 873.292 339.486 873.295 340.25V347.245Z" fill="#054169"/>
<path d="M888.098 338.929C888.408 338.892 888.782 338.837 889.218 338.763C889.583 338.708 889.939 338.605 890.277 338.457C890.408 338.399 890.523 338.309 890.612 338.196C890.7 338.083 890.76 337.95 890.785 337.809C890.848 337.534 890.881 337.252 890.883 336.97C890.895 336.586 890.829 336.204 890.689 335.846C890.549 335.489 890.338 335.163 890.069 334.889C889.53 334.351 888.613 334.081 887.327 334.081C886.802 334.077 886.277 334.127 885.761 334.228C885.322 334.323 884.907 334.501 884.537 334.755C884.17 335.012 883.869 335.352 883.655 335.746C883.406 336.23 883.252 336.758 883.203 337.301H881.52C881.551 336.546 881.749 335.808 882.101 335.14C882.414 334.564 882.851 334.064 883.38 333.677C883.936 333.291 884.558 333.011 885.216 332.851C885.933 332.677 886.669 332.59 887.407 332.594C888.089 332.588 888.769 332.666 889.433 332.827C890.01 332.968 890.556 333.217 891.042 333.561C891.518 333.916 891.897 334.386 892.144 334.926C892.426 335.587 892.562 336.301 892.541 337.019V344.786C892.541 345.398 892.658 345.839 892.884 346.01C893.111 346.181 893.576 346.145 894.273 345.888V347.185L893.71 347.35C893.474 347.422 893.229 347.459 892.982 347.461C892.731 347.46 892.48 347.432 892.235 347.375C891.994 347.354 891.764 347.263 891.574 347.112C891.41 346.975 891.274 346.806 891.177 346.616C891.074 346.425 891.004 346.218 890.969 346.004C890.931 345.763 890.913 345.519 890.914 345.276C890.248 346.024 889.433 346.624 888.521 347.038C887.602 347.448 886.607 347.657 885.602 347.65C884.991 347.651 884.383 347.567 883.796 347.399C883.241 347.245 882.721 346.983 882.266 346.628C881.829 346.282 881.472 345.846 881.22 345.349C880.946 344.777 880.813 344.147 880.834 343.513C880.834 341.089 882.497 339.661 885.822 339.229L888.098 338.929ZM890.883 339.755C890.204 340.042 889.49 340.236 888.759 340.33C888.041 340.424 887.325 340.498 886.611 340.551C885.568 340.575 884.55 340.871 883.655 341.407C883.305 341.646 883.022 341.972 882.836 342.353C882.649 342.734 882.565 343.157 882.591 343.58C882.58 343.978 882.67 344.372 882.854 344.725C883.023 345.038 883.259 345.309 883.545 345.52C883.842 345.74 884.179 345.9 884.537 345.992C884.908 346.091 885.291 346.143 885.675 346.145C886.326 346.145 886.974 346.061 887.603 345.894C888.2 345.742 888.766 345.485 889.273 345.135C889.756 344.798 890.156 344.357 890.442 343.843C890.743 343.279 890.895 342.647 890.883 342.007V339.755Z" fill="#054169"/>
<path d="M897.902 347.246V327.44H899.555V347.27L897.902 347.246Z" fill="#054169"/>
<path d="M905.589 340.495C905.584 341.236 905.685 341.974 905.889 342.686C906.071 343.333 906.374 343.939 906.782 344.473C907.184 344.991 907.699 345.41 908.288 345.697C909.068 346.061 909.93 346.216 910.788 346.146C911.647 346.077 912.472 345.785 913.184 345.299C913.977 344.697 914.525 343.827 914.726 342.851H916.562C916.369 343.509 916.1 344.141 915.76 344.736C915.44 345.307 915.026 345.82 914.536 346.254C914.017 346.697 913.419 347.037 912.774 347.258C912.01 347.511 911.209 347.633 910.405 347.619C909.389 347.634 908.382 347.425 907.455 347.007C906.66 346.647 905.962 346.104 905.418 345.422C904.869 344.72 904.467 343.914 904.237 343.053C903.973 342.098 903.843 341.112 903.851 340.121C903.842 339.122 903.995 338.128 904.304 337.178C904.584 336.301 905.024 335.483 905.601 334.766C906.156 334.079 906.856 333.523 907.651 333.138C908.511 332.726 909.453 332.517 910.405 332.526C911.28 332.484 912.152 332.645 912.955 332.995C913.757 333.345 914.468 333.876 915.032 334.546C916.15 335.896 916.7 337.857 916.684 340.427L905.589 340.495ZM914.897 339.118C914.9 338.45 914.803 337.786 914.61 337.147C914.429 336.565 914.138 336.022 913.753 335.55C913.365 335.091 912.88 334.725 912.333 334.478C911.72 334.202 911.053 334.066 910.381 334.081C909.711 334.066 909.047 334.206 908.441 334.491C907.892 334.755 907.405 335.13 907.009 335.592C906.602 336.067 906.279 336.607 906.054 337.19C905.813 337.809 905.657 338.457 905.589 339.118H914.897Z" fill="#054169"/>
<path d="M433.281 328.885V309.079H440.056C440.607 309.079 441.151 309.079 441.684 309.116C442.21 309.144 442.733 309.209 443.25 309.312C443.764 309.41 444.267 309.562 444.75 309.765C445.253 309.976 445.729 310.245 446.17 310.566C446.822 311.034 447.376 311.627 447.797 312.311C448.215 312.995 448.552 313.727 448.801 314.49C449.047 315.243 449.221 316.017 449.321 316.803C449.42 317.519 449.471 318.241 449.474 318.964C449.473 319.637 449.432 320.309 449.352 320.977C449.269 321.651 449.136 322.318 448.954 322.972C448.771 323.619 448.525 324.246 448.22 324.845C447.919 325.442 447.536 325.995 447.081 326.485C446.649 326.972 446.14 327.385 445.576 327.71C445.039 328.022 444.466 328.267 443.868 328.438C443.269 328.615 442.654 328.735 442.033 328.799C441.421 328.86 440.735 328.897 440.074 328.897L433.281 328.885ZM435.154 327.287H439.646C440.442 327.288 441.237 327.237 442.026 327.134C442.821 327.014 443.589 326.757 444.297 326.375C444.939 326.062 445.497 325.601 445.925 325.029C446.342 324.466 446.68 323.848 446.928 323.193C447.178 322.512 447.352 321.806 447.449 321.087C447.549 320.384 447.6 319.674 447.602 318.964C447.602 318.231 447.557 317.499 447.467 316.772C447.379 316.048 447.202 315.337 446.941 314.655C446.686 313.994 446.333 313.375 445.894 312.819C445.429 312.241 444.847 311.767 444.187 311.429C443.534 311.096 442.824 310.888 442.094 310.817C441.281 310.726 440.464 310.681 439.646 310.683H435.154V327.287Z" fill="#054169"/>
<path d="M455.808 319.875V328.885L453.936 328.854V309.079H461.702C463.886 309.079 465.557 309.483 466.714 310.303C467.87 311.123 468.452 312.445 468.452 314.281C468.504 315.327 468.24 316.363 467.693 317.256C467.061 318.089 466.215 318.737 465.245 319.129C465.775 319.292 466.251 319.597 466.622 320.01C466.955 320.398 467.208 320.847 467.368 321.332C467.536 321.842 467.641 322.37 467.681 322.905C467.73 323.456 467.76 323.988 467.778 324.502C467.778 325.255 467.827 325.88 467.876 326.375C467.906 326.786 467.962 327.195 468.042 327.599C468.085 327.852 468.163 328.097 468.274 328.328C468.352 328.484 468.465 328.62 468.605 328.725V328.891L466.542 328.921C466.308 328.496 466.162 328.028 466.114 327.544C466.028 326.932 465.967 326.32 465.918 325.708C465.869 325.096 465.839 324.441 465.808 323.835C465.794 323.337 465.745 322.84 465.661 322.348C465.58 321.887 465.396 321.449 465.123 321.069C464.887 320.758 464.581 320.509 464.229 320.341C463.857 320.169 463.461 320.057 463.054 320.01C462.612 319.953 462.166 319.924 461.72 319.924L455.808 319.875ZM461.646 318.278C462.3 318.283 462.951 318.209 463.586 318.058C464.148 317.929 464.679 317.69 465.147 317.354C465.588 317.034 465.946 316.615 466.193 316.13C466.464 315.574 466.597 314.961 466.579 314.343C466.606 313.706 466.467 313.073 466.175 312.507C465.923 312.042 465.554 311.652 465.104 311.374C464.629 311.091 464.106 310.896 463.562 310.799C462.957 310.685 462.342 310.63 461.726 310.634H455.778V318.26L461.646 318.278Z" fill="#054169"/>
<path d="M594.318 314.171C594.116 312.897 593.433 311.749 592.409 310.964C591.311 310.279 590.029 309.945 588.737 310.009C587.785 309.973 586.841 310.184 585.995 310.621C585.237 311.036 584.587 311.623 584.098 312.335C583.584 313.09 583.211 313.932 582.996 314.82C582.754 315.793 582.635 316.792 582.641 317.795C582.642 318.766 582.744 319.734 582.947 320.683C583.133 321.581 583.477 322.439 583.963 323.217C584.442 323.965 585.098 324.583 585.873 325.017C586.8 325.502 587.837 325.738 588.884 325.702C589.586 325.711 590.284 325.587 590.94 325.335C591.54 325.1 592.092 324.755 592.568 324.319C593.04 323.876 593.437 323.359 593.743 322.789C594.068 322.179 594.31 321.528 594.465 320.855H596.203C596.01 321.689 595.723 322.498 595.346 323.266C594.977 324.016 594.476 324.692 593.865 325.261C593.217 325.854 592.46 326.315 591.637 326.62C590.656 326.97 589.619 327.14 588.578 327.122C587.376 327.155 586.184 326.899 585.101 326.375C584.167 325.896 583.358 325.204 582.739 324.356C582.109 323.467 581.656 322.465 581.405 321.406C581.123 320.239 580.984 319.043 580.989 317.844C580.95 316.391 581.157 314.943 581.601 313.559C581.956 312.484 582.545 311.502 583.327 310.683C584.049 309.943 584.939 309.389 585.922 309.067C586.972 308.723 588.072 308.553 589.177 308.565C590.027 308.557 590.872 308.677 591.686 308.92C592.435 309.138 593.133 309.499 593.743 309.985C594.344 310.465 594.843 311.06 595.211 311.735C595.616 312.486 595.885 313.303 596.007 314.147L594.318 314.171Z" fill="#054169"/>
<path d="M605.015 327.024C604.233 327.012 603.458 326.862 602.727 326.584C602.035 326.31 601.409 325.893 600.891 325.359C600.333 324.759 599.904 324.051 599.63 323.279C599.302 322.343 599.144 321.356 599.165 320.365C599.158 319.483 599.282 318.604 599.532 317.758C599.757 316.987 600.131 316.267 600.634 315.64C601.129 315.03 601.757 314.54 602.47 314.208C603.286 313.861 604.165 313.682 605.052 313.682C605.94 313.682 606.818 313.861 607.635 314.208C608.345 314.538 608.973 315.023 609.471 315.628C609.975 316.252 610.346 316.973 610.56 317.746C610.803 318.598 610.922 319.48 610.915 320.365C610.926 321.296 610.785 322.222 610.499 323.107C610.246 323.881 609.842 324.596 609.311 325.213C608.808 325.796 608.18 326.26 607.475 326.571C606.697 326.895 605.858 327.049 605.015 327.024ZM609.299 320.341C609.305 319.632 609.223 318.924 609.054 318.235C608.911 317.626 608.653 317.048 608.296 316.534C607.955 316.052 607.501 315.661 606.974 315.396C606.356 315.099 605.676 314.956 604.991 314.979C604.306 314.958 603.627 315.114 603.02 315.432C602.484 315.727 602.026 316.147 601.686 316.656C601.333 317.178 601.076 317.758 600.927 318.37C600.762 319.022 600.68 319.693 600.683 320.365C600.675 321.097 600.769 321.826 600.964 322.532C601.129 323.145 601.408 323.722 601.784 324.233C602.14 324.701 602.601 325.079 603.13 325.335C603.706 325.6 604.333 325.734 604.966 325.727C605.651 325.745 606.329 325.589 606.937 325.274C607.471 324.976 607.928 324.557 608.271 324.05C608.62 323.526 608.877 322.946 609.03 322.336C609.213 321.686 609.312 321.016 609.324 320.341H609.299Z" fill="#054169"/>
<path d="M615.565 326.681H614.097V313.975H615.565V315.885H615.614C615.966 315.172 616.53 314.585 617.23 314.208C617.935 313.823 618.727 313.625 619.531 313.633C620.036 313.619 620.54 313.686 621.024 313.828C621.399 313.941 621.752 314.119 622.065 314.355C622.344 314.569 622.584 314.83 622.775 315.126C622.967 315.426 623.127 315.746 623.252 316.081C623.622 315.312 624.215 314.672 624.953 314.245C625.701 313.828 626.545 313.617 627.401 313.633C628.116 313.599 628.827 313.746 629.47 314.061C629.96 314.322 630.371 314.711 630.657 315.187C630.942 315.681 631.13 316.226 631.208 316.791C631.298 317.399 631.343 318.012 631.342 318.627V326.632H629.873V317.917C629.918 317.156 629.716 316.4 629.298 315.763C628.913 315.236 628.203 314.979 627.156 314.979C626.599 314.978 626.049 315.108 625.551 315.359C625.054 315.61 624.622 315.974 624.292 316.424C624.118 316.649 623.982 316.901 623.888 317.17C623.782 317.462 623.696 317.76 623.631 318.064C623.565 318.37 623.52 318.681 623.497 318.994C623.497 319.3 623.46 319.606 623.46 319.851V326.681H621.991V317.917C622.036 317.156 621.834 316.4 621.416 315.763C621.03 315.236 620.32 314.979 619.274 314.979C618.717 314.978 618.167 315.108 617.669 315.359C617.172 315.61 616.74 315.974 616.41 316.424C616.236 316.649 616.099 316.901 616.006 317.17C615.899 317.462 615.814 317.76 615.749 318.064C615.683 318.37 615.638 318.681 615.614 318.994C615.614 319.3 615.578 319.606 615.578 319.851L615.565 326.681Z" fill="#054169"/>
<path d="M636.667 326.681H635.198V313.975H636.667V315.885H636.716C637.067 315.172 637.632 314.585 638.332 314.208C639.037 313.823 639.829 313.625 640.633 313.633C641.138 313.619 641.641 313.686 642.126 313.828C642.501 313.941 642.853 314.119 643.166 314.355C643.445 314.569 643.686 314.83 643.876 315.126C644.069 315.426 644.229 315.746 644.353 316.081C644.723 315.312 645.316 314.672 646.055 314.245C646.802 313.828 647.647 313.617 648.503 313.633C649.217 313.599 649.929 313.746 650.571 314.061C651.063 314.325 651.474 314.719 651.758 315.199C652.044 315.693 652.231 316.238 652.309 316.803C652.4 317.411 652.445 318.025 652.444 318.639V326.645H650.975V317.917C651.02 317.156 650.818 316.4 650.4 315.763C650.014 315.236 649.304 314.979 648.258 314.979C647.701 314.978 647.151 315.108 646.653 315.359C646.155 315.61 645.724 315.974 645.394 316.424C645.22 316.649 645.083 316.901 644.99 317.17C644.883 317.462 644.797 317.76 644.733 318.064C644.667 318.37 644.622 318.681 644.598 318.994C644.598 319.3 644.562 319.606 644.562 319.851V326.681H643.093V317.917C643.137 317.156 642.936 316.4 642.518 315.763C642.132 315.236 641.422 314.979 640.376 314.979C639.818 314.978 639.268 315.108 638.771 315.359C638.273 315.61 637.842 315.974 637.512 316.424C637.337 316.649 637.201 316.901 637.108 317.17C637.001 317.462 636.915 317.76 636.851 318.064C636.784 318.37 636.739 318.681 636.716 318.994C636.716 319.3 636.679 319.606 636.679 319.851L636.667 326.681Z" fill="#054169"/>
<path d="M657.401 320.708C657.398 321.366 657.489 322.021 657.67 322.654C657.833 323.23 658.102 323.77 658.466 324.245C658.824 324.7 659.28 325.068 659.8 325.322C660.492 325.639 661.254 325.773 662.013 325.711C662.771 325.649 663.501 325.393 664.133 324.967C664.833 324.436 665.319 323.672 665.503 322.813H667.144C666.972 323.397 666.734 323.96 666.434 324.49C666.145 324.997 665.772 325.453 665.332 325.836C664.87 326.23 664.339 326.533 663.765 326.73C663.086 326.952 662.375 327.06 661.66 327.048C660.76 327.071 659.866 326.895 659.041 326.534C658.326 326.217 657.697 325.734 657.205 325.126C656.718 324.501 656.36 323.786 656.153 323.021C655.92 322.172 655.804 321.294 655.81 320.414C655.803 319.525 655.94 318.64 656.214 317.794C656.463 317.016 656.853 316.29 657.364 315.652C657.862 315.041 658.489 314.547 659.2 314.208C659.964 313.845 660.802 313.665 661.648 313.681C662.426 313.645 663.201 313.788 663.915 314.1C664.628 314.412 665.26 314.885 665.761 315.481C666.758 316.705 667.248 318.419 667.229 320.708H657.401ZM665.675 319.483C665.679 318.89 665.593 318.3 665.418 317.733C665.264 317.213 665.005 316.73 664.659 316.313C664.317 315.903 663.886 315.577 663.398 315.358C662.853 315.112 662.259 314.991 661.66 315.003C661.064 314.99 660.474 315.116 659.935 315.371C659.448 315.606 659.014 315.94 658.662 316.35C658.303 316.773 658.017 317.253 657.817 317.77C657.602 318.32 657.462 318.896 657.401 319.483H665.675Z" fill="#054169"/>
<path d="M672.284 326.681H670.815V313.975H672.284V315.738C672.827 315.154 673.445 314.644 674.12 314.22C674.801 313.805 675.587 313.593 676.384 313.608C677.13 313.601 677.87 313.738 678.563 314.012C679.255 314.3 679.844 314.791 680.252 315.42C680.551 315.836 680.74 316.32 680.803 316.827C680.86 317.327 680.889 317.83 680.889 318.333V326.632H679.42V318.407C679.491 317.486 679.221 316.57 678.661 315.836C678.153 315.261 677.315 314.979 676.14 314.979C675.723 314.975 675.308 315.046 674.916 315.187C674.55 315.316 674.207 315.502 673.9 315.738C673.606 315.96 673.346 316.224 673.129 316.521C672.921 316.806 672.756 317.119 672.639 317.452C672.497 317.83 672.407 318.225 672.37 318.627C672.37 319 672.321 319.41 672.321 319.851L672.284 326.681Z" fill="#054169"/>
<path d="M689.59 326.73C689.351 326.775 689.114 326.832 688.881 326.902C688.561 326.986 688.232 327.027 687.901 327.024C687.292 327.067 686.69 326.869 686.225 326.473C686.004 326.199 685.84 325.883 685.741 325.545C685.642 325.207 685.611 324.853 685.649 324.503V315.2H683.862V313.976H685.649V310.45H687.118V313.976H689.493V315.2H687.118V323.891C687.118 324.197 687.118 324.466 687.118 324.698C687.128 324.894 687.178 325.086 687.265 325.261C687.349 325.41 687.484 325.523 687.644 325.58C687.878 325.652 688.122 325.685 688.366 325.678C688.571 325.677 688.776 325.661 688.978 325.629C689.18 325.592 689.382 325.555 689.59 325.506V326.73Z" fill="#054169"/>
<path d="M698.476 319.288L699.468 319.141C699.792 319.09 700.108 319 700.41 318.872C700.527 318.82 700.63 318.741 700.709 318.641C700.788 318.54 700.841 318.422 700.863 318.296C700.916 318.051 700.945 317.801 700.949 317.55C700.96 317.21 700.902 316.873 700.778 316.557C700.653 316.241 700.466 315.954 700.227 315.713C699.743 315.23 698.935 314.991 697.779 314.991C697.31 314.986 696.842 315.031 696.383 315.126C695.984 315.203 695.605 315.362 695.27 315.591C694.943 315.819 694.675 316.121 694.486 316.472C694.265 316.904 694.128 317.373 694.082 317.856H692.589C692.615 317.185 692.791 316.528 693.103 315.934C693.379 315.42 693.768 314.977 694.241 314.636C694.728 314.29 695.276 314.04 695.857 313.902C696.493 313.742 697.147 313.664 697.803 313.669C698.409 313.665 699.013 313.735 699.602 313.877C700.131 313.997 700.631 314.221 701.071 314.538C701.498 314.854 701.836 315.276 702.05 315.762C702.301 316.341 702.422 316.968 702.405 317.599V324.502C702.405 325.072 702.509 325.433 702.711 325.592C702.913 325.751 703.323 325.708 703.935 325.482V326.632L703.433 326.779C703.222 326.841 703.004 326.874 702.785 326.877C702.562 326.877 702.341 326.853 702.124 326.804C701.902 326.786 701.689 326.705 701.512 326.571C701.366 326.449 701.245 326.299 701.157 326.13C701.064 325.955 701.002 325.764 700.973 325.567C700.941 325.352 700.925 325.136 700.924 324.918C700.334 325.588 699.607 326.123 698.792 326.486C697.976 326.85 697.092 327.033 696.2 327.024C695.658 327.026 695.118 326.952 694.596 326.804C694.103 326.665 693.642 326.433 693.238 326.118C692.849 325.811 692.531 325.422 692.308 324.98C692.069 324.479 691.952 323.93 691.965 323.376C691.965 321.222 693.442 319.949 696.396 319.557L698.476 319.288ZM700.924 320.022C700.321 320.275 699.687 320.448 699.039 320.536C698.427 320.616 697.766 320.683 697.13 320.732C696.202 320.751 695.294 321.013 694.498 321.491C694.186 321.703 693.935 321.993 693.769 322.332C693.604 322.672 693.53 323.048 693.556 323.425C693.548 323.778 693.628 324.127 693.789 324.441C693.939 324.719 694.148 324.961 694.401 325.151C694.666 325.343 694.965 325.484 695.282 325.567C695.613 325.654 695.955 325.7 696.298 325.702C696.876 325.703 697.452 325.629 698.011 325.482C698.54 325.345 699.042 325.118 699.492 324.808C699.921 324.508 700.277 324.115 700.532 323.658C700.805 323.15 700.94 322.581 700.924 322.005V320.022Z" fill="#054169"/>
<path d="M707.118 311.233V309.079H708.734V311.258L707.118 311.233ZM707.192 326.681V313.975H708.66V326.657L707.192 326.681Z" fill="#054169"/>
<path d="M714.657 326.681H713.188V313.975H714.657V316.35H714.706C714.994 315.494 715.547 314.752 716.285 314.232C717.063 313.792 717.95 313.58 718.843 313.62V315.211C718.136 315.167 717.429 315.302 716.787 315.603C716.268 315.86 715.825 316.248 715.502 316.729C715.169 317.237 714.944 317.808 714.841 318.406C714.716 319.072 714.655 319.748 714.657 320.426V326.681Z" fill="#054169"/>
<path d="M722.442 320.708C722.439 321.366 722.53 322.021 722.711 322.654C722.873 323.23 723.143 323.77 723.507 324.245C723.865 324.7 724.321 325.068 724.841 325.322C725.533 325.639 726.295 325.773 727.054 325.711C727.812 325.649 728.542 325.393 729.174 324.967C729.874 324.436 730.36 323.672 730.545 322.813H732.185C732.014 323.397 731.775 323.96 731.475 324.49C731.186 324.997 730.813 325.453 730.373 325.836C729.911 326.23 729.38 326.533 728.807 326.73C728.127 326.952 727.416 327.06 726.701 327.048C725.801 327.071 724.907 326.895 724.082 326.534C723.367 326.217 722.738 325.734 722.246 325.126C721.759 324.501 721.401 323.786 721.193 323.021C720.96 322.172 720.845 321.294 720.851 320.414C720.844 319.525 720.981 318.64 721.255 317.794C721.504 317.016 721.894 316.29 722.405 315.652C722.903 315.041 723.53 314.547 724.241 314.208C725.005 313.845 725.843 313.665 726.689 313.681C727.467 313.645 728.242 313.788 728.956 314.1C729.669 314.412 730.301 314.885 730.802 315.481C731.799 316.705 732.289 318.419 732.27 320.708H722.442ZM730.716 319.483C730.72 318.89 730.634 318.3 730.459 317.733C730.305 317.213 730.047 316.73 729.7 316.313C729.358 315.903 728.927 315.577 728.439 315.358C727.894 315.112 727.3 314.991 726.701 315.003C726.105 314.99 725.515 315.116 724.976 315.371C724.489 315.606 724.055 315.94 723.703 316.35C723.344 316.773 723.058 317.253 722.858 317.77C722.643 318.32 722.503 318.896 722.442 319.483H730.716Z" fill="#054169"/>
<path d="M736.713 322.716C736.831 323.609 737.265 324.43 737.937 325.029C738.695 325.523 739.593 325.759 740.496 325.702C740.968 325.711 741.439 325.645 741.891 325.507C742.244 325.396 742.573 325.217 742.858 324.98C743.099 324.774 743.295 324.52 743.433 324.234C743.561 323.957 743.628 323.657 743.629 323.352C743.647 323.089 743.601 322.826 743.494 322.585C743.387 322.344 743.224 322.133 743.017 321.969C742.565 321.639 742.054 321.398 741.511 321.259C740.867 321.078 740.213 320.931 739.553 320.818C738.883 320.705 738.226 320.52 737.595 320.268C737.017 320.04 736.501 319.68 736.089 319.215C735.656 318.667 735.438 317.979 735.477 317.281C735.463 316.787 735.56 316.296 735.761 315.844C735.962 315.393 736.263 314.993 736.64 314.674C737.576 313.943 738.748 313.581 739.932 313.658C741.115 313.604 742.285 313.925 743.274 314.576C743.735 314.947 744.111 315.412 744.379 315.939C744.647 316.467 744.8 317.045 744.828 317.636H743.335C743.315 317.23 743.204 316.834 743.012 316.476C742.819 316.118 742.549 315.808 742.221 315.567C741.528 315.138 740.723 314.925 739.908 314.955C739.149 314.905 738.396 315.122 737.778 315.567C737.541 315.755 737.351 315.995 737.223 316.269C737.096 316.544 737.034 316.844 737.044 317.146C737.032 317.398 737.082 317.648 737.188 317.877C737.295 318.105 737.455 318.304 737.656 318.456C738.112 318.785 738.621 319.033 739.161 319.19C739.773 319.374 740.416 319.545 741.12 319.692C741.792 319.826 742.449 320.031 743.078 320.304C743.655 320.551 744.169 320.923 744.584 321.394C745.016 321.933 745.234 322.613 745.196 323.303C745.207 323.863 745.072 324.416 744.804 324.907C744.541 325.373 744.172 325.772 743.727 326.07C743.228 326.394 742.677 326.63 742.099 326.767C741.421 326.927 740.727 327.005 740.03 327C739.351 327.012 738.675 326.9 738.035 326.669C737.485 326.467 736.981 326.155 736.554 325.751C736.147 325.363 735.823 324.897 735.6 324.38C735.37 323.845 735.237 323.273 735.208 322.691L736.713 322.716Z" fill="#054169"/>
<path d="M73.1074 320.316V300.511H79.882C80.4328 300.511 80.9713 300.511 81.5038 300.547C82.032 300.575 82.5576 300.641 83.0766 300.743C83.5902 300.844 84.0925 300.995 84.5759 301.196C85.0781 301.409 85.5545 301.678 85.9957 301.998C86.6468 302.466 87.1981 303.059 87.6174 303.742C88.0379 304.426 88.3749 305.157 88.6211 305.921C88.8686 306.674 89.0448 307.449 89.1474 308.235C89.243 308.951 89.2941 309.673 89.3004 310.395C89.2997 311.068 89.2568 311.741 89.1719 312.409C89.0919 313.083 88.9588 313.75 88.7741 314.404C88.5906 315.05 88.3468 315.677 88.0458 316.277C87.7387 316.864 87.3537 317.408 86.9014 317.893C86.4697 318.378 85.9636 318.791 85.4021 319.117C84.8642 319.427 84.2909 319.671 83.6947 319.845C83.0949 320.021 82.4804 320.142 81.8587 320.206C81.2161 320.267 80.5675 320.304 79.9065 320.304L73.1074 320.316ZM74.9801 318.719H79.4659C80.2619 318.72 81.0572 318.669 81.8465 318.566C82.6435 318.446 83.4137 318.189 84.123 317.807C84.7633 317.494 85.3193 317.032 85.7448 316.46C86.1648 315.899 86.5027 315.281 86.7484 314.624C86.9997 313.944 87.1761 313.238 87.2747 312.519C87.3724 311.815 87.4235 311.106 87.4277 310.395C87.4256 309.663 87.3786 308.931 87.287 308.204C87.2007 307.48 87.026 306.768 86.7668 306.086C86.5096 305.426 86.157 304.808 85.7203 304.25C85.2552 303.672 84.6734 303.199 84.0129 302.861C83.3595 302.528 82.6497 302.321 81.9199 302.249C81.1071 302.158 80.2899 302.113 79.472 302.114H74.9862L74.9801 318.719Z" fill="#054169"/>
<path d="M94.5568 313.565C94.5517 314.306 94.6527 315.044 94.8566 315.756C95.0386 316.404 95.3441 317.011 95.7562 317.543C96.1548 318.062 96.668 318.481 97.2556 318.767C97.9072 319.084 98.6244 319.241 99.3486 319.226C100.344 319.254 101.32 318.952 102.127 318.37C102.923 317.769 103.471 316.898 103.669 315.921H105.505C105.312 316.579 105.043 317.211 104.703 317.807C104.386 318.379 103.971 318.892 103.479 319.324C102.96 319.767 102.362 320.108 101.717 320.328C100.953 320.581 100.153 320.703 99.3486 320.689C98.3324 320.703 97.3255 320.494 96.3988 320.077C95.6035 319.718 94.9051 319.174 94.3609 318.492C93.812 317.79 93.4103 316.984 93.1798 316.123C92.9164 315.169 92.7866 314.182 92.7943 313.192C92.788 312.193 92.9409 311.199 93.2471 310.248C93.5276 309.371 93.9675 308.554 94.5445 307.836C95.0996 307.149 95.7996 306.593 96.5946 306.208C97.4538 305.797 98.3959 305.587 99.3486 305.596C100.223 305.554 101.096 305.715 101.898 306.065C102.7 306.415 103.411 306.946 103.975 307.616C105.093 308.967 105.644 310.927 105.627 313.498L94.5568 313.565ZM103.865 312.188C103.868 311.52 103.771 310.856 103.577 310.217C103.399 309.634 103.108 309.091 102.721 308.62C102.334 308.163 101.851 307.797 101.307 307.549C100.692 307.273 100.023 307.137 99.3486 307.151C98.6789 307.136 98.0149 307.276 97.4086 307.561C96.8602 307.825 96.3726 308.2 95.9766 308.663C95.57 309.137 95.2472 309.677 95.0219 310.26C94.7811 310.879 94.6247 311.527 94.5568 312.188H103.865Z" fill="#054169"/>
<path d="M111.081 320.317H109.429V306.05H111.081V308.198H111.136C111.539 307.394 112.18 306.734 112.972 306.307C113.767 305.877 114.657 305.656 115.561 305.664C116.128 305.652 116.693 305.726 117.238 305.885C117.661 306.021 118.059 306.227 118.413 306.497C118.726 306.739 118.995 307.033 119.208 307.366C119.425 307.705 119.606 308.066 119.747 308.443C120.16 307.572 120.828 306.846 121.662 306.362C122.499 305.901 123.443 305.669 124.398 305.689C125.202 305.654 126.003 305.818 126.729 306.166C127.278 306.464 127.738 306.901 128.063 307.433C128.389 307.998 128.597 308.622 128.675 309.269C128.779 309.962 128.831 310.662 128.828 311.363V320.372H127.176V310.457C127.231 309.592 127.003 308.733 126.527 308.009C126.099 307.397 125.303 307.127 124.116 307.127C123.49 307.126 122.872 307.272 122.313 307.554C121.754 307.836 121.269 308.245 120.897 308.749C120.704 309.004 120.552 309.287 120.444 309.588C120.321 309.916 120.222 310.254 120.151 310.597C120.078 310.943 120.029 311.292 120.004 311.644C120.004 311.993 119.961 312.311 119.961 312.605V320.292H118.309V310.457C118.363 309.592 118.136 308.733 117.66 308.009C117.231 307.397 116.436 307.127 115.249 307.127C114.614 307.123 113.988 307.27 113.422 307.557C112.855 307.843 112.366 308.26 111.993 308.774C111.8 309.028 111.647 309.311 111.54 309.612C111.416 309.941 111.318 310.278 111.246 310.622C111.173 310.967 111.124 311.317 111.099 311.669C111.069 312.017 111.057 312.336 111.057 312.629L111.081 320.317Z" fill="#054169"/>
<path d="M139.942 311.999C140.254 311.962 140.627 311.907 141.055 311.834C141.42 311.779 141.776 311.676 142.114 311.528C142.246 311.47 142.362 311.38 142.451 311.267C142.541 311.154 142.602 311.021 142.628 310.879C142.687 310.603 142.717 310.322 142.72 310.04C142.733 309.657 142.668 309.275 142.53 308.917C142.391 308.559 142.181 308.234 141.912 307.96C141.367 307.421 140.456 307.152 139.17 307.152C138.643 307.148 138.116 307.197 137.598 307.299C137.159 307.391 136.743 307.57 136.374 307.825C136.004 308.079 135.702 308.419 135.492 308.816C135.238 309.299 135.082 309.828 135.033 310.371H133.357C133.386 309.617 133.582 308.879 133.932 308.21C134.245 307.633 134.684 307.133 135.217 306.748C135.772 306.359 136.394 306.079 137.053 305.921C137.768 305.747 138.502 305.66 139.238 305.664C139.92 305.658 140.6 305.736 141.263 305.897C141.857 306.033 142.419 306.285 142.916 306.638C143.395 306.989 143.775 307.46 144.017 308.002C144.302 308.662 144.438 309.377 144.415 310.096V317.862C144.415 318.474 144.531 318.915 144.764 319.086C144.996 319.258 145.455 319.221 146.153 318.964V320.262L145.59 320.427C145.352 320.498 145.104 320.535 144.856 320.537C144.606 320.537 144.358 320.508 144.115 320.451C143.874 320.431 143.644 320.339 143.454 320.188C143.288 320.053 143.152 319.884 143.056 319.692C142.954 319.501 142.883 319.294 142.848 319.08C142.811 318.839 142.792 318.596 142.793 318.352C142.126 319.101 141.308 319.701 140.394 320.115C139.476 320.525 138.481 320.733 137.475 320.727C136.867 320.728 136.261 320.643 135.676 320.476C135.12 320.323 134.6 320.061 134.146 319.705C133.709 319.359 133.352 318.922 133.1 318.425C132.825 317.853 132.693 317.223 132.714 316.589C132.714 314.166 134.375 312.738 137.696 312.305L139.942 311.999ZM142.72 312.825C142.044 313.113 141.331 313.306 140.602 313.401C139.888 313.494 139.172 313.568 138.454 313.621C137.41 313.647 136.39 313.942 135.492 314.478C135.143 314.717 134.862 315.044 134.676 315.424C134.491 315.805 134.407 316.228 134.434 316.65C134.423 317.048 134.513 317.442 134.697 317.795C134.864 318.108 135.098 318.379 135.382 318.591C135.681 318.808 136.017 318.968 136.374 319.062C136.747 319.161 137.132 319.213 137.518 319.215C138.169 319.215 138.817 319.131 139.446 318.964C140.042 318.813 140.606 318.556 141.11 318.205C141.594 317.87 141.994 317.428 142.279 316.914C142.58 316.349 142.732 315.717 142.72 315.078V312.825Z" fill="#054169"/>
<path d="M151.159 320.316H149.513V306.05H151.159V308.033C151.768 307.377 152.459 306.804 153.215 306.325C153.984 305.867 154.867 305.638 155.761 305.664C156.599 305.654 157.43 305.808 158.209 306.117C158.989 306.441 159.653 306.993 160.112 307.702C160.442 308.171 160.652 308.713 160.724 309.281C160.792 309.844 160.824 310.41 160.822 310.977V320.316H159.17V311.007C159.247 309.971 158.944 308.942 158.319 308.112C157.744 307.47 156.801 307.151 155.479 307.151C155 307.143 154.523 307.222 154.072 307.384C153.664 307.529 153.28 307.736 152.934 307.996C152.28 308.484 151.786 309.155 151.514 309.924C151.355 310.349 151.252 310.794 151.208 311.246C151.171 311.654 151.153 312.113 151.153 312.623L151.159 320.316Z" fill="#054169"/>
<path d="M176.624 300.511H178.276V320.341H176.624V317.831H176.569C176.334 318.29 176.021 318.704 175.645 319.055C175.279 319.407 174.867 319.707 174.421 319.949C173.978 320.184 173.51 320.369 173.026 320.5C172.569 320.627 172.098 320.693 171.624 320.696C170.608 320.714 169.6 320.505 168.674 320.084C167.895 319.719 167.211 319.176 166.679 318.499C166.139 317.792 165.749 316.981 165.535 316.118C165.292 315.156 165.172 314.166 165.18 313.174C165.177 312.206 165.307 311.242 165.566 310.309C165.799 309.439 166.196 308.621 166.734 307.898C167.262 307.205 167.94 306.64 168.717 306.246C169.594 305.816 170.562 305.606 171.539 305.633C172.546 305.631 173.541 305.861 174.445 306.307C175.358 306.739 176.121 307.434 176.636 308.302L176.624 300.511ZM176.624 313.149C176.628 312.37 176.517 311.595 176.294 310.848C176.093 310.164 175.771 309.522 175.345 308.951C174.938 308.414 174.421 307.972 173.827 307.653C173.202 307.328 172.506 307.164 171.802 307.176C171.028 307.153 170.261 307.328 169.574 307.684C168.956 308.016 168.427 308.493 168.032 309.073C167.613 309.696 167.314 310.391 167.151 311.123C166.963 311.95 166.889 312.798 166.93 313.645C166.915 314.454 167.041 315.26 167.304 316.026C167.523 316.674 167.873 317.269 168.332 317.776C168.762 318.245 169.288 318.617 169.874 318.866C170.485 319.117 171.141 319.244 171.802 319.239C172.519 319.251 173.229 319.089 173.87 318.768C174.465 318.463 174.983 318.025 175.382 317.489C175.805 316.908 176.118 316.255 176.306 315.561C176.527 314.768 176.634 313.948 176.624 313.125V313.149Z" fill="#054169"/>
<path d="M184.249 313.565C184.246 314.306 184.349 315.044 184.555 315.756C184.737 316.403 185.04 317.009 185.448 317.543C185.848 318.06 186.361 318.479 186.948 318.767C187.728 319.13 188.59 319.285 189.448 319.215C190.306 319.145 191.132 318.854 191.843 318.37C192.637 317.767 193.185 316.897 193.386 315.921H195.222C195.03 316.579 194.763 317.211 194.426 317.807C194.106 318.377 193.692 318.891 193.202 319.324C192.683 319.767 192.085 320.108 191.44 320.328C190.676 320.581 189.875 320.703 189.071 320.689C188.057 320.704 187.052 320.495 186.128 320.077C185.332 319.718 184.634 319.174 184.09 318.492C183.539 317.79 183.135 316.985 182.902 316.123C182.639 315.169 182.509 314.182 182.517 313.192C182.51 312.192 182.665 311.198 182.976 310.248C183.254 309.371 183.692 308.554 184.267 307.836C184.823 307.151 185.523 306.595 186.317 306.208C187.176 305.797 188.119 305.587 189.071 305.596C189.946 305.554 190.818 305.715 191.621 306.065C192.423 306.415 193.134 306.946 193.698 307.616C194.82 308.967 195.37 310.927 195.35 313.498L184.249 313.565ZM193.557 312.188C193.563 311.52 193.466 310.855 193.269 310.217C193.093 309.634 192.804 309.091 192.419 308.62C192.03 308.163 191.545 307.797 190.999 307.549C190.384 307.272 189.715 307.136 189.041 307.151C188.371 307.136 187.707 307.277 187.101 307.561C186.554 307.828 186.067 308.203 185.669 308.663C185.266 309.139 184.945 309.679 184.72 310.26C184.477 310.879 184.319 311.527 184.249 312.188H193.557Z" fill="#054169"/>
</svg>
