<?xml version="1.0" encoding="utf-8"?>
<!-- Generator: Adobe Illustrator 24.1.0, SVG Export Plug-In . SVG Version: 6.00 Build 0)  -->
<svg version="1.1" xmlns="http://www.w3.org/2000/svg" xmlns:xlink="http://www.w3.org/1999/xlink" x="0px" y="0px"
	 viewBox="0 0 1920 1080" style="enable-background:new 0 0 1920 1080;" xml:space="preserve">
<style type="text/css">
	.st0{fill:#FFFFFF;stroke:#054169;stroke-width:3;stroke-miterlimit:10;}
	.st1{fill:#D6F3FF;}
	.st2{clip-path:url(#SVGID_2_);}
	.st3{fill:none;stroke:#9DDEFA;stroke-width:2;stroke-miterlimit:10;}
	.st4{fill:none;stroke:#054169;stroke-width:3;stroke-miterlimit:10;}
	.st5{fill:#FFFFFF;}
	.st6{fill:none;stroke:#054169;stroke-width:5;stroke-miterlimit:10;}
	.st7{fill:none;stroke:#054169;stroke-width:5;stroke-miterlimit:10;stroke-dasharray:12.39,10.33;}
	.st8{fill:none;stroke:#054169;stroke-width:5;stroke-miterlimit:10;stroke-dasharray:12,10;}
	.st9{fill:#054169;stroke:#054169;stroke-width:3;stroke-miterlimit:10;}
	.st10{fill:#054169;}
	.st11{display:none;}
	.st12{display:inline;}
	.st13{font-family:'Helvetica-Light';}
	.st14{font-size:48px;}
</style>
<g id="Layer_1">
	<g id="Layer_1_1_">
		<rect x="109.5" y="316.4" class="st0" width="281" height="373.9"/>
		<rect x="172.5" y="248.5" class="st1" width="281" height="373.9"/>
		<g>
			<defs>
				<rect id="SVGID_1_" x="173" y="248.9" width="281" height="373.9"/>
			</defs>
			<clipPath id="SVGID_2_">
				<use xlink:href="#SVGID_1_"  style="overflow:visible;"/>
			</clipPath>
			<g class="st2">
				<line class="st3" x1="319.4" y1="167.6" x2="-40.5" y2="527.5"/>
				<line class="st3" x1="302.4" y1="155.6" x2="-57.5" y2="515.5"/>
				<line class="st3" x1="336.2" y1="179.1" x2="-23.8" y2="539"/>
				<line class="st3" x1="352.9" y1="190.6" x2="-7.1" y2="550.5"/>
				<line class="st3" x1="369.6" y1="202.1" x2="9.7" y2="562"/>
				<line class="st3" x1="386.3" y1="213.6" x2="26.4" y2="573.5"/>
				<line class="st3" x1="403" y1="225.1" x2="43.1" y2="585"/>
				<line class="st3" x1="419.8" y1="236.6" x2="59.8" y2="596.5"/>
				<line class="st3" x1="436.5" y1="248.1" x2="76.5" y2="608"/>
				<line class="st3" x1="453.2" y1="259.6" x2="93.3" y2="619.5"/>
				<line class="st3" x1="469.9" y1="271.1" x2="110" y2="631"/>
				<line class="st3" x1="478" y1="290" x2="118.1" y2="649.9"/>
				<line class="st3" x1="494.8" y1="301.5" x2="134.8" y2="661.4"/>
				<line class="st3" x1="511.5" y1="313" x2="151.5" y2="672.9"/>
				<line class="st3" x1="528.2" y1="324.5" x2="168.3" y2="684.4"/>
				<line class="st3" x1="544.9" y1="336" x2="185" y2="695.9"/>
				<line class="st3" x1="561.6" y1="347.5" x2="201.7" y2="707.4"/>
				<line class="st3" x1="578.3" y1="359" x2="218.4" y2="718.9"/>
				<line class="st3" x1="595.1" y1="370.5" x2="235.1" y2="730.4"/>
				<line class="st3" x1="611.8" y1="382" x2="251.8" y2="741.9"/>
				<line class="st3" x1="628.5" y1="393.5" x2="268.6" y2="753.5"/>
			</g>
		</g>
		<rect x="173.5" y="248.4" class="st4" width="281" height="373.9"/>
		<rect x="82.5" y="316.6" class="st0" width="281" height="373.9"/>
		<rect x="588.5" y="327.5" class="st5" width="295" height="373.9"/>
		<polyline class="st6" points="883.5,695.4 883.5,701.4 877.5,701.4 		"/>
		<line class="st7" x1="867.2" y1="701.4" x2="599.7" y2="701.4"/>
		<polyline class="st6" points="594.5,701.4 588.5,701.4 588.5,695.4 		"/>
		<line class="st8" x1="588.5" y1="685.4" x2="588.5" y2="338.5"/>
		<polyline class="st6" points="588.5,333.5 588.5,327.5 594.5,327.5 		"/>
		<line class="st7" x1="604.8" y1="327.5" x2="872.3" y2="327.5"/>
		<polyline class="st6" points="877.5,327.5 883.5,327.5 883.5,333.5 		"/>
		<line class="st8" x1="883.5" y1="343.5" x2="883.5" y2="690.4"/>
		<rect x="935.5" y="327.5" class="st5" width="295" height="373.9"/>
		<polyline class="st6" points="1230.5,695.4 1230.5,701.4 1224.5,701.4 		"/>
		<line class="st7" x1="1214.2" y1="701.4" x2="946.7" y2="701.4"/>
		<polyline class="st6" points="941.5,701.4 935.5,701.4 935.5,695.4 		"/>
		<line class="st8" x1="935.5" y1="685.4" x2="935.5" y2="338.5"/>
		<polyline class="st6" points="935.5,333.5 935.5,327.5 941.5,327.5 		"/>
		<line class="st7" x1="951.8" y1="327.5" x2="1219.3" y2="327.5"/>
		<polyline class="st6" points="1224.5,327.5 1230.5,327.5 1230.5,333.5 		"/>
		<line class="st8" x1="1230.5" y1="343.5" x2="1230.5" y2="690.4"/>
		<rect x="1292.5" y="327.5" class="st5" width="295" height="373.9"/>
		<polyline class="st6" points="1587.5,695.4 1587.5,701.4 1581.5,701.4 		"/>
		<line class="st7" x1="1571.2" y1="701.4" x2="1303.7" y2="701.4"/>
		<polyline class="st6" points="1298.5,701.4 1292.5,701.4 1292.5,695.4 		"/>
		<line class="st8" x1="1292.5" y1="685.4" x2="1292.5" y2="338.5"/>
		<polyline class="st6" points="1292.5,333.5 1292.5,327.5 1298.5,327.5 		"/>
		<line class="st7" x1="1308.8" y1="327.5" x2="1576.3" y2="327.5"/>
		<polyline class="st6" points="1581.5,327.5 1587.5,327.5 1587.5,333.5 		"/>
		<line class="st8" x1="1587.5" y1="343.5" x2="1587.5" y2="690.4"/>
		<circle class="st9" cx="249.5" cy="780.8" r="33"/>
		<circle class="st0" cx="1738.5" cy="780.5" r="33"/>
		<rect x="340.5" y="766.5" class="st9" width="1307" height="30"/>
		<path class="st10" d="M112.5,295.4c0.4-5.6,2.2-10,5.4-13.1c3.9-3.7,9.7-5.4,17.4-5.2l0.6-9.1l21.1,17.3l-23.2,14.4l0.6-9
			c-3.7-0.3-7.4,0-11,1c-2.9,1-5.6,2.6-7.9,4.7l-3.2,2.7L112.5,295.4z"/>
	</g>
	<g id="French">
		<path class="st10" d="M437.2,224.4V192h21.5v2.6h-18.5v11.7h16.7v2.6h-16.7v12.9h18.9v2.6L437.2,224.4z"/>
		<path class="st10" d="M466,224.4V192h21.5v2.6H469v11.7h16.7v2.6H469v12.9h19v2.6L466,224.4z"/>
		<path class="st10" d="M496,214.7c0.1,1.3,0.4,2.5,1,3.7c0.5,1,1.2,1.8,2,2.4c0.9,0.6,1.8,1.1,2.9,1.4c1.1,0.3,2.3,0.4,3.5,0.4
			c1.3,0,2.5-0.2,3.7-0.5c0.9-0.3,1.8-0.8,2.6-1.5c0.6-0.6,1.1-1.3,1.5-2.1c0.3-0.8,0.5-1.7,0.5-2.6c0-1.1-0.3-2.2-0.9-3.1
			c-0.6-0.8-1.4-1.5-2.2-1.9c-1-0.5-2.1-0.9-3.1-1.2c-1.2-0.3-2.4-0.6-3.6-0.9s-2.5-0.6-3.6-1c-1.1-0.4-2.2-0.9-3.1-1.6
			c-0.9-0.7-1.7-1.5-2.2-2.6c-0.6-1.2-0.9-2.6-0.9-3.9c0-1.1,0.2-2.2,0.7-3.2c0.5-1.1,1.2-2,2.1-2.8c1-0.9,2.2-1.5,3.4-1.9
			c1.5-0.5,3.2-0.7,4.8-0.7c1.6,0,3.3,0.2,4.8,0.8c1.3,0.5,2.5,1.2,3.4,2.1c0.9,0.9,1.6,1.9,2,3.1c0.5,1.2,0.7,2.5,0.7,3.7h-2.9
			c0-1.1-0.2-2.2-0.7-3.2c-0.4-0.9-1-1.6-1.8-2.2c-0.8-0.6-1.6-1-2.6-1.3c-1-0.3-2-0.4-3-0.4c-1.3,0-2.7,0.2-3.9,0.6
			c-1,0.4-1.8,0.9-2.5,1.7c-0.6,0.7-1.1,1.4-1.3,2.3c-0.2,0.8-0.3,1.7-0.1,2.5c0.1,1,0.6,1.8,1.3,2.5c0.7,0.7,1.5,1.2,2.4,1.6
			c1,0.4,2.1,0.8,3.2,1c1.2,0.3,2.3,0.5,3.5,0.8c1.2,0.3,2.3,0.6,3.5,1c1.1,0.4,2.1,0.9,3,1.6c0.9,0.7,1.6,1.5,2.1,2.5
			c0.6,1.2,0.8,2.5,0.8,3.9c0.1,2.7-1,5.3-3.1,7c-2.1,1.6-5,2.5-8.7,2.5c-1.6,0-3.2-0.2-4.7-0.6c-1.4-0.4-2.6-1.1-3.7-2
			c-1.1-0.9-1.9-2-2.5-3.3c-0.6-1.5-0.9-3-0.9-4.6L496,214.7z"/>
		<path class="st10" d="M133,884.4V852h11.8c1.8-0.1,3.5,0.2,5.2,0.7c1.2,0.4,2.3,1.1,3.2,2c0.8,0.8,1.4,1.8,1.7,2.9
			c0.3,1.1,0.5,2.3,0.5,3.4c0.1,1.6-0.3,3.1-1.1,4.5c-0.7,1.1-1.7,2.1-2.9,2.8c-1.2,0.7-2.6,1.2-4,1.4c-1.5,0.3-3,0.4-4.5,0.4H136
			v14.3L133,884.4z M143.1,867.4c1.3,0,2.6-0.1,3.9-0.3c1-0.1,2-0.5,2.9-1c0.8-0.5,1.4-1.2,1.9-2c0.5-1.1,0.7-2.2,0.6-3.3
			c0.1-1.8-0.6-3.5-2-4.6c-1.3-1-3.5-1.6-6.4-1.6h-7.9v12.9L143.1,867.4z"/>
		<path class="st10" d="M163.1,884.4h-2.7V861h2.7v4.4h0.1c0.5-1.6,1.5-2.9,2.9-3.9c1.4-0.8,3.1-1.2,4.7-1.1v2.9
			c-1.3-0.1-2.6,0.2-3.8,0.7c-1,0.5-1.8,1.2-2.4,2.1c-0.6,0.9-1,2-1.2,3.1c-0.2,1.2-0.3,2.5-0.3,3.7V884.4z"/>
		<path class="st10" d="M176.1,873.3c0,1.2,0.2,2.4,0.5,3.6c0.3,1.1,0.8,2,1.5,2.9c0.7,0.8,1.5,1.5,2.5,2c2.6,1.2,5.6,1,8-0.7
			c1.3-1,2.2-2.4,2.5-4h3c-0.3,1.1-0.8,2.1-1.3,3.1c-0.5,0.9-1.2,1.8-2,2.5c-0.8,0.7-1.8,1.3-2.9,1.6c-1.2,0.4-2.6,0.6-3.9,0.6
			c-1.7,0-3.3-0.3-4.8-1c-1.3-0.6-2.4-1.5-3.3-2.6c-0.9-1.1-1.6-2.5-1.9-3.9c-0.4-1.6-0.6-3.2-0.6-4.8c0-1.6,0.2-3.2,0.7-4.7
			c0.5-1.4,1.2-2.8,2.1-3.9c0.9-1.1,2.1-2,3.4-2.7c1.4-0.7,2.9-1,4.5-1c2.9-0.1,5.7,1.1,7.6,3.3c1.8,2.2,2.7,5.4,2.7,9.6
			L176.1,873.3z M191.3,871.1c0-1.1-0.2-2.2-0.5-3.2c-0.3-1-0.8-1.8-1.4-2.6c-0.6-0.7-1.4-1.3-2.3-1.8c-1-0.5-2.1-0.7-3.2-0.7
			c-1.1,0-2.2,0.2-3.2,0.7c-0.9,0.4-1.7,1-2.3,1.8c-0.7,0.8-1.2,1.7-1.6,2.6c-0.4,1-0.6,2.1-0.8,3.2H191.3z M181.1,858.5l5-6.3h3.5
			l-6.2,6.3H181.1z"/>
		<path class="st10" d="M201,877.1c0.2,1.6,1,3.2,2.3,4.3c1.4,0.9,3,1.3,4.7,1.2c0.9,0,1.7-0.1,2.6-0.4c0.7-0.2,1.3-0.6,1.8-1
			c0.4-0.4,0.8-0.8,1.1-1.4c0.2-0.5,0.4-1.1,0.4-1.6c0.1-1-0.3-1.9-1.1-2.5c-0.8-0.6-1.8-1-2.8-1.3c-1.2-0.3-2.4-0.6-3.6-0.8
			c-1.2-0.2-2.4-0.5-3.6-1c-1.1-0.4-2-1.1-2.8-1.9c-0.8-1-1.2-2.3-1.1-3.5c-0.1-1.8,0.7-3.6,2.1-4.8c1.7-1.3,3.8-2,6-1.9
			c2.2-0.1,4.3,0.5,6.1,1.7c1.6,1.1,2.5,3,2.9,5.7h-2.7c-0.1-1.5-0.8-2.9-2.1-3.8c-1.3-0.8-2.8-1.2-4.3-1.1
			c-1.4-0.1-2.8,0.3-3.9,1.1c-0.9,0.7-1.4,1.8-1.4,2.9c0,0.9,0.4,1.8,1.1,2.4c0.8,0.6,1.8,1.1,2.8,1.3c1.1,0.3,2.3,0.7,3.6,0.9
			c1.2,0.3,2.4,0.6,3.6,1.2c1.1,0.5,2,1.1,2.8,2c0.8,1,1.2,2.2,1.1,3.5c0,1-0.2,2-0.7,3c-0.5,0.9-1.2,1.6-2,2.1
			c-0.9,0.6-1.9,1-3,1.3c-1.2,0.3-2.5,0.4-3.8,0.4c-1.3,0-2.5-0.2-3.7-0.6c-1-0.4-1.9-0.9-2.7-1.7c-0.7-0.7-1.3-1.6-1.8-2.5
			c-0.4-1-0.7-2-0.7-3.1L201,877.1z"/>
		<path class="st10" d="M223.6,873.3c0,1.2,0.2,2.4,0.5,3.6c0.3,1.1,0.8,2,1.5,2.9c0.7,0.8,1.5,1.5,2.5,2c2.6,1.2,5.6,1,8-0.7
			c1.3-1,2.2-2.4,2.5-4h3c-0.3,1.1-0.8,2.1-1.3,3.1c-0.5,0.9-1.2,1.8-2,2.5c-0.8,0.7-1.8,1.3-2.9,1.6c-1.2,0.4-2.6,0.6-3.9,0.6
			c-1.7,0-3.3-0.3-4.8-1c-1.3-0.6-2.4-1.5-3.3-2.6c-0.9-1.1-1.6-2.5-1.9-3.9c-0.4-1.6-0.6-3.2-0.6-4.8c0-1.6,0.2-3.3,0.7-4.8
			c0.5-1.4,1.2-2.8,2.1-3.9c0.9-1.1,2.1-2,3.4-2.7c1.4-0.7,2.9-1,4.5-1c2.9-0.1,5.7,1.1,7.6,3.3c1.8,2.2,2.7,5.4,2.7,9.6
			L223.6,873.3z M238.8,871.1c0-1.1-0.2-2.2-0.5-3.2c-0.3-1-0.8-1.8-1.4-2.6c-0.6-0.7-1.4-1.3-2.3-1.8c-1-0.5-2.1-0.7-3.2-0.7
			c-1.1,0-2.2,0.2-3.2,0.7c-0.9,0.4-1.7,1-2.3,1.8c-0.7,0.8-1.2,1.7-1.6,2.6c-0.4,1-0.6,2.1-0.8,3.2H238.8z"/>
		<path class="st10" d="M249.7,884.4H247V861h2.7v3.3c1-1.1,2.1-2,3.3-2.8c1.3-0.7,2.7-1.1,4.2-1.1c1.4,0,2.7,0.2,4,0.7
			c1.3,0.5,2.4,1.4,3.1,2.6c0.5,0.8,0.9,1.7,1,2.6c0.1,0.9,0.2,1.8,0.2,2.8v15.3h-2.7v-15.2c0.1-1.7-0.4-3.4-1.4-4.7
			c-0.9-1-2.5-1.6-4.6-1.6c-0.8,0-1.6,0.1-2.3,0.4c-0.7,0.2-1.3,0.6-1.9,1c-0.5,0.4-1,0.9-1.4,1.4c-0.4,0.5-0.7,1.1-0.9,1.7
			c-0.3,0.7-0.4,1.4-0.5,2.2c-0.1,0.7-0.1,1.4-0.1,2.3L249.7,884.4z"/>
		<path class="st10" d="M280.2,884.5c-0.3,0.1-0.8,0.2-1.3,0.3c-0.6,0.2-1.2,0.2-1.8,0.2c-1.1,0.1-2.2-0.3-3.1-1
			c-0.7-0.7-1-1.9-1-3.6v-17.1h-3.3V861h3.3v-6.5h2.7v6.5h4.4v2.3h-4.4v16c0,0.6,0,1.1,0,1.5c0,0.3,0.1,0.7,0.3,1
			c0.2,0.3,0.4,0.5,0.7,0.6c0.4,0.1,0.9,0.2,1.3,0.2c0.4,0,0.7,0,1.1-0.1c0.4-0.1,0.7-0.1,1.1-0.2L280.2,884.5z"/>
		<path class="st10" d="M295.2,870.8c0.5-0.1,1.1-0.2,1.8-0.3c0.6-0.1,1.2-0.3,1.7-0.5c0.4-0.2,0.7-0.6,0.8-1.1
			c0.1-0.5,0.2-0.9,0.2-1.4c0-1.3-0.4-2.5-1.3-3.4c-0.9-0.9-2.4-1.3-4.5-1.3c-0.9,0-1.7,0.1-2.6,0.2c-0.7,0.1-1.4,0.4-2,0.9
			c-0.6,0.4-1.1,1-1.4,1.6c-0.4,0.8-0.7,1.7-0.7,2.5h-2.8c0.1-1.2,0.4-2.4,1-3.5c0.5-0.9,1.2-1.8,2.1-2.4c0.9-0.6,1.9-1.1,3-1.3
			c1.2-0.3,2.4-0.4,3.6-0.4c1.1,0,2.2,0.1,3.3,0.4c1,0.2,1.9,0.6,2.7,1.2c0.8,0.6,1.4,1.3,1.8,2.2c0.5,1.1,0.7,2.2,0.7,3.4v12.7
			c0,1,0.2,1.7,0.6,2s1.1,0.2,2.3-0.2v2.1l-0.9,0.3c-0.4,0.1-0.8,0.2-1.2,0.2c-0.4,0-0.8,0-1.2-0.1c-0.4,0-0.8-0.2-1.1-0.4
			c-0.3-0.2-0.5-0.5-0.6-0.8c-0.2-0.3-0.3-0.7-0.3-1c-0.1-0.4-0.1-0.8-0.1-1.2c-2.2,2.5-5.4,3.9-8.7,3.9c-1,0-2-0.1-3-0.4
			c-0.9-0.2-1.8-0.7-2.5-1.3c-0.7-0.6-1.3-1.3-1.7-2.1c-0.4-0.9-0.7-2-0.6-3c0-4,2.7-6.3,8.1-7L295.2,870.8z M299.8,872.1
			c-1.1,0.5-2.3,0.8-3.5,0.9c-1.2,0.2-2.3,0.3-3.5,0.4c-1.7,0-3.4,0.5-4.8,1.4c-1.2,0.8-1.8,2.1-1.7,3.5c0,0.6,0.1,1.3,0.4,1.9
			c0.3,0.5,0.7,1,1.1,1.3c0.5,0.4,1,0.6,1.6,0.8c0.6,0.2,1.2,0.2,1.9,0.3c1.1,0,2.1-0.1,3.1-0.4c1-0.2,1.9-0.7,2.7-1.2
			c0.8-0.6,1.4-1.3,1.9-2.1c0.5-0.9,0.7-2,0.7-3L299.8,872.1z"/>
		<path class="st10" d="M317.7,884.5c-0.3,0.1-0.8,0.2-1.3,0.3c-0.6,0.2-1.2,0.2-1.8,0.2c-1.1,0.1-2.2-0.3-3.1-1
			c-0.7-0.7-1-1.9-1-3.6v-17.1h-3.3V861h3.3v-6.5h2.7v6.5h4.4v2.3h-4.4v16c0,0.6,0,1.1,0,1.5c0,0.3,0.1,0.7,0.3,1
			c0.2,0.3,0.4,0.5,0.7,0.6c0.4,0.1,0.9,0.2,1.3,0.2c0.4,0,0.7,0,1.1-0.1c0.4-0.1,0.7-0.1,1.1-0.2L317.7,884.5z"/>
		<path class="st10" d="M322.3,856v-4h3v4H322.3z M322.4,884.4V861h2.7v23.3L322.4,884.4z"/>
		<path class="st10" d="M341.3,885c-1.4,0-2.9-0.3-4.2-0.8c-1.3-0.5-2.5-1.3-3.4-2.3c-1-1.1-1.8-2.4-2.3-3.8
			c-0.6-1.7-0.9-3.5-0.9-5.4c0-1.6,0.2-3.2,0.7-4.8c0.4-1.4,1.1-2.7,2-3.9c0.9-1.1,2.1-2,3.4-2.6c1.5-0.7,3.1-1,4.7-1
			c1.6,0,3.3,0.3,4.8,1c1.3,0.6,2.5,1.5,3.4,2.6c0.9,1.1,1.6,2.5,2,3.9c0.4,1.6,0.7,3.2,0.6,4.8c0,1.7-0.2,3.4-0.8,5
			c-0.5,1.4-1.2,2.7-2.2,3.9c-0.9,1.1-2.1,1.9-3.4,2.5C344.3,884.7,342.8,885,341.3,885z M349.2,872.7c0-1.3-0.1-2.6-0.5-3.9
			c-0.3-1.1-0.7-2.2-1.4-3.1c-0.6-0.9-1.5-1.6-2.4-2.1c-1.1-0.5-2.4-0.8-3.6-0.8c-1.3,0-2.5,0.2-3.6,0.8c-1,0.5-1.8,1.3-2.5,2.2
			c-0.6,1-1.1,2-1.4,3.2c-0.3,1.2-0.5,2.4-0.5,3.7c0,1.4,0.2,2.7,0.5,4c0.3,1.1,0.8,2.2,1.5,3.1c0.7,0.9,1.5,1.5,2.5,2
			c1.1,0.5,2.2,0.7,3.4,0.7c1.3,0,2.5-0.3,3.6-0.8c1-0.5,1.8-1.3,2.5-2.2c0.6-1,1.1-2,1.4-3.2C349.1,875.2,349.2,873.9,349.2,872.7
			L349.2,872.7z"/>
		<path class="st10" d="M359.7,884.4H357V861h2.7v3.3c1-1.1,2.1-2,3.4-2.8c1.3-0.7,2.7-1.1,4.2-1.1c1.4,0,2.7,0.2,4,0.7
			c1.3,0.5,2.4,1.4,3.1,2.6c0.5,0.8,0.9,1.7,1,2.6c0.1,0.9,0.2,1.8,0.2,2.8v15.3h-2.7v-15.2c0.1-1.7-0.4-3.4-1.4-4.7
			c-0.9-1-2.5-1.6-4.6-1.6c-0.8,0-1.6,0.1-2.3,0.4c-0.7,0.2-1.3,0.6-1.9,1c-0.5,0.4-1,0.9-1.4,1.4c-0.4,0.5-0.7,1.1-0.9,1.7
			c-0.3,0.7-0.4,1.4-0.5,2.2c-0.1,0.7-0.1,1.4-0.1,2.3L359.7,884.4z"/>
		<path class="st10" d="M1653.2,878.4V846h11.1c0.9,0,1.8,0,2.7,0.1c0.9,0,1.7,0.2,2.6,0.3c0.8,0.2,1.7,0.4,2.4,0.7
			c0.8,0.3,1.6,0.8,2.3,1.3c1.1,0.8,2,1.7,2.7,2.9c0.7,1.1,1.2,2.3,1.6,3.6c0.4,1.2,0.7,2.5,0.9,3.8c0.2,1.2,0.2,2.3,0.3,3.5
			c0,1.1-0.1,2.2-0.2,3.3c-0.1,1.1-0.3,2.2-0.7,3.3c-0.3,1.1-0.7,2.1-1.2,3.1c-0.5,1-1.1,1.9-1.9,2.7c-0.7,0.8-1.5,1.5-2.4,2
			c-0.9,0.5-1.8,0.9-2.8,1.2c-1,0.3-2,0.5-3,0.6c-1,0.1-2.1,0.2-3.2,0.2L1653.2,878.4z M1656.2,875.8h7.3c1.3,0,2.6-0.1,3.9-0.3
			c1.3-0.2,2.6-0.6,3.7-1.2c1-0.5,2-1.3,2.7-2.2c0.7-0.9,1.2-1.9,1.6-3c0.4-1.1,0.7-2.3,0.9-3.4c0.2-1.1,0.2-2.3,0.3-3.5
			c0-1.2-0.1-2.4-0.2-3.6c-0.1-1.2-0.4-2.3-0.8-3.5c-0.4-1.1-1-2.1-1.7-3c-0.8-0.9-1.7-1.7-2.8-2.3c-1.1-0.5-2.2-0.9-3.4-1
			c-1.3-0.1-2.7-0.2-4-0.2h-7.3L1656.2,875.8z"/>
		<path class="st10" d="M1688.2,867.3c0,1.2,0.2,2.4,0.5,3.6c0.3,1.1,0.8,2,1.5,2.9c0.7,0.8,1.5,1.5,2.4,2c2.6,1.2,5.6,1,8-0.7
			c1.3-1,2.2-2.4,2.5-4h3c-0.3,1.1-0.7,2.1-1.3,3.1c-0.5,0.9-1.2,1.8-2,2.5c-0.8,0.7-1.8,1.3-2.9,1.6c-1.2,0.4-2.6,0.6-3.9,0.6
			c-1.7,0-3.3-0.3-4.8-1c-1.3-0.6-2.4-1.5-3.3-2.6c-0.9-1.1-1.6-2.5-1.9-3.9c-0.4-1.6-0.6-3.2-0.6-4.8c0-1.6,0.2-3.3,0.7-4.8
			c0.5-1.4,1.2-2.8,2.1-3.9c0.9-1.1,2.1-2,3.3-2.7c1.4-0.7,2.9-1,4.5-1c2.9-0.1,5.7,1.1,7.6,3.3c1.8,2.2,2.7,5.4,2.7,9.6
			L1688.2,867.3z M1703.4,865.1c0-1.1-0.2-2.2-0.5-3.2c-0.3-1-0.8-1.8-1.4-2.6c-0.6-0.7-1.4-1.3-2.3-1.8c-1-0.5-2.1-0.7-3.2-0.7
			c-1.1,0-2.2,0.2-3.2,0.7c-0.9,0.4-1.7,1-2.3,1.8c-0.7,0.8-1.2,1.7-1.6,2.6c-0.4,1-0.7,2.1-0.8,3.2H1703.4z M1693.3,852.5l5-6.3
			h3.5l-6.2,6.3H1693.3z"/>
		<path class="st10" d="M1729.4,862.4c-0.4-1.6-1.3-3-2.5-4.1c-1.3-1-2.8-1.5-4.4-1.5c-1.2,0-2.5,0.3-3.6,0.8
			c-1,0.6-1.8,1.3-2.4,2.3c-0.6,1-1.1,2.1-1.4,3.2c-0.3,1.2-0.4,2.4-0.4,3.6c0,1.2,0.1,2.4,0.4,3.6c0.3,1.1,0.7,2.2,1.4,3.2
			c0.6,0.9,1.5,1.7,2.4,2.2c1.1,0.6,2.3,0.9,3.6,0.8c1.8,0.1,3.5-0.5,4.8-1.7c1.3-1.2,2.1-2.8,2.3-4.6h2.9c-0.2,1.2-0.6,2.4-1.2,3.5
			c-0.5,1-1.2,2-2,2.8c-0.9,0.8-1.9,1.4-2.9,1.8c-2.9,0.9-6,0.8-8.7-0.3c-1.3-0.6-2.4-1.5-3.3-2.6c-0.9-1.2-1.6-2.5-1.9-3.9
			c-0.4-1.6-0.6-3.2-0.6-4.8c0-1.6,0.2-3.2,0.7-4.7c0.4-1.4,1.1-2.8,2-3.9c0.9-1.1,2-2.1,3.3-2.7c1.4-0.7,3-1,4.6-1
			c2.3-0.1,4.6,0.6,6.5,1.9c1.8,1.5,2.9,3.7,3.1,6L1729.4,862.4z"/>
		<path class="st10" d="M1739.5,850v-4h3v4H1739.5z M1739.6,878.4V855h2.7v23.3L1739.6,878.4z"/>
		<path class="st10" d="M1752.1,871.1c0.2,1.6,1,3.2,2.3,4.3c1.4,0.9,3,1.3,4.7,1.2c0.9,0,1.7-0.1,2.6-0.4c0.7-0.2,1.3-0.6,1.8-1
			c0.4-0.4,0.8-0.8,1.1-1.4c0.2-0.5,0.4-1.1,0.4-1.6c0.1-1-0.3-1.9-1.1-2.5c-0.8-0.6-1.8-1-2.8-1.3c-1.2-0.3-2.4-0.6-3.6-0.8
			c-1.2-0.2-2.4-0.5-3.6-1c-1.1-0.4-2-1.1-2.8-1.9c-0.8-1-1.2-2.3-1.1-3.5c-0.1-1.8,0.7-3.6,2.1-4.8c1.7-1.3,3.8-2,6-1.9
			c2.2-0.1,4.3,0.5,6.1,1.7c1.6,1.1,2.5,3,2.9,5.7h-2.7c-0.1-1.5-0.8-2.9-2-3.8c-1.3-0.8-2.8-1.2-4.3-1.1c-1.4-0.1-2.8,0.3-3.9,1.1
			c-0.9,0.7-1.4,1.8-1.3,2.9c0,0.9,0.4,1.8,1.1,2.4c0.8,0.6,1.8,1.1,2.8,1.3c1.1,0.3,2.3,0.7,3.6,0.9c1.2,0.3,2.4,0.6,3.6,1.2
			c1.1,0.5,2,1.1,2.8,2c0.8,1,1.2,2.2,1.1,3.5c0,1-0.2,2-0.7,3c-0.5,0.9-1.2,1.6-2,2.1c-0.9,0.6-1.9,1-3,1.3
			c-1.2,0.3-2.5,0.4-3.8,0.4c-1.3,0-2.5-0.2-3.7-0.6c-1-0.4-1.9-0.9-2.7-1.7c-0.7-0.7-1.3-1.6-1.8-2.5c-0.4-1-0.7-2-0.7-3.1
			L1752.1,871.1z"/>
		<path class="st10" d="M1774.6,850v-4h3v4H1774.6z M1774.7,878.4V855h2.7v23.3L1774.7,878.4z"/>
		<path class="st10" d="M1794.9,879c-1.4,0-2.9-0.3-4.2-0.8c-1.3-0.5-2.5-1.3-3.4-2.3c-1-1.1-1.8-2.4-2.3-3.8
			c-0.6-1.7-0.9-3.5-0.8-5.4c0-1.6,0.2-3.2,0.7-4.8c0.4-1.4,1.1-2.7,2-3.9c0.9-1.1,2.1-2,3.4-2.6c3-1.3,6.5-1.3,9.5,0
			c1.3,0.6,2.5,1.5,3.4,2.6c0.9,1.1,1.6,2.5,2,3.9c0.4,1.6,0.7,3.2,0.7,4.8c0,1.7-0.2,3.4-0.8,5c-0.5,1.4-1.2,2.7-2.2,3.9
			c-0.9,1.1-2.1,1.9-3.4,2.5C1797.9,878.7,1796.4,879,1794.9,879z M1802.8,866.7c0-1.3-0.1-2.6-0.4-3.9c-0.3-1.1-0.7-2.2-1.4-3.1
			c-0.6-0.9-1.5-1.6-2.4-2.1c-1.1-0.5-2.4-0.8-3.6-0.8c-1.3,0-2.5,0.2-3.6,0.8c-1,0.5-1.8,1.3-2.5,2.2c-0.6,1-1.1,2-1.4,3.2
			c-0.3,1.2-0.5,2.4-0.4,3.7c0,1.4,0.2,2.7,0.5,4c0.3,1.1,0.8,2.2,1.5,3.1c0.7,0.9,1.5,1.5,2.5,2c1.1,0.5,2.2,0.7,3.4,0.7
			c1.3,0,2.5-0.3,3.6-0.8c1-0.5,1.8-1.3,2.5-2.2c0.6-1,1.1-2,1.4-3.2C1802.6,869.2,1802.8,867.9,1802.8,866.7L1802.8,866.7z"/>
		<path class="st10" d="M1814.6,878.4h-2.7V855h2.7v3.3c1-1.1,2.1-2,3.3-2.8c1.3-0.7,2.7-1.1,4.2-1.1c1.4,0,2.7,0.2,4,0.7
			c1.3,0.5,2.4,1.4,3.1,2.6c0.5,0.8,0.9,1.7,1,2.6c0.1,0.9,0.2,1.8,0.2,2.8v15.3h-2.7v-15.2c0.1-1.7-0.4-3.4-1.4-4.7
			c-0.9-1-2.5-1.6-4.6-1.6c-0.8,0-1.6,0.1-2.3,0.4c-0.7,0.2-1.3,0.6-1.9,1c-1.1,0.8-1.9,1.9-2.3,3.2c-0.3,0.7-0.4,1.4-0.5,2.2
			c-0.1,0.7-0.1,1.4-0.1,2.3L1814.6,878.4z"/>
		<path class="st10" d="M1342.1,513.4l12.7-32.4h3.5l12.4,32.4h-3.2l-3.7-10.2H1349l-3.8,10.2L1342.1,513.4z M1350.1,500.6h12.7
			l-6.3-17L1350.1,500.6z"/>
		<path class="st10" d="M1391.8,490h2.7v23.3h-2.7v-3.2c-0.4,0.4-0.8,0.9-1.2,1.3c-0.5,0.5-1,0.9-1.6,1.2c-0.6,0.4-1.3,0.7-2,0.9
			c-0.9,0.3-1.8,0.4-2.7,0.4c-1.3,0-2.7-0.2-3.9-0.7c-1-0.4-1.9-1-2.5-1.8c-0.7-0.8-1.1-1.7-1.4-2.7c-0.3-1.1-0.4-2.3-0.4-3.4V490
			h2.7v15.3c-0.1,1.7,0.4,3.3,1.4,4.6c0.9,1.1,2.5,1.6,4.6,1.6c1,0,2.1-0.2,3-0.7c0.9-0.4,1.6-1,2.2-1.8c0.6-0.8,1.1-1.8,1.4-2.8
			c0.3-1.2,0.5-2.3,0.5-3.5L1391.8,490z"/>
		<path class="st10" d="M1420.3,481h2.7v32.4h-2.7v-4.1h-0.1c-0.4,0.8-0.9,1.5-1.5,2c-0.6,0.6-1.3,1.1-2,1.5
			c-0.7,0.4-1.5,0.7-2.3,0.9c-0.7,0.2-1.5,0.3-2.3,0.3c-1.7,0-3.3-0.3-4.8-1c-1.3-0.6-2.4-1.5-3.3-2.6c-0.9-1.2-1.5-2.5-1.9-3.9
			c-0.4-1.6-0.6-3.2-0.6-4.8c0-1.6,0.2-3.2,0.6-4.7c0.4-1.4,1-2.8,1.9-3.9c0.9-1.1,2-2.1,3.2-2.7c1.4-0.7,3-1,4.6-1
			c1.6,0,3.3,0.4,4.8,1.1c1.5,0.7,2.7,1.8,3.6,3.3L1420.3,481z M1420.3,501.6c0-1.3-0.2-2.5-0.5-3.8c-0.3-1.1-0.9-2.2-1.6-3.1
			c-0.7-0.9-1.5-1.6-2.5-2.1c-1-0.5-2.2-0.8-3.3-0.8c-1.3,0-2.5,0.2-3.6,0.8c-1,0.5-1.9,1.3-2.5,2.3c-0.7,1-1.2,2.2-1.4,3.4
			c-0.3,1.4-0.4,2.7-0.4,4.1c0,1.3,0.2,2.6,0.6,3.9c0.4,1.1,0.9,2,1.7,2.9c0.7,0.8,1.6,1.4,2.5,1.8c1,0.4,2.1,0.6,3.2,0.6
			c1.2,0,2.3-0.2,3.4-0.8c1-0.5,1.8-1.2,2.5-2.1c0.7-0.9,1.2-2,1.5-3.1C1420.1,504.3,1420.3,503,1420.3,501.6L1420.3,501.6z"/>
		<path class="st10" d="M1431.3,485v-4h3v4H1431.3z M1431.5,513.4V490h2.7v23.3L1431.5,513.4z"/>
		<path class="st10" d="M1444,502.3c0,1.2,0.2,2.4,0.5,3.6c0.3,1.1,0.8,2.1,1.5,2.9c0.7,0.8,1.5,1.5,2.4,2c2.6,1.2,5.6,1,8-0.6
			c1.3-1,2.2-2.4,2.5-4h3c-0.3,1.1-0.8,2.1-1.3,3.1c-0.5,0.9-1.2,1.8-2,2.5c-0.8,0.7-1.8,1.3-2.9,1.6c-1.2,0.4-2.6,0.6-3.9,0.6
			c-1.7,0-3.3-0.3-4.8-1c-1.3-0.6-2.4-1.5-3.3-2.6c-0.9-1.1-1.6-2.5-1.9-3.9c-0.4-1.6-0.6-3.2-0.6-4.8c0-1.6,0.2-3.3,0.7-4.8
			c0.5-1.4,1.2-2.7,2.1-3.9c0.9-1.1,2.1-2,3.3-2.7c1.4-0.7,2.9-1,4.5-1c2.9-0.1,5.7,1.1,7.6,3.3c1.8,2.2,2.7,5.4,2.7,9.6L1444,502.3
			z M1459.2,500.1c0-1.1-0.2-2.2-0.5-3.2c-0.3-1-0.8-1.8-1.4-2.6c-0.6-0.7-1.4-1.3-2.3-1.8c-1-0.5-2.1-0.7-3.2-0.6
			c-1.1,0-2.2,0.2-3.2,0.7c-0.9,0.4-1.7,1-2.3,1.8c-0.7,0.8-1.2,1.7-1.6,2.6c-0.4,1-0.6,2.1-0.8,3.1H1459.2z"/>
		<path class="st10" d="M1471.4,513.4h-2.7V490h2.7v3.2c1-1.1,2.1-2,3.3-2.8c1.3-0.7,2.7-1.1,4.2-1.1c1.4,0,2.7,0.2,4,0.7
			c1.3,0.5,2.4,1.4,3.1,2.6c0.5,0.8,0.9,1.7,1,2.6c0.1,0.9,0.2,1.8,0.2,2.8v15.3h-2.7v-15.2c0.1-1.7-0.4-3.4-1.4-4.7
			c-0.9-1-2.5-1.6-4.6-1.6c-0.8,0-1.6,0.1-2.3,0.4c-0.7,0.2-1.3,0.6-1.9,1c-1.1,0.8-1.9,1.9-2.3,3.1c-0.3,0.7-0.4,1.4-0.5,2.2
			c-0.1,0.7-0.1,1.4-0.1,2.3L1471.4,513.4z"/>
		<path class="st10" d="M1511.5,497.4c-0.4-1.6-1.3-3-2.5-4.1c-1.3-1-2.8-1.5-4.4-1.5c-1.2,0-2.5,0.3-3.6,0.9
			c-1,0.6-1.8,1.3-2.4,2.3c-0.6,1-1.1,2.1-1.4,3.2c-0.3,1.2-0.4,2.4-0.4,3.6c0,1.2,0.1,2.4,0.4,3.6c0.3,1.1,0.7,2.2,1.4,3.1
			c0.6,0.9,1.5,1.7,2.4,2.2c1.1,0.6,2.3,0.9,3.6,0.8c1.8,0.1,3.5-0.5,4.8-1.7c1.3-1.2,2.1-2.8,2.3-4.6h2.9c-0.2,1.2-0.6,2.4-1.1,3.5
			c-0.5,1-1.2,2-2,2.8c-0.9,0.8-1.9,1.4-3,1.8c-2.9,0.9-6,0.8-8.7-0.3c-1.3-0.6-2.4-1.5-3.3-2.6c-0.9-1.2-1.6-2.5-1.9-3.9
			c-0.4-1.6-0.6-3.2-0.6-4.8c0-1.6,0.2-3.2,0.7-4.7c0.4-1.4,1.1-2.8,2-3.9c0.9-1.1,2.1-2.1,3.4-2.7c1.4-0.7,3-1,4.6-1
			c2.3-0.1,4.6,0.6,6.6,1.9c1.8,1.5,2.9,3.7,3.1,6L1511.5,497.4z"/>
		<path class="st10" d="M1523,502.3c0,1.2,0.2,2.4,0.5,3.6c0.3,1.1,0.8,2,1.5,2.9c0.7,0.8,1.5,1.5,2.4,2c2.6,1.2,5.6,1,8-0.6
			c1.3-1,2.2-2.4,2.5-4h3c-0.3,1.1-0.7,2.1-1.3,3.1c-0.5,0.9-1.2,1.8-2,2.5c-0.8,0.7-1.8,1.3-2.9,1.6c-1.2,0.4-2.6,0.6-3.9,0.6
			c-1.7,0-3.3-0.3-4.8-1c-1.3-0.6-2.4-1.5-3.3-2.6c-0.9-1.1-1.6-2.5-1.9-3.9c-0.4-1.6-0.6-3.2-0.6-4.8c0-1.6,0.2-3.3,0.8-4.8
			c0.4-1.4,1.2-2.7,2.1-3.9c0.9-1.1,2.1-2,3.3-2.7c1.4-0.7,2.9-1,4.5-1c2.9-0.1,5.7,1.1,7.6,3.3c1.8,2.2,2.7,5.4,2.7,9.6L1523,502.3
			z M1538.2,500.1c0-1.1-0.2-2.2-0.5-3.2c-0.3-1-0.8-1.8-1.4-2.6c-0.6-0.7-1.4-1.3-2.3-1.8c-1-0.5-2.1-0.7-3.2-0.6
			c-1.1,0-2.2,0.2-3.2,0.7c-0.9,0.4-1.7,1-2.3,1.8c-0.7,0.8-1.2,1.7-1.6,2.6c-0.4,1-0.7,2.1-0.8,3.1H1538.2z"/>
		<path class="st10" d="M708,537.4V505h11.1c0.9,0,1.8,0,2.7,0.1c0.9,0,1.7,0.2,2.6,0.3c0.8,0.2,1.7,0.4,2.5,0.7
			c0.8,0.3,1.6,0.8,2.3,1.3c1.1,0.8,2,1.7,2.7,2.9c0.7,1.1,1.2,2.3,1.6,3.6c0.4,1.2,0.7,2.5,0.8,3.8c0.2,1.2,0.2,2.3,0.3,3.5
			c0,1.1-0.1,2.2-0.2,3.3c-0.1,1.1-0.4,2.2-0.7,3.3c-0.3,1.1-0.7,2.1-1.2,3.1c-0.5,1-1.1,1.9-1.9,2.7c-0.7,0.8-1.5,1.5-2.5,2
			c-0.9,0.5-1.8,0.9-2.8,1.2c-1,0.3-2,0.5-3,0.6c-1,0.1-2.1,0.2-3.2,0.2L708,537.4z M711.1,534.8h7.3c1.3,0,2.6-0.1,3.9-0.3
			c1.3-0.2,2.6-0.6,3.7-1.2c1-0.5,2-1.3,2.7-2.2c0.7-0.9,1.2-1.9,1.6-3c0.4-1.1,0.7-2.3,0.8-3.4c0.2-1.1,0.2-2.3,0.3-3.5
			c0-1.2-0.1-2.4-0.2-3.6c-0.1-1.2-0.4-2.3-0.9-3.5c-0.4-1.1-1-2.1-1.7-3c-0.8-0.9-1.7-1.7-2.8-2.3c-1.1-0.5-2.2-0.9-3.4-1
			c-1.3-0.1-2.7-0.2-4-0.2h-7.3L711.1,534.8z"/>
		<path class="st10" d="M744.8,522.6v14.7l-3.1,0V505h12.7c3.6,0,6.3,0.7,8.2,2s2.8,3.5,2.8,6.5c0.1,1.7-0.3,3.4-1.2,4.9
			c-1,1.4-2.4,2.4-4,3.1c0.9,0.3,1.6,0.8,2.3,1.4c0.5,0.6,1,1.4,1.2,2.2c0.3,0.8,0.4,1.7,0.5,2.6c0.1,0.9,0.1,1.8,0.2,2.6
			c0,1.2,0.1,2.3,0.2,3.1c0,0.7,0.1,1.3,0.3,2c0.1,0.4,0.2,0.8,0.4,1.2c0.1,0.3,0.3,0.5,0.5,0.7v0.3l-3.4,0
			c-0.4-0.7-0.6-1.5-0.7-2.3c-0.1-1-0.2-2-0.3-3s-0.1-2.1-0.2-3.1c0-0.8-0.1-1.6-0.2-2.4c-0.1-0.8-0.4-1.5-0.9-2.1
			c-0.4-0.5-0.9-0.9-1.5-1.2c-0.6-0.3-1.3-0.5-1.9-0.5c-0.7-0.1-1.5-0.1-2.2-0.1L744.8,522.6z M754.3,520c1.1,0,2.1-0.1,3.2-0.4
			c0.9-0.2,1.8-0.6,2.5-1.2c0.7-0.5,1.3-1.2,1.7-2c0.4-0.9,0.7-1.9,0.6-2.9c0-1-0.2-2.1-0.7-3c-0.4-0.8-1-1.4-1.8-1.9
			c-0.8-0.5-1.6-0.8-2.5-0.9c-1-0.2-2-0.3-3-0.3h-9.7V520L754.3,520z"/>
		<path class="st10" d="M971.1,513.3c-0.3-2.1-1.4-4-3.1-5.2c-1.8-1.1-3.9-1.7-6-1.6c-1.6-0.1-3.1,0.3-4.5,1
			c-1.2,0.7-2.3,1.6-3.1,2.8c-0.8,1.2-1.4,2.6-1.8,4.1c-0.4,1.6-0.6,3.2-0.6,4.9c0,1.6,0.2,3.2,0.5,4.7c0.3,1.5,0.9,2.9,1.7,4.1
			c0.8,1.2,1.9,2.2,3.1,2.9c1.5,0.8,3.2,1.2,4.9,1.1c1.1,0,2.3-0.2,3.4-0.6c1-0.4,1.9-0.9,2.7-1.7c0.8-0.7,1.4-1.6,1.9-2.5
			c0.5-1,0.9-2.1,1.2-3.2h2.8c-0.3,1.4-0.8,2.7-1.4,3.9c-0.6,1.2-1.4,2.3-2.4,3.3c-1.1,1-2.3,1.7-3.6,2.2c-1.6,0.6-3.3,0.8-5,0.8
			c-2,0.1-3.9-0.4-5.7-1.2c-1.5-0.8-2.8-1.9-3.9-3.3c-1-1.5-1.8-3.1-2.2-4.8c-0.5-1.9-0.7-3.9-0.7-5.8c-0.1-2.4,0.3-4.7,1-7
			c0.6-1.8,1.5-3.4,2.8-4.7c1.2-1.2,2.6-2.1,4.2-2.6c1.7-0.6,3.5-0.8,5.3-0.8c1.4,0,2.8,0.2,4.1,0.6c1.2,0.4,2.4,0.9,3.4,1.7
			c1,0.8,1.8,1.8,2.4,2.9c0.7,1.2,1.1,2.6,1.3,3.9L971.1,513.3z"/>
		<path class="st10" d="M988.6,534.3c-1.3,0-2.5-0.3-3.7-0.7c-1.1-0.4-2.2-1.1-3-2c-0.9-1-1.6-2.1-2.1-3.4c-0.5-1.5-0.8-3.1-0.8-4.8
			c0-1.4,0.2-2.9,0.6-4.3c0.4-1.3,1-2.4,1.8-3.5c0.8-1,1.8-1.8,3-2.3c2.7-1.1,5.7-1.1,8.4,0c1.2,0.5,2.2,1.3,3,2.3
			c0.8,1,1.4,2.2,1.8,3.5c0.4,1.4,0.6,2.8,0.6,4.3c0,1.5-0.2,3-0.7,4.5c-0.4,1.3-1.1,2.4-1.9,3.4c-0.8,1-1.8,1.7-3,2.2
			C991.4,534.1,990,534.4,988.6,534.3z M995.6,523.4c0-1.2-0.1-2.3-0.4-3.4c-0.2-1-0.7-1.9-1.2-2.8c-0.6-0.8-1.3-1.4-2.2-1.9
			c-1-0.5-2.1-0.7-3.2-0.7c-1.1,0-2.2,0.2-3.2,0.7c-0.9,0.5-1.6,1.2-2.2,2c-0.6,0.9-1,1.8-1.2,2.8c-0.3,1.1-0.4,2.2-0.4,3.3
			c0,1.2,0.1,2.4,0.5,3.5c0.3,1,0.7,1.9,1.3,2.8c0.6,0.8,1.3,1.4,2.2,1.8c0.9,0.4,2,0.7,3,0.6c1.1,0,2.2-0.2,3.2-0.7
			c0.9-0.5,1.6-1.2,2.2-2c0.6-0.9,1-1.8,1.2-2.8C995.5,525.6,995.6,524.5,995.6,523.4L995.6,523.4z"/>
		<path class="st10" d="M1005.9,533.8h-2.4V513h2.4v3.1h0.1c0.6-1.2,1.5-2.1,2.6-2.7c1.2-0.6,2.4-1,3.8-0.9c0.8,0,1.6,0.1,2.4,0.3
			c0.6,0.2,1.2,0.5,1.7,0.9c0.5,0.4,0.8,0.8,1.2,1.3c0.3,0.5,0.6,1,0.8,1.6c0.6-1.3,1.6-2.3,2.8-3c1.2-0.7,2.6-1,4-1
			c1.2-0.1,2.3,0.2,3.4,0.7c0.8,0.4,1.5,1.1,1.9,1.8c0.5,0.8,0.8,1.7,0.9,2.6c0.1,1,0.2,2,0.2,3v13.1h-2.4v-14.2
			c0.1-1.2-0.3-2.5-0.9-3.5c-0.6-0.9-1.8-1.3-3.5-1.3c-1.8,0-3.6,0.9-4.7,2.4c-0.3,0.4-0.5,0.8-0.7,1.2c-0.2,0.5-0.3,1-0.4,1.5
			c-0.1,0.5-0.2,1-0.2,1.5c0,0.5-0.1,1-0.1,1.4v11.2h-2.4v-14.3c0.1-1.2-0.3-2.5-0.9-3.5c-0.6-0.9-1.8-1.3-3.5-1.3
			c-1.8,0-3.6,0.9-4.7,2.4c-0.3,0.4-0.5,0.8-0.7,1.2c-0.2,0.5-0.3,1-0.4,1.5c-0.1,0.5-0.2,1-0.2,1.5c0,0.5-0.1,1-0.1,1.4
			L1005.9,533.8z"/>
		<path class="st10" d="M1040.3,533.8h-2.4V513h2.4v3.1h0.1c0.6-1.2,1.5-2.1,2.6-2.7c1.2-0.6,2.4-1,3.8-0.9c0.8,0,1.6,0.1,2.4,0.3
			c0.6,0.2,1.2,0.5,1.7,0.9c0.5,0.4,0.8,0.8,1.2,1.3c0.3,0.5,0.6,1,0.8,1.6c0.6-1.3,1.6-2.3,2.8-3c1.2-0.7,2.6-1,4-1
			c1.2-0.1,2.3,0.2,3.4,0.7c0.8,0.4,1.5,1.1,1.9,1.9c0.5,0.8,0.8,1.7,0.9,2.6c0.1,1,0.2,2,0.2,3v13.1h-2.4v-14.3
			c0.1-1.2-0.3-2.5-0.9-3.5c-0.6-0.9-1.8-1.3-3.5-1.3c-1.8,0-3.6,0.9-4.7,2.4c-0.3,0.4-0.5,0.8-0.7,1.2c-0.2,0.5-0.3,1-0.4,1.5
			c-0.1,0.5-0.2,1-0.2,1.5c0,0.5-0.1,1-0.1,1.4v11.2h-2.4v-14.3c0.1-1.2-0.3-2.5-0.9-3.5c-0.6-0.9-1.8-1.3-3.5-1.3
			c-1.8,0-3.6,0.9-4.7,2.4c-0.3,0.4-0.5,0.8-0.7,1.2c-0.2,0.5-0.3,1-0.4,1.5c-0.1,0.5-0.2,1-0.2,1.5c0,0.5-0.1,1-0.1,1.4
			L1040.3,533.8z"/>
		<path class="st10" d="M1074.2,524c0,1.1,0.1,2.1,0.4,3.2c0.3,0.9,0.7,1.8,1.3,2.6c0.6,0.7,1.3,1.3,2.2,1.8c2.3,1.1,5,0.8,7.1-0.6
			c1.1-0.9,1.9-2.1,2.2-3.5h2.7c-0.3,1-0.7,1.9-1.2,2.7c-0.5,0.8-1.1,1.6-1.8,2.2c-0.8,0.6-1.6,1.1-2.6,1.5
			c-1.1,0.4-2.3,0.5-3.4,0.5c-1.5,0-2.9-0.3-4.3-0.8c-1.2-0.5-2.2-1.3-3-2.3c-0.8-1-1.4-2.2-1.7-3.4c-0.4-1.4-0.6-2.8-0.6-4.3
			c0-1.5,0.2-2.9,0.7-4.3c0.4-1.3,1-2.5,1.9-3.5c0.8-1,1.8-1.8,3-2.4c1.2-0.6,2.6-0.9,4-0.9c2.6-0.1,5.1,1,6.7,2.9
			c1.6,2,2.4,4.8,2.4,8.5L1074.2,524z M1087.7,522c0-1-0.1-1.9-0.4-2.9c-0.3-0.8-0.7-1.6-1.2-2.3c-0.6-0.7-1.3-1.2-2.1-1.6
			c-0.9-0.4-1.9-0.6-2.8-0.6c-1,0-1.9,0.2-2.8,0.6c-0.8,0.4-1.5,0.9-2.1,1.6c-0.6,0.7-1.1,1.5-1.4,2.3c-0.4,0.9-0.6,1.8-0.7,2.8
			L1087.7,522z"/>
		<path class="st10" d="M1098.5,533.8h-2.4V513h2.4v2.9c0.9-1,1.9-1.8,3-2.5c1.1-0.7,2.4-1,3.7-1c1.2,0,2.4,0.2,3.6,0.7
			c1.1,0.5,2.1,1.3,2.8,2.3c0.5,0.7,0.8,1.5,0.9,2.3c0.1,0.8,0.1,1.6,0.1,2.5v13.6h-2.4v-13.4c0.1-1.5-0.3-3-1.2-4.2
			c-0.8-0.9-2.2-1.4-4.1-1.4c-0.7,0-1.4,0.1-2,0.3c-0.6,0.2-1.2,0.5-1.7,0.9c-0.5,0.4-0.9,0.8-1.3,1.3c-0.3,0.5-0.6,1-0.8,1.5
			c-0.2,0.6-0.4,1.3-0.4,1.9c0,0.6-0.1,1.3-0.1,2L1098.5,533.8z"/>
		<path class="st10" d="M1126.8,533.8c-0.4,0.1-0.8,0.2-1.2,0.3c-0.5,0.1-1.1,0.2-1.6,0.2c-1,0.1-2-0.3-2.7-0.9
			c-0.7-0.9-1.1-2.1-0.9-3.2V515h-2.9v-2h2.9v-5.8h2.4v5.8h3.9v2h-3.9v14.2c0,0.5,0,0.9,0,1.3c0,0.3,0.1,0.6,0.2,0.9
			c0.1,0.2,0.4,0.4,0.6,0.5c0.4,0.1,0.8,0.2,1.2,0.2c0.3,0,0.7,0,1-0.1c0.3-0.1,0.7-0.1,1-0.2L1126.8,533.8z"/>
		<path class="st10" d="M1141.3,521.7l1.6-0.2c0.5-0.1,1-0.2,1.5-0.4c0.4-0.2,0.7-0.5,0.7-0.9c0.1-0.4,0.1-0.8,0.1-1.2
			c0-1.1-0.4-2.2-1.2-3c-0.8-0.8-2.1-1.2-4-1.2c-0.8,0-1.5,0.1-2.3,0.2c-0.7,0.1-1.3,0.4-1.8,0.8c-0.5,0.4-1,0.9-1.3,1.4
			c-0.4,0.7-0.6,1.5-0.7,2.3h-2.4c0-1.1,0.3-2.2,0.8-3.1c0.5-0.8,1.1-1.6,1.9-2.1c0.8-0.6,1.7-1,2.6-1.2c1-0.3,2.1-0.4,3.2-0.4
			c1,0,2,0.1,2.9,0.3c0.9,0.2,1.7,0.6,2.4,1.1c0.7,0.5,1.2,1.2,1.6,2c0.4,0.9,0.6,2,0.6,3v11.3c0,0.9,0.2,1.5,0.5,1.8s1,0.2,2-0.2
			v1.9l-0.8,0.2c-0.3,0.1-0.7,0.2-1.1,0.2c-0.4,0-0.7,0-1.1-0.1c-0.4,0-0.7-0.2-1-0.4c-0.2-0.2-0.4-0.4-0.6-0.7
			c-0.2-0.3-0.3-0.6-0.3-0.9c-0.1-0.4-0.1-0.7-0.1-1.1c-2,2.2-4.8,3.5-7.7,3.4c-0.9,0-1.8-0.1-2.6-0.4c-0.8-0.2-1.6-0.6-2.2-1.1
			c-0.6-0.5-1.2-1.1-1.5-1.9c-0.4-0.8-0.6-1.7-0.6-2.6c0-3.5,2.4-5.6,7.2-6.2L1141.3,521.7z M1145.3,522.9c-1,0.4-2,0.7-3.1,0.8
			c-1,0.1-2.1,0.2-3.1,0.3c-1.5,0-3,0.5-4.3,1.2c-1,0.7-1.6,1.9-1.5,3.2c0,0.6,0.1,1.1,0.4,1.7c0.2,0.5,0.6,0.8,1,1.2
			c0.4,0.3,0.9,0.5,1.4,0.7c0.5,0.1,1.1,0.2,1.7,0.2c0.9,0,1.9-0.1,2.8-0.4c0.9-0.2,1.7-0.6,2.4-1.1c0.7-0.5,1.3-1.1,1.7-1.9
			c0.4-0.8,0.7-1.8,0.6-2.7V522.9z"/>
		<path class="st10" d="M1155.5,508.5V505h2.6v3.6L1155.5,508.5z M1155.6,533.8V513h2.4v20.7L1155.6,533.8z"/>
		<path class="st10" d="M1167.8,533.8h-2.4V513h2.4v3.9h0.1c0.5-1.4,1.4-2.6,2.6-3.5c1.3-0.7,2.7-1.1,4.2-1v2.6
			c-1.2-0.1-2.3,0.1-3.4,0.6c-0.8,0.4-1.6,1.1-2.1,1.8c-0.5,0.8-0.9,1.8-1.1,2.7c-0.2,1.1-0.3,2.2-0.3,3.3V533.8z"/>
		<path class="st10" d="M1180.5,524c0,1.1,0.1,2.1,0.4,3.2c0.3,0.9,0.7,1.8,1.3,2.6c0.6,0.7,1.3,1.3,2.2,1.8c2.3,1.1,5,0.8,7.1-0.6
			c1.1-0.9,1.9-2.1,2.2-3.5h2.7c-0.3,1-0.7,1.9-1.2,2.7c-0.5,0.8-1.1,1.6-1.8,2.2c-0.8,0.6-1.6,1.1-2.6,1.5
			c-1.1,0.4-2.3,0.5-3.4,0.5c-1.5,0-2.9-0.3-4.3-0.8c-1.2-0.5-2.2-1.3-3-2.3c-0.8-1-1.4-2.2-1.7-3.4c-0.4-1.4-0.6-2.8-0.6-4.3
			c0-1.5,0.2-2.9,0.7-4.3c0.4-1.3,1-2.5,1.9-3.5c0.8-1,1.8-1.8,3-2.4c1.2-0.6,2.6-0.9,4-0.9c2.6-0.1,5.1,1,6.7,2.9
			c1.6,2,2.4,4.8,2.4,8.5L1180.5,524z M1194,522c0-1-0.1-1.9-0.4-2.9c-0.3-0.8-0.7-1.6-1.2-2.3c-0.6-0.7-1.3-1.2-2.1-1.6
			c-0.9-0.4-1.9-0.6-2.8-0.6c-1,0-1.9,0.2-2.8,0.6c-0.8,0.4-1.5,0.9-2.1,1.6c-0.6,0.7-1.1,1.5-1.4,2.3c-0.4,0.9-0.6,1.8-0.7,2.8
			L1194,522z"/>
		<path class="st10" d="M1203.8,527.3c0.2,1.5,0.9,2.8,2,3.8c1.2,0.8,2.7,1.2,4.2,1.1c0.8,0,1.5-0.1,2.3-0.3
			c0.6-0.2,1.1-0.5,1.6-0.9c0.4-0.3,0.7-0.8,0.9-1.2c0.2-0.5,0.3-0.9,0.3-1.4c0.1-0.9-0.3-1.7-1-2.3c-0.7-0.5-1.6-0.9-2.5-1.2
			c-1.1-0.3-2.1-0.5-3.2-0.7c-1.1-0.2-2.2-0.5-3.2-0.9c-0.9-0.4-1.8-1-2.5-1.7c-0.7-0.9-1.1-2-1-3.2c0-1.6,0.7-3.2,1.9-4.3
			c1.5-1.2,3.4-1.8,5.4-1.7c1.9-0.1,3.8,0.4,5.5,1.5c1.5,1.2,2.4,3,2.5,5h-2.4c-0.1-1.3-0.7-2.6-1.8-3.4c-1.1-0.7-2.4-1-3.8-1
			c-1.2-0.1-2.5,0.3-3.5,1c-0.8,0.6-1.2,1.6-1.2,2.6c0,0.8,0.3,1.6,1,2.1c0.7,0.5,1.6,0.9,2.5,1.2c1,0.3,2.1,0.6,3.2,0.8
			c1.1,0.2,2.2,0.6,3.2,1c0.9,0.4,1.8,1,2.5,1.8c0.7,0.9,1.1,2,1,3.1c0,0.9-0.2,1.8-0.6,2.6c-0.4,0.8-1,1.4-1.8,1.9
			c-0.8,0.5-1.7,0.9-2.7,1.1c-1.1,0.3-2.2,0.4-3.4,0.4c-1.1,0-2.2-0.2-3.3-0.5c-0.9-0.3-1.7-0.8-2.4-1.5c-0.7-0.6-1.2-1.4-1.6-2.2
			c-0.4-0.9-0.6-1.8-0.6-2.8L1203.8,527.3z"/>
		<path class="st10" d="M119.5,523.4V491h11.1c0.9,0,1.8,0,2.6,0.1c0.9,0,1.7,0.2,2.6,0.3c0.8,0.2,1.7,0.4,2.4,0.7
			c0.8,0.3,1.6,0.8,2.3,1.3c1.1,0.8,2,1.7,2.6,2.9c0.7,1.1,1.2,2.3,1.6,3.6c0.4,1.2,0.7,2.5,0.9,3.8c0.2,1.2,0.2,2.3,0.3,3.5
			c0,1.1-0.1,2.2-0.2,3.3c-0.1,1.1-0.3,2.2-0.6,3.3c-0.3,1.1-0.7,2.1-1.2,3.1c-0.5,1-1.1,1.8-1.9,2.6c-0.7,0.8-1.5,1.5-2.4,2
			c-0.9,0.5-1.8,0.9-2.8,1.2c-1,0.3-2,0.5-3,0.6c-1.1,0.1-2.1,0.2-3.2,0.2L119.5,523.4z M122.5,520.8h7.3c1.3,0,2.6-0.1,3.9-0.3
			c1.3-0.2,2.6-0.6,3.7-1.2c1-0.5,2-1.3,2.6-2.2c0.7-0.9,1.2-1.9,1.6-3c0.4-1.1,0.7-2.3,0.9-3.4c0.2-1.1,0.2-2.3,0.3-3.5
			c0-1.2-0.1-2.4-0.2-3.6c-0.1-1.2-0.4-2.3-0.9-3.5c-0.4-1.1-1-2.1-1.7-3c-0.8-0.9-1.7-1.7-2.8-2.3c-1.1-0.5-2.2-0.9-3.4-1
			c-1.3-0.1-2.7-0.2-4-0.2h-7.3L122.5,520.8z"/>
		<path class="st10" d="M154.5,512.3c0,1.2,0.2,2.4,0.5,3.6c0.3,1.1,0.8,2.1,1.5,2.9c0.7,0.8,1.5,1.5,2.4,2c1.1,0.5,2.2,0.8,3.4,0.8
			c1.6,0,3.2-0.4,4.5-1.4c1.3-1,2.2-2.4,2.5-4h3c-0.3,1.1-0.8,2.1-1.3,3.1c-0.5,0.9-1.2,1.8-2,2.5c-0.8,0.7-1.8,1.3-2.9,1.6
			c-1.2,0.4-2.6,0.6-3.9,0.6c-1.7,0-3.3-0.3-4.8-1c-1.3-0.6-2.4-1.5-3.3-2.6c-0.9-1.1-1.6-2.5-1.9-3.9c-0.4-1.6-0.6-3.2-0.6-4.8
			c0-1.6,0.2-3.3,0.7-4.8c0.5-1.4,1.2-2.8,2.1-3.9c0.9-1.1,2.1-2,3.4-2.7c1.4-0.7,2.9-1,4.5-1c2.9-0.1,5.7,1.1,7.6,3.3
			c1.8,2.2,2.7,5.4,2.7,9.6L154.5,512.3z M169.7,510.1c0-1.1-0.2-2.2-0.5-3.2c-0.3-1-0.8-1.8-1.4-2.6c-0.6-0.7-1.4-1.3-2.3-1.8
			c-1-0.5-2.1-0.7-3.2-0.6c-1.1,0-2.2,0.2-3.2,0.7c-0.9,0.4-1.7,1-2.3,1.8c-0.7,0.8-1.2,1.7-1.6,2.6c-0.4,1-0.6,2.1-0.8,3.1H169.7z"
			/>
		<path class="st10" d="M181.5,523.4h-2.7V500h2.7v3.5h0.1c0.7-1.3,1.7-2.4,3-3.1c1.3-0.7,2.8-1.1,4.2-1c0.9,0,1.9,0.1,2.7,0.4
			c0.7,0.2,1.3,0.6,1.9,1c0.5,0.4,1,0.9,1.3,1.4c0.4,0.6,0.6,1.1,0.9,1.8c0.7-1.4,1.8-2.6,3.1-3.4c1.4-0.8,2.9-1.1,4.5-1.1
			c1.3-0.1,2.6,0.2,3.8,0.8c0.9,0.5,1.6,1.2,2.2,2.1c0.5,0.9,0.9,1.9,1,3c0.2,1.1,0.3,2.3,0.3,3.4v14.7h-2.7v-16.2
			c0.1-1.4-0.3-2.8-1.1-4c-0.7-1-2-1.4-3.9-1.4c-2.1,0-4,1-5.3,2.6c-0.3,0.4-0.6,0.9-0.7,1.4c-0.2,0.5-0.4,1.1-0.5,1.6
			c-0.1,0.6-0.2,1.1-0.2,1.7c0,0.6-0.1,1.1-0.1,1.6v12.6h-2.7v-16.1c0.1-1.4-0.3-2.8-1.1-4c-0.7-1-2-1.4-3.9-1.4
			c-2.1,0-4.1,1-5.3,2.7c-0.3,0.4-0.6,0.9-0.7,1.4c-0.2,0.5-0.4,1.1-0.5,1.6c-0.1,0.6-0.2,1.1-0.2,1.7c-0.1,0.6-0.1,1.1-0.1,1.6
			L181.5,523.4z"/>
		<path class="st10" d="M228.7,509.8c0.5-0.1,1.1-0.1,1.8-0.3c0.6-0.1,1.2-0.3,1.7-0.5c0.4-0.2,0.8-0.6,0.8-1.1
			c0.1-0.5,0.1-0.9,0.1-1.4c0-1.3-0.4-2.5-1.3-3.4c-0.9-0.9-2.4-1.3-4.5-1.3c-0.9,0-1.7,0.1-2.6,0.2c-0.7,0.2-1.4,0.4-2,0.9
			c-0.6,0.4-1.1,1-1.4,1.6c-0.4,0.8-0.7,1.7-0.8,2.5h-2.7c0-1.2,0.4-2.4,0.9-3.5c0.5-0.9,1.2-1.8,2.1-2.4c0.9-0.6,1.9-1.1,3-1.4
			c1.2-0.3,2.4-0.4,3.6-0.4c1.1,0,2.2,0.1,3.3,0.4c1,0.2,1.9,0.6,2.7,1.2c0.8,0.6,1.4,1.3,1.8,2.2c0.5,1.1,0.7,2.2,0.6,3.4v12.7
			c0,1,0.2,1.7,0.6,2s1.1,0.2,2.3-0.2v2.1l-0.9,0.3c-0.4,0.1-0.8,0.2-1.2,0.2c-0.4,0-0.8,0-1.2-0.1c-0.4,0-0.8-0.2-1.1-0.4
			c-0.3-0.2-0.5-0.5-0.6-0.8c-0.2-0.3-0.3-0.7-0.3-1c-0.1-0.4-0.1-0.8-0.1-1.2c-1.1,1.2-2.4,2.2-3.9,2.9c-1.5,0.7-3.1,1-4.8,1
			c-1,0-2-0.1-2.9-0.4c-0.9-0.2-1.8-0.7-2.5-1.3c-0.7-0.6-1.3-1.3-1.7-2.1c-0.4-0.9-0.7-2-0.6-3c0-4,2.7-6.3,8.1-7L228.7,509.8z
			 M233.2,511.1c-1.1,0.5-2.3,0.8-3.5,0.9c-1.2,0.2-2.3,0.3-3.5,0.4c-1.7,0-3.4,0.5-4.8,1.4c-1.2,0.8-1.8,2.1-1.7,3.5
			c0,0.6,0.1,1.3,0.4,1.9c0.3,0.5,0.7,1,1.1,1.3c0.5,0.4,1,0.6,1.6,0.8c0.6,0.2,1.2,0.2,1.9,0.3c1.1,0,2.1-0.1,3.1-0.4
			c1-0.2,1.9-0.7,2.7-1.2c0.8-0.5,1.4-1.3,1.9-2.1c0.5-0.9,0.7-2,0.7-3L233.2,511.1z"/>
		<path class="st10" d="M247,523.4h-2.7V500h2.7v3.2c1-1.1,2.1-2,3.4-2.8c1.3-0.7,2.7-1.1,4.2-1.1c1.4,0,2.7,0.2,4,0.7
			c1.3,0.5,2.4,1.4,3.1,2.6c0.5,0.8,0.9,1.7,1,2.6c0.1,0.9,0.2,1.8,0.2,2.8v15.3h-2.7v-15.2c0.1-1.7-0.4-3.4-1.4-4.7
			c-0.9-1-2.5-1.6-4.6-1.6c-0.8,0-1.6,0.1-2.3,0.4c-0.7,0.2-1.3,0.6-1.9,1c-1.1,0.8-1.9,1.9-2.3,3.1c-0.3,0.7-0.4,1.4-0.5,2.2
			c-0.1,0.7-0.1,1.4-0.1,2.3L247,523.4z"/>
		<path class="st10" d="M288.6,491h2.7v32.4h-2.7v-4.1h-0.1c-0.4,0.7-0.9,1.4-1.5,2c-0.6,0.6-1.3,1.1-2,1.5
			c-0.7,0.4-1.5,0.7-2.3,0.9c-0.7,0.2-1.5,0.3-2.3,0.3c-1.7,0-3.3-0.3-4.8-1c-1.3-0.6-2.4-1.5-3.3-2.6c-0.9-1.2-1.5-2.5-1.9-3.9
			c-0.4-1.6-0.6-3.2-0.6-4.8c0-1.6,0.2-3.2,0.6-4.7c0.4-1.4,1-2.8,1.9-3.9c0.9-1.1,2-2.1,3.2-2.7c1.4-0.7,3-1,4.6-1
			c1.6,0,3.3,0.4,4.8,1.1c1.5,0.7,2.7,1.8,3.6,3.3L288.6,491z M288.6,511.6c0-1.3-0.2-2.5-0.5-3.8c-0.3-1.1-0.9-2.2-1.5-3.1
			c-0.7-0.9-1.5-1.6-2.5-2.1c-1-0.5-2.2-0.8-3.3-0.8c-1.3,0-2.5,0.2-3.6,0.8c-1,0.5-1.9,1.3-2.5,2.3c-0.7,1-1.2,2.2-1.4,3.4
			c-0.3,1.4-0.4,2.7-0.4,4.1c0,1.3,0.2,2.6,0.6,3.9c0.4,1.1,0.9,2,1.7,2.9c0.7,0.8,1.6,1.4,2.5,1.8c1,0.4,2.1,0.6,3.1,0.6
			c1.2,0,2.3-0.2,3.4-0.8c1-0.5,1.8-1.2,2.5-2.1c0.7-0.9,1.2-2,1.5-3.2C288.5,514.3,288.6,513,288.6,511.6L288.6,511.6z"/>
		<path class="st10" d="M301.1,512.3c0,1.2,0.2,2.4,0.5,3.6c0.3,1.1,0.8,2,1.5,2.9c0.7,0.8,1.5,1.5,2.5,2c2.6,1.2,5.6,1,8-0.7
			c1.3-1,2.2-2.4,2.5-4h3c-0.3,1.1-0.7,2.1-1.3,3.1c-0.5,0.9-1.2,1.8-2,2.5c-0.8,0.7-1.8,1.3-2.9,1.6c-1.2,0.4-2.6,0.6-3.9,0.6
			c-1.7,0-3.3-0.3-4.8-1c-1.3-0.6-2.4-1.5-3.3-2.6c-0.9-1.1-1.6-2.5-1.9-3.9c-0.4-1.6-0.6-3.2-0.6-4.8c0-1.6,0.2-3.3,0.8-4.8
			c0.5-1.4,1.2-2.8,2.1-3.9c0.9-1.1,2.1-2,3.4-2.7c1.4-0.7,2.9-1,4.5-1c2.9-0.1,5.7,1.1,7.6,3.3c1.8,2.2,2.7,5.4,2.7,9.6
			L301.1,512.3z M316.3,510.1c0-1.1-0.1-2.2-0.5-3.2c-0.3-1-0.8-1.8-1.4-2.6c-0.6-0.7-1.4-1.3-2.3-1.8c-1-0.5-2.1-0.7-3.2-0.6
			c-1.1,0-2.2,0.2-3.2,0.7c-0.9,0.4-1.7,1-2.3,1.8c-0.7,0.8-1.2,1.7-1.5,2.6c-0.4,1-0.7,2.1-0.8,3.1H316.3z"/>
	</g>
	<g>
		<path class="st10" d="M1409,573c-1.6,0-3.1-0.3-4.5-0.9c-1.4-0.5-2.6-1.4-3.6-2.4c-1-1.1-1.9-2.4-2.5-4.1
			c-0.6-1.6-0.9-3.5-0.9-5.7c0-1.8,0.2-3.5,0.7-5.1c0.5-1.6,1.2-3,2.2-4.2c1-1.2,2.2-2.1,3.6-2.8c1.4-0.7,3.1-1,5-1
			c2,0,3.6,0.3,5.1,1c1.4,0.7,2.6,1.6,3.6,2.8c1,1.2,1.7,2.6,2.1,4.2c0.5,1.6,0.7,3.3,0.7,5.1c0,2-0.3,3.8-0.8,5.4
			c-0.5,1.6-1.3,3-2.3,4.1c-1,1.2-2.2,2-3.6,2.7C1412.3,572.6,1410.7,573,1409,573z M1417.4,559.8c0-1.5-0.2-2.8-0.5-4.1
			c-0.3-1.3-0.8-2.4-1.5-3.3c-0.7-0.9-1.5-1.7-2.6-2.2c-1.1-0.5-2.4-0.8-3.9-0.8c-1.5,0-2.8,0.3-3.9,0.9c-1.1,0.6-1.9,1.4-2.6,2.4
			c-0.7,1-1.2,2.1-1.5,3.4c-0.3,1.3-0.5,2.6-0.5,3.9c0,1.5,0.2,3,0.6,4.2c0.4,1.3,0.9,2.4,1.6,3.3s1.6,1.6,2.6,2.2
			c1.1,0.5,2.3,0.8,3.6,0.8c1.5,0,2.8-0.3,3.9-0.9c1.1-0.6,1.9-1.4,2.6-2.4s1.2-2.1,1.5-3.4C1417.2,562.5,1417.4,561.2,1417.4,559.8
			z"/>
		<path class="st10" d="M1428.8,572.3h-2.9v-24.9h2.9v4.7h0.1c0.8-2,1.8-3.4,3.1-4.2c1.3-0.8,2.9-1.2,5-1.2v3.1c-1.6,0-3,0.2-4,0.8
			c-1.1,0.5-1.9,1.3-2.5,2.2c-0.6,0.9-1.1,2-1.3,3.3c-0.2,1.3-0.4,2.6-0.4,4V572.3z"/>
		<path class="st10" d="M1453.2,557.8c0.5-0.1,1.2-0.2,1.9-0.3c0.8-0.1,1.4-0.3,1.8-0.5c0.5-0.2,0.8-0.6,0.9-1.1
			c0.1-0.5,0.2-1,0.2-1.5c0-1.5-0.5-2.7-1.4-3.6c-0.9-0.9-2.5-1.4-4.8-1.4c-1,0-1.9,0.1-2.7,0.3c-0.8,0.2-1.6,0.5-2.2,0.9
			c-0.6,0.4-1.1,1-1.5,1.7c-0.4,0.7-0.7,1.6-0.8,2.7h-2.9c0.1-1.5,0.4-2.7,1-3.8c0.6-1,1.3-1.9,2.2-2.5c0.9-0.7,2-1.1,3.2-1.4
			c1.2-0.3,2.5-0.5,3.8-0.5c1.2,0,2.4,0.1,3.5,0.4c1.1,0.3,2.1,0.7,2.9,1.3c0.8,0.6,1.5,1.4,1.9,2.4c0.5,1,0.7,2.2,0.7,3.6V568
			c0,1.1,0.2,1.8,0.6,2.1c0.4,0.3,1.2,0.2,2.4-0.2v2.3c-0.2,0.1-0.6,0.2-1,0.3c-0.4,0.1-0.9,0.2-1.3,0.2c-0.4,0-0.9,0-1.3-0.1
			c-0.5-0.1-0.9-0.2-1.2-0.5s-0.5-0.5-0.7-0.9c-0.2-0.3-0.3-0.7-0.4-1.1c-0.1-0.4-0.1-0.8-0.1-1.3c-1.2,1.3-2.6,2.4-4.2,3.1
			c-1.6,0.7-3.3,1.1-5.1,1.1c-1.1,0-2.1-0.1-3.1-0.4s-1.9-0.7-2.7-1.3c-0.8-0.6-1.4-1.4-1.8-2.2c-0.4-0.9-0.7-1.9-0.7-3.1
			c0-4.2,2.9-6.7,8.7-7.5L1453.2,557.8z M1458,559.2c-1.2,0.5-2.4,0.8-3.7,1s-2.5,0.3-3.7,0.4c-2.2,0.2-3.9,0.7-5.2,1.5
			c-1.2,0.8-1.8,2.1-1.8,3.8c0,0.8,0.2,1.4,0.5,2c0.3,0.6,0.7,1,1.2,1.4c0.5,0.4,1.1,0.6,1.7,0.8c0.7,0.2,1.3,0.3,2,0.3
			c1.2,0,2.3-0.1,3.4-0.4c1.1-0.3,2.1-0.7,2.9-1.3c0.8-0.6,1.5-1.3,2-2.3c0.5-0.9,0.8-2,0.8-3.2V559.2z"/>
		<path class="st10" d="M1468.9,572.3v-34.6h2.9v34.6H1468.9z"/>
		<path class="st10" d="M1480.9,560.5c0,1.3,0.2,2.6,0.5,3.8c0.4,1.2,0.9,2.2,1.6,3.1c0.7,0.9,1.6,1.6,2.6,2.1
			c1.1,0.5,2.3,0.8,3.6,0.8c1.9,0,3.5-0.5,4.8-1.5c1.3-1,2.2-2.4,2.7-4.2h3.2c-0.4,1.2-0.8,2.3-1.4,3.3c-0.6,1-1.3,1.9-2.2,2.6
			c-0.9,0.8-1.9,1.3-3.1,1.8c-1.2,0.4-2.6,0.6-4.1,0.6c-2,0-3.7-0.3-5.1-1c-1.4-0.7-2.6-1.6-3.6-2.8c-0.9-1.2-1.6-2.5-2.1-4.1
			c-0.4-1.6-0.7-3.3-0.7-5.1s0.3-3.5,0.8-5.1c0.5-1.6,1.3-3,2.3-4.2c1-1.2,2.2-2.1,3.6-2.8c1.4-0.7,3-1,4.8-1c3.4,0,6.1,1.2,8.1,3.5
			c2,2.4,2.9,5.8,2.9,10.2H1480.9z M1497.1,558.1c0-1.2-0.2-2.4-0.5-3.4s-0.8-2-1.5-2.8c-0.7-0.8-1.5-1.4-2.5-1.9
			c-1-0.5-2.1-0.7-3.4-0.7c-1.3,0-2.4,0.2-3.4,0.7c-1,0.5-1.8,1.1-2.5,1.9c-0.7,0.8-1.2,1.7-1.7,2.8c-0.4,1.1-0.7,2.2-0.8,3.4
			H1497.1z"/>
	</g>
</g>
<g id="French_Text" class="st11">
	<text transform="matrix(1 0 0 1 1339.5706 514.6787)" class="st12"><tspan x="0" y="0" class="st10 st13 st14">Audience </tspan><tspan x="56" y="57.6" class="st10 st13 st14">orale</tspan></text>
</g>
</svg>