<svg width="1920" height="1080" viewBox="0 0 1920 1080" fill="none" xmlns="http://www.w3.org/2000/svg">
<path d="M390.5 316.4H109.5V690.3H390.5V316.4Z" fill="white" stroke="#054169" stroke-width="3" stroke-miterlimit="10"/>
<path d="M453.5 248.5H172.5V622.4H453.5V248.5Z" fill="#D6F3FF"/>
<mask id="mask0_251_3842" style="mask-type:alpha" maskUnits="userSpaceOnUse" x="173" y="249" width="281" height="374">
<path d="M454 249H173V622.9H454V249Z" fill="#D6F3FF"/>
</mask>
<g mask="url(#mask0_251_3842)">
<path d="M319.9 168.1L-40 528" stroke="#9DDEFA" stroke-width="2" stroke-miterlimit="10"/>
<path d="M302.9 156.1L-57 516" stroke="#9DDEFA" stroke-width="2" stroke-miterlimit="10"/>
<path d="M336.7 179.6L-23.3 539.5" stroke="#9DDEFA" stroke-width="2" stroke-miterlimit="10"/>
<path d="M353.4 191.1L-6.59998 551" stroke="#9DDEFA" stroke-width="2" stroke-miterlimit="10"/>
<path d="M370.1 202.6L10.2 562.5" stroke="#9DDEFA" stroke-width="2" stroke-miterlimit="10"/>
<path d="M386.8 214.1L26.9 574" stroke="#9DDEFA" stroke-width="2" stroke-miterlimit="10"/>
<path d="M403.5 225.6L43.6 585.5" stroke="#9DDEFA" stroke-width="2" stroke-miterlimit="10"/>
<path d="M420.3 237.1L60.3 597" stroke="#9DDEFA" stroke-width="2" stroke-miterlimit="10"/>
<path d="M437 248.6L77 608.5" stroke="#9DDEFA" stroke-width="2" stroke-miterlimit="10"/>
<path d="M453.7 260.1L93.7 620" stroke="#9DDEFA" stroke-width="2" stroke-miterlimit="10"/>
<path d="M470.4 271.6L110.5 631.5" stroke="#9DDEFA" stroke-width="2" stroke-miterlimit="10"/>
<path d="M478.5 290.5L118.6 650.4" stroke="#9DDEFA" stroke-width="2" stroke-miterlimit="10"/>
<path d="M495.3 302L135.3 661.9" stroke="#9DDEFA" stroke-width="2" stroke-miterlimit="10"/>
<path d="M512 313.5L152 673.4" stroke="#9DDEFA" stroke-width="2" stroke-miterlimit="10"/>
<path d="M528.7 325L168.7 684.9" stroke="#9DDEFA" stroke-width="2" stroke-miterlimit="10"/>
<path d="M545.4 336.5L185.5 696.4" stroke="#9DDEFA" stroke-width="2" stroke-miterlimit="10"/>
<path d="M562.1 348L202.2 707.9" stroke="#9DDEFA" stroke-width="2" stroke-miterlimit="10"/>
<path d="M578.8 359.5L218.9 719.4" stroke="#9DDEFA" stroke-width="2" stroke-miterlimit="10"/>
<path d="M595.6 371L235.6 730.9" stroke="#9DDEFA" stroke-width="2" stroke-miterlimit="10"/>
<path d="M612.3 382.5L252.3 742.4" stroke="#9DDEFA" stroke-width="2" stroke-miterlimit="10"/>
<path d="M629 394L269.1 754" stroke="#9DDEFA" stroke-width="2" stroke-miterlimit="10"/>
</g>
<path d="M454.5 248.4H173.5V622.3H454.5V248.4Z" stroke="#054169" stroke-width="3" stroke-miterlimit="10"/>
<path d="M363.5 316.6H82.5V690.5H363.5V316.6Z" fill="white" stroke="#054169" stroke-width="3" stroke-miterlimit="10"/>
<path d="M883.5 327.5H588.5V701.4H883.5V327.5Z" fill="white"/>
<path d="M883.5 695.4V701.4H877.5" stroke="#054169" stroke-width="5" stroke-miterlimit="10"/>
<path d="M867.2 701.4H599.7" stroke="#054169" stroke-width="5" stroke-miterlimit="10" stroke-dasharray="12.39 12.39"/>
<path d="M594.5 701.4H588.5V695.4" stroke="#054169" stroke-width="5" stroke-miterlimit="10"/>
<path d="M588.5 685.4V338.5" stroke="#054169" stroke-width="5" stroke-miterlimit="10" stroke-dasharray="12 12"/>
<path d="M588.5 333.5V327.5H594.5" stroke="#054169" stroke-width="5" stroke-miterlimit="10"/>
<path d="M604.8 327.5H872.3" stroke="#054169" stroke-width="5" stroke-miterlimit="10" stroke-dasharray="12.39 12.39"/>
<path d="M877.5 327.5H883.5V333.5" stroke="#054169" stroke-width="5" stroke-miterlimit="10"/>
<path d="M883.5 343.5V690.4" stroke="#054169" stroke-width="5" stroke-miterlimit="10" stroke-dasharray="12 12"/>
<path d="M1230.5 327.5H935.5V701.4H1230.5V327.5Z" fill="white"/>
<path d="M1230.5 695.4V701.4H1224.5" stroke="#054169" stroke-width="5" stroke-miterlimit="10"/>
<path d="M1214.2 701.4H946.7" stroke="#054169" stroke-width="5" stroke-miterlimit="10" stroke-dasharray="12.39 12.39"/>
<path d="M941.5 701.4H935.5V695.4" stroke="#054169" stroke-width="5" stroke-miterlimit="10"/>
<path d="M935.5 685.4V338.5" stroke="#054169" stroke-width="5" stroke-miterlimit="10" stroke-dasharray="12 12"/>
<path d="M935.5 333.5V327.5H941.5" stroke="#054169" stroke-width="5" stroke-miterlimit="10"/>
<path d="M951.8 327.5H1219.3" stroke="#054169" stroke-width="5" stroke-miterlimit="10" stroke-dasharray="12.39 12.39"/>
<path d="M1224.5 327.5H1230.5V333.5" stroke="#054169" stroke-width="5" stroke-miterlimit="10"/>
<path d="M1230.5 343.5V690.4" stroke="#054169" stroke-width="5" stroke-miterlimit="10" stroke-dasharray="12 12"/>
<path d="M1587.5 327.5H1292.5V701.4H1587.5V327.5Z" fill="white"/>
<path d="M1587.5 695.4V701.4H1581.5" stroke="#054169" stroke-width="5" stroke-miterlimit="10"/>
<path d="M1571.2 701.4H1303.7" stroke="#054169" stroke-width="5" stroke-miterlimit="10" stroke-dasharray="12.39 12.39"/>
<path d="M1298.5 701.4H1292.5V695.4" stroke="#054169" stroke-width="5" stroke-miterlimit="10"/>
<path d="M1292.5 685.4V338.5" stroke="#054169" stroke-width="5" stroke-miterlimit="10" stroke-dasharray="12 12"/>
<path d="M1292.5 333.5V327.5H1298.5" stroke="#054169" stroke-width="5" stroke-miterlimit="10"/>
<path d="M1308.8 327.5H1576.3" stroke="#054169" stroke-width="5" stroke-miterlimit="10" stroke-dasharray="12.39 12.39"/>
<path d="M1581.5 327.5H1587.5V333.5" stroke="#054169" stroke-width="5" stroke-miterlimit="10"/>
<path d="M1587.5 343.5V690.4" stroke="#054169" stroke-width="5" stroke-miterlimit="10" stroke-dasharray="12 12"/>
<path d="M249.5 813.8C267.725 813.8 282.5 799.025 282.5 780.8C282.5 762.575 267.725 747.8 249.5 747.8C231.275 747.8 216.5 762.575 216.5 780.8C216.5 799.025 231.275 813.8 249.5 813.8Z" fill="#054169" stroke="#054169" stroke-width="3" stroke-miterlimit="10"/>
<path d="M1738.5 813.5C1756.73 813.5 1771.5 798.726 1771.5 780.5C1771.5 762.275 1756.73 747.5 1738.5 747.5C1720.27 747.5 1705.5 762.275 1705.5 780.5C1705.5 798.726 1720.27 813.5 1738.5 813.5Z" fill="white" stroke="#054169" stroke-width="3" stroke-miterlimit="10"/>
<path d="M1647.5 766.5H340.5V796.5H1647.5V766.5Z" fill="#054169" stroke="#054169" stroke-width="3" stroke-miterlimit="10"/>
<path d="M112.5 295.4C112.9 289.8 114.7 285.4 117.9 282.3C121.8 278.6 127.6 276.9 135.3 277.1L135.9 268L157 285.3L133.8 299.7L134.4 290.7C130.7 290.4 127 290.7 123.4 291.7C120.5 292.7 117.8 294.3 115.5 296.4L112.3 299.1L112.5 295.4Z" fill="#054169"/>
<path d="M437.2 224.4V192H458.7V194.6H440.2V206.3H456.9V208.9H440.2V221.8H459.1V224.4H437.2Z" fill="#054169"/>
<path d="M466 224.4V192H487.5V194.6H469V206.3H485.7V208.9H469V221.8H488V224.4H466Z" fill="#054169"/>
<path d="M496 214.7C496.1 216 496.4 217.2 497 218.4C497.5 219.4 498.2 220.2 499 220.8C499.9 221.4 500.8 221.9 501.9 222.2C503 222.5 504.2 222.6 505.4 222.6C506.7 222.6 507.9 222.4 509.1 222.1C510 221.8 510.9 221.3 511.7 220.6C512.3 220 512.8 219.3 513.2 218.5C513.5 217.7 513.7 216.8 513.7 215.9C513.7 214.8 513.4 213.7 512.8 212.8C512.2 212 511.4 211.3 510.6 210.9C509.6 210.4 508.5 210 507.5 209.7C506.3 209.4 505.1 209.1 503.9 208.8C502.7 208.5 501.4 208.2 500.3 207.8C499.2 207.4 498.1 206.9 497.2 206.2C496.3 205.5 495.5 204.7 495 203.6C494.4 202.4 494.1 201 494.1 199.7C494.1 198.6 494.3 197.5 494.8 196.5C495.3 195.4 496 194.5 496.9 193.7C497.9 192.8 499.1 192.2 500.3 191.8C501.8 191.3 503.5 191.1 505.1 191.1C506.7 191.1 508.4 191.3 509.9 191.9C511.2 192.4 512.4 193.1 513.3 194C514.2 194.9 514.9 195.9 515.3 197.1C515.8 198.3 516 199.6 516 200.8H513.1C513.1 199.7 512.9 198.6 512.4 197.6C512 196.7 511.4 196 510.6 195.4C509.8 194.8 509 194.4 508 194.1C507 193.8 506 193.7 505 193.7C503.7 193.7 502.3 193.9 501.1 194.3C500.1 194.7 499.3 195.2 498.6 196C498 196.7 497.5 197.4 497.3 198.3C497.1 199.1 497 200 497.2 200.8C497.3 201.8 497.8 202.6 498.5 203.3C499.2 204 500 204.5 500.9 204.9C501.9 205.3 503 205.7 504.1 205.9C505.3 206.2 506.4 206.4 507.6 206.7C508.8 207 509.9 207.3 511.1 207.7C512.2 208.1 513.2 208.6 514.1 209.3C515 210 515.7 210.8 516.2 211.8C516.8 213 517 214.3 517 215.7C517.1 218.4 516 221 513.9 222.7C511.8 224.3 508.9 225.2 505.2 225.2C503.6 225.2 502 225 500.5 224.6C499.1 224.2 497.9 223.5 496.8 222.6C495.7 221.7 494.9 220.6 494.3 219.3C493.7 217.8 493.4 216.3 493.4 214.7H496Z" fill="#054169"/>
<path d="M133 884.4V852H144.8C146.6 851.9 148.3 852.2 150 852.7C151.2 853.1 152.3 853.8 153.2 854.7C154 855.5 154.6 856.5 154.9 857.6C155.2 858.7 155.4 859.9 155.4 861C155.5 862.6 155.1 864.1 154.3 865.5C153.6 866.6 152.6 867.6 151.4 868.3C150.2 869 148.8 869.5 147.4 869.7C145.9 870 144.4 870.1 142.9 870.1H136V884.4H133ZM143.1 867.4C144.4 867.4 145.7 867.3 147 867.1C148 867 149 866.6 149.9 866.1C150.7 865.6 151.3 864.9 151.8 864.1C152.3 863 152.5 861.9 152.4 860.8C152.5 859 151.8 857.3 150.4 856.2C149.1 855.2 146.9 854.6 144 854.6H136.1V867.5L143.1 867.4Z" fill="#054169"/>
<path d="M163.1 884.4H160.4V861H163.1V865.4H163.2C163.7 863.8 164.7 862.5 166.1 861.5C167.5 860.7 169.2 860.3 170.8 860.4V863.3C169.5 863.2 168.2 863.5 167 864C166 864.5 165.2 865.2 164.6 866.1C164 867 163.6 868.1 163.4 869.2C163.2 870.4 163.1 871.7 163.1 872.9V884.4V884.4Z" fill="#054169"/>
<path d="M176.1 873.3C176.1 874.5 176.3 875.7 176.6 876.9C176.9 878 177.4 878.9 178.1 879.8C178.8 880.6 179.6 881.3 180.6 881.8C183.2 883 186.2 882.8 188.6 881.1C189.9 880.1 190.8 878.7 191.1 877.1H194.1C193.8 878.2 193.3 879.2 192.8 880.2C192.3 881.1 191.6 882 190.8 882.7C190 883.4 189 884 187.9 884.3C186.7 884.7 185.3 884.9 184 884.9C182.3 884.9 180.7 884.6 179.2 883.9C177.9 883.3 176.8 882.4 175.9 881.3C175 880.2 174.3 878.8 174 877.4C173.6 875.8 173.4 874.2 173.4 872.6C173.4 871 173.6 869.4 174.1 867.9C174.6 866.5 175.3 865.1 176.2 864C177.1 862.9 178.3 862 179.6 861.3C181 860.6 182.5 860.3 184.1 860.3C187 860.2 189.8 861.4 191.7 863.6C193.5 865.8 194.4 869 194.4 873.2L176.1 873.3ZM191.3 871.1C191.3 870 191.1 868.9 190.8 867.9C190.5 866.9 190 866.1 189.4 865.3C188.8 864.6 188 864 187.1 863.5C186.1 863 185 862.8 183.9 862.8C182.8 862.8 181.7 863 180.7 863.5C179.8 863.9 179 864.5 178.4 865.3C177.7 866.1 177.2 867 176.8 867.9C176.4 868.9 176.2 870 176 871.1H191.3ZM181.1 858.5L186.1 852.2H189.6L183.4 858.5H181.1Z" fill="#054169"/>
<path d="M201 877.1C201.2 878.7 202 880.3 203.3 881.4C204.7 882.3 206.3 882.7 208 882.6C208.9 882.6 209.7 882.5 210.6 882.2C211.3 882 211.9 881.6 212.4 881.2C212.8 880.8 213.2 880.4 213.5 879.8C213.7 879.3 213.9 878.7 213.9 878.2C214 877.2 213.6 876.3 212.8 875.7C212 875.1 211 874.7 210 874.4C208.8 874.1 207.6 873.8 206.4 873.6C205.2 873.4 204 873.1 202.8 872.6C201.7 872.2 200.8 871.5 200 870.7C199.2 869.7 198.8 868.4 198.9 867.2C198.8 865.4 199.6 863.6 201 862.4C202.7 861.1 204.8 860.4 207 860.5C209.2 860.4 211.3 861 213.1 862.2C214.7 863.3 215.6 865.2 216 867.9H213.3C213.2 866.4 212.5 865 211.2 864.1C209.9 863.3 208.4 862.9 206.9 863C205.5 862.9 204.1 863.3 203 864.1C202.1 864.8 201.6 865.9 201.6 867C201.6 867.9 202 868.8 202.7 869.4C203.5 870 204.5 870.5 205.5 870.7C206.6 871 207.8 871.4 209.1 871.6C210.3 871.9 211.5 872.2 212.7 872.8C213.8 873.3 214.7 873.9 215.5 874.8C216.3 875.8 216.7 877 216.6 878.3C216.6 879.3 216.4 880.3 215.9 881.3C215.4 882.2 214.7 882.9 213.9 883.4C213 884 212 884.4 210.9 884.7C209.7 885 208.4 885.1 207.1 885.1C205.8 885.1 204.6 884.9 203.4 884.5C202.4 884.1 201.5 883.6 200.7 882.8C200 882.1 199.4 881.2 198.9 880.3C198.5 879.3 198.2 878.3 198.2 877.2L201 877.1Z" fill="#054169"/>
<path d="M223.6 873.3C223.6 874.5 223.8 875.7 224.1 876.9C224.4 878 224.9 878.9 225.6 879.8C226.3 880.6 227.1 881.3 228.1 881.8C230.7 883 233.7 882.8 236.1 881.1C237.4 880.1 238.3 878.7 238.6 877.1H241.6C241.3 878.2 240.8 879.2 240.3 880.2C239.8 881.1 239.1 882 238.3 882.7C237.5 883.4 236.5 884 235.4 884.3C234.2 884.7 232.8 884.9 231.5 884.9C229.8 884.9 228.2 884.6 226.7 883.9C225.4 883.3 224.3 882.4 223.4 881.3C222.5 880.2 221.8 878.8 221.5 877.4C221.1 875.8 220.9 874.2 220.9 872.6C220.9 871 221.1 869.3 221.6 867.8C222.1 866.4 222.8 865 223.7 863.9C224.6 862.8 225.8 861.9 227.1 861.2C228.5 860.5 230 860.2 231.6 860.2C234.5 860.1 237.3 861.3 239.2 863.5C241 865.7 241.9 868.9 241.9 873.1L223.6 873.3ZM238.8 871.1C238.8 870 238.6 868.9 238.3 867.9C238 866.9 237.5 866.1 236.9 865.3C236.3 864.6 235.5 864 234.6 863.5C233.6 863 232.5 862.8 231.4 862.8C230.3 862.8 229.2 863 228.2 863.5C227.3 863.9 226.5 864.5 225.9 865.3C225.2 866.1 224.7 867 224.3 867.9C223.9 868.9 223.7 870 223.5 871.1H238.8Z" fill="#054169"/>
<path d="M249.7 884.4H247V861H249.7V864.3C250.7 863.2 251.8 862.3 253 861.5C254.3 860.8 255.7 860.4 257.2 860.4C258.6 860.4 259.9 860.6 261.2 861.1C262.5 861.6 263.6 862.5 264.3 863.7C264.8 864.5 265.2 865.4 265.3 866.3C265.4 867.2 265.5 868.1 265.5 869.1V884.4H262.8V869.2C262.9 867.5 262.4 865.8 261.4 864.5C260.5 863.5 258.9 862.9 256.8 862.9C256 862.9 255.2 863 254.5 863.3C253.8 863.5 253.2 863.9 252.6 864.3C252.1 864.7 251.6 865.2 251.2 865.7C250.8 866.2 250.5 866.8 250.3 867.4C250 868.1 249.9 868.8 249.8 869.6C249.7 870.3 249.7 871 249.7 871.9V884.4Z" fill="#054169"/>
<path d="M280.2 884.5C279.9 884.6 279.4 884.7 278.9 884.8C278.3 885 277.7 885 277.1 885C276 885.1 274.9 884.7 274 884C273.3 883.3 273 882.1 273 880.4V863.3H269.7V861H273V854.5H275.7V861H280.1V863.3H275.7V879.3C275.7 879.9 275.7 880.4 275.7 880.8C275.7 881.1 275.8 881.5 276 881.8C276.2 882.1 276.4 882.3 276.7 882.4C277.1 882.5 277.6 882.6 278 882.6C278.4 882.6 278.7 882.6 279.1 882.5C279.5 882.4 279.8 882.4 280.2 882.3V884.5Z" fill="#054169"/>
<path d="M295.2 870.8C295.7 870.7 296.3 870.6 297 870.5C297.6 870.4 298.2 870.2 298.7 870C299.1 869.8 299.4 869.4 299.5 868.9C299.6 868.4 299.7 868 299.7 867.5C299.7 866.2 299.3 865 298.4 864.1C297.5 863.2 296 862.8 293.9 862.8C293 862.8 292.2 862.9 291.3 863C290.6 863.1 289.9 863.4 289.3 863.9C288.7 864.3 288.2 864.9 287.9 865.5C287.5 866.3 287.2 867.2 287.2 868H284.4C284.5 866.8 284.8 865.6 285.4 864.5C285.9 863.6 286.6 862.7 287.5 862.1C288.4 861.5 289.4 861 290.5 860.8C291.7 860.5 292.9 860.4 294.1 860.4C295.2 860.4 296.3 860.5 297.4 860.8C298.4 861 299.3 861.4 300.1 862C300.9 862.6 301.5 863.3 301.9 864.2C302.4 865.3 302.6 866.4 302.6 867.6V880.3C302.6 881.3 302.8 882 303.2 882.3C303.6 882.6 304.3 882.5 305.5 882.1V884.2L304.6 884.5C304.2 884.6 303.8 884.7 303.4 884.7C303 884.7 302.6 884.7 302.2 884.6C301.8 884.6 301.4 884.4 301.1 884.2C300.8 884 300.6 883.7 300.5 883.4C300.3 883.1 300.2 882.7 300.2 882.4C300.1 882 300.1 881.6 300.1 881.2C297.9 883.7 294.7 885.1 291.4 885.1C290.4 885.1 289.4 885 288.4 884.7C287.5 884.5 286.6 884 285.9 883.4C285.2 882.8 284.6 882.1 284.2 881.3C283.8 880.4 283.5 879.3 283.6 878.3C283.6 874.3 286.3 872 291.7 871.3L295.2 870.8ZM299.8 872.1C298.7 872.6 297.5 872.9 296.3 873C295.1 873.2 294 873.3 292.8 873.4C291.1 873.4 289.4 873.9 288 874.8C286.8 875.6 286.2 876.9 286.3 878.3C286.3 878.9 286.4 879.6 286.7 880.2C287 880.7 287.4 881.2 287.8 881.5C288.3 881.9 288.8 882.1 289.4 882.3C290 882.5 290.6 882.5 291.3 882.6C292.4 882.6 293.4 882.5 294.4 882.2C295.4 882 296.3 881.5 297.1 881C297.9 880.4 298.5 879.7 299 878.9C299.5 878 299.7 876.9 299.7 875.9L299.8 872.1Z" fill="#054169"/>
<path d="M317.7 884.5C317.4 884.6 316.9 884.7 316.4 884.8C315.8 885 315.2 885 314.6 885C313.5 885.1 312.4 884.7 311.5 884C310.8 883.3 310.5 882.1 310.5 880.4V863.3H307.2V861H310.5V854.5H313.2V861H317.6V863.3H313.2V879.3C313.2 879.9 313.2 880.4 313.2 880.8C313.2 881.1 313.3 881.5 313.5 881.8C313.7 882.1 313.9 882.3 314.2 882.4C314.6 882.5 315.1 882.6 315.5 882.6C315.9 882.6 316.2 882.6 316.6 882.5C317 882.4 317.3 882.4 317.7 882.3V884.5Z" fill="#054169"/>
<path d="M322.3 856V852H325.3V856H322.3ZM322.4 884.4V861H325.1V884.3L322.4 884.4Z" fill="#054169"/>
<path d="M341.3 885C339.9 885 338.4 884.7 337.1 884.2C335.8 883.7 334.6 882.9 333.7 881.9C332.7 880.8 331.9 879.5 331.4 878.1C330.8 876.4 330.5 874.6 330.5 872.7C330.5 871.1 330.7 869.5 331.2 867.9C331.6 866.5 332.3 865.2 333.2 864C334.1 862.9 335.3 862 336.6 861.4C338.1 860.7 339.7 860.4 341.3 860.4C342.9 860.4 344.6 860.7 346.1 861.4C347.4 862 348.6 862.9 349.5 864C350.4 865.1 351.1 866.5 351.5 867.9C351.9 869.5 352.2 871.1 352.1 872.7C352.1 874.4 351.9 876.1 351.3 877.7C350.8 879.1 350.1 880.4 349.1 881.6C348.2 882.7 347 883.5 345.7 884.1C344.3 884.7 342.8 885 341.3 885ZM349.2 872.7C349.2 871.4 349.1 870.1 348.7 868.8C348.4 867.7 348 866.6 347.3 865.7C346.7 864.8 345.8 864.1 344.9 863.6C343.8 863.1 342.5 862.8 341.3 862.8C340 862.8 338.8 863 337.7 863.6C336.7 864.1 335.9 864.9 335.2 865.8C334.6 866.8 334.1 867.8 333.8 869C333.5 870.2 333.3 871.4 333.3 872.7C333.3 874.1 333.5 875.4 333.8 876.7C334.1 877.8 334.6 878.9 335.3 879.8C336 880.7 336.8 881.3 337.8 881.8C338.9 882.3 340 882.5 341.2 882.5C342.5 882.5 343.7 882.2 344.8 881.7C345.8 881.2 346.6 880.4 347.3 879.5C347.9 878.5 348.4 877.5 348.7 876.3C349.1 875.2 349.2 873.9 349.2 872.7Z" fill="#054169"/>
<path d="M359.7 884.4H357V861H359.7V864.3C360.7 863.2 361.8 862.3 363.1 861.5C364.4 860.8 365.8 860.4 367.3 860.4C368.7 860.4 370 860.6 371.3 861.1C372.6 861.6 373.7 862.5 374.4 863.7C374.9 864.5 375.3 865.4 375.4 866.3C375.5 867.2 375.6 868.1 375.6 869.1V884.4H372.9V869.2C373 867.5 372.5 865.8 371.5 864.5C370.6 863.5 369 862.9 366.9 862.9C366.1 862.9 365.3 863 364.6 863.3C363.9 863.5 363.3 863.9 362.7 864.3C362.2 864.7 361.7 865.2 361.3 865.7C360.9 866.2 360.6 866.8 360.4 867.4C360.1 868.1 360 868.8 359.9 869.6C359.8 870.3 359.8 871 359.8 871.9L359.7 884.4Z" fill="#054169"/>
<path d="M1653.2 878.4V846H1664.3C1665.2 846 1666.1 846 1667 846.1C1667.9 846.1 1668.7 846.3 1669.6 846.4C1670.4 846.6 1671.3 846.8 1672 847.1C1672.8 847.4 1673.6 847.9 1674.3 848.4C1675.4 849.2 1676.3 850.1 1677 851.3C1677.7 852.4 1678.2 853.6 1678.6 854.9C1679 856.1 1679.3 857.4 1679.5 858.7C1679.7 859.9 1679.7 861 1679.8 862.2C1679.8 863.3 1679.7 864.4 1679.6 865.5C1679.5 866.6 1679.3 867.7 1678.9 868.8C1678.6 869.9 1678.2 870.9 1677.7 871.9C1677.2 872.9 1676.6 873.8 1675.8 874.6C1675.1 875.4 1674.3 876.1 1673.4 876.6C1672.5 877.1 1671.6 877.5 1670.6 877.8C1669.6 878.1 1668.6 878.3 1667.6 878.4C1666.6 878.5 1665.5 878.6 1664.4 878.6L1653.2 878.4ZM1656.2 875.8H1663.5C1664.8 875.8 1666.1 875.7 1667.4 875.5C1668.7 875.3 1670 874.9 1671.1 874.3C1672.1 873.8 1673.1 873 1673.8 872.1C1674.5 871.2 1675 870.2 1675.4 869.1C1675.8 868 1676.1 866.8 1676.3 865.7C1676.5 864.6 1676.5 863.4 1676.6 862.2C1676.6 861 1676.5 859.8 1676.4 858.6C1676.3 857.4 1676 856.3 1675.6 855.1C1675.2 854 1674.6 853 1673.9 852.1C1673.1 851.2 1672.2 850.4 1671.1 849.8C1670 849.3 1668.9 848.9 1667.7 848.8C1666.4 848.7 1665 848.6 1663.7 848.6H1656.4L1656.2 875.8Z" fill="#054169"/>
<path d="M1688.2 867.3C1688.2 868.5 1688.4 869.7 1688.7 870.9C1689 872 1689.5 872.9 1690.2 873.8C1690.9 874.6 1691.7 875.3 1692.6 875.8C1695.2 877 1698.2 876.8 1700.6 875.1C1701.9 874.1 1702.8 872.7 1703.1 871.1H1706.1C1705.8 872.2 1705.4 873.2 1704.8 874.2C1704.3 875.1 1703.6 876 1702.8 876.7C1702 877.4 1701 878 1699.9 878.3C1698.7 878.7 1697.3 878.9 1696 878.9C1694.3 878.9 1692.7 878.6 1691.2 877.9C1689.9 877.3 1688.8 876.4 1687.9 875.3C1687 874.2 1686.3 872.8 1686 871.4C1685.6 869.8 1685.4 868.2 1685.4 866.6C1685.4 865 1685.6 863.3 1686.1 861.8C1686.6 860.4 1687.3 859 1688.2 857.9C1689.1 856.8 1690.3 855.9 1691.5 855.2C1692.9 854.5 1694.4 854.2 1696 854.2C1698.9 854.1 1701.7 855.3 1703.6 857.5C1705.4 859.7 1706.3 862.9 1706.3 867.1L1688.2 867.3ZM1703.4 865.1C1703.4 864 1703.2 862.9 1702.9 861.9C1702.6 860.9 1702.1 860.1 1701.5 859.3C1700.9 858.6 1700.1 858 1699.2 857.5C1698.2 857 1697.1 856.8 1696 856.8C1694.9 856.8 1693.8 857 1692.8 857.5C1691.9 857.9 1691.1 858.5 1690.5 859.3C1689.8 860.1 1689.3 861 1688.9 861.9C1688.5 862.9 1688.2 864 1688.1 865.1H1703.4ZM1693.3 852.5L1698.3 846.2H1701.8L1695.6 852.5H1693.3Z" fill="#054169"/>
<path d="M1729.4 862.4C1729 860.8 1728.1 859.4 1726.9 858.3C1725.6 857.3 1724.1 856.8 1722.5 856.8C1721.3 856.8 1720 857.1 1718.9 857.6C1717.9 858.2 1717.1 858.9 1716.5 859.9C1715.9 860.9 1715.4 862 1715.1 863.1C1714.8 864.3 1714.7 865.5 1714.7 866.7C1714.7 867.9 1714.8 869.1 1715.1 870.3C1715.4 871.4 1715.8 872.5 1716.5 873.5C1717.1 874.4 1718 875.2 1718.9 875.7C1720 876.3 1721.2 876.6 1722.5 876.5C1724.3 876.6 1726 876 1727.3 874.8C1728.6 873.6 1729.4 872 1729.6 870.2H1732.5C1732.3 871.4 1731.9 872.6 1731.3 873.7C1730.8 874.7 1730.1 875.7 1729.3 876.5C1728.4 877.3 1727.4 877.9 1726.4 878.3C1723.5 879.2 1720.4 879.1 1717.7 878C1716.4 877.4 1715.3 876.5 1714.4 875.4C1713.5 874.2 1712.8 872.9 1712.5 871.5C1712.1 869.9 1711.9 868.3 1711.9 866.7C1711.9 865.1 1712.1 863.5 1712.6 862C1713 860.6 1713.7 859.2 1714.6 858.1C1715.5 857 1716.6 856 1717.9 855.4C1719.3 854.7 1720.9 854.4 1722.5 854.4C1724.8 854.3 1727.1 855 1729 856.3C1730.8 857.8 1731.9 860 1732.1 862.3L1729.4 862.4Z" fill="#054169"/>
<path d="M1739.5 850V846H1742.5V850H1739.5ZM1739.6 878.4V855H1742.3V878.3L1739.6 878.4Z" fill="#054169"/>
<path d="M1752.1 871.1C1752.3 872.7 1753.1 874.3 1754.4 875.4C1755.8 876.3 1757.4 876.7 1759.1 876.6C1760 876.6 1760.8 876.5 1761.7 876.2C1762.4 876 1763 875.6 1763.5 875.2C1763.9 874.8 1764.3 874.4 1764.6 873.8C1764.8 873.3 1765 872.7 1765 872.2C1765.1 871.2 1764.7 870.3 1763.9 869.7C1763.1 869.1 1762.1 868.7 1761.1 868.4C1759.9 868.1 1758.7 867.8 1757.5 867.6C1756.3 867.4 1755.1 867.1 1753.9 866.6C1752.8 866.2 1751.9 865.5 1751.1 864.7C1750.3 863.7 1749.9 862.4 1750 861.2C1749.9 859.4 1750.7 857.6 1752.1 856.4C1753.8 855.1 1755.9 854.4 1758.1 854.5C1760.3 854.4 1762.4 855 1764.2 856.2C1765.8 857.3 1766.7 859.2 1767.1 861.9H1764.4C1764.3 860.4 1763.6 859 1762.4 858.1C1761.1 857.3 1759.6 856.9 1758.1 857C1756.7 856.9 1755.3 857.3 1754.2 858.1C1753.3 858.8 1752.8 859.9 1752.9 861C1752.9 861.9 1753.3 862.8 1754 863.4C1754.8 864 1755.8 864.5 1756.8 864.7C1757.9 865 1759.1 865.4 1760.4 865.6C1761.6 865.9 1762.8 866.2 1764 866.8C1765.1 867.3 1766 867.9 1766.8 868.8C1767.6 869.8 1768 871 1767.9 872.3C1767.9 873.3 1767.7 874.3 1767.2 875.3C1766.7 876.2 1766 876.9 1765.2 877.4C1764.3 878 1763.3 878.4 1762.2 878.7C1761 879 1759.7 879.1 1758.4 879.1C1757.1 879.1 1755.9 878.9 1754.7 878.5C1753.7 878.1 1752.8 877.6 1752 876.8C1751.3 876.1 1750.7 875.2 1750.2 874.3C1749.8 873.3 1749.5 872.3 1749.5 871.2L1752.1 871.1Z" fill="#054169"/>
<path d="M1774.6 850V846H1777.6V850H1774.6ZM1774.7 878.4V855H1777.4V878.3L1774.7 878.4Z" fill="#054169"/>
<path d="M1794.9 879C1793.5 879 1792 878.7 1790.7 878.2C1789.4 877.7 1788.2 876.9 1787.3 875.9C1786.3 874.8 1785.5 873.5 1785 872.1C1784.4 870.4 1784.1 868.6 1784.2 866.7C1784.2 865.1 1784.4 863.5 1784.9 861.9C1785.3 860.5 1786 859.2 1786.9 858C1787.8 856.9 1789 856 1790.3 855.4C1793.3 854.1 1796.8 854.1 1799.8 855.4C1801.1 856 1802.3 856.9 1803.2 858C1804.1 859.1 1804.8 860.5 1805.2 861.9C1805.6 863.5 1805.9 865.1 1805.9 866.7C1805.9 868.4 1805.7 870.1 1805.1 871.7C1804.6 873.1 1803.9 874.4 1802.9 875.6C1802 876.7 1800.8 877.5 1799.5 878.1C1797.9 878.7 1796.4 879 1794.9 879ZM1802.8 866.7C1802.8 865.4 1802.7 864.1 1802.4 862.8C1802.1 861.7 1801.7 860.6 1801 859.7C1800.4 858.8 1799.5 858.1 1798.6 857.6C1797.5 857.1 1796.2 856.8 1795 856.8C1793.7 856.8 1792.5 857 1791.4 857.6C1790.4 858.1 1789.6 858.9 1788.9 859.8C1788.3 860.8 1787.8 861.8 1787.5 863C1787.2 864.2 1787 865.4 1787.1 866.7C1787.1 868.1 1787.3 869.4 1787.6 870.7C1787.9 871.8 1788.4 872.9 1789.1 873.8C1789.8 874.7 1790.6 875.3 1791.6 875.8C1792.7 876.3 1793.8 876.5 1795 876.5C1796.3 876.5 1797.5 876.2 1798.6 875.7C1799.6 875.2 1800.4 874.4 1801.1 873.5C1801.7 872.5 1802.2 871.5 1802.5 870.3C1802.6 869.2 1802.8 867.9 1802.8 866.7Z" fill="#054169"/>
<path d="M1814.6 878.4H1811.9V855H1814.6V858.3C1815.6 857.2 1816.7 856.3 1817.9 855.5C1819.2 854.8 1820.6 854.4 1822.1 854.4C1823.5 854.4 1824.8 854.6 1826.1 855.1C1827.4 855.6 1828.5 856.5 1829.2 857.7C1829.7 858.5 1830.1 859.4 1830.2 860.3C1830.3 861.2 1830.4 862.1 1830.4 863.1V878.4H1827.7V863.2C1827.8 861.5 1827.3 859.8 1826.3 858.5C1825.4 857.5 1823.8 856.9 1821.7 856.9C1820.9 856.9 1820.1 857 1819.4 857.3C1818.7 857.5 1818.1 857.9 1817.5 858.3C1816.4 859.1 1815.6 860.2 1815.2 861.5C1814.9 862.2 1814.8 862.9 1814.7 863.7C1814.6 864.4 1814.6 865.1 1814.6 866V878.4Z" fill="#054169"/>
<path d="M1342.1 513.4L1354.8 481H1358.3L1370.7 513.4H1367.5L1363.8 503.2H1349L1345.2 513.4H1342.1ZM1350.1 500.6H1362.8L1356.5 483.6L1350.1 500.6Z" fill="#054169"/>
<path d="M1391.8 490H1394.5V513.3H1391.8V510.1C1391.4 510.5 1391 511 1390.6 511.4C1390.1 511.9 1389.6 512.3 1389 512.6C1388.4 513 1387.7 513.3 1387 513.5C1386.1 513.8 1385.2 513.9 1384.3 513.9C1383 513.9 1381.6 513.7 1380.4 513.2C1379.4 512.8 1378.5 512.2 1377.9 511.4C1377.2 510.6 1376.8 509.7 1376.5 508.7C1376.2 507.6 1376.1 506.4 1376.1 505.3V490H1378.8V505.3C1378.7 507 1379.2 508.6 1380.2 509.9C1381.1 511 1382.7 511.5 1384.8 511.5C1385.8 511.5 1386.9 511.3 1387.8 510.8C1388.7 510.4 1389.4 509.8 1390 509C1390.6 508.2 1391.1 507.2 1391.4 506.2C1391.7 505 1391.9 503.9 1391.9 502.7L1391.8 490Z" fill="#054169"/>
<path d="M1420.3 481H1423V513.4H1420.3V509.3H1420.2C1419.8 510.1 1419.3 510.8 1418.7 511.3C1418.1 511.9 1417.4 512.4 1416.7 512.8C1416 513.2 1415.2 513.5 1414.4 513.7C1413.7 513.9 1412.9 514 1412.1 514C1410.4 514 1408.8 513.7 1407.3 513C1406 512.4 1404.9 511.5 1404 510.4C1403.1 509.2 1402.5 507.9 1402.1 506.5C1401.7 504.9 1401.5 503.3 1401.5 501.7C1401.5 500.1 1401.7 498.5 1402.1 497C1402.5 495.6 1403.1 494.2 1404 493.1C1404.9 492 1406 491 1407.2 490.4C1408.6 489.7 1410.2 489.4 1411.8 489.4C1413.4 489.4 1415.1 489.8 1416.6 490.5C1418.1 491.2 1419.3 492.3 1420.2 493.8L1420.3 481ZM1420.3 501.6C1420.3 500.3 1420.1 499.1 1419.8 497.8C1419.5 496.7 1418.9 495.6 1418.2 494.7C1417.5 493.8 1416.7 493.1 1415.7 492.6C1414.7 492.1 1413.5 491.8 1412.4 491.8C1411.1 491.8 1409.9 492 1408.8 492.6C1407.8 493.1 1406.9 493.9 1406.3 494.9C1405.6 495.9 1405.1 497.1 1404.9 498.3C1404.6 499.7 1404.5 501 1404.5 502.4C1404.5 503.7 1404.7 505 1405.1 506.3C1405.5 507.4 1406 508.3 1406.8 509.2C1407.5 510 1408.4 510.6 1409.3 511C1410.3 511.4 1411.4 511.6 1412.5 511.6C1413.7 511.6 1414.8 511.4 1415.9 510.8C1416.9 510.3 1417.7 509.6 1418.4 508.7C1419.1 507.8 1419.6 506.7 1419.9 505.6C1420.1 504.3 1420.3 503 1420.3 501.6Z" fill="#054169"/>
<path d="M1431.3 485V481H1434.3V485H1431.3ZM1431.5 513.4V490H1434.2V513.3L1431.5 513.4Z" fill="#054169"/>
<path d="M1444 502.3C1444 503.5 1444.2 504.7 1444.5 505.9C1444.8 507 1445.3 508 1446 508.8C1446.7 509.6 1447.5 510.3 1448.4 510.8C1451 512 1454 511.8 1456.4 510.2C1457.7 509.2 1458.6 507.8 1458.9 506.2H1461.9C1461.6 507.3 1461.1 508.3 1460.6 509.3C1460.1 510.2 1459.4 511.1 1458.6 511.8C1457.8 512.5 1456.8 513.1 1455.7 513.4C1454.5 513.8 1453.1 514 1451.8 514C1450.1 514 1448.5 513.7 1447 513C1445.7 512.4 1444.6 511.5 1443.7 510.4C1442.8 509.3 1442.1 507.9 1441.8 506.5C1441.4 504.9 1441.2 503.3 1441.2 501.7C1441.2 500.1 1441.4 498.4 1441.9 496.9C1442.4 495.5 1443.1 494.2 1444 493C1444.9 491.9 1446.1 491 1447.3 490.3C1448.7 489.6 1450.2 489.3 1451.8 489.3C1454.7 489.2 1457.5 490.4 1459.4 492.6C1461.2 494.8 1462.1 498 1462.1 502.2L1444 502.3ZM1459.2 500.1C1459.2 499 1459 497.9 1458.7 496.9C1458.4 495.9 1457.9 495.1 1457.3 494.3C1456.7 493.6 1455.9 493 1455 492.5C1454 492 1452.9 491.8 1451.8 491.9C1450.7 491.9 1449.6 492.1 1448.6 492.6C1447.7 493 1446.9 493.6 1446.3 494.4C1445.6 495.2 1445.1 496.1 1444.7 497C1444.3 498 1444.1 499.1 1443.9 500.1H1459.2Z" fill="#054169"/>
<path d="M1471.4 513.4H1468.7V490H1471.4V493.2C1472.4 492.1 1473.5 491.2 1474.7 490.4C1476 489.7 1477.4 489.3 1478.9 489.3C1480.3 489.3 1481.6 489.5 1482.9 490C1484.2 490.5 1485.3 491.4 1486 492.6C1486.5 493.4 1486.9 494.3 1487 495.2C1487.1 496.1 1487.2 497 1487.2 498V513.3H1484.5V498.1C1484.6 496.4 1484.1 494.7 1483.1 493.4C1482.2 492.4 1480.6 491.8 1478.5 491.8C1477.7 491.8 1476.9 491.9 1476.2 492.2C1475.5 492.4 1474.9 492.8 1474.3 493.2C1473.2 494 1472.4 495.1 1472 496.3C1471.7 497 1471.6 497.7 1471.5 498.5C1471.4 499.2 1471.4 499.9 1471.4 500.8V513.4Z" fill="#054169"/>
<path d="M1511.5 497.4C1511.1 495.8 1510.2 494.4 1509 493.3C1507.7 492.3 1506.2 491.8 1504.6 491.8C1503.4 491.8 1502.1 492.1 1501 492.7C1500 493.3 1499.2 494 1498.6 495C1498 496 1497.5 497.1 1497.2 498.2C1496.9 499.4 1496.8 500.6 1496.8 501.8C1496.8 503 1496.9 504.2 1497.2 505.4C1497.5 506.5 1497.9 507.6 1498.6 508.5C1499.2 509.4 1500.1 510.2 1501 510.7C1502.1 511.3 1503.3 511.6 1504.6 511.5C1506.4 511.6 1508.1 511 1509.4 509.8C1510.7 508.6 1511.5 507 1511.7 505.2H1514.6C1514.4 506.4 1514 507.6 1513.5 508.7C1513 509.7 1512.3 510.7 1511.5 511.5C1510.6 512.3 1509.6 512.9 1508.5 513.3C1505.6 514.2 1502.5 514.1 1499.8 513C1498.5 512.4 1497.4 511.5 1496.5 510.4C1495.6 509.2 1494.9 507.9 1494.6 506.5C1494.2 504.9 1494 503.3 1494 501.7C1494 500.1 1494.2 498.5 1494.7 497C1495.1 495.6 1495.8 494.2 1496.7 493.1C1497.6 492 1498.8 491 1500.1 490.4C1501.5 489.7 1503.1 489.4 1504.7 489.4C1507 489.3 1509.3 490 1511.3 491.3C1513.1 492.8 1514.2 495 1514.4 497.3L1511.5 497.4Z" fill="#054169"/>
<path d="M1523 502.3C1523 503.5 1523.2 504.7 1523.5 505.9C1523.8 507 1524.3 507.9 1525 508.8C1525.7 509.6 1526.5 510.3 1527.4 510.8C1530 512 1533 511.8 1535.4 510.2C1536.7 509.2 1537.6 507.8 1537.9 506.2H1540.9C1540.6 507.3 1540.2 508.3 1539.6 509.3C1539.1 510.2 1538.4 511.1 1537.6 511.8C1536.8 512.5 1535.8 513.1 1534.7 513.4C1533.5 513.8 1532.1 514 1530.8 514C1529.1 514 1527.5 513.7 1526 513C1524.7 512.4 1523.6 511.5 1522.7 510.4C1521.8 509.3 1521.1 507.9 1520.8 506.5C1520.4 504.9 1520.2 503.3 1520.2 501.7C1520.2 500.1 1520.4 498.4 1521 496.9C1521.4 495.5 1522.2 494.2 1523.1 493C1524 491.9 1525.2 491 1526.4 490.3C1527.8 489.6 1529.3 489.3 1530.9 489.3C1533.8 489.2 1536.6 490.4 1538.5 492.6C1540.3 494.8 1541.2 498 1541.2 502.2L1523 502.3ZM1538.2 500.1C1538.2 499 1538 497.9 1537.7 496.9C1537.4 495.9 1536.9 495.1 1536.3 494.3C1535.7 493.6 1534.9 493 1534 492.5C1533 492 1531.9 491.8 1530.8 491.9C1529.7 491.9 1528.6 492.1 1527.6 492.6C1526.7 493 1525.9 493.6 1525.3 494.4C1524.6 495.2 1524.1 496.1 1523.7 497C1523.3 498 1523 499.1 1522.9 500.1H1538.2Z" fill="#054169"/>
<path d="M971.1 513.3C970.8 511.2 969.7 509.3 968 508.1C966.2 507 964.1 506.4 962 506.5C960.4 506.4 958.9 506.8 957.5 507.5C956.3 508.2 955.2 509.1 954.4 510.3C953.6 511.5 953 512.9 952.6 514.4C952.2 516 952 517.6 952 519.3C952 520.9 952.2 522.5 952.5 524C952.8 525.5 953.4 526.9 954.2 528.1C955 529.3 956.1 530.3 957.3 531C958.8 531.8 960.5 532.2 962.2 532.1C963.3 532.1 964.5 531.9 965.6 531.5C966.6 531.1 967.5 530.6 968.3 529.8C969.1 529.1 969.7 528.2 970.2 527.3C970.7 526.3 971.1 525.2 971.4 524.1H974.2C973.9 525.5 973.4 526.8 972.8 528C972.2 529.2 971.4 530.3 970.4 531.3C969.3 532.3 968.1 533 966.8 533.5C965.2 534.1 963.5 534.3 961.8 534.3C959.8 534.4 957.9 533.9 956.1 533.1C954.6 532.3 953.3 531.2 952.2 529.8C951.2 528.3 950.4 526.7 950 525C949.5 523.1 949.3 521.1 949.3 519.2C949.2 516.8 949.6 514.5 950.3 512.2C950.9 510.4 951.8 508.8 953.1 507.5C954.3 506.3 955.7 505.4 957.3 504.9C959 504.3 960.8 504.1 962.6 504.1C964 504.1 965.4 504.3 966.7 504.7C967.9 505.1 969.1 505.6 970.1 506.4C971.1 507.2 971.9 508.2 972.5 509.3C973.2 510.5 973.6 511.9 973.8 513.2L971.1 513.3Z" fill="#054169"/>
<path d="M988.6 534.3C987.3 534.3 986.1 534 984.9 533.6C983.8 533.2 982.7 532.5 981.9 531.6C981 530.6 980.3 529.5 979.8 528.2C979.3 526.7 979 525.1 979 523.4C979 522 979.2 520.5 979.6 519.1C980 517.8 980.6 516.7 981.4 515.6C982.2 514.6 983.2 513.8 984.4 513.3C987.1 512.2 990.1 512.2 992.8 513.3C994 513.8 995 514.6 995.8 515.6C996.6 516.6 997.2 517.8 997.6 519.1C998 520.5 998.2 521.9 998.2 523.4C998.2 524.9 998 526.4 997.5 527.9C997.1 529.2 996.4 530.3 995.6 531.3C994.8 532.3 993.8 533 992.6 533.5C991.4 534.1 990 534.4 988.6 534.3ZM995.6 523.4C995.6 522.2 995.5 521.1 995.2 520C995 519 994.5 518.1 994 517.2C993.4 516.4 992.7 515.8 991.8 515.3C990.8 514.8 989.7 514.6 988.6 514.6C987.5 514.6 986.4 514.8 985.4 515.3C984.5 515.8 983.8 516.5 983.2 517.3C982.6 518.2 982.2 519.1 982 520.1C981.7 521.2 981.6 522.3 981.6 523.4C981.6 524.6 981.7 525.8 982.1 526.9C982.4 527.9 982.8 528.8 983.4 529.7C984 530.5 984.7 531.1 985.6 531.5C986.5 531.9 987.6 532.2 988.6 532.1C989.7 532.1 990.8 531.9 991.8 531.4C992.7 530.9 993.4 530.2 994 529.4C994.6 528.5 995 527.6 995.2 526.6C995.5 525.6 995.6 524.5 995.6 523.4Z" fill="#054169"/>
<path d="M1005.9 533.8H1003.5V513H1005.9V516.1H1006C1006.6 514.9 1007.5 514 1008.6 513.4C1009.8 512.8 1011 512.4 1012.4 512.5C1013.2 512.5 1014 512.6 1014.8 512.8C1015.4 513 1016 513.3 1016.5 513.7C1017 514.1 1017.3 514.5 1017.7 515C1018 515.5 1018.3 516 1018.5 516.6C1019.1 515.3 1020.1 514.3 1021.3 513.6C1022.5 512.9 1023.9 512.6 1025.3 512.6C1026.5 512.5 1027.6 512.8 1028.7 513.3C1029.5 513.7 1030.2 514.4 1030.6 515.1C1031.1 515.9 1031.4 516.8 1031.5 517.7C1031.6 518.7 1031.7 519.7 1031.7 520.7V533.8H1029.3V519.6C1029.4 518.4 1029 517.1 1028.4 516.1C1027.8 515.2 1026.6 514.8 1024.9 514.8C1023.1 514.8 1021.3 515.7 1020.2 517.2C1019.9 517.6 1019.7 518 1019.5 518.4C1019.3 518.9 1019.2 519.4 1019.1 519.9C1019 520.4 1018.9 520.9 1018.9 521.4C1018.9 521.9 1018.8 522.4 1018.8 522.8V534H1016.4V519.7C1016.5 518.5 1016.1 517.2 1015.5 516.2C1014.9 515.3 1013.7 514.9 1012 514.9C1010.2 514.9 1008.4 515.8 1007.3 517.3C1007 517.7 1006.8 518.1 1006.6 518.5C1006.4 519 1006.3 519.5 1006.2 520C1006.1 520.5 1006 521 1006 521.5C1006 522 1005.9 522.5 1005.9 522.9V533.8Z" fill="#054169"/>
<path d="M1040.3 533.8H1037.9V513H1040.3V516.1H1040.4C1041 514.9 1041.9 514 1043 513.4C1044.2 512.8 1045.4 512.4 1046.8 512.5C1047.6 512.5 1048.4 512.6 1049.2 512.8C1049.8 513 1050.4 513.3 1050.9 513.7C1051.4 514.1 1051.7 514.5 1052.1 515C1052.4 515.5 1052.7 516 1052.9 516.6C1053.5 515.3 1054.5 514.3 1055.7 513.6C1056.9 512.9 1058.3 512.6 1059.7 512.6C1060.9 512.5 1062 512.8 1063.1 513.3C1063.9 513.7 1064.6 514.4 1065 515.2C1065.5 516 1065.8 516.9 1065.9 517.8C1066 518.8 1066.1 519.8 1066.1 520.8V533.9H1063.7V519.6C1063.8 518.4 1063.4 517.1 1062.8 516.1C1062.2 515.2 1061 514.8 1059.3 514.8C1057.5 514.8 1055.7 515.7 1054.6 517.2C1054.3 517.6 1054.1 518 1053.9 518.4C1053.7 518.9 1053.6 519.4 1053.5 519.9C1053.4 520.4 1053.3 520.9 1053.3 521.4C1053.3 521.9 1053.2 522.4 1053.2 522.8V534H1050.8V519.7C1050.9 518.5 1050.5 517.2 1049.9 516.2C1049.3 515.3 1048.1 514.9 1046.4 514.9C1044.6 514.9 1042.8 515.8 1041.7 517.3C1041.4 517.7 1041.2 518.1 1041 518.5C1040.8 519 1040.7 519.5 1040.6 520C1040.5 520.5 1040.4 521 1040.4 521.5C1040.4 522 1040.3 522.5 1040.3 522.9V533.8Z" fill="#054169"/>
<path d="M1074.2 524C1074.2 525.1 1074.3 526.1 1074.6 527.2C1074.9 528.1 1075.3 529 1075.9 529.8C1076.5 530.5 1077.2 531.1 1078.1 531.6C1080.4 532.7 1083.1 532.4 1085.2 531C1086.3 530.1 1087.1 528.9 1087.4 527.5H1090.1C1089.8 528.5 1089.4 529.4 1088.9 530.2C1088.4 531 1087.8 531.8 1087.1 532.4C1086.3 533 1085.5 533.5 1084.5 533.9C1083.4 534.3 1082.2 534.4 1081.1 534.4C1079.6 534.4 1078.2 534.1 1076.8 533.6C1075.6 533.1 1074.6 532.3 1073.8 531.3C1073 530.3 1072.4 529.1 1072.1 527.9C1071.7 526.5 1071.5 525.1 1071.5 523.6C1071.5 522.1 1071.7 520.7 1072.2 519.3C1072.6 518 1073.2 516.8 1074.1 515.8C1074.9 514.8 1075.9 514 1077.1 513.4C1078.3 512.8 1079.7 512.5 1081.1 512.5C1083.7 512.4 1086.2 513.5 1087.8 515.4C1089.4 517.4 1090.2 520.2 1090.2 523.9L1074.2 524ZM1087.7 522C1087.7 521 1087.6 520.1 1087.3 519.1C1087 518.3 1086.6 517.5 1086.1 516.8C1085.5 516.1 1084.8 515.6 1084 515.2C1083.1 514.8 1082.1 514.6 1081.2 514.6C1080.2 514.6 1079.3 514.8 1078.4 515.2C1077.6 515.6 1076.9 516.1 1076.3 516.8C1075.7 517.5 1075.2 518.3 1074.9 519.1C1074.5 520 1074.3 520.9 1074.2 521.9L1087.7 522Z" fill="#054169"/>
<path d="M1098.5 533.8H1096.1V513H1098.5V515.9C1099.4 514.9 1100.4 514.1 1101.5 513.4C1102.6 512.7 1103.9 512.4 1105.2 512.4C1106.4 512.4 1107.6 512.6 1108.8 513.1C1109.9 513.6 1110.9 514.4 1111.6 515.4C1112.1 516.1 1112.4 516.9 1112.5 517.7C1112.6 518.5 1112.6 519.3 1112.6 520.2V533.8H1110.2V520.4C1110.3 518.9 1109.9 517.4 1109 516.2C1108.2 515.3 1106.8 514.8 1104.9 514.8C1104.2 514.8 1103.5 514.9 1102.9 515.1C1102.3 515.3 1101.7 515.6 1101.2 516C1100.7 516.4 1100.3 516.8 1099.9 517.3C1099.6 517.8 1099.3 518.3 1099.1 518.8C1098.9 519.4 1098.7 520.1 1098.7 520.7C1098.7 521.3 1098.6 522 1098.6 522.7L1098.5 533.8Z" fill="#054169"/>
<path d="M1126.8 533.8C1126.4 533.9 1126 534 1125.6 534.1C1125.1 534.2 1124.5 534.3 1124 534.3C1123 534.4 1122 534 1121.3 533.4C1120.6 532.5 1120.2 531.3 1120.4 530.2V515H1117.5V513H1120.4V507.2H1122.8V513H1126.7V515H1122.8V529.2C1122.8 529.7 1122.8 530.1 1122.8 530.5C1122.8 530.8 1122.9 531.1 1123 531.4C1123.1 531.6 1123.4 531.8 1123.6 531.9C1124 532 1124.4 532.1 1124.8 532.1C1125.1 532.1 1125.5 532.1 1125.8 532C1126.1 531.9 1126.5 531.9 1126.8 531.8V533.8Z" fill="#054169"/>
<path d="M1141.3 521.7L1142.9 521.5C1143.4 521.4 1143.9 521.3 1144.4 521.1C1144.8 520.9 1145.1 520.6 1145.1 520.2C1145.2 519.8 1145.2 519.4 1145.2 519C1145.2 517.9 1144.8 516.8 1144 516C1143.2 515.2 1141.9 514.8 1140 514.8C1139.2 514.8 1138.5 514.9 1137.7 515C1137 515.1 1136.4 515.4 1135.9 515.8C1135.4 516.2 1134.9 516.7 1134.6 517.2C1134.2 517.9 1134 518.7 1133.9 519.5H1131.5C1131.5 518.4 1131.8 517.3 1132.3 516.4C1132.8 515.6 1133.4 514.8 1134.2 514.3C1135 513.7 1135.9 513.3 1136.8 513.1C1137.8 512.8 1138.9 512.7 1140 512.7C1141 512.7 1142 512.8 1142.9 513C1143.8 513.2 1144.6 513.6 1145.3 514.1C1146 514.6 1146.5 515.3 1146.9 516.1C1147.3 517 1147.5 518.1 1147.5 519.1V530.4C1147.5 531.3 1147.7 531.9 1148 532.2C1148.3 532.5 1149 532.4 1150 532V533.9L1149.2 534.1C1148.9 534.2 1148.5 534.3 1148.1 534.3C1147.7 534.3 1147.4 534.3 1147 534.2C1146.6 534.2 1146.3 534 1146 533.8C1145.8 533.6 1145.6 533.4 1145.4 533.1C1145.2 532.8 1145.1 532.5 1145.1 532.2C1145 531.8 1145 531.5 1145 531.1C1143 533.3 1140.2 534.6 1137.3 534.5C1136.4 534.5 1135.5 534.4 1134.7 534.1C1133.9 533.9 1133.1 533.5 1132.5 533C1131.9 532.5 1131.3 531.9 1131 531.1C1130.6 530.3 1130.4 529.4 1130.4 528.5C1130.4 525 1132.8 522.9 1137.6 522.3L1141.3 521.7ZM1145.3 522.9C1144.3 523.3 1143.3 523.6 1142.2 523.7C1141.2 523.8 1140.1 523.9 1139.1 524C1137.6 524 1136.1 524.5 1134.8 525.2C1133.8 525.9 1133.2 527.1 1133.3 528.4C1133.3 529 1133.4 529.5 1133.7 530.1C1133.9 530.6 1134.3 530.9 1134.7 531.3C1135.1 531.6 1135.6 531.8 1136.1 532C1136.6 532.1 1137.2 532.2 1137.8 532.2C1138.7 532.2 1139.7 532.1 1140.6 531.8C1141.5 531.6 1142.3 531.2 1143 530.7C1143.7 530.2 1144.3 529.6 1144.7 528.8C1145.1 528 1145.4 527 1145.3 526.1V522.9V522.9Z" fill="#054169"/>
<path d="M1155.5 508.5V505H1158.1V508.6L1155.5 508.5ZM1155.6 533.8V513H1158V533.7L1155.6 533.8Z" fill="#054169"/>
<path d="M1167.8 533.8H1165.4V513H1167.8V516.9H1167.9C1168.4 515.5 1169.3 514.3 1170.5 513.4C1171.8 512.7 1173.2 512.3 1174.7 512.4V515C1173.5 514.9 1172.4 515.1 1171.3 515.6C1170.5 516 1169.7 516.7 1169.2 517.4C1168.7 518.2 1168.3 519.2 1168.1 520.1C1167.9 521.2 1167.8 522.3 1167.8 523.4V533.8Z" fill="#054169"/>
<path d="M1180.5 524C1180.5 525.1 1180.6 526.1 1180.9 527.2C1181.2 528.1 1181.6 529 1182.2 529.8C1182.8 530.5 1183.5 531.1 1184.4 531.6C1186.7 532.7 1189.4 532.4 1191.5 531C1192.6 530.1 1193.4 528.9 1193.7 527.5H1196.4C1196.1 528.5 1195.7 529.4 1195.2 530.2C1194.7 531 1194.1 531.8 1193.4 532.4C1192.6 533 1191.8 533.5 1190.8 533.9C1189.7 534.3 1188.5 534.4 1187.4 534.4C1185.9 534.4 1184.5 534.1 1183.1 533.6C1181.9 533.1 1180.9 532.3 1180.1 531.3C1179.3 530.3 1178.7 529.1 1178.4 527.9C1178 526.5 1177.8 525.1 1177.8 523.6C1177.8 522.1 1178 520.7 1178.5 519.3C1178.9 518 1179.5 516.8 1180.4 515.8C1181.2 514.8 1182.2 514 1183.4 513.4C1184.6 512.8 1186 512.5 1187.4 512.5C1190 512.4 1192.5 513.5 1194.1 515.4C1195.7 517.4 1196.5 520.2 1196.5 523.9L1180.5 524ZM1194 522C1194 521 1193.9 520.1 1193.6 519.1C1193.3 518.3 1192.9 517.5 1192.4 516.8C1191.8 516.1 1191.1 515.6 1190.3 515.2C1189.4 514.8 1188.4 514.6 1187.5 514.6C1186.5 514.6 1185.6 514.8 1184.7 515.2C1183.9 515.6 1183.2 516.1 1182.6 516.8C1182 517.5 1181.5 518.3 1181.2 519.1C1180.8 520 1180.6 520.9 1180.5 521.9L1194 522Z" fill="#054169"/>
<path d="M1203.8 527.3C1204 528.8 1204.7 530.1 1205.8 531.1C1207 531.9 1208.5 532.3 1210 532.2C1210.8 532.2 1211.5 532.1 1212.3 531.9C1212.9 531.7 1213.4 531.4 1213.9 531C1214.3 530.7 1214.6 530.2 1214.8 529.8C1215 529.3 1215.1 528.9 1215.1 528.4C1215.2 527.5 1214.8 526.7 1214.1 526.1C1213.4 525.6 1212.5 525.2 1211.6 524.9C1210.5 524.6 1209.5 524.4 1208.4 524.2C1207.3 524 1206.2 523.7 1205.2 523.3C1204.3 522.9 1203.4 522.3 1202.7 521.6C1202 520.7 1201.6 519.6 1201.7 518.4C1201.7 516.8 1202.4 515.2 1203.6 514.1C1205.1 512.9 1207 512.3 1209 512.4C1210.9 512.3 1212.8 512.8 1214.5 513.9C1216 515.1 1216.9 516.9 1217 518.9H1214.6C1214.5 517.6 1213.9 516.3 1212.8 515.5C1211.7 514.8 1210.4 514.5 1209 514.5C1207.8 514.4 1206.5 514.8 1205.5 515.5C1204.7 516.1 1204.3 517.1 1204.3 518.1C1204.3 518.9 1204.6 519.7 1205.3 520.2C1206 520.7 1206.9 521.1 1207.8 521.4C1208.8 521.7 1209.9 522 1211 522.2C1212.1 522.4 1213.2 522.8 1214.2 523.2C1215.1 523.6 1216 524.2 1216.7 525C1217.4 525.9 1217.8 527 1217.7 528.1C1217.7 529 1217.5 529.9 1217.1 530.7C1216.7 531.5 1216.1 532.1 1215.3 532.6C1214.5 533.1 1213.6 533.5 1212.6 533.7C1211.5 534 1210.4 534.1 1209.2 534.1C1208.1 534.1 1207 533.9 1205.9 533.6C1205 533.3 1204.2 532.8 1203.5 532.1C1202.8 531.5 1202.3 530.7 1201.9 529.9C1201.5 529 1201.3 528.1 1201.3 527.1L1203.8 527.3Z" fill="#054169"/>
<path d="M119.5 523.4V491H130.6C131.5 491 132.4 491 133.2 491.1C134.1 491.1 134.9 491.3 135.8 491.4C136.6 491.6 137.5 491.8 138.2 492.1C139 492.4 139.8 492.9 140.5 493.4C141.6 494.2 142.5 495.1 143.1 496.3C143.8 497.4 144.3 498.6 144.7 499.9C145.1 501.1 145.4 502.4 145.6 503.7C145.8 504.9 145.8 506 145.9 507.2C145.9 508.3 145.8 509.4 145.7 510.5C145.6 511.6 145.4 512.7 145.1 513.8C144.8 514.9 144.4 515.9 143.9 516.9C143.4 517.9 142.8 518.7 142 519.5C141.3 520.3 140.5 521 139.6 521.5C138.7 522 137.8 522.4 136.8 522.7C135.8 523 134.8 523.2 133.8 523.3C132.7 523.4 131.7 523.5 130.6 523.5L119.5 523.4ZM122.5 520.8H129.8C131.1 520.8 132.4 520.7 133.7 520.5C135 520.3 136.3 519.9 137.4 519.3C138.4 518.8 139.4 518 140 517.1C140.7 516.2 141.2 515.2 141.6 514.1C142 513 142.3 511.8 142.5 510.7C142.7 509.6 142.7 508.4 142.8 507.2C142.8 506 142.7 504.8 142.6 503.6C142.5 502.4 142.2 501.3 141.7 500.1C141.3 499 140.7 498 140 497.1C139.2 496.2 138.3 495.4 137.2 494.8C136.1 494.3 135 493.9 133.8 493.8C132.5 493.7 131.1 493.6 129.8 493.6H122.5V520.8Z" fill="#054169"/>
<path d="M154.5 512.3C154.5 513.5 154.7 514.7 155 515.9C155.3 517 155.8 518 156.5 518.8C157.2 519.6 158 520.3 158.9 520.8C160 521.3 161.1 521.6 162.3 521.6C163.9 521.6 165.5 521.2 166.8 520.2C168.1 519.2 169 517.8 169.3 516.2H172.3C172 517.3 171.5 518.3 171 519.3C170.5 520.2 169.8 521.1 169 521.8C168.2 522.5 167.2 523.1 166.1 523.4C164.9 523.8 163.5 524 162.2 524C160.5 524 158.9 523.7 157.4 523C156.1 522.4 155 521.5 154.1 520.4C153.2 519.3 152.5 517.9 152.2 516.5C151.8 514.9 151.6 513.3 151.6 511.7C151.6 510.1 151.8 508.4 152.3 506.9C152.8 505.5 153.5 504.1 154.4 503C155.3 501.9 156.5 501 157.8 500.3C159.2 499.6 160.7 499.3 162.3 499.3C165.2 499.2 168 500.4 169.9 502.6C171.7 504.8 172.6 508 172.6 512.2L154.5 512.3ZM169.7 510.1C169.7 509 169.5 507.9 169.2 506.9C168.9 505.9 168.4 505.1 167.8 504.3C167.2 503.6 166.4 503 165.5 502.5C164.5 502 163.4 501.8 162.3 501.9C161.2 501.9 160.1 502.1 159.1 502.6C158.2 503 157.4 503.6 156.8 504.4C156.1 505.2 155.6 506.1 155.2 507C154.8 508 154.6 509.1 154.4 510.1H169.7Z" fill="#054169"/>
<path d="M181.5 523.4H178.8V500H181.5V503.5H181.6C182.3 502.2 183.3 501.1 184.6 500.4C185.9 499.7 187.4 499.3 188.8 499.4C189.7 499.4 190.7 499.5 191.5 499.8C192.2 500 192.8 500.4 193.4 500.8C193.9 501.2 194.4 501.7 194.7 502.2C195.1 502.8 195.3 503.3 195.6 504C196.3 502.6 197.4 501.4 198.7 500.6C200.1 499.8 201.6 499.5 203.2 499.5C204.5 499.4 205.8 499.7 207 500.3C207.9 500.8 208.6 501.5 209.2 502.4C209.7 503.3 210.1 504.3 210.2 505.4C210.4 506.5 210.5 507.7 210.5 508.8V523.5H207.8V507.3C207.9 505.9 207.5 504.5 206.7 503.3C206 502.3 204.7 501.9 202.8 501.9C200.7 501.9 198.8 502.9 197.5 504.5C197.2 504.9 196.9 505.4 196.8 505.9C196.6 506.4 196.4 507 196.3 507.5C196.2 508.1 196.1 508.6 196.1 509.2C196.1 509.8 196 510.3 196 510.8V523.4H193.3V507.3C193.4 505.9 193 504.5 192.2 503.3C191.5 502.3 190.2 501.9 188.3 501.9C186.2 501.9 184.2 502.9 183 504.6C182.7 505 182.4 505.5 182.3 506C182.1 506.5 181.9 507.1 181.8 507.6C181.7 508.2 181.6 508.7 181.6 509.3C181.5 509.9 181.5 510.4 181.5 510.9V523.4Z" fill="#054169"/>
<path d="M228.7 509.8C229.2 509.7 229.8 509.7 230.5 509.5C231.1 509.4 231.7 509.2 232.2 509C232.6 508.8 233 508.4 233 507.9C233.1 507.4 233.1 507 233.1 506.5C233.1 505.2 232.7 504 231.8 503.1C230.9 502.2 229.4 501.8 227.3 501.8C226.4 501.8 225.6 501.9 224.7 502C224 502.2 223.3 502.4 222.7 502.9C222.1 503.3 221.6 503.9 221.3 504.5C220.9 505.3 220.6 506.2 220.5 507H217.8C217.8 505.8 218.2 504.6 218.7 503.5C219.2 502.6 219.9 501.7 220.8 501.1C221.7 500.5 222.7 500 223.8 499.7C225 499.4 226.2 499.3 227.4 499.3C228.5 499.3 229.6 499.4 230.7 499.7C231.7 499.9 232.6 500.3 233.4 500.9C234.2 501.5 234.8 502.2 235.2 503.1C235.7 504.2 235.9 505.3 235.8 506.5V519.2C235.8 520.2 236 520.9 236.4 521.2C236.8 521.5 237.5 521.4 238.7 521V523.1L237.8 523.4C237.4 523.5 237 523.6 236.6 523.6C236.2 523.6 235.8 523.6 235.4 523.5C235 523.5 234.6 523.3 234.3 523.1C234 522.9 233.8 522.6 233.7 522.3C233.5 522 233.4 521.6 233.4 521.3C233.3 520.9 233.3 520.5 233.3 520.1C232.2 521.3 230.9 522.3 229.4 523C227.9 523.7 226.3 524 224.6 524C223.6 524 222.6 523.9 221.7 523.6C220.8 523.4 219.9 522.9 219.2 522.3C218.5 521.7 217.9 521 217.5 520.2C217.1 519.3 216.8 518.2 216.9 517.2C216.9 513.2 219.6 510.9 225 510.2L228.7 509.8ZM233.2 511.1C232.1 511.6 230.9 511.9 229.7 512C228.5 512.2 227.4 512.3 226.2 512.4C224.5 512.4 222.8 512.9 221.4 513.8C220.2 514.6 219.6 515.9 219.7 517.3C219.7 517.9 219.8 518.6 220.1 519.2C220.4 519.7 220.8 520.2 221.2 520.5C221.7 520.9 222.2 521.1 222.8 521.3C223.4 521.5 224 521.5 224.7 521.6C225.8 521.6 226.8 521.5 227.8 521.2C228.8 521 229.7 520.5 230.5 520C231.3 519.5 231.9 518.7 232.4 517.9C232.9 517 233.1 515.9 233.1 514.9L233.2 511.1Z" fill="#054169"/>
<path d="M247 523.4H244.3V500H247V503.2C248 502.1 249.1 501.2 250.4 500.4C251.7 499.7 253.1 499.3 254.6 499.3C256 499.3 257.3 499.5 258.6 500C259.9 500.5 261 501.4 261.7 502.6C262.2 503.4 262.6 504.3 262.7 505.2C262.8 506.1 262.9 507 262.9 508V523.3H260.2V508.1C260.3 506.4 259.8 504.7 258.8 503.4C257.9 502.4 256.3 501.8 254.2 501.8C253.4 501.8 252.6 501.9 251.9 502.2C251.2 502.4 250.6 502.8 250 503.2C248.9 504 248.1 505.1 247.7 506.3C247.4 507 247.3 507.7 247.2 508.5C247.1 509.2 247.1 509.9 247.1 510.8L247 523.4Z" fill="#054169"/>
<path d="M288.6 491H291.3V523.4H288.6V519.3H288.5C288.1 520 287.6 520.7 287 521.3C286.4 521.9 285.7 522.4 285 522.8C284.3 523.2 283.5 523.5 282.7 523.7C282 523.9 281.2 524 280.4 524C278.7 524 277.1 523.7 275.6 523C274.3 522.4 273.2 521.5 272.3 520.4C271.4 519.2 270.8 517.9 270.4 516.5C270 514.9 269.8 513.3 269.8 511.7C269.8 510.1 270 508.5 270.4 507C270.8 505.6 271.4 504.2 272.3 503.1C273.2 502 274.3 501 275.5 500.4C276.9 499.7 278.5 499.4 280.1 499.4C281.7 499.4 283.4 499.8 284.9 500.5C286.4 501.2 287.6 502.3 288.5 503.8L288.6 491ZM288.6 511.6C288.6 510.3 288.4 509.1 288.1 507.8C287.8 506.7 287.2 505.6 286.6 504.7C285.9 503.8 285.1 503.1 284.1 502.6C283.1 502.1 281.9 501.8 280.8 501.8C279.5 501.8 278.3 502 277.2 502.6C276.2 503.1 275.3 503.9 274.7 504.9C274 505.9 273.5 507.1 273.3 508.3C273 509.7 272.9 511 272.9 512.4C272.9 513.7 273.1 515 273.5 516.3C273.9 517.4 274.4 518.3 275.2 519.2C275.9 520 276.8 520.6 277.7 521C278.7 521.4 279.8 521.6 280.8 521.6C282 521.6 283.1 521.4 284.2 520.8C285.2 520.3 286 519.6 286.7 518.7C287.4 517.8 287.9 516.7 288.2 515.5C288.5 514.3 288.6 513 288.6 511.6Z" fill="#054169"/>
<path d="M301.1 512.3C301.1 513.5 301.3 514.7 301.6 515.9C301.9 517 302.4 517.9 303.1 518.8C303.8 519.6 304.6 520.3 305.6 520.8C308.2 522 311.2 521.8 313.6 520.1C314.9 519.1 315.8 517.7 316.1 516.1H319.1C318.8 517.2 318.4 518.2 317.8 519.2C317.3 520.1 316.6 521 315.8 521.7C315 522.4 314 523 312.9 523.3C311.7 523.7 310.3 523.9 309 523.9C307.3 523.9 305.7 523.6 304.2 522.9C302.9 522.3 301.8 521.4 300.9 520.3C300 519.2 299.3 517.8 299 516.4C298.6 514.8 298.4 513.2 298.4 511.6C298.4 510 298.6 508.3 299.2 506.8C299.7 505.4 300.4 504 301.3 502.9C302.2 501.8 303.4 500.9 304.7 500.2C306.1 499.5 307.6 499.2 309.2 499.2C312.1 499.1 314.9 500.3 316.8 502.5C318.6 504.7 319.5 507.9 319.5 512.1L301.1 512.3ZM316.3 510.1C316.3 509 316.2 507.9 315.8 506.9C315.5 505.9 315 505.1 314.4 504.3C313.8 503.6 313 503 312.1 502.5C311.1 502 310 501.8 308.9 501.9C307.8 501.9 306.7 502.1 305.7 502.6C304.8 503 304 503.6 303.4 504.4C302.7 505.2 302.2 506.1 301.9 507C301.5 508 301.2 509.1 301.1 510.1H316.3Z" fill="#054169"/>
<path d="M622.9 487.04H627.975C635.15 487.005 638.265 490.05 638.265 497.505C638.265 504.96 635.15 508.005 627.975 507.97H622.9V487.04ZM620.52 510H629.165C636.69 509.825 640.645 505.695 640.645 497.505C640.645 489.315 636.69 485.185 629.165 485.01H620.52V510ZM659.25 501.565C659.425 496.49 657.115 491.415 651.305 491.415C645.565 491.415 643.15 496.21 643.15 500.97C643.15 506.115 645.565 510.525 651.305 510.525C655.855 510.525 658.235 508.145 659.18 504.05H656.975C656.275 506.78 654.525 508.67 651.305 508.67C647.07 508.67 645.39 504.785 645.355 501.565H659.25ZM645.355 499.71C645.705 496.42 647.7 493.27 651.305 493.27C654.875 493.27 656.94 496.385 657.045 499.71H645.355ZM662.209 510H664.414V499.92C664.449 496.14 665.989 493.27 669.804 493.27C672.604 493.27 673.619 495.3 673.584 497.75V510H675.789V499.78C675.789 496.42 676.874 493.27 680.689 493.27C683.839 493.27 684.959 494.88 684.959 497.855V510H687.164V497.75C687.164 493.48 685.134 491.415 681.179 491.415C678.799 491.415 676.524 492.57 675.439 494.95C674.774 492.57 672.639 491.415 670.259 491.415C667.389 491.415 665.499 492.815 664.344 494.985H664.239V491.94H662.209V510ZM702.915 503C702.95 506.535 699.975 508.67 696.615 508.67C694.55 508.67 692.59 507.305 692.59 505.1C692.59 501.565 697.245 501.6 700.99 500.935C701.585 500.83 702.565 500.655 702.845 500.13H702.915V503ZM693.36 497.47C693.43 494.53 695.46 493.27 698.19 493.27C700.78 493.27 702.915 494.005 702.915 496.98C702.915 498.975 701.9 499.22 700.08 499.43C695.32 499.99 690.385 500.165 690.385 505.24C690.385 508.88 693.115 510.525 696.44 510.525C699.905 510.525 701.48 509.195 703.02 506.85H703.09C703.09 508.74 703.44 510 705.68 510C706.275 510 706.625 509.965 707.115 509.86V508.005C706.94 508.075 706.66 508.145 706.415 508.145C705.54 508.145 705.12 507.655 705.12 506.815V497.225C705.12 492.395 701.655 491.415 698.47 491.415C694.34 491.415 691.365 493.235 691.155 497.47H693.36ZM709.479 510H711.684V499.465C711.754 495.93 713.854 493.27 717.354 493.27C720.924 493.27 721.939 495.615 721.939 498.73V510H724.144V498.38C724.144 494.075 722.604 491.415 717.529 491.415C714.974 491.415 712.559 492.885 711.754 495.055H711.684V491.94H709.479V510ZM729.748 500.97C729.748 497.225 731.463 493.27 735.663 493.27C740.353 493.27 741.998 497.225 741.998 500.97C741.998 504.715 740.353 508.67 735.663 508.67C731.463 508.67 729.748 504.715 729.748 500.97ZM744.203 485.01H741.998V495.37H741.928C740.983 492.78 738.358 491.415 735.663 491.415C730.168 491.415 727.543 495.86 727.543 500.97C727.543 506.08 730.168 510.525 735.663 510.525C738.288 510.525 741.158 508.915 742.103 506.57H742.173V510H744.203V485.01ZM763.601 501.565C763.776 496.49 761.466 491.415 755.656 491.415C749.916 491.415 747.501 496.21 747.501 500.97C747.501 506.115 749.916 510.525 755.656 510.525C760.206 510.525 762.586 508.145 763.531 504.05H761.326C760.626 506.78 758.876 508.67 755.656 508.67C751.421 508.67 749.741 504.785 749.706 501.565H763.601ZM749.706 499.71C750.056 496.42 752.051 493.27 755.656 493.27C759.226 493.27 761.291 496.385 761.396 499.71H749.706ZM777.736 500.97C777.736 497.225 779.451 493.27 783.651 493.27C788.341 493.27 789.986 497.225 789.986 500.97C789.986 504.715 788.341 508.67 783.651 508.67C779.451 508.67 777.736 504.715 777.736 500.97ZM792.191 485.01H789.986V495.37H789.916C788.971 492.78 786.346 491.415 783.651 491.415C778.156 491.415 775.531 495.86 775.531 500.97C775.531 506.08 778.156 510.525 783.651 510.525C786.276 510.525 789.146 508.915 790.091 506.57H790.161V510H792.191V485.01ZM811.589 501.565C811.764 496.49 809.454 491.415 803.644 491.415C797.904 491.415 795.489 496.21 795.489 500.97C795.489 506.115 797.904 510.525 803.644 510.525C808.194 510.525 810.574 508.145 811.519 504.05H809.314C808.614 506.78 806.864 508.67 803.644 508.67C799.409 508.67 797.729 504.785 797.694 501.565H811.589ZM797.694 499.71C798.044 496.42 800.039 493.27 803.644 493.27C807.214 493.27 809.279 496.385 809.384 499.71H797.694ZM620.1 552H622.305V542.375C622.305 538.63 625.035 535.69 629.025 535.9V533.695C625.77 533.555 623.32 535.27 622.2 538.175H622.13V533.94H620.1V552ZM645.715 543.565C645.89 538.49 643.58 533.415 637.77 533.415C632.03 533.415 629.615 538.21 629.615 542.97C629.615 548.115 632.03 552.525 637.77 552.525C642.32 552.525 644.7 550.145 645.645 546.05H643.44C642.74 548.78 640.99 550.67 637.77 550.67C633.535 550.67 631.855 546.785 631.82 543.565H645.715ZM631.82 541.71C632.17 538.42 634.165 535.27 637.77 535.27C641.34 535.27 643.405 538.385 643.51 541.71H631.82ZM648.639 552H650.844V541.465C650.914 537.93 653.014 535.27 656.514 535.27C660.084 535.27 661.099 537.615 661.099 540.73V552H663.304V540.38C663.304 536.075 661.764 533.415 656.689 533.415C654.134 533.415 651.719 534.885 650.914 537.055H650.844V533.94H648.639V552ZM680.493 539.225C680.353 535.305 677.483 533.415 673.878 533.415C670.693 533.415 667.088 534.815 667.088 538.49C667.088 541.57 669.258 542.55 672.128 543.32L674.963 543.95C676.958 544.44 678.918 545.14 678.918 547.24C678.918 549.76 676.048 550.67 673.983 550.67C671.043 550.67 668.838 549.13 668.663 546.155H666.458C666.808 550.565 669.678 552.525 673.878 552.525C677.238 552.525 681.123 551.02 681.123 547.1C681.123 543.95 678.498 542.48 675.978 542.095L673.038 541.43C671.533 541.045 669.293 540.345 669.293 538.385C669.293 536.04 671.603 535.27 673.563 535.27C676.083 535.27 678.183 536.495 678.288 539.225H680.493ZM699.514 543.565C699.689 538.49 697.379 533.415 691.569 533.415C685.829 533.415 683.414 538.21 683.414 542.97C683.414 548.115 685.829 552.525 691.569 552.525C696.119 552.525 698.499 550.145 699.444 546.05H697.239C696.539 548.78 694.789 550.67 691.569 550.67C687.334 550.67 685.654 546.785 685.619 543.565H699.514ZM685.619 541.71C685.969 538.42 687.964 535.27 691.569 535.27C695.139 535.27 697.204 538.385 697.309 541.71H685.619ZM702.508 552H704.713V533.94H702.508V552ZM702.508 530.545H704.713V527.01H702.508V530.545ZM716.178 549.935C712.118 549.935 710.228 546.4 710.228 542.76C710.228 539.015 711.978 535.27 716.178 535.27C720.343 535.27 721.988 539.225 721.988 542.76C721.988 546.435 719.993 549.935 716.178 549.935ZM724.193 533.94H721.988V537.055H721.918C721.043 535.06 718.803 533.415 716.178 533.415C710.963 533.415 708.023 537.545 708.023 542.515C708.023 547.66 710.403 551.79 716.178 551.79C718.768 551.79 720.903 550.285 721.918 548.08H721.988V550.53C721.988 554.94 720.238 557.355 716.178 557.355C713.728 557.355 711.383 556.41 710.893 553.75H708.688C709.003 557.6 712.573 559.21 716.178 559.21C722.093 559.21 724.158 555.92 724.193 550.53V533.94ZM728.346 552H730.551V541.465C730.621 537.93 732.721 535.27 736.221 535.27C739.791 535.27 740.806 537.615 740.806 540.73V552H743.011V540.38C743.011 536.075 741.471 533.415 736.396 533.415C733.841 533.415 731.426 534.885 730.621 537.055H730.551V533.94H728.346V552ZM762.37 543.565C762.545 538.49 760.235 533.415 754.425 533.415C748.685 533.415 746.27 538.21 746.27 542.97C746.27 548.115 748.685 552.525 754.425 552.525C758.975 552.525 761.355 550.145 762.3 546.05H760.095C759.395 548.78 757.645 550.67 754.425 550.67C750.19 550.67 748.51 546.785 748.475 543.565H762.37ZM748.475 541.71C748.825 538.42 750.82 535.27 754.425 535.27C757.995 535.27 760.06 538.385 760.165 541.71H748.475ZM765.329 552H767.534V541.92C767.569 538.14 769.109 535.27 772.924 535.27C775.724 535.27 776.739 537.3 776.704 539.75V552H778.909V541.78C778.909 538.42 779.994 535.27 783.809 535.27C786.959 535.27 788.079 536.88 788.079 539.855V552H790.284V539.75C790.284 535.48 788.254 533.415 784.299 533.415C781.919 533.415 779.644 534.57 778.559 536.95C777.894 534.57 775.759 533.415 773.379 533.415C770.509 533.415 768.619 534.815 767.464 536.985H767.359V533.94H765.329V552ZM809.675 543.565C809.85 538.49 807.54 533.415 801.73 533.415C795.99 533.415 793.575 538.21 793.575 542.97C793.575 548.115 795.99 552.525 801.73 552.525C806.28 552.525 808.66 550.145 809.605 546.05H807.4C806.7 548.78 804.95 550.67 801.73 550.67C797.495 550.67 795.815 546.785 795.78 543.565H809.675ZM795.78 541.71C796.13 538.42 798.125 535.27 801.73 535.27C805.3 535.27 807.365 538.385 807.47 541.71H795.78ZM812.599 552H814.804V541.465C814.874 537.93 816.974 535.27 820.474 535.27C824.044 535.27 825.059 537.615 825.059 540.73V552H827.264V540.38C827.264 536.075 825.724 533.415 820.649 533.415C818.094 533.415 815.679 534.885 814.874 537.055H814.804V533.94H812.599V552ZM834.933 528.515H832.728V533.94H829.578V535.795H832.728V548.15C832.693 551.23 833.708 552.21 836.648 552.21C837.313 552.21 837.943 552.14 838.608 552.14V550.25C837.978 550.32 837.348 550.355 836.718 550.355C835.143 550.25 834.933 549.41 834.933 547.975V535.795H838.608V533.94H834.933V528.515ZM854.809 539.225C854.669 535.305 851.799 533.415 848.194 533.415C845.009 533.415 841.404 534.815 841.404 538.49C841.404 541.57 843.574 542.55 846.444 543.32L849.279 543.95C851.274 544.44 853.234 545.14 853.234 547.24C853.234 549.76 850.364 550.67 848.299 550.67C845.359 550.67 843.154 549.13 842.979 546.155H840.774C841.124 550.565 843.994 552.525 848.194 552.525C851.554 552.525 855.439 551.02 855.439 547.1C855.439 543.95 852.814 542.48 850.294 542.095L847.354 541.43C845.849 541.045 843.609 540.345 843.609 538.385C843.609 536.04 845.919 535.27 847.879 535.27C850.399 535.27 852.499 536.495 852.604 539.225H854.809Z" fill="#054169"/>
<path d="M1409 573C1407.4 573 1405.9 572.7 1404.5 572.1C1403.1 571.6 1401.9 570.7 1400.9 569.7C1399.9 568.6 1399 567.3 1398.4 565.6C1397.8 564 1397.5 562.1 1397.5 559.9C1397.5 558.1 1397.7 556.4 1398.2 554.8C1398.7 553.2 1399.4 551.8 1400.4 550.6C1401.4 549.4 1402.6 548.5 1404 547.8C1405.4 547.1 1407.1 546.8 1409 546.8C1411 546.8 1412.6 547.1 1414.1 547.8C1415.5 548.5 1416.7 549.4 1417.7 550.6C1418.7 551.8 1419.4 553.2 1419.8 554.8C1420.3 556.4 1420.5 558.1 1420.5 559.9C1420.5 561.9 1420.2 563.7 1419.7 565.3C1419.2 566.9 1418.4 568.3 1417.4 569.4C1416.4 570.6 1415.2 571.4 1413.8 572.1C1412.3 572.6 1410.7 573 1409 573ZM1417.4 559.8C1417.4 558.3 1417.2 557 1416.9 555.7C1416.6 554.4 1416.1 553.3 1415.4 552.4C1414.7 551.5 1413.9 550.7 1412.8 550.2C1411.7 549.7 1410.4 549.4 1408.9 549.4C1407.4 549.4 1406.1 549.7 1405 550.3C1403.9 550.9 1403.1 551.7 1402.4 552.7C1401.7 553.7 1401.2 554.8 1400.9 556.1C1400.6 557.4 1400.4 558.7 1400.4 560C1400.4 561.5 1400.6 563 1401 564.2C1401.4 565.5 1401.9 566.6 1402.6 567.5C1403.3 568.4 1404.2 569.1 1405.2 569.7C1406.3 570.2 1407.5 570.5 1408.8 570.5C1410.3 570.5 1411.6 570.2 1412.7 569.6C1413.8 569 1414.6 568.2 1415.3 567.2C1416 566.2 1416.5 565.1 1416.8 563.8C1417.2 562.5 1417.4 561.2 1417.4 559.8Z" fill="#054169"/>
<path d="M1428.8 572.3H1425.9V547.4H1428.8V552.1H1428.9C1429.7 550.1 1430.7 548.7 1432 547.9C1433.3 547.1 1434.9 546.7 1437 546.7V549.8C1435.4 549.8 1434 550 1433 550.6C1431.9 551.1 1431.1 551.9 1430.5 552.8C1429.9 553.7 1429.4 554.8 1429.2 556.1C1429 557.4 1428.8 558.7 1428.8 560.1V572.3V572.3Z" fill="#054169"/>
<path d="M1453.2 557.8C1453.7 557.7 1454.4 557.6 1455.1 557.5C1455.9 557.4 1456.5 557.2 1456.9 557C1457.4 556.8 1457.7 556.4 1457.8 555.9C1457.9 555.4 1458 554.9 1458 554.4C1458 552.9 1457.5 551.7 1456.6 550.8C1455.7 549.9 1454.1 549.4 1451.8 549.4C1450.8 549.4 1449.9 549.5 1449.1 549.7C1448.3 549.9 1447.5 550.2 1446.9 550.6C1446.3 551 1445.8 551.6 1445.4 552.3C1445 553 1444.7 553.9 1444.6 555H1441.7C1441.8 553.5 1442.1 552.3 1442.7 551.2C1443.3 550.2 1444 549.3 1444.9 548.7C1445.8 548 1446.9 547.6 1448.1 547.3C1449.3 547 1450.6 546.8 1451.9 546.8C1453.1 546.8 1454.3 546.9 1455.4 547.2C1456.5 547.5 1457.5 547.9 1458.3 548.5C1459.1 549.1 1459.8 549.9 1460.2 550.9C1460.7 551.9 1460.9 553.1 1460.9 554.5V568C1460.9 569.1 1461.1 569.8 1461.5 570.1C1461.9 570.4 1462.7 570.3 1463.9 569.9V572.2C1463.7 572.3 1463.3 572.4 1462.9 572.5C1462.5 572.6 1462 572.7 1461.6 572.7C1461.2 572.7 1460.7 572.7 1460.3 572.6C1459.8 572.5 1459.4 572.4 1459.1 572.1C1458.8 571.8 1458.6 571.6 1458.4 571.2C1458.2 570.9 1458.1 570.5 1458 570.1C1457.9 569.7 1457.9 569.3 1457.9 568.8C1456.7 570.1 1455.3 571.2 1453.7 571.9C1452.1 572.6 1450.4 573 1448.6 573C1447.5 573 1446.5 572.9 1445.5 572.6C1444.5 572.3 1443.6 571.9 1442.8 571.3C1442 570.7 1441.4 569.9 1441 569.1C1440.6 568.2 1440.3 567.2 1440.3 566C1440.3 561.8 1443.2 559.3 1449 558.5L1453.2 557.8ZM1458 559.2C1456.8 559.7 1455.6 560 1454.3 560.2C1453 560.4 1451.8 560.5 1450.6 560.6C1448.4 560.8 1446.7 561.3 1445.4 562.1C1444.2 562.9 1443.6 564.2 1443.6 565.9C1443.6 566.7 1443.8 567.3 1444.1 567.9C1444.4 568.5 1444.8 568.9 1445.3 569.3C1445.8 569.7 1446.4 569.9 1447 570.1C1447.7 570.3 1448.3 570.4 1449 570.4C1450.2 570.4 1451.3 570.3 1452.4 570C1453.5 569.7 1454.5 569.3 1455.3 568.7C1456.1 568.1 1456.8 567.4 1457.3 566.4C1457.8 565.5 1458.1 564.4 1458.1 563.2V559.2H1458Z" fill="#054169"/>
<path d="M1468.9 572.3V537.7H1471.8V572.3H1468.9Z" fill="#054169"/>
<path d="M1480.9 560.5C1480.9 561.8 1481.1 563.1 1481.4 564.3C1481.8 565.5 1482.3 566.5 1483 567.4C1483.7 568.3 1484.6 569 1485.6 569.5C1486.7 570 1487.9 570.3 1489.2 570.3C1491.1 570.3 1492.7 569.8 1494 568.8C1495.3 567.8 1496.2 566.4 1496.7 564.6H1499.9C1499.5 565.8 1499.1 566.9 1498.5 567.9C1497.9 568.9 1497.2 569.8 1496.3 570.5C1495.4 571.3 1494.4 571.8 1493.2 572.3C1492 572.7 1490.6 572.9 1489.1 572.9C1487.1 572.9 1485.4 572.6 1484 571.9C1482.6 571.2 1481.4 570.3 1480.4 569.1C1479.5 567.9 1478.8 566.6 1478.3 565C1477.9 563.4 1477.6 561.7 1477.6 559.9C1477.6 558.1 1477.9 556.4 1478.4 554.8C1478.9 553.2 1479.7 551.8 1480.7 550.6C1481.7 549.4 1482.9 548.5 1484.3 547.8C1485.7 547.1 1487.3 546.8 1489.1 546.8C1492.5 546.8 1495.2 548 1497.2 550.3C1499.2 552.7 1500.1 556.1 1500.1 560.5H1480.9V560.5ZM1497.1 558.1C1497.1 556.9 1496.9 555.7 1496.6 554.7C1496.3 553.7 1495.8 552.7 1495.1 551.9C1494.4 551.1 1493.6 550.5 1492.6 550C1491.6 549.5 1490.5 549.3 1489.2 549.3C1487.9 549.3 1486.8 549.5 1485.8 550C1484.8 550.5 1484 551.1 1483.3 551.9C1482.6 552.7 1482.1 553.6 1481.6 554.7C1481.2 555.8 1480.9 556.9 1480.8 558.1H1497.1Z" fill="#054169"/>
</svg>
