<svg width="61" height="61" viewBox="0 0 61 61" fill="none" xmlns="http://www.w3.org/2000/svg">
<path d="M59.5813 60.8583H1.4186C0.635108 60.8583 0 60.2245 0 59.443V46.7052C0 45.9235 0.635108 45.2899 1.4186 45.2899C2.2021 45.2899 2.8372 45.9235 2.8372 46.7052V58.0277H58.1627V2.83062H55.6092C54.8259 2.83062 54.1906 2.19684 54.1906 1.41531C54.1906 0.633634 54.8259 0 55.6092 0H59.5813C60.3647 0 60.9999 0.633634 60.9999 1.41531V59.443C60.9999 60.2245 60.3647 60.8583 59.5813 60.8583ZM1.4186 41.044C0.635108 41.044 0 40.4102 0 39.6287V39.4871C0 38.7055 0.635108 38.0718 1.4186 38.0718C2.2021 38.0718 2.8372 38.7055 2.8372 39.4871V39.6287C2.8372 40.4102 2.20195 41.044 1.4186 41.044ZM1.4186 33.8259C0.635108 33.8259 0 33.1921 0 32.4106V1.41531C0 0.633634 0.635108 0 1.4186 0H41.2813C42.0647 0 42.6999 0.633634 42.6999 1.41531C42.6999 2.19684 42.0647 2.83062 41.2813 2.83062H2.8372V32.4106C2.8372 33.1921 2.20195 33.8259 1.4186 33.8259ZM48.5162 2.83062H48.3743C47.591 2.83062 46.9557 2.19684 46.9557 1.41531C46.9557 0.633634 47.591 0 48.3743 0H48.5162C49.2996 0 49.9348 0.633634 49.9348 1.41531C49.9348 2.19684 49.2996 2.83062 48.5162 2.83062Z" fill="#434343"/>
<path d="M39.7216 60.8585C39.1761 60.8585 38.6562 60.5431 38.4224 60.0129C35.2587 52.8391 29.7687 47.4185 22.1048 43.9011C13.4451 39.9268 4.64279 39.6178 2.1513 39.6178C1.71834 39.6178 1.4786 39.6272 1.47633 39.6272C0.695245 39.6582 0.0336087 39.0513 0.00169016 38.2706C-0.0302284 37.4899 0.577501 36.8312 1.36 36.7991C1.37178 36.7985 1.6528 36.7872 2.15144 36.7872C4.78863 36.7872 14.1071 37.1147 23.2906 41.3295C31.6033 45.1446 37.5683 51.047 41.0196 58.8728C41.3351 59.5883 41.0097 60.4235 40.2924 60.7384C40.1065 60.82 39.9125 60.8585 39.7216 60.8585Z" fill="#434343"/>
<path d="M18.4411 48.1204C18.1119 48.1204 17.7811 48.0066 17.5127 47.7747C16.9207 47.2628 16.8566 46.3689 17.3697 45.7782L32.8401 27.9694C33.8607 26.7946 35.3397 26.1207 36.8979 26.1207C38.4462 26.1207 39.9191 26.7876 40.9389 27.9503L47.8813 35.8661C48.3974 36.4543 48.3375 37.3485 47.7479 37.8631C47.1585 38.3779 46.262 38.3184 45.7463 37.7301L38.8039 29.8143C38.3159 29.2579 37.639 28.9514 36.8979 28.9514C36.1629 28.9514 35.4654 29.2691 34.9841 29.8232L19.5138 47.632C19.2333 47.955 18.8384 48.1204 18.4411 48.1204Z" fill="#434343"/>
<path d="M35.4659 39.6286C35.0593 39.6286 34.6559 39.4553 34.3753 39.1193C33.8738 38.5189 33.9551 37.6264 34.5569 37.1259L49.1015 25.0335C50.0647 24.2329 51.2856 23.7919 52.5393 23.7919C53.7541 23.7919 54.9453 24.2088 55.8938 24.9659L60.4675 28.6164C61.0793 29.1047 61.1785 29.9953 60.6891 30.6058C60.1999 31.2162 59.3071 31.3152 58.6951 30.8268L54.1214 27.1763C53.6741 26.8194 53.1123 26.6226 52.5395 26.6226C51.9481 26.6226 51.3721 26.8307 50.9179 27.2084L36.3734 39.3007C36.108 39.5211 35.7861 39.6286 35.4659 39.6286Z" fill="#434343"/>
<path d="M14.8953 19.8143C11.3753 19.8143 8.5116 16.9571 8.5116 13.4454C8.5116 9.93363 11.3753 7.07654 14.8953 7.07654C18.4153 7.07654 21.279 9.93363 21.279 13.4454C21.279 16.9572 18.4153 19.8143 14.8953 19.8143ZM14.8953 9.90716C12.9398 9.90716 11.3488 11.4944 11.3488 13.4454C11.3488 15.3964 12.9398 16.9837 14.8953 16.9837C16.8509 16.9837 18.4418 15.3964 18.4418 13.4454C18.4418 11.4944 16.8509 9.90716 14.8953 9.90716Z" fill="#434343"/>
</svg>
