<svg width="44" height="54" viewBox="0 0 44 54" fill="none" xmlns="http://www.w3.org/2000/svg">
<path fill-rule="evenodd" clip-rule="evenodd" d="M27.9019 5.03202C27.9019 4.45063 28.3736 3.97934 28.9555 3.97934C29.2349 3.97934 29.5029 4.09024 29.7005 4.28767C29.898 4.48507 30.009 4.75283 30.009 5.03202C30.009 5.61342 29.5374 6.08471 28.9555 6.08471C28.3736 6.08471 27.9019 5.61342 27.9019 5.03202Z" fill="#FFFFFF"/>
<path fill-rule="evenodd" clip-rule="evenodd" d="M20.4327 18.0447C16.7528 19.9556 13.26 19.5484 11.576 19.1724C14.5386 15.4133 18.9358 14.2856 18.9982 14.2543C19.4348 14.1603 19.7154 13.7217 19.5907 13.2832C19.4972 12.8446 19.0605 12.5627 18.6239 12.6879C18.3745 12.7193 12.8546 14.129 9.58005 19.1724C9.45532 19.3917 9.42415 19.6423 9.48649 19.8929C9.58005 20.1122 9.73599 20.3002 9.95428 20.3942C10.079 20.4255 11.8878 21.146 14.5074 21.146C16.4097 21.146 18.7487 20.7701 21.1812 19.4857C21.5866 19.2664 21.7425 18.7965 21.5242 18.3893C21.306 17.9821 20.8382 17.8254 20.4327 18.0447Z" fill="#FFFFFF"/>
<path fill-rule="evenodd" clip-rule="evenodd" d="M43.1562 5.59769C42.8443 5.44235 42.4701 5.4734 42.2206 5.72194C40.2246 7.55469 36.9499 8.57979 35.0786 9.04574C35.484 8.02064 35.484 8.02064 35.484 8.02064C36.4509 6.37425 37.7296 4.8832 39.3201 3.6096C39.5073 3.45426 39.632 3.23681 39.632 2.9883C39.632 2.4913 39.3825 1.8079 38.2909 1.34191C38.2286 1.31086 38.1974 1.27981 38.135 1.27981C37.5425 1.15556 36.9499 1.06236 36.3885 0.969159C36.1702 0.938106 33.0826 0.254707 28.5292 0.75171C28.3421 0.75171 28.2486 0.75171 28.2486 0.75171C28.2173 0.75171 28.1862 0.75171 28.1862 0.75171C27.8119 0.813855 27.4377 0.875961 27.0011 0.938106C26.0966 1.09341 25.1921 1.27981 24.2877 1.49725C21.4808 2.1496 18.9858 3.0815 16.8027 4.1066C15.6488 3.64065 11.9063 2.2428 7.91427 2.67766C7.54 2.7398 7.22811 3.05045 7.19694 3.4232C7.19694 3.45426 7.041 5.6598 6.66673 7.98959C6.26129 10.5057 5.82468 11.7483 5.54401 12.3075C3.85987 14.1402 3.0802 15.4138 3.01782 15.507L2.9866 15.5381C-0.0697591 21.3781 -0.787081 26.8764 0.865849 31.9087C0.990618 32.3747 1.17773 32.8096 1.36485 33.2134C1.33367 34.7355 1.39606 39.3951 2.33167 40.8241C2.54999 41.1658 2.9866 41.29 3.36087 41.1347C3.42326 41.1036 5.38807 40.2649 7.94544 41.7249C9.66075 43.216 11.6568 44.8313 12.2181 45.2662C14.3389 49.6151 16.2725 52.1623 18.1126 53.0632C18.6116 53.2806 19.017 53.3738 19.3913 53.3738C19.7655 53.3738 20.0462 53.2806 20.2645 53.1874C21.4497 52.7525 21.9487 51.51 21.9798 51.3547C22.011 51.3236 22.0422 51.2304 22.0422 51.1683C22.5101 47.2853 24.1318 42.1287 25.8783 38.9292C26.7515 37.2828 26.9698 36.0713 26.5332 35.2015C26.2214 34.6423 25.6911 34.3938 25.3169 34.3317C22.167 33.5862 16.3661 36.5683 15.2745 37.1275C15.1498 37.1585 15.025 37.1896 14.8691 37.1896C14.1206 37.1275 13.4033 37.0343 12.7795 36.91C12.7172 36.8789 12.6859 36.8479 12.6548 36.8168C12.1558 36.4441 11.9063 35.7917 11.8439 34.8287C11.8439 34.7977 11.8439 34.7666 11.8439 34.7666C11.688 33.7726 11.8439 32.8096 12.1869 31.9087C12.8419 31.536 14.4325 31.6291 15.3993 31.8466C15.7111 31.9398 16.0542 31.8155 16.2413 31.536C16.4285 31.2874 16.4596 30.9457 16.2725 30.6662C15.9918 30.2002 16.678 28.0257 17.6759 26.0377C18.4557 25.5406 18.9858 25.2611 19.017 25.23C19.0482 25.23 19.0482 25.1989 19.0794 25.1989C20.171 24.5156 21.2937 23.8011 22.2917 23.1798C23.6328 22.3722 25.9719 21.1296 28.4357 19.8249C29.2465 19.4211 30.0886 18.9862 30.8995 18.5202C31.0242 18.4892 31.149 18.427 31.2425 18.3649C33.8935 16.936 36.5444 15.476 38.3221 14.2955C38.8835 13.9228 39.3825 13.55 39.8503 13.1151C39.8503 13.1151 39.8503 13.1151 39.8815 13.0841C39.8815 13.0841 39.9127 13.0841 39.9439 13.0219C40.7548 12.2764 41.4097 11.4377 41.8775 10.5679C42.6884 9.26319 43.2498 7.89639 43.5616 6.46745C43.624 6.12575 43.4681 5.78405 43.1562 5.59769ZM8.25732 8.23809C8.50682 6.62279 8.69393 5.10065 8.75632 4.23085C10.9706 4.1066 13.0602 4.57255 14.526 5.00745C11.8127 6.52959 9.66075 8.30024 7.94544 9.91554C8.07021 9.41854 8.16376 8.85939 8.25732 8.23809ZM3.4856 39.3951C3.26732 38.7117 3.14255 37.5934 3.0802 36.3819C3.92225 37.6555 4.79552 38.6185 5.41924 39.2709C4.60836 39.2087 3.95343 39.3019 3.4856 39.3951ZM14.6196 30.107C14.3077 30.076 13.9646 30.0449 13.6216 30.0449C13.4968 30.0449 13.4033 30.0449 13.3097 30.0449C13.8399 29.3304 14.4325 28.7091 15.025 28.15C14.8067 28.8023 14.6508 29.4857 14.6196 30.107ZM21.4497 21.813C20.4205 22.4343 19.2977 23.1488 18.2062 23.8322C17.7072 24.1117 16.5532 24.7951 15.524 25.6028C15.3681 25.696 15.3681 25.696 15.3681 25.696C15.3057 25.727 15.2434 25.7892 15.2121 25.8202C12.5924 27.8704 9.66075 31.1011 10.2221 34.953C10.2533 35.3879 10.3157 35.7917 10.4092 36.1334C9.19293 35.5743 8.35088 34.7666 7.85188 33.7726C5.88707 29.7653 10.0662 23.4283 10.1286 23.3662C10.3781 22.9934 10.2533 22.4964 9.87908 22.2479C9.53602 21.9994 9.00581 22.0926 8.75632 22.4653C8.5692 22.7449 4.04698 29.61 6.38606 34.487C7.35288 36.4751 9.3177 37.7798 12.1869 38.4321C12.9354 38.8049 13.8399 38.9292 14.9315 38.8049C14.9626 38.8049 14.9938 38.8049 15.025 38.8049C15.2434 38.7738 15.4616 38.7428 15.7111 38.7117C15.8047 38.6807 15.8671 38.6496 15.9606 38.6185C17.7072 37.6866 22.7283 35.3568 24.9739 35.8849C25.0362 35.916 25.005 35.916 25.0674 35.916C25.0674 35.947 25.0986 35.947 25.0986 35.9781C25.1298 36.0402 25.3169 36.5683 24.4437 38.1526C22.6348 41.5075 20.9506 46.8194 20.4516 50.8577C20.3269 51.1062 20.0462 51.5411 19.672 51.6964C19.4225 51.7896 19.173 51.7585 18.8299 51.6032C17.3329 50.8577 15.5864 48.4347 13.6216 44.3964C13.5592 44.2721 13.4657 44.179 13.3721 44.1168C13.3409 44.0858 11.189 42.3773 9.34887 40.7619C9.28653 40.6687 9.19293 40.5756 9.0682 40.5134C9.00581 40.4513 8.97464 40.4513 8.91226 40.4202C8.25732 39.83 7.66477 39.2709 7.22811 38.836C7.16577 38.7428 7.07217 38.6496 6.97862 38.5564C5.16974 36.6926 3.8287 34.7666 2.95543 32.7164C2.92426 32.6543 2.89305 32.5611 2.86188 32.4989C0.803505 27.6219 1.33367 22.2168 4.42125 16.3147C4.51481 16.1904 5.04502 15.3828 6.04301 14.2024C6.26129 14.0781 6.51083 13.8606 6.76033 13.4568C7.25933 12.8977 7.85188 12.2764 8.53799 11.593C8.75632 11.3755 9.00581 11.1581 9.25531 10.9406C11.9686 8.57979 16.3661 5.50449 22.5101 3.64065C21.5744 6.56065 20.0462 13.0219 22.8843 16.5011C23.8823 17.7436 25.3169 18.4581 27.157 18.6756C24.8491 19.887 22.7283 21.0053 21.4497 21.813ZM40.5053 9.76023C40.4741 9.76023 40.4741 9.79129 40.4741 9.79129C40.0686 10.5057 39.5384 11.2202 38.8523 11.8415C38.8211 11.8415 38.8211 11.8726 38.8211 11.8726C38.8211 11.8726 38.8211 11.8726 38.7899 11.8726C38.7899 11.9036 38.7899 11.9036 38.7899 11.9036C38.3845 12.2764 37.9167 12.6181 37.4177 12.9598C35.6712 14.1092 33.0514 15.5692 30.3693 16.967C27.4065 17.433 25.3169 16.936 24.1318 15.476C21.4185 12.1832 23.7575 4.8832 24.3813 3.14365C24.4749 3.11256 24.5684 3.0815 24.662 3.05045C24.6932 3.05045 24.6932 3.05045 24.6932 3.05045C25.5352 2.833 26.4085 2.67766 27.2817 2.52235C27.6872 2.46021 28.0302 2.42916 28.3733 2.36705C28.4045 2.36705 28.4981 2.36705 28.6228 2.36705C28.654 2.36705 28.654 2.36705 28.6852 2.36705C32.7396 1.93215 35.64 2.46021 36.0143 2.55341C36.0454 2.55341 36.0766 2.55341 36.1078 2.55341C36.638 2.64661 37.1682 2.7398 37.7296 2.86405C36.2326 4.13766 35.0163 5.62875 34.0806 7.24405C34.0494 7.27514 34.0494 7.30619 34.0182 7.33724C32.9578 9.82234 32.9578 9.82234 32.9578 9.82234C32.8643 10.1019 32.8955 10.4126 33.0826 10.63C33.2386 10.8785 33.5504 10.9717 33.8311 10.9406C34.0494 10.9096 37.9791 10.2883 41.2226 8.42449C41.0043 8.85939 40.7548 9.32534 40.5053 9.76023Z" fill="#FFFFFF"/>
</svg>
