<svg width="6" height="12" viewBox="0 0 6 12" fill="none" xmlns="http://www.w3.org/2000/svg">
<path d="M4.15576 1.45312C4.15576 1.86979 4.01253 2.21615 3.72607 2.49219C3.44482 2.76302 3.10889 2.89844 2.71826 2.89844C2.32243 2.89844 1.98128 2.75781 1.69482 2.47656C1.41357 2.1901 1.27295 1.84896 1.27295 1.45312C1.27295 1.0625 1.41357 0.726562 1.69482 0.445312C1.98128 0.158854 2.32243 0.015625 2.71826 0.015625C3.10889 0.015625 3.44482 0.158854 3.72607 0.445312C4.01253 0.726562 4.15576 1.0625 4.15576 1.45312ZM5.21045 10.1094V12H0.140137V10.1094H1.39014V5.71094H0.140137V3.78906H3.9917V10.1094H5.21045Z" fill="white"/>
</svg>
