<svg width="194" height="193" viewBox="0 0 194 193" fill="none" xmlns="http://www.w3.org/2000/svg">
<g clip-path="url(#clip0)">
<path d="M29.2446 0.5548C27.166 0.554742 25.3774 2.6918 25.3789 4.44348V163.879C25.3791 165.915 27.2205 167.768 29.2446 167.768H141.349C143.373 167.768 145.215 165.915 145.215 163.879V39.4416C145.215 38.4063 144.799 37.3745 144.067 36.6466L109.276 1.64849C108.557 0.948548 107.559 0.546964 106.558 0.5548H29.2446ZM33.1103 8.33215H102.692V39.4416C102.693 41.4776 104.534 43.3301 106.558 43.3302H137.484V159.99H33.1103V8.33215ZM110.424 13.8006L132.047 35.5529H110.424V13.8006ZM50.5058 66.6622C48.3708 66.6622 46.6401 68.4032 46.6401 70.5509C46.6401 72.6986 48.3708 74.4395 50.5058 74.4395H120.088C122.223 74.4395 123.954 72.6986 123.954 70.5509C123.954 68.4032 122.223 66.6622 120.088 66.6622H50.5058ZM50.5058 97.7716C48.3708 97.7716 46.6401 99.5126 46.6401 101.66C46.6401 103.808 48.3708 105.549 50.5058 105.549H120.088C122.223 105.549 123.954 103.808 123.954 101.66C123.954 99.5126 122.223 97.7716 120.088 97.7716H50.5058ZM50.5058 128.881C48.3708 128.881 46.6401 130.622 46.6401 132.77C46.6401 134.917 48.3708 136.658 50.5058 136.658H120.088C122.223 136.658 123.954 134.917 123.954 132.77C123.954 130.622 122.223 128.881 120.088 128.881H50.5058Z" fill="#054169"/>
</g>
<circle cx="148.903" cy="148.552" r="44.2431" fill="#054169"/>
<path d="M152.193 148.551L166.893 133.875C167.332 133.435 167.579 132.839 167.579 132.218C167.579 131.597 167.332 131.001 166.893 130.561C166.453 130.122 165.858 129.875 165.236 129.875C164.615 129.875 164.019 130.122 163.58 130.561L148.903 145.261L134.226 130.561C133.787 130.122 133.191 129.875 132.57 129.875C131.948 129.875 131.352 130.122 130.913 130.561C130.473 131.001 130.227 131.597 130.227 132.218C130.227 132.839 130.473 133.435 130.913 133.875L145.613 148.551L130.913 163.228C130.694 163.445 130.521 163.703 130.402 163.987C130.284 164.272 130.223 164.577 130.223 164.885C130.223 165.193 130.284 165.498 130.402 165.782C130.521 166.066 130.694 166.324 130.913 166.541C131.13 166.76 131.388 166.933 131.672 167.052C131.957 167.17 132.261 167.231 132.57 167.231C132.878 167.231 133.183 167.17 133.467 167.052C133.751 166.933 134.009 166.76 134.226 166.541L148.903 151.841L163.58 166.541C163.796 166.76 164.055 166.933 164.339 167.052C164.623 167.17 164.928 167.231 165.236 167.231C165.544 167.231 165.849 167.17 166.134 167.052C166.418 166.933 166.676 166.76 166.893 166.541C167.112 166.324 167.285 166.066 167.404 165.782C167.522 165.498 167.583 165.193 167.583 164.885C167.583 164.577 167.522 164.272 167.404 163.987C167.285 163.703 167.112 163.445 166.893 163.228L152.193 148.551Z" fill="white"/>
<defs>
<clipPath id="clip0">
<rect width="170" height="170" fill="white" transform="translate(0.296875 0.554688)"/>
</clipPath>
</defs>
</svg>
