<svg width="54" height="54" viewBox="0 0 54 54" fill="none" xmlns="http://www.w3.org/2000/svg">
<path fill-rule="evenodd" clip-rule="evenodd" d="M16.7881 33.695C9.80425 26.3404 9.80425 26.3404 9.80425 26.3404C9.69427 26.2302 9.55678 26.1476 9.39183 26.12C9.33682 26.12 8.347 25.9823 7.35714 26.2853C7.35714 13.7247 7.35714 13.7247 7.35714 13.7247C7.35714 13.5319 7.27467 13.3391 7.13718 13.2289C5.98237 12.0445 4.74508 11.4936 3.48029 11.5762C1.58308 11.6864 0.400808 13.2289 0.345798 13.284C0.263323 13.4217 0.208313 13.5595 0.208313 13.7247C0.208313 32.6482 0.208313 32.6483 0.208313 32.6483C0.208313 32.7584 0.235818 32.8686 0.290828 32.9788C9.11686 49.0101 9.11686 49.0101 9.11686 49.0101C9.11686 52.7287 9.11686 52.7287 9.11686 52.7287C9.11686 53.1143 9.4468 53.4448 9.83175 53.4448C22.3697 53.4448 22.3697 53.4448 22.3697 53.4448C22.7546 53.4448 23.0846 53.1143 23.0846 52.7287C23.0846 42.7573 23.0846 42.7573 23.0846 42.7573C23.0846 42.7022 23.0846 42.6472 23.0571 42.5921C23.0021 42.3717 21.6823 37.4136 16.7881 33.695ZM21.6548 52.0125C10.5466 52.0125 10.5466 52.0125 10.5466 52.0125C10.5466 48.8448 10.5466 48.8448 10.5466 48.8448C10.5466 48.7071 10.5191 48.5969 10.4642 48.4867C1.63809 32.4554 1.63809 32.4554 1.63809 32.4554C1.63809 14.0002 1.63809 14.0002 1.63809 14.0002C1.94053 13.6972 2.65542 13.0637 3.59027 13.0086C4.33267 12.9535 5.13003 13.3116 5.9274 14.0277C5.9274 27.1943 5.9274 27.1943 5.9274 27.1943C5.32249 27.9105 5.10253 28.9297 5.29498 30.2243C5.32249 30.362 5.3775 30.4722 5.45997 30.5824C12.5813 38.9561 12.5813 38.9561 12.5813 38.9561C12.8288 39.2591 13.2962 39.2866 13.5986 39.0387C13.9011 38.7908 13.9286 38.3225 13.6811 38.0195C6.69726 29.8111 6.69726 29.8111 6.69726 29.8111C6.61479 29.15 6.66976 28.6542 6.88972 28.2961C7.08221 28.2135 7.24716 28.0482 7.30217 27.8554C7.82457 27.5249 8.51195 27.4973 8.95191 27.5249C15.7983 34.7417 15.7983 34.7417 15.7983 34.7417C15.8258 34.7692 15.8533 34.7968 15.8808 34.7968C20.0876 37.9644 21.4623 42.2339 21.6548 42.8675V52.0125Z" fill="#FFFFFF"/>
<path fill-rule="evenodd" clip-rule="evenodd" d="M52.9722 12.9977C52.9171 12.9426 51.7348 11.4276 49.8377 11.2899C48.5729 11.2072 47.3356 11.7581 46.1808 12.9426C46.0433 13.0803 45.9608 13.2456 45.9608 13.4384C45.9608 25.999 45.9608 25.999 45.9608 25.999C44.971 25.696 43.9811 25.8337 43.9261 25.8337C43.7611 25.8613 43.6237 25.9439 43.5137 26.0541C36.5298 33.4086 36.5298 33.4086 36.5298 33.4086C31.6356 37.1272 30.3159 42.0854 30.2608 42.3057C30.2334 42.3608 30.2334 42.4159 30.2334 42.471C30.2334 52.4423 30.2334 52.4423 30.2334 52.4423C30.2334 52.828 30.5633 53.1585 30.9482 53.1585C43.4862 53.1585 43.4862 53.1585 43.4862 53.1585C43.8712 53.1585 44.2011 52.828 44.2011 52.4423C44.2011 48.7237 44.2011 48.7237 44.2011 48.7237C53.0271 32.6925 53.0271 32.6925 53.0271 32.6925C53.0821 32.6098 53.1096 32.4721 53.1096 32.3619C53.1096 13.4384 53.1096 13.4384 53.1096 13.4384C53.1096 13.2732 53.0546 13.1354 52.9722 12.9977ZM51.6799 32.1691C42.8538 48.2004 42.8538 48.2004 42.8538 48.2004C42.7988 48.3105 42.7713 48.4207 42.7713 48.5585C42.7713 51.7261 42.7713 51.7261 42.7713 51.7261C31.6631 51.7261 31.6631 51.7261 31.6631 51.7261C31.6631 42.5812 31.6631 42.5812 31.6631 42.5812C31.8556 41.9476 33.2304 37.6781 37.4372 34.538C37.4647 34.5104 37.4922 34.4829 37.5196 34.4554C44.366 27.2385 44.366 27.2385 44.366 27.2385C44.7785 27.211 45.4933 27.2661 46.0158 27.5691C46.0708 27.7619 46.2357 27.9271 46.4282 28.0098C46.6482 28.3679 46.7032 28.8637 46.6207 29.5248C39.6368 37.7332 39.6368 37.7332 39.6368 37.7332C39.3894 38.0362 39.4169 38.5045 39.7193 38.7524C40.0218 39.0003 40.4892 38.9727 40.7367 38.6698C47.858 30.296 47.858 30.296 47.858 30.296C47.9405 30.1859 47.9955 30.0757 48.023 29.938C48.2154 28.6433 47.9955 27.6241 47.3906 26.908C47.3906 13.7414 47.3906 13.7414 47.3906 13.7414C48.1879 13.0252 48.9853 12.6671 49.7277 12.7222C50.6625 12.7773 51.3774 13.4109 51.6799 13.7139V32.1691Z" fill="#FFFFFF"/>
<path fill-rule="evenodd" clip-rule="evenodd" d="M32.9889 31.9266C37.0346 29.5868 38.3006 23.9163 38.3281 23.6961C38.3832 23.4758 38.3281 23.2831 38.218 23.118C38.1079 22.9528 37.9428 22.8427 37.7501 22.8152C32.4661 22.0995 29.2461 24.4393 27.3746 26.7515C27.3746 20.3378 27.3746 20.3378 27.3746 20.3378C28.0351 20.4754 28.6957 20.558 29.3286 20.558C30.6497 20.558 31.8606 20.2277 32.9889 19.5946C37.0346 17.2548 38.3006 11.5843 38.3281 11.3365C38.3832 11.1438 38.3281 10.9511 38.218 10.786C38.1079 10.6208 37.9428 10.5107 37.7501 10.4832C32.4661 9.73996 29.2461 12.0798 27.3746 14.392C27.3746 7.70299 27.3746 7.70299 27.3746 7.70299C27.925 7.8406 28.4755 7.92319 28.9709 7.92319C29.8515 7.92319 30.6497 7.70299 31.4202 7.3176C34.3375 5.74858 35.2457 1.70212 35.2732 1.50946C35.3283 1.31677 35.2732 1.12407 35.1632 0.958924C35.0531 0.793735 34.8604 0.683635 34.6677 0.65613C32.1633 0.325791 29.9616 0.958924 28.2553 2.52795C27.5673 3.18858 27.0444 3.93182 26.659 4.59245C26.2737 3.93182 25.7509 3.18858 25.0628 2.52795C23.3565 0.958924 21.1548 0.325791 18.6504 0.65613C18.4577 0.683635 18.265 0.793735 18.155 0.958924C18.0449 1.12407 17.9898 1.31677 18.0449 1.50946C18.0724 1.70212 18.9806 5.74858 21.8979 7.3176C23.1088 7.95074 24.4573 8.08834 25.9435 7.70299C25.9435 14.392 25.9435 14.392 25.9435 14.392C24.0721 12.0798 20.8521 9.73996 15.568 10.4832C15.3753 10.5107 15.2102 10.6208 15.1001 10.786C14.99 10.9511 14.935 11.1438 14.99 11.3365C15.0175 11.5843 16.2835 17.2548 20.3292 19.5946C21.9804 20.558 23.8794 20.8057 25.9435 20.3378C25.9435 26.7515 25.9435 26.7515 25.9435 26.7515C24.0721 24.4393 20.8521 22.0995 15.568 22.8152C15.3753 22.8427 15.2102 22.9528 15.1001 23.118C14.99 23.2831 14.935 23.4758 14.99 23.6961C15.0175 23.9163 16.2835 29.5868 20.3292 31.9266C21.9804 32.89 23.8794 33.1377 25.9435 32.6698C25.9435 40.1296 25.9435 40.1296 25.9435 40.1296C25.9435 40.5149 26.2737 40.8452 26.659 40.8452C27.0444 40.8452 27.3746 40.5149 27.3746 40.1296C27.3746 32.6698 27.3746 32.6698 27.3746 32.6698C28.0351 32.8349 28.6957 32.9175 29.3286 32.9175C30.6497 32.9175 31.8606 32.5872 32.9889 31.9266ZM36.7319 11.8045C36.264 13.346 34.943 16.7868 32.2734 18.3558C30.8423 19.1817 29.2185 19.3468 27.3746 18.8513C27.3746 16.952 27.3746 16.952 27.3746 16.952C28.8333 14.3094 31.6404 11.4191 36.7319 11.8045ZM33.6495 2.00491C33.2642 3.13353 32.3835 5.1705 30.7322 6.05138C29.7965 6.54686 28.6957 6.60191 27.4572 6.21653C28.0076 4.8677 29.7139 1.86731 33.6495 2.00491ZM22.5859 6.05138C20.9346 5.1705 20.0539 3.13353 19.6686 2.00491C23.6042 1.86731 25.3105 4.8677 25.8609 6.21653C24.6225 6.60191 23.5216 6.54686 22.5859 6.05138ZM21.0447 18.3558C18.3751 16.7868 17.0541 13.346 16.5862 11.8045C21.6777 11.4191 24.4849 14.3094 25.9435 16.952C25.9435 18.8513 25.9435 18.8513 25.9435 18.8513C24.0996 19.3468 22.4758 19.1817 21.0447 18.3558ZM21.0447 30.6879C18.3751 29.1464 17.0541 25.7055 16.5862 24.164C21.6777 23.7786 24.4849 26.669 25.9435 29.284C25.9435 31.2109 25.9435 31.2109 25.9435 31.2109C24.0996 31.6788 22.4758 31.5137 21.0447 30.6879ZM27.3746 29.284C28.8333 26.669 31.6404 23.7786 36.7319 24.164C36.264 25.7055 34.943 29.1464 32.2734 30.6879C30.8423 31.5137 29.2185 31.6788 27.3746 31.2109V29.284Z" fill="#FFFFFF"/>
</svg>
