<svg width="834" height="202" viewBox="0 0 834 202" fill="none" xmlns="http://www.w3.org/2000/svg">
<path fill-rule="evenodd" clip-rule="evenodd" d="M232.759 2H833.999V48.0609H232.759V2Z" fill="#5FBEE6"/>
<path fill-rule="evenodd" clip-rule="evenodd" d="M3.37549 22.64C3.37549 17.502 7.54061 13.3369 12.6785 13.3369H49.8897C52.357 13.3369 54.7233 14.3171 56.4679 16.0617C58.2126 17.8064 59.1927 20.1727 59.1927 22.64V97.8659C59.1927 103.004 55.0276 107.169 49.8897 107.169H12.6785C7.54061 107.169 3.37549 103.004 3.37549 97.8659V22.64Z" fill="#D6F3FF"/>
<path fill-rule="evenodd" clip-rule="evenodd" d="M48.7354 52.466C48.7354 46.5839 53.5038 41.8154 59.3859 41.8154H101.987C104.812 41.8154 107.521 42.9375 109.518 44.9349C111.515 46.9323 112.638 49.6413 112.638 52.466V142.838C112.638 148.72 107.869 153.489 101.987 153.489H59.3859C53.5038 153.489 48.7354 148.72 48.7354 142.838V52.466Z" fill="#D6F3FF"/>
<path fill-rule="evenodd" clip-rule="evenodd" d="M104.553 95.2171C104.553 88.9449 109.637 83.8604 115.909 83.8604H161.335C164.347 83.8604 167.236 85.0568 169.365 87.1867C171.495 89.3165 172.692 92.2051 172.692 95.2171V151.487C172.692 157.759 167.607 162.844 161.335 162.844H115.909C109.637 162.844 104.553 157.759 104.553 151.487V95.2171Z" fill="#D6F3FF"/>
<path fill-rule="evenodd" clip-rule="evenodd" d="M159.495 51.1185C159.495 45.9805 163.66 41.8154 168.798 41.8154H206.009C208.477 41.8154 210.843 42.7956 212.588 44.5402C214.332 46.2849 215.312 48.6512 215.312 51.1185V126.344C215.312 131.482 211.147 135.647 206.009 135.647H168.798C163.66 135.647 159.495 131.482 159.495 126.344V51.1185Z" fill="#D6F3FF"/>
<path fill-rule="evenodd" clip-rule="evenodd" d="M746.153 101.937C741.854 101.937 741.854 101.937 741.854 101.937C741.383 101.937 740.98 102.351 740.98 102.835C740.98 107.257 740.98 107.257 740.98 107.257C740.98 107.741 741.383 108.155 741.854 108.155C746.153 108.155 746.153 108.155 746.153 108.155C746.623 108.155 747.026 107.741 747.026 107.257C747.026 102.835 747.026 102.835 747.026 102.835C747.026 102.351 746.623 101.937 746.153 101.937ZM745.28 106.359C742.727 106.359 742.727 106.359 742.727 106.359C742.727 103.733 742.727 103.733 742.727 103.733C745.28 103.733 745.28 103.733 745.28 103.733V106.359Z" fill="#054169"/>
<path fill-rule="evenodd" clip-rule="evenodd" d="M757.152 101.937C752.726 101.937 752.726 101.937 752.726 101.937C752.242 101.937 751.827 102.351 751.827 102.835C751.827 107.257 751.827 107.257 751.827 107.257C751.827 107.741 752.242 108.155 752.726 108.155C757.152 108.155 757.152 108.155 757.152 108.155C757.636 108.155 758.051 107.741 758.051 107.257C758.051 102.835 758.051 102.835 758.051 102.835C758.051 102.351 757.636 101.937 757.152 101.937ZM756.253 106.359C753.625 106.359 753.625 106.359 753.625 106.359C753.625 103.733 753.625 103.733 753.625 103.733C756.253 103.733 756.253 103.733 756.253 103.733V106.359Z" fill="#054169"/>
<path fill-rule="evenodd" clip-rule="evenodd" d="M746.153 93.4082C741.854 93.4082 741.854 93.4082 741.854 93.4082C741.383 93.4082 740.98 93.8228 740.98 94.3064C740.98 98.7285 740.98 98.7285 740.98 98.7285C740.98 99.2122 741.383 99.6268 741.854 99.6268C746.153 99.6268 746.153 99.6268 746.153 99.6268C746.623 99.6268 747.026 99.2122 747.026 98.7285C747.026 94.3064 747.026 94.3064 747.026 94.3064C747.026 93.8228 746.623 93.4082 746.153 93.4082ZM745.28 97.8303C742.727 97.8303 742.727 97.8303 742.727 97.8303C742.727 95.2047 742.727 95.2047 742.727 95.2047C745.28 95.2047 745.28 95.2047 745.28 95.2047V97.8303Z" fill="#054169"/>
<path fill-rule="evenodd" clip-rule="evenodd" d="M757.152 93.4082C752.726 93.4082 752.726 93.4082 752.726 93.4082C752.242 93.4082 751.827 93.8228 751.827 94.3064C751.827 98.7285 751.827 98.7285 751.827 98.7285C751.827 99.2122 752.242 99.6268 752.726 99.6268C757.152 99.6268 757.152 99.6268 757.152 99.6268C757.636 99.6268 758.051 99.2122 758.051 98.7285C758.051 94.3064 758.051 94.3064 758.051 94.3064C758.051 93.8228 757.636 93.4082 757.152 93.4082ZM756.253 97.8303C753.625 97.8303 753.625 97.8303 753.625 97.8303C753.625 95.2047 753.625 95.2047 753.625 95.2047C756.253 95.2047 756.253 95.2047 756.253 95.2047V97.8303Z" fill="#054169"/>
<path fill-rule="evenodd" clip-rule="evenodd" d="M746.153 84.8799C741.854 84.8799 741.854 84.8799 741.854 84.8799C741.383 84.8799 740.98 85.2826 740.98 85.7524C740.98 90.0481 740.98 90.0481 740.98 90.0481C740.98 90.518 741.383 90.9207 741.854 90.9207C746.153 90.9207 746.153 90.9207 746.153 90.9207C746.623 90.9207 747.026 90.518 747.026 90.0481C747.026 85.7524 747.026 85.7524 747.026 85.7524C747.026 85.2826 746.623 84.8799 746.153 84.8799ZM745.28 89.1756C742.727 89.1756 742.727 89.1756 742.727 89.1756C742.727 86.625 742.727 86.625 742.727 86.625C745.28 86.625 745.28 86.625 745.28 86.625V89.1756Z" fill="#054169"/>
<path fill-rule="evenodd" clip-rule="evenodd" d="M757.152 84.8799C752.726 84.8799 752.726 84.8799 752.726 84.8799C752.242 84.8799 751.827 85.2826 751.827 85.7524C751.827 90.0481 751.827 90.0481 751.827 90.0481C751.827 90.518 752.242 90.9207 752.726 90.9207C757.152 90.9207 757.152 90.9207 757.152 90.9207C757.636 90.9207 758.051 90.518 758.051 90.0481C758.051 85.7524 758.051 85.7524 758.051 85.7524C758.051 85.2826 757.636 84.8799 757.152 84.8799ZM756.253 89.1756C753.625 89.1756 753.625 89.1756 753.625 89.1756C753.625 86.625 753.625 86.625 753.625 86.625C756.253 86.625 756.253 86.625 756.253 86.625V89.1756Z" fill="#054169"/>
<path fill-rule="evenodd" clip-rule="evenodd" d="M784.76 120.923C785.684 120.036 785.684 120.036 785.684 120.036C785.718 120.002 785.752 120.002 785.786 119.968C786.504 119.32 786.504 119.32 786.504 119.32C786.572 119.286 786.607 119.217 786.675 119.183C787.974 118.058 789.376 117 790.812 116.011C791.94 115.227 791.94 115.227 791.94 115.227C791.974 115.193 792.008 115.193 792.043 115.158C792.658 114.783 792.658 114.783 792.658 114.783C794.265 113.794 795.906 112.907 797.615 112.123C798.402 111.748 798.402 111.748 798.402 111.748C798.744 111.577 798.949 111.168 798.88 110.793C798.744 110.042 798.744 110.042 798.744 110.042C798.744 102.538 798.744 102.538 798.744 102.538C798.778 102.3 798.675 102.027 798.47 101.856C793 96.399 793 96.399 793 96.399C792.863 96.2285 792.624 96.1262 792.384 96.1262C782.538 96.1262 782.538 96.1262 782.538 96.1262C782.504 96.1262 782.47 96.1262 782.436 96.1262C782.402 96.1262 782.402 96.1262 782.402 96.1262C782.367 96.1603 782.333 96.1603 782.299 96.1603C782.265 96.1603 782.265 96.1603 782.265 96.1603C782.231 96.1603 782.196 96.1944 782.162 96.1944V96.2285C782.128 96.2285 782.094 96.2626 782.06 96.2626C782.025 96.2967 781.991 96.3308 781.957 96.3308C781.957 96.3649 781.957 96.3649 781.923 96.3649C781.923 96.3649 781.923 96.3649 781.923 96.399C776.487 101.788 776.487 101.788 776.487 101.788C776.282 101.959 776.179 102.197 776.179 102.47C776.179 106.563 776.179 106.563 776.179 106.563C775.154 106.359 774.128 106.222 773.068 106.12C773.068 104.38 773.068 104.38 773.068 104.38C773.136 104.244 773.171 104.107 773.171 103.971C773.171 103.937 773.171 103.937 773.171 103.937C774.641 102.129 774.641 102.129 774.641 102.129C776.111 100.321 776.897 98.1044 776.897 95.7851C776.897 93.0223 775.666 90.3278 773.444 88.2472C772.692 87.5309 772.692 87.5309 772.692 87.5309C772.35 87.224 771.837 87.224 771.495 87.5309C770.743 88.2472 770.743 88.2472 770.743 88.2472C768.487 90.3278 767.256 93.0223 767.256 95.7851C767.256 98.0362 768.077 100.219 769.649 102.129C771.119 103.937 771.119 103.937 771.119 103.937C771.119 103.971 771.119 103.971 771.119 103.971C771.119 104.176 771.188 104.346 771.29 104.483C771.29 105.983 771.29 105.983 771.29 105.983C770.675 105.949 770.025 105.949 769.41 105.949C768.248 105.949 767.085 106.017 765.957 106.12C765.923 106.12 765.923 106.12 765.923 106.12C765.923 77.3667 765.923 77.3667 765.923 77.3667C765.923 76.9574 765.649 76.6164 765.273 76.514C734.64 67.7483 734.64 67.7483 734.64 67.7483C734.367 67.6459 734.093 67.7142 733.854 67.8847C733.649 68.0553 733.512 68.294 733.512 68.601C733.512 131.462 733.512 131.462 733.512 131.462C733.512 131.803 733.683 132.11 733.991 132.247C734.811 132.724 734.811 132.724 734.811 132.724C734.948 132.792 735.085 132.826 735.256 132.826C740.692 132.826 740.692 132.826 740.692 132.826C758.196 132.826 758.196 132.826 758.196 132.826C764.145 132.826 764.145 132.826 764.145 132.826C764.282 132.826 764.418 132.792 764.521 132.758C765.41 132.315 765.41 132.315 765.41 132.315C765.718 132.178 765.923 131.871 765.923 131.53C765.923 123.583 765.923 123.583 765.923 123.583C766.196 123.549 766.196 123.549 766.196 123.549C766.47 123.549 766.743 123.549 766.983 123.549C770.743 123.549 774.47 124.47 777.786 126.244C777.649 126.414 777.649 126.414 777.649 126.414C776.248 128.392 774.983 130.473 773.854 132.622C773.649 133.065 773.82 133.611 774.265 133.816C774.367 133.884 774.538 133.918 774.641 133.918C774.983 133.918 775.29 133.747 775.461 133.44C776.521 131.36 777.752 129.347 779.085 127.471C779.803 126.482 779.803 126.482 779.803 126.482C780.35 125.766 780.35 125.766 780.35 125.766C781.684 124.061 783.154 122.458 784.76 120.923ZM771.017 101.004C769.718 99.4005 769.034 97.6269 769.034 95.7851C769.034 93.4998 770.059 91.2828 771.94 89.5433C772.077 89.4069 772.077 89.4069 772.077 89.4069C772.213 89.5433 772.213 89.5433 772.213 89.5433C774.094 91.2828 775.119 93.4998 775.119 95.7851C775.119 97.6951 774.47 99.5028 773.273 101.004C773.068 101.242 773.068 101.242 773.068 101.242C773.068 95.2735 773.068 95.2735 773.068 95.2735C773.068 94.7959 772.658 94.3866 772.179 94.3866C771.701 94.3866 771.29 94.7959 771.29 95.2735C771.29 101.345 771.29 101.345 771.29 101.345L771.017 101.004ZM796.863 110.486C795.12 111.304 793.376 112.259 791.735 113.248C791.632 113.317 791.632 113.317 791.632 113.317C790.812 112.771 790.812 112.771 790.812 112.771C790.641 112.634 790.47 112.532 790.299 112.396L790.265 112.362C790.06 112.225 789.855 112.089 789.615 111.952C789.547 111.884 789.444 111.816 789.342 111.748C789.239 111.679 789.137 111.611 789.034 111.543C789 111.543 789 111.543 788.966 111.543C788.897 111.475 788.897 111.475 788.897 111.475C788.897 111.202 788.897 111.202 788.897 111.202C788.897 103.357 788.897 103.357 788.897 103.357C796.966 103.357 796.966 103.357 796.966 103.357C796.966 110.11 796.966 110.11 796.966 110.11C796.966 110.179 796.966 110.213 796.966 110.281C797 110.417 797 110.417 797 110.417L796.863 110.486ZM777.957 103.357C787.119 103.357 787.119 103.357 787.119 103.357C787.119 110.452 787.119 110.452 787.119 110.452C786.812 110.281 786.812 110.281 786.812 110.281C786.436 110.076 786.025 109.872 785.615 109.667C785.615 105.745 785.615 105.745 785.615 105.745C785.615 105.711 785.615 105.676 785.615 105.642C785.615 105.642 785.615 105.608 785.615 105.574C785.615 105.574 785.615 105.574 785.581 105.574C785.581 105.54 785.581 105.506 785.581 105.506V105.472C785.581 105.472 785.547 105.438 785.547 105.404C785.547 105.369 785.513 105.369 785.513 105.335C785.513 105.301 785.478 105.301 785.478 105.267C785.444 105.233 785.444 105.233 785.444 105.199C785.41 105.199 785.41 105.199 785.41 105.165C785.41 105.165 785.376 105.131 785.342 105.131C785.342 105.097 785.307 105.062 785.307 105.062C785.273 105.062 785.273 105.062 785.273 105.028C785.239 105.028 785.239 105.028 785.205 104.994C785.171 104.994 785.171 104.96 785.137 104.96C785.102 104.96 785.102 104.926 785.068 104.926C785.034 104.926 785 104.892 785 104.892C784.966 104.892 784.966 104.892 784.966 104.892C784.966 104.892 784.931 104.892 784.897 104.858C784.897 104.858 784.897 104.858 784.863 104.858H784.829C784.795 104.858 784.76 104.858 784.726 104.858C780.35 104.858 780.35 104.858 780.35 104.858C779.872 104.858 779.461 105.267 779.461 105.745C779.461 107.314 779.461 107.314 779.461 107.314C779.188 107.245 779.188 107.245 779.188 107.245C778.846 107.143 778.504 107.075 778.128 106.973C777.957 106.938 777.957 106.938 777.957 106.938V103.357ZM783.837 108.814C783.837 108.848 783.837 108.848 783.837 108.848C783.564 108.746 783.564 108.746 783.564 108.746C782.846 108.439 782.094 108.166 781.376 107.928C781.239 107.859 781.239 107.859 781.239 107.859C781.239 106.631 781.239 106.631 781.239 106.631C783.837 106.631 783.837 106.631 783.837 106.631V108.814ZM792.008 97.8998C795.701 101.583 795.701 101.583 795.701 101.583C788.384 101.583 788.384 101.583 788.384 101.583C784.692 97.8998 784.692 97.8998 784.692 97.8998H792.008ZM782.538 98.275C783.53 99.23 783.53 99.23 783.53 99.23C785.855 101.583 785.855 101.583 785.855 101.583C779.222 101.583 779.222 101.583 779.222 101.583L782.538 98.275ZM766.094 107.859C767.222 107.757 768.316 107.723 769.41 107.723C776.077 107.723 782.504 109.565 788.077 113.078C788.111 113.078 788.145 113.112 788.179 113.146C788.35 113.214 788.487 113.317 788.658 113.419C788.863 113.555 789.068 113.692 789.239 113.828C789.273 113.862 789.308 113.862 789.342 113.896C789.581 114.033 789.786 114.203 790.026 114.374C789.786 114.544 789.786 114.544 789.786 114.544C788.316 115.568 786.846 116.659 785.513 117.853C785.444 117.887 785.376 117.955 785.342 117.989C785.102 118.194 785.102 118.194 785.102 118.194C784.35 117.785 784.35 117.785 784.35 117.785C784.248 117.717 784.145 117.682 784.043 117.614C784.008 117.614 784.008 117.58 784.008 117.58C783.837 117.512 783.701 117.444 783.564 117.341C783.53 117.341 783.53 117.341 783.496 117.341C783.359 117.273 783.222 117.171 783.085 117.103C783.051 117.103 783.051 117.103 783.017 117.068C782.88 117 782.743 116.932 782.607 116.864C782.607 116.864 782.572 116.864 782.538 116.83C782.402 116.796 782.299 116.727 782.162 116.659C782.128 116.659 782.094 116.625 782.025 116.591C781.957 116.557 781.854 116.523 781.752 116.489C781.684 116.455 781.615 116.42 781.547 116.386C781.513 116.386 781.513 116.352 781.478 116.352C778.778 115.158 775.94 114.34 773.034 113.931C773.034 113.931 773.034 113.931 773 113.931C772.863 113.896 772.692 113.896 772.521 113.862H772.487C772.316 113.828 772.179 113.828 772.008 113.794C771.974 113.794 771.974 113.794 771.94 113.794C771.769 113.76 771.632 113.76 771.495 113.726C771.461 113.726 771.427 113.726 771.393 113.726C771.256 113.726 771.119 113.692 770.983 113.692C770.914 113.692 770.88 113.692 770.846 113.692C770.709 113.692 770.572 113.658 770.436 113.658C770.367 113.658 770.333 113.658 770.265 113.658C770.162 113.624 770.025 113.624 769.923 113.624C769.854 113.624 769.752 113.624 769.683 113.624C769.581 113.624 769.478 113.624 769.376 113.589C769.273 113.589 769.171 113.589 769.068 113.589C769 113.589 768.931 113.589 768.863 113.589C768.658 113.589 768.487 113.589 768.316 113.589C768.145 113.589 767.974 113.589 767.769 113.589C767.632 113.589 767.495 113.589 767.359 113.589C767.324 113.589 767.29 113.589 767.222 113.624C767.085 113.624 766.914 113.624 766.743 113.624C766.709 113.624 766.709 113.624 766.709 113.624C766.538 113.624 766.367 113.658 766.196 113.658C766.162 113.658 766.162 113.658 766.128 113.658C766.094 113.658 766.094 113.658 766.094 113.658C766.06 113.658 766.025 113.658 765.991 113.658C765.923 113.692 765.923 113.692 765.923 113.692C765.923 107.893 765.923 107.893 765.923 107.893L766.094 107.859ZM757.307 119.729C757.307 131.053 757.307 131.053 757.307 131.053C750.333 131.053 750.333 131.053 750.333 131.053C750.333 119.729 750.333 119.729 750.333 119.729H757.307ZM748.555 131.053C741.581 131.053 741.581 131.053 741.581 131.053C741.581 119.729 741.581 119.729 741.581 119.729C748.555 119.729 748.555 119.729 748.555 119.729V131.053ZM764.145 130.95C763.94 131.053 763.94 131.053 763.94 131.053C759.085 131.053 759.085 131.053 759.085 131.053C759.085 118.842 759.085 118.842 759.085 118.842C759.085 118.365 758.675 117.955 758.196 117.955C740.692 117.955 740.692 117.955 740.692 117.955C740.213 117.955 739.803 118.365 739.803 118.842C739.803 131.053 739.803 131.053 739.803 131.053C735.461 131.053 735.461 131.053 735.461 131.053C735.29 130.95 735.29 130.95 735.29 130.95C735.29 69.7606 735.29 69.7606 735.29 69.7606C764.145 78.0148 764.145 78.0148 764.145 78.0148C764.145 107.075 764.145 107.075 764.145 107.075C764.145 114.613 764.145 114.613 764.145 114.613C764.145 122.73 764.145 122.73 764.145 122.73V130.95ZM766.128 121.775C765.923 121.809 765.923 121.809 765.923 121.809C765.923 115.465 765.923 115.465 765.923 115.465C766.025 115.431 766.025 115.431 766.025 115.431C766.23 115.431 766.23 115.431 766.23 115.431C766.23 115.431 766.265 115.431 766.299 115.431C766.47 115.431 766.607 115.397 766.777 115.397C766.948 115.397 767.119 115.397 767.29 115.363C767.324 115.363 767.359 115.363 767.393 115.363C767.53 115.363 767.666 115.363 767.803 115.363C767.974 115.363 768.145 115.363 768.316 115.363C768.487 115.363 768.658 115.363 768.829 115.363C768.897 115.363 768.965 115.363 769.034 115.363C769.136 115.363 769.239 115.363 769.342 115.363C769.41 115.397 769.512 115.397 769.615 115.397C769.683 115.397 769.752 115.397 769.82 115.397C769.923 115.397 770.059 115.397 770.162 115.431C770.23 115.431 770.265 115.431 770.333 115.431C770.436 115.431 770.572 115.431 770.709 115.465C770.743 115.465 770.777 115.465 770.812 115.465C770.948 115.465 771.085 115.5 771.222 115.5C771.256 115.5 771.29 115.5 771.324 115.5C771.461 115.534 771.598 115.534 771.735 115.568C771.769 115.568 771.769 115.568 771.803 115.568C771.94 115.568 772.111 115.602 772.248 115.602C772.282 115.602 772.282 115.602 772.282 115.602C772.453 115.636 772.589 115.67 772.76 115.67C775.564 116.079 778.265 116.864 780.829 117.989C780.897 118.024 780.966 118.058 781.034 118.092C781.137 118.126 781.205 118.16 781.307 118.228C781.342 118.228 781.376 118.262 781.444 118.262C781.547 118.33 781.649 118.365 781.752 118.433C781.786 118.433 781.82 118.467 781.854 118.467C781.957 118.535 782.094 118.603 782.231 118.672C782.231 118.672 782.265 118.672 782.299 118.706C782.402 118.774 782.538 118.842 782.675 118.91C782.709 118.91 782.709 118.91 782.743 118.91C782.88 119.013 783.017 119.081 783.154 119.149C783.154 119.149 783.154 119.149 783.188 119.149C783.359 119.251 783.53 119.354 783.701 119.456C783.53 119.661 783.53 119.661 783.53 119.661C781.889 121.23 780.35 122.901 778.983 124.675C778.846 124.811 778.846 124.811 778.846 124.811C778.709 124.709 778.709 124.709 778.709 124.709C775.119 122.799 771.085 121.775 766.983 121.775C766.709 121.775 766.436 121.775 766.128 121.775Z" fill="#054169"/>
<path fill-rule="evenodd" clip-rule="evenodd" d="M799.775 118.688C799.535 118.243 798.985 118.105 798.573 118.345C792.221 121.776 786.623 126.681 782.331 132.512C782.056 132.889 782.125 133.438 782.537 133.747C782.674 133.85 782.88 133.918 783.052 133.918C783.327 133.918 783.601 133.781 783.773 133.541C787.894 127.95 793.319 123.216 799.397 119.889C799.844 119.649 800.016 119.134 799.775 118.688Z" fill="#054169"/>
<path fill-rule="evenodd" clip-rule="evenodd" d="M798.485 127.437C796.364 128.93 794.382 130.626 792.539 132.425C792.191 132.764 792.191 133.307 792.539 133.646C792.748 133.816 792.956 133.917 793.2 133.917C793.408 133.917 793.652 133.816 793.826 133.646C795.599 131.916 797.512 130.321 799.528 128.862C799.946 128.557 800.015 128.014 799.737 127.641C799.424 127.234 798.868 127.166 798.485 127.437Z" fill="#054169"/>
<path fill-rule="evenodd" clip-rule="evenodd" d="M392.022 110.025C383.242 100.779 383.242 100.779 383.242 100.779C383.103 100.641 382.931 100.537 382.723 100.502C382.654 100.502 381.41 100.329 380.165 100.71C380.165 84.9192 380.165 84.9192 380.165 84.9192C380.165 84.6768 380.061 84.4344 379.889 84.2959C378.437 82.8069 376.881 82.1143 375.291 82.2182C372.906 82.3567 371.42 84.2959 371.351 84.3651C371.247 84.5383 371.178 84.7114 371.178 84.9192C371.178 108.709 371.178 108.709 371.178 108.709C371.178 108.847 371.212 108.986 371.281 109.125C382.377 129.278 382.377 129.278 382.377 129.278C382.377 133.953 382.377 133.953 382.377 133.953C382.377 134.438 382.792 134.853 383.276 134.853C399.039 134.853 399.039 134.853 399.039 134.853C399.523 134.853 399.938 134.438 399.938 133.953C399.938 121.418 399.938 121.418 399.938 121.418C399.938 121.348 399.938 121.279 399.903 121.21C399.834 120.933 398.175 114.7 392.022 110.025ZM398.14 133.053C384.175 133.053 384.175 133.053 384.175 133.053C384.175 129.071 384.175 129.071 384.175 129.071C384.175 128.897 384.14 128.759 384.071 128.62C372.975 108.467 372.975 108.467 372.975 108.467C372.975 85.2655 372.975 85.2655 372.975 85.2655C373.355 84.8846 374.254 84.0881 375.429 84.0188C376.363 83.9496 377.365 84.3998 378.368 85.3001C378.368 101.853 378.368 101.853 378.368 101.853C377.607 102.753 377.331 104.034 377.573 105.662C377.607 105.835 377.676 105.973 377.78 106.112C386.733 116.639 386.733 116.639 386.733 116.639C387.044 117.02 387.632 117.054 388.012 116.743C388.392 116.431 388.427 115.842 388.116 115.462C379.336 105.142 379.336 105.142 379.336 105.142C379.232 104.311 379.301 103.688 379.578 103.238C379.82 103.134 380.027 102.926 380.096 102.684C380.753 102.268 381.617 102.233 382.17 102.268C390.777 111.341 390.777 111.341 390.777 111.341C390.812 111.375 390.846 111.41 390.881 111.41C396.17 115.392 397.898 120.76 398.14 121.556V133.053Z" fill="#054169"/>
<path fill-rule="evenodd" clip-rule="evenodd" d="M437.512 84.0058C437.443 83.9365 435.957 82.0319 433.572 81.8588C431.982 81.7549 430.426 82.4475 428.974 83.9365C428.801 84.1097 428.698 84.3174 428.698 84.5598C428.698 100.35 428.698 100.35 428.698 100.35C427.453 99.9695 426.209 100.143 426.14 100.143C425.932 100.177 425.76 100.281 425.621 100.42C416.841 109.665 416.841 109.665 416.841 109.665C410.688 114.34 409.029 120.573 408.96 120.85C408.925 120.92 408.925 120.989 408.925 121.058C408.925 133.594 408.925 133.594 408.925 133.594C408.925 134.079 409.34 134.494 409.824 134.494C425.587 134.494 425.587 134.494 425.587 134.494C426.071 134.494 426.485 134.079 426.485 133.594C426.485 128.919 426.485 128.919 426.485 128.919C437.581 108.765 437.581 108.765 437.581 108.765C437.651 108.661 437.685 108.488 437.685 108.35C437.685 84.5598 437.685 84.5598 437.685 84.5598C437.685 84.352 437.616 84.1789 437.512 84.0058ZM435.888 108.107C424.792 128.261 424.792 128.261 424.792 128.261C424.722 128.399 424.688 128.538 424.688 128.711C424.688 132.693 424.688 132.693 424.688 132.693C410.723 132.693 410.723 132.693 410.723 132.693C410.723 121.197 410.723 121.197 410.723 121.197C410.965 120.4 412.693 115.033 417.982 111.085C418.016 111.051 418.051 111.016 418.086 110.981C426.693 101.909 426.693 101.909 426.693 101.909C427.211 101.874 428.11 101.943 428.767 102.324C428.836 102.567 429.043 102.774 429.285 102.878C429.562 103.328 429.631 103.952 429.527 104.783C420.747 115.102 420.747 115.102 420.747 115.102C420.436 115.483 420.471 116.072 420.851 116.383C421.231 116.695 421.819 116.66 422.13 116.28C431.083 105.752 431.083 105.752 431.083 105.752C431.187 105.614 431.256 105.475 431.29 105.302C431.532 103.675 431.256 102.393 430.495 101.493C430.495 84.9407 430.495 84.9407 430.495 84.9407C431.498 84.0404 432.5 83.5902 433.433 83.6595C434.609 83.7287 435.507 84.5252 435.888 84.9061V108.107Z" fill="#054169"/>
<path fill-rule="evenodd" clip-rule="evenodd" d="M412.39 107.801C417.476 104.86 419.067 97.7312 419.102 97.4544C419.171 97.1775 419.102 96.9353 418.964 96.7276C418.825 96.52 418.618 96.3816 418.375 96.347C411.732 95.4473 407.684 98.3887 405.331 101.296C405.331 93.2325 405.331 93.2325 405.331 93.2325C406.162 93.4055 406.992 93.5094 407.788 93.5094C409.449 93.5094 410.971 93.0941 412.39 92.2982C417.476 89.3567 419.067 82.228 419.102 81.9166C419.171 81.6744 419.102 81.4321 418.964 81.2245C418.825 81.0169 418.618 80.8784 418.375 80.8438C411.732 79.9095 407.684 82.8509 405.331 85.7578C405.331 77.3487 405.331 77.3487 405.331 77.3487C406.023 77.5217 406.715 77.6256 407.338 77.6256C408.445 77.6256 409.449 77.3487 410.418 76.8642C414.085 74.8917 415.227 69.8048 415.262 69.5625C415.331 69.3203 415.262 69.0781 415.123 68.8704C414.985 68.6628 414.743 68.5244 414.5 68.4898C411.352 68.0745 408.584 68.8704 406.439 70.8429C405.574 71.6734 404.916 72.6078 404.432 73.4383C403.947 72.6078 403.29 71.6734 402.425 70.8429C400.28 68.8704 397.512 68.0745 394.363 68.4898C394.121 68.5244 393.879 68.6628 393.741 68.8704C393.602 69.0781 393.533 69.3203 393.602 69.5625C393.637 69.8048 394.778 74.8917 398.446 76.8642C399.968 77.6602 401.664 77.8332 403.532 77.3487C403.532 85.7578 403.532 85.7578 403.532 85.7578C401.179 82.8509 397.131 79.9095 390.488 80.8438C390.246 80.8784 390.038 81.0169 389.9 81.2245C389.762 81.4321 389.692 81.6744 389.762 81.9166C389.796 82.228 391.388 89.3567 396.474 92.2982C398.55 93.5094 400.937 93.8208 403.532 93.2325C403.532 101.296 403.532 101.296 403.532 101.296C401.179 98.3887 397.131 95.4473 390.488 96.347C390.246 96.3816 390.038 96.52 389.9 96.7276C389.762 96.9353 389.692 97.1775 389.762 97.4544C389.796 97.7312 391.388 104.86 396.474 107.801C398.55 109.013 400.937 109.324 403.532 108.736C403.532 118.114 403.532 118.114 403.532 118.114C403.532 118.598 403.947 119.013 404.432 119.013C404.916 119.013 405.331 118.598 405.331 118.114C405.331 108.736 405.331 108.736 405.331 108.736C406.162 108.943 406.992 109.047 407.788 109.047C409.449 109.047 410.971 108.632 412.39 107.801ZM417.095 82.5049C416.507 84.4428 414.846 88.7684 411.49 90.7409C409.691 91.7791 407.65 91.9867 405.331 91.3638C405.331 88.9761 405.331 88.9761 405.331 88.9761C407.165 85.654 410.694 82.0204 417.095 82.5049ZM413.22 70.1854C412.736 71.6042 411.629 74.165 409.553 75.2724C408.376 75.8953 406.992 75.9645 405.435 75.48C406.127 73.7844 408.272 70.0124 413.22 70.1854ZM399.311 75.2724C397.235 74.165 396.128 71.6042 395.643 70.1854C400.591 70.0124 402.736 73.7844 403.428 75.48C401.871 75.9645 400.487 75.8953 399.311 75.2724ZM397.373 90.7409C394.017 88.7684 392.356 84.4428 391.768 82.5049C398.169 82.0204 401.698 85.654 403.532 88.9761C403.532 91.3638 403.532 91.3638 403.532 91.3638C401.214 91.9867 399.173 91.7791 397.373 90.7409ZM397.373 106.244C394.017 104.306 392.356 99.9805 391.768 98.0426C398.169 97.5582 401.698 101.192 403.532 104.479C403.532 106.902 403.532 106.902 403.532 106.902C401.214 107.49 399.173 107.282 397.373 106.244ZM405.331 104.479C407.165 101.192 410.694 97.5582 417.095 98.0426C416.507 99.9805 414.846 104.306 411.49 106.244C409.691 107.282 407.65 107.49 405.331 106.902V104.479Z" fill="#054169"/>
<path fill-rule="evenodd" clip-rule="evenodd" d="M298.233 74.0891C298.233 73.356 298.828 72.7617 299.562 72.7617C299.914 72.7617 300.252 72.9016 300.501 73.1505C300.75 73.3994 300.89 73.737 300.89 74.0891C300.89 74.8221 300.295 75.4164 299.562 75.4164C298.828 75.4164 298.233 74.8221 298.233 74.0891Z" fill="#054169"/>
<path fill-rule="evenodd" clip-rule="evenodd" d="M288.844 90.4425C284.218 92.8448 279.828 92.3328 277.711 91.8602C281.435 87.1346 286.963 85.7169 287.041 85.6775C287.59 85.5594 287.943 85.008 287.786 84.4567C287.668 83.9054 287.119 83.551 286.571 83.7085C286.257 83.7479 279.318 85.52 275.202 91.8602C275.045 92.1359 275.006 92.4509 275.084 92.766C275.202 93.0417 275.398 93.2779 275.672 93.3961C275.829 93.4355 278.103 94.3412 281.396 94.3412C283.787 94.3412 286.727 93.8686 289.785 92.254C290.295 91.9784 290.491 91.3877 290.216 90.8757C289.942 90.3638 289.354 90.1669 288.844 90.4425Z" fill="#054169"/>
<path fill-rule="evenodd" clip-rule="evenodd" d="M317.41 74.7955C317.018 74.6002 316.547 74.6393 316.233 74.9517C313.724 77.2557 309.608 78.5444 307.255 79.1301C307.765 77.8414 307.765 77.8414 307.765 77.8414C308.98 75.7718 310.588 73.8973 312.587 72.2962C312.823 72.101 312.979 71.8276 312.979 71.5152C312.979 70.8904 312.666 70.0313 311.294 69.4455C311.215 69.4065 311.176 69.3674 311.098 69.3674C310.353 69.2112 309.608 69.094 308.902 68.9769C308.628 68.9378 304.746 68.0787 299.022 68.7035C298.787 68.7035 298.669 68.7035 298.669 68.7035C298.63 68.7035 298.591 68.7035 298.591 68.7035C298.121 68.7816 297.65 68.8597 297.101 68.9378C295.964 69.1331 294.827 69.3674 293.69 69.6408C290.162 70.4608 287.025 71.6324 284.281 72.921C282.83 72.3353 278.126 70.578 273.108 71.1247C272.637 71.2028 272.245 71.5933 272.206 72.0619C272.206 72.101 272.01 74.8736 271.539 77.8024C271.03 80.9655 270.481 82.5276 270.128 83.2305C268.011 85.5345 267.031 87.1356 266.952 87.2527L266.913 87.2918C263.071 94.6333 262.169 101.545 264.247 107.872C264.404 108.457 264.639 109.004 264.874 109.512C264.835 111.425 264.914 117.283 266.09 119.079C266.364 119.509 266.913 119.665 267.384 119.47C267.462 119.431 269.932 118.376 273.147 120.212C275.303 122.086 277.812 124.117 278.518 124.663C281.184 130.131 283.615 133.333 285.928 134.465C286.555 134.739 287.065 134.856 287.535 134.856C288.006 134.856 288.358 134.739 288.633 134.621C290.123 134.075 290.75 132.513 290.789 132.317C290.828 132.278 290.868 132.161 290.868 132.083C291.456 127.202 293.494 120.719 295.69 116.697C296.788 114.627 297.062 113.104 296.513 112.011C296.121 111.308 295.455 110.996 294.984 110.918C291.024 109.98 283.732 113.729 282.36 114.432C282.203 114.471 282.046 114.51 281.85 114.51C280.909 114.432 280.008 114.315 279.224 114.159C279.145 114.12 279.106 114.081 279.067 114.042C278.439 113.573 278.126 112.753 278.047 111.542C278.047 111.503 278.047 111.464 278.047 111.464C277.851 110.215 278.047 109.004 278.479 107.872C279.302 107.403 281.301 107.52 282.517 107.793C282.909 107.911 283.34 107.754 283.575 107.403C283.811 107.091 283.85 106.661 283.615 106.31C283.262 105.724 284.124 102.99 285.379 100.491C286.359 99.8661 287.025 99.5147 287.065 99.4756C287.104 99.4756 287.104 99.4366 287.143 99.4366C288.515 98.5775 289.927 97.6793 291.181 96.8983C292.867 95.8829 295.807 94.3209 298.905 92.6808C299.924 92.1731 300.983 91.6264 302.002 91.0406C302.159 91.0016 302.316 90.9235 302.433 90.8454C305.766 89.0491 309.098 87.2137 311.333 85.7297C312.038 85.2611 312.666 84.7925 313.254 84.2458C313.254 84.2458 313.254 84.2458 313.293 84.2067C313.293 84.2067 313.332 84.2067 313.371 84.1286C314.391 83.1914 315.214 82.1371 315.802 81.0436C316.822 79.4035 317.527 77.6852 317.919 75.8889C317.998 75.4593 317.802 75.0298 317.41 74.7955ZM273.539 78.1148C273.852 76.0842 274.088 74.1707 274.166 73.0772C276.95 72.921 279.576 73.5068 281.419 74.0535C278.008 75.967 275.303 78.1929 273.147 80.2236C273.304 79.5987 273.421 78.8958 273.539 78.1148ZM267.54 117.283C267.266 116.424 267.109 115.018 267.031 113.495C268.089 115.096 269.187 116.307 269.971 117.127C268.952 117.049 268.128 117.166 267.54 117.283ZM281.537 105.607C281.145 105.568 280.713 105.529 280.282 105.529C280.125 105.529 280.008 105.529 279.89 105.529C280.557 104.63 281.301 103.849 282.046 103.146C281.772 103.966 281.576 104.826 281.537 105.607ZM290.123 95.18C288.829 95.9611 287.417 96.8592 286.045 97.7184C285.418 98.0698 283.967 98.9289 282.674 99.9443C282.478 100.061 282.478 100.061 282.478 100.061C282.399 100.1 282.321 100.179 282.282 100.218C278.988 102.795 275.303 106.856 276.009 111.699C276.048 112.245 276.126 112.753 276.244 113.183C274.715 112.48 273.656 111.464 273.029 110.215C270.559 105.177 275.813 97.2107 275.891 97.1326C276.205 96.664 276.048 96.0392 275.577 95.7268C275.146 95.4144 274.48 95.5315 274.166 96.0001C273.931 96.3516 268.246 104.982 271.186 111.113C272.402 113.612 274.872 115.252 278.479 116.072C279.42 116.541 280.557 116.697 281.929 116.541C281.968 116.541 282.007 116.541 282.046 116.541C282.321 116.502 282.595 116.463 282.909 116.424C283.027 116.385 283.105 116.346 283.223 116.307C285.418 115.135 291.73 112.206 294.553 112.87C294.631 112.909 294.592 112.909 294.671 112.909C294.671 112.948 294.71 112.948 294.71 112.987C294.749 113.065 294.984 113.729 293.886 115.721C291.612 119.938 289.495 126.616 288.868 131.693C288.711 132.005 288.358 132.552 287.888 132.747C287.574 132.864 287.261 132.825 286.829 132.63C284.948 131.693 282.752 128.647 280.282 123.57C280.204 123.414 280.086 123.297 279.968 123.219C279.929 123.18 277.224 121.032 274.911 119.001C274.833 118.884 274.715 118.767 274.558 118.689C274.48 118.611 274.441 118.611 274.362 118.572C273.539 117.83 272.794 117.127 272.245 116.58C272.167 116.463 272.049 116.346 271.931 116.228C269.657 113.885 267.972 111.464 266.874 108.887C266.835 108.809 266.795 108.692 266.756 108.614C264.169 102.483 264.835 95.6877 268.717 88.268C268.834 88.1118 269.501 87.0965 270.755 85.6126C271.03 85.4564 271.343 85.183 271.657 84.6754C272.284 83.9724 273.029 83.1914 273.892 82.3323C274.166 82.0589 274.48 81.7856 274.793 81.5122C278.204 78.5444 283.732 74.6783 291.456 72.3353C290.279 76.006 288.358 84.1286 291.926 88.5023C293.181 90.0644 294.984 90.9625 297.297 91.2359C294.396 92.7589 291.73 94.1647 290.123 95.18ZM314.077 80.0283C314.038 80.0283 314.038 80.0674 314.038 80.0674C313.528 80.9655 312.862 81.8637 311.999 82.6447C311.96 82.6447 311.96 82.6838 311.96 82.6838C311.96 82.6838 311.96 82.6838 311.921 82.6838C311.921 82.7228 311.921 82.7228 311.921 82.7228C311.411 83.1914 310.823 83.621 310.196 84.0505C308 85.4954 304.707 87.3308 301.335 89.0881C297.611 89.6739 294.984 89.0491 293.494 87.2137C290.083 83.0743 293.024 73.8973 293.808 71.7105C293.926 71.6714 294.043 71.6324 294.161 71.5933C294.2 71.5933 294.2 71.5933 294.2 71.5933C295.259 71.3199 296.356 71.1247 297.454 70.9294C297.964 70.8513 298.395 70.8123 298.826 70.7342C298.865 70.7342 298.983 70.7342 299.14 70.7342C299.179 70.7342 299.179 70.7342 299.218 70.7342C304.315 70.1875 307.961 70.8513 308.432 70.9685C308.471 70.9685 308.51 70.9685 308.549 70.9685C309.216 71.0856 309.882 71.2028 310.588 71.359C308.706 72.9601 307.177 74.8345 306.001 76.8652C305.962 76.9042 305.962 76.9433 305.922 76.9823C304.589 80.1064 304.589 80.1064 304.589 80.1064C304.472 80.4579 304.511 80.8484 304.746 81.1217C304.942 81.4341 305.334 81.5513 305.687 81.5122C305.962 81.4732 310.902 80.6922 314.979 78.3491C314.704 78.8958 314.391 79.4816 314.077 80.0283Z" fill="#054169"/>
<path fill-rule="evenodd" clip-rule="evenodd" d="M232.76 153.502H834V199.563H232.76V153.502Z" fill="#054169"/>
<path d="M493.465 166.769C495.394 166.769 496.917 167.18 498.035 168.003C499.167 168.813 499.732 170.027 499.732 171.647C499.732 172.688 499.417 173.633 498.787 174.482C498.158 175.33 497.322 175.883 496.281 176.14V176.179C497.553 176.346 498.569 176.873 499.327 177.76C500.099 178.647 500.484 179.74 500.484 181.038C500.484 182.915 499.874 184.335 498.652 185.3C497.444 186.251 495.721 186.727 493.485 186.727H484.884V166.769H493.465ZM493.446 175.523C494.732 175.523 495.786 175.221 496.608 174.617C497.431 174 497.843 173.164 497.843 172.11C497.843 170.863 497.457 169.931 496.686 169.314C495.914 168.697 494.789 168.388 493.311 168.388H486.793V175.523H493.446ZM493.465 185.107C495.136 185.107 496.409 184.766 497.283 184.085C498.158 183.403 498.595 182.375 498.595 181C498.595 179.727 498.138 178.769 497.225 178.126C496.313 177.471 495.014 177.143 493.33 177.143H486.793V185.107H493.465ZM508.894 171.879C510.72 171.879 512.057 172.277 512.905 173.074C513.767 173.858 514.197 174.97 514.197 176.41V184.239C514.197 184.535 514.281 184.779 514.448 184.972C514.615 185.152 514.879 185.242 515.239 185.242C515.341 185.242 515.438 185.235 515.528 185.223C515.618 185.21 515.701 185.178 515.779 185.126V186.611C515.56 186.662 515.367 186.694 515.2 186.707C515.033 186.72 514.853 186.727 514.66 186.727C513.902 186.727 513.362 186.547 513.04 186.187C512.732 185.814 512.578 185.21 512.578 184.374V184.22H512.52C511.8 185.313 511.048 186.077 510.264 186.514C509.479 186.939 508.483 187.151 507.275 187.151C505.809 187.151 504.633 186.784 503.746 186.052C502.872 185.319 502.435 184.271 502.435 182.909C502.435 181.52 502.917 180.472 503.881 179.765C504.858 179.058 507.024 178.557 510.379 178.261C511.138 178.197 511.671 178.023 511.98 177.741C512.288 177.445 512.443 176.969 512.443 176.314C512.443 175.35 512.147 174.617 511.556 174.115C510.964 173.614 510 173.363 508.663 173.363C507.455 173.363 506.516 173.653 505.848 174.231C505.192 174.797 504.845 175.626 504.806 176.719H503.052C503.129 175.137 503.669 173.935 504.671 173.113C505.674 172.29 507.082 171.879 508.894 171.879ZM512.385 178.84C512.205 179.161 511.646 179.386 510.707 179.515C509.781 179.643 508.753 179.81 507.622 180.016C506.49 180.209 505.636 180.53 505.057 180.98C504.479 181.417 504.189 182.028 504.189 182.812C504.189 183.661 504.504 184.348 505.134 184.875C505.777 185.402 506.535 185.666 507.41 185.666C508.849 185.666 510.045 185.242 510.996 184.393C511.96 183.532 512.443 182.471 512.443 181.212V178.84H512.385ZM522.848 171.879C524.403 171.879 525.65 172.284 526.589 173.093C527.527 173.89 528.042 175.028 528.132 176.507H526.357C526.306 175.491 525.933 174.713 525.239 174.173C524.558 173.633 523.671 173.363 522.578 173.363C521.562 173.363 520.74 173.582 520.11 174.019C519.48 174.456 519.165 175.067 519.165 175.851C519.165 176.468 519.441 176.982 519.994 177.394C520.56 177.792 521.286 178.088 522.173 178.281L525.181 178.955C526.184 179.187 527.007 179.637 527.649 180.305C528.305 180.961 528.633 181.797 528.633 182.812C528.633 184.162 528.08 185.223 526.975 185.994C525.869 186.765 524.487 187.151 522.829 187.151C521.042 187.151 519.641 186.727 518.625 185.878C517.622 185.017 517.05 183.744 516.909 182.06H518.683C518.747 183.191 519.158 184.078 519.917 184.721C520.688 185.351 521.691 185.666 522.925 185.666C524.018 185.666 524.943 185.422 525.702 184.933C526.473 184.432 526.859 183.757 526.859 182.909C526.859 182.266 526.608 181.732 526.107 181.308C525.618 180.884 524.796 180.543 523.639 180.286L521.44 179.785C520.168 179.515 519.178 179.078 518.471 178.473C517.764 177.856 517.41 177.008 517.41 175.928C517.41 174.681 517.918 173.698 518.933 172.978C519.949 172.245 521.254 171.879 522.848 171.879ZM536.951 171.879C538.918 171.879 540.467 172.592 541.599 174.019C542.743 175.433 543.315 177.323 543.315 179.688V179.978H532.208C532.233 181.662 532.677 183.031 533.538 184.085C534.412 185.139 535.55 185.666 536.951 185.666C538.134 185.666 539.098 185.364 539.844 184.76C540.602 184.156 541.149 183.23 541.483 181.983H543.257C542.846 183.718 542.126 185.017 541.097 185.878C540.069 186.727 538.687 187.151 536.951 187.151C534.92 187.151 533.326 186.469 532.169 185.107C531.025 183.744 530.453 181.88 530.453 179.515C530.453 177.278 531.025 175.446 532.169 174.019C533.326 172.592 534.92 171.879 536.951 171.879ZM541.541 178.512C541.502 177.085 541.052 175.87 540.191 174.867C539.343 173.865 538.256 173.363 536.932 173.363C535.685 173.363 534.631 173.826 533.77 174.752C532.921 175.677 532.401 176.931 532.208 178.512H541.541ZM547.473 166.769V186.727H545.718V166.769H547.473ZM552.647 166.769V169.584H550.892V166.769H552.647ZM552.647 172.303V186.727H550.892V172.303H552.647ZM562.449 171.879C564.3 171.879 565.637 172.335 566.46 173.248C567.296 174.148 567.713 175.497 567.713 177.297V186.727H565.959V177.606C565.959 176.217 565.657 175.163 565.052 174.443C564.448 173.723 563.529 173.363 562.295 173.363C561.331 173.363 560.502 173.601 559.807 174.077C559.113 174.54 558.599 175.163 558.265 175.947C557.93 176.732 557.763 177.509 557.763 178.281V186.727H556.009V172.303H557.763V174.79H557.821C558.155 173.929 558.747 173.228 559.595 172.688C560.444 172.149 561.395 171.879 562.449 171.879ZM576.831 171.879C578.798 171.879 580.347 172.592 581.478 174.019C582.622 175.433 583.194 177.323 583.194 179.688V179.978H572.087C572.113 181.662 572.556 183.031 573.418 184.085C574.292 185.139 575.429 185.666 576.831 185.666C578.013 185.666 578.978 185.364 579.723 184.76C580.482 184.156 581.028 183.23 581.362 181.983H583.136C582.725 183.718 582.005 185.017 580.977 185.878C579.948 186.727 578.566 187.151 576.831 187.151C574.8 187.151 573.205 186.469 572.048 185.107C570.904 183.744 570.332 181.88 570.332 179.515C570.332 177.278 570.904 175.446 572.048 174.019C573.205 172.592 574.8 171.879 576.831 171.879ZM581.42 178.512C581.382 177.085 580.932 175.87 580.07 174.867C579.222 173.865 578.136 173.363 576.811 173.363C575.564 173.363 574.51 173.826 573.649 174.752C572.801 175.677 572.28 176.931 572.087 178.512H581.42Z" fill="white"/>
<path d="M508.507 15.2666V16.8864H496.629V24.0983H507.755V25.7181H496.629V33.6049H508.642V35.2246H494.72V15.2666H508.507ZM515.44 15.2666H516.038C516.256 15.2795 516.539 15.318 516.886 15.3823V16.8864C516.668 16.835 516.43 16.7964 516.173 16.7707C515.928 16.745 515.742 16.7321 515.613 16.7321C514.932 16.7321 514.437 16.9057 514.129 17.2528C513.833 17.587 513.685 18.1269 513.685 18.8725V20.8009H518.679V19.0847C518.718 17.8248 518.994 16.8735 519.509 16.2308C520.036 15.588 520.929 15.2666 522.189 15.2666C522.485 15.2666 522.735 15.273 522.941 15.2859C523.147 15.2987 523.391 15.3309 523.674 15.3823V16.8864C523.455 16.835 523.217 16.7964 522.96 16.7707C522.703 16.745 522.504 16.7321 522.363 16.7321C521.591 16.7321 521.077 16.9378 520.82 17.3492C520.563 17.7477 520.434 18.3519 520.434 19.1618V20.8009H523.288V22.2857H520.434V35.2246H518.679V22.2857H513.685V35.2246H511.93V22.2857H509.443V20.8009H511.93V19.4896C511.93 17.8441 512.232 16.7321 512.837 16.1536C513.441 15.5623 514.309 15.2666 515.44 15.2666ZM530.759 20.3766C532.726 20.3766 534.275 21.0901 535.406 22.5171C536.55 23.9312 537.122 25.8209 537.122 28.1863V28.4755H526.015C526.041 30.1596 526.484 31.5287 527.346 32.5829C528.22 33.637 529.357 34.1641 530.759 34.1641C531.941 34.1641 532.906 33.862 533.651 33.2578C534.41 32.6536 534.956 31.728 535.29 30.481H537.064C536.653 32.2165 535.933 33.5149 534.905 34.3762C533.876 35.2246 532.494 35.6489 530.759 35.6489C528.728 35.6489 527.133 34.9675 525.976 33.6049C524.832 32.2422 524.26 30.3782 524.26 28.0128C524.26 25.7759 524.832 23.944 525.976 22.5171C527.133 21.0901 528.728 20.3766 530.759 20.3766ZM535.348 27.01C535.31 25.5831 534.86 24.3682 533.998 23.3655C533.15 22.3628 532.064 21.8614 530.739 21.8614C529.492 21.8614 528.438 22.3242 527.577 23.2498C526.729 24.1754 526.208 25.4288 526.015 27.01H535.348ZM545.58 20.3766C547.277 20.3766 548.627 20.8137 549.629 21.6879C550.632 22.5621 551.23 23.7769 551.423 25.3324H549.668C549.411 24.1754 548.942 23.3077 548.26 22.7292C547.579 22.1507 546.686 21.8614 545.58 21.8614C544.063 21.8614 542.842 22.4592 541.916 23.6548C540.991 24.8375 540.528 26.2901 540.528 28.0128C540.528 29.7225 540.991 31.1752 541.916 32.3707C542.842 33.5663 544.063 34.1641 545.58 34.1641C546.634 34.1641 547.56 33.7913 548.357 33.0457C549.167 32.3 549.642 31.3037 549.784 30.0568H551.538C551.268 31.8437 550.606 33.2256 549.552 34.2026C548.511 35.1668 547.187 35.6489 545.58 35.6489C543.536 35.6489 541.89 34.9354 540.643 33.5084C539.397 32.0686 538.773 30.2367 538.773 28.0128C538.773 25.7888 539.397 23.9633 540.643 22.5363C541.89 21.0965 543.536 20.3766 545.58 20.3766ZM556.795 16.4622V20.8009H559.726V22.2857H556.795V32.1201C556.795 32.8657 556.93 33.3542 557.2 33.5856C557.483 33.8041 557.843 33.9134 558.28 33.9134C558.473 33.9134 558.691 33.907 558.936 33.8941C559.193 33.8813 559.456 33.862 559.726 33.8363V35.3403C559.482 35.3532 559.225 35.3596 558.955 35.3596C558.698 35.3725 558.441 35.3789 558.184 35.3789C557.001 35.3789 556.178 35.1604 555.715 34.7233C555.265 34.2733 555.04 33.4699 555.04 32.3129V22.2857H552.514V20.8009H555.04V16.4622H556.795ZM567.402 20.3766C568.958 20.3766 570.205 20.7816 571.143 21.5915C572.081 22.3885 572.596 23.5262 572.686 25.0046H570.912C570.86 23.989 570.487 23.2113 569.793 22.6713C569.112 22.1314 568.225 21.8614 567.132 21.8614C566.117 21.8614 565.294 22.08 564.664 22.5171C564.034 22.9541 563.719 23.5648 563.719 24.349C563.719 24.966 563.995 25.4802 564.548 25.8916C565.114 26.2901 565.84 26.5858 566.727 26.7786L569.735 27.4535C570.738 27.6849 571.561 28.1349 572.204 28.8034C572.859 29.459 573.187 30.2946 573.187 31.3102C573.187 32.66 572.634 33.7206 571.529 34.4919C570.423 35.2632 569.041 35.6489 567.383 35.6489C565.596 35.6489 564.195 35.2246 563.179 34.3762C562.176 33.5149 561.604 32.2422 561.463 30.5581H563.237C563.301 31.6894 563.713 32.5764 564.471 33.2192C565.242 33.8491 566.245 34.1641 567.479 34.1641C568.572 34.1641 569.497 33.9198 570.256 33.4313C571.027 32.93 571.413 32.255 571.413 31.4066C571.413 30.7638 571.162 30.2303 570.661 29.8061C570.172 29.3819 569.35 29.0412 568.193 28.7841L565.994 28.2827C564.722 28.0128 563.732 27.5757 563.025 26.9715C562.318 26.3544 561.964 25.5059 561.964 24.4261C561.964 23.1791 562.472 22.1957 563.488 21.4758C564.503 20.743 565.808 20.3766 567.402 20.3766Z" fill="white"/>
<path fill-rule="evenodd" clip-rule="evenodd" d="M558.972 81.5385C556.547 81.6806 554.229 80.721 552.625 78.8728C550.307 76.207 546.919 74.6787 543.353 74.6787C539.788 74.6787 536.4 76.207 534.082 78.8728C532.906 80.2234 531.372 81.0764 529.625 81.4318C529.019 81.5029 528.52 81.5385 528.52 81.5385C528.484 81.5385 528.449 81.5385 528.449 81.5385C525.917 81.7517 523.492 80.7921 521.816 78.8728C519.498 76.207 516.111 74.6787 512.545 74.6787C508.979 74.6787 505.592 76.207 503.274 78.8728C501.67 80.721 499.352 81.6806 496.927 81.5385C494.502 81.4318 492.292 80.1878 490.901 78.1974C490.865 78.1619 490.865 78.1619 490.865 78.1619C490.865 80.9342 490.865 80.9342 490.865 80.9342C492.506 82.3915 494.574 83.28 496.82 83.3867C499.815 83.5644 502.668 82.3559 504.665 80.0812C506.662 77.842 509.514 76.5269 512.545 76.5269C515.576 76.5269 518.429 77.842 520.426 80.0812C522.315 82.2138 524.918 83.4222 527.735 83.4222C528.021 83.4222 528.27 83.3867 528.556 83.3867C528.698 83.3867 529.162 83.3511 529.697 83.28C529.732 83.28 529.768 83.28 529.804 83.28C529.875 83.2445 529.91 83.2445 529.982 83.2445C530.41 83.1734 530.838 83.0668 531.266 82.8891C532.906 82.3559 534.332 81.3963 535.473 80.0812C537.47 77.842 540.323 76.5269 543.353 76.5269C546.384 76.5269 549.237 77.842 551.234 80.0812C553.088 82.2138 555.727 83.4222 558.544 83.4222C558.722 83.4222 558.865 83.3867 559.007 83.3867C559.007 81.5385 559.007 81.5385 559.007 81.5385C559.007 81.5385 559.007 81.5385 558.972 81.5385Z" fill="#054169"/>
<path fill-rule="evenodd" clip-rule="evenodd" d="M558.972 96.0134C556.547 96.1201 554.229 95.1604 552.625 93.3477C550.307 90.6465 546.919 89.1182 543.353 89.1182C539.788 89.1182 536.4 90.6465 534.082 93.3477C532.906 94.6628 531.372 95.5514 529.625 95.8713C529.019 95.9779 528.52 95.9779 528.52 95.9779C528.484 95.9779 528.449 95.9779 528.449 95.9779C525.917 96.1912 523.492 95.2315 521.816 93.3477C519.498 90.6465 516.111 89.1182 512.545 89.1182C508.979 89.1182 505.592 90.6465 503.274 93.3477C501.67 95.1604 499.352 96.1201 496.927 96.0134C494.502 95.8713 492.292 94.6628 490.901 92.6724C490.865 92.6369 490.865 92.6369 490.865 92.6369C490.865 95.4092 490.865 95.4092 490.865 95.4092C492.506 96.8665 494.574 97.7195 496.82 97.8617C499.815 98.0038 502.668 96.7954 504.665 94.5562C506.662 92.2815 509.514 90.9664 512.545 90.9664C515.576 90.9664 518.429 92.2815 520.426 94.5562C522.315 96.6888 524.918 97.8617 527.735 97.8617C528.021 97.8617 528.27 97.8617 528.556 97.8261C528.698 97.8261 529.162 97.7906 529.697 97.7195C529.732 97.7195 529.768 97.7195 529.804 97.7195C529.875 97.7195 529.91 97.6839 529.982 97.6839C530.41 97.6129 530.838 97.5062 531.301 97.3285C532.906 96.7954 534.332 95.8713 535.473 94.5562C537.47 92.2815 540.323 90.9664 543.353 90.9664C546.384 90.9664 549.237 92.2815 551.234 94.5562C553.088 96.6532 555.727 97.8617 558.544 97.8617C558.722 97.8617 558.865 97.8617 559.007 97.8617C559.007 95.9779 559.007 95.9779 559.007 95.9779C559.007 96.0134 559.007 96.0134 558.972 96.0134Z" fill="#054169"/>
<path fill-rule="evenodd" clip-rule="evenodd" d="M558.972 110.445C556.547 110.588 554.229 109.588 552.625 107.769C550.307 105.092 546.919 103.558 543.353 103.558C539.788 103.558 536.4 105.092 534.082 107.769C532.906 109.089 531.372 109.981 529.625 110.302C529.019 110.409 528.52 110.409 528.52 110.409C528.484 110.409 528.449 110.409 528.449 110.409C525.917 110.659 523.492 109.66 521.816 107.769C519.498 105.092 516.111 103.558 512.545 103.558C508.979 103.558 505.592 105.092 503.274 107.769C501.67 109.588 499.352 110.588 496.927 110.445C494.502 110.302 492.292 109.089 490.901 107.09C490.865 107.055 490.865 107.055 490.865 107.055C490.865 109.838 490.865 109.838 490.865 109.838C492.506 111.301 494.574 112.158 496.82 112.301C499.815 112.443 502.668 111.266 504.665 108.982C506.662 106.698 509.514 105.413 512.545 105.413C515.576 105.413 518.429 106.698 520.426 108.982C522.315 111.123 524.918 112.301 527.735 112.301C528.021 112.301 528.27 112.301 528.556 112.265C528.698 112.265 529.162 112.265 529.697 112.194C529.732 112.194 529.768 112.158 529.804 112.158C529.875 112.158 529.91 112.158 529.982 112.122C530.41 112.051 530.838 111.944 531.266 111.801C532.906 111.266 534.332 110.302 535.473 108.982C537.47 106.698 540.323 105.413 543.353 105.413C546.384 105.413 549.237 106.698 551.234 108.982C553.088 111.123 555.727 112.301 558.544 112.301C558.722 112.301 558.865 112.301 559.007 112.301C559.007 110.445 559.007 110.445 559.007 110.445C559.007 110.445 559.007 110.445 558.972 110.445Z" fill="#054169"/>
<path fill-rule="evenodd" clip-rule="evenodd" d="M558.972 124.857C556.547 124.999 554.229 124.039 552.625 122.191C550.307 119.525 546.919 117.997 543.353 117.997C539.788 117.997 536.4 119.525 534.082 122.191C532.906 123.542 531.372 124.395 529.625 124.75C529.019 124.821 528.52 124.857 528.52 124.857C528.484 124.857 528.449 124.857 528.449 124.857C525.917 125.07 523.492 124.11 521.816 122.191C519.498 119.525 516.111 117.997 512.545 117.997C508.979 117.997 505.592 119.525 503.274 122.191C501.67 124.039 499.352 124.999 496.927 124.857C494.502 124.75 492.292 123.506 490.901 121.516C490.865 121.48 490.865 121.48 490.865 121.48C490.865 124.253 490.865 124.253 490.865 124.253C492.506 125.71 494.574 126.598 496.82 126.705C499.815 126.883 502.668 125.674 504.665 123.4C506.662 121.16 509.514 119.845 512.545 119.845C515.576 119.845 518.429 121.16 520.426 123.4C522.315 125.532 524.918 126.741 527.735 126.741C528.021 126.741 528.27 126.705 528.556 126.705C528.698 126.705 529.162 126.669 529.697 126.598C529.732 126.598 529.768 126.598 529.804 126.598C529.875 126.563 529.91 126.563 529.982 126.563C530.41 126.492 530.838 126.385 531.266 126.207C532.906 125.674 534.332 124.715 535.473 123.4C537.47 121.16 540.323 119.845 543.353 119.845C546.384 119.845 549.237 121.16 551.234 123.4C553.088 125.532 555.727 126.741 558.544 126.741C558.722 126.741 558.865 126.705 559.007 126.705C559.007 124.857 559.007 124.857 559.007 124.857C559.007 124.857 559.007 124.857 558.972 124.857Z" fill="#054169"/>
<path d="M30.6641 5.03223V198.449" stroke="#9DDEFA" stroke-miterlimit="10" stroke-linejoin="round"/>
<path d="M61.5166 5.03223V198.449" stroke="#9DDEFA" stroke-miterlimit="10" stroke-linejoin="round"/>
<path d="M92.3691 5.03223V198.449" stroke="#9DDEFA" stroke-miterlimit="10" stroke-linejoin="round"/>
<path d="M123.221 5.03223V198.449" stroke="#9DDEFA" stroke-miterlimit="10" stroke-linejoin="round"/>
<path d="M154.074 5.03223V198.449" stroke="#9DDEFA" stroke-miterlimit="10" stroke-linejoin="round"/>
<path d="M1.01367 176.537H215.784" stroke="#9DDEFA" stroke-miterlimit="10" stroke-linejoin="round"/>
<path d="M1.01367 146.153H215.784" stroke="#9DDEFA" stroke-miterlimit="10" stroke-linejoin="round"/>
<path d="M1.01367 115.77H215.784" stroke="#9DDEFA" stroke-miterlimit="10" stroke-linejoin="round"/>
<path d="M1.01367 85.3867H215.784" stroke="#9DDEFA" stroke-miterlimit="10" stroke-linejoin="round"/>
<path d="M1.01367 55.0029H215.784" stroke="#9DDEFA" stroke-miterlimit="10" stroke-linejoin="round"/>
<path d="M1.01367 24.6201H215.784" stroke="#9DDEFA" stroke-miterlimit="10" stroke-linejoin="round"/>
<path d="M1 48.9355C11.2843 53.3051 45.5001 63.1367 62.706 75.1531C79.9119 87.1694 89.0075 113.205 104.235 121.034C119.463 128.862 135.681 131.047 154.073 122.125C172.466 113.204 204.504 76.6078 214.59 67.5043" stroke="#054169" stroke-width="4" stroke-miterlimit="10" stroke-linejoin="round"/>
<path d="M57.262 157.875C59.216 157.875 60.7651 158.351 61.9092 159.302C63.0662 160.253 63.6833 161.642 63.7604 163.467H61.5429C61.4014 162.259 60.9644 161.359 60.2316 160.767C59.4988 160.163 58.4768 159.861 57.1656 159.861C55.9058 159.861 54.9287 160.118 54.2345 160.632C53.5532 161.147 53.2125 161.886 53.2125 162.85C53.2125 163.544 53.5082 164.116 54.0996 164.566C54.6909 165.003 56.285 165.485 58.8818 166.012C60.7587 166.398 62.1599 166.989 63.0855 167.787C64.024 168.571 64.4932 169.67 64.4932 171.084C64.4932 172.729 63.8247 174.021 62.4877 174.96C61.1508 175.885 59.5181 176.348 57.5898 176.348C55.4687 176.348 53.7332 175.815 52.3834 174.748C51.0335 173.681 50.3522 172.138 50.3394 170.12H52.5569C52.5698 171.47 53.0454 172.517 53.9839 173.263C54.9352 173.996 56.1693 174.362 57.6862 174.362C59.1003 174.362 60.1995 174.092 60.9836 173.552C61.7678 172.999 62.1599 172.202 62.1599 171.161C62.1599 170.325 61.8 169.657 61.0801 169.156C60.3602 168.641 59.0618 168.204 57.1849 167.844C54.6781 167.369 53.0004 166.758 52.152 166.012C51.3035 165.254 50.8793 164.264 50.8793 163.043C50.8793 161.462 51.4771 160.208 52.6726 159.283C53.881 158.344 55.4108 157.875 57.262 157.875ZM69.8274 159.341V163.159H72.3727V165.01H69.8274V173.012C69.8274 173.642 70.0395 173.976 70.4637 174.015C70.8879 174.054 71.325 174.073 71.775 174.073H72.3727V175.924H70.6373C69.4931 175.924 68.7218 175.718 68.3233 175.307C67.9248 174.896 67.7255 174.208 67.7255 173.244V165.01H65.5465V163.159H67.7255V159.341H69.8274ZM76.791 163.159V171.855C76.791 172.588 77.0224 173.192 77.4852 173.668C77.948 174.131 78.5843 174.362 79.3942 174.362C80.5898 174.362 81.5154 173.996 82.171 173.263C82.8266 172.53 83.1544 171.592 83.1544 170.448V163.159H85.2563V175.924H83.2894V173.899H83.2316C82.7688 174.709 82.1838 175.301 81.4768 175.673C80.7826 176.046 79.9791 176.233 79.0664 176.233C77.588 176.233 76.4889 175.847 75.769 175.076C75.0491 174.304 74.6891 173.167 74.6891 171.662V163.159H76.791ZM99.8126 158.299V175.924H97.7108V174.208H97.6722C97.338 174.863 96.8109 175.365 96.091 175.712C95.3711 176.059 94.5419 176.233 93.6035 176.233C91.8166 176.233 90.3896 175.615 89.3226 174.381C88.2556 173.134 87.7221 171.508 87.7221 169.503C87.7221 167.536 88.2363 165.942 89.2648 164.721C90.3061 163.486 91.733 162.869 93.5456 162.869C94.3812 162.869 95.1718 163.043 95.9175 163.39C96.6631 163.724 97.248 164.213 97.6722 164.855H97.7108V158.299H99.8126ZM89.9397 169.638C89.9397 171.013 90.2932 172.145 91.0003 173.032C91.7202 173.919 92.6843 174.362 93.8927 174.362C95.1397 174.362 96.0974 173.919 96.7659 173.032C97.4473 172.145 97.7879 170.988 97.7879 169.561C97.7879 168.108 97.4344 166.938 96.7273 166.051C96.0332 165.164 95.0369 164.721 93.7385 164.721C92.53 164.721 91.5916 165.164 90.9231 166.051C90.2675 166.925 89.9397 168.121 89.9397 169.638ZM104.031 163.159L107.752 173.591H107.81L111.378 163.159H113.615L108.196 177.293C107.617 178.759 107.065 179.749 106.538 180.263C106.023 180.777 105.297 181.034 104.359 181.034C104.102 181.034 103.851 181.015 103.607 180.976C103.375 180.95 103.137 180.899 102.893 180.822V178.894C103.099 178.958 103.305 179.022 103.51 179.086C103.716 179.151 103.922 179.183 104.127 179.183C104.976 179.183 105.567 178.752 105.901 177.891C106.248 177.042 106.525 176.361 106.73 175.847L101.659 163.159H104.031ZM129.979 158.299L136.843 175.924H134.26L132.351 170.621H124.888L122.902 175.924H120.491L127.375 158.299H129.979ZM128.61 160.42L125.64 168.635H131.598L128.667 160.42H128.61ZM144.583 162.85C144.635 162.85 144.68 162.85 144.718 162.85C144.757 162.85 144.808 162.856 144.873 162.869V165.087C143.304 165.087 142.141 165.505 141.382 166.34C140.637 167.176 140.264 168.468 140.264 170.216V175.924H138.162V163.159H140.148V165.839H140.187C140.675 164.836 141.279 164.091 141.999 163.602C142.719 163.101 143.581 162.85 144.583 162.85ZM151.315 162.869C153.141 162.869 154.561 163.531 155.577 164.855C156.593 166.167 157.1 167.857 157.1 169.927V170.178H147.536V170.332C147.536 171.54 147.89 172.517 148.597 173.263C149.304 173.996 150.281 174.362 151.528 174.362C152.453 174.362 153.192 174.15 153.745 173.726C154.298 173.289 154.658 172.672 154.825 171.875H156.888C156.605 173.289 155.988 174.369 155.037 175.114C154.086 175.86 152.89 176.233 151.45 176.233C150.101 176.233 148.963 175.93 148.037 175.326C147.112 174.709 146.424 173.861 145.974 172.781C145.537 171.701 145.318 170.595 145.318 169.464C145.318 167.587 145.884 166.019 147.015 164.759C148.159 163.499 149.593 162.869 151.315 162.869ZM147.536 168.326H154.864C154.799 167.285 154.42 166.424 153.726 165.743C153.045 165.061 152.19 164.721 151.161 164.721C150.197 164.721 149.374 165.048 148.693 165.704C148.012 166.347 147.626 167.221 147.536 168.326ZM164.496 162.869C166.231 162.869 167.459 163.178 168.179 163.795C168.911 164.412 169.278 165.241 169.278 166.282C169.278 170.705 169.278 173.16 169.278 173.649C169.278 174.124 169.496 174.362 169.933 174.362C170.036 174.362 170.139 174.356 170.242 174.343C170.358 174.317 170.467 174.285 170.57 174.246V175.866C170.377 175.982 170.152 176.072 169.895 176.136C169.651 176.2 169.381 176.233 169.085 176.233C168.506 176.233 168.063 176.072 167.754 175.75C167.446 175.416 167.292 174.915 167.292 174.246C166.739 174.902 166.083 175.397 165.325 175.731C164.579 176.065 163.737 176.233 162.799 176.233C161.487 176.233 160.452 175.924 159.694 175.307C158.948 174.677 158.576 173.79 158.576 172.646C158.576 171.502 158.942 170.595 159.675 169.927C160.407 169.246 162.13 168.738 164.843 168.404C165.755 168.288 166.372 168.114 166.694 167.883C167.028 167.639 167.195 167.285 167.195 166.822C167.195 166.115 166.964 165.588 166.501 165.241C166.051 164.894 165.331 164.721 164.341 164.721C163.3 164.721 162.522 164.92 162.008 165.318C161.494 165.704 161.217 166.308 161.179 167.131H159.077C159.141 165.717 159.636 164.656 160.562 163.949C161.5 163.229 162.811 162.869 164.496 162.869ZM160.793 172.492C160.793 173.083 161.012 173.546 161.449 173.88C161.886 174.201 162.49 174.362 163.261 174.362C164.444 174.362 165.389 174.073 166.096 173.494C166.803 172.903 167.157 172.247 167.157 171.527V169.329C166.809 169.573 166.353 169.741 165.787 169.831C165.222 169.921 164.476 170.03 163.551 170.158C162.612 170.3 161.918 170.557 161.468 170.93C161.018 171.29 160.793 171.81 160.793 172.492Z" fill="#054169"/>
<path fill-rule="evenodd" clip-rule="evenodd" d="M2.18896 2H215.779V199.537H2.18896V2Z" stroke="#054169" stroke-width="4" stroke-miterlimit="10" stroke-linejoin="round"/>
<path d="M651.041 91.2682H650.541V91.7682V99.4091H640.913V91.7682V91.2682H640.413H632.772V81.6409H640.413H640.913V81.1409V73.5H650.541V81.1409V81.6409H651.041H658.681V91.2682H651.041ZM633.496 90.0439V90.5439H633.996H641.637V98.1848V98.6848H642.137H649.316H649.816V98.1848V90.5439H657.457H657.957V90.0439V82.8652V82.3652H657.457H649.816V74.7243V74.2243H649.316H642.137H641.637V74.7243V82.3652H633.996H633.496V82.8652V90.0439Z" fill="#054169" stroke="#054169"/>
<path d="M610.471 98.7052L610.475 98.7052C612.083 98.7052 614.846 98.8322 617.623 99.1805C620.418 99.5311 623.075 99.987 624.89 101.035C625.335 101.293 625.58 101.871 625.455 102.37C625.455 102.37 625.455 102.371 625.455 102.371L625.297 102.958L625.194 103.34L625.583 103.269C625.613 103.264 625.643 103.258 625.674 103.253C625.728 103.243 625.782 103.233 625.83 103.224L625.831 103.224C626.395 103.126 626.923 103.087 627.31 103.073C627.504 103.066 627.661 103.065 627.77 103.065C627.824 103.066 627.866 103.067 627.895 103.067L627.926 103.068L627.934 103.069L627.936 103.069L627.936 103.069L627.936 103.069L627.948 103.069L627.96 103.068C627.996 103.066 628.032 103.066 628.068 103.067C632.859 104.307 637.668 105.555 642.474 106.802C644.268 107.267 646.062 107.732 647.854 108.197C649.197 108.545 650.587 109.066 651.743 109.928C652.87 110.768 653.804 112.062 653.847 113.621L653.856 113.959L654.177 113.851C657.463 112.74 660.858 111.764 664.295 111.796L664.304 111.796L664.304 111.796C664.321 111.796 664.339 111.796 664.357 111.796L664.357 111.796L664.37 111.797C664.381 111.797 664.399 111.798 664.422 111.8C664.468 111.804 664.537 111.809 664.625 111.818C664.801 111.836 665.054 111.867 665.361 111.919C665.975 112.024 666.797 112.213 667.635 112.551L667.635 112.551C668.475 112.889 669.35 113.369 670.066 114.147L670.066 114.147C670.779 114.92 671.295 116.039 671.295 117.319V117.319C671.296 117.786 670.992 118.247 670.562 118.429C670.562 118.429 670.562 118.429 670.562 118.429L610.471 98.7052ZM610.471 98.7052C609.843 98.6963 609.25 99.2807 609.25 99.9099C609.25 100.539 609.843 101.123 610.471 101.114H610.475C611.93 101.114 614.668 101.238 617.322 101.571C619.454 101.838 621.363 102.298 622.647 102.766L622.859 102.843L622.804 103.061L618.306 121.061L618.258 121.251H618.063L610.475 121.251L610.471 121.251C609.843 121.242 609.25 121.826 609.25 122.455C609.25 123.084 609.843 123.669 610.471 123.66H610.475L619.198 123.66C619.198 123.66 619.199 123.66 619.199 123.66C619.728 123.658 620.241 123.253 620.365 122.737L620.365 122.737L620.367 122.73L620.435 122.48L620.503 122.229L620.751 122.308C622.205 122.768 623.643 123.243 625.084 123.719C631.027 125.682 637.036 127.666 644.476 128.73L644.476 128.73M610.471 98.7052L644.476 128.73M644.476 128.73L644.485 128.732M644.476 128.73L644.485 128.732M644.485 128.732C644.518 128.738 644.546 128.741 644.583 128.744C644.599 128.746 644.617 128.748 644.638 128.75C645.843 128.759 647.093 128.305 648.935 127.637C648.983 127.619 649.032 127.601 649.081 127.584L644.485 128.732ZM626.246 105.595C626.978 105.468 627.564 105.475 627.735 105.478C627.748 105.478 627.758 105.478 627.766 105.478L627.797 105.478L626.288 105.841M626.246 105.595C626.245 105.595 626.245 105.595 626.245 105.595L626.288 105.841M626.246 105.595C626.246 105.595 626.246 105.595 626.246 105.595L626.288 105.841M626.246 105.595C625.403 105.737 624.885 106.054 624.741 106.142C624.735 106.145 624.731 106.148 624.726 106.151L624.714 106.158L624.703 106.167C624.482 106.338 624.42 106.533 624.38 106.66C624.377 106.672 624.373 106.684 624.369 106.695L624.366 106.704L624.364 106.713L621.138 119.644L621.081 119.873L621.305 119.943C622.845 120.429 624.356 120.927 625.863 121.424C631.757 123.367 637.576 125.285 644.7 126.316L644.725 126.32L644.749 126.318C644.828 126.314 644.979 126.287 645.171 126.246C645.37 126.204 645.631 126.142 645.941 126.06C646.56 125.896 647.375 125.653 648.275 125.326M626.288 105.841C625.491 105.975 625.005 106.273 624.87 106.356C624.865 106.359 624.86 106.362 624.856 106.364C624.699 106.486 624.658 106.615 624.618 106.737C624.614 106.749 624.61 106.761 624.606 106.773L621.38 119.705C622.926 120.192 624.441 120.692 625.95 121.189C631.841 123.131 637.635 125.041 644.736 126.069C644.958 126.057 646.406 125.739 648.19 125.091M648.275 125.326C648.275 125.326 648.275 125.326 648.275 125.326L648.19 125.091M648.275 125.326C650.101 124.664 652.394 123.712 654.854 122.662C657.313 121.612 659.914 120.464 662.431 119.353C664.528 118.427 666.567 117.526 668.418 116.73L668.665 116.624L668.541 116.385C668.523 116.35 668.514 116.311 668.497 116.239C668.492 116.217 668.486 116.192 668.479 116.163C668.455 116.062 668.413 115.91 668.299 115.786L668.299 115.786C667.924 115.379 667.344 115.038 666.731 114.791L666.731 114.791C665.539 114.311 664.348 114.212 664.272 114.206L664.263 114.205L664.255 114.205C661.713 114.181 659.009 114.867 656.257 115.749C655.174 116.096 654.088 116.472 652.999 116.848C651.303 117.435 649.6 118.024 647.894 118.51M648.275 125.326L648.19 125.091M648.19 125.091C650.009 124.431 652.296 123.482 654.756 122.432C657.219 121.38 659.813 120.235 662.325 119.126C664.335 118.239 666.293 117.374 668.089 116.6C668.092 116.605 668.095 116.61 668.097 116.616L668.319 116.5L668.292 116.438C668.274 116.388 668.262 116.333 668.249 116.278C668.223 116.162 668.195 116.043 668.115 115.955C667.775 115.586 667.233 115.263 666.638 115.023C665.482 114.557 664.321 114.46 664.252 114.455C660.778 114.423 656.972 115.739 653.093 117.08C651.39 117.67 649.672 118.264 647.962 118.751M647.44 115.841L633.308 113.023C632.542 112.805 631.648 113.346 631.486 114.126C631.323 114.906 631.928 115.759 632.717 115.864L647.258 118.773C647.49 118.824 647.734 118.815 647.962 118.751M647.44 115.841L647.253 110.531L647.19 110.773L647.253 110.531C648.373 110.822 649.521 111.292 650.293 111.868C651.06 112.441 651.439 112.995 651.439 113.728V114.614V114.791L651.271 114.85C649.99 115.3 648.731 115.723 647.51 116.081L647.451 116.098L647.391 116.086L633.259 113.268L633.249 113.266L633.24 113.264C632.934 113.176 632.59 113.238 632.3 113.414C632.01 113.59 631.795 113.865 631.73 114.177C631.666 114.488 631.752 114.827 631.949 115.104C632.145 115.38 632.435 115.574 632.75 115.616L632.758 115.617L632.766 115.619L647.307 118.528L647.307 118.528L647.311 118.529C647.502 118.57 647.705 118.564 647.894 118.51M647.44 115.841C648.654 115.485 649.908 115.063 651.189 114.614L647.44 115.841ZM647.962 118.751L647.894 118.51M647.962 118.751L647.894 118.51C647.894 118.51 647.894 118.51 647.894 118.51M625.81 102.974C626.958 102.778 627.946 102.819 627.946 102.819L625.015 100.819C625.557 101.133 625.85 101.825 625.697 102.432L625.61 102.756C625.599 102.758 625.589 102.76 625.579 102.762C625.549 102.767 625.52 102.773 625.493 102.777L625.538 103.023L625.779 103.088L625.796 103.026L625.796 103.026L625.81 102.974Z" fill="#054169" stroke="white" stroke-width="0.5"/>
</svg>
