<svg width="834" height="202" viewBox="0 0 834 202" fill="none" xmlns="http://www.w3.org/2000/svg">
<path fill-rule="evenodd" clip-rule="evenodd" d="M232.8 2H834V48.1H232.8V2Z" fill="#5FBEE6"/>
<path fill-rule="evenodd" clip-rule="evenodd" d="M3.40039 22.5998C3.41352 20.1373 4.39756 17.7795 6.13881 16.0382C7.88006 14.297 10.2379 13.3129 12.7004 13.2998H49.9004C52.3663 13.3149 54.7309 14.2823 56.5004 15.9998C58.2341 17.7586 59.2043 20.1301 59.2004 22.5998V97.7998C59.1873 100.262 58.2032 102.62 56.462 104.361C54.7207 106.103 52.3629 107.087 49.9004 107.1H12.7004C10.2379 107.087 7.88006 106.103 6.13881 104.361C4.39756 102.62 3.41352 100.262 3.40039 97.7998V22.5998Z" fill="#D6F3FF"/>
<path fill-rule="evenodd" clip-rule="evenodd" d="M48.7002 52.4998C48.7028 49.6628 49.831 46.9428 51.8371 44.9367C53.8431 42.9306 56.5632 41.8025 59.4002 41.7998H102C103.393 41.7972 104.773 42.0696 106.06 42.6013C107.347 43.1331 108.517 43.9138 109.501 44.8986C110.486 45.8834 111.267 47.053 111.799 48.3403C112.33 49.6275 112.603 51.0071 112.6 52.3998V142.8C112.598 145.637 111.469 148.357 109.463 150.363C107.457 152.369 104.737 153.497 101.9 153.5H59.4002C56.5632 153.497 53.8431 152.369 51.8371 150.363C49.831 148.357 48.7028 145.637 48.7002 142.8V52.4998Z" fill="#D6F3FF"/>
<path fill-rule="evenodd" clip-rule="evenodd" d="M104.6 95.1998C104.599 93.7024 104.893 92.2194 105.465 90.8357C106.038 89.452 106.877 88.1947 107.936 87.1359C108.995 86.077 110.252 85.2374 111.636 84.6649C113.02 84.0925 114.503 83.7985 116 83.7998H161.4C162.885 83.7959 164.356 84.0855 165.729 84.6519C167.102 85.2184 168.349 86.0506 169.399 87.1007C170.449 88.1508 171.281 89.3981 171.848 90.7708C172.414 92.1436 172.704 93.6148 172.7 95.0998V151.4C172.701 152.897 172.407 154.38 171.835 155.764C171.262 157.148 170.423 158.405 169.364 159.464C168.305 160.523 167.048 161.362 165.664 161.935C164.28 162.507 162.797 162.801 161.3 162.8H115.9C114.403 162.801 112.92 162.507 111.536 161.935C110.152 161.362 108.895 160.523 107.836 159.464C106.777 158.405 105.938 157.148 105.365 155.764C104.793 154.38 104.499 152.897 104.5 151.4L104.6 95.1998Z" fill="#D6F3FF"/>
<path fill-rule="evenodd" clip-rule="evenodd" d="M159.5 51.0998C159.513 48.6373 160.497 46.2795 162.238 44.5382C163.98 42.797 166.338 41.8129 168.8 41.7998H206C208.466 41.8149 210.831 42.7823 212.6 44.4998C214.334 46.2586 215.304 48.6301 215.3 51.0998V126.3C215.287 128.762 214.303 131.12 212.562 132.861C210.82 134.603 208.462 135.587 206 135.6H168.8C166.338 135.587 163.98 134.603 162.238 132.861C160.497 131.12 159.513 128.762 159.5 126.3V51.0998Z" fill="#D6F3FF"/>
<path fill-rule="evenodd" clip-rule="evenodd" d="M746.2 101.9H741.9C741.782 101.9 741.665 101.924 741.556 101.969C741.446 102.014 741.347 102.08 741.264 102.164C741.18 102.248 741.114 102.347 741.068 102.456C741.023 102.565 741 102.682 741 102.8V107.2C741 107.319 741.023 107.436 741.068 107.545C741.114 107.654 741.18 107.753 741.264 107.837C741.347 107.92 741.446 107.987 741.556 108.032C741.665 108.077 741.782 108.1 741.9 108.1H746.2C746.318 108.1 746.435 108.077 746.544 108.032C746.654 107.987 746.753 107.92 746.836 107.837C746.92 107.753 746.986 107.654 747.031 107.545C747.077 107.436 747.1 107.319 747.1 107.2V102.8C747 102.4 746.6 101.9 746.2 101.9ZM745.3 106.4H742.7V103.8H745.3V106.4Z" fill="#054169"/>
<path fill-rule="evenodd" clip-rule="evenodd" d="M757.2 101.9H752.8C752.682 101.9 752.565 101.924 752.456 101.969C752.347 102.014 752.248 102.08 752.164 102.164C752.08 102.248 752.014 102.347 751.969 102.456C751.924 102.565 751.9 102.682 751.9 102.8V107.2C751.9 107.319 751.924 107.436 751.969 107.545C752.014 107.654 752.08 107.753 752.164 107.837C752.248 107.92 752.347 107.987 752.456 108.032C752.565 108.077 752.682 108.1 752.8 108.1H757.2C757.319 108.1 757.436 108.077 757.545 108.032C757.654 107.987 757.753 107.92 757.837 107.837C757.92 107.753 757.987 107.654 758.032 107.545C758.077 107.436 758.1 107.319 758.1 107.2V102.8C758.068 102.573 757.963 102.363 757.8 102.2C757.638 102.038 757.428 101.933 757.2 101.9ZM756.3 106.4H753.7V103.8H756.3V106.4Z" fill="#054169"/>
<path fill-rule="evenodd" clip-rule="evenodd" d="M746.2 93.4004H741.9C741.661 93.4004 741.432 93.4952 741.264 93.664C741.095 93.8328 741 94.0617 741 94.3004V98.7004C741 98.9391 741.095 99.168 741.264 99.3368C741.432 99.5056 741.661 99.6004 741.9 99.6004H746.2C746.439 99.6004 746.668 99.5056 746.836 99.3368C747.005 99.168 747.1 98.9391 747.1 98.7004V94.3004C747.068 94.0732 746.962 93.8626 746.8 93.7003C746.638 93.538 746.427 93.4327 746.2 93.4004ZM745.3 97.8004H742.7V95.2004H745.3V97.8004Z" fill="#054169"/>
<path fill-rule="evenodd" clip-rule="evenodd" d="M757.2 93.4004H752.8C752.562 93.4004 752.333 93.4952 752.164 93.664C751.995 93.8328 751.9 94.0617 751.9 94.3004V98.7004C751.9 98.9391 751.995 99.168 752.164 99.3368C752.333 99.5056 752.562 99.6004 752.8 99.6004H757.2C757.439 99.6004 757.668 99.5056 757.837 99.3368C758.006 99.168 758.1 98.9391 758.1 98.7004V94.3004C758.078 94.0692 757.976 93.8529 757.812 93.6887C757.648 93.5245 757.432 93.4226 757.2 93.4004ZM756.3 97.8004H753.7V95.2004H756.3V97.8004Z" fill="#054169"/>
<path fill-rule="evenodd" clip-rule="evenodd" d="M746.2 84.9004H741.9C741.782 84.9004 741.665 84.9237 741.556 84.9689C741.446 85.0141 741.347 85.0804 741.264 85.164C741.18 85.2476 741.114 85.3468 741.068 85.456C741.023 85.5652 741 85.6822 741 85.8004V90.1004C741 90.3391 741.095 90.568 741.264 90.7368C741.432 90.9056 741.661 91.0004 741.9 91.0004H746.2C746.439 91.0004 746.668 90.9056 746.836 90.7368C747.005 90.568 747.1 90.3391 747.1 90.1004V85.8004C747.068 85.5732 746.962 85.3626 746.8 85.2003C746.638 85.038 746.427 84.9327 746.2 84.9004ZM745.3 89.2004H742.7V86.6004H745.3V89.2004Z" fill="#054169"/>
<path fill-rule="evenodd" clip-rule="evenodd" d="M757.2 84.9004H752.8C752.682 84.9004 752.565 84.9237 752.456 84.9689C752.347 85.0141 752.248 85.0804 752.164 85.164C752.08 85.2476 752.014 85.3468 751.969 85.456C751.924 85.5652 751.9 85.6822 751.9 85.8004V90.1004C751.9 90.3391 751.995 90.568 752.164 90.7368C752.333 90.9056 752.562 91.0004 752.8 91.0004H757.2C757.439 91.0004 757.668 90.9056 757.837 90.7368C758.006 90.568 758.1 90.3391 758.1 90.1004V85.8004C758.078 85.5692 757.976 85.3529 757.812 85.1887C757.648 85.0245 757.432 84.9226 757.2 84.9004ZM756.3 89.2004H753.7V86.6004H756.3V89.2004Z" fill="#054169"/>
<path fill-rule="evenodd" clip-rule="evenodd" d="M784.8 120.9L785.7 120C785.713 120 785.726 119.997 785.738 119.992C785.751 119.987 785.762 119.98 785.771 119.971C785.78 119.962 785.787 119.95 785.793 119.938C785.798 119.926 785.8 119.913 785.8 119.9L786.5 119.3C786.6 119.3 786.6 119.2 786.7 119.2C788 118.1 789.4 117 790.8 116L791.9 115.2C791.927 115.2 791.952 115.19 791.971 115.171C791.99 115.152 792 115.127 792 115.1L792.6 114.7C794.2 113.682 795.871 112.78 797.6 112L798.4 111.6C798.557 111.485 798.683 111.334 798.77 111.16C798.857 110.986 798.902 110.794 798.9 110.6L798.8 109.8V102.3C798.788 102.038 798.682 101.789 798.5 101.6L793 96.1001C792.933 96.0045 792.842 95.9271 792.738 95.8748C792.633 95.8224 792.517 95.7968 792.4 95.8001H782.2L782.1 95.9001L776.7 101.3C776.603 101.388 776.525 101.496 776.473 101.617C776.422 101.738 776.397 101.869 776.4 102V106.1C775.4 105.9 774.3 105.8 773.3 105.7V104C773.38 103.883 773.415 103.741 773.4 103.6L774.9 101.8C775.729 100.816 776.356 99.678 776.745 98.4512C777.133 97.2244 777.276 95.933 777.164 94.651C777.053 93.369 776.69 92.1216 776.095 90.9803C775.501 89.839 774.687 88.8263 773.7 88.0001L772.9 87.3001C772.734 87.1545 772.521 87.0743 772.3 87.0743C772.079 87.0743 771.866 87.1545 771.7 87.3001L770.9 88.0001C769.825 88.9358 768.957 90.0868 768.354 91.3787C767.752 92.6706 767.426 94.0747 767.4 95.5001C767.408 97.822 768.261 100.062 769.8 101.8L771.3 103.6C771.304 103.786 771.375 103.963 771.5 104.1V105.6H769.6C768.4 105.6 767.3 105.7 766.1 105.8V77.0001C766.097 76.8083 766.039 76.6215 765.932 76.462C765.826 76.3024 765.676 76.1768 765.5 76.1001L734.9 67.3001C734.63 67.2339 734.345 67.2695 734.1 67.4001C734.003 67.4882 733.925 67.5963 733.873 67.7172C733.822 67.838 733.797 67.9687 733.8 68.1001V131C733.811 131.164 733.863 131.323 733.95 131.463C734.037 131.602 734.157 131.718 734.3 131.8L735.1 132.3C735.217 132.38 735.359 132.415 735.5 132.4H764.3C764.441 132.415 764.583 132.38 764.7 132.3L765.6 131.9C765.758 131.838 765.893 131.727 765.983 131.583C766.073 131.439 766.114 131.269 766.1 131.1V123.2H767.2C770.97 123.18 774.684 124.108 778 125.9L777.9 126.1C776.503 128.084 775.234 130.155 774.1 132.3C774.018 132.516 774.013 132.753 774.086 132.971C774.159 133.19 774.305 133.377 774.5 133.5C774.617 133.58 774.759 133.615 774.9 133.6C775.064 133.589 775.223 133.538 775.363 133.45C775.502 133.363 775.618 133.243 775.7 133.1C776.781 131.031 777.984 129.028 779.3 127.1L780 126.1L780.5 125.4C781.7 124.1 783.2 122.5 784.8 120.9ZM771 101C770.291 100.202 769.75 99.2685 769.41 98.2561C769.07 97.2437 768.938 96.173 769.022 95.1084C769.107 94.0438 769.405 93.0071 769.899 92.0606C770.394 91.1141 771.074 90.2772 771.9 89.6001L772 89.5001L772.1 89.6001C772.99 90.3733 773.708 91.3246 774.208 92.3925C774.707 93.4605 774.977 94.6213 775 95.8001C775.015 97.6887 774.38 99.525 773.2 101L773 101.2V95.2001C773 95.0819 772.977 94.9649 772.932 94.8557C772.886 94.7465 772.82 94.6473 772.737 94.5637C772.653 94.4801 772.554 94.4138 772.445 94.3686C772.335 94.3234 772.218 94.3001 772.1 94.3001C771.982 94.3001 771.865 94.3234 771.756 94.3686C771.647 94.4138 771.547 94.4801 771.464 94.5637C771.38 94.6473 771.314 94.7465 771.269 94.8557C771.223 94.9649 771.2 95.0819 771.2 95.2001V101.3L771 101ZM796.9 110.5C795.148 111.335 793.445 112.27 791.8 113.3L791.7 113.4L790.9 112.9C790.71 112.798 790.541 112.663 790.4 112.5C790.18 112.345 789.945 112.211 789.7 112.1C789.6 112 789.5 112 789.4 111.9C789.3 111.8 789.2 111.8 789.1 111.7H789L788.9 111.6V103.5H797V110.6L796.9 110.5ZM778 103.4H787.2V110.5L786.9 110.3L785.7 109.7V105.6V105.5V105.1H785.6V105H780.6C780.361 105 780.133 105.095 779.964 105.264C779.795 105.432 779.7 105.661 779.7 105.9V107.5L779.4 107.4C779.1 107.3 778.7 107.2 778.3 107.1H778.1V103.4H778ZM783.8 108.8L783.5 108.7C782.784 108.389 782.049 108.122 781.3 107.9L781.2 107.8V106.6H783.8V108.8ZM792 97.9001L795.7 101.6H788.4L784.7 97.9001H792ZM782.5 98.3001L783.5 99.3001L785.8 101.7H779.2L782.5 98.3001ZM766.1 107.9C767.2 107.8 768.3 107.8 769.4 107.8C776.024 107.754 782.52 109.63 788.1 113.2C788.127 113.2 788.152 113.211 788.171 113.229C788.19 113.248 788.2 113.274 788.2 113.3C788.4 113.4 788.5 113.5 788.7 113.6C788.9 113.7 789.1 113.9 789.3 114C789.327 114 789.352 114.011 789.371 114.029C789.39 114.048 789.4 114.074 789.4 114.1C789.6 114.2 789.8 114.4 790.1 114.6L789.9 114.8C788.401 115.812 786.965 116.914 785.6 118.1C785.5 118.1 785.5 118.2 785.4 118.2L785.2 118.4L784.4 118C784.3 117.9 784.2 117.9 784.1 117.8C783.9 117.7 783.8 117.7 783.7 117.6H783.6C783.49 117.495 783.351 117.425 783.2 117.4H783.1C783 117.3 782.8 117.3 782.7 117.2H782.6C782.5 117.2 782.4 117.1 782.2 117C782.174 117 782.148 116.99 782.129 116.971C782.111 116.952 782.1 116.927 782.1 116.9C782 116.9 781.9 116.8 781.8 116.8C781.7 116.8 781.7 116.7 781.6 116.7H781.5C778.827 115.508 775.999 114.7 773.1 114.3C772.928 114.307 772.757 114.272 772.6 114.2C772.427 114.216 772.254 114.181 772.1 114.1H772C771.8 114.1 771.7 114.1 771.6 114H766.3V108.2L766.1 107.9ZM757.3 119.7V131H750.3V119.7H757.3ZM748.6 131.1H741.6V119.8H748.6V131.1ZM764.1 130.9L763.9 131H759V118.8C759 118.561 758.905 118.332 758.737 118.164C758.568 117.995 758.339 117.9 758.1 117.9H740.6C740.361 117.9 740.133 117.995 739.964 118.164C739.795 118.332 739.7 118.561 739.7 118.8V131H735.4L735.2 130.9V69.7001L764.1 78.0001V130.9ZM766.1 121.8H765.9V115.5H771.3C771.441 115.485 771.583 115.521 771.7 115.6H772.2C772.4 115.6 772.5 115.7 772.7 115.7C775.488 116.113 778.211 116.886 780.8 118C780.9 118 780.9 118.1 781 118.1C781.1 118.1 781.2 118.2 781.3 118.2H781.4C781.5 118.3 781.6 118.3 781.7 118.4H781.8C781.9 118.5 782 118.5 782.2 118.6H782.3C782.4 118.7 782.5 118.7 782.7 118.8H782.8C782.91 118.905 783.05 118.975 783.2 119C783.4 119.1 783.5 119.2 783.7 119.3L783.5 119.5C781.87 121.045 780.365 122.717 779 124.5L778.9 124.6L778.8 124.5C775.195 122.594 771.178 121.598 767.1 121.6C766.79 121.752 766.445 121.821 766.1 121.8Z" fill="#054169"/>
<path fill-rule="evenodd" clip-rule="evenodd" d="M799.8 118.7C799.744 118.598 799.668 118.509 799.576 118.437C799.484 118.366 799.378 118.315 799.265 118.287C799.153 118.259 799.035 118.254 798.921 118.274C798.806 118.293 798.697 118.336 798.6 118.4C792.175 121.818 786.63 126.679 782.4 132.6C782.33 132.691 782.279 132.794 782.252 132.905C782.224 133.016 782.219 133.131 782.238 133.244C782.257 133.357 782.298 133.464 782.361 133.56C782.423 133.656 782.504 133.737 782.6 133.8C782.736 133.926 782.914 133.997 783.1 134C783.242 134.007 783.384 133.973 783.508 133.902C783.632 133.831 783.733 133.727 783.8 133.6C787.959 127.969 793.279 123.297 799.4 119.9C799.594 119.777 799.74 119.59 799.813 119.372C799.886 119.153 799.881 118.916 799.8 118.7Z" fill="#054169"/>
<path fill-rule="evenodd" clip-rule="evenodd" d="M798.5 127.4C796.4 128.902 794.426 130.575 792.6 132.4C792.482 132.531 792.406 132.694 792.38 132.869C792.354 133.043 792.38 133.221 792.455 133.381C792.529 133.541 792.649 133.675 792.799 133.767C792.949 133.86 793.124 133.906 793.3 133.9C793.417 133.903 793.533 133.878 793.637 133.825C793.742 133.773 793.832 133.695 793.9 133.6C795.707 131.893 797.61 130.291 799.6 128.8C799.695 128.737 799.776 128.655 799.839 128.559C799.901 128.464 799.943 128.356 799.961 128.243C799.98 128.131 799.975 128.016 799.948 127.905C799.92 127.794 799.87 127.69 799.8 127.6C799.635 127.428 799.419 127.315 799.184 127.279C798.949 127.243 798.708 127.285 798.5 127.4Z" fill="#054169"/>
<path fill-rule="evenodd" clip-rule="evenodd" d="M392 110L383.2 100.8C383.047 100.678 382.879 100.577 382.7 100.5C381.829 100.391 380.944 100.459 380.1 100.7V84.8996C380.103 84.7826 380.078 84.6666 380.025 84.5619C379.973 84.4573 379.896 84.3671 379.8 84.2996C379.235 83.6327 378.53 83.0987 377.735 82.7357C376.94 82.3727 376.074 82.1896 375.2 82.1996C374.442 82.2689 373.706 82.4906 373.036 82.8515C372.365 83.2124 371.775 83.7049 371.3 84.2996C371.174 84.4749 371.105 84.684 371.1 84.8996V108.7C371.085 108.841 371.121 108.982 371.2 109.1L382.3 129.3V134C382.3 134.238 382.395 134.467 382.564 134.636C382.732 134.805 382.961 134.9 383.2 134.9H399C399.118 134.9 399.235 134.876 399.344 134.831C399.454 134.786 399.553 134.72 399.636 134.636C399.72 134.552 399.786 134.453 399.832 134.344C399.877 134.235 399.9 134.118 399.9 134V121.3C398.546 116.784 395.776 112.822 392 110ZM398.1 133.1H384.1V129.1C384.116 128.927 384.081 128.753 384 128.6L373 108.5V85.2996C373.646 84.5898 374.542 84.1594 375.5 84.0996C376.047 84.1067 376.586 84.2256 377.085 84.4492C377.583 84.6728 378.031 84.9963 378.4 85.3996V102C378.001 102.538 377.722 103.156 377.584 103.812C377.446 104.468 377.452 105.146 377.6 105.8C377.602 105.877 377.62 105.953 377.655 106.022C377.689 106.091 377.739 106.152 377.8 106.2L386.8 116.7C386.959 116.885 387.186 117 387.429 117.019C387.673 117.038 387.914 116.959 388.1 116.8C388.286 116.64 388.401 116.414 388.419 116.17C388.438 115.927 388.359 115.685 388.2 115.5L379.4 105.2C379.293 104.56 379.362 103.903 379.6 103.3C379.719 103.238 379.825 103.154 379.911 103.05C379.997 102.947 380.061 102.828 380.1 102.7C380.736 102.337 381.475 102.196 382.2 102.3L390.8 111.4L390.9 111.5C394.271 114.078 396.809 117.59 398.2 121.6V133.1H398.1Z" fill="#054169"/>
<path fill-rule="evenodd" clip-rule="evenodd" d="M437.5 83.9998C436.527 82.8148 435.126 82.0605 433.6 81.8998C432.726 81.8898 431.861 82.0729 431.066 82.4359C430.271 82.7989 429.565 83.3329 429 83.9998C428.913 84.0746 428.841 84.1663 428.789 84.2693C428.738 84.3724 428.708 84.4848 428.7 84.5998V100.4C427.856 100.159 426.972 100.091 426.1 100.2C425.997 100.198 425.896 100.225 425.807 100.278C425.719 100.331 425.647 100.408 425.6 100.5L416.8 109.7C413.058 112.512 410.294 116.43 408.9 120.9V133.6C408.9 133.838 408.995 134.067 409.164 134.236C409.333 134.405 409.562 134.5 409.8 134.5H425.6C425.839 134.5 426.068 134.405 426.237 134.236C426.406 134.067 426.5 133.838 426.5 133.6V128.9L437.6 108.7C437.68 108.582 437.715 108.441 437.7 108.3V84.4998C437.661 84.3235 437.593 84.1547 437.5 83.9998ZM435.9 108.1L424.8 128.3C424.721 128.417 424.685 128.559 424.7 128.7V132.7H410.7V121.2C412.022 117.155 414.575 113.624 418 111.1L418.1 111L426.7 101.9C427.423 101.855 428.145 101.992 428.8 102.3C428.91 102.541 429.083 102.749 429.3 102.9C429.581 103.492 429.651 104.162 429.5 104.8L420.7 115.1C420.622 115.192 420.562 115.298 420.524 115.413C420.486 115.528 420.472 115.65 420.481 115.771C420.49 115.891 420.523 116.009 420.578 116.117C420.633 116.225 420.708 116.321 420.8 116.4C420.892 116.479 420.999 116.539 421.114 116.576C421.229 116.614 421.35 116.628 421.471 116.619C421.592 116.61 421.71 116.577 421.818 116.522C421.925 116.467 422.022 116.392 422.1 116.3L431.1 105.8C431.206 105.69 431.275 105.55 431.3 105.4C431.449 104.746 431.454 104.068 431.316 103.412C431.178 102.756 430.9 102.138 430.5 101.6V84.9998C430.869 84.5965 431.317 84.273 431.816 84.0494C432.315 83.8258 432.854 83.7068 433.4 83.6998C434.333 83.8468 435.202 84.264 435.9 84.8998V108.1Z" fill="#054169"/>
<path fill-rule="evenodd" clip-rule="evenodd" d="M412.4 107.8C417.5 104.9 419.1 97.7004 419.1 97.5004C419.136 97.3837 419.146 97.2602 419.129 97.1391C419.112 97.018 419.068 96.9023 419 96.8004C418.932 96.6968 418.844 96.6079 418.741 96.5392C418.637 96.4705 418.522 96.4233 418.4 96.4004C411.8 95.5004 407.7 98.4004 405.4 101.3V93.2004C406.218 93.3987 407.058 93.4994 407.9 93.5004C409.513 93.52 411.102 93.1055 412.5 92.3004C417.6 89.4004 419.2 82.2004 419.2 81.9004C419.232 81.7832 419.24 81.6604 419.223 81.54C419.206 81.4195 419.164 81.3039 419.1 81.2004C419.032 81.0968 418.944 81.0079 418.841 80.9392C418.737 80.8705 418.622 80.8233 418.5 80.8004C411.9 79.9004 407.8 82.8004 405.5 85.7004V77.3004C406.15 77.4906 406.823 77.5916 407.5 77.6004C408.582 77.5839 409.645 77.3097 410.6 76.8004C414.3 74.8004 415.4 69.7004 415.4 69.5004C415.432 69.3832 415.44 69.2604 415.423 69.14C415.406 69.0195 415.364 68.9039 415.3 68.8004C415.2 68.6004 414.9 68.5004 414.7 68.4004C413.256 68.1696 411.779 68.2654 410.377 68.6807C408.976 69.0961 407.685 69.8204 406.6 70.8004C405.811 71.5656 405.137 72.4414 404.6 73.4004C404.063 72.4414 403.389 71.5656 402.6 70.8004C401.523 69.8079 400.233 69.0754 398.829 68.6594C397.424 68.2433 395.944 68.1547 394.5 68.4004C394.378 68.4197 394.262 68.4647 394.159 68.5323C394.056 68.5999 393.968 68.6886 393.902 68.7927C393.836 68.8967 393.792 69.0136 393.775 69.1356C393.757 69.2576 393.766 69.382 393.8 69.5004C393.8 69.7004 395 74.8004 398.6 76.8004C400.17 77.6248 402 77.8041 403.7 77.3004V85.7004C402.18 83.7822 400.168 82.3129 397.878 81.4498C395.589 80.5867 393.107 80.3623 390.7 80.8004C390.578 80.8197 390.462 80.8647 390.359 80.9323C390.256 80.9999 390.168 81.0886 390.102 81.1927C390.036 81.2967 389.992 81.4136 389.975 81.5356C389.957 81.6576 389.966 81.782 390 81.9004C390 82.2004 391.6 89.3004 396.7 92.3004C398.861 93.5064 401.406 93.8289 403.8 93.2004V101.3C402.28 99.3822 400.268 97.9129 397.978 97.0498C395.689 96.1867 393.207 95.9623 390.8 96.4004C390.678 96.4197 390.562 96.4647 390.459 96.5323C390.356 96.5999 390.268 96.6886 390.202 96.7927C390.136 96.8967 390.092 97.0136 390.075 97.1356C390.057 97.2576 390.066 97.382 390.1 97.5004C390.1 97.8004 391.7 104.9 396.8 107.8C398.961 109.006 401.506 109.329 403.9 108.7V118.1C403.9 118.339 403.995 118.568 404.163 118.737C404.332 118.906 404.561 119 404.8 119C405.038 119 405.267 118.906 405.436 118.737C405.605 118.568 405.7 118.339 405.7 118.1V108.7C406.518 108.899 407.358 108.999 408.2 109C409.677 108.951 411.12 108.539 412.4 107.8ZM417.1 82.5004C416.5 84.4004 414.9 88.8004 411.5 90.7004C410.557 91.2031 409.523 91.5148 408.46 91.6178C407.396 91.7207 406.322 91.6129 405.3 91.3004V88.9004C407.2 85.7004 410.7 82.0004 417.1 82.5004ZM413.2 70.2004C412.7 71.6004 411.6 74.2004 409.5 75.3004C408.865 75.608 408.175 75.7843 407.47 75.8186C406.766 75.853 406.061 75.7448 405.4 75.5004C405.977 73.909 407.042 72.5402 408.442 71.5887C409.843 70.6372 411.507 70.1514 413.2 70.2004ZM399.3 75.3004C397.2 74.2004 396.1 71.6004 395.6 70.2004C397.292 70.1514 398.957 70.6372 400.357 71.5887C401.757 72.5402 402.822 73.909 403.4 75.5004C402.738 75.7448 402.034 75.853 401.329 75.8186C400.625 75.7843 399.935 75.608 399.3 75.3004ZM397.4 90.7004C394 88.7004 392.4 84.4004 391.8 82.5004C398.2 82.0004 401.7 85.6004 403.6 89.0004V91.4004C402.575 91.7228 401.494 91.8271 400.426 91.7066C399.358 91.586 398.327 91.2433 397.4 90.7004ZM397.4 106.2C394 104.3 392.4 99.9004 391.8 98.0004C398.2 97.5004 401.7 101.1 403.6 104.4V106.8C402.586 107.163 401.504 107.297 400.433 107.193C399.361 107.089 398.325 106.75 397.4 106.2ZM405.3 104.5C406.378 102.356 408.086 100.594 410.196 99.4495C412.305 98.3053 414.715 97.8345 417.1 98.1004C416.5 100 414.9 104.4 411.5 106.3C409.594 107.302 407.381 107.551 405.3 107V104.5Z" fill="#054169"/>
<path fill-rule="evenodd" clip-rule="evenodd" d="M298.2 74.0996C298.205 73.7564 298.344 73.4287 298.587 73.1861C298.829 72.9434 299.157 72.8048 299.5 72.7996C299.672 72.7829 299.845 72.811 300.003 72.8811C300.161 72.9512 300.297 73.0609 300.4 73.1996C300.632 73.4456 300.773 73.7629 300.8 74.0996C300.8 74.4444 300.663 74.775 300.419 75.0188C300.176 75.2626 299.845 75.3996 299.5 75.3996C299.155 75.3996 298.825 75.2626 298.581 75.0188C298.337 74.775 298.2 74.4444 298.2 74.0996Z" fill="#054169"/>
<path fill-rule="evenodd" clip-rule="evenodd" d="M288.8 90.4C285.384 92.17 281.449 92.6663 277.7 91.8C281.4 87.1 287 85.7 287 85.6C287.25 85.5297 287.462 85.3653 287.593 85.1414C287.723 84.9175 287.762 84.6517 287.7 84.4C287.681 84.2681 287.632 84.1422 287.557 84.0318C287.482 83.9213 287.384 83.8291 287.268 83.7619C287.153 83.6947 287.024 83.6542 286.891 83.6435C286.758 83.6328 286.625 83.6521 286.5 83.7C281.829 84.9555 277.776 87.8709 275.1 91.9C275.014 92.0316 274.96 92.1817 274.943 92.338C274.925 92.4944 274.945 92.6527 275 92.8C275.043 92.9416 275.121 93.0705 275.225 93.1752C275.33 93.2798 275.459 93.357 275.6 93.4C277.445 93.9818 279.366 94.2851 281.3 94.3C284.229 94.2863 287.11 93.5659 289.7 92.2C289.939 92.0807 290.121 91.8714 290.205 91.6182C290.289 91.365 290.27 91.0887 290.15 90.85C290.031 90.6113 289.822 90.4298 289.569 90.3454C289.315 90.261 289.039 90.2807 288.8 90.4Z" fill="#054169"/>
<path fill-rule="evenodd" clip-rule="evenodd" d="M317.4 74.8005C317.21 74.6841 316.983 74.6403 316.763 74.677C316.543 74.7138 316.343 74.8286 316.2 75.0005C313.7 77.3005 309.6 78.6005 307.2 79.2005L307.7 77.9005C308.935 75.7776 310.564 73.9107 312.5 72.4005C312.729 72.1934 312.872 71.9079 312.9 71.6005C312.9 71.0005 312.6 70.1005 311.2 69.5005C311.1 69.5005 311.1 69.4005 311 69.4005C310.277 69.219 309.542 69.0854 308.8 69.0005C305.53 68.4439 302.198 68.343 298.9 68.7005H298.4C297.909 68.8227 297.406 68.8898 296.9 68.9005C295.8 69.1005 294.6 69.3005 293.5 69.6005C290.254 70.3492 287.102 71.4559 284.1 72.9005C280.552 71.4584 276.722 70.8429 272.9 71.1005C272.673 71.1328 272.462 71.238 272.3 71.4003C272.138 71.5626 272.033 71.7732 272 72.0005C272 72.0005 271.8 74.8005 271.3 77.7005C271.071 79.5539 270.601 81.3693 269.9 83.1005C268.745 84.3601 267.676 85.6965 266.7 87.1005C262.9 94.4005 262 101.4 264 107.7C264.2 108.3 264.4 108.8 264.6 109.3C264.6 111.2 264.6 117.1 265.8 118.9C265.94 119.105 266.144 119.255 266.38 119.328C266.616 119.401 266.87 119.391 267.1 119.3C268.06 118.993 269.076 118.896 270.077 119.016C271.078 119.137 272.041 119.473 272.9 120C275.1 121.9 277.6 123.9 278.3 124.5C281 130 283.4 133.2 285.7 134.3C286.193 134.562 286.742 134.699 287.3 134.7C287.676 134.701 288.049 134.633 288.4 134.5C288.905 134.288 289.36 133.974 289.739 133.579C290.117 133.183 290.411 132.714 290.6 132.2L290.7 132C291.432 126.636 293.054 121.431 295.5 116.6C296.6 114.5 296.9 113 296.3 111.9C296.135 111.628 295.917 111.39 295.66 111.201C295.402 111.013 295.11 110.876 294.8 110.8C290.8 109.9 283.5 113.6 282.2 114.3C282 114.3 281.9 114.4 281.7 114.4C280.826 114.324 279.957 114.19 279.1 114C279 114 279 113.9 278.9 113.9C278.573 113.573 278.316 113.183 278.144 112.753C277.972 112.323 277.889 111.863 277.9 111.4V111.3C277.73 110.086 277.867 108.848 278.3 107.7C279.1 107.2 281.1 107.3 282.3 107.6C282.502 107.658 282.717 107.65 282.915 107.578C283.112 107.506 283.282 107.374 283.4 107.2C283.522 107.043 283.588 106.85 283.588 106.65C283.588 106.451 283.522 106.258 283.4 106.1C283 105.5 283.9 102.8 285.2 100.3C285.748 99.9359 286.316 99.602 286.9 99.3005H287C288.4 98.4005 289.8 97.5005 291 96.8005C292.7 95.8005 295.6 94.2005 298.7 92.6005C299.7 92.1005 300.8 91.5005 301.8 91.0005C301.878 90.999 301.954 90.9803 302.023 90.9457C302.092 90.9111 302.153 90.8615 302.2 90.8005C305.5 89.0005 308.9 87.2005 311.1 85.7005C311.776 85.2565 312.412 84.7547 313 84.2005L313.1 84.1005C314.068 83.2087 314.879 82.1608 315.5 81.0005C316.488 79.3976 317.198 77.6396 317.6 75.8005C318 75.5005 317.8 75.0005 317.4 74.8005ZM273.5 78.1005C273.8 76.1005 274 74.2005 274.1 73.1005C276.575 72.9748 279.051 73.314 281.4 74.1005C278.381 75.8056 275.592 77.8891 273.1 80.3005C273.291 79.5787 273.424 78.8431 273.5 78.1005ZM267.5 117.3C267.195 116.056 267.028 114.782 267 113.5C267.89 114.76 268.859 115.963 269.9 117.1C269.095 117.054 268.287 117.122 267.5 117.3ZM281.5 105.6C281.1 105.6 280.7 105.5 280.2 105.5H279.8C280.455 104.632 281.192 103.828 282 103.1C281.8 104 281.6 104.8 281.5 105.6ZM290.1 95.2005C288.8 96.0005 287.4 96.9005 286 97.7005C285.4 98.1005 283.9 98.9005 282.6 99.9005L282.4 100C282.349 100.005 282.3 100.027 282.264 100.064C282.227 100.101 282.205 100.149 282.2 100.2C278.9 102.8 275.2 106.8 275.9 111.7C275.911 112.206 275.978 112.709 276.1 113.2C274.708 112.618 273.572 111.553 272.9 110.2C270.4 105.2 275.7 97.2005 275.8 97.1005C275.874 96.9894 275.925 96.8646 275.95 96.7335C275.975 96.6024 275.973 96.4677 275.945 96.3372C275.917 96.2068 275.864 96.0832 275.787 95.9739C275.711 95.8645 275.613 95.7715 275.5 95.7005C275.389 95.6266 275.264 95.5757 275.133 95.5508C275.002 95.5259 274.868 95.5274 274.737 95.5554C274.607 95.5833 274.483 95.6371 274.374 95.7136C274.264 95.79 274.171 95.8875 274.1 96.0005C273.9 96.4005 268.2 105 271.1 111.1C272.3 113.6 274.8 115.2 278.4 116.1C279.463 116.587 280.642 116.761 281.8 116.6H281.9C282.2 116.6 282.4 116.5 282.8 116.5C282.9 116.5 283 116.4 283.1 116.4C285.3 115.2 291.6 112.3 294.4 113H294.5V113.1C294.5 113.2 294.8 113.8 293.7 115.8C291.143 120.813 289.452 126.223 288.7 131.8C288.5 132.1 288.2 132.7 287.7 132.9C287.335 133.011 286.94 132.976 286.6 132.8C284.7 131.9 282.5 128.8 280.1 123.7C280.025 123.55 279.924 123.414 279.8 123.3C279.8 123.3 277.1 121.1 274.7 119.1C274.586 118.977 274.451 118.875 274.3 118.8C274.2 118.7 274.2 118.7 274.1 118.7C273.355 118.084 272.653 117.415 272 116.7C271.877 116.587 271.775 116.451 271.7 116.3C269.564 114.203 267.835 111.728 266.6 109C266.6 108.9 266.5 108.8 266.5 108.7C263.9 102.6 264.6 95.8005 268.5 88.4005C269.115 87.4629 269.783 86.5615 270.5 85.7005C270.872 85.4814 271.181 85.1717 271.4 84.8005C272 84.1005 272.8 83.3005 273.6 82.5005C273.9 82.2005 274.2 82.0005 274.5 81.7005C279.352 77.4855 285.045 74.3496 291.2 72.5005C290 76.2005 288.1 84.3005 291.7 88.7005C292.363 89.502 293.185 90.1562 294.115 90.6211C295.045 91.0861 296.062 91.3516 297.1 91.4005C294.4 92.8005 291.7 94.2005 290.1 95.2005ZM314.1 80.0005C314 80.0005 314 80.1005 314.1 80.0005C313.551 80.9788 312.841 81.8577 312 82.6005C311.478 83.0884 310.908 83.5238 310.3 83.9005C308.1 85.3005 304.8 87.2005 301.4 88.9005C297.7 89.5005 295 88.9005 293.6 87.0005C290.2 82.9005 293.1 73.7005 293.9 71.5005C294 71.5005 294.1 71.4005 294.3 71.4005C295.4 71.1005 296.5 70.9005 297.6 70.7005C298.1 70.6005 298.5 70.6005 299 70.5005H299.4C302.462 70.1604 305.556 70.2277 308.6 70.7005H308.7C309.376 70.7855 310.044 70.9192 310.7 71.1005C308.873 72.6666 307.319 74.5252 306.1 76.6005C306.1 76.627 306.09 76.6524 306.071 76.6712C306.052 76.6899 306.027 76.7005 306 76.7005L304.7 79.8005C304.631 79.9683 304.613 80.1528 304.649 80.3307C304.685 80.5086 304.772 80.6721 304.9 80.8005C305.008 80.9331 305.146 81.0384 305.303 81.1079C305.459 81.1774 305.629 81.2091 305.8 81.2005C309.065 80.6909 312.213 79.6075 315.1 78.0005C314.808 78.6869 314.474 79.3548 314.1 80.0005Z" fill="#054169"/>
<path fill-rule="evenodd" clip-rule="evenodd" d="M232.8 153.5H834V199.6H232.8V153.5Z" fill="#054169"/>
<path fill-rule="evenodd" clip-rule="evenodd" d="M559 81.4997C557.813 81.5683 556.626 81.3601 555.533 80.8915C554.439 80.423 553.47 79.7069 552.7 78.7997C551.537 77.4803 550.106 76.4236 548.502 75.6997C546.899 74.9759 545.16 74.6016 543.4 74.6016C541.641 74.6016 539.902 74.9759 538.299 75.6997C536.695 76.4236 535.264 77.4803 534.1 78.7997C532.935 80.1467 531.35 81.0624 529.6 81.3997C529.237 81.4602 528.869 81.4936 528.5 81.4997H528.4C527.163 81.6256 525.914 81.4452 524.763 80.9743C523.612 80.5035 522.595 79.7566 521.8 78.7997C520.637 77.4803 519.206 76.4236 517.602 75.6997C515.999 74.9759 514.26 74.6016 512.5 74.6016C510.741 74.6016 509.002 74.9759 507.399 75.6997C505.795 76.4236 504.364 77.4803 503.2 78.7997C502.425 79.6991 501.455 80.4098 500.364 80.878C499.273 81.3462 498.09 81.5595 496.904 81.5016C495.718 81.4438 494.561 81.1163 493.521 80.5442C492.48 79.972 491.584 79.1702 490.9 78.1997V80.9997C492.56 82.4873 494.675 83.3685 496.9 83.4997C498.368 83.5991 499.839 83.3523 501.194 82.7791C502.548 82.2059 503.75 81.3223 504.7 80.1997C505.692 79.08 506.907 78.1809 508.268 77.5608C509.629 76.9406 511.105 76.6132 512.6 76.5997C514.098 76.6012 515.578 76.9232 516.94 77.5441C518.303 78.1651 519.517 79.0706 520.5 80.1997C521.416 81.2334 522.539 82.0619 523.797 82.6306C525.056 83.1994 526.42 83.4955 527.8 83.4997H528.6C528.969 83.5006 529.338 83.4672 529.7 83.3997H530C530.447 83.3124 530.882 83.1784 531.3 82.9997C532.935 82.4772 534.39 81.5072 535.5 80.1997C536.492 79.08 537.707 78.1809 539.068 77.5608C540.429 76.9406 541.905 76.6132 543.4 76.5997C544.898 76.6012 546.378 76.9232 547.74 77.5441C549.103 78.1651 550.317 79.0706 551.3 80.1997C552.216 81.2334 553.339 82.0619 554.597 82.6306C555.855 83.1994 557.22 83.4955 558.6 83.4997H559.1L559 81.4997Z" fill="#054169"/>
<path fill-rule="evenodd" clip-rule="evenodd" d="M559 95.9997C557.816 96.0445 556.636 95.8256 555.547 95.3586C554.457 94.8917 553.485 94.1884 552.7 93.2997C551.537 91.9803 550.106 90.9236 548.502 90.1997C546.899 89.4759 545.16 89.1016 543.4 89.1016C541.641 89.1016 539.902 89.4759 538.299 90.1997C536.695 90.9236 535.264 91.9803 534.1 93.2997C532.927 94.6183 531.34 95.4997 529.6 95.7997C529.237 95.8602 528.869 95.8936 528.5 95.8997H528.4C527.173 96.0214 525.934 95.849 524.786 95.3969C523.639 94.9447 522.615 94.2259 521.8 93.2997C520.637 91.9803 519.206 90.9236 517.602 90.1997C515.999 89.4759 514.26 89.1016 512.5 89.1016C510.741 89.1016 509.002 89.4759 507.399 90.1997C505.795 90.9236 504.364 91.9803 503.2 93.2997C502.425 94.1991 501.455 94.9098 500.364 95.378C499.273 95.8462 498.09 96.0595 496.904 96.0016C495.718 95.9438 494.561 95.6163 493.521 95.0442C492.48 94.472 491.584 93.6702 490.9 92.6997V95.4997C492.56 96.9873 494.675 97.8685 496.9 97.9997C498.363 98.0539 499.819 97.7865 501.167 97.2163C502.515 96.6461 503.721 95.787 504.7 94.6997C505.677 93.5624 506.89 92.6512 508.254 92.0295C509.618 91.4079 511.101 91.0906 512.6 91.0997C514.098 91.1012 515.578 91.4232 516.94 92.0441C518.303 92.6651 519.517 93.5706 520.5 94.6997C521.416 95.7334 522.539 96.5619 523.797 97.1306C525.056 97.6994 526.42 97.9955 527.8 97.9997H528.6C528.969 98.0006 529.338 97.9672 529.7 97.8997H530C530.447 97.8124 530.882 97.6784 531.3 97.4997C532.922 96.9521 534.371 95.9863 535.5 94.6997C536.477 93.5624 537.69 92.6512 539.054 92.0295C540.418 91.4079 541.901 91.0906 543.4 91.0997C544.898 91.1012 546.378 91.4232 547.74 92.0441C549.103 92.6651 550.317 93.5706 551.3 94.6997C552.216 95.7334 553.339 96.5619 554.597 97.1306C555.855 97.6994 557.22 97.9955 558.6 97.9997H559.1L559 95.9997Z" fill="#054169"/>
<path fill-rule="evenodd" clip-rule="evenodd" d="M559 110.4C557.816 110.445 556.636 110.226 555.547 109.759C554.457 109.292 553.485 108.589 552.7 107.7C551.537 106.381 550.106 105.324 548.502 104.6C546.899 103.876 545.16 103.502 543.4 103.502C541.641 103.502 539.902 103.876 538.299 104.6C536.695 105.324 535.264 106.381 534.1 107.7C532.927 109.019 531.34 109.9 529.6 110.2C529.237 110.261 528.869 110.294 528.5 110.3H528.4C527.171 110.445 525.925 110.283 524.774 109.83C523.622 109.376 522.601 108.644 521.8 107.7C520.637 106.381 519.206 105.324 517.602 104.6C515.999 103.876 514.26 103.502 512.5 103.502C510.741 103.502 509.002 103.876 507.399 104.6C505.795 105.324 504.364 106.381 503.2 107.7C502.416 108.589 501.444 109.292 500.354 109.759C499.265 110.226 498.085 110.445 496.9 110.4C495.706 110.332 494.544 109.99 493.504 109.4C492.463 108.811 491.572 107.989 490.9 107V109.8C492.56 111.288 494.675 112.169 496.9 112.3C498.366 112.377 499.829 112.12 501.18 111.548C502.532 110.977 503.735 110.105 504.7 109C505.677 107.863 506.89 106.952 508.254 106.33C509.618 105.708 511.101 105.391 512.6 105.4C514.098 105.402 515.578 105.724 516.94 106.345C518.303 106.965 519.517 107.871 520.5 109C521.416 110.034 522.539 110.862 523.797 111.431C525.056 112 526.42 112.296 527.8 112.3H528.6C528.969 112.301 529.338 112.268 529.7 112.2H530L531.3 111.9C532.935 111.378 534.39 110.408 535.5 109.1C536.477 107.963 537.69 107.052 539.054 106.43C540.418 105.808 541.901 105.491 543.4 105.5C544.898 105.502 546.378 105.824 547.74 106.445C549.103 107.065 550.317 107.971 551.3 109.1C552.216 110.134 553.339 110.962 554.597 111.531C555.855 112.1 557.22 112.396 558.6 112.4H559.1L559 110.4Z" fill="#054169"/>
<path fill-rule="evenodd" clip-rule="evenodd" d="M559 124.9C557.813 124.969 556.626 124.76 555.533 124.292C554.439 123.823 553.47 123.107 552.7 122.2C551.537 120.881 550.106 119.824 548.502 119.1C546.899 118.376 545.16 118.002 543.4 118.002C541.641 118.002 539.902 118.376 538.299 119.1C536.695 119.824 535.264 120.881 534.1 122.2C532.935 123.547 531.35 124.463 529.6 124.8C529.237 124.861 528.869 124.894 528.5 124.9H528.4C527.163 125.026 525.914 124.846 524.763 124.375C523.612 123.904 522.595 123.157 521.8 122.2C520.637 120.881 519.206 119.824 517.602 119.1C515.999 118.376 514.26 118.002 512.5 118.002C510.741 118.002 509.002 118.376 507.399 119.1C505.795 119.824 504.364 120.881 503.2 122.2C502.425 123.099 501.455 123.81 500.364 124.278C499.273 124.747 498.09 124.96 496.904 124.902C495.718 124.844 494.561 124.517 493.521 123.945C492.48 123.372 491.584 122.571 490.9 121.6V124.4C492.56 125.888 494.675 126.769 496.9 126.9C498.368 127 499.839 126.753 501.194 126.179C502.548 125.606 503.75 124.723 504.7 123.6C505.692 122.48 506.907 121.581 508.268 120.961C509.629 120.341 511.105 120.014 512.6 120C514.098 120.002 515.578 120.324 516.94 120.945C518.303 121.565 519.517 122.471 520.5 123.6C521.416 124.634 522.539 125.462 523.797 126.031C525.056 126.6 526.42 126.896 527.8 126.9H528.6C528.969 126.901 529.338 126.868 529.7 126.8H530C530.447 126.713 530.882 126.579 531.3 126.4C532.935 125.878 534.39 124.908 535.5 123.6C536.492 122.48 537.707 121.581 539.068 120.961C540.429 120.341 541.905 120.014 543.4 120C544.898 120.002 546.378 120.324 547.74 120.945C549.103 121.565 550.317 122.471 551.3 123.6C552.216 124.634 553.339 125.462 554.597 126.031C555.855 126.6 557.22 126.896 558.6 126.9H559.1L559 124.9Z" fill="#054169"/>
<path d="M30.7002 5V198.4" stroke="#9DDEFA" stroke-linejoin="round"/>
<path d="M61.5 5V198.4" stroke="#9DDEFA" stroke-linejoin="round"/>
<path d="M92.4004 5V198.4" stroke="#9DDEFA" stroke-linejoin="round"/>
<path d="M123.2 5V198.4" stroke="#9DDEFA" stroke-linejoin="round"/>
<path d="M154.1 5V198.4" stroke="#9DDEFA" stroke-linejoin="round"/>
<path d="M1 176.5H215.8" stroke="#9DDEFA" stroke-linejoin="round"/>
<path d="M1 146.2H215.8" stroke="#9DDEFA" stroke-linejoin="round"/>
<path d="M1 115.8H215.8" stroke="#9DDEFA" stroke-linejoin="round"/>
<path d="M1 85.4004H215.8" stroke="#9DDEFA" stroke-linejoin="round"/>
<path d="M1 55H215.8" stroke="#9DDEFA" stroke-linejoin="round"/>
<path d="M1 24.5996H215.8" stroke="#9DDEFA" stroke-linejoin="round"/>
<path d="M1 48.9004C11.3 53.3004 45.5 63.1004 62.7 75.1004C79.9 87.1004 89 113.2 104.2 121C119.4 128.8 135.6 131 154 122.1C172.4 113.2 204.4 76.6004 214.5 67.5004" stroke="#054169" stroke-width="4" stroke-linejoin="round"/>
<path d="M2.2002 2H215.8V199.5H2.2002V2Z" stroke="#054169" stroke-width="4" stroke-linejoin="round"/>
<path d="M657.2 93.2805H656.7V101.38H647.1V93.2805H639V83.5805H647.1V75.4805H656.7V83.5805H664.8V93.1805H657.2V93.2805ZM639.7 92.0005V92.5005H647.8V100.6H656V92.5005H664.2V84.4005H656.1V76.2005H647.9V84.3005H639.7V92.0005V92.0005Z" stroke="#054169" stroke-miterlimit="10"/>
<path d="M639.29 116.26L654.94 119.26C656.463 118.693 657.892 117.901 659.18 116.91C659.89 114.82 656.96 112.48 655.27 111.56C653.58 110.64 636.16 106.35 634.27 106.08C632.38 105.81 630.13 107.32 630.13 107.32M626.19 122.72C626.19 122.72 646.11 130.45 652.19 129.43C658.28 127.28 676.19 119.26 676.19 119.26C676.19 119.26 676.55 113.88 669.19 114.69C664.247 115.958 659.374 117.483 654.59 119.26M616.53 101.93C616.53 101.93 626.53 101.49 630.81 104.28C630.42 106.74 625.72 124.48 625.72 124.48H616.53V101.93Z" stroke="#054169" stroke-width="2" stroke-miterlimit="10"/>
<path d="M41.2998 176.3V174.9L52.3998 160.4H42.2998V159H54.3998V160.4L43.2998 174.9H54.3998V176.3H41.2998Z" fill="#054169"/>
<path d="M61.8995 176.599C61.1508 176.572 60.4098 176.438 59.6995 176.199C59.0281 175.919 58.4169 175.511 57.8995 174.999C57.3638 174.424 56.955 173.743 56.6995 172.999C56.3627 172.07 56.1934 171.088 56.1995 170.099C56.1778 169.216 56.3132 168.335 56.5995 167.499C56.8026 166.725 57.1787 166.007 57.6995 165.399C58.1808 164.797 58.7976 164.318 59.4995 163.999C60.2921 163.671 61.1415 163.501 61.9995 163.499C62.8585 163.49 63.71 163.661 64.4995 163.999C65.2015 164.318 65.8182 164.797 66.2995 165.399C66.7829 166.032 67.1549 166.742 67.3995 167.499C67.6036 168.351 67.7043 169.224 67.6995 170.099C67.7289 171.016 67.5934 171.931 67.2995 172.799C67.021 173.562 66.6152 174.272 66.0995 174.899C65.6138 175.472 64.9961 175.918 64.2995 176.199C63.5349 176.494 62.7184 176.63 61.8995 176.599ZM66.1995 170.099C66.1825 169.396 66.1157 168.694 65.9995 167.999C65.8272 167.409 65.5926 166.84 65.2995 166.299C64.964 165.831 64.5173 165.453 63.9995 165.199C63.4114 164.904 62.7568 164.766 62.0995 164.799C61.4414 164.755 60.7839 164.894 60.1995 165.199C59.6765 165.49 59.2306 165.901 58.8995 166.399C58.548 166.91 58.3094 167.489 58.1995 168.099C58.0292 168.752 57.9618 169.426 57.9995 170.099C57.9865 170.811 58.0878 171.52 58.2995 172.199C58.5052 172.793 58.7734 173.363 59.0995 173.899C59.4351 174.368 59.8818 174.746 60.3995 174.999C60.9516 175.295 61.5742 175.433 62.1995 175.399C62.8576 175.444 63.5151 175.305 64.0995 174.999C64.6226 174.709 65.0684 174.298 65.3995 173.799C65.7341 173.28 65.9713 172.704 66.0995 172.099C66.0995 171.399 66.1995 170.799 66.1995 170.099Z" fill="#054169"/>
<path d="M71.7994 176.3H70.3994V163.9H71.7994V165.6C72.3487 165.042 72.9516 164.539 73.5994 164.1C74.259 163.69 75.0234 163.482 75.7994 163.5C76.521 163.468 77.2401 163.605 77.8994 163.9C78.5922 164.188 79.1838 164.675 79.5994 165.3C79.9107 165.701 80.0858 166.192 80.0994 166.7C80.1824 167.195 80.2159 167.698 80.1994 168.2V176.3H78.7994V168.2C78.8891 167.308 78.6391 166.415 78.0994 165.7C77.7706 165.386 77.3747 165.15 76.9416 165.012C76.5084 164.873 76.0495 164.835 75.5994 164.9C75.192 164.909 74.7879 164.976 74.3994 165.1C74.0473 165.226 73.7115 165.394 73.3994 165.6C73.1081 165.841 72.8403 166.108 72.5994 166.4C72.3571 166.651 72.1847 166.961 72.0994 167.3L71.7994 168.5V176.3Z" fill="#054169"/>
<path d="M84.6001 170.399C84.594 171.045 84.6954 171.687 84.9001 172.299C85.0644 172.878 85.3358 173.421 85.7001 173.899C86.0633 174.342 86.5038 174.714 87.0001 174.999C87.5522 175.295 88.1748 175.433 88.8001 175.399C89.6563 175.444 90.5023 175.197 91.2001 174.699C91.8874 174.193 92.353 173.441 92.5001 172.599H94.1001C93.9279 173.157 93.6931 173.694 93.4001 174.199C93.1197 174.699 92.7464 175.14 92.3001 175.499C91.862 175.892 91.3529 176.198 90.8001 176.399C90.1207 176.611 89.4117 176.712 88.7001 176.699C87.8097 176.698 86.9276 176.528 86.1001 176.199C85.3982 175.881 84.7814 175.401 84.3001 174.799C83.8101 174.185 83.4679 173.467 83.3001 172.699C83.0902 171.849 82.9894 170.975 83.0001 170.099C82.9703 169.215 83.106 168.334 83.4001 167.499C83.6447 166.742 84.0167 166.032 84.5001 165.399C84.9814 164.797 85.5982 164.318 86.3001 163.999C87.0572 163.669 87.8742 163.499 88.7001 163.499C89.4622 163.457 90.2233 163.599 90.9193 163.912C91.6153 164.226 92.226 164.701 92.7001 165.299C93.795 166.761 94.2953 168.583 94.1001 170.399H84.6001ZM92.7001 169.199C92.7066 168.619 92.6049 168.042 92.4001 167.499C92.2278 167.005 91.9925 166.534 91.7001 166.099C91.392 165.693 90.9763 165.381 90.5001 165.199C89.957 164.995 89.3805 164.893 88.8001 164.899C88.2078 164.877 87.6204 165.015 87.1001 165.299C86.6173 165.518 86.2026 165.864 85.9001 166.299C85.5753 166.73 85.3065 167.201 85.1001 167.699C84.9086 168.251 84.7745 168.82 84.7001 169.399H92.7001V169.199Z" fill="#054169"/>
<path d="M113.3 159H114.7V176.3H113.3V174.1C112.882 174.918 112.217 175.582 111.4 176C111.018 176.209 110.616 176.376 110.2 176.5C109.809 176.615 109.406 176.682 109 176.7C108.108 176.708 107.224 176.538 106.4 176.2C105.71 175.906 105.12 175.42 104.7 174.8C104.248 174.163 103.91 173.452 103.7 172.7C103.496 171.849 103.395 170.976 103.4 170.1C103.395 169.257 103.495 168.418 103.7 167.6C103.91 166.848 104.248 166.137 104.7 165.5C105.144 164.902 105.727 164.421 106.4 164.1C107.174 163.714 108.037 163.542 108.9 163.6C109.769 163.597 110.626 163.802 111.4 164.2C112.164 164.6 112.817 165.184 113.3 165.9V159ZM113.3 170C113.305 169.322 113.204 168.647 113 168C112.794 167.407 112.526 166.837 112.2 166.3C111.864 165.831 111.417 165.453 110.9 165.2C110.348 164.904 109.725 164.766 109.1 164.8C108.441 164.756 107.784 164.894 107.2 165.2C106.677 165.49 106.231 165.902 105.9 166.4C105.515 166.94 105.243 167.552 105.1 168.2C104.929 168.92 104.862 169.661 104.9 170.4C104.887 171.112 104.988 171.821 105.2 172.5C105.378 173.064 105.686 173.577 106.1 174C106.465 174.388 106.908 174.694 107.4 174.9C107.943 175.105 108.519 175.207 109.1 175.2C109.725 175.234 110.348 175.096 110.9 174.8C111.417 174.547 111.864 174.169 112.2 173.7C112.584 173.196 112.856 172.617 113 172C113.22 171.357 113.321 170.679 113.3 170Z" fill="#054169"/>
<path d="M120.3 161.9C120.318 162.505 120.142 163.101 119.8 163.6C119.473 164.031 119.018 164.346 118.5 164.5V163.6C118.724 163.464 118.926 163.295 119.1 163.1C119.331 162.782 119.438 162.391 119.4 162V161.2H118.6V159H120.4V161.9H120.3Z" fill="#054169"/>
<path d="M124.6 170.399C124.594 171.045 124.695 171.687 124.9 172.299C125.064 172.878 125.336 173.421 125.7 173.899C126.063 174.342 126.504 174.714 127 174.999C127.552 175.295 128.175 175.433 128.8 175.399C129.656 175.444 130.502 175.197 131.2 174.699C131.887 174.192 132.353 173.44 132.5 172.599H134.1C133.928 173.157 133.693 173.694 133.4 174.199C133.12 174.699 132.746 175.14 132.3 175.499C131.862 175.892 131.353 176.197 130.8 176.399C130.121 176.611 129.412 176.712 128.7 176.699C127.81 176.698 126.928 176.528 126.1 176.199C125.398 175.881 124.781 175.401 124.3 174.799C123.81 174.185 123.468 173.467 123.3 172.699C123.09 171.849 122.989 170.975 123 170.099C122.97 169.215 123.106 168.333 123.4 167.499C123.645 166.742 124.017 166.032 124.5 165.399C124.981 164.797 125.598 164.318 126.3 163.999C127.057 163.669 127.874 163.499 128.7 163.499C129.462 163.457 130.223 163.599 130.919 163.912C131.615 164.225 132.226 164.701 132.7 165.299C133.795 166.761 134.295 168.583 134.1 170.399H124.6ZM132.7 169.199C132.707 168.619 132.605 168.042 132.4 167.499C132.228 167.004 131.993 166.534 131.7 166.099C131.392 165.693 130.976 165.381 130.5 165.199C129.957 164.994 129.381 164.893 128.8 164.899C128.208 164.877 127.62 165.015 127.1 165.299C126.617 165.518 126.203 165.864 125.9 166.299C125.575 166.73 125.307 167.201 125.1 167.699C124.909 168.251 124.775 168.82 124.7 169.399H132.7V169.199ZM127.3 162.499L130 159.199H131.8L128.5 162.499H127.3Z" fill="#054169"/>
<path d="M141.4 176.299C141.158 176.332 140.923 176.399 140.7 176.499C140.375 176.587 140.037 176.621 139.7 176.599C139.124 176.635 138.554 176.457 138.1 176.099C137.677 175.559 137.464 174.884 137.5 174.199V165.099H135.7V163.899H137.5V160.399H138.9V163.899H141.2V165.099H139V174.399C139 174.599 139.1 174.799 139.1 174.999C139.214 175.123 139.35 175.225 139.5 175.299C139.722 175.389 139.962 175.423 140.2 175.399H140.8C141 175.399 141.2 175.299 141.4 175.299V176.299Z" fill="#054169"/>
<path d="M152.1 163.899H153.5V176.299H152.1V174.599C151.9 174.799 151.7 175.099 151.5 175.299C151.256 175.557 150.988 175.791 150.7 175.999C150.363 176.225 149.992 176.394 149.6 176.499C149.143 176.622 148.673 176.689 148.2 176.699C147.488 176.712 146.779 176.611 146.1 176.399C145.559 176.184 145.079 175.841 144.7 175.399C144.349 174.963 144.109 174.448 144 173.899C143.835 173.314 143.767 172.706 143.8 172.099V163.899H145.2V172.099C145.126 172.99 145.375 173.877 145.9 174.599C146.209 174.917 146.584 175.163 146.999 175.319C147.414 175.474 147.858 175.536 148.3 175.499C148.848 175.506 149.392 175.404 149.9 175.199C150.383 174.98 150.797 174.635 151.1 174.199C151.451 173.763 151.691 173.248 151.8 172.699C152.005 172.087 152.106 171.445 152.1 170.799V163.899Z" fill="#054169"/>
<path d="M166.599 159H167.999V176.3H166.599V174.1C166.182 174.918 165.517 175.582 164.699 176C164.318 176.209 163.916 176.376 163.499 176.5C163.109 176.615 162.706 176.682 162.299 176.7C161.408 176.708 160.524 176.538 159.699 176.2C159.01 175.906 158.42 175.42 157.999 174.8C157.548 174.163 157.21 173.452 156.999 172.7C156.795 171.849 156.695 170.976 156.699 170.1C156.694 169.257 156.795 168.418 156.999 167.6C157.21 166.848 157.548 166.137 157.999 165.5C158.443 164.902 159.027 164.421 159.699 164.1C160.474 163.714 161.336 163.542 162.199 163.6C163.069 163.597 163.926 163.802 164.699 164.2C165.464 164.6 166.117 165.184 166.599 165.9V159ZM166.599 170C166.605 169.322 166.504 168.647 166.299 168C166.094 167.407 165.826 166.837 165.499 166.3C165.164 165.831 164.717 165.453 164.199 165.2C163.647 164.904 163.025 164.766 162.399 164.8C161.741 164.756 161.084 164.894 160.499 165.2C159.976 165.49 159.531 165.902 159.199 166.4C158.815 166.94 158.543 167.552 158.399 168.2C158.229 168.92 158.162 169.661 158.199 170.4C158.186 171.112 158.288 171.821 158.499 172.5C158.678 173.064 158.986 173.577 159.399 174C159.765 174.388 160.208 174.694 160.699 174.9C161.242 175.105 161.819 175.207 162.399 175.2C163.025 175.234 163.647 175.096 164.199 174.8C164.717 174.547 165.164 174.169 165.499 173.7C165.883 173.196 166.156 172.617 166.299 172C166.569 171.37 166.672 170.681 166.599 170Z" fill="#054169"/>
<path d="M172.6 170.399C172.594 171.045 172.695 171.687 172.9 172.299C173.064 172.878 173.336 173.421 173.7 173.899C174.063 174.342 174.504 174.714 175 174.999C175.552 175.295 176.175 175.433 176.8 175.399C177.656 175.444 178.502 175.197 179.2 174.699C179.887 174.193 180.353 173.441 180.5 172.599H182.1C181.928 173.157 181.693 173.694 181.4 174.199C181.12 174.699 180.746 175.14 180.3 175.499C179.862 175.892 179.353 176.198 178.8 176.399C178.121 176.611 177.412 176.712 176.7 176.699C175.81 176.698 174.928 176.528 174.1 176.199C173.398 175.881 172.781 175.401 172.3 174.799C171.81 174.185 171.468 173.467 171.3 172.699C171.09 171.849 170.989 170.975 171 170.099C170.97 169.215 171.106 168.334 171.4 167.499C171.645 166.742 172.017 166.032 172.5 165.399C172.981 164.797 173.598 164.318 174.3 163.999C175.057 163.669 175.874 163.499 176.7 163.499C177.462 163.457 178.223 163.599 178.919 163.912C179.615 164.226 180.226 164.701 180.7 165.299C181.795 166.761 182.295 168.583 182.1 170.399H172.6ZM180.7 169.199C180.707 168.619 180.605 168.042 180.4 167.499C180.228 167.005 179.993 166.534 179.7 166.099C179.392 165.693 178.976 165.381 178.5 165.199C177.957 164.995 177.381 164.893 176.8 164.899C176.208 164.877 175.62 165.015 175.1 165.299C174.617 165.518 174.203 165.864 173.9 166.299C173.575 166.73 173.307 167.201 173.1 167.699C172.909 168.251 172.775 168.82 172.7 169.399H180.7V169.199Z" fill="#054169"/>
<path d="M514 35.7V15.5H527.4V17.1H515.9V24.4H526.3V26H515.9V34H527.7V35.6H514V35.7Z" fill="white"/>
<path d="M529.399 22.5996V21.1996H531.599V18.8996C531.514 17.9458 531.762 16.9919 532.299 16.1996C532.599 15.8636 532.97 15.5992 533.385 15.4261C533.801 15.253 534.25 15.1756 534.699 15.1996H535.399C535.637 15.1911 535.874 15.2249 536.099 15.2996V16.7996C535.772 16.7215 535.436 16.6879 535.099 16.6996C534.756 16.6971 534.416 16.7652 534.099 16.8996C533.904 17.0738 533.735 17.276 533.599 17.4996C533.485 17.7871 533.418 18.0909 533.399 18.3996V21.1996H536.199V22.5996H533.399V35.6996H531.699V22.5996H529.399Z" fill="white"/>
<path d="M536.6 22.5996V21.1996H538.8V18.8996C538.714 17.9458 538.962 16.9919 539.5 16.1996C539.799 15.8636 540.17 15.5992 540.586 15.4261C541.001 15.253 541.45 15.1756 541.9 15.1996H542.6C542.837 15.1911 543.074 15.2249 543.3 15.2996V16.7996C542.972 16.7215 542.636 16.6879 542.3 16.6996C541.956 16.6971 541.616 16.7652 541.3 16.8996C541.104 17.0738 540.936 17.276 540.8 17.4996C540.686 17.7871 540.618 18.0909 540.6 18.3996V21.1996H543.4V22.5996H540.6V35.6996H538.9V22.5996H536.6Z" fill="white"/>
<path d="M546.9 28.7996C546.895 29.5434 546.996 30.2843 547.2 30.9996C547.377 31.6536 547.683 32.2656 548.1 32.7996C548.506 33.3045 549.018 33.7141 549.6 33.9996C550.251 34.3287 550.971 34.4999 551.7 34.4996C552.708 34.524 553.695 34.2068 554.5 33.5996C555.308 32.9778 555.874 32.0937 556.1 31.0996H558C557.795 31.7569 557.527 32.3931 557.2 32.9996C556.878 33.5862 556.435 34.0976 555.9 34.4996C555.372 34.9487 554.76 35.2886 554.1 35.4996C553.323 35.746 552.515 35.8806 551.7 35.8996C550.667 35.9343 549.64 35.7289 548.7 35.2996C547.898 34.915 547.184 34.3705 546.6 33.6996C546.083 32.964 545.678 32.155 545.4 31.2996C544.833 29.3345 544.868 27.2446 545.5 25.2996C545.771 24.3911 546.212 23.5426 546.8 22.7996C547.38 22.0989 548.094 21.521 548.9 21.0996C549.776 20.6903 550.734 20.4852 551.7 20.4996C552.594 20.454 553.485 20.6204 554.302 20.9854C555.119 21.3504 555.838 21.9035 556.4 22.5996C557.625 24.352 558.223 26.4654 558.1 28.5996H546.9V28.7996ZM556.4 27.3996C556.406 26.7213 556.305 26.0463 556.1 25.3996C555.923 24.806 555.615 24.2594 555.2 23.7996C554.805 23.3498 554.331 22.9769 553.8 22.6996C553.176 22.4043 552.49 22.2669 551.8 22.2996C551.112 22.2773 550.427 22.4142 549.8 22.6996C549.245 22.9836 548.738 23.355 548.3 23.7996C547.91 24.2948 547.574 24.8313 547.3 25.3996C547.075 26.0502 546.908 26.7195 546.8 27.3996H556.4Z" fill="white"/>
<path d="M566.6 35.7992C566.325 35.8298 566.056 35.8971 565.8 35.9992C565.44 36.0867 565.069 36.1204 564.7 36.0992C564.013 36.1477 563.334 35.9332 562.8 35.4992C562.285 34.8478 562.035 34.0266 562.1 33.1992V22.5992H560.1V21.1992H562.1V17.1992H563.8V21.1992H566.5V22.5992H563.8V33.3992C563.787 33.6175 563.858 33.8324 564 33.9992C564.078 34.1779 564.221 34.3206 564.4 34.3992C564.657 34.4865 564.929 34.5205 565.2 34.4992C565.437 34.5153 565.676 34.4812 565.9 34.3992C566.123 34.3172 566.362 34.2831 566.6 34.2992V35.7992Z" fill="white"/>
<path d="M570.2 31.1999C570.318 32.2134 570.819 33.1435 571.6 33.7999C572.462 34.3579 573.474 34.6372 574.5 34.5999C575.039 34.5889 575.575 34.5219 576.1 34.3999C576.514 34.3017 576.894 34.0945 577.2 33.7999C577.487 33.5456 577.724 33.2405 577.9 32.8999C578.014 32.5779 578.082 32.2411 578.1 31.8999C578.123 31.5963 578.072 31.2916 577.949 31.0126C577.827 30.7336 577.639 30.4889 577.4 30.2999C576.874 29.9548 576.301 29.6855 575.7 29.4999C574.981 29.2751 574.245 29.1079 573.5 28.9999C572.752 28.8595 572.016 28.6588 571.3 28.3999C570.644 28.1437 570.061 27.7318 569.6 27.1999C569.089 26.5856 568.838 25.7964 568.9 24.9999C568.88 24.4346 568.986 23.8719 569.211 23.3529C569.436 22.8339 569.774 22.3717 570.2 21.9999C571.268 21.131 572.627 20.7018 574 20.7999C575.335 20.7696 576.652 21.1162 577.8 21.7999C578.331 22.2221 578.767 22.7526 579.077 23.356C579.387 23.9595 579.566 24.6222 579.6 25.2999H577.9C577.853 24.8337 577.714 24.3815 577.491 23.9696C577.267 23.5576 576.965 23.194 576.6 22.8999C575.827 22.4012 574.918 22.1565 574 22.1999C573.139 22.1083 572.277 22.3599 571.6 22.8999C571.334 23.1155 571.123 23.391 570.984 23.7039C570.845 24.0167 570.782 24.358 570.8 24.6999C570.767 24.9902 570.814 25.2841 570.938 25.5489C571.061 25.8137 571.256 26.0391 571.5 26.1999C572.026 26.545 572.599 26.8143 573.2 26.9999C573.9 27.1999 574.6 27.3999 575.4 27.5999C576.151 27.773 576.887 28.0071 577.6 28.2999C578.256 28.5561 578.839 28.9679 579.3 29.4999C579.811 30.1142 580.062 30.9034 580 31.6999C580.034 32.3252 579.896 32.9478 579.6 33.4999C579.31 34.023 578.898 34.4688 578.4 34.7999C577.833 35.2027 577.184 35.4758 576.5 35.5999C575.717 35.8042 574.91 35.905 574.1 35.8999C573.314 35.9308 572.53 35.7945 571.8 35.4999C571.164 35.253 570.586 34.8787 570.1 34.3999C569.623 33.9515 569.248 33.4059 569 32.7999C568.715 32.2082 568.578 31.5563 568.6 30.8999H570.2V31.1999Z" fill="white"/>
<path d="M445.5 173.899C445.249 172.436 444.465 171.118 443.3 170.199C442.034 169.437 440.576 169.055 439.1 169.099C438.022 169.046 436.95 169.288 436 169.799C435.11 170.271 434.354 170.959 433.8 171.799C433.226 172.661 432.788 173.605 432.5 174.599C432.213 175.709 432.079 176.853 432.1 177.999C432.1 179.106 432.201 180.211 432.4 181.299C432.589 182.34 432.998 183.329 433.6 184.199C434.179 185.045 434.928 185.76 435.8 186.299C436.849 186.844 438.018 187.119 439.2 187.099C440.018 187.121 440.833 186.986 441.6 186.699C442.289 186.396 442.929 185.991 443.5 185.499C444.042 184.986 444.483 184.376 444.8 183.699C445.169 183.008 445.439 182.267 445.6 181.499H447.6C447.372 182.467 447.037 183.406 446.6 184.299C446.183 185.166 445.606 185.946 444.9 186.599C444.187 187.301 443.336 187.846 442.4 188.199C441.281 188.617 440.094 188.821 438.9 188.799C437.513 188.833 436.139 188.524 434.9 187.899C433.83 187.358 432.904 186.57 432.2 185.599C431.482 184.575 430.972 183.42 430.7 182.199C430.374 180.857 430.206 179.481 430.2 178.099C430.143 176.437 430.38 174.779 430.9 173.199C431.324 171.969 432.006 170.844 432.9 169.899C433.707 169.025 434.748 168.4 435.9 168.099C437.09 167.689 438.341 167.486 439.6 167.499C440.582 167.478 441.56 167.613 442.5 167.899C443.355 168.177 444.164 168.582 444.9 169.099C445.593 169.647 446.171 170.327 446.6 171.099C447.033 171.984 447.336 172.927 447.5 173.899H445.5Z" fill="white"/>
<path d="M456.9 188.6C456.01 188.588 455.13 188.419 454.3 188.1C453.508 187.787 452.792 187.31 452.2 186.7C451.541 186.029 451.06 185.204 450.8 184.3C450.472 183.23 450.304 182.118 450.3 181C450.271 179.985 450.406 178.972 450.7 178C450.971 177.122 451.413 176.307 452 175.6C452.615 174.882 453.384 174.312 454.25 173.932C455.115 173.551 456.055 173.369 457 173.4C458.031 173.386 459.053 173.59 460 174C460.817 174.358 461.537 174.907 462.1 175.6C462.693 176.287 463.106 177.112 463.3 178C463.593 178.972 463.728 179.985 463.7 181C463.704 182.054 463.535 183.101 463.2 184.1C462.893 184.983 462.417 185.798 461.8 186.5C461.216 187.171 460.501 187.715 459.7 188.1C458.8 188.419 457.854 188.588 456.9 188.6ZM461.8 180.9C461.811 180.09 461.71 179.282 461.5 178.5C461.323 177.815 461.017 177.17 460.6 176.6C460.226 176.039 459.708 175.59 459.1 175.3C458.381 174.96 457.594 174.789 456.8 174.8C456.006 174.8 455.222 174.971 454.5 175.3C453.886 175.628 453.369 176.111 453 176.7C452.581 177.307 452.276 177.984 452.1 178.7C451.895 179.449 451.794 180.223 451.8 181C451.795 181.842 451.895 182.682 452.1 183.5C452.255 184.192 452.563 184.841 453 185.4C453.402 185.935 453.913 186.378 454.5 186.7C455.159 186.995 455.878 187.132 456.6 187.1C457.393 187.099 458.177 186.929 458.9 186.6C459.513 186.272 460.03 185.789 460.4 185.2C460.818 184.593 461.123 183.915 461.3 183.2C461.665 182.49 461.837 181.697 461.8 180.9Z" fill="white"/>
<path d="M468.4 188.2H466.7V173.7H468.4V175.7C469.024 175.045 469.73 174.473 470.5 174C471.292 173.546 472.188 173.305 473.1 173.3C473.957 173.312 474.804 173.482 475.6 173.8C476.4 174.097 477.071 174.662 477.5 175.4C477.871 175.853 478.082 176.415 478.1 177C478.183 177.562 478.217 178.131 478.2 178.7V188.2H476.5V178.7C476.593 177.652 476.27 176.611 475.6 175.8C475.224 175.425 474.767 175.14 474.265 174.967C473.763 174.794 473.228 174.737 472.7 174.8C472.227 174.81 471.757 174.877 471.3 175L470.1 175.6C469.7 175.8 469.5 176.2 469.2 176.5C468.979 176.855 468.779 177.222 468.6 177.6C468.417 178.009 468.315 178.451 468.3 178.9C468.3 179.3 468.2 179.8 468.2 180.3V188.2H468.4Z" fill="white"/>
<path d="M493.5 168H495.2V188.2H493.5V185.7H493.4C493.159 186.171 492.856 186.608 492.5 187C492.134 187.388 491.692 187.694 491.2 187.9C490.7 188.1 490.3 188.3 489.8 188.5C489.34 188.609 488.872 188.676 488.4 188.7C487.367 188.735 486.34 188.529 485.4 188.1C484.612 187.74 483.925 187.19 483.4 186.5C482.882 185.764 482.478 184.955 482.2 184.1C481.956 183.118 481.821 182.112 481.8 181.1C481.779 180.118 481.914 179.139 482.2 178.2C482.478 177.313 482.882 176.471 483.4 175.7C483.92 174.98 484.606 174.397 485.4 174C486.331 173.586 487.342 173.381 488.361 173.398C489.38 173.415 490.383 173.655 491.3 174.1C492.209 174.544 492.972 175.238 493.5 176.1V168ZM493.5 180.9C493.505 180.123 493.404 179.349 493.2 178.6C493.031 177.893 492.687 177.24 492.2 176.7C491.798 176.165 491.287 175.722 490.7 175.4C490.049 175.071 489.33 174.9 488.6 174.9C487.807 174.901 487.022 175.071 486.3 175.4C485.657 175.725 485.107 176.206 484.7 176.8C484.282 177.443 483.977 178.153 483.8 178.9C483.577 179.747 483.509 180.628 483.6 181.5C483.57 182.319 483.706 183.135 484 183.9C484.251 184.542 484.587 185.148 485 185.7C485.421 186.208 485.975 186.589 486.6 186.8C487.227 187.085 487.912 187.222 488.6 187.2C489.33 187.2 490.049 187.029 490.7 186.7C491.287 186.378 491.798 185.935 492.2 185.4C492.618 184.793 492.923 184.115 493.1 183.4C493.338 182.587 493.473 181.747 493.5 180.9Z" fill="white"/>
<path d="M499.5 170.5V168H501.3V170.5H499.5ZM499.6 188.2V173.7H501.3V188.2H499.6Z" fill="white"/>
<path d="M510.7 188.299C510.426 188.33 510.157 188.397 509.9 188.499C509.54 188.587 509.17 188.62 508.8 188.599C508.114 188.648 507.434 188.433 506.9 187.999C506.386 187.348 506.136 186.527 506.2 185.699V175.099H504.2V173.699H506.2V169.699H507.9V173.699H510.6V175.099H507.9V185.899C507.887 186.117 507.959 186.332 508.1 186.499C508.179 186.678 508.321 186.821 508.5 186.899C508.757 186.987 509.029 187.021 509.3 186.999C509.538 187.015 509.776 186.981 510 186.899C510.2 186.899 510.5 186.799 510.7 186.799V188.299Z" fill="white"/>
<path d="M513.5 170.5V168H515.3V170.5H513.5ZM513.6 188.2V173.7H515.3V188.2H513.6Z" fill="white"/>
<path d="M525.4 188.6C524.51 188.588 523.63 188.419 522.8 188.1C522.008 187.787 521.292 187.31 520.7 186.7C520.041 186.029 519.56 185.204 519.3 184.3C518.972 183.23 518.804 182.118 518.8 181C518.771 179.985 518.906 178.972 519.2 178C519.471 177.122 519.913 176.307 520.5 175.6C521.115 174.882 521.884 174.312 522.75 173.932C523.615 173.551 524.555 173.369 525.5 173.4C526.531 173.386 527.553 173.59 528.5 174C529.317 174.358 530.037 174.907 530.6 175.6C531.193 176.287 531.606 177.112 531.8 178C532.093 178.972 532.228 179.985 532.2 181C532.204 182.054 532.035 183.101 531.7 184.1C531.393 184.983 530.917 185.798 530.3 186.5C529.716 187.171 529.001 187.715 528.2 188.1C527.3 188.419 526.354 188.588 525.4 188.6ZM530.3 180.9C530.311 180.09 530.21 179.282 530 178.5C529.823 177.815 529.517 177.17 529.1 176.6C528.726 176.039 528.208 175.59 527.6 175.3C526.881 174.96 526.094 174.789 525.3 174.8C524.506 174.8 523.722 174.971 523 175.3C522.386 175.628 521.869 176.111 521.5 176.7C521.081 177.307 520.776 177.984 520.6 178.7C520.395 179.449 520.294 180.223 520.3 181C520.295 181.842 520.395 182.682 520.6 183.5C520.755 184.192 521.063 184.841 521.5 185.4C521.902 185.935 522.413 186.378 523 186.7C523.659 186.995 524.378 187.132 525.1 187.1C525.893 187.099 526.677 186.929 527.4 186.6C528.013 186.272 528.53 185.789 528.9 185.2C529.318 184.593 529.623 183.915 529.8 183.2C530.165 182.49 530.337 181.697 530.3 180.9Z" fill="white"/>
<path d="M536.8 188.2H535.1V173.7H536.8V175.7C537.423 175.045 538.129 174.473 538.9 174C539.691 173.546 540.587 173.305 541.5 173.3C542.357 173.312 543.204 173.482 544 173.8C544.799 174.097 545.471 174.662 545.9 175.4C546.27 175.853 546.481 176.415 546.5 177C546.583 177.562 546.616 178.131 546.6 178.7V188.2H545V178.7C545.092 177.652 544.769 176.611 544.1 175.8C543.723 175.425 543.267 175.14 542.764 174.967C542.262 174.794 541.727 174.737 541.2 174.8C540.727 174.81 540.257 174.877 539.8 175L538.6 175.6C538.2 175.8 538 176.2 537.7 176.5C537.479 176.855 537.278 177.222 537.1 177.6C536.916 178.009 536.814 178.451 536.8 178.9C536.8 179.3 536.7 179.8 536.7 180.3V188.2H536.8Z" fill="white"/>
<path d="M551.7 183.7C551.818 184.713 552.319 185.644 553.1 186.3C553.962 186.858 554.974 187.137 556 187.1C556.539 187.089 557.075 187.022 557.6 186.9C558.014 186.802 558.394 186.595 558.7 186.3C558.987 186.046 559.224 185.74 559.4 185.4C559.514 185.078 559.582 184.741 559.6 184.4C559.623 184.096 559.572 183.792 559.449 183.513C559.327 183.234 559.139 182.989 558.9 182.8C558.374 182.455 557.801 182.186 557.2 182C556.481 181.775 555.745 181.608 555 181.5C554.242 181.407 553.501 181.205 552.8 180.9C552.144 180.644 551.561 180.232 551.1 179.7C550.589 179.086 550.338 178.296 550.4 177.5C550.38 176.935 550.486 176.372 550.711 175.853C550.936 175.334 551.274 174.872 551.7 174.5C552.768 173.631 554.127 173.202 555.5 173.3C556.841 173.221 558.172 173.571 559.3 174.3C559.831 174.722 560.267 175.253 560.577 175.856C560.887 176.46 561.066 177.122 561.1 177.8H559.4C559.353 177.334 559.214 176.882 558.991 176.47C558.767 176.058 558.465 175.694 558.1 175.4C557.327 174.901 556.418 174.656 555.5 174.7C554.639 174.608 553.777 174.86 553.1 175.4C552.834 175.616 552.623 175.891 552.484 176.204C552.345 176.517 552.282 176.858 552.3 177.2C552.267 177.49 552.314 177.784 552.438 178.049C552.561 178.314 552.756 178.539 553 178.7C553.526 179.045 554.099 179.314 554.7 179.5C555.4 179.7 556.1 179.9 556.9 180.1C557.651 180.273 558.387 180.507 559.1 180.8C559.756 181.056 560.339 181.468 560.8 182C561.311 182.614 561.562 183.403 561.5 184.2C561.534 184.825 561.396 185.448 561.1 186C560.81 186.523 560.398 186.969 559.9 187.3C559.333 187.703 558.684 187.976 558 188.1C557.218 188.311 556.41 188.411 555.6 188.4C554.814 188.431 554.03 188.294 553.3 188C552.664 187.753 552.086 187.379 551.6 186.9C551.123 186.451 550.748 185.906 550.5 185.3C550.215 184.708 550.078 184.056 550.1 183.4H551.7V183.7Z" fill="white"/>
<path d="M583.7 168H585.4V188.2H583.7V185.7H583.6C583.359 186.171 583.056 186.608 582.7 187C582.335 187.388 581.892 187.694 581.4 187.9C580.9 188.1 580.5 188.3 580 188.5C579.541 188.609 579.072 188.676 578.6 188.7C577.567 188.735 576.54 188.529 575.6 188.1C574.812 187.74 574.125 187.19 573.6 186.5C573.083 185.764 572.678 184.955 572.4 184.1C572.156 183.118 572.022 182.112 572 181.1C571.979 180.118 572.114 179.139 572.4 178.2C572.678 177.313 573.082 176.471 573.6 175.7C574.12 174.98 574.806 174.397 575.6 174C576.532 173.586 577.542 173.381 578.561 173.398C579.58 173.415 580.583 173.655 581.5 174.1C582.409 174.544 583.172 175.238 583.7 176.1V168ZM583.7 180.9C583.706 180.123 583.605 179.349 583.4 178.6C583.231 177.893 582.887 177.24 582.4 176.7C581.998 176.165 581.487 175.722 580.9 175.4C580.249 175.071 579.53 174.9 578.8 174.9C578.007 174.901 577.222 175.071 576.5 175.4C575.858 175.725 575.307 176.206 574.9 176.8C574.482 177.443 574.177 178.153 574 178.9C573.777 179.747 573.709 180.628 573.8 181.5C573.77 182.319 573.906 183.135 574.2 183.9C574.451 184.542 574.788 185.148 575.2 185.7C575.621 186.208 576.175 186.589 576.8 186.8C577.427 187.085 578.112 187.222 578.8 187.2C579.53 187.2 580.249 187.029 580.9 186.7C581.487 186.378 581.998 185.935 582.4 185.4C582.818 184.793 583.123 184.115 583.3 183.4C583.538 182.587 583.673 181.747 583.7 180.9Z" fill="white"/>
<path d="M590.7 181.3C590.695 182.043 590.796 182.784 591 183.5C591.177 184.154 591.483 184.766 591.9 185.3C592.306 185.804 592.818 186.214 593.4 186.5C594.051 186.829 594.771 187 595.5 187C596.508 187.024 597.495 186.707 598.3 186.1C599.108 185.478 599.674 184.594 599.9 183.6H601.8C601.594 184.257 601.327 184.893 601 185.5C600.678 186.086 600.235 186.598 599.7 187C599.172 187.449 598.56 187.789 597.9 188C597.123 188.246 596.315 188.381 595.5 188.4C594.467 188.434 593.44 188.229 592.5 187.8C591.698 187.415 590.984 186.871 590.4 186.2C589.882 185.464 589.478 184.655 589.2 183.8C588.633 181.835 588.668 179.745 589.3 177.8C589.57 176.891 590.012 176.043 590.6 175.3C591.18 174.599 591.894 174.021 592.7 173.6C593.576 173.19 594.533 172.985 595.5 173C596.394 172.954 597.285 173.12 598.102 173.485C598.919 173.85 599.638 174.404 600.2 175.1C601.424 176.852 602.023 178.965 601.9 181.1H590.7V181.3ZM600.1 179.9C600.106 179.221 600.005 178.546 599.8 177.9C599.623 177.306 599.315 176.759 598.9 176.3C598.505 175.85 598.031 175.477 597.5 175.2C596.876 174.904 596.189 174.767 595.5 174.8C594.812 174.777 594.127 174.914 593.5 175.2C592.944 175.484 592.438 175.855 592 176.3C591.588 176.779 591.25 177.319 591 177.9C590.775 178.55 590.608 179.219 590.5 179.9H600.1Z" fill="white"/>
<path d="M614.8 188.2H613.1V168H614.8V176C615.299 175.114 616.07 174.413 617 174C617.922 173.51 618.956 173.268 620 173.3C620.999 173.275 621.992 173.481 622.9 173.9C623.694 174.297 624.38 174.88 624.9 175.6C625.437 176.36 625.843 177.205 626.1 178.1C626.386 179.039 626.521 180.018 626.5 181C626.528 182.015 626.393 183.028 626.1 184C625.864 184.872 625.456 185.688 624.9 186.4C624.375 187.09 623.688 187.64 622.9 188C621.96 188.429 620.933 188.635 619.9 188.6C619.427 188.583 618.958 188.515 618.5 188.4C617.995 188.305 617.517 188.1 617.1 187.8C616.124 187.358 615.342 186.576 614.9 185.6H614.8V188.2ZM614.8 180.9C614.795 181.743 614.895 182.582 615.1 183.4C615.277 184.115 615.581 184.793 616 185.4C616.373 185.961 616.892 186.41 617.5 186.7C618.151 187.029 618.87 187.2 619.6 187.2C620.288 187.222 620.973 187.085 621.6 186.8C622.192 186.527 622.733 186.155 623.2 185.7C623.649 185.172 623.989 184.56 624.2 183.9C624.446 183.123 624.581 182.315 624.6 181.5C624.636 180.628 624.569 179.756 624.4 178.9C624.223 178.153 623.918 177.443 623.5 176.8C623.118 176.185 622.56 175.697 621.9 175.4C621.181 175.06 620.394 174.889 619.6 174.9C618.87 174.9 618.151 175.071 617.5 175.4C616.913 175.722 616.402 176.165 616 176.7C615.607 177.3 615.272 177.937 615 178.6C615 179.3 614.8 180.1 614.8 180.9Z" fill="white"/>
<path d="M636.7 179.699C637.073 179.673 637.441 179.606 637.8 179.499C638.2 179.399 638.6 179.299 638.9 179.199C639.045 179.148 639.171 179.053 639.26 178.928C639.35 178.803 639.398 178.653 639.4 178.499C639.4 178.199 639.5 177.899 639.5 177.599C639.515 177.214 639.452 176.828 639.315 176.468C639.177 176.107 638.968 175.777 638.7 175.499C637.897 174.897 636.9 174.612 635.9 174.699C635.361 174.71 634.825 174.777 634.3 174.899C633.845 175.005 633.408 175.173 633 175.399C632.624 175.656 632.315 175.999 632.1 176.399C631.844 176.901 631.675 177.442 631.6 177.999H630C630.066 177.236 630.269 176.491 630.6 175.799C630.922 175.213 631.365 174.701 631.9 174.299C632.417 173.875 633.039 173.599 633.7 173.499C634.415 173.295 635.156 173.194 635.9 173.199C636.604 173.216 637.305 173.283 638 173.399C638.61 173.563 639.185 173.834 639.7 174.199C640.194 174.55 640.576 175.036 640.8 175.599C641.095 176.259 641.232 176.978 641.2 177.699V185.599C641.2 186.299 641.3 186.699 641.5 186.799C641.7 186.999 642.2 186.899 642.9 186.699V187.999C642.695 188.05 642.494 188.117 642.3 188.199C642.074 188.274 641.837 188.308 641.6 188.299C641.329 188.316 641.058 188.282 640.8 188.199C640.668 188.203 640.538 188.178 640.417 188.126C640.296 188.074 640.188 187.997 640.1 187.899C639.915 187.781 639.775 187.605 639.7 187.399C639.589 187.217 639.521 187.012 639.5 186.799C639.5 186.599 639.4 186.299 639.4 186.099C638.742 186.868 637.922 187.483 637 187.899C636.053 188.309 635.031 188.513 634 188.499C633.388 188.497 632.78 188.396 632.2 188.199C631.621 188.035 631.078 187.764 630.6 187.399C630.154 187.04 629.78 186.599 629.5 186.099C629.204 185.547 629.066 184.925 629.1 184.299C629.1 181.799 630.8 180.399 634.2 179.899L636.7 179.699ZM639.6 180.599C638.899 180.904 638.158 181.106 637.4 181.199C636.672 181.316 635.937 181.382 635.2 181.399C634.137 181.425 633.101 181.736 632.2 182.299C631.844 182.542 631.557 182.872 631.364 183.257C631.172 183.642 631.081 184.069 631.1 184.499C631.104 184.917 631.207 185.329 631.4 185.699C631.55 186.029 631.793 186.307 632.1 186.499C632.4 186.725 632.739 186.894 633.1 186.999C633.49 187.115 633.893 187.182 634.3 187.199C634.978 187.198 635.651 187.097 636.3 186.899C636.917 186.756 637.496 186.484 638 186.099C638.498 185.768 638.91 185.322 639.2 184.799C639.495 184.211 639.633 183.557 639.6 182.899V180.599Z" fill="white"/>
<path d="M646.599 183.7C646.717 184.713 647.218 185.644 647.999 186.3C648.861 186.858 649.874 187.137 650.899 187.1C651.438 187.089 651.974 187.022 652.499 186.9C652.913 186.802 653.293 186.595 653.599 186.3C653.886 186.046 654.124 185.74 654.299 185.4C654.414 185.078 654.481 184.741 654.499 184.4C654.523 184.096 654.471 183.792 654.349 183.513C654.227 183.234 654.038 182.989 653.799 182.8C653.273 182.455 652.701 182.186 652.099 182C651.38 181.775 650.645 181.608 649.899 181.5C649.141 181.407 648.4 181.205 647.699 180.9C647.044 180.644 646.46 180.232 645.999 179.7C645.489 179.086 645.238 178.296 645.299 177.5C645.279 176.935 645.385 176.372 645.61 175.853C645.835 175.334 646.173 174.872 646.599 174.5C647.667 173.631 649.026 173.202 650.399 173.3C651.74 173.221 653.071 173.571 654.199 174.3C654.731 174.722 655.166 175.253 655.476 175.856C655.787 176.46 655.965 177.122 655.999 177.8H654.299C654.252 177.334 654.113 176.882 653.89 176.47C653.667 176.058 653.364 175.694 652.999 175.4C652.227 174.901 651.318 174.656 650.399 174.7C649.538 174.608 648.676 174.86 647.999 175.4C647.734 175.616 647.522 175.891 647.383 176.204C647.244 176.517 647.181 176.858 647.199 177.2C647.166 177.49 647.214 177.784 647.337 178.049C647.461 178.314 647.655 178.539 647.899 178.7C648.426 179.045 648.998 179.314 649.599 179.5C650.299 179.7 650.999 179.9 651.799 180.1C652.551 180.273 653.286 180.507 653.999 180.8C654.655 181.056 655.238 181.468 655.699 182C656.21 182.614 656.461 183.403 656.399 184.2C656.433 184.825 656.295 185.448 655.999 186C655.709 186.523 655.298 186.969 654.799 187.3C654.232 187.703 653.584 187.976 652.899 188.1C652.117 188.311 651.309 188.411 650.499 188.4C649.713 188.431 648.929 188.294 648.199 188C647.564 187.753 646.985 187.379 646.499 186.9C646.022 186.451 645.647 185.906 645.399 185.3C645.114 184.708 644.977 184.056 644.999 183.4H646.599V183.7Z" fill="white"/>
<path d="M660.7 181.3C660.695 182.043 660.796 182.784 661 183.5C661.177 184.154 661.483 184.766 661.9 185.3C662.306 185.804 662.818 186.214 663.4 186.5C664.051 186.829 664.771 187 665.5 187C666.508 187.024 667.495 186.707 668.3 186.1C669.108 185.478 669.674 184.594 669.9 183.6H671.8C671.594 184.257 671.327 184.893 671 185.5C670.678 186.086 670.235 186.598 669.7 187C669.172 187.449 668.56 187.789 667.9 188C667.123 188.246 666.315 188.381 665.5 188.4C664.467 188.434 663.44 188.229 662.5 187.8C661.698 187.415 660.984 186.871 660.4 186.2C659.882 185.464 659.478 184.655 659.2 183.8C658.633 181.835 658.668 179.745 659.3 177.8C659.57 176.891 660.012 176.043 660.6 175.3C661.18 174.599 661.894 174.021 662.7 173.6C663.576 173.19 664.533 172.985 665.5 173C666.394 172.954 667.285 173.12 668.102 173.485C668.919 173.85 669.638 174.404 670.2 175.1C671.424 176.852 672.023 178.965 671.9 181.1H660.7V181.3ZM670.1 179.9C670.106 179.221 670.005 178.546 669.8 177.9C669.623 177.306 669.315 176.759 668.9 176.3C668.505 175.85 668.031 175.477 667.5 175.2C666.876 174.904 666.189 174.767 665.5 174.8C664.812 174.777 664.127 174.914 663.5 175.2C662.944 175.484 662.438 175.855 662 176.3C661.588 176.779 661.25 177.319 661 177.9C660.775 178.55 660.608 179.219 660.5 179.9H670.1Z" fill="white"/>
</svg>
