<svg width="834" height="202" viewBox="0 0 834 202" fill="none" xmlns="http://www.w3.org/2000/svg">
<path fill-rule="evenodd" clip-rule="evenodd" d="M232.8 2H834V48.1H232.8V2Z" fill="#5FBEE6"/>
<path fill-rule="evenodd" clip-rule="evenodd" d="M3.3999 22.5998C3.3999 17.4998 7.5999 13.2998 12.6999 13.2998H49.8999C52.3999 13.2998 54.6999 14.2998 56.4999 15.9998C58.1999 17.6998 59.1999 20.0998 59.1999 22.5998V97.7998C59.1999 102.9 54.9999 107.1 49.8999 107.1H12.6999C7.5999 107.1 3.3999 102.9 3.3999 97.7998C3.3999 97.7998 3.3999 22.5998 3.3999 22.5998Z" fill="#D6F3FF"/>
<path fill-rule="evenodd" clip-rule="evenodd" d="M48.7002 52.4998C48.7002 46.5998 53.5002 41.7998 59.4002 41.7998H102C104.8 41.7998 107.5 42.8998 109.5 44.8998C111.5 46.8998 112.6 49.5998 112.6 52.3998V142.8C112.6 148.7 107.8 153.5 101.9 153.5H59.4002C53.5002 153.5 48.7002 148.7 48.7002 142.8V52.4998Z" fill="#D6F3FF"/>
<path fill-rule="evenodd" clip-rule="evenodd" d="M104.6 95.1998C104.6 88.8998 109.7 83.7998 116 83.7998H161.4C164.4 83.7998 167.3 84.9998 169.4 87.0998C171.5 89.1998 172.7 92.0998 172.7 95.0998V151.4C172.7 157.7 167.6 162.8 161.3 162.8H115.9C109.6 162.8 104.5 157.7 104.5 151.4L104.6 95.1998Z" fill="#D6F3FF"/>
<path fill-rule="evenodd" clip-rule="evenodd" d="M159.5 51.0998C159.5 45.9998 163.7 41.7998 168.8 41.7998H206C208.5 41.7998 210.8 42.7998 212.6 44.4998C214.3 46.1998 215.3 48.5998 215.3 51.0998V126.3C215.3 131.4 211.1 135.6 206 135.6H168.8C163.7 135.6 159.5 131.4 159.5 126.3V51.0998Z" fill="#D6F3FF"/>
<path fill-rule="evenodd" clip-rule="evenodd" d="M746.2 101.9C741.9 101.9 741.9 101.9 741.9 101.9C741.4 101.9 741 102.3 741 102.8C741 107.2 741 107.2 741 107.2C741 107.7 741.4 108.1 741.9 108.1C746.2 108.1 746.2 108.1 746.2 108.1C746.7 108.1 747.1 107.7 747.1 107.2C747.1 102.8 747.1 102.8 747.1 102.8C747 102.4 746.6 101.9 746.2 101.9ZM745.3 106.4C742.7 106.4 742.7 106.4 742.7 106.4C742.7 103.8 742.7 103.8 742.7 103.8C745.3 103.8 745.3 103.8 745.3 103.8V106.4Z" fill="#054169"/>
<path fill-rule="evenodd" clip-rule="evenodd" d="M757.2 101.9C752.8 101.9 752.8 101.9 752.8 101.9C752.3 101.9 751.9 102.3 751.9 102.8C751.9 107.2 751.9 107.2 751.9 107.2C751.9 107.7 752.3 108.1 752.8 108.1C757.2 108.1 757.2 108.1 757.2 108.1C757.7 108.1 758.1 107.7 758.1 107.2C758.1 102.8 758.1 102.8 758.1 102.8C758.1 102.4 757.6 101.9 757.2 101.9ZM756.3 106.4C753.7 106.4 753.7 106.4 753.7 106.4C753.7 103.8 753.7 103.8 753.7 103.8C756.3 103.8 756.3 103.8 756.3 103.8V106.4Z" fill="#054169"/>
<path fill-rule="evenodd" clip-rule="evenodd" d="M746.2 93.4004C741.9 93.4004 741.9 93.4004 741.9 93.4004C741.4 93.4004 741 93.8004 741 94.3004C741 98.7004 741 98.7004 741 98.7004C741 99.2004 741.4 99.6004 741.9 99.6004C746.2 99.6004 746.2 99.6004 746.2 99.6004C746.7 99.6004 747.1 99.2004 747.1 98.7004C747.1 94.3004 747.1 94.3004 747.1 94.3004C747 93.8004 746.6 93.4004 746.2 93.4004ZM745.3 97.8004C742.7 97.8004 742.7 97.8004 742.7 97.8004C742.7 95.2004 742.7 95.2004 742.7 95.2004C745.3 95.2004 745.3 95.2004 745.3 95.2004V97.8004Z" fill="#054169"/>
<path fill-rule="evenodd" clip-rule="evenodd" d="M757.2 93.4004C752.8 93.4004 752.8 93.4004 752.8 93.4004C752.3 93.4004 751.9 93.8004 751.9 94.3004C751.9 98.7004 751.9 98.7004 751.9 98.7004C751.9 99.2004 752.3 99.6004 752.8 99.6004C757.2 99.6004 757.2 99.6004 757.2 99.6004C757.7 99.6004 758.1 99.2004 758.1 98.7004C758.1 94.3004 758.1 94.3004 758.1 94.3004C758.1 93.8004 757.6 93.4004 757.2 93.4004ZM756.3 97.8004C753.7 97.8004 753.7 97.8004 753.7 97.8004C753.7 95.2004 753.7 95.2004 753.7 95.2004C756.3 95.2004 756.3 95.2004 756.3 95.2004V97.8004Z" fill="#054169"/>
<path fill-rule="evenodd" clip-rule="evenodd" d="M746.2 84.9004C741.9 84.9004 741.9 84.9004 741.9 84.9004C741.4 84.9004 741 85.3004 741 85.8004C741 90.1004 741 90.1004 741 90.1004C741 90.6004 741.4 91.0004 741.9 91.0004C746.2 91.0004 746.2 91.0004 746.2 91.0004C746.7 91.0004 747.1 90.6004 747.1 90.1004C747.1 85.8004 747.1 85.8004 747.1 85.8004C747 85.3004 746.6 84.9004 746.2 84.9004ZM745.3 89.2004C742.7 89.2004 742.7 89.2004 742.7 89.2004C742.7 86.6004 742.7 86.6004 742.7 86.6004C745.3 86.6004 745.3 86.6004 745.3 86.6004V89.2004Z" fill="#054169"/>
<path fill-rule="evenodd" clip-rule="evenodd" d="M757.2 84.9004C752.8 84.9004 752.8 84.9004 752.8 84.9004C752.3 84.9004 751.9 85.3004 751.9 85.8004C751.9 90.1004 751.9 90.1004 751.9 90.1004C751.9 90.6004 752.3 91.0004 752.8 91.0004C757.2 91.0004 757.2 91.0004 757.2 91.0004C757.7 91.0004 758.1 90.6004 758.1 90.1004C758.1 85.8004 758.1 85.8004 758.1 85.8004C758.1 85.3004 757.6 84.9004 757.2 84.9004ZM756.3 89.2004C753.7 89.2004 753.7 89.2004 753.7 89.2004C753.7 86.6004 753.7 86.6004 753.7 86.6004C756.3 86.6004 756.3 86.6004 756.3 86.6004V89.2004Z" fill="#054169"/>
<path fill-rule="evenodd" clip-rule="evenodd" d="M784.8 120.9C785.7 120 785.7 120 785.7 120C785.7 120 785.8 120 785.8 119.9C786.5 119.3 786.5 119.3 786.5 119.3C786.6 119.3 786.6 119.2 786.7 119.2C788 118.1 789.4 117 790.8 116C791.9 115.2 791.9 115.2 791.9 115.2C791.9 115.2 792 115.2 792 115.1C792.6 114.7 792.6 114.7 792.6 114.7C794.2 113.7 795.8 112.8 797.6 112C798.4 111.6 798.4 111.6 798.4 111.6C798.7 111.4 798.9 111 798.9 110.6C798.8 109.8 798.8 109.8 798.8 109.8C798.8 102.3 798.8 102.3 798.8 102.3C798.8 102.1 798.7 101.8 798.5 101.6C793 96.1002 793 96.1002 793 96.1002C792.9 95.9002 792.6 95.8002 792.4 95.8002C782.6 95.8002 782.6 95.8002 782.6 95.8002H782.5H782.4H782.3H782.2L782.1 95.9002C776.7 101.3 776.7 101.3 776.7 101.3C776.5 101.5 776.4 101.7 776.4 102C776.4 106.1 776.4 106.1 776.4 106.1C775.4 105.9 774.3 105.8 773.3 105.7C773.3 104 773.3 104 773.3 104C773.4 103.9 773.4 103.7 773.4 103.6C774.9 101.8 774.9 101.8 774.9 101.8C776.4 100 777.2 97.8002 777.2 95.5002C777.2 92.7002 776 90.0002 773.7 88.0002C772.9 87.3002 772.9 87.3002 772.9 87.3002C772.6 87.0002 772 87.0002 771.7 87.3002C770.9 88.0002 770.9 88.0002 770.9 88.0002C768.6 90.1002 767.4 92.8002 767.4 95.5002C767.4 97.8002 768.2 99.9002 769.8 101.8C771.3 103.6 771.3 103.6 771.3 103.6C771.3 103.8 771.4 104 771.5 104.1C771.5 105.6 771.5 105.6 771.5 105.6C770.9 105.6 770.2 105.6 769.6 105.6C768.4 105.6 767.3 105.7 766.1 105.8C766.1 77.0002 766.1 77.0002 766.1 77.0002C766.1 76.6002 765.8 76.2002 765.5 76.1002C734.9 67.3002 734.9 67.3002 734.9 67.3002C734.6 67.2002 734.4 67.3002 734.1 67.4002C733.9 67.6002 733.8 67.8002 733.8 68.1002C733.8 131 733.8 131 733.8 131C733.8 131.3 734 131.6 734.3 131.8C735.1 132.3 735.1 132.3 735.1 132.3C735.2 132.4 735.4 132.4 735.5 132.4C740.9 132.4 740.9 132.4 740.9 132.4C758.4 132.4 758.4 132.4 758.4 132.4C764.3 132.4 764.3 132.4 764.3 132.4C764.4 132.4 764.6 132.4 764.7 132.3C765.6 131.9 765.6 131.9 765.6 131.9C765.9 131.8 766.1 131.5 766.1 131.1C766.1 123.2 766.1 123.2 766.1 123.2C766.4 123.2 766.4 123.2 766.4 123.2C766.7 123.2 766.9 123.2 767.2 123.2C771 123.2 774.7 124.1 778 125.9C777.9 126.1 777.9 126.1 777.9 126.1C776.5 128.1 775.2 130.2 774.1 132.3C773.9 132.7 774.1 133.3 774.5 133.5C774.6 133.6 774.8 133.6 774.9 133.6C775.2 133.6 775.5 133.4 775.7 133.1C776.8 131 778 129 779.3 127.1C780 126.1 780 126.1 780 126.1C780.5 125.4 780.5 125.4 780.5 125.4C781.7 124.1 783.2 122.5 784.8 120.9ZM771 101C769.7 99.4002 769 97.6002 769 95.8002C769 93.5002 770 91.3002 771.9 89.6002C772 89.5002 772 89.5002 772 89.5002C772.1 89.6002 772.1 89.6002 772.1 89.6002C774 91.3002 775 93.6002 775 95.8002C775 97.7002 774.4 99.5002 773.2 101C773 101.2 773 101.2 773 101.2C773 95.2002 773 95.2002 773 95.2002C773 94.7002 772.6 94.3002 772.1 94.3002C771.6 94.3002 771.2 94.7002 771.2 95.2002C771.2 101.3 771.2 101.3 771.2 101.3L771 101ZM796.9 110.5C795.2 111.3 793.4 112.3 791.8 113.3C791.7 113.4 791.7 113.4 791.7 113.4C790.9 112.9 790.9 112.9 790.9 112.9C790.7 112.8 790.6 112.7 790.4 112.5C790.2 112.4 790 112.2 789.7 112.1C789.6 112 789.5 112 789.4 111.9C789.3 111.8 789.2 111.8 789.1 111.7C789.1 111.7 789.1 111.7 789 111.7C788.9 111.6 788.9 111.6 788.9 111.6C788.9 111.3 788.9 111.3 788.9 111.3C788.9 103.5 788.9 103.5 788.9 103.5C797 103.5 797 103.5 797 103.5C797 110.3 797 110.3 797 110.3C797 110.4 797 110.4 797 110.5C797 110.6 797 110.6 797 110.6L796.9 110.5ZM778 103.4C787.2 103.4 787.2 103.4 787.2 103.4C787.2 110.5 787.2 110.5 787.2 110.5C786.9 110.3 786.9 110.3 786.9 110.3C786.5 110.1 786.1 109.9 785.7 109.7C785.7 105.8 785.7 105.8 785.7 105.8V105.7C785.7 105.7 785.7 105.7 785.7 105.6V105.5C785.7 105.5 785.7 105.5 785.7 105.4C785.7 105.4 785.7 105.4 785.7 105.3C785.7 105.3 785.7 105.3 785.7 105.2C785.7 105.2 785.7 105.2 785.7 105.1C785.7 105.1 785.7 105.1 785.6 105.1V105C785.6 105 785.6 105 785.5 105C785.5 105 785.5 105 785.4 105C785.4 105 785.4 105 785.3 105C785.2 105 785.2 105 785.2 105C785.2 105 785.2 105 785.1 105H785C780.6 105 780.6 105 780.6 105C780.1 105 779.7 105.4 779.7 105.9C779.7 107.5 779.7 107.5 779.7 107.5C779.4 107.4 779.4 107.4 779.4 107.4C779.1 107.3 778.7 107.2 778.3 107.1C778.1 107.1 778.1 107.1 778.1 107.1L778 103.4ZM783.8 108.8C783.5 108.7 783.5 108.7 783.5 108.7C782.8 108.4 782 108.1 781.3 107.9C781.2 107.8 781.2 107.8 781.2 107.8C781.2 106.6 781.2 106.6 781.2 106.6C783.8 106.6 783.8 106.6 783.8 106.6V108.8ZM792 97.9002C795.7 101.6 795.7 101.6 795.7 101.6C788.4 101.6 788.4 101.6 788.4 101.6C784.7 97.9002 784.7 97.9002 784.7 97.9002H792ZM782.5 98.3002C783.5 99.3002 783.5 99.3002 783.5 99.3002C785.8 101.7 785.8 101.7 785.8 101.7C779.2 101.7 779.2 101.7 779.2 101.7L782.5 98.3002ZM766.1 107.9C767.2 107.8 768.3 107.8 769.4 107.8C776.1 107.8 782.5 109.6 788.1 113.2C788.1 113.2 788.2 113.2 788.2 113.3C788.4 113.4 788.5 113.5 788.7 113.6C788.9 113.7 789.1 113.9 789.3 114C789.3 114 789.4 114 789.4 114.1C789.6 114.2 789.8 114.4 790.1 114.6C789.9 114.8 789.9 114.8 789.9 114.8C788.4 115.8 787 116.9 785.6 118.1C785.5 118.1 785.5 118.2 785.4 118.2C785.2 118.4 785.2 118.4 785.2 118.4C784.4 118 784.4 118 784.4 118C784.3 117.9 784.2 117.9 784.1 117.8C783.9 117.7 783.8 117.7 783.7 117.6C783.7 117.6 783.7 117.6 783.6 117.6C783.5 117.5 783.3 117.4 783.2 117.4C783.2 117.4 783.2 117.4 783.1 117.4C783 117.3 782.8 117.3 782.7 117.2C782.7 117.2 782.7 117.2 782.6 117.2C782.5 117.2 782.4 117.1 782.2 117C782.2 117 782.1 117 782.1 116.9C782 116.9 781.9 116.8 781.8 116.8C781.7 116.8 781.7 116.7 781.6 116.7C781.6 116.7 781.6 116.7 781.5 116.7C778.8 115.5 776 114.7 773.1 114.3C773 114.3 772.8 114.3 772.6 114.2C772.4 114.2 772.3 114.2 772.1 114.1C772.1 114.1 772.1 114.1 772 114.1C771.8 114.1 771.7 114.1 771.6 114H771.5C771.4 114 771.2 114 771.1 114C771 114 771 114 771 114C770.9 114 770.7 114 770.6 114C770.5 114 770.5 114 770.4 114C770.3 114 770.2 114 770.1 114C770 114 769.9 114 769.9 114C769.8 114 769.7 114 769.6 114C769.5 114 769.4 114 769.3 114C769.2 114 769.2 114 769.1 114C768.9 114 768.7 114 768.6 114C768.4 114 768.3 114 768.1 114C768 114 767.8 114 767.7 114H767.6C767.5 114 767.3 114 767.1 114C766.9 114 766.8 114 766.6 114C766.6 114 766.6 114 766.5 114C766.4 114 766.5 114 766.5 114H766.4C766.3 114 766.3 114 766.3 114C766.3 108.2 766.3 108.2 766.3 108.2L766.1 107.9ZM757.3 119.7C757.3 131 757.3 131 757.3 131C750.3 131 750.3 131 750.3 131C750.3 119.7 750.3 119.7 750.3 119.7H757.3ZM748.6 131.1C741.6 131.1 741.6 131.1 741.6 131.1C741.6 119.8 741.6 119.8 741.6 119.8C748.6 119.8 748.6 119.8 748.6 119.8V131.1ZM764.1 130.9C763.9 131 763.9 131 763.9 131C759 131 759 131 759 131C759 118.8 759 118.8 759 118.8C759 118.3 758.6 117.9 758.1 117.9C740.6 117.9 740.6 117.9 740.6 117.9C740.1 117.9 739.7 118.3 739.7 118.8C739.7 131 739.7 131 739.7 131C735.4 131 735.4 131 735.4 131C735.2 130.9 735.2 130.9 735.2 130.9C735.2 69.7002 735.2 69.7002 735.2 69.7002C764.1 78.0002 764.1 78.0002 764.1 78.0002C764.1 107.1 764.1 107.1 764.1 107.1C764.1 114.6 764.1 114.6 764.1 114.6C764.1 122.7 764.1 122.7 764.1 122.7V130.9ZM766.1 121.8C765.9 121.8 765.9 121.8 765.9 121.8C765.9 115.5 765.9 115.5 765.9 115.5C766 115.5 766 115.5 766 115.5C766.2 115.5 766.2 115.5 766.2 115.5C766.2 115.5 766.2 115.5 766.3 115.5C766.5 115.5 766.6 115.5 766.8 115.5C767 115.5 767.1 115.5 767.3 115.5H767.4C767.5 115.5 767.7 115.5 767.8 115.5C768 115.5 768.1 115.5 768.3 115.5C768.5 115.5 768.6 115.5 768.8 115.5C768.9 115.5 768.9 115.5 769 115.5C769.1 115.5 769.2 115.5 769.3 115.5C769.4 115.5 769.5 115.5 769.6 115.5C769.7 115.5 769.7 115.5 769.8 115.5C769.9 115.5 770 115.5 770.1 115.5C770.2 115.5 770.2 115.5 770.3 115.5C770.4 115.5 770.5 115.5 770.7 115.5H770.8C770.9 115.5 771.1 115.5 771.2 115.5H771.3C771.4 115.5 771.6 115.5 771.7 115.6C771.7 115.6 771.7 115.6 771.8 115.6C771.9 115.6 772.1 115.6 772.2 115.6C772.4 115.6 772.5 115.7 772.7 115.7C775.5 116.1 778.2 116.9 780.8 118C780.9 118 780.9 118.1 781 118.1C781.1 118.1 781.2 118.2 781.3 118.2H781.4C781.5 118.3 781.6 118.3 781.7 118.4H781.8C781.9 118.5 782 118.5 782.2 118.6C782.2 118.6 782.2 118.6 782.3 118.6C782.4 118.7 782.5 118.7 782.7 118.8C782.7 118.8 782.7 118.8 782.8 118.8C782.9 118.9 783.1 119 783.2 119C783.4 119.1 783.5 119.2 783.7 119.3C783.5 119.5 783.5 119.5 783.5 119.5C781.9 121.1 780.3 122.7 779 124.5C778.9 124.6 778.9 124.6 778.9 124.6C778.8 124.5 778.8 124.5 778.8 124.5C775.2 122.6 771.2 121.6 767.1 121.6C766.7 121.8 766.4 121.8 766.1 121.8Z" fill="#054169"/>
<path fill-rule="evenodd" clip-rule="evenodd" d="M799.8 118.7C799.6 118.3 799 118.1 798.6 118.4C792.2 121.8 786.6 126.7 782.4 132.6C782.1 133 782.2 133.5 782.6 133.8C782.7 133.9 782.9 134 783.1 134C783.4 134 783.6 133.9 783.8 133.6C787.9 128 793.3 123.3 799.4 119.9C799.8 119.6 800 119.1 799.8 118.7Z" fill="#054169"/>
<path fill-rule="evenodd" clip-rule="evenodd" d="M798.5 127.4C796.4 128.9 794.4 130.6 792.6 132.4C792.3 132.7 792.3 133.3 792.6 133.6C792.8 133.8 793 133.9 793.3 133.9C793.5 133.9 793.8 133.8 793.9 133.6C795.7 131.9 797.6 130.3 799.6 128.8C800 128.5 800.1 128 799.8 127.6C799.4 127.2 798.9 127.2 798.5 127.4Z" fill="#054169"/>
<path fill-rule="evenodd" clip-rule="evenodd" d="M392 110C383.2 100.8 383.2 100.8 383.2 100.8C383.1 100.7 382.9 100.6 382.7 100.5C382.6 100.5 381.4 100.3 380.1 100.7C380.1 84.8998 380.1 84.8998 380.1 84.8998C380.1 84.6998 380 84.3998 379.8 84.2998C378.3 82.7998 376.8 82.0998 375.2 82.1998C372.8 82.2998 371.3 84.2998 371.3 84.2998C371.2 84.4998 371.1 84.5998 371.1 84.8998C371.1 108.7 371.1 108.7 371.1 108.7C371.1 108.8 371.1 109 371.2 109.1C382.3 129.3 382.3 129.3 382.3 129.3C382.3 134 382.3 134 382.3 134C382.3 134.5 382.7 134.9 383.2 134.9C399 134.9 399 134.9 399 134.9C399.5 134.9 399.9 134.5 399.9 134C399.9 121.5 399.9 121.5 399.9 121.5C399.9 121.4 399.9 121.4 399.9 121.3C399.8 120.9 398.2 114.7 392 110ZM398.1 133.1C384.1 133.1 384.1 133.1 384.1 133.1C384.1 129.1 384.1 129.1 384.1 129.1C384.1 128.9 384.1 128.8 384 128.6C373 108.5 373 108.5 373 108.5C373 85.2998 373 85.2998 373 85.2998C373.4 84.8998 374.3 84.0998 375.5 84.0998C376.4 83.9998 377.4 84.4998 378.4 85.3998C378.4 102 378.4 102 378.4 102C377.6 102.9 377.4 104.2 377.6 105.8C377.6 106 377.7 106.1 377.8 106.2C386.8 116.7 386.8 116.7 386.8 116.7C387.1 117.1 387.7 117.1 388.1 116.8C388.5 116.5 388.5 115.9 388.2 115.5C379.4 105.2 379.4 105.2 379.4 105.2C379.3 104.4 379.4 103.7 379.6 103.3C379.8 103.2 380 103 380.1 102.7C380.8 102.3 381.6 102.2 382.2 102.3C390.8 111.4 390.8 111.4 390.8 111.4L390.9 111.5C396.2 115.5 397.9 120.8 398.2 121.6V133.1H398.1Z" fill="#054169"/>
<path fill-rule="evenodd" clip-rule="evenodd" d="M437.5 84C437.4 83.9 435.9 82 433.6 81.9C432 81.8 430.5 82.5 429 84C428.8 84.2 428.7 84.4 428.7 84.6C428.7 100.4 428.7 100.4 428.7 100.4C427.5 100 426.2 100.2 426.1 100.2C425.9 100.2 425.7 100.3 425.6 100.5C416.8 109.7 416.8 109.7 416.8 109.7C410.6 114.4 409 120.6 408.9 120.9C408.9 121 408.9 121 408.9 121.1C408.9 133.6 408.9 133.6 408.9 133.6C408.9 134.1 409.3 134.5 409.8 134.5C425.6 134.5 425.6 134.5 425.6 134.5C426.1 134.5 426.5 134.1 426.5 133.6C426.5 128.9 426.5 128.9 426.5 128.9C437.6 108.7 437.6 108.7 437.6 108.7C437.7 108.6 437.7 108.4 437.7 108.3C437.7 84.5 437.7 84.5 437.7 84.5C437.7 84.4 437.6 84.2 437.5 84ZM435.9 108.1C424.8 128.3 424.8 128.3 424.8 128.3C424.7 128.4 424.7 128.6 424.7 128.7C424.7 132.7 424.7 132.7 424.7 132.7C410.7 132.7 410.7 132.7 410.7 132.7C410.7 121.2 410.7 121.2 410.7 121.2C410.9 120.4 412.7 115 418 111.1L418.1 111C426.7 101.9 426.7 101.9 426.7 101.9C427.2 101.9 428.1 101.9 428.8 102.3C428.9 102.5 429.1 102.8 429.3 102.9C429.6 103.4 429.6 104 429.5 104.8C420.7 115.1 420.7 115.1 420.7 115.1C420.4 115.5 420.4 116.1 420.8 116.4C421.2 116.7 421.8 116.7 422.1 116.3C431.1 105.8 431.1 105.8 431.1 105.8C431.2 105.7 431.3 105.5 431.3 105.4C431.5 103.8 431.3 102.5 430.5 101.6C430.5 85 430.5 85 430.5 85C431.5 84.1 432.5 83.6 433.4 83.7C434.6 83.8 435.5 84.6 435.9 84.9V108.1Z" fill="#054169"/>
<path fill-rule="evenodd" clip-rule="evenodd" d="M412.4 107.8C417.5 104.9 419.1 97.6998 419.1 97.4998C419.2 97.1998 419.1 96.9998 419 96.7998C418.9 96.5998 418.7 96.4998 418.4 96.3998C411.8 95.4998 407.7 98.3998 405.4 101.3C405.4 93.1998 405.4 93.1998 405.4 93.1998C406.2 93.3998 407.1 93.4998 407.9 93.4998C409.6 93.4998 411.1 93.0998 412.5 92.2998C417.6 89.3998 419.2 82.1998 419.2 81.8998C419.3 81.6998 419.2 81.3998 419.1 81.1998C419 80.9998 418.8 80.8998 418.5 80.7998C411.9 79.8998 407.8 82.7998 405.5 85.6998C405.5 77.2998 405.5 77.2998 405.5 77.2998C406.2 77.4998 406.9 77.5998 407.5 77.5998C408.6 77.5998 409.6 77.2998 410.6 76.7998C414.3 74.7998 415.4 69.6998 415.4 69.4998C415.5 69.2998 415.4 68.9998 415.3 68.7998C415.2 68.5998 414.9 68.4998 414.7 68.3998C411.6 67.9998 408.8 68.7998 406.6 70.7998C405.7 71.5998 405.1 72.5998 404.6 73.3998C404.1 72.5998 403.5 71.5998 402.6 70.7998C400.5 68.7998 397.7 67.9998 394.5 68.3998C394.3 68.3998 394 68.5998 393.9 68.7998C393.8 68.9998 393.7 69.1998 393.8 69.4998C393.8 69.6998 395 74.7998 398.6 76.7998C400.1 77.5998 401.8 77.7998 403.7 77.2998C403.7 85.6998 403.7 85.6998 403.7 85.6998C401.3 82.7998 397.3 79.8998 390.7 80.7998C390.5 80.7998 390.2 80.9998 390.1 81.1998C390 81.3998 389.9 81.5998 390 81.8998C390 82.1998 391.6 89.2998 396.7 92.2998C398.8 93.4998 401.2 93.7998 403.8 93.1998C403.8 101.3 403.8 101.3 403.8 101.3C401.4 98.3998 397.4 95.4998 390.8 96.3998C390.6 96.3998 390.3 96.5998 390.2 96.7998C390.1 96.9998 390 97.1998 390.1 97.4998C390.1 97.7998 391.7 104.9 396.8 107.8C398.9 109 401.3 109.3 403.9 108.7C403.9 118.1 403.9 118.1 403.9 118.1C403.9 118.6 404.3 119 404.8 119C405.3 119 405.7 118.6 405.7 118.1C405.7 108.7 405.7 108.7 405.7 108.7C406.5 108.9 407.4 109 408.2 109C409.4 109 411 108.6 412.4 107.8ZM417.1 82.4998C416.5 84.3998 414.9 88.7998 411.5 90.6998C409.7 91.6998 407.7 91.8998 405.3 91.2998C405.3 88.8998 405.3 88.8998 405.3 88.8998C407.2 85.6998 410.7 81.9998 417.1 82.4998ZM413.2 70.1998C412.7 71.5998 411.6 74.1998 409.5 75.2998C408.3 75.8998 406.9 75.9998 405.4 75.4998C406.1 73.7998 408.3 69.9998 413.2 70.1998ZM399.3 75.2998C397.2 74.1998 396.1 71.5998 395.6 70.1998C400.5 69.9998 402.7 73.7998 403.4 75.4998C401.9 75.9998 400.5 75.8998 399.3 75.2998ZM397.4 90.6998C394 88.6998 392.4 84.3998 391.8 82.4998C398.2 81.9998 401.7 85.5998 403.6 88.9998C403.6 91.3998 403.6 91.3998 403.6 91.3998C401.2 91.9998 399.2 91.7998 397.4 90.6998ZM397.4 106.2C394 104.3 392.4 99.8998 391.8 97.9998C398.2 97.4998 401.7 101.1 403.6 104.4C403.6 106.8 403.6 106.8 403.6 106.8C401.2 107.5 399.2 107.3 397.4 106.2ZM405.3 104.5C407.1 101.2 410.7 97.5998 417.1 98.0998C416.5 99.9998 414.9 104.4 411.5 106.3C409.7 107.3 407.7 107.5 405.3 107V104.5Z" fill="#054169"/>
<path fill-rule="evenodd" clip-rule="evenodd" d="M298.2 74.0998C298.2 73.3998 298.8 72.7998 299.5 72.7998C299.9 72.7998 300.2 72.8998 300.4 73.1998C300.6 73.3998 300.8 73.7998 300.8 74.0998C300.8 74.7998 300.2 75.3998 299.5 75.3998C298.8 75.3998 298.2 74.7998 298.2 74.0998Z" fill="#054169"/>
<path fill-rule="evenodd" clip-rule="evenodd" d="M288.8 90.4004C284.2 92.8004 279.8 92.3004 277.7 91.8004C281.4 87.1004 287 85.7004 287 85.6004C287.5 85.5004 287.9 84.9004 287.7 84.4004C287.6 83.8004 287 83.5004 286.5 83.7004C286.2 83.7004 279.2 85.5004 275.1 91.9004C274.9 92.2004 274.9 92.5004 275 92.8004C275.1 93.1004 275.3 93.3004 275.6 93.4004C275.8 93.4004 278 94.3004 281.3 94.3004C283.7 94.3004 286.6 93.8004 289.7 92.2004C290.2 91.9004 290.4 91.3004 290.1 90.8004C289.9 90.4004 289.4 90.2004 288.8 90.4004Z" fill="#054169"/>
<path fill-rule="evenodd" clip-rule="evenodd" d="M317.4 74.8004C317 74.6004 316.5 74.6004 316.2 75.0004C313.7 77.3004 309.6 78.6004 307.2 79.2004C307.7 77.9004 307.7 77.9004 307.7 77.9004C308.9 75.8004 310.5 74.0004 312.5 72.4004C312.7 72.2004 312.9 71.9004 312.9 71.6004C312.9 71.0004 312.6 70.1004 311.2 69.5004C311.1 69.5004 311.1 69.4004 311 69.4004C310.3 69.2004 309.5 69.1004 308.8 69.0004C308.5 69.0004 304.6 68.1004 298.9 68.7004C298.7 68.7004 298.5 68.7004 298.5 68.7004H298.4C297.9 68.8004 297.5 68.9004 296.9 68.9004C295.8 69.1004 294.6 69.3004 293.5 69.6004C290 70.4004 286.8 71.6004 284.1 72.9004C282.6 72.3004 277.9 70.6004 272.9 71.1004C272.4 71.2004 272 71.6004 272 72.0004C272 72.0004 271.8 74.8004 271.3 77.7004C270.8 80.9004 270.2 82.4004 269.9 83.1004C267.8 85.4004 266.8 87.0004 266.7 87.1004C262.9 94.4004 262 101.4 264 107.7C264.2 108.3 264.4 108.8 264.6 109.3C264.6 111.2 264.6 117.1 265.8 118.9C266.1 119.3 266.6 119.5 267.1 119.3C267.2 119.3 269.6 118.2 272.9 120C275.1 121.9 277.6 123.9 278.3 124.5C281 130 283.4 133.2 285.7 134.3C286.3 134.6 286.8 134.7 287.3 134.7C287.8 134.7 288.1 134.6 288.4 134.5C289.9 134 290.5 132.4 290.6 132.2L290.7 132C291.3 127.1 293.3 120.6 295.5 116.6C296.6 114.5 296.9 113 296.3 111.9C295.9 111.2 295.2 110.9 294.8 110.8C290.8 109.9 283.5 113.6 282.2 114.3C282 114.3 281.9 114.4 281.7 114.4C280.8 114.3 279.9 114.2 279.1 114C279 114 279 113.9 278.9 113.9C278.3 113.4 278 112.6 277.9 111.4V111.3C277.7 110.1 277.9 108.8 278.3 107.7C279.1 107.2 281.1 107.3 282.3 107.6C282.7 107.7 283.1 107.6 283.4 107.2C283.6 106.9 283.7 106.5 283.4 106.1C283 105.5 283.9 102.8 285.2 100.3C286.2 99.7004 286.8 99.3004 286.9 99.3004C286.9 99.3004 286.9 99.3004 287 99.3004C288.4 98.4004 289.8 97.5004 291 96.8004C292.7 95.8004 295.6 94.2004 298.7 92.6004C299.7 92.1004 300.8 91.5004 301.8 91.0004C302 91.0004 302.1 90.9004 302.2 90.8004C305.5 89.0004 308.9 87.2004 311.1 85.7004C311.8 85.2004 312.4 84.8004 313 84.2004C313 84.2004 313 84.2004 313.1 84.1004C314.1 83.2004 314.9 82.1004 315.5 81.0004C316.5 79.4004 317.2 77.6004 317.6 75.8004C318 75.5004 317.8 75.0004 317.4 74.8004ZM273.5 78.1004C273.8 76.1004 274 74.2004 274.1 73.1004C276.9 72.9004 279.5 73.5004 281.4 74.1004C278 76.0004 275.3 78.2004 273.1 80.3004C273.3 79.6004 273.4 78.9004 273.5 78.1004ZM267.5 117.3C267.2 116.4 267.1 115 267 113.5C268.1 115.1 269.2 116.3 269.9 117.1C269 117 268.1 117.2 267.5 117.3ZM281.5 105.6C281.1 105.6 280.7 105.5 280.2 105.5C280 105.5 279.9 105.5 279.8 105.5C280.5 104.6 281.2 103.8 282 103.1C281.8 104 281.6 104.8 281.5 105.6ZM290.1 95.2004C288.8 96.0004 287.4 96.9004 286 97.7004C285.4 98.1004 283.9 98.9004 282.6 99.9004C282.4 100 282.4 100 282.4 100C282.3 100 282.2 100.1 282.2 100.2C278.9 102.8 275.2 106.8 275.9 111.7C275.9 112.2 276 112.8 276.1 113.2C274.6 112.5 273.5 111.5 272.9 110.2C270.4 105.2 275.7 97.2004 275.8 97.1004C276.1 96.6004 276 96.0004 275.5 95.7004C275.1 95.4004 274.4 95.5004 274.1 96.0004C273.9 96.4004 268.2 105 271.1 111.1C272.3 113.6 274.8 115.2 278.4 116.1C279.3 116.6 280.5 116.7 281.8 116.6H281.9C282.2 116.6 282.4 116.5 282.8 116.5C282.9 116.5 283 116.4 283.1 116.4C285.3 115.2 291.6 112.3 294.4 113C294.5 113 294.4 113 294.5 113C294.5 113 294.5 113 294.5 113.1C294.5 113.2 294.8 113.8 293.7 115.8C291.4 120 289.3 126.7 288.7 131.8C288.5 132.1 288.2 132.7 287.7 132.9C287.4 133 287.1 133 286.6 132.8C284.7 131.9 282.5 128.8 280.1 123.7C280 123.5 279.9 123.4 279.8 123.3C279.8 123.3 277.1 121.1 274.7 119.1C274.6 119 274.5 118.9 274.3 118.8C274.2 118.7 274.2 118.7 274.1 118.7C273.3 118 272.5 117.3 272 116.7C271.9 116.6 271.8 116.5 271.7 116.3C269.4 114 267.7 111.5 266.6 109C266.6 108.9 266.5 108.8 266.5 108.7C263.9 102.6 264.6 95.8004 268.5 88.4004C268.6 88.2004 269.3 87.2004 270.5 85.7004C270.8 85.5004 271.1 85.3004 271.4 84.8004C272 84.1004 272.8 83.3004 273.6 82.5004C273.9 82.2004 274.2 82.0004 274.5 81.7004C277.9 78.7004 283.4 74.9004 291.2 72.5004C290 76.2004 288.1 84.3004 291.7 88.7004C293 90.3004 294.8 91.2004 297.1 91.4004C294.4 92.8004 291.7 94.2004 290.1 95.2004ZM314.1 80.0004C314 80.0004 314 80.1004 314.1 80.0004C313.6 80.9004 312.9 81.8004 312 82.6004C311.5 83.1004 310.9 83.5004 310.3 83.9004C308.1 85.3004 304.8 87.2004 301.4 88.9004C297.7 89.5004 295 88.9004 293.6 87.0004C290.2 82.9004 293.1 73.7004 293.9 71.5004C294 71.5004 294.1 71.4004 294.3 71.4004C295.4 71.1004 296.5 70.9004 297.6 70.7004C298.1 70.6004 298.5 70.6004 299 70.5004C299 70.5004 299.2 70.5004 299.3 70.5004C299.3 70.5004 299.3 70.5004 299.4 70.5004C304.5 70.0004 308.1 70.6004 308.6 70.7004H308.7C309.4 70.8004 310 70.9004 310.7 71.1004C308.8 72.7004 307.3 74.6004 306.1 76.6004C306.1 76.6004 306.1 76.7004 306 76.7004C304.7 79.8004 304.7 79.8004 304.7 79.8004C304.6 80.2004 304.6 80.5004 304.9 80.8004C305.1 81.1004 305.5 81.2004 305.8 81.2004C306.1 81.2004 311 80.4004 315.1 78.0004C314.7 78.9004 314.4 79.5004 314.1 80.0004Z" fill="#054169"/>
<path fill-rule="evenodd" clip-rule="evenodd" d="M232.8 153.5H834V199.6H232.8V153.5Z" fill="#054169"/>
<path fill-rule="evenodd" clip-rule="evenodd" d="M559 81.4996C556.6 81.5996 554.3 80.6996 552.7 78.7996C550.4 76.0996 547 74.5996 543.4 74.5996C539.8 74.5996 536.4 76.0996 534.1 78.7996C532.9 80.1996 531.4 80.9996 529.6 81.3996C529 81.4996 528.5 81.4996 528.5 81.4996H528.4C525.9 81.6996 523.4 80.7996 521.8 78.7996C519.5 76.0996 516.1 74.5996 512.5 74.5996C508.9 74.5996 505.5 76.0996 503.2 78.7996C501.6 80.5996 499.3 81.5996 496.9 81.4996C494.5 81.3996 492.3 80.0996 490.9 78.1996C490.9 80.9996 490.9 80.9996 490.9 80.9996C492.5 82.4996 494.6 83.2996 496.9 83.4996C499.9 83.6996 502.7 82.4996 504.7 80.1996C506.7 77.9996 509.5 76.5996 512.6 76.5996C515.6 76.5996 518.5 77.8996 520.5 80.1996C522.4 82.2996 525 83.4996 527.8 83.4996C528.1 83.4996 528.3 83.4996 528.6 83.4996C528.7 83.4996 529.2 83.4996 529.7 83.3996H529.8C529.9 83.3996 529.9 83.3996 530 83.3996C530.4 83.2996 530.9 83.1996 531.3 82.9996C532.9 82.4996 534.4 81.4996 535.5 80.1996C537.5 77.9996 540.3 76.5996 543.4 76.5996C546.4 76.5996 549.3 77.8996 551.3 80.1996C553.2 82.2996 555.8 83.4996 558.6 83.4996C558.8 83.4996 558.9 83.4996 559.1 83.4996C559 81.4996 559 81.4996 559 81.4996Z" fill="#054169"/>
<path fill-rule="evenodd" clip-rule="evenodd" d="M559 95.9996C556.6 96.0996 554.3 95.0996 552.7 93.2996C550.4 90.5996 547 89.0996 543.4 89.0996C539.8 89.0996 536.4 90.5996 534.1 93.2996C532.9 94.5996 531.4 95.4996 529.6 95.7996C529 95.8996 528.5 95.8996 528.5 95.8996H528.4C525.9 96.0996 523.4 95.1996 521.8 93.2996C519.5 90.5996 516.1 89.0996 512.5 89.0996C508.9 89.0996 505.5 90.5996 503.2 93.2996C501.6 95.0996 499.3 96.0996 496.9 95.9996C494.5 95.8996 492.3 94.5996 490.9 92.6996C490.9 95.4996 490.9 95.4996 490.9 95.4996C492.5 96.9996 494.6 97.7996 496.9 97.9996C499.9 98.0996 502.7 96.8996 504.7 94.6996C506.7 92.3996 509.5 91.0996 512.6 91.0996C515.6 91.0996 518.5 92.3996 520.5 94.6996C522.4 96.7996 525 97.9996 527.8 97.9996C528.1 97.9996 528.3 97.9996 528.6 97.9996C528.7 97.9996 529.2 97.9996 529.7 97.8996H529.8C529.9 97.8996 529.9 97.8996 530 97.8996C530.4 97.7996 530.9 97.6996 531.3 97.4996C532.9 96.9996 534.3 95.9996 535.5 94.6996C537.5 92.3996 540.3 91.0996 543.4 91.0996C546.4 91.0996 549.3 92.3996 551.3 94.6996C553.2 96.7996 555.8 97.9996 558.6 97.9996C558.8 97.9996 558.9 97.9996 559.1 97.9996C559 95.9996 559 95.9996 559 95.9996Z" fill="#054169"/>
<path fill-rule="evenodd" clip-rule="evenodd" d="M559 110.4C556.6 110.5 554.3 109.5 552.7 107.7C550.4 105 547 103.5 543.4 103.5C539.8 103.5 536.4 105 534.1 107.7C532.9 109 531.4 109.9 529.6 110.2C529 110.3 528.5 110.3 528.5 110.3H528.4C525.9 110.6 523.4 109.6 521.8 107.7C519.5 105 516.1 103.5 512.5 103.5C508.9 103.5 505.5 105 503.2 107.7C501.6 109.5 499.3 110.5 496.9 110.4C494.5 110.3 492.3 109 490.9 107C490.9 109.8 490.9 109.8 490.9 109.8C492.5 111.3 494.6 112.1 496.9 112.3C499.9 112.4 502.7 111.3 504.7 109C506.7 106.7 509.5 105.4 512.6 105.4C515.6 105.4 518.5 106.7 520.5 109C522.4 111.1 525 112.3 527.8 112.3C528.1 112.3 528.3 112.3 528.6 112.3C528.7 112.3 529.2 112.3 529.7 112.2H529.8C529.9 112.2 529.9 112.2 530 112.2C530.4 112.1 530.9 112 531.3 111.9C532.9 111.4 534.4 110.4 535.5 109.1C537.5 106.8 540.3 105.5 543.4 105.5C546.4 105.5 549.3 106.8 551.3 109.1C553.2 111.2 555.8 112.4 558.6 112.4C558.8 112.4 558.9 112.4 559.1 112.4C559 110.4 559 110.4 559 110.4Z" fill="#054169"/>
<path fill-rule="evenodd" clip-rule="evenodd" d="M559 124.9C556.6 125 554.3 124.1 552.7 122.2C550.4 119.5 547 118 543.4 118C539.8 118 536.4 119.5 534.1 122.2C532.9 123.6 531.4 124.4 529.6 124.8C529 124.9 528.5 124.9 528.5 124.9H528.4C525.9 125.1 523.4 124.2 521.8 122.2C519.5 119.5 516.1 118 512.5 118C508.9 118 505.5 119.5 503.2 122.2C501.6 124 499.3 125 496.9 124.9C494.5 124.8 492.3 123.5 490.9 121.6C490.9 124.4 490.9 124.4 490.9 124.4C492.5 125.9 494.6 126.7 496.9 126.9C499.9 127.1 502.7 125.9 504.7 123.6C506.7 121.4 509.5 120 512.6 120C515.6 120 518.5 121.3 520.5 123.6C522.4 125.7 525 126.9 527.8 126.9C528.1 126.9 528.3 126.9 528.6 126.9C528.7 126.9 529.2 126.9 529.7 126.8H529.8C529.9 126.8 529.9 126.8 530 126.8C530.4 126.7 530.9 126.6 531.3 126.4C532.9 125.9 534.4 124.9 535.5 123.6C537.5 121.4 540.3 120 543.4 120C546.4 120 549.3 121.3 551.3 123.6C553.2 125.7 555.8 126.9 558.6 126.9C558.8 126.9 558.9 126.9 559.1 126.9C559 124.9 559 124.9 559 124.9Z" fill="#054169"/>
<path d="M30.7002 5V198.4" stroke="#9DDEFA" stroke-miterlimit="10" stroke-linejoin="round"/>
<path d="M61.5 5V198.4" stroke="#9DDEFA" stroke-miterlimit="10" stroke-linejoin="round"/>
<path d="M92.3999 5V198.4" stroke="#9DDEFA" stroke-miterlimit="10" stroke-linejoin="round"/>
<path d="M123.2 5V198.4" stroke="#9DDEFA" stroke-miterlimit="10" stroke-linejoin="round"/>
<path d="M154.1 5V198.4" stroke="#9DDEFA" stroke-miterlimit="10" stroke-linejoin="round"/>
<path d="M1 176.5H215.8" stroke="#9DDEFA" stroke-miterlimit="10" stroke-linejoin="round"/>
<path d="M1 146.2H215.8" stroke="#9DDEFA" stroke-miterlimit="10" stroke-linejoin="round"/>
<path d="M1 115.8H215.8" stroke="#9DDEFA" stroke-miterlimit="10" stroke-linejoin="round"/>
<path d="M1 85.4004H215.8" stroke="#9DDEFA" stroke-miterlimit="10" stroke-linejoin="round"/>
<path d="M1 55H215.8" stroke="#9DDEFA" stroke-miterlimit="10" stroke-linejoin="round"/>
<path d="M1 24.5996H215.8" stroke="#9DDEFA" stroke-miterlimit="10" stroke-linejoin="round"/>
<path d="M1 48.9004C11.3 53.3004 45.5 63.1004 62.7 75.1004C79.9 87.1004 89 113.2 104.2 121C119.4 128.8 135.6 131 154 122.1C172.4 113.2 204.4 76.6004 214.5 67.5004" stroke="#054169" stroke-width="4" stroke-miterlimit="10" stroke-linejoin="round"/>
<path d="M2.2002 2H215.8V199.5H2.2002V2Z" stroke="#054169" stroke-width="4" stroke-miterlimit="10" stroke-linejoin="round"/>
<path d="M657.2 93.3H656.7V93.8V101.4H647.1V93.8V93.3H646.6H639V83.6H646.6H647.1V83.1V75.5H656.7V83.1V83.6H657.2H664.8V93.2L657.2 93.3ZM639.7 92V92.5H640.2H647.8V100.1V100.6H648.3H655.5H656V100.1V92.5H663.6H664.2V92V84.9V84.4H663.7H656.1V76.7V76.2H655.6H648.4H647.9V76.7V84.3H640.2H639.7V84.8V92Z" stroke="#054169" stroke-miterlimit="10"/>
<path d="M639.3 116.3L655 119.3C655 119.3 657.8 118.3 659.2 117C659.9 114.9 657 112.6 655.3 111.7C653.6 110.8 636.2 106.5 634.3 106.2C632.4 105.9 630.2 107.4 630.2 107.4M626.2 122.7C626.2 122.7 646.1 130.4 652.2 129.4C658.3 127.2 676.2 119.2 676.2 119.2C676.2 119.2 676.6 113.8 669.2 114.6C661.6 116.5 654.6 119.2 654.6 119.2M616.5 101.9C616.5 101.9 626.5 101.5 630.8 104.2C630.4 106.7 625.7 124.4 625.7 124.4H616.5V101.9Z" stroke="#054169" stroke-width="2" stroke-miterlimit="10"/>
</svg>
