<svg width="834" height="202" viewBox="0 0 834 202" fill="none" xmlns="http://www.w3.org/2000/svg">
<path fill-rule="evenodd" clip-rule="evenodd" d="M232.8 2H834V48.1H232.8V2Z" fill="#5FBEE6"/>
<path fill-rule="evenodd" clip-rule="evenodd" d="M3.40039 22.5998C3.41352 20.1373 4.39756 17.7795 6.13881 16.0382C7.88006 14.297 10.2379 13.3129 12.7004 13.2998H49.9004C52.3663 13.3149 54.7309 14.2823 56.5004 15.9998C58.2341 17.7586 59.2043 20.1301 59.2004 22.5998V97.7998C59.1873 100.262 58.2032 102.62 56.462 104.361C54.7207 106.103 52.3629 107.087 49.9004 107.1H12.7004C10.2379 107.087 7.88006 106.103 6.13881 104.361C4.39756 102.62 3.41352 100.262 3.40039 97.7998V22.5998Z" fill="#D6F3FF"/>
<path fill-rule="evenodd" clip-rule="evenodd" d="M48.7002 52.4998C48.7028 49.6628 49.831 46.9428 51.8371 44.9367C53.8431 42.9306 56.5632 41.8025 59.4002 41.7998H102C103.393 41.7972 104.773 42.0696 106.06 42.6013C107.347 43.1331 108.517 43.9138 109.501 44.8986C110.486 45.8834 111.267 47.053 111.799 48.3403C112.33 49.6275 112.603 51.0071 112.6 52.3998V142.8C112.598 145.637 111.469 148.357 109.463 150.363C107.457 152.369 104.737 153.497 101.9 153.5H59.4002C56.5632 153.497 53.8431 152.369 51.8371 150.363C49.831 148.357 48.7028 145.637 48.7002 142.8V52.4998Z" fill="#D6F3FF"/>
<path fill-rule="evenodd" clip-rule="evenodd" d="M104.6 95.1998C104.599 93.7024 104.893 92.2194 105.465 90.8357C106.038 89.452 106.877 88.1947 107.936 87.1359C108.995 86.077 110.252 85.2374 111.636 84.6649C113.02 84.0925 114.503 83.7985 116 83.7998H161.4C162.885 83.7959 164.356 84.0855 165.729 84.6519C167.102 85.2184 168.349 86.0506 169.399 87.1007C170.449 88.1508 171.281 89.3981 171.848 90.7708C172.414 92.1436 172.704 93.6148 172.7 95.0998V151.4C172.701 152.897 172.407 154.38 171.835 155.764C171.262 157.148 170.423 158.405 169.364 159.464C168.305 160.523 167.048 161.362 165.664 161.935C164.28 162.507 162.797 162.801 161.3 162.8H115.9C114.403 162.801 112.92 162.507 111.536 161.935C110.152 161.362 108.895 160.523 107.836 159.464C106.777 158.405 105.938 157.148 105.365 155.764C104.793 154.38 104.499 152.897 104.5 151.4V95.1998H104.6Z" fill="#D6F3FF"/>
<path fill-rule="evenodd" clip-rule="evenodd" d="M159.5 51.0998C159.513 48.6373 160.497 46.2795 162.238 44.5382C163.98 42.797 166.338 41.8129 168.8 41.7998H206C208.466 41.8149 210.831 42.7823 212.6 44.4998C214.334 46.2586 215.304 48.6301 215.3 51.0998V126.3C215.287 128.762 214.303 131.12 212.562 132.861C210.82 134.603 208.462 135.587 206 135.6H168.8C166.338 135.587 163.98 134.603 162.238 132.861C160.497 131.12 159.513 128.762 159.5 126.3V51.0998Z" fill="#D6F3FF"/>
<path fill-rule="evenodd" clip-rule="evenodd" d="M746.2 101.9H741.9C741.782 101.9 741.665 101.924 741.556 101.969C741.446 102.014 741.347 102.08 741.264 102.164C741.18 102.248 741.114 102.347 741.068 102.456C741.023 102.565 741 102.682 741 102.8V107.2C741 107.319 741.023 107.436 741.068 107.545C741.114 107.654 741.18 107.753 741.264 107.837C741.347 107.92 741.446 107.987 741.556 108.032C741.665 108.077 741.782 108.1 741.9 108.1H746.2C746.318 108.1 746.435 108.077 746.544 108.032C746.654 107.987 746.753 107.92 746.836 107.837C746.92 107.753 746.986 107.654 747.031 107.545C747.077 107.436 747.1 107.319 747.1 107.2V102.8C747 102.4 746.6 101.9 746.2 101.9ZM745.3 106.4H742.7V103.8H745.3V106.4Z" fill="#054169"/>
<path fill-rule="evenodd" clip-rule="evenodd" d="M757.2 101.9H752.8C752.682 101.9 752.565 101.924 752.456 101.969C752.347 102.014 752.248 102.08 752.164 102.164C752.08 102.248 752.014 102.347 751.969 102.456C751.924 102.565 751.9 102.682 751.9 102.8V107.2C751.9 107.319 751.924 107.436 751.969 107.545C752.014 107.654 752.08 107.753 752.164 107.837C752.248 107.92 752.347 107.987 752.456 108.032C752.565 108.077 752.682 108.1 752.8 108.1H757.2C757.319 108.1 757.436 108.077 757.545 108.032C757.654 107.987 757.753 107.92 757.837 107.837C757.92 107.753 757.987 107.654 758.032 107.545C758.077 107.436 758.1 107.319 758.1 107.2V102.8C758.068 102.573 757.963 102.363 757.8 102.2C757.638 102.038 757.428 101.933 757.2 101.9ZM756.3 106.4H753.7V103.8H756.3V106.4Z" fill="#054169"/>
<path fill-rule="evenodd" clip-rule="evenodd" d="M746.2 93.4004H741.9C741.661 93.4004 741.432 93.4952 741.264 93.664C741.095 93.8328 741 94.0617 741 94.3004V98.7004C741 98.9391 741.095 99.168 741.264 99.3368C741.432 99.5056 741.661 99.6004 741.9 99.6004H746.2C746.439 99.6004 746.668 99.5056 746.836 99.3368C747.005 99.168 747.1 98.9391 747.1 98.7004V94.3004C747.068 94.0732 746.962 93.8626 746.8 93.7003C746.638 93.538 746.427 93.4327 746.2 93.4004ZM745.3 97.8004H742.7V95.2004H745.3V97.8004Z" fill="#054169"/>
<path fill-rule="evenodd" clip-rule="evenodd" d="M757.2 93.4004H752.8C752.562 93.4004 752.333 93.4952 752.164 93.664C751.995 93.8328 751.9 94.0617 751.9 94.3004V98.7004C751.9 98.9391 751.995 99.168 752.164 99.3368C752.333 99.5056 752.562 99.6004 752.8 99.6004H757.2C757.439 99.6004 757.668 99.5056 757.837 99.3368C758.006 99.168 758.1 98.9391 758.1 98.7004V94.3004C758.078 94.0692 757.976 93.8529 757.812 93.6887C757.648 93.5245 757.432 93.4226 757.2 93.4004ZM756.3 97.8004H753.7V95.2004H756.3V97.8004Z" fill="#054169"/>
<path fill-rule="evenodd" clip-rule="evenodd" d="M746.2 84.9004H741.9C741.782 84.9004 741.665 84.9237 741.556 84.9689C741.446 85.0141 741.347 85.0804 741.264 85.164C741.18 85.2476 741.114 85.3468 741.068 85.456C741.023 85.5652 741 85.6822 741 85.8004V90.1004C741 90.3391 741.095 90.568 741.264 90.7368C741.432 90.9056 741.661 91.0004 741.9 91.0004H746.2C746.439 91.0004 746.668 90.9056 746.836 90.7368C747.005 90.568 747.1 90.3391 747.1 90.1004V85.8004C747.068 85.5732 746.962 85.3626 746.8 85.2003C746.638 85.038 746.427 84.9327 746.2 84.9004ZM745.3 89.2004H742.7V86.6004H745.3V89.2004Z" fill="#054169"/>
<path fill-rule="evenodd" clip-rule="evenodd" d="M757.2 84.9004H752.8C752.682 84.9004 752.565 84.9237 752.456 84.9689C752.347 85.0141 752.248 85.0804 752.164 85.164C752.08 85.2476 752.014 85.3468 751.969 85.456C751.924 85.5652 751.9 85.6822 751.9 85.8004V90.1004C751.9 90.3391 751.995 90.568 752.164 90.7368C752.333 90.9056 752.562 91.0004 752.8 91.0004H757.2C757.439 91.0004 757.668 90.9056 757.837 90.7368C758.006 90.568 758.1 90.3391 758.1 90.1004V85.8004C758.078 85.5692 757.976 85.3529 757.812 85.1887C757.648 85.0245 757.432 84.9226 757.2 84.9004ZM756.3 89.2004H753.7V86.6004H756.3V89.2004Z" fill="#054169"/>
<path fill-rule="evenodd" clip-rule="evenodd" d="M784.8 120.9L785.7 120C785.713 120 785.726 119.997 785.738 119.992C785.751 119.987 785.762 119.98 785.771 119.971C785.78 119.962 785.787 119.95 785.793 119.938C785.798 119.926 785.8 119.913 785.8 119.9L786.5 119.3C786.6 119.3 786.6 119.2 786.7 119.2C788 118.1 789.4 117 790.8 116L791.9 115.2C791.927 115.2 791.952 115.19 791.971 115.171C791.99 115.152 792 115.127 792 115.1L792.6 114.7C794.2 113.682 795.871 112.78 797.6 112L798.4 111.6C798.557 111.485 798.683 111.334 798.77 111.16C798.857 110.986 798.902 110.794 798.9 110.6L798.8 109.8V102.3C798.788 102.038 798.682 101.789 798.5 101.6L793 96.1001C792.933 96.0045 792.842 95.9271 792.738 95.8748C792.633 95.8224 792.517 95.7968 792.4 95.8001H782.2L782.1 95.9001L776.7 101.3C776.603 101.388 776.525 101.496 776.473 101.617C776.422 101.738 776.397 101.869 776.4 102V106.1C775.4 105.9 774.3 105.8 773.3 105.7V104C773.38 103.883 773.415 103.741 773.4 103.6L774.9 101.8C775.729 100.816 776.356 99.678 776.745 98.4512C777.133 97.2244 777.276 95.933 777.164 94.651C777.053 93.369 776.69 92.1216 776.095 90.9803C775.501 89.839 774.687 88.8263 773.7 88.0001L772.9 87.3001C772.734 87.1545 772.521 87.0743 772.3 87.0743C772.079 87.0743 771.866 87.1545 771.7 87.3001L770.9 88.0001C769.825 88.9358 768.957 90.0868 768.354 91.3787C767.752 92.6706 767.426 94.0747 767.4 95.5001C767.408 97.822 768.261 100.062 769.8 101.8L771.3 103.6C771.304 103.786 771.375 103.963 771.5 104.1V105.6H769.6C768.4 105.6 767.3 105.7 766.1 105.8V77.0001C766.097 76.8083 766.039 76.6215 765.932 76.462C765.826 76.3024 765.676 76.1768 765.5 76.1001L734.9 67.3001C734.63 67.2339 734.345 67.2695 734.1 67.4001C734.003 67.4882 733.925 67.5963 733.873 67.7172C733.822 67.838 733.797 67.9687 733.8 68.1001V131C733.811 131.164 733.863 131.323 733.95 131.463C734.037 131.602 734.157 131.718 734.3 131.8L735.1 132.3C735.217 132.38 735.359 132.415 735.5 132.4H764.3C764.441 132.415 764.583 132.38 764.7 132.3L765.6 131.9C765.758 131.838 765.893 131.727 765.983 131.583C766.073 131.439 766.114 131.269 766.1 131.1V123.2H767.2C770.97 123.18 774.684 124.108 778 125.9L777.9 126.1C776.503 128.084 775.234 130.155 774.1 132.3C774.018 132.516 774.013 132.753 774.086 132.971C774.159 133.19 774.305 133.377 774.5 133.5C774.617 133.58 774.759 133.615 774.9 133.6C775.064 133.589 775.223 133.538 775.363 133.45C775.502 133.363 775.618 133.243 775.7 133.1C776.781 131.031 777.984 129.028 779.3 127.1L780 126.1L780.5 125.4C781.7 124.1 783.2 122.5 784.8 120.9ZM771 101C770.291 100.202 769.75 99.2685 769.41 98.2561C769.07 97.2437 768.938 96.173 769.022 95.1084C769.107 94.0438 769.405 93.0071 769.899 92.0606C770.394 91.1141 771.074 90.2772 771.9 89.6001L772 89.5001L772.1 89.6001C772.99 90.3733 773.708 91.3246 774.208 92.3925C774.707 93.4605 774.977 94.6213 775 95.8001C775.015 97.6887 774.38 99.525 773.2 101L773 101.2V95.2001C773 95.0819 772.977 94.9649 772.932 94.8557C772.886 94.7465 772.82 94.6473 772.737 94.5637C772.653 94.4801 772.554 94.4138 772.445 94.3686C772.335 94.3234 772.218 94.3001 772.1 94.3001C771.982 94.3001 771.865 94.3234 771.756 94.3686C771.647 94.4138 771.547 94.4801 771.464 94.5637C771.38 94.6473 771.314 94.7465 771.269 94.8557C771.223 94.9649 771.2 95.0819 771.2 95.2001V101.3L771 101ZM796.9 110.5C795.148 111.335 793.445 112.27 791.8 113.3L791.7 113.4L790.9 112.9C790.71 112.798 790.541 112.663 790.4 112.5C790.18 112.345 789.945 112.211 789.7 112.1C789.6 112 789.5 112 789.4 111.9C789.3 111.8 789.2 111.8 789.1 111.7H789L788.9 111.6V103.5H797V110.6L796.9 110.5ZM778 103.4H787.2V110.5L786.9 110.3L785.7 109.7V105.6V105.5V105.1H785.6V105H780.6C780.361 105 780.133 105.095 779.964 105.264C779.795 105.432 779.7 105.661 779.7 105.9V107.5L779.4 107.4C779.1 107.3 778.7 107.2 778.3 107.1H778.1V103.4H778ZM783.8 108.8L783.5 108.7C782.784 108.389 782.049 108.122 781.3 107.9L781.2 107.8V106.6H783.8V108.8ZM792 97.9001L795.7 101.6H788.4L784.7 97.9001H792ZM782.5 98.3001L783.5 99.3001L785.8 101.7H779.2L782.5 98.3001ZM766.1 107.9C767.2 107.8 768.3 107.8 769.4 107.8C776.024 107.754 782.52 109.63 788.1 113.2C788.127 113.2 788.152 113.211 788.171 113.229C788.19 113.248 788.2 113.274 788.2 113.3C788.4 113.4 788.5 113.5 788.7 113.6C788.9 113.7 789.1 113.9 789.3 114C789.327 114 789.352 114.011 789.371 114.029C789.39 114.048 789.4 114.074 789.4 114.1C789.6 114.2 789.8 114.4 790.1 114.6L789.9 114.8C788.401 115.812 786.965 116.914 785.6 118.1C785.5 118.1 785.5 118.2 785.4 118.2L785.2 118.4L784.4 118C784.3 117.9 784.2 117.9 784.1 117.8C783.9 117.7 783.8 117.7 783.7 117.6H783.6C783.49 117.495 783.351 117.425 783.2 117.4H783.1C783 117.3 782.8 117.3 782.7 117.2H782.6C782.5 117.2 782.4 117.1 782.2 117C782.174 117 782.148 116.99 782.129 116.971C782.111 116.952 782.1 116.927 782.1 116.9C782 116.9 781.9 116.8 781.8 116.8C781.7 116.8 781.7 116.7 781.6 116.7H781.5C778.827 115.508 775.999 114.7 773.1 114.3C772.928 114.307 772.757 114.272 772.6 114.2C772.427 114.216 772.254 114.181 772.1 114.1H772C771.8 114.1 771.7 114.1 771.6 114H766.3V108.2L766.1 107.9ZM757.3 119.7V131H750.3V119.7H757.3ZM748.6 131.1H741.6V119.8H748.6V131.1ZM764.1 130.9L763.9 131H759V118.8C759 118.561 758.905 118.332 758.737 118.164C758.568 117.995 758.339 117.9 758.1 117.9H740.6C740.361 117.9 740.133 117.995 739.964 118.164C739.795 118.332 739.7 118.561 739.7 118.8V131H735.4L735.2 130.9V69.7001L764.1 78.0001V130.9ZM766.1 121.8H765.9V115.5H771.3C771.441 115.485 771.583 115.521 771.7 115.6H772.2C772.4 115.6 772.5 115.7 772.7 115.7C775.488 116.113 778.211 116.886 780.8 118C780.9 118 780.9 118.1 781 118.1C781.1 118.1 781.2 118.2 781.3 118.2H781.4C781.5 118.3 781.6 118.3 781.7 118.4H781.8C781.9 118.5 782 118.5 782.2 118.6H782.3C782.4 118.7 782.5 118.7 782.7 118.8H782.8C782.91 118.905 783.05 118.975 783.2 119C783.4 119.1 783.5 119.2 783.7 119.3L783.5 119.5C781.87 121.045 780.365 122.717 779 124.5L778.9 124.6L778.8 124.5C775.195 122.594 771.178 121.598 767.1 121.6C766.79 121.752 766.445 121.821 766.1 121.8Z" fill="#054169"/>
<path fill-rule="evenodd" clip-rule="evenodd" d="M799.8 118.7C799.744 118.598 799.668 118.509 799.576 118.437C799.484 118.366 799.378 118.315 799.265 118.287C799.153 118.259 799.035 118.254 798.921 118.274C798.806 118.293 798.697 118.336 798.6 118.4C792.175 121.818 786.63 126.679 782.4 132.6C782.33 132.691 782.279 132.794 782.252 132.905C782.224 133.016 782.219 133.131 782.238 133.244C782.257 133.357 782.298 133.464 782.361 133.56C782.423 133.656 782.504 133.737 782.6 133.8C782.736 133.926 782.914 133.997 783.1 134C783.242 134.007 783.384 133.973 783.508 133.902C783.632 133.831 783.733 133.727 783.8 133.6C787.959 127.969 793.279 123.297 799.4 119.9C799.594 119.777 799.74 119.59 799.813 119.372C799.886 119.153 799.881 118.916 799.8 118.7Z" fill="#054169"/>
<path fill-rule="evenodd" clip-rule="evenodd" d="M798.5 127.4C796.4 128.902 794.426 130.575 792.6 132.4C792.482 132.531 792.406 132.694 792.38 132.869C792.354 133.043 792.38 133.221 792.455 133.381C792.529 133.541 792.649 133.675 792.799 133.767C792.949 133.86 793.124 133.906 793.3 133.9C793.417 133.903 793.533 133.878 793.637 133.825C793.742 133.773 793.832 133.695 793.9 133.6C795.707 131.893 797.61 130.291 799.6 128.8C799.695 128.737 799.776 128.655 799.839 128.559C799.901 128.464 799.943 128.356 799.961 128.243C799.98 128.131 799.975 128.016 799.948 127.905C799.92 127.794 799.87 127.69 799.8 127.6C799.635 127.428 799.419 127.315 799.184 127.279C798.949 127.243 798.708 127.285 798.5 127.4Z" fill="#054169"/>
<path fill-rule="evenodd" clip-rule="evenodd" d="M392 110L383.2 100.8C383.047 100.678 382.879 100.577 382.7 100.5C381.829 100.391 380.944 100.459 380.1 100.7V84.8996C380.103 84.7826 380.078 84.6666 380.025 84.5619C379.973 84.4573 379.896 84.3671 379.8 84.2996C379.235 83.6327 378.53 83.0987 377.735 82.7357C376.94 82.3727 376.074 82.1896 375.2 82.1996C374.442 82.2689 373.706 82.4906 373.036 82.8515C372.365 83.2124 371.775 83.7049 371.3 84.2996C371.174 84.4749 371.105 84.684 371.1 84.8996V108.7C371.085 108.841 371.121 108.982 371.2 109.1L382.3 129.3V134C382.3 134.238 382.395 134.467 382.564 134.636C382.732 134.805 382.961 134.9 383.2 134.9H399C399.118 134.9 399.235 134.876 399.344 134.831C399.454 134.786 399.553 134.72 399.636 134.636C399.72 134.552 399.786 134.453 399.832 134.344C399.877 134.235 399.9 134.118 399.9 134V121.3C398.546 116.784 395.776 112.822 392 110ZM398.1 133.1H384.1V129.1C384.116 128.927 384.081 128.753 384 128.6L373 108.5V85.2996C373.646 84.5898 374.542 84.1594 375.5 84.0996C376.047 84.1067 376.586 84.2256 377.085 84.4492C377.583 84.6728 378.031 84.9963 378.4 85.3996V102C378.001 102.538 377.722 103.156 377.584 103.812C377.446 104.468 377.452 105.146 377.6 105.8C377.602 105.877 377.62 105.953 377.655 106.022C377.689 106.091 377.739 106.152 377.8 106.2L386.8 116.7C386.959 116.885 387.186 117 387.429 117.019C387.673 117.038 387.914 116.959 388.1 116.8C388.286 116.64 388.401 116.414 388.419 116.17C388.438 115.927 388.359 115.685 388.2 115.5L379.4 105.2C379.293 104.56 379.362 103.903 379.6 103.3C379.719 103.238 379.825 103.154 379.911 103.05C379.997 102.947 380.061 102.828 380.1 102.7C380.736 102.337 381.475 102.196 382.2 102.3L390.8 111.4L390.9 111.5C394.271 114.078 396.809 117.59 398.2 121.6V133.1H398.1Z" fill="#054169"/>
<path fill-rule="evenodd" clip-rule="evenodd" d="M437.5 83.9998C436.527 82.8148 435.126 82.0605 433.6 81.8998C432.726 81.8898 431.861 82.0729 431.066 82.4359C430.271 82.7989 429.565 83.3329 429 83.9998C428.913 84.0746 428.841 84.1663 428.789 84.2693C428.738 84.3724 428.708 84.4848 428.7 84.5998V100.4C427.856 100.159 426.972 100.091 426.1 100.2C425.997 100.198 425.896 100.225 425.807 100.278C425.719 100.331 425.647 100.408 425.6 100.5L416.8 109.7C413.058 112.512 410.294 116.43 408.9 120.9V133.6C408.9 133.838 408.995 134.067 409.164 134.236C409.333 134.405 409.562 134.5 409.8 134.5H425.6C425.839 134.5 426.068 134.405 426.237 134.236C426.406 134.067 426.5 133.838 426.5 133.6V128.9L437.6 108.7C437.68 108.582 437.715 108.441 437.7 108.3V84.4998C437.661 84.3235 437.593 84.1547 437.5 83.9998ZM435.9 108.1L424.8 128.3C424.721 128.417 424.685 128.559 424.7 128.7V132.7H410.7V121.2C412.022 117.155 414.575 113.624 418 111.1L418.1 111L426.7 101.9C427.423 101.855 428.145 101.992 428.8 102.3C428.91 102.541 429.083 102.749 429.3 102.9C429.581 103.492 429.651 104.162 429.5 104.8L420.7 115.1C420.622 115.192 420.562 115.298 420.524 115.413C420.486 115.528 420.472 115.65 420.481 115.771C420.49 115.891 420.523 116.009 420.578 116.117C420.633 116.225 420.708 116.321 420.8 116.4C420.892 116.479 420.999 116.539 421.114 116.576C421.229 116.614 421.35 116.628 421.471 116.619C421.592 116.61 421.71 116.577 421.818 116.522C421.925 116.467 422.022 116.392 422.1 116.3L431.1 105.8C431.206 105.69 431.275 105.55 431.3 105.4C431.449 104.746 431.454 104.068 431.316 103.412C431.178 102.756 430.9 102.138 430.5 101.6V84.9998C430.869 84.5965 431.317 84.273 431.816 84.0494C432.315 83.8258 432.854 83.7068 433.4 83.6998C434.333 83.8468 435.202 84.264 435.9 84.8998V108.1Z" fill="#054169"/>
<path fill-rule="evenodd" clip-rule="evenodd" d="M412.4 107.8C417.5 104.9 419.1 97.7004 419.1 97.5004C419.136 97.3837 419.146 97.2602 419.129 97.1391C419.112 97.018 419.068 96.9023 419 96.8004C418.932 96.6968 418.844 96.6079 418.741 96.5392C418.637 96.4705 418.522 96.4233 418.4 96.4004C411.8 95.5004 407.7 98.4004 405.4 101.3V93.2004C406.218 93.3987 407.058 93.4994 407.9 93.5004C409.513 93.52 411.102 93.1055 412.5 92.3004C417.6 89.4004 419.2 82.2004 419.2 81.9004C419.232 81.7832 419.24 81.6604 419.223 81.54C419.206 81.4195 419.164 81.3039 419.1 81.2004C419.032 81.0968 418.944 81.0079 418.841 80.9392C418.737 80.8705 418.622 80.8233 418.5 80.8004C411.9 79.9004 407.8 82.8004 405.5 85.7004V77.3004C406.15 77.4906 406.823 77.5916 407.5 77.6004C408.582 77.5839 409.645 77.3097 410.6 76.8004C414.3 74.8004 415.4 69.7004 415.4 69.5004C415.432 69.3832 415.44 69.2604 415.423 69.14C415.406 69.0195 415.364 68.9039 415.3 68.8004C415.2 68.6004 414.9 68.5004 414.7 68.4004C413.256 68.1696 411.779 68.2654 410.377 68.6807C408.976 69.0961 407.685 69.8204 406.6 70.8004C405.811 71.5656 405.137 72.4414 404.6 73.4004C404.063 72.4414 403.389 71.5656 402.6 70.8004C401.523 69.8079 400.233 69.0754 398.829 68.6594C397.424 68.2433 395.944 68.1547 394.5 68.4004C394.378 68.4197 394.262 68.4647 394.159 68.5323C394.056 68.5999 393.968 68.6886 393.902 68.7927C393.836 68.8967 393.792 69.0136 393.775 69.1356C393.757 69.2576 393.766 69.382 393.8 69.5004C393.8 69.7004 395 74.8004 398.6 76.8004C400.17 77.6248 402 77.8041 403.7 77.3004V85.7004C402.18 83.7822 400.168 82.3129 397.878 81.4498C395.589 80.5867 393.107 80.3623 390.7 80.8004C390.578 80.8197 390.462 80.8647 390.359 80.9323C390.256 80.9999 390.168 81.0886 390.102 81.1927C390.036 81.2967 389.992 81.4136 389.975 81.5356C389.957 81.6576 389.966 81.782 390 81.9004C390 82.2004 391.6 89.3004 396.7 92.3004C398.861 93.5064 401.406 93.8289 403.8 93.2004V101.3C402.28 99.3822 400.268 97.9129 397.978 97.0498C395.689 96.1867 393.207 95.9623 390.8 96.4004C390.678 96.4197 390.562 96.4647 390.459 96.5323C390.356 96.5999 390.268 96.6886 390.202 96.7927C390.136 96.8967 390.092 97.0136 390.075 97.1356C390.057 97.2576 390.066 97.382 390.1 97.5004C390.1 97.8004 391.7 104.9 396.8 107.8C398.961 109.006 401.506 109.329 403.9 108.7V118.1C403.9 118.339 403.995 118.568 404.163 118.737C404.332 118.906 404.561 119 404.8 119C405.038 119 405.267 118.906 405.436 118.737C405.605 118.568 405.7 118.339 405.7 118.1V108.7C406.518 108.899 407.358 108.999 408.2 109C409.677 108.951 411.12 108.539 412.4 107.8ZM417.1 82.5004C416.5 84.4004 414.9 88.8004 411.5 90.7004C410.557 91.2031 409.523 91.5148 408.46 91.6178C407.396 91.7207 406.322 91.6129 405.3 91.3004V88.9004C407.2 85.7004 410.7 82.0004 417.1 82.5004ZM413.2 70.2004C412.7 71.6004 411.6 74.2004 409.5 75.3004C408.865 75.608 408.175 75.7843 407.47 75.8186C406.766 75.853 406.061 75.7448 405.4 75.5004C405.977 73.909 407.042 72.5402 408.442 71.5887C409.843 70.6372 411.507 70.1514 413.2 70.2004ZM399.3 75.3004C397.2 74.2004 396.1 71.6004 395.6 70.2004C397.292 70.1514 398.957 70.6372 400.357 71.5887C401.757 72.5402 402.822 73.909 403.4 75.5004C402.738 75.7448 402.034 75.853 401.329 75.8186C400.625 75.7843 399.935 75.608 399.3 75.3004ZM397.4 90.7004C394 88.7004 392.4 84.4004 391.8 82.5004C398.2 82.0004 401.7 85.6004 403.6 89.0004V91.4004C402.575 91.7228 401.494 91.8271 400.426 91.7066C399.358 91.586 398.327 91.2433 397.4 90.7004ZM397.4 106.2C394 104.3 392.4 99.9004 391.8 98.0004C398.2 97.5004 401.7 101.1 403.6 104.4V106.8C402.586 107.163 401.504 107.297 400.433 107.193C399.361 107.089 398.325 106.75 397.4 106.2ZM405.3 104.5C406.378 102.356 408.086 100.594 410.196 99.4495C412.305 98.3053 414.715 97.8345 417.1 98.1004C416.5 100 414.9 104.4 411.5 106.3C409.594 107.302 407.381 107.551 405.3 107V104.5Z" fill="#054169"/>
<path fill-rule="evenodd" clip-rule="evenodd" d="M298.2 74.0996C298.205 73.7564 298.344 73.4287 298.587 73.1861C298.829 72.9434 299.157 72.8048 299.5 72.7996C299.672 72.7829 299.845 72.811 300.003 72.8811C300.161 72.9512 300.297 73.0609 300.4 73.1996C300.632 73.4456 300.773 73.7629 300.8 74.0996C300.8 74.4444 300.663 74.775 300.419 75.0188C300.176 75.2626 299.845 75.3996 299.5 75.3996C299.155 75.3996 298.825 75.2626 298.581 75.0188C298.337 74.775 298.2 74.4444 298.2 74.0996Z" fill="#054169"/>
<path fill-rule="evenodd" clip-rule="evenodd" d="M288.8 90.4C285.384 92.17 281.449 92.6663 277.7 91.8C281.4 87.1 287 85.7 287 85.6C287.25 85.5297 287.462 85.3653 287.593 85.1414C287.723 84.9175 287.762 84.6517 287.7 84.4C287.681 84.2681 287.632 84.1422 287.557 84.0318C287.482 83.9213 287.384 83.8291 287.268 83.7619C287.153 83.6947 287.024 83.6542 286.891 83.6435C286.758 83.6328 286.625 83.6521 286.5 83.7C281.829 84.9555 277.776 87.8709 275.1 91.9C275.014 92.0316 274.96 92.1817 274.943 92.338C274.925 92.4944 274.945 92.6527 275 92.8C275.043 92.9416 275.121 93.0705 275.225 93.1752C275.33 93.2798 275.459 93.357 275.6 93.4C277.445 93.9818 279.366 94.2851 281.3 94.3C284.229 94.2863 287.11 93.5659 289.7 92.2C289.939 92.0807 290.121 91.8714 290.205 91.6182C290.289 91.365 290.27 91.0887 290.15 90.85C290.031 90.6113 289.822 90.4298 289.569 90.3454C289.315 90.261 289.039 90.2807 288.8 90.4Z" fill="#054169"/>
<path fill-rule="evenodd" clip-rule="evenodd" d="M317.4 74.8005C317.21 74.6841 316.983 74.6403 316.763 74.677C316.543 74.7138 316.343 74.8286 316.2 75.0005C313.7 77.3005 309.6 78.6005 307.2 79.2005L307.7 77.9005C308.935 75.7776 310.564 73.9107 312.5 72.4005C312.729 72.1934 312.872 71.9079 312.9 71.6005C312.9 71.0005 312.6 70.1005 311.2 69.5005C311.1 69.5005 311.1 69.4005 311 69.4005C310.277 69.219 309.542 69.0854 308.8 69.0005C305.53 68.4439 302.198 68.343 298.9 68.7005H298.4C297.909 68.8227 297.406 68.8898 296.9 68.9005C295.8 69.1005 294.6 69.3005 293.5 69.6005C290.254 70.3492 287.102 71.4559 284.1 72.9005C280.552 71.4584 276.722 70.8429 272.9 71.1005C272.673 71.1328 272.462 71.238 272.3 71.4003C272.138 71.5626 272.033 71.7732 272 72.0005C272 72.0005 271.8 74.8005 271.3 77.7005C271.071 79.5539 270.601 81.3693 269.9 83.1005C268.745 84.3601 267.676 85.6965 266.7 87.1005C262.9 94.4005 262 101.4 264 107.7C264.2 108.3 264.4 108.8 264.6 109.3C264.6 111.2 264.6 117.1 265.8 118.9C265.94 119.105 266.144 119.255 266.38 119.328C266.616 119.401 266.87 119.391 267.1 119.3C268.06 118.993 269.076 118.896 270.077 119.016C271.078 119.137 272.041 119.473 272.9 120C275.1 121.9 277.6 123.9 278.3 124.5C281 130 283.4 133.2 285.7 134.3C286.193 134.562 286.742 134.699 287.3 134.7C287.676 134.701 288.049 134.633 288.4 134.5C288.905 134.288 289.36 133.974 289.739 133.579C290.117 133.183 290.411 132.714 290.6 132.2L290.7 132C291.432 126.636 293.054 121.431 295.5 116.6C296.6 114.5 296.9 113 296.3 111.9C296.135 111.628 295.917 111.39 295.66 111.201C295.402 111.013 295.11 110.876 294.8 110.8C290.8 109.9 283.5 113.6 282.2 114.3C282 114.3 281.9 114.4 281.7 114.4C280.826 114.324 279.957 114.19 279.1 114C279 114 279 113.9 278.9 113.9C278.573 113.573 278.316 113.183 278.144 112.753C277.972 112.323 277.889 111.863 277.9 111.4V111.3C277.73 110.086 277.867 108.848 278.3 107.7C279.1 107.2 281.1 107.3 282.3 107.6C282.502 107.658 282.717 107.65 282.915 107.578C283.112 107.506 283.282 107.374 283.4 107.2C283.522 107.043 283.588 106.85 283.588 106.65C283.588 106.451 283.522 106.258 283.4 106.1C283 105.5 283.9 102.8 285.2 100.3C285.748 99.9359 286.316 99.602 286.9 99.3005H287C288.4 98.4005 289.8 97.5005 291 96.8005C292.7 95.8005 295.6 94.2005 298.7 92.6005C299.7 92.1005 300.8 91.5005 301.8 91.0005C301.878 90.999 301.954 90.9803 302.023 90.9457C302.092 90.9111 302.153 90.8615 302.2 90.8005C305.5 89.0005 308.9 87.2005 311.1 85.7005C311.776 85.2565 312.412 84.7547 313 84.2005L313.1 84.1005C314.068 83.2087 314.879 82.1608 315.5 81.0005C316.488 79.3976 317.198 77.6396 317.6 75.8005C318 75.5005 317.8 75.0005 317.4 74.8005ZM273.5 78.1005C273.8 76.1005 274 74.2005 274.1 73.1005C276.575 72.9748 279.051 73.314 281.4 74.1005C278.381 75.8056 275.592 77.8891 273.1 80.3005C273.291 79.5787 273.424 78.8431 273.5 78.1005ZM267.5 117.3C267.195 116.056 267.028 114.782 267 113.5C267.89 114.76 268.859 115.963 269.9 117.1C269.095 117.054 268.287 117.122 267.5 117.3ZM281.5 105.6C281.1 105.6 280.7 105.5 280.2 105.5H279.8C280.455 104.632 281.192 103.828 282 103.1C281.8 104 281.6 104.8 281.5 105.6ZM290.1 95.2005C288.8 96.0005 287.4 96.9005 286 97.7005C285.4 98.1005 283.9 98.9005 282.6 99.9005L282.4 100C282.349 100.005 282.3 100.027 282.264 100.064C282.227 100.101 282.205 100.149 282.2 100.2C278.9 102.8 275.2 106.8 275.9 111.7C275.911 112.206 275.978 112.709 276.1 113.2C274.708 112.618 273.572 111.553 272.9 110.2C270.4 105.2 275.7 97.2005 275.8 97.1005C275.874 96.9894 275.925 96.8646 275.95 96.7335C275.975 96.6024 275.973 96.4677 275.945 96.3372C275.917 96.2068 275.864 96.0832 275.787 95.9739C275.711 95.8645 275.613 95.7715 275.5 95.7005C275.389 95.6266 275.264 95.5757 275.133 95.5508C275.002 95.5259 274.868 95.5274 274.737 95.5554C274.607 95.5833 274.483 95.6371 274.374 95.7136C274.264 95.79 274.171 95.8875 274.1 96.0005C273.9 96.4005 268.2 105 271.1 111.1C272.3 113.6 274.8 115.2 278.4 116.1C279.463 116.587 280.642 116.761 281.8 116.6H281.9C282.2 116.6 282.4 116.5 282.8 116.5C282.9 116.5 283 116.4 283.1 116.4C285.3 115.2 291.6 112.3 294.4 113H294.5V113.1C294.5 113.2 294.8 113.8 293.7 115.8C291.143 120.813 289.452 126.223 288.7 131.8C288.5 132.1 288.2 132.7 287.7 132.9C287.335 133.011 286.94 132.976 286.6 132.8C284.7 131.9 282.5 128.8 280.1 123.7C280.025 123.55 279.924 123.414 279.8 123.3C279.8 123.3 277.1 121.1 274.7 119.1C274.586 118.977 274.451 118.875 274.3 118.8C274.2 118.7 274.2 118.7 274.1 118.7C273.355 118.084 272.653 117.415 272 116.7C271.877 116.587 271.775 116.451 271.7 116.3C269.564 114.203 267.835 111.728 266.6 109C266.6 108.9 266.5 108.8 266.5 108.7C263.9 102.6 264.6 95.8005 268.5 88.4005C269.115 87.4629 269.783 86.5615 270.5 85.7005C270.872 85.4814 271.181 85.1717 271.4 84.8005C272 84.1005 272.8 83.3005 273.6 82.5005C273.9 82.2005 274.2 82.0005 274.5 81.7005C279.352 77.4855 285.045 74.3496 291.2 72.5005C290 76.2005 288.1 84.3005 291.7 88.7005C292.363 89.502 293.185 90.1562 294.115 90.6211C295.045 91.0861 296.062 91.3516 297.1 91.4005C294.4 92.8005 291.7 94.2005 290.1 95.2005ZM314.1 80.0005C314 80.0005 314 80.1005 314.1 80.0005C313.551 80.9788 312.841 81.8577 312 82.6005C311.478 83.0884 310.908 83.5238 310.3 83.9005C308.1 85.3005 304.8 87.2005 301.4 88.9005C297.7 89.5005 295 88.9005 293.6 87.0005C290.2 82.9005 293.1 73.7005 293.9 71.5005C294 71.5005 294.1 71.4005 294.3 71.4005C295.4 71.1005 296.5 70.9005 297.6 70.7005C298.1 70.6005 298.5 70.6005 299 70.5005H299.4C302.462 70.1604 305.556 70.2277 308.6 70.7005H308.7C309.376 70.7855 310.044 70.9192 310.7 71.1005C308.873 72.6666 307.319 74.5252 306.1 76.6005C306.1 76.627 306.09 76.6524 306.071 76.6712C306.052 76.6899 306.027 76.7005 306 76.7005L304.7 79.8005C304.631 79.9683 304.613 80.1528 304.649 80.3307C304.685 80.5086 304.772 80.6721 304.9 80.8005C305.008 80.9331 305.146 81.0384 305.303 81.1079C305.459 81.1774 305.629 81.2091 305.8 81.2005C309.065 80.6909 312.213 79.6075 315.1 78.0005C314.808 78.6869 314.474 79.3548 314.1 80.0005Z" fill="#054169"/>
<path fill-rule="evenodd" clip-rule="evenodd" d="M670.3 76.7003C667.135 73.5355 663.378 71.025 659.243 69.3121C655.107 67.5993 650.676 66.7178 646.2 66.7178C641.724 66.7178 637.292 67.5993 633.157 69.3121C629.022 71.025 625.265 73.5355 622.1 76.7003C618.935 79.8652 616.424 83.6224 614.712 87.7575C612.999 91.8926 612.117 96.3245 612.117 100.8C612.117 105.276 612.999 109.708 614.712 113.843C616.424 117.978 618.935 121.735 622.1 124.9C625.259 128.075 629.014 130.594 633.15 132.313C637.286 134.032 641.721 134.917 646.2 134.917C650.679 134.917 655.113 134.032 659.249 132.313C663.385 130.594 667.14 128.075 670.3 124.9C673.474 121.741 675.994 117.986 677.713 113.85C679.432 109.714 680.317 105.279 680.317 100.8C680.317 96.3215 679.432 91.8867 677.713 87.7509C675.994 83.6151 673.474 79.8596 670.3 76.7003ZM646.3 132.8C639.971 132.8 633.784 130.924 628.521 127.407C623.259 123.891 619.158 118.893 616.736 113.046C614.314 107.199 613.68 100.765 614.915 94.5574C616.149 88.35 619.197 82.6482 623.672 78.1729C628.148 73.6976 633.849 70.6499 640.057 69.4152C646.264 68.1805 652.698 68.8142 658.546 71.2362C664.393 73.6582 669.391 77.7597 672.907 83.0221C676.423 88.2844 678.3 94.4713 678.3 100.8C678.3 109.287 674.928 117.427 668.927 123.428C662.926 129.429 654.787 132.8 646.3 132.8Z" fill="#054169"/>
<path fill-rule="evenodd" clip-rule="evenodd" d="M633.6 96.9996H633.5L634.6 95.5996C634.6 95.4996 634.7 95.3996 634.7 95.2996C635.1 94.4996 638 86.6996 637.1 82.9996C637.159 82.8223 637.161 82.6312 637.108 82.4523C637.054 82.2734 636.946 82.1154 636.8 81.9996C636.696 81.8995 636.567 81.8283 636.426 81.7932C636.286 81.7582 636.139 81.7604 636 81.7996C635.923 81.7923 635.852 81.7567 635.8 81.6996C634.8 81.4996 633.1 81.6996 628.3 86.0996C625.8 88.3996 623.6 90.6996 623.5 90.7996C623.3 91.0173 623.192 91.3041 623.2 91.5996V94.2996L622.8 94.4996C622.649 94.5744 622.514 94.6761 622.4 94.7996C621.1 96.3996 620.6 100.1 620.5 100.5C620.458 100.782 620.53 101.07 620.7 101.3L621.1 101.7L620.9 101.9C620.757 102.022 620.646 102.176 620.577 102.35C620.507 102.525 620.481 102.713 620.5 102.9C620.621 103.856 620.989 104.765 621.568 105.536C622.146 106.308 622.916 106.915 623.8 107.3C623.565 108.99 623.431 110.693 623.4 112.4C623.391 112.533 623.411 112.667 623.458 112.793C623.505 112.918 623.578 113.032 623.673 113.126C623.768 113.221 623.882 113.294 624.007 113.342C624.132 113.389 624.266 113.408 624.4 113.4C624.665 113.4 624.919 113.294 625.107 113.107C625.295 112.919 625.4 112.665 625.4 112.4C625.435 110.859 625.568 109.323 625.8 107.8H626.1C626.826 107.777 627.541 107.607 628.2 107.3C632 105.4 634 98.6996 634.1 98.3996C634.3 97.6996 634.1 97.1996 633.6 96.9996ZM622.7 102.9L623.2 102.5C623.312 102.417 623.405 102.312 623.474 102.192C623.542 102.071 623.585 101.938 623.6 101.8C623.642 101.517 623.57 101.229 623.4 101L622.6 100.1C622.79 98.6674 623.23 97.2797 623.9 95.9996L624.7 95.5996C624.884 95.5059 625.037 95.3625 625.143 95.1857C625.249 95.0089 625.304 94.8058 625.3 94.5996L625.2 91.6996C625.9 90.9996 627.6 89.2996 629.5 87.4996C630.619 86.4361 631.823 85.4662 633.1 84.5996C629.164 89.8029 626.339 95.7594 624.8 102.1C624.6 103.1 624.4 104 624.2 104.8C623.832 104.604 623.508 104.335 623.25 104.008C622.992 103.68 622.804 103.303 622.7 102.9ZM630.9 97.4996C630.941 97.6539 631.016 97.7971 631.12 97.9183C631.224 98.0395 631.354 98.1356 631.5 98.1996L631.9 98.3996C631.1 100.5 629.4 104.1 627.3 105.3C626.96 105.479 626.584 105.582 626.2 105.6C626.4 104.7 626.6 103.7 626.8 102.7C628.37 96.4129 631.231 90.5215 635.2 85.3996C634.791 88.5124 634.019 91.5665 632.9 94.4996L631.2 96.7996C631.133 96.8237 631.071 96.8615 631.019 96.9104C630.967 96.9594 630.926 97.0186 630.897 97.0843C630.869 97.15 630.855 97.2207 630.855 97.2922C630.856 97.3637 630.871 97.4343 630.9 97.4996Z" fill="#054169"/>
<path fill-rule="evenodd" clip-rule="evenodd" d="M655 110.3C653.885 110.304 652.786 110.578 651.8 111.1C651.218 111.385 650.706 111.795 650.3 112.3L647 115.6L643.7 112.3C643.3 111.9 642.7 111.5 642.2 111.1C641.196 110.532 640.053 110.255 638.9 110.3C637.123 110.3 635.419 111.005 634.163 112.262C632.906 113.518 632.2 115.223 632.2 117C632.2 118.777 632.906 120.481 634.163 121.737C635.419 122.994 637.123 123.7 638.9 123.7C640.046 123.684 641.174 123.41 642.2 122.9C642.756 122.616 643.262 122.244 643.7 121.8L647 118.5L650.3 121.8C650.757 122.221 651.26 122.59 651.8 122.9C652.773 123.456 653.88 123.732 655 123.7C656.777 123.7 658.481 122.994 659.738 121.737C660.994 120.481 661.7 118.777 661.7 117C661.7 115.223 660.994 113.518 659.738 112.262C658.481 111.005 656.777 110.3 655 110.3ZM642.1 120.3C641.792 120.596 641.457 120.864 641.1 121.1C640.398 121.495 639.606 121.702 638.8 121.7C637.554 121.7 636.358 121.204 635.477 120.323C634.595 119.442 634.1 118.246 634.1 117C634.1 115.753 634.595 114.558 635.477 113.676C636.358 112.795 637.554 112.3 638.8 112.3C639.606 112.297 640.398 112.504 641.1 112.9C641.475 113.11 641.813 113.38 642.1 113.7L645.4 117L642.1 120.3ZM655 121.7C654.196 121.69 653.406 121.484 652.7 121.1C652.325 120.89 651.987 120.619 651.7 120.3L648.4 117L651.7 113.7C652.008 113.403 652.343 113.135 652.7 112.9C653.402 112.504 654.194 112.297 655 112.3C656.247 112.3 657.442 112.795 658.324 113.676C659.205 114.558 659.7 115.753 659.7 117C659.7 118.246 659.205 119.442 658.324 120.323C657.442 121.204 656.247 121.7 655 121.7Z" fill="#054169"/>
<path fill-rule="evenodd" clip-rule="evenodd" d="M667.3 85.7998C658.97 85.4135 650.624 85.4802 642.3 85.9998C642.136 86.0109 641.977 86.0623 641.838 86.1495C641.698 86.2368 641.582 86.3571 641.5 86.4998C641.409 86.6293 641.352 86.7796 641.335 86.937C641.317 87.0943 641.34 87.2535 641.4 87.3998L642.2 89.9998C642.26 90.2224 642.389 90.4201 642.569 90.564C642.749 90.708 642.97 90.7906 643.2 90.7998L666.2 91.0998C666.414 91.0833 666.62 91.0096 666.796 90.8865C666.972 90.7633 667.112 90.5953 667.2 90.3998L668.3 87.1998C668.356 87.0525 668.375 86.8942 668.358 86.7378C668.341 86.5815 668.287 86.4314 668.2 86.2998C667.976 86.0233 667.654 85.8441 667.3 85.7998ZM665.4 88.9998L643.9 88.6998L643.7 87.9998C652.1 87.3998 662.2 87.6998 665.8 87.7998L665.4 88.9998Z" fill="#054169"/>
<path fill-rule="evenodd" clip-rule="evenodd" d="M650.6 84.5996H658C658.157 84.6075 658.313 84.5748 658.453 84.5047C658.593 84.4346 658.713 84.3295 658.8 84.1996C658.903 84.0767 658.975 83.9307 659.01 83.774C659.045 83.6174 659.042 83.4547 659 83.2996L658 77.6996C657.953 77.4703 657.828 77.2647 657.645 77.1185C657.462 76.9724 657.234 76.8949 657 76.8996H651.6C651.366 76.8949 651.138 76.9724 650.955 77.1185C650.773 77.2647 650.647 77.4703 650.6 77.6996C650.5 78.0996 649.5 82.0996 649.7 83.6996C649.6 84.1996 650.1 84.5996 650.6 84.5996ZM652.4 78.9996H656.2L656.8 82.4996H651.7C651.847 81.3172 652.081 80.1474 652.4 78.9996Z" fill="#054169"/>
<path fill-rule="evenodd" clip-rule="evenodd" d="M662.8 97.6002C662.582 97.4002 662.295 97.2927 662 97.3002L656.5 97.6002C656.261 97.6002 656.032 97.695 655.863 97.8638C655.694 98.0326 655.6 98.2615 655.6 98.5002L655.1 105.3C655.106 105.578 655.175 105.852 655.3 106.1C655.517 106.3 655.804 106.408 656.1 106.4H662.4C662.548 106.416 662.698 106.398 662.839 106.349C662.979 106.299 663.107 106.218 663.212 106.113C663.318 106.007 663.398 105.88 663.448 105.739C663.498 105.598 663.515 105.448 663.5 105.3L663.3 98.2002C663.1 98.0002 663 97.8002 662.8 97.6002ZM657.2 104.4L657.6 99.6002L661.2 99.4002L661.4 104.4H657.2Z" fill="#054169"/>
<path fill-rule="evenodd" clip-rule="evenodd" d="M647.7 106.5H653.1C653.348 106.501 653.589 106.409 653.774 106.243C653.958 106.077 654.075 105.847 654.1 105.6L655 98.7996C655.041 98.517 654.969 98.2293 654.8 97.9996C654.593 97.7706 654.307 97.6278 654 97.5996L647.7 97.8996C647.434 97.8996 647.18 98.005 646.992 98.1925C646.805 98.38 646.7 98.6344 646.7 98.8996V105.4C646.692 105.695 646.8 105.982 647 106.2C647.081 106.305 647.188 106.388 647.31 106.441C647.433 106.493 647.567 106.514 647.7 106.5ZM648.8 99.9996L652.8 99.7996L652.2 104.4H648.8V99.9996Z" fill="#054169"/>
<path fill-rule="evenodd" clip-rule="evenodd" d="M663.9 92.0004L645.3 91.7004C645.143 91.6925 644.987 91.7252 644.847 91.7953C644.707 91.8654 644.587 91.9705 644.5 92.1004C644.4 92.2047 644.328 92.3334 644.293 92.4738C644.258 92.6141 644.26 92.7612 644.3 92.9004L645.1 96.4004C645.146 96.6296 645.272 96.8353 645.455 96.9814C645.638 97.1276 645.866 97.2051 646.1 97.2004L663.9 96.3004C664.165 96.3004 664.419 96.195 664.607 96.0075C664.794 95.8199 664.9 95.5656 664.9 95.3004V93.0004C664.909 92.8668 664.889 92.7328 664.842 92.6075C664.795 92.4821 664.721 92.3683 664.626 92.2736C664.532 92.179 664.418 92.1056 664.293 92.0585C664.167 92.0113 664.033 91.9915 663.9 92.0004ZM662.9 94.4004L646.9 95.2004L646.6 93.9004L662.9 94.1004V94.4004Z" fill="#054169"/>
<path fill-rule="evenodd" clip-rule="evenodd" d="M232.8 153.5H834V199.6H232.8V153.5Z" fill="#054169"/>
<path fill-rule="evenodd" clip-rule="evenodd" d="M559 81.4997C557.813 81.5683 556.626 81.3601 555.533 80.8915C554.439 80.423 553.47 79.7069 552.7 78.7997C551.537 77.4803 550.106 76.4236 548.502 75.6997C546.899 74.9759 545.16 74.6016 543.4 74.6016C541.641 74.6016 539.902 74.9759 538.299 75.6997C536.695 76.4236 535.264 77.4803 534.1 78.7997C532.935 80.1467 531.35 81.0624 529.6 81.3997C529.237 81.4602 528.869 81.4936 528.5 81.4997H528.4C527.163 81.6256 525.914 81.4452 524.763 80.9743C523.612 80.5035 522.595 79.7566 521.8 78.7997C520.637 77.4803 519.206 76.4236 517.602 75.6997C515.999 74.9759 514.26 74.6016 512.5 74.6016C510.741 74.6016 509.002 74.9759 507.399 75.6997C505.795 76.4236 504.364 77.4803 503.2 78.7997C502.425 79.6991 501.455 80.4098 500.364 80.878C499.273 81.3462 498.09 81.5595 496.904 81.5016C495.718 81.4438 494.561 81.1163 493.521 80.5442C492.48 79.972 491.584 79.1702 490.9 78.1997V80.9997C492.56 82.4873 494.675 83.3685 496.9 83.4997C498.368 83.5991 499.839 83.3523 501.194 82.7791C502.548 82.2059 503.75 81.3223 504.7 80.1997C505.692 79.08 506.907 78.1809 508.268 77.5608C509.629 76.9406 511.105 76.6132 512.6 76.5997C514.098 76.6012 515.578 76.9232 516.94 77.5441C518.303 78.1651 519.517 79.0706 520.5 80.1997C521.416 81.2334 522.539 82.0619 523.797 82.6306C525.056 83.1994 526.42 83.4955 527.8 83.4997H528.6C528.969 83.5006 529.338 83.4672 529.7 83.3997H530C530.447 83.3124 530.882 83.1784 531.3 82.9997C532.935 82.4772 534.39 81.5072 535.5 80.1997C536.492 79.08 537.707 78.1809 539.068 77.5608C540.429 76.9406 541.905 76.6132 543.4 76.5997C544.898 76.6012 546.378 76.9232 547.74 77.5441C549.103 78.1651 550.317 79.0706 551.3 80.1997C552.216 81.2334 553.339 82.0619 554.597 82.6306C555.855 83.1994 557.22 83.4955 558.6 83.4997H559.1L559 81.4997Z" fill="#054169"/>
<path fill-rule="evenodd" clip-rule="evenodd" d="M559 95.9997C557.816 96.0445 556.636 95.8256 555.547 95.3586C554.457 94.8917 553.485 94.1884 552.7 93.2997C551.537 91.9803 550.106 90.9236 548.502 90.1997C546.899 89.4759 545.16 89.1016 543.4 89.1016C541.641 89.1016 539.902 89.4759 538.299 90.1997C536.695 90.9236 535.264 91.9803 534.1 93.2997C532.927 94.6183 531.34 95.4997 529.6 95.7997C529.237 95.8602 528.869 95.8936 528.5 95.8997H528.4C527.173 96.0214 525.934 95.849 524.786 95.3969C523.639 94.9447 522.615 94.2259 521.8 93.2997C520.637 91.9803 519.206 90.9236 517.602 90.1997C515.999 89.4759 514.26 89.1016 512.5 89.1016C510.741 89.1016 509.002 89.4759 507.399 90.1997C505.795 90.9236 504.364 91.9803 503.2 93.2997C502.425 94.1991 501.455 94.9098 500.364 95.378C499.273 95.8462 498.09 96.0595 496.904 96.0016C495.718 95.9438 494.561 95.6163 493.521 95.0442C492.48 94.472 491.584 93.6702 490.9 92.6997V95.4997C492.56 96.9873 494.675 97.8685 496.9 97.9997C498.363 98.0539 499.819 97.7865 501.167 97.2163C502.515 96.6461 503.721 95.787 504.7 94.6997C505.677 93.5624 506.89 92.6512 508.254 92.0295C509.618 91.4079 511.101 91.0906 512.6 91.0997C514.098 91.1012 515.578 91.4232 516.94 92.0441C518.303 92.6651 519.517 93.5706 520.5 94.6997C521.416 95.7334 522.539 96.5619 523.797 97.1306C525.056 97.6994 526.42 97.9955 527.8 97.9997H528.6C528.969 98.0006 529.338 97.9672 529.7 97.8997H530C530.447 97.8124 530.882 97.6784 531.3 97.4997C532.922 96.9521 534.371 95.9863 535.5 94.6997C536.477 93.5624 537.69 92.6512 539.054 92.0295C540.418 91.4079 541.901 91.0906 543.4 91.0997C544.898 91.1012 546.378 91.4232 547.74 92.0441C549.103 92.6651 550.317 93.5706 551.3 94.6997C552.216 95.7334 553.339 96.5619 554.597 97.1306C555.855 97.6994 557.22 97.9955 558.6 97.9997H559.1L559 95.9997Z" fill="#054169"/>
<path fill-rule="evenodd" clip-rule="evenodd" d="M559 110.4C557.816 110.445 556.636 110.226 555.547 109.759C554.457 109.292 553.485 108.589 552.7 107.7C551.537 106.381 550.106 105.324 548.502 104.6C546.899 103.876 545.16 103.502 543.4 103.502C541.641 103.502 539.902 103.876 538.299 104.6C536.695 105.324 535.264 106.381 534.1 107.7C532.927 109.019 531.34 109.9 529.6 110.2C529.237 110.261 528.869 110.294 528.5 110.3H528.4C527.171 110.445 525.925 110.283 524.774 109.83C523.622 109.376 522.601 108.644 521.8 107.7C520.637 106.381 519.206 105.324 517.602 104.6C515.999 103.876 514.26 103.502 512.5 103.502C510.741 103.502 509.002 103.876 507.399 104.6C505.795 105.324 504.364 106.381 503.2 107.7C502.416 108.589 501.444 109.292 500.354 109.759C499.265 110.226 498.085 110.445 496.9 110.4C495.706 110.332 494.544 109.99 493.504 109.4C492.463 108.811 491.572 107.989 490.9 107V109.8C492.56 111.288 494.675 112.169 496.9 112.3C498.366 112.377 499.829 112.12 501.18 111.548C502.532 110.977 503.735 110.105 504.7 109C505.677 107.863 506.89 106.952 508.254 106.33C509.618 105.708 511.101 105.391 512.6 105.4C514.098 105.402 515.578 105.724 516.94 106.345C518.303 106.965 519.517 107.871 520.5 109C521.416 110.034 522.539 110.862 523.797 111.431C525.056 112 526.42 112.296 527.8 112.3H528.6C528.969 112.301 529.338 112.268 529.7 112.2H530L531.3 111.9C532.935 111.378 534.39 110.408 535.5 109.1C536.477 107.963 537.69 107.052 539.054 106.43C540.418 105.808 541.901 105.491 543.4 105.5C544.898 105.502 546.378 105.824 547.74 106.445C549.103 107.065 550.317 107.971 551.3 109.1C552.216 110.134 553.339 110.962 554.597 111.531C555.855 112.1 557.22 112.396 558.6 112.4H559.1L559 110.4Z" fill="#054169"/>
<path fill-rule="evenodd" clip-rule="evenodd" d="M559 124.9C557.813 124.969 556.626 124.76 555.533 124.292C554.439 123.823 553.47 123.107 552.7 122.2C551.537 120.881 550.106 119.824 548.502 119.1C546.899 118.376 545.16 118.002 543.4 118.002C541.641 118.002 539.902 118.376 538.299 119.1C536.695 119.824 535.264 120.881 534.1 122.2C532.935 123.547 531.35 124.463 529.6 124.8C529.237 124.861 528.869 124.894 528.5 124.9H528.4C527.163 125.026 525.914 124.846 524.763 124.375C523.612 123.904 522.595 123.157 521.8 122.2C520.637 120.881 519.206 119.824 517.602 119.1C515.999 118.376 514.26 118.002 512.5 118.002C510.741 118.002 509.002 118.376 507.399 119.1C505.795 119.824 504.364 120.881 503.2 122.2C502.425 123.099 501.455 123.81 500.364 124.278C499.273 124.747 498.09 124.96 496.904 124.902C495.718 124.844 494.561 124.517 493.521 123.945C492.48 123.372 491.584 122.571 490.9 121.6V124.4C492.56 125.888 494.675 126.769 496.9 126.9C498.368 127 499.839 126.753 501.194 126.179C502.548 125.606 503.75 124.723 504.7 123.6C505.692 122.48 506.907 121.581 508.268 120.961C509.629 120.341 511.105 120.014 512.6 120C514.098 120.002 515.578 120.324 516.94 120.945C518.303 121.565 519.517 122.471 520.5 123.6C521.416 124.634 522.539 125.462 523.797 126.031C525.056 126.6 526.42 126.896 527.8 126.9H528.6C528.969 126.901 529.338 126.868 529.7 126.8H530C530.447 126.713 530.882 126.579 531.3 126.4C532.935 125.878 534.39 124.908 535.5 123.6C536.492 122.48 537.707 121.581 539.068 120.961C540.429 120.341 541.905 120.014 543.4 120C544.898 120.002 546.378 120.324 547.74 120.945C549.103 121.565 550.317 122.471 551.3 123.6C552.216 124.634 553.339 125.462 554.597 126.031C555.855 126.6 557.22 126.896 558.6 126.9H559.1L559 124.9Z" fill="#054169"/>
<path d="M30.7002 5V198.4" stroke="#9DDEFA" stroke-linejoin="round"/>
<path d="M61.5 5V198.4" stroke="#9DDEFA" stroke-linejoin="round"/>
<path d="M92.4004 5V198.4" stroke="#9DDEFA" stroke-linejoin="round"/>
<path d="M123.2 5V198.4" stroke="#9DDEFA" stroke-linejoin="round"/>
<path d="M154.1 5V198.4" stroke="#9DDEFA" stroke-linejoin="round"/>
<path d="M1 176.5H215.8" stroke="#9DDEFA" stroke-linejoin="round"/>
<path d="M1 146.2H215.8" stroke="#9DDEFA" stroke-linejoin="round"/>
<path d="M1 115.8H215.8" stroke="#9DDEFA" stroke-linejoin="round"/>
<path d="M1 85.4004H215.8" stroke="#9DDEFA" stroke-linejoin="round"/>
<path d="M1 55H215.8" stroke="#9DDEFA" stroke-linejoin="round"/>
<path d="M1 24.5996H215.8" stroke="#9DDEFA" stroke-linejoin="round"/>
<path d="M1 48.9004C11.3 53.3004 45.5 63.1004 62.7 75.1004C79.9 87.1004 89 113.2 104.2 121C119.4 128.8 135.6 131 154 122.1C172.4 113.2 204.4 76.6004 214.5 67.5004" stroke="#054169" stroke-width="4" stroke-linejoin="round"/>
<path d="M2.2002 2H215.8V199.5H2.2002V2Z" stroke="#054169" stroke-width="4" stroke-linejoin="round"/>
<path d="M41.3398 176.3V174.93L52.4098 160.41H42.2798V159H54.4198V160.37L43.3598 174.91H54.4998V176.3H41.3398Z" fill="#054169"/>
<path d="M61.9402 176.64C61.17 176.629 60.4079 176.48 59.6902 176.2C59.0039 175.936 58.3829 175.527 57.8702 175C57.3268 174.423 56.9051 173.743 56.6302 173C56.3139 172.08 56.1615 171.112 56.1802 170.14C56.1735 169.277 56.2948 168.417 56.5402 167.59C56.7612 166.833 57.1281 166.126 57.6202 165.51C58.1066 164.913 58.7221 164.434 59.4202 164.11C60.2096 163.747 61.0716 163.569 61.9402 163.59C62.8154 163.568 63.6841 163.746 64.4803 164.11C65.1758 164.434 65.7906 164.909 66.2802 165.5C66.7769 166.112 67.1412 166.82 67.3502 167.58C67.5866 168.412 67.7045 169.274 67.7002 170.14C67.7116 171.053 67.5731 171.961 67.2902 172.83C67.0422 173.591 66.6444 174.295 66.1202 174.9C65.6195 175.472 64.9979 175.926 64.3003 176.23C63.5503 176.528 62.7468 176.667 61.9402 176.64ZM66.1603 170.08C66.1647 169.386 66.0841 168.694 65.9202 168.02C65.7782 167.422 65.5274 166.856 65.1802 166.35C64.8426 165.88 64.3966 165.5 63.8802 165.24C63.2766 164.947 62.6106 164.806 61.9402 164.83C61.2668 164.811 60.5995 164.962 60.0002 165.27C59.4805 165.556 59.0352 165.96 58.7002 166.45C58.3511 166.96 58.097 167.529 57.9502 168.13C57.7851 168.783 57.7045 169.456 57.7102 170.13C57.7018 170.849 57.7961 171.567 57.9902 172.26C58.1506 172.861 58.4219 173.428 58.7902 173.93C59.1402 174.385 59.5924 174.752 60.1102 175C60.6844 175.261 61.3096 175.391 61.9402 175.38C62.6103 175.397 63.2739 175.246 63.8702 174.94C64.3915 174.648 64.8395 174.241 65.1802 173.75C65.5186 173.235 65.7687 172.667 65.9202 172.07C66.0852 171.419 66.1658 170.751 66.1603 170.08Z" fill="#054169"/>
<path d="M71.7798 176.3H70.3398V163.87H71.7798V165.6C72.3057 165.028 72.9041 164.527 73.5598 164.11C74.2291 163.708 74.9996 163.507 75.7798 163.53C76.5125 163.522 77.2397 163.658 77.9198 163.93C78.6017 164.209 79.1812 164.691 79.5798 165.31C79.865 165.722 80.0499 166.194 80.1199 166.69C80.1725 167.178 80.1992 167.669 80.1998 168.16V176.3H78.7598V168.19C78.8269 167.288 78.5639 166.393 78.0198 165.67C77.6901 165.362 77.2983 165.127 76.8706 164.982C76.4429 164.837 75.9892 164.785 75.5398 164.83C75.1248 164.827 74.7123 164.895 74.3198 165.03C73.9634 165.164 73.627 165.345 73.3198 165.57C73.0355 165.791 72.7831 166.05 72.5698 166.34C72.3654 166.618 72.2036 166.925 72.0898 167.25C71.9524 167.621 71.8617 168.007 71.8198 168.4C71.8198 168.77 71.8198 169.17 71.8198 169.6L71.7798 176.3Z" fill="#054169"/>
<path d="M84.57 170.421C84.5631 171.067 84.6507 171.71 84.83 172.331C84.9917 172.894 85.2561 173.423 85.61 173.891C85.9619 174.335 86.4098 174.694 86.92 174.941C87.4867 175.215 88.1103 175.352 88.74 175.341C89.6089 175.365 90.4619 175.105 91.17 174.601C91.8577 174.079 92.3336 173.326 92.51 172.481H94.12C93.9502 173.055 93.7154 173.609 93.42 174.131C93.1401 174.63 92.7745 175.077 92.34 175.451C91.8909 175.837 91.3713 176.132 90.81 176.321C90.1431 176.544 89.4431 176.652 88.74 176.641C87.8594 176.663 86.9848 176.489 86.18 176.131C85.4836 175.822 84.8727 175.348 84.4 174.751C83.9326 174.138 83.5926 173.437 83.4 172.691C83.1663 171.858 83.0518 170.996 83.06 170.131C83.0522 169.258 83.1873 168.39 83.46 167.561C83.7024 166.796 84.0857 166.084 84.59 165.461C85.07 164.863 85.6784 164.381 86.37 164.051C87.1188 163.694 87.9405 163.516 88.77 163.531C89.5272 163.503 90.2808 163.648 90.9738 163.955C91.6668 164.262 92.2809 164.722 92.77 165.301C93.8358 166.785 94.3455 168.598 94.21 170.421H84.57ZM92.68 169.221C92.6854 168.638 92.6011 168.058 92.43 167.501C92.2748 166.992 92.0199 166.519 91.68 166.111C91.3424 165.715 90.9227 165.398 90.45 165.181C89.9137 164.936 89.3291 164.817 88.74 164.831C88.1564 164.819 87.5781 164.942 87.05 165.191C86.5693 165.435 86.1438 165.775 85.8 166.191C85.4484 166.603 85.1709 167.073 84.98 167.581C84.7663 168.119 84.6283 168.684 84.57 169.261L92.68 169.221Z" fill="#054169"/>
<path d="M113.3 159H114.74V176.3H113.3V174.12C113.094 174.527 112.82 174.895 112.49 175.21C112.169 175.52 111.805 175.783 111.41 175.99C111.027 176.198 110.621 176.359 110.2 176.47C109.802 176.579 109.392 176.636 108.98 176.64C108.095 176.666 107.217 176.492 106.41 176.13C105.728 175.815 105.132 175.342 104.67 174.75C104.195 174.137 103.855 173.432 103.67 172.68C103.461 171.839 103.357 170.976 103.36 170.11C103.355 169.265 103.469 168.423 103.7 167.61C103.893 166.851 104.232 166.138 104.7 165.51C105.159 164.905 105.751 164.412 106.43 164.07C107.194 163.693 108.038 163.508 108.89 163.53C109.767 163.532 110.632 163.734 111.42 164.12C112.212 164.502 112.876 165.107 113.33 165.86L113.3 159ZM113.3 170C113.301 169.323 113.203 168.649 113.01 168C112.835 167.404 112.554 166.845 112.18 166.35C111.828 165.881 111.377 165.495 110.86 165.22C110.317 164.935 109.712 164.79 109.1 164.8C108.423 164.782 107.753 164.934 107.15 165.24C106.614 165.533 106.155 165.947 105.81 166.45C105.446 166.995 105.185 167.601 105.04 168.24C104.872 168.961 104.808 169.701 104.85 170.44C104.839 171.143 104.947 171.843 105.17 172.51C105.368 173.073 105.673 173.593 106.07 174.04C106.444 174.465 106.904 174.806 107.42 175.04C107.953 175.256 108.524 175.365 109.1 175.36C109.703 175.373 110.301 175.242 110.844 174.978C111.386 174.714 111.858 174.324 112.22 173.84C112.581 173.33 112.851 172.762 113.02 172.16C113.213 171.457 113.307 170.73 113.3 170Z" fill="#054169"/>
<path d="M120.3 161.85C120.334 162.453 120.161 163.049 119.81 163.54C119.493 163.959 119.052 164.267 118.55 164.42V163.53C118.762 163.386 118.948 163.206 119.1 163C119.305 162.69 119.401 162.32 119.37 161.95V161.13H118.55V159H120.3V161.85Z" fill="#054169"/>
<path d="M124.58 170.42C124.573 171.066 124.66 171.71 124.84 172.33C124.993 172.897 125.258 173.428 125.62 173.89C125.969 174.337 126.418 174.696 126.93 174.94C127.496 175.218 128.12 175.355 128.75 175.34C129.615 175.362 130.464 175.102 131.17 174.6C131.86 174.08 132.34 173.327 132.52 172.48H134.13C133.96 173.055 133.725 173.609 133.43 174.13C133.143 174.626 132.779 175.072 132.35 175.45C131.898 175.839 131.375 176.134 130.81 176.32C130.146 176.544 129.45 176.652 128.75 176.64C127.866 176.662 126.988 176.488 126.18 176.13C125.486 175.821 124.879 175.347 124.41 174.75C123.939 174.14 123.598 173.438 123.41 172.69C123.176 171.857 123.062 170.996 123.07 170.13C123.062 169.258 123.197 168.39 123.47 167.56C123.709 166.797 124.089 166.084 124.59 165.46C125.096 164.842 125.736 164.346 126.462 164.012C127.188 163.677 127.981 163.513 128.78 163.53C129.538 163.499 130.293 163.642 130.986 163.949C131.68 164.256 132.294 164.718 132.78 165.3C133.854 166.781 134.365 168.597 134.22 170.42H124.58ZM132.69 169.22C132.69 168.638 132.606 168.059 132.44 167.5C132.285 166.992 132.03 166.519 131.69 166.11C131.352 165.715 130.932 165.397 130.46 165.18C129.924 164.936 129.339 164.816 128.75 164.83C128.166 164.819 127.588 164.942 127.06 165.19C126.577 165.432 126.151 165.773 125.81 166.19C125.458 166.605 125.178 167.075 124.98 167.58C124.769 168.119 124.635 168.685 124.58 169.26L132.69 169.22ZM127.26 162.52L129.93 159.19H131.77L128.49 162.52H127.26Z" fill="#054169"/>
<path d="M141.4 176.35C141.22 176.35 140.99 176.44 140.7 176.52C140.374 176.607 140.038 176.647 139.7 176.64C139.104 176.683 138.514 176.489 138.06 176.1C137.842 175.83 137.679 175.52 137.581 175.187C137.484 174.854 137.453 174.505 137.49 174.16V165.07H135.74V163.87H137.49V160.41H139V163.87H141.33V165.07H139V173.59C139 173.89 139 174.16 139 174.38C139.003 174.572 139.051 174.76 139.14 174.93C139.221 175.076 139.353 175.186 139.51 175.24C139.739 175.316 139.979 175.35 140.22 175.34C140.418 175.338 140.615 175.321 140.81 175.29C141.009 175.261 141.206 175.221 141.4 175.17V176.35Z" fill="#054169"/>
<path d="M152.129 163.87H153.569V176.3H152.129V174.57C151.929 174.8 151.719 175.03 151.479 175.27C151.227 175.519 150.949 175.74 150.649 175.93C149.891 176.404 149.013 176.65 148.119 176.64C147.407 176.659 146.697 176.54 146.029 176.29C145.501 176.072 145.035 175.729 144.669 175.29C144.322 174.861 144.069 174.364 143.929 173.83C143.772 173.239 143.695 172.631 143.699 172.02V163.84H145.139V172C145.08 172.884 145.347 173.759 145.889 174.46C146.21 174.77 146.594 175.007 147.016 175.154C147.437 175.301 147.885 175.354 148.329 175.31C148.883 175.318 149.43 175.199 149.929 174.96C150.4 174.726 150.808 174.383 151.119 173.96C151.456 173.513 151.707 173.008 151.859 172.47C152.045 171.857 152.136 171.22 152.129 170.58V163.87Z" fill="#054169"/>
<path d="M166.65 159H168.09V176.3H166.65V174.12H166.6C166.394 174.527 166.12 174.895 165.79 175.21C165.47 175.52 165.106 175.783 164.71 175.99C164.328 176.198 163.921 176.359 163.5 176.47C163.103 176.58 162.693 176.637 162.28 176.64C161.396 176.666 160.517 176.492 159.71 176.13C159.029 175.815 158.433 175.342 157.97 174.75C157.496 174.137 157.155 173.432 156.97 172.68C156.762 171.839 156.658 170.976 156.66 170.11C156.656 169.265 156.77 168.423 157 167.61C157.193 166.851 157.533 166.138 158 165.51C158.46 164.905 159.052 164.412 159.73 164.07C160.494 163.693 161.339 163.508 162.19 163.53C163.068 163.531 163.933 163.733 164.72 164.12C165.515 164.499 166.179 165.104 166.63 165.86L166.65 159ZM166.65 170C166.652 169.323 166.554 168.649 166.36 168C166.186 167.404 165.905 166.845 165.53 166.35C165.178 165.881 164.728 165.495 164.21 165.22C163.668 164.935 163.063 164.79 162.45 164.8C161.774 164.784 161.104 164.935 160.5 165.24C159.965 165.533 159.506 165.947 159.16 166.45C158.796 166.995 158.535 167.601 158.39 168.24C158.228 168.961 158.164 169.701 158.2 170.44C158.19 171.143 158.298 171.843 158.52 172.51C158.719 173.073 159.024 173.593 159.42 174.04C159.794 174.465 160.255 174.806 160.77 175.04C161.304 175.256 161.875 175.365 162.45 175.36C163.054 175.373 163.652 175.242 164.195 174.978C164.737 174.714 165.209 174.324 165.57 173.84C165.935 173.332 166.206 172.763 166.37 172.16C166.564 171.457 166.658 170.73 166.65 170Z" fill="#054169"/>
<path d="M172.6 170.421C172.598 171.066 172.686 171.709 172.86 172.331C173.022 172.894 173.286 173.423 173.64 173.891C173.992 174.335 174.44 174.694 174.95 174.941C175.517 175.215 176.141 175.352 176.77 175.341C177.639 175.365 178.492 175.105 179.2 174.601C179.888 174.079 180.364 173.326 180.54 172.481H182.15C181.981 173.055 181.746 173.609 181.45 174.131C181.17 174.63 180.805 175.077 180.37 175.451C179.921 175.837 179.402 176.132 178.84 176.321C178.174 176.544 177.473 176.653 176.77 176.641C175.89 176.663 175.015 176.489 174.21 176.131C173.514 175.822 172.903 175.348 172.43 174.751C171.963 174.138 171.623 173.437 171.43 172.691C171.197 171.858 171.082 170.996 171.09 170.131C171.082 169.258 171.218 168.39 171.49 167.561C171.733 166.796 172.116 166.084 172.62 165.461C173.1 164.863 173.709 164.381 174.4 164.051C175.149 163.694 175.971 163.516 176.8 163.531C177.558 163.503 178.311 163.648 179.004 163.955C179.697 164.262 180.311 164.722 180.8 165.301C181.866 166.785 182.376 168.598 182.24 170.421H172.6ZM180.71 169.221C180.716 168.638 180.631 168.058 180.46 167.501C180.305 166.992 180.05 166.519 179.71 166.111C179.375 165.713 178.954 165.395 178.48 165.181C177.944 164.936 177.359 164.817 176.77 164.831C176.187 164.819 175.608 164.942 175.08 165.191C174.6 165.435 174.174 165.775 173.83 166.191C173.479 166.603 173.201 167.073 173.01 167.581C172.797 168.119 172.659 168.684 172.6 169.261L180.71 169.221Z" fill="#054169"/>
<path d="M514 35.7V15.54H527.41V17.16H515.87V24.44H526.26V26.07H515.87V34.07H527.66V35.7H514Z" fill="white"/>
<path d="M529.37 22.6002V21.2002H531.52V18.9002C531.471 17.9371 531.715 16.9818 532.22 16.1602C532.501 15.8066 532.866 15.5296 533.282 15.3547C533.698 15.1799 534.151 15.113 534.6 15.1602C534.87 15.1602 535.11 15.1602 535.33 15.1602C535.555 15.1715 535.779 15.1982 536 15.2402V16.8002C535.673 16.7149 535.338 16.6679 535 16.6602C534.651 16.6424 534.303 16.7257 534 16.9002C533.765 17.0528 533.58 17.2721 533.47 17.5302C533.345 17.8077 533.274 18.1063 533.26 18.4102C533.26 18.7402 533.26 19.0702 533.26 19.4102V21.2102H536V22.6102H533.2V35.7002H531.52V22.6002H529.37Z" fill="white"/>
<path d="M536.649 22.6002V21.2002H538.799V18.9002C538.75 17.9371 538.994 16.9818 539.499 16.1602C539.78 15.8066 540.145 15.5296 540.561 15.3547C540.977 15.1799 541.431 15.113 541.879 15.1602C542.149 15.1602 542.389 15.1602 542.609 15.1602C542.834 15.1715 543.058 15.1982 543.279 15.2402V16.8002C542.953 16.7149 542.617 16.6679 542.279 16.6602C541.93 16.6424 541.583 16.7257 541.279 16.9002C541.044 17.0528 540.859 17.2721 540.749 17.5302C540.625 17.8077 540.553 18.1063 540.539 18.4102C540.539 18.7402 540.539 19.0702 540.539 19.4102V21.2102H543.339V22.6102H540.539V35.7002H538.799V22.6002H536.649Z" fill="white"/>
<path d="M546.92 28.8401C546.92 29.5942 547.024 30.3447 547.23 31.0701C547.419 31.7276 547.727 32.3447 548.14 32.8901C548.552 33.4093 549.075 33.8297 549.67 34.1201C550.334 34.4403 551.064 34.598 551.8 34.5801C552.81 34.6084 553.802 34.3026 554.62 33.7101C555.424 33.1066 555.981 32.2328 556.19 31.2501H558.07C557.87 31.9173 557.598 32.561 557.26 33.1701C556.925 33.7474 556.5 34.2673 556 34.7101C555.466 35.1507 554.856 35.4896 554.2 35.7101C553.426 35.9631 552.615 36.0848 551.8 36.0701C550.769 36.0995 549.744 35.898 548.8 35.4801C547.991 35.1175 547.281 34.5652 546.73 33.8701C546.176 33.1557 545.765 32.3407 545.52 31.4701C545.253 30.4928 545.122 29.4833 545.13 28.4701C545.125 27.4521 545.281 26.4397 545.59 25.4701C545.876 24.579 546.323 23.7484 546.91 23.0201C547.479 22.335 548.193 21.785 549 21.4101C549.873 20.9898 550.832 20.7808 551.8 20.8001C552.689 20.7591 553.576 20.9237 554.391 21.281C555.206 21.6382 555.928 22.1786 556.5 22.8601C557.757 24.5963 558.353 26.7238 558.18 28.8601L546.92 28.8401ZM556.39 27.4401C556.395 26.7618 556.294 26.087 556.09 25.4401C555.916 24.8445 555.623 24.2901 555.23 23.8101C554.83 23.3478 554.336 22.9762 553.78 22.7201C553.152 22.4391 552.468 22.3024 551.78 22.3201C551.13 22.3024 550.483 22.4317 549.889 22.6984C549.296 22.965 548.769 23.3621 548.35 23.8601C547.921 24.3346 547.582 24.8836 547.35 25.4801C547.104 26.123 546.943 26.7954 546.87 27.4801L556.39 27.4401Z" fill="white"/>
<path d="M566.55 35.7602C566.35 35.7602 566.08 35.8602 565.74 35.9502C565.374 36.0453 564.998 36.0924 564.62 36.0902C563.922 36.1388 563.233 35.9127 562.7 35.4602C562.447 35.1472 562.258 34.7873 562.145 34.4012C562.032 34.015 561.996 33.6102 562.04 33.2102V22.6002H560.04V21.2002H562.04V17.2002H563.72V21.2002H566.44V22.6002H563.72V32.5402C563.72 32.8902 563.72 33.2002 563.72 33.4602C563.731 33.6832 563.789 33.9014 563.89 34.1002C563.986 34.2702 564.138 34.4012 564.32 34.4702C564.589 34.5515 564.869 34.5886 565.15 34.5802C565.381 34.5792 565.612 34.5592 565.84 34.5202C566.07 34.489 566.297 34.4422 566.52 34.3802L566.55 35.7602Z" fill="white"/>
<path d="M570.22 31.1603C570.353 32.1854 570.854 33.1273 571.63 33.8103C572.499 34.3739 573.526 34.6438 574.56 34.5803C575.101 34.5929 575.642 34.5186 576.16 34.3603C576.564 34.233 576.938 34.0255 577.26 33.7503C577.538 33.5173 577.763 33.2275 577.92 32.9003C578.066 32.5874 578.142 32.2458 578.14 31.9003C578.163 31.6015 578.113 31.3017 577.995 31.0264C577.876 30.7512 577.693 30.5089 577.46 30.3203C576.944 29.9427 576.36 29.6678 575.74 29.5103C575.003 29.2999 574.255 29.1297 573.5 29.0003C572.733 28.8714 571.982 28.6602 571.26 28.3703C570.597 28.1107 570.005 27.6997 569.53 27.1703C569.042 26.5406 568.801 25.7551 568.85 24.9603C568.83 24.3921 568.939 23.8268 569.169 23.3071C569.4 22.7873 569.745 22.3268 570.18 21.9603C571.247 21.1213 572.585 20.7048 573.94 20.7903C575.295 20.7288 576.635 21.0962 577.77 21.8403C578.297 22.2684 578.727 22.8035 579.033 23.4103C579.338 24.0171 579.511 24.6817 579.54 25.3603H577.84C577.813 24.897 577.684 24.4455 577.463 24.0376C577.242 23.6297 576.933 23.2755 576.56 23.0003C575.766 22.5183 574.848 22.2817 573.92 22.3203C573.052 22.2571 572.19 22.4975 571.48 23.0003C571.208 23.2155 570.991 23.4913 570.845 23.8056C570.699 24.1199 570.629 24.4639 570.64 24.8103C570.624 25.0975 570.679 25.3843 570.799 25.6457C570.919 25.907 571.102 26.1351 571.33 26.3103C571.852 26.6844 572.434 26.9683 573.05 27.1503C573.74 27.3603 574.49 27.5503 575.29 27.7203C576.058 27.8814 576.809 28.1193 577.53 28.4303C578.186 28.7188 578.773 29.1451 579.25 29.6803C579.741 30.2967 579.987 31.0733 579.94 31.8603C579.952 32.5023 579.797 33.1365 579.49 33.7003C579.183 34.2209 578.763 34.6654 578.26 35.0003C577.687 35.3714 577.054 35.642 576.39 35.8003C575.616 35.979 574.824 36.0662 574.03 36.0603C573.253 36.0779 572.479 35.949 571.75 35.6803C571.142 35.4571 570.585 35.1136 570.112 34.6704C569.64 34.2271 569.261 33.6931 569 33.1003C568.737 32.4851 568.584 31.8284 568.55 31.1603H570.22Z" fill="white"/>
<path d="M445.48 173.89C445.245 172.432 444.461 171.12 443.29 170.22C442.042 169.445 440.588 169.065 439.12 169.13C438.079 169.092 437.046 169.318 436.117 169.789C435.188 170.259 434.394 170.958 433.81 171.82C433.23 172.687 432.804 173.648 432.55 174.66C432.278 175.773 432.144 176.915 432.15 178.06C432.146 179.173 432.263 180.283 432.5 181.37C432.71 182.399 433.103 183.381 433.66 184.27C434.213 185.105 434.961 185.791 435.84 186.27C436.901 186.832 438.091 187.105 439.29 187.06C440.093 187.07 440.89 186.928 441.64 186.64C442.327 186.373 442.958 185.98 443.5 185.48C444.039 184.971 444.494 184.38 444.85 183.73C445.222 183.031 445.498 182.284 445.67 181.51H447.67C447.449 182.467 447.113 183.394 446.67 184.27C446.263 185.144 445.696 185.934 445 186.6C444.262 187.284 443.395 187.814 442.45 188.16C441.321 188.562 440.128 188.755 438.93 188.73C437.548 188.775 436.175 188.483 434.93 187.88C433.86 187.335 432.934 186.544 432.23 185.57C431.509 184.552 430.989 183.404 430.7 182.19C430.373 180.859 430.212 179.492 430.22 178.12C430.18 176.458 430.424 174.801 430.94 173.22C431.353 171.988 432.036 170.864 432.94 169.93C433.777 169.082 434.806 168.447 435.94 168.08C437.141 167.691 438.397 167.498 439.66 167.51C440.631 167.5 441.599 167.635 442.53 167.91C443.385 168.168 444.185 168.582 444.89 169.13C445.577 169.68 446.148 170.359 446.57 171.13C447.024 171.993 447.332 172.926 447.48 173.89H445.48Z" fill="white"/>
<path d="M456.899 188.59C456.003 188.581 455.116 188.412 454.279 188.09C453.475 187.773 452.748 187.285 452.149 186.66C451.515 185.971 451.025 185.162 450.709 184.28C450.338 183.21 450.158 182.083 450.179 180.95C450.169 179.935 450.31 178.924 450.599 177.95C450.858 177.066 451.286 176.241 451.859 175.52C452.429 174.827 453.146 174.27 453.959 173.89C454.88 173.465 455.886 173.256 456.899 173.28C457.933 173.249 458.96 173.458 459.899 173.89C460.711 174.267 461.429 174.82 461.999 175.51C462.574 176.224 462.996 177.047 463.239 177.93C463.517 178.906 463.655 179.916 463.649 180.93C463.664 181.993 463.502 183.051 463.169 184.06C462.884 184.945 462.425 185.765 461.819 186.47C461.231 187.139 460.504 187.671 459.689 188.03C458.809 188.41 457.858 188.601 456.899 188.59ZM461.829 180.95C461.832 180.139 461.738 179.33 461.549 178.54C461.381 177.843 461.086 177.182 460.679 176.59C460.287 176.043 459.769 175.597 459.169 175.29C458.46 174.958 457.682 174.797 456.899 174.82C456.118 174.797 455.344 174.973 454.649 175.33C454.038 175.664 453.514 176.136 453.119 176.71C452.712 177.32 452.418 177.997 452.249 178.71C452.073 179.461 451.989 180.23 451.999 181C451.994 181.838 452.102 182.672 452.319 183.48C452.512 184.179 452.83 184.836 453.259 185.42C453.667 185.955 454.194 186.387 454.799 186.68C455.466 186.99 456.194 187.144 456.929 187.13C457.712 187.155 458.487 186.976 459.179 186.61C459.793 186.28 460.318 185.807 460.709 185.23C461.111 184.618 461.405 183.942 461.579 183.23C461.751 182.5 461.835 181.751 461.829 181V180.95Z" fill="white"/>
<path d="M468.38 188.2H466.7V173.7H468.38V175.7C468.997 175.033 469.7 174.452 470.47 173.97C471.251 173.5 472.15 173.264 473.06 173.29C473.913 173.285 474.758 173.444 475.55 173.76C476.343 174.086 477.017 174.648 477.48 175.37C477.814 175.85 478.03 176.401 478.11 176.98C478.175 177.551 478.208 178.125 478.21 178.7V188.19H476.53V178.73C476.611 177.676 476.302 176.63 475.66 175.79C475.28 175.426 474.826 175.148 474.329 174.976C473.832 174.803 473.304 174.74 472.78 174.79C472.294 174.785 471.81 174.863 471.35 175.02C470.531 175.317 469.818 175.849 469.3 176.55C469.065 176.876 468.877 177.232 468.74 177.61C468.583 178.045 468.482 178.499 468.44 178.96C468.44 179.39 468.38 179.85 468.38 180.36V188.2Z" fill="white"/>
<path d="M493.47 168H495.15V188.2H493.47V185.65H493.41C493.177 186.13 492.858 186.564 492.47 186.93C492.091 187.287 491.668 187.593 491.21 187.84C490.763 188.08 490.29 188.268 489.8 188.4C489.334 188.526 488.853 188.589 488.37 188.59C487.338 188.624 486.312 188.422 485.37 188C484.584 187.632 483.897 187.08 483.37 186.39C482.816 185.674 482.417 184.849 482.2 183.97C481.954 182.989 481.833 181.981 481.84 180.97C481.837 179.983 481.968 179.001 482.23 178.05C482.469 177.166 482.872 176.334 483.42 175.6C483.953 174.898 484.637 174.324 485.42 173.92C486.312 173.482 487.297 173.266 488.29 173.29C489.313 173.29 490.323 173.526 491.24 173.98C492.163 174.414 492.939 175.109 493.47 175.98V168ZM493.47 180.85C493.476 180.057 493.361 179.268 493.13 178.51C492.917 177.811 492.578 177.157 492.13 176.58C491.717 176.037 491.192 175.59 490.59 175.27C489.955 174.936 489.247 174.768 488.53 174.78C487.743 174.758 486.963 174.934 486.26 175.29C485.632 175.633 485.095 176.12 484.69 176.71C484.264 177.341 483.962 178.046 483.8 178.79C483.604 179.632 483.527 180.497 483.57 181.36C483.557 182.182 483.686 183.001 483.95 183.78C484.171 184.452 484.529 185.072 485 185.6C485.439 186.075 485.974 186.45 486.57 186.7C487.204 186.962 487.884 187.092 488.57 187.08C489.299 187.092 490.019 186.927 490.67 186.6C491.277 186.292 491.805 185.847 492.21 185.3C492.645 184.697 492.963 184.019 493.15 183.3C493.364 182.515 493.472 181.704 493.47 180.89V180.85Z" fill="white"/>
<path d="M499.54 170.53V168H501.39V170.49L499.54 170.53ZM499.63 188.2V173.7H501.31V188.2H499.63Z" fill="white"/>
<path d="M510.69 188.26C510.417 188.308 510.146 188.372 509.88 188.45C509.512 188.551 509.131 188.598 508.75 188.59C508.055 188.637 507.37 188.411 506.84 187.96C506.587 187.647 506.398 187.287 506.285 186.901C506.172 186.515 506.136 186.11 506.18 185.71V175.1H504.13V173.7H506.18V169.7H507.86V173.7H510.58V175.1H507.86V185C507.86 185.35 507.86 185.66 507.86 185.92C507.866 186.144 507.924 186.363 508.03 186.56C508.122 186.733 508.276 186.864 508.46 186.93C508.729 187.012 509.009 187.049 509.29 187.04C509.527 187.048 509.765 187.035 510 187C510.233 186.968 510.463 186.921 510.69 186.86V188.26Z" fill="white"/>
<path d="M513.54 170.53V168H515.39V170.49L513.54 170.53ZM513.63 188.2V173.7H515.31V188.2H513.63Z" fill="white"/>
<path d="M525.36 188.59C524.464 188.581 523.577 188.412 522.74 188.09C521.935 187.773 521.209 187.285 520.61 186.66C519.976 185.971 519.486 185.162 519.17 184.28C518.799 183.21 518.619 182.083 518.64 180.95C518.63 179.935 518.771 178.924 519.06 177.95C519.319 177.066 519.747 176.241 520.32 175.52C520.89 174.827 521.607 174.27 522.42 173.89C523.341 173.465 524.347 173.256 525.36 173.28C526.394 173.249 527.421 173.458 528.36 173.89C529.172 174.267 529.89 174.82 530.46 175.51C531.035 176.224 531.457 177.047 531.7 177.93C531.978 178.906 532.116 179.916 532.11 180.93C532.125 181.993 531.963 183.051 531.63 184.06C531.345 184.945 530.886 185.765 530.28 186.47C529.692 187.139 528.965 187.671 528.15 188.03C527.27 188.41 526.319 188.601 525.36 188.59ZM530.29 180.95C530.292 180.139 530.198 179.33 530.01 178.54C529.842 177.843 529.547 177.182 529.14 176.59C528.748 176.043 528.23 175.597 527.63 175.29C526.921 174.958 526.143 174.797 525.36 174.82C524.579 174.797 523.805 174.973 523.11 175.33C522.499 175.664 521.975 176.136 521.58 176.71C521.173 177.32 520.878 177.997 520.71 178.71C520.52 179.455 520.426 180.222 520.43 180.99C520.425 181.828 520.532 182.662 520.75 183.47C520.943 184.169 521.261 184.826 521.69 185.41C522.098 185.945 522.625 186.377 523.23 186.67C523.897 186.98 524.625 187.134 525.36 187.12C526.143 187.145 526.918 186.966 527.61 186.6C528.224 186.27 528.749 185.797 529.14 185.22C529.542 184.608 529.836 183.932 530.01 183.22C530.191 182.494 530.285 181.749 530.29 181V180.95Z" fill="white"/>
<path d="M536.84 188.201H535.16V173.701H536.84V175.701C537.456 175.037 538.155 174.455 538.92 173.971C539.702 173.503 540.6 173.268 541.51 173.291C542.366 173.284 543.215 173.444 544.01 173.761C544.803 174.087 545.477 174.649 545.94 175.371C546.274 175.85 546.49 176.402 546.57 176.981C546.635 177.552 546.668 178.126 546.67 178.701V188.191H545V178.731C545.081 177.677 544.772 176.63 544.13 175.791C543.749 175.426 543.293 175.148 542.794 174.975C542.296 174.803 541.765 174.74 541.24 174.791C540.757 174.786 540.277 174.864 539.82 175.021C539.402 175.174 539.008 175.386 538.65 175.651C538.315 175.907 538.019 176.21 537.77 176.551C537.535 176.876 537.347 177.233 537.21 177.611C537.05 178.046 536.946 178.499 536.9 178.961C536.9 179.391 536.9 179.851 536.9 180.361L536.84 188.201Z" fill="white"/>
<path d="M551.71 183.66C551.841 184.685 552.343 185.628 553.12 186.31C553.989 186.875 555.016 187.145 556.05 187.08C556.588 187.093 557.125 187.018 557.64 186.86C558.048 186.735 558.426 186.527 558.75 186.25C559.028 186.017 559.253 185.727 559.41 185.4C559.557 185.087 559.632 184.745 559.63 184.4C559.651 184.101 559.601 183.802 559.482 183.527C559.364 183.252 559.182 183.009 558.95 182.82C558.431 182.441 557.843 182.166 557.22 182.01C556.483 181.798 555.736 181.628 554.98 181.5C554.213 181.37 553.462 181.158 552.74 180.87C552.081 180.61 551.491 180.199 551.02 179.67C550.525 179.044 550.279 178.256 550.33 177.46C550.312 176.891 550.424 176.326 550.656 175.806C550.888 175.287 551.235 174.826 551.67 174.46C552.736 173.619 554.075 173.202 555.43 173.29C556.777 173.213 558.113 173.563 559.25 174.29C559.779 174.717 560.211 175.252 560.518 175.858C560.825 176.465 561 177.13 561.03 177.81H559.32C559.296 177.345 559.17 176.892 558.951 176.482C558.731 176.073 558.423 175.717 558.05 175.44C557.253 174.956 556.331 174.72 555.4 174.76C554.536 174.698 553.677 174.938 552.97 175.44C552.698 175.655 552.481 175.931 552.335 176.245C552.189 176.559 552.119 176.903 552.13 177.25C552.115 177.536 552.169 177.822 552.287 178.083C552.406 178.344 552.585 178.572 552.81 178.75C553.336 179.124 553.921 179.408 554.54 179.59C555.23 179.8 555.97 179.99 556.78 180.16C557.545 180.321 558.292 180.559 559.01 180.87C559.671 181.155 560.261 181.582 560.74 182.12C561.225 182.739 561.466 183.515 561.42 184.3C561.434 184.942 561.279 185.577 560.97 186.14C560.673 186.676 560.251 187.132 559.74 187.47C559.171 187.843 558.542 188.113 557.88 188.27C557.103 188.448 556.307 188.535 555.51 188.53C554.733 188.545 553.96 188.417 553.23 188.15C552.6 187.921 552.025 187.563 551.54 187.1C551.075 186.659 550.704 186.128 550.45 185.54C550.186 184.925 550.033 184.268 550 183.6L551.71 183.66Z" fill="white"/>
<path d="M583.71 168H585.39V188.2H583.71V185.65H583.66C583.42 186.126 583.102 186.558 582.72 186.93C582.338 187.283 581.915 187.588 581.46 187.84C581.009 188.079 580.533 188.267 580.04 188.4C579.577 188.526 579.1 188.59 578.62 188.59C577.588 188.624 576.563 188.422 575.62 188C574.835 187.63 574.15 187.078 573.62 186.39C573.069 185.673 572.674 184.849 572.46 183.97C572.206 182.991 572.081 181.982 572.09 180.97C572.086 179.983 572.22 179 572.49 178.05C572.725 177.164 573.129 176.332 573.68 175.6C574.212 174.897 574.896 174.323 575.68 173.92C576.572 173.482 577.557 173.266 578.55 173.29C579.59 173.284 580.618 173.52 581.55 173.98C582.471 174.414 583.243 175.11 583.77 175.98L583.71 168ZM583.71 180.85C583.714 180.058 583.603 179.27 583.38 178.51C583.162 177.813 582.824 177.16 582.38 176.58C581.97 176.035 581.444 175.588 580.84 175.27C580.206 174.935 579.497 174.766 578.78 174.78C577.993 174.759 577.213 174.934 576.51 175.29C575.886 175.634 575.351 176.12 574.95 176.71C574.521 177.34 574.215 178.046 574.05 178.79C573.858 179.632 573.784 180.497 573.83 181.36C573.815 182.182 573.94 183 574.2 183.78C574.415 184.432 574.755 185.037 575.2 185.56C575.639 186.035 576.174 186.41 576.77 186.66C577.404 186.922 578.085 187.052 578.77 187.04C579.499 187.052 580.219 186.887 580.87 186.56C581.479 186.254 582.007 185.809 582.41 185.26C582.845 184.657 583.163 183.979 583.35 183.26C583.574 182.489 583.696 181.692 583.71 180.89V180.85Z" fill="white"/>
<path d="M590.65 181.34C590.649 182.094 590.753 182.845 590.96 183.57C591.148 184.228 591.457 184.845 591.87 185.39C592.281 185.909 592.804 186.33 593.4 186.62C594.063 186.94 594.793 187.098 595.53 187.08C596.54 187.108 597.531 186.803 598.35 186.21C599.153 185.607 599.711 184.733 599.92 183.75H601.8C601.599 184.417 601.328 185.061 600.99 185.67C600.655 186.247 600.229 186.767 599.73 187.21C599.2 187.656 598.589 187.996 597.93 188.21C597.155 188.463 596.344 188.585 595.53 188.57C594.498 188.6 593.473 188.398 592.53 187.98C591.721 187.617 591.01 187.065 590.46 186.37C589.905 185.656 589.494 184.841 589.25 183.97C588.982 182.993 588.851 181.983 588.86 180.97C588.855 179.952 589.01 178.94 589.32 177.97C589.607 177.08 590.055 176.25 590.64 175.52C591.229 174.796 591.976 174.217 592.824 173.825C593.671 173.434 594.597 173.24 595.53 173.26C596.419 173.219 597.305 173.384 598.12 173.741C598.936 174.098 599.657 174.639 600.23 175.32C601.486 177.056 602.082 179.184 601.91 181.32L590.65 181.34ZM600.12 179.94C600.125 179.262 600.024 178.587 599.82 177.94C599.646 177.344 599.353 176.79 598.96 176.31C598.56 175.848 598.065 175.476 597.51 175.22C596.881 174.939 596.198 174.802 595.51 174.82C594.859 174.802 594.213 174.932 593.619 175.198C593.025 175.465 592.499 175.862 592.08 176.36C591.654 176.837 591.316 177.386 591.08 177.98C590.834 178.623 590.672 179.295 590.6 179.98L600.12 179.94Z" fill="white"/>
<path d="M614.85 188.2H613.17V168H614.85V176C615.377 175.13 616.15 174.434 617.07 174C618.003 173.54 619.03 173.304 620.07 173.31C621.063 173.287 622.048 173.503 622.94 173.94C623.724 174.343 624.408 174.917 624.94 175.62C625.491 176.352 625.896 177.184 626.13 178.07C626.395 179.021 626.53 180.003 626.53 180.99C626.534 182.002 626.409 183.01 626.16 183.99C625.946 184.869 625.551 185.693 625 186.41C624.47 187.098 623.785 187.65 623 188.02C622.058 188.442 621.032 188.644 620 188.61C619.517 188.609 619.036 188.545 618.57 188.42C618.081 188.285 617.608 188.097 617.16 187.86C616.702 187.613 616.279 187.307 615.9 186.95C615.518 186.578 615.2 186.146 614.96 185.67L614.85 188.2ZM614.85 180.89C614.839 181.718 614.947 182.543 615.17 183.34C615.353 184.06 615.672 184.739 616.11 185.34C616.513 185.889 617.041 186.334 617.65 186.64C618.3 186.97 619.021 187.134 619.75 187.12C620.436 187.132 621.116 187.002 621.75 186.74C622.345 186.487 622.879 186.113 623.32 185.64C623.78 185.119 624.136 184.515 624.37 183.86C624.631 183.08 624.756 182.262 624.74 181.44C624.786 180.577 624.712 179.712 624.52 178.87C624.35 178.127 624.045 177.422 623.62 176.79C623.217 176.195 622.674 175.708 622.04 175.37C621.344 175.017 620.571 174.842 619.79 174.86C619.073 174.846 618.364 175.015 617.73 175.35C617.126 175.668 616.6 176.115 616.19 176.66C615.746 177.24 615.408 177.893 615.19 178.59C614.968 179.337 614.853 180.111 614.85 180.89Z" fill="white"/>
<path d="M636.739 179.74C637.059 179.74 637.439 179.65 637.879 179.58C638.247 179.521 638.607 179.417 638.949 179.27C639.084 179.212 639.203 179.122 639.293 179.006C639.384 178.891 639.445 178.755 639.469 178.61C639.534 178.331 639.568 178.046 639.569 177.76C639.582 177.369 639.516 176.979 639.373 176.615C639.23 176.25 639.015 175.919 638.739 175.64C637.955 175.015 636.958 174.721 635.959 174.82C635.422 174.816 634.886 174.867 634.359 174.97C633.905 175.06 633.473 175.24 633.089 175.5C632.716 175.759 632.408 176.102 632.189 176.5C631.935 176.992 631.779 177.529 631.729 178.08H629.999C630.031 177.312 630.233 176.561 630.589 175.88C630.91 175.298 631.353 174.793 631.889 174.4C632.449 174.008 633.076 173.723 633.739 173.56C634.468 173.376 635.218 173.286 635.969 173.29C636.643 173.29 637.315 173.371 637.969 173.53C638.575 173.668 639.146 173.927 639.649 174.29C640.136 174.645 640.522 175.121 640.769 175.67C641.064 176.34 641.204 177.068 641.179 177.8V185.7C641.179 186.35 641.3 186.77 641.53 186.94C641.759 187.11 642.229 187.08 642.939 186.82V188.13L642.369 188.3C642.13 188.375 641.88 188.412 641.629 188.41C641.374 188.414 641.119 188.388 640.869 188.33C640.625 188.304 640.393 188.211 640.199 188.06C640.032 187.922 639.892 187.752 639.789 187.56C639.688 187.358 639.618 187.143 639.579 186.92C639.564 186.67 639.564 186.42 639.579 186.17C638.906 186.94 638.074 187.554 637.139 187.97C636.205 188.386 635.192 188.594 634.169 188.58C633.551 188.583 632.935 188.499 632.339 188.33C631.777 188.175 631.25 187.91 630.789 187.55C630.341 187.197 629.976 186.75 629.719 186.24C629.447 185.67 629.313 185.042 629.329 184.41C629.329 181.95 631.019 180.494 634.399 180.04L636.739 179.74ZM639.569 180.58C638.88 180.876 638.153 181.075 637.409 181.17C636.689 181.27 635.959 181.34 635.229 181.4C634.172 181.425 633.139 181.722 632.229 182.26C631.873 182.505 631.586 182.838 631.396 183.228C631.207 183.617 631.122 184.048 631.149 184.48C631.14 184.883 631.233 185.283 631.419 185.64C631.591 185.958 631.83 186.234 632.119 186.45C632.42 186.671 632.759 186.834 633.119 186.93C633.498 187.03 633.888 187.08 634.28 187.08C634.954 187.086 635.627 187.002 636.28 186.83C636.883 186.672 637.454 186.412 637.969 186.06C638.46 185.715 638.867 185.264 639.159 184.74C639.472 184.16 639.627 183.509 639.609 182.85L639.569 180.58Z" fill="white"/>
<path d="M646.63 183.66C646.761 184.686 647.263 185.629 648.04 186.31C648.909 186.875 649.936 187.145 650.97 187.08C651.509 187.093 652.045 187.019 652.56 186.86C652.968 186.735 653.346 186.528 653.67 186.25C653.948 186.017 654.173 185.728 654.33 185.4C654.477 185.088 654.552 184.746 654.55 184.4C654.572 184.102 654.521 183.803 654.403 183.528C654.284 183.253 654.102 183.01 653.87 182.82C653.351 182.442 652.764 182.167 652.14 182.01C651.404 181.799 650.656 181.629 649.9 181.5C649.133 181.37 648.382 181.159 647.66 180.87C647.001 180.611 646.412 180.2 645.94 179.67C645.445 179.044 645.199 178.257 645.25 177.46C645.234 176.893 645.344 176.329 645.575 175.809C645.805 175.29 646.148 174.829 646.58 174.46C647.651 173.621 648.992 173.204 650.35 173.29C651.697 173.214 653.034 173.564 654.17 174.29C654.699 174.718 655.132 175.252 655.438 175.859C655.745 176.466 655.92 177.131 655.95 177.81H654.24C654.211 177.359 654.086 176.919 653.872 176.52C653.658 176.122 653.361 175.774 653 175.5C652.203 175.017 651.281 174.781 650.35 174.82C649.486 174.759 648.627 174.999 647.92 175.5C647.649 175.716 647.431 175.991 647.285 176.306C647.139 176.62 647.069 176.964 647.08 177.31C647.065 177.597 647.119 177.882 647.237 178.143C647.356 178.404 647.535 178.633 647.76 178.81C648.286 179.185 648.871 179.468 649.49 179.65C650.18 179.86 650.92 180.05 651.73 180.22C652.495 180.382 653.243 180.619 653.96 180.93C654.621 181.216 655.211 181.643 655.69 182.18C656.175 182.8 656.417 183.575 656.37 184.36C656.384 185.003 656.229 185.637 655.92 186.2C655.623 186.736 655.201 187.193 654.69 187.53C654.121 187.903 653.492 188.174 652.83 188.33C652.053 188.509 651.258 188.596 650.46 188.59C649.683 188.606 648.91 188.477 648.18 188.21C647.55 187.981 646.975 187.624 646.49 187.16C646.025 186.72 645.654 186.189 645.4 185.6C645.136 184.986 644.984 184.329 644.95 183.66H646.63Z" fill="white"/>
<path d="M660.68 181.34C660.679 182.094 660.784 182.845 660.99 183.57C661.179 184.228 661.487 184.845 661.9 185.39C662.312 185.91 662.835 186.33 663.43 186.62C664.228 186.992 665.108 187.149 665.984 187.077C666.861 187.005 667.704 186.706 668.43 186.21C669.233 185.607 669.791 184.733 670 183.75H671.88C671.681 184.419 671.406 185.064 671.06 185.67C670.731 186.252 670.305 186.773 669.8 187.21C669.274 187.656 668.666 187.996 668.01 188.21C667.233 188.464 666.418 188.586 665.6 188.57C664.569 188.6 663.544 188.398 662.6 187.98C661.791 187.618 661.081 187.065 660.53 186.37C659.971 185.659 659.56 184.843 659.32 183.97C659.053 182.993 658.921 181.983 658.93 180.97C658.92 179.952 659.076 178.939 659.39 177.97C659.678 177.08 660.125 176.25 660.71 175.52C661.274 174.824 661.984 174.261 662.79 173.87C663.663 173.452 664.622 173.243 665.59 173.26C666.481 173.219 667.369 173.383 668.186 173.74C669.003 174.097 669.726 174.638 670.3 175.32C671.557 177.056 672.152 179.184 671.98 181.32L660.68 181.34ZM670.15 179.94C670.155 179.262 670.054 178.587 669.85 177.94C669.677 177.342 669.38 176.787 668.98 176.31C668.586 175.846 668.094 175.474 667.54 175.22C666.911 174.941 666.228 174.804 665.54 174.82C664.891 174.804 664.247 174.934 663.655 175.201C663.063 175.467 662.538 175.864 662.12 176.36C661.691 176.835 661.352 177.384 661.12 177.98C660.874 178.623 660.713 179.296 660.64 179.98L670.15 179.94Z" fill="white"/>
</svg>
