<svg width="90" height="90" viewBox="0 0 90 90" fill="none" xmlns="http://www.w3.org/2000/svg">
<path d="M31.5 3.5L16.5 3.5C6 3 3.5 6.5 3.5 12C3.5 14.3796 3.5 17.0807 3.5 20M31.5 3.5V87M31.5 3.5H58.5M31.5 87C25.4242 87 19.8209 87 15.5 87C11.5 86.8333 3.5 84.8 3.5 78C3.5 72.0442 3.5 40.5947 3.5 20M31.5 87C40.3309 87 50.1598 87 58.5 87M58.5 87C66.3337 87 72.8539 87 76 87C84.8 87 87 78.6667 87 74.5C87 60.4403 87 33.2425 87 20M58.5 87V3.5M58.5 3.5H76C79.6667 3.66667 87 6 87 14C87 15.3182 87 17.3875 87 20M87 20H3.5M12 35H23.5M12 47H23.5M12 59.5H23.5M12 71H23.5M39.5 35H50.5M50.5 47H39.5M39.5 59H50.5M50.5 71H39.5M66.5 71H77.5M77.5 59H66.5M66.5 47H77.5M77.5 35H66.5" stroke="#434343" stroke-width="3" stroke-linecap="round"/>
</svg>
