<svg width="61" height="61" viewBox="0 0 61 61" fill="none" xmlns="http://www.w3.org/2000/svg">
<path d="M10.3871 4.03928e-05C9.64126 1.94626e-05 8.99945 0.766847 9 1.39539V58.6046C9.00007 59.3353 9.66081 59.9999 10.3871 60H50.6129C51.3392 59.9999 51.9999 59.3353 52 58.6046V13.9535C52 13.5821 51.8509 13.2118 51.5882 12.9506L39.1043 0.392482C38.8462 0.141326 38.4882 -0.00277124 38.129 4.03928e-05H10.3871ZM11.7742 2.79074H36.7419V13.9535C36.742 14.6841 37.4027 15.3488 38.129 15.3489H49.2258V57.2093H11.7742V2.79074ZM39.5161 4.75295L47.2752 12.5582H39.5161V4.75295ZM18.0161 23.7209C17.25 23.7209 16.629 24.3456 16.629 25.1163C16.629 25.8869 17.25 26.5116 18.0161 26.5116H42.9839C43.75 26.5116 44.371 25.8869 44.371 25.1163C44.371 24.3456 43.75 23.7209 42.9839 23.7209H18.0161ZM18.0161 34.8837C17.25 34.8837 16.629 35.5084 16.629 36.2791C16.629 37.0497 17.25 37.6744 18.0161 37.6744H42.9839C43.75 37.6744 44.371 37.0497 44.371 36.2791C44.371 35.5084 43.75 34.8837 42.9839 34.8837H18.0161ZM18.0161 46.0465C17.25 46.0465 16.629 46.6712 16.629 47.4419C16.629 48.2125 17.25 48.8372 18.0161 48.8372H42.9839C43.75 48.8372 44.371 48.2125 44.371 47.4419C44.371 46.6712 43.75 46.0465 42.9839 46.0465H18.0161Z" fill="#434343"/>
</svg>
