<svg width="90" height="90" viewBox="0 0 90 90" fill="none" xmlns="http://www.w3.org/2000/svg">
<path d="M77.5 0H12.5C5.9 0 0.5 5.4 0.5 12V78C0.5 84.6 5.9 90 12.5 90H77.5C84.1 90 89.5 84.6 89.5 78V12C89.5 5.4 84.1 0 77.5 0ZM83.5 12V18H60.5V6H77.5C80.8 6 83.5 8.7 83.5 12ZM33.5 18V6H56.5V18H33.5ZM56.5 22V84H33.5V22H56.5ZM12.5 6H29.5V18H6.5V12C6.5 8.7 9.2 6 12.5 6ZM6.5 78V22H29.5V84H12.5C9.2 84 6.5 81.3 6.5 78ZM77.5 84H60.5V22H83.5V78C83.5 81.3 80.8 84 77.5 84ZM10.5 35C10.5 33.9 11.4 33 12.5 33H23.5C24.6 33 25.5 33.9 25.5 35C25.5 36.1 24.6 37 23.5 37H12.5C11.4 37 10.5 36.1 10.5 35ZM25.5 47C25.5 48.1 24.6 49 23.5 49H12.5C11.4 49 10.5 48.1 10.5 47C10.5 45.9 11.4 45 12.5 45H23.5C24.6 45 25.5 45.9 25.5 47ZM25.5 59C25.5 60.1 24.6 61 23.5 61H12.5C11.4 61 10.5 60.1 10.5 59C10.5 57.9 11.4 57 12.5 57H23.5C24.6 57 25.5 57.9 25.5 59ZM25.5 71C25.5 72.1 24.6 73 23.5 73H12.5C11.4 73 10.5 72.1 10.5 71C10.5 69.9 11.4 69 12.5 69H23.5C24.6 69 25.5 69.9 25.5 71ZM37.5 35C37.5 33.9 38.4 33 39.5 33H50.5C51.6 33 52.5 33.9 52.5 35C52.5 36.1 51.6 37 50.5 37H39.5C38.4 37 37.5 36.1 37.5 35ZM37.5 47C37.5 45.9 38.4 45 39.5 45H50.5C51.6 45 52.5 45.9 52.5 47C52.5 48.1 51.6 49 50.5 49H39.5C38.4 49 37.5 48.1 37.5 47ZM37.5 59C37.5 57.9 38.4 57 39.5 57H50.5C51.6 57 52.5 57.9 52.5 59C52.5 60.1 51.6 61 50.5 61H39.5C38.4 61 37.5 60.1 37.5 59ZM52.5 71C52.5 72.1 51.6 73 50.5 73H39.5C38.4 73 37.5 72.1 37.5 71C37.5 69.9 38.4 69 39.5 69H50.5C51.6 69 52.5 69.9 52.5 71ZM79.5 35C79.5 36.1 78.6 37 77.5 37H66.5C65.4 37 64.5 36.1 64.5 35C64.5 33.9 65.4 33 66.5 33H77.5C78.6 33 79.5 33.9 79.5 35ZM79.5 47C79.5 48.1 78.6 49 77.5 49H66.5C65.4 49 64.5 48.1 64.5 47C64.5 45.9 65.4 45 66.5 45H77.5C78.6 45 79.5 45.9 79.5 47ZM79.5 59C79.5 60.1 78.6 61 77.5 61H66.5C65.4 61 64.5 60.1 64.5 59C64.5 57.9 65.4 57 66.5 57H77.5C78.6 57 79.5 57.9 79.5 59ZM79.5 71C79.5 72.1 78.6 73 77.5 73H66.5C65.4 73 64.5 72.1 64.5 71C64.5 69.9 65.4 69 66.5 69H77.5C78.6 69 79.5 69.9 79.5 71Z" fill="black"/>
</svg>
