<svg width="50" height="42" viewBox="0 0 50 42" fill="none" xmlns="http://www.w3.org/2000/svg">
<path d="M49.8577 40.4523L25.8577 0.45225C25.4967 -0.15075 24.5037 -0.15075 24.1427 0.45225L0.1427 40.4523C-0.0433004 40.7612 -0.0473004 41.1453 0.1297 41.4603C0.3077 41.7743 0.640699 41.9673 1.0007 41.9673H49.0007C49.3607 41.9673 49.6927 41.7743 49.8707 41.4603C50.0487 41.1463 50.0437 40.7612 49.8577 40.4523ZM2.7667 39.9673L25.0007 2.91125L47.2337 39.9673H2.7667Z" fill="black"/>
<path d="M24.0007 14.9673V24.9673C24.0007 25.5203 24.4487 25.9673 25.0007 25.9673C25.5527 25.9673 26.0007 25.5203 26.0007 24.9673V14.9673C26.0007 14.4153 25.5527 13.9673 25.0007 13.9673C24.4487 13.9673 24.0007 14.4153 24.0007 14.9673Z" fill="black"/>
<path d="M25.0007 29.9673C24.4487 29.9673 24.0007 30.4143 24.0007 30.9673V32.9673C24.0007 33.5203 24.4487 33.9673 25.0007 33.9673C25.5527 33.9673 26.0007 33.5203 26.0007 32.9673V30.9673C26.0007 30.4143 25.5527 29.9673 25.0007 29.9673Z" fill="black"/>
</svg>
