<svg width="58" height="45" viewBox="0 0 58 45" fill="none" xmlns="http://www.w3.org/2000/svg">
<path fill-rule="evenodd" clip-rule="evenodd" d="M57.929 5.84246C55.8762 5.9628 53.9139 5.15041 52.5554 3.58577C50.5932 1.32909 47.7252 0.0352783 44.7063 0.0352783C41.6875 0.0352783 38.8195 1.32909 36.8573 3.58577C35.861 4.72919 34.5629 5.45129 33.0837 5.75221C32.5704 5.81236 32.1478 5.84246 32.1478 5.84246C32.1176 5.84246 32.0874 5.84246 32.0874 5.84246C29.944 6.023 27.8912 5.2106 26.4723 3.58577C24.51 1.32909 21.6421 0.0352783 18.6232 0.0352783C15.6043 0.0352783 12.7364 1.32909 10.7741 3.58577C9.41564 5.15041 7.45334 5.9628 5.40051 5.84246C3.34768 5.75221 1.47598 4.69909 0.298608 3.01411C0.268433 2.98401 0.268433 2.98401 0.268433 2.98401C0.268433 5.33095 0.268433 5.33095 0.268433 5.33095C1.65712 6.56461 3.40807 7.31685 5.30994 7.4071C7.84582 7.55754 10.2609 6.53451 11.9515 4.6088C13.642 2.71319 16.0572 1.59991 18.6232 1.59991C21.1893 1.59991 23.6044 2.71319 25.295 4.6088C26.8949 6.41417 29.0987 7.43719 31.4837 7.43719C31.7251 7.43719 31.9365 7.4071 32.178 7.4071C32.2987 7.4071 32.6912 7.377 33.144 7.31685C33.1742 7.31685 33.2044 7.31685 33.2346 7.31685C33.295 7.28675 33.3252 7.28675 33.3855 7.28675C33.7478 7.22656 34.1101 7.13631 34.4723 6.98587C35.861 6.53451 37.0686 5.72212 38.0346 4.6088C39.7252 2.71319 42.1403 1.59991 44.7063 1.59991C47.2724 1.59991 49.6875 2.71319 51.3781 4.6088C52.9479 6.41417 55.1818 7.43719 57.5668 7.43719C57.7177 7.43719 57.8385 7.4071 57.9592 7.4071C57.9592 5.84246 57.9592 5.84246 57.9592 5.84246C57.9592 5.84246 57.9592 5.84246 57.929 5.84246Z" fill="#050F01"/>
<path fill-rule="evenodd" clip-rule="evenodd" d="M57.929 18.0963C55.8762 18.1865 53.9139 17.3741 52.5554 15.8396C50.5932 13.5528 47.7252 12.259 44.7063 12.259C41.6875 12.259 38.8195 13.5528 36.8573 15.8396C35.861 16.9529 34.5629 17.7051 33.0837 17.9759C32.5704 18.0662 32.1478 18.0662 32.1478 18.0662C32.1176 18.0662 32.0874 18.0662 32.0874 18.0662C29.944 18.2467 27.8912 17.4343 26.4723 15.8396C24.51 13.5528 21.6421 12.259 18.6232 12.259C15.6043 12.259 12.7364 13.5528 10.7741 15.8396C9.41564 17.3741 7.45334 18.1865 5.40051 18.0963C3.34768 17.9759 1.47598 16.9529 0.298608 15.2679C0.268433 15.2378 0.268433 15.2378 0.268433 15.2378C0.268433 17.5848 0.268433 17.5848 0.268433 17.5848C1.65712 18.8184 3.40807 19.5405 5.30994 19.6609C7.84582 19.7813 10.2609 18.7582 11.9515 16.8626C13.642 14.9369 16.0572 13.8236 18.6232 13.8236C21.1893 13.8236 23.6044 14.9369 25.295 16.8626C26.8949 18.6679 29.0987 19.6609 31.4837 19.6609C31.7251 19.6609 31.9365 19.6609 32.178 19.6308C32.2987 19.6308 32.6912 19.6007 33.144 19.5405C33.1742 19.5405 33.2044 19.5405 33.2346 19.5405C33.295 19.5405 33.3252 19.5104 33.3855 19.5104C33.7478 19.4503 34.1101 19.36 34.5025 19.2096C35.861 18.7582 37.0686 17.9759 38.0346 16.8626C39.7252 14.9369 42.1403 13.8236 44.7063 13.8236C47.2724 13.8236 49.6875 14.9369 51.3781 16.8626C52.9479 18.6379 55.1818 19.6609 57.5668 19.6609C57.7177 19.6609 57.8385 19.6609 57.9592 19.6609C57.9592 18.0662 57.9592 18.0662 57.9592 18.0662C57.9592 18.0963 57.9592 18.0963 57.929 18.0963Z" fill="#050F01"/>
<path fill-rule="evenodd" clip-rule="evenodd" d="M57.929 30.3134C55.8762 30.4342 53.9139 29.5883 52.5554 28.0476C50.5932 25.7819 47.7252 24.4828 44.7063 24.4828C41.6875 24.4828 38.8195 25.7819 36.8573 28.0476C35.861 29.1654 34.5629 29.9206 33.0837 30.1925C32.5704 30.2832 32.1478 30.2832 32.1478 30.2832C32.1176 30.2832 32.0874 30.2832 32.0874 30.2832C29.944 30.4946 27.8912 29.6488 26.4723 28.0476C24.51 25.7819 21.6421 24.4828 18.6232 24.4828C15.6043 24.4828 12.7364 25.7819 10.7741 28.0476C9.41564 29.5883 7.45334 30.4342 5.40051 30.3134C3.34768 30.1925 1.47598 29.1654 0.298608 27.4736C0.268433 27.4434 0.268433 27.4434 0.268433 27.4434C0.268433 29.7998 0.268433 29.7998 0.268433 29.7998C1.65712 31.0384 3.40807 31.7634 5.30994 31.8843C7.84582 32.0051 10.2609 31.0082 11.9515 29.0747C13.642 27.1413 16.0572 26.0538 18.6232 26.0538C21.1893 26.0538 23.6044 27.1413 25.295 29.0747C26.8949 30.8874 29.0987 31.8843 31.4837 31.8843C31.7251 31.8843 31.9365 31.8843 32.178 31.8541C32.2987 31.8541 32.6912 31.8541 33.144 31.7936C33.1742 31.7936 33.2044 31.7634 33.2346 31.7634C33.295 31.7634 33.3252 31.7634 33.3855 31.7332C33.7478 31.6728 34.1101 31.5822 34.4723 31.4613C35.861 31.0082 37.0686 30.1925 38.0346 29.0747C39.7252 27.1413 42.1403 26.0538 44.7063 26.0538C47.2724 26.0538 49.6875 27.1413 51.3781 29.0747C52.9479 30.8874 55.1818 31.8843 57.5668 31.8843C57.7177 31.8843 57.8385 31.8843 57.9592 31.8843C57.9592 30.3134 57.9592 30.3134 57.9592 30.3134C57.9592 30.3134 57.9592 30.3134 57.929 30.3134Z" fill="#050F01"/>
<path fill-rule="evenodd" clip-rule="evenodd" d="M57.929 42.5137C55.8762 42.634 53.9139 41.8216 52.5554 40.257C50.5932 38.0003 47.7252 36.7065 44.7063 36.7065C41.6875 36.7065 38.8195 38.0003 36.8573 40.257C35.861 41.4003 34.5629 42.1225 33.0837 42.4234C32.5704 42.4836 32.1478 42.5137 32.1478 42.5137C32.1176 42.5137 32.0874 42.5137 32.0874 42.5137C29.944 42.6942 27.8912 41.8818 26.4723 40.257C24.51 38.0003 21.6421 36.7065 18.6232 36.7065C15.6043 36.7065 12.7364 38.0003 10.7741 40.257C9.41564 41.8216 7.45334 42.634 5.40051 42.5137C3.34768 42.4234 1.47598 41.3703 0.298608 39.6853C0.268433 39.6552 0.268433 39.6552 0.268433 39.6552C0.268433 42.0022 0.268433 42.0022 0.268433 42.0022C1.65712 43.2358 3.40807 43.988 5.30994 44.0783C7.84582 44.2287 10.2609 43.2057 11.9515 41.28C13.642 39.3844 16.0572 38.2711 18.6232 38.2711C21.1893 38.2711 23.6044 39.3844 25.295 41.28C26.8949 43.0854 29.0987 44.1084 31.4837 44.1084C31.7251 44.1084 31.9365 44.0783 32.178 44.0783C32.2987 44.0783 32.6912 44.0482 33.144 43.988C33.1742 43.988 33.2044 43.988 33.2346 43.988C33.295 43.958 33.3252 43.958 33.3855 43.958C33.7478 43.8978 34.1101 43.8075 34.4723 43.657C35.861 43.2057 37.0686 42.3933 38.0346 41.28C39.7252 39.3844 42.1403 38.2711 44.7063 38.2711C47.2724 38.2711 49.6875 39.3844 51.3781 41.28C52.9479 43.0854 55.1818 44.1084 57.5668 44.1084C57.7177 44.1084 57.8385 44.0783 57.9592 44.0783C57.9592 42.5137 57.9592 42.5137 57.9592 42.5137C57.9592 42.5137 57.9592 42.5137 57.929 42.5137Z" fill="#050F01"/>
</svg>
