<svg width="71" height="70" viewBox="0 0 71 70" fill="none" xmlns="http://www.w3.org/2000/svg">
<g clip-path="url(#clip0)">
<path fill-rule="evenodd" clip-rule="evenodd" d="M2.42726 44.2355C1.85273 44.2355 1.38672 43.7695 1.38672 43.195C1.38672 42.6204 1.85273 42.1544 2.42726 42.1544H45.5377C48.0626 42.1544 50.3489 43.1783 52.0037 44.8331C53.6582 46.4878 54.6822 48.7743 54.6822 51.2994C54.6822 53.8242 53.6582 56.1106 52.0037 57.7655C50.3489 59.4199 48.0626 60.4439 45.5377 60.4439C43.0129 60.4439 40.7267 59.4199 39.0717 57.7651C37.4169 56.1106 36.3929 53.824 36.3929 51.2994C36.3929 50.7249 36.8589 50.259 37.4335 50.259C38.008 50.259 38.474 50.7249 38.474 51.2994C38.474 53.2498 39.2649 55.0164 40.5429 56.294C41.8208 57.5719 43.5871 58.363 45.5377 58.363C47.4884 58.363 49.2547 57.5719 50.5326 56.2944C51.8102 55.0164 52.6012 53.25 52.6012 51.2994C52.6012 49.3485 51.8105 47.5821 50.5326 46.3043C49.2547 45.0263 47.4884 44.2355 45.5377 44.2355H2.42726ZM2.42726 22.2091C1.85273 22.2091 1.38672 21.7432 1.38672 21.1687C1.38672 20.5942 1.85273 20.1281 2.42726 20.1281H36.2667C37.3341 20.1281 38.3009 19.6952 38.9998 18.9963C39.6988 18.2972 40.1317 17.3301 40.1317 16.2629C40.1317 15.1955 39.6988 14.2284 38.9998 13.5295C38.3009 12.8305 37.3341 12.3976 36.2667 12.3976C35.1995 12.3976 34.2327 12.8305 33.5336 13.5295C32.8347 14.2284 32.4017 15.1955 32.4017 16.2629C32.4017 16.8374 31.9357 17.3033 31.3612 17.3033C30.7868 17.3033 30.3208 16.8374 30.3208 16.2629C30.3208 14.6213 30.9866 13.1343 32.0625 12.0584C33.1385 10.9825 34.6252 10.3166 36.2667 10.3166C37.9083 10.3166 39.395 10.9825 40.4709 12.0584C41.5468 13.1343 42.2127 14.6213 42.2127 16.2629C42.2127 17.9044 41.5468 19.3914 40.4709 20.4673C39.395 21.5431 37.9083 22.2091 36.2667 22.2091H2.42726ZM2.42726 33.222C1.85273 33.222 1.38672 32.7561 1.38672 32.1816C1.38672 31.607 1.85273 31.141 2.42726 31.141H58.3175C60.9842 31.141 63.3991 30.0597 65.1461 28.3126C66.8933 26.5654 67.9746 24.1506 67.9746 21.484C67.9746 18.8172 66.8933 16.4023 65.1461 14.6555C63.3991 12.9084 60.9842 11.8272 58.3175 11.8272C55.6507 11.8272 53.2359 12.9085 51.4888 14.6552C49.7419 16.4024 48.6607 18.8172 48.6607 21.484C48.6607 22.0584 48.1948 22.5244 47.6203 22.5244C47.0457 22.5244 46.5797 22.0584 46.5797 21.484C46.5797 18.243 47.8939 15.3082 50.0176 13.1842C52.1418 11.0605 55.0765 9.74609 58.3175 9.74609C61.5584 9.74609 64.4933 11.0604 66.6173 13.1844C68.7414 15.3082 70.0555 18.243 70.0555 21.484C70.0555 24.7248 68.7414 27.6596 66.6173 29.7836C64.4933 31.9077 61.5584 33.222 58.3175 33.222H2.42726Z" fill="black"/>
</g>
<defs>
<clipPath id="clip0">
<rect width="70" height="70" fill="white" transform="translate(0.5)"/>
</clipPath>
</defs>
</svg>
