<svg height='100px' width='100px'  fill="#000000" xmlns="http://www.w3.org/2000/svg" xmlns:xlink="http://www.w3.org/1999/xlink" version="1.1" x="0px" y="0px" viewBox="0 0 512 512" style="enable-background:new 0 0 512 512;" xml:space="preserve"><g><g><g><path d="M152.816,346h-70c-5.523,0-10-4.478-10-10v-2c0-18.244,12.923-33.527,30.097-37.174l27.091-101.589     c0.69-2.588,2.39-4.791,4.718-6.116c2.328-1.325,5.089-1.66,7.668-0.93c6.551,1.854,11.928,3.06,16.671,4.123     c11.78,2.64,20.291,4.547,27.459,12.967c6.39,7.506,10.503,18.961,16.784,40.256c0.69,2.339,0.501,4.849-0.529,7.058     l-40.896,87.633C160.235,343.75,156.702,346,152.816,346z M94.694,326h51.754l36.598-78.423     c-4.57-15.241-8.057-24.987-11.754-29.331c-2.699-3.17-6.374-4.124-16.604-6.417c-2.355-0.527-4.996-1.119-7.923-1.826     l-26.286,98.573c-1.167,4.378-5.132,7.424-9.662,7.424C103.763,316,97.644,320.078,94.694,326z"></path></g><g><path d="M400.219,356.615c-0.027,0-0.055,0-0.082,0l-69.614-0.562c-3.931-0.032-7.479-2.364-9.067-5.961     c-4.574-10.361,3.814-17.881,6.571-20.353c0.289-0.26,0.566-0.503,0.809-0.735c1.698-2.113,5.499-10.391,8.937-18.811     c-2.095-1.412-4.153-2.968-5.581-4.439c-12.123-12.525-13.727-24.176-14.066-30.943c-1.215-0.29-2.503-0.647-3.8-1.164     c-5.235-2.099-9.485-4.578-12.905-6.775c-2.506,5.897-6.459,15.618-12.693,31.593l-0.748,1.914     c-8.11,20.655-8.288,28.127-8.431,34.129c-0.098,4.117-0.198,8.375-2.095,14.479c-1.299,4.182-5.168,7.032-9.547,7.033     l-82.625,0.021c0,0-0.001,0-0.002,0c-2.797,0-5.466-1.172-7.36-3.23c-1.895-2.059-2.839-4.817-2.605-7.605     c1.412-16.828,10.637-24.376,21.288-31.066c-1.414-16.188-6.451-42.134-10.458-56.006c-0.704-2.439-1.375-4.743-2.023-6.939     c-7.416-25.142-10.851-32.769-15.98-35.482c-2.846-1.505-7.294-2.502-13.452-3.882c-4.75-1.064-10.662-2.389-17.747-4.395     c-1.424-0.403-2.894-0.832-4.419-1.295c-8.388-2.549-13.526-4.923-17.654-6.831c-3.417-1.58-5.675-2.623-8.703-3.259     c-6.85-1.437-14.687-2.368-22.265-3.268c-3.242-0.385-6.595-0.784-9.856-1.219c-3.062-0.401-5.985-0.572-8.812-0.738     c-8.957-0.523-18.22-1.065-26.011-9.348l-0.109-0.117c-14.116-15.177-18.925-25.691-15.593-34.092     c1.316-3.303,4.042-10.147,31.7-18.271c0.103-0.03,0.203-0.059,0.301-0.087c0.596-1.295,1.076-2.409,1.513-3.425     c3.377-7.849,5.696-10.64,15.571-15.318c7.442-3.514,12.143-5.252,14.952-6.291c0.141-0.052,0.284-0.105,0.428-0.159     c0.007-0.022,0.015-0.044,0.021-0.065c0.32-0.962,0.704-2.113,1.201-3.504c4.398-12.279,8.195-22.878,19.132-22.878     c5.731,0,10.325,3.47,14.437,7.219c2.238,2.038,3.724,3.765,4.75,5.07c3.596-0.057,7.093-0.172,10.785-0.294     c2.038-0.068,4.086-0.135,6.167-0.193c26.65-0.709,36.849-1.517,56.214-12.553C212.928,69.54,225.285,66,237.417,66     c11.5,0,22.464,3.193,32.587,9.49c7.821,4.858,11.281,6.56,19.36,6.559c1.51,0,3.142-0.062,4.988-0.189     c6.852-0.475,14.601-1.731,22.095-2.946c3.318-0.538,6.75-1.094,10.017-1.566c11.83-1.72,24.916-2.629,37.833-2.629     c13.424,0,26.024,1.018,36.441,2.942c39.037,7.259,68.405,35.952,82.708,80.796c7.557,23.788,0.853,52.158-4.533,74.955     l-0.083,0.351c-0.593,2.503-1.173,4.868-1.727,7.123c-4.891,19.918-6.914,28.162,3.218,46.113c0.607,1.075,1.2,2.091,1.769,3.063     c4.791,8.202,9.316,15.949,6.565,31.858c-0.739,4.278-4.8,25.932-12.132,31.886c-1.782,1.447-4.008,2.237-6.304,2.237     c-0.003,0-0.007,0-0.01,0L428.317,356c-3.275-0.003-6.341-1.609-8.207-4.3c-1.866-2.691-2.297-6.125-1.153-9.193     c1.662-4.458,3.971-7.779,6.087-10.69c-2.351-1.101-4.671-2.253-6.656-3.536c-0.431-0.279-0.828-0.531-1.194-0.758     c-0.529,2.134-1.089,4.738-1.612,7.173c-0.367,1.709-0.762,3.541-1.197,5.497c-0.042,0.185-0.088,0.368-0.14,0.551     c-1.033,3.646-2.437,5.814-3.462,7.397c-0.557,0.86-0.959,1.482-1.424,2.531C407.754,354.287,404.169,356.615,400.219,356.615z      M347.817,336.192l46.626,0.376c0.258-0.419,0.368-0.653,0.49-1.047c0.396-1.784,0.757-3.461,1.094-5.03     c1.344-6.247,2.314-10.76,3.848-14.452c3.78-9.104,10.492-10.463,14.156-10.463c4.344,0,8.757,1.715,15.232,5.92     c1.363,0.882,3.967,2.077,6.263,3.133c3.599,1.652,6.997,3.214,9.524,5.151c3.393,2.602,4.757,7.071,3.395,11.123     c-0.634,1.885-1.396,3.573-2.224,5.114l18.149,0.019c1.659-4.601,3.695-12.419,4.577-17.523     c1.508-8.718-0.026-11.345-4.127-18.364c-0.614-1.053-1.256-2.151-1.915-3.318c-14.029-24.855-10.526-39.121-5.226-60.715     c0.541-2.204,1.108-4.515,1.687-6.957l0.082-0.348c4.82-20.398,10.818-45.784,4.94-64.29     c-6.922-21.703-24.874-59.309-67.295-67.197c-9.227-1.705-20.572-2.607-32.797-2.607c-11.801,0-24.218,0.86-34.964,2.422     c-3.104,0.449-6.301,0.967-9.685,1.516c-7.938,1.288-16.147,2.619-23.917,3.157c-2.312,0.159-4.394,0.237-6.367,0.237     c-13.496,0-20.608-3.79-29.919-9.573c-14.629-9.099-31.446-8.508-48.849,1.418c-23.661,13.484-37.977,14.436-65.575,15.17     c-2.034,0.057-4.047,0.123-6.05,0.189c-3.804,0.126-7.737,0.256-11.741,0.312l-0.622,0.004c-7.628,0-10.959-2.479-14.136-6.762     c-0.54-0.728-1.092-1.473-2.022-2.43c-0.908,2.305-1.824,4.862-2.415,6.509c-0.436,1.219-0.772,2.232-1.054,3.079     c-2.512,7.549-4.729,9.798-12.489,12.668c-2.666,0.986-6.694,2.476-13.338,5.613c-3.098,1.468-4.144,2.118-4.495,2.394     c-0.265,0.447-0.789,1.667-1.256,2.751c-0.644,1.496-1.445,3.358-2.578,5.713c-2.754,5.729-5.968,7.532-10.589,8.711     c-0.39,0.099-0.844,0.213-1.381,0.372c-8.449,2.481-14.187,4.874-17.27,6.504c1.433,2.551,4.443,6.89,10.171,13.049l0.071,0.076     c2.117,2.25,4.808,2.589,12.572,3.043c3.032,0.177,6.469,0.378,10.269,0.876c3.142,0.419,6.42,0.809,9.592,1.186     c8.01,0.952,16.293,1.936,24.015,3.555c5.251,1.104,9.007,2.84,12.983,4.678c3.755,1.735,8.012,3.703,15.074,5.849     c1.396,0.423,2.748,0.818,4.056,1.188c6.552,1.855,11.929,3.06,16.672,4.123c7.385,1.655,13.218,2.962,18.43,5.719     c12.659,6.696,17.586,19.617,25.812,47.504c0.658,2.233,1.34,4.571,2.055,7.048c4.459,15.438,11.025,48.257,11.588,66.638     c0.111,3.605-1.729,6.99-4.813,8.859l-0.634,0.384c-5.08,3.076-8.668,5.321-11.165,7.572l59.161-0.016     c0.023-0.62,0.039-1.275,0.056-1.989c0.18-7.579,0.404-17.013,9.805-40.955l0.736-1.885     c14.66-37.563,17.438-42.579,19.353-44.947c2.786-3.446,7.509-4.647,11.602-2.952c2.804,1.16,5.408,2.908,8.166,4.759     c3.47,2.328,7.403,4.967,12.531,7.022c0.37,0.147,1.55,0.406,2.331,0.577c2.556,0.561,5.736,1.258,8.564,3.188     c0.514,0.351,0.993,0.748,1.433,1.188c3.706,3.707,3.846,8.289,3.959,11.971c0.154,5.076,0.348,11.393,8.52,19.837     c1.052,1.039,5.3,3.703,8.382,5.377c4.383,2.382,6.341,7.63,4.588,12.301C356.741,316.924,352.174,328.391,347.817,336.192z"></path></g><g><path d="M122.846,146c-5.522,0-10.005-4.477-10.005-10s4.472-10,9.995-10h0.01c5.523,0,10,4.477,10,10S128.369,146,122.846,146z"></path></g><g><path d="M297.218,262.533c-2.279,0-4.571-0.774-6.448-2.361c-4.219-3.564-4.75-9.874-1.186-14.092     c0.181-0.216,19.774-24.035,13.565-47.524c-1.411-5.339,1.772-10.812,7.112-12.224c5.341-1.411,10.812,1.772,12.224,7.112     c8.895,33.646-16.537,64.256-17.624,65.542C302.884,261.328,300.06,262.533,297.218,262.533z"></path></g><g><path d="M412.827,326.001c-3.325,0-6.576-1.656-8.477-4.68c-2.938-4.676-1.531-10.849,3.146-13.788     c6.281-3.948,2.019-24.467-3.803-37.439c-2.261-5.039-0.009-10.956,5.03-13.217c5.039-2.262,10.956-0.009,13.218,5.03     c2.155,4.804,20.361,47.371-3.803,62.561C416.486,325.506,414.646,326.001,412.827,326.001z"></path></g><g><path d="M224.018,236.91c-28.333,0-56.009-21.114-57.318-22.126c-4.369-3.378-5.173-9.659-1.794-14.028     c3.374-4.366,9.646-5.172,14.017-1.803l0,0c8.054,6.189,33.053,21.36,51.763,17.277c5.399-1.176,10.725,2.243,11.902,7.638     c1.177,5.396-2.243,10.725-7.638,11.902C231.331,236.56,227.668,236.91,224.018,236.91z"></path></g><g><path d="M272.817,416H82.816c-5.523,0-10-4.478-10-10s4.477-10,10-10h190.001c5.522,0,10,4.478,10,10S278.34,416,272.817,416z"></path></g><g><path d="M372.817,446h-80c-5.522,0-10-4.478-10-10s4.478-10,10-10h80c5.522,0,10,4.478,10,10S378.34,446,372.817,446z"></path></g></g></g></svg>