<svg height='100px' width='100px'  fill="#000000" xmlns:svg="http://www.w3.org/2000/svg" xmlns:sodipodi="http://sodipodi.sourceforge.net/DTD/sodipodi-0.dtd" xmlns:inkscape="http://www.inkscape.org/namespaces/inkscape" xmlns:dc="http://purl.org/dc/elements/1.1/" xmlns:cc="http://creativecommons.org/ns#" xmlns:rdf="http://www.w3.org/1999/02/22-rdf-syntax-ns#" xmlns="http://www.w3.org/2000/svg" xmlns:xlink="http://www.w3.org/1999/xlink" version="1.1" x="0px" y="0px" viewBox="0 0 800 800" enable-background="new 0 0 800 800" xml:space="preserve"><g><path fill="#000000" d="M169.24,706.576h461.521c5.128,0,9.915-2.601,12.701-6.901l125.147-193.241   c3.015-4.654,3.244-10.588,0.591-15.457c-2.645-4.869-7.75-7.905-13.292-7.905H626.978V375.257c0-8.356-6.775-15.132-15.132-15.132   H479.442V108.558c0-6.121-3.688-11.637-9.339-13.979c-5.66-2.346-12.162-1.053-16.492,3.28L277.704,273.767   c-4.33,4.326-5.623,10.835-3.28,16.488c2.342,5.656,7.861,9.343,13.979,9.343h160.776v60.527H188.154   c-8.356,0-15.132,6.775-15.132,15.132v107.814H44.092c-5.542,0-10.647,3.036-13.292,7.905c-2.653,4.869-2.424,10.803,0.591,15.457   l125.148,193.241C159.324,703.976,164.112,706.576,169.24,706.576z M324.932,269.334l124.247-124.243v124.243H324.932z    M203.286,390.389h393.428V545.49H203.286V390.389z M173.022,513.335v47.287c0,8.356,6.775,15.132,15.132,15.132h423.691   c8.356,0,15.132-6.775,15.132-15.132v-47.287h101.105L622.529,676.313H177.471L71.917,513.335H173.022z"></path><path fill="#000000" d="M268.232,416.241c-28.513,0-51.705,23.193-51.705,51.698s23.192,51.69,51.705,51.69   c28.505,0,51.69-23.186,51.69-51.69S296.737,416.241,268.232,416.241z M268.232,489.366c-11.822,0-21.441-9.612-21.441-21.427   s9.62-21.435,21.441-21.435c11.814,0,21.427,9.62,21.427,21.435S280.046,489.366,268.232,489.366z"></path><path fill="#000000" d="M400,416.241c-28.505,0-51.698,23.193-51.698,51.698s23.193,51.69,51.698,51.69s51.698-23.186,51.698-51.69   S428.505,416.241,400,416.241z M400,489.366c-11.822,0-21.434-9.612-21.434-21.427s9.612-21.435,21.434-21.435   c11.822,0,21.435,9.62,21.435,21.435S411.822,489.366,400,489.366z"></path><path fill="#000000" d="M531.769,416.241c-28.506,0-51.69,23.193-51.69,51.698s23.185,51.69,51.69,51.69   c28.513,0,51.705-23.186,51.705-51.69S560.281,416.241,531.769,416.241z M531.769,489.366c-11.814,0-21.427-9.612-21.427-21.427   s9.612-21.435,21.427-21.435c11.821,0,21.441,9.62,21.441,21.435S543.59,489.366,531.769,489.366z"></path></g></svg>