<svg width="71" height="70" viewBox="0 0 71 70" fill="none" xmlns="http://www.w3.org/2000/svg">
<path d="M14.2854 63.2478H55.9505C56.4134 63.2478 56.8456 63.0104 57.0971 62.6179L68.3951 44.9789C68.6673 44.5541 68.6879 44.0124 68.4484 43.568C68.2096 43.1235 67.7488 42.8464 67.2485 42.8464H55.6089V33.005C55.6089 32.2423 54.9973 31.6238 54.2429 31.6238H42.2897V8.66075C42.2897 8.10202 41.9568 7.59852 41.4466 7.38475C40.9356 7.1706 40.3486 7.28863 39.9577 7.68414L24.0773 23.741C23.6863 24.1359 23.5696 24.73 23.7811 25.2461C23.9926 25.7623 24.4908 26.0989 25.0431 26.0989H39.5576V31.6238H15.9929C15.2385 31.6238 14.6268 32.2422 14.6268 33.005V42.8463H2.98728C2.48696 42.8463 2.02609 43.1234 1.78731 43.5679C1.5478 44.0123 1.56847 44.554 1.84066 44.9788L13.1387 62.6178C13.3902 63.0105 13.8224 63.2478 14.2854 63.2478ZM28.3409 23.3364L39.5576 11.9955V23.3364H28.3409ZM17.359 34.3863H52.8768V48.5439H17.359V34.3863ZM14.6268 45.6088V49.9252C14.6268 50.6879 15.2384 51.3064 15.9929 51.3064H54.2428C54.9971 51.3064 55.6088 50.688 55.6088 49.9252V45.6088H64.7364L55.2073 60.4854H15.0284L5.49926 45.6088H14.6268Z" fill="black"/>
<path d="M23.2225 36.7461C20.6484 36.7461 18.5547 38.8631 18.5547 41.4651C18.5547 44.067 20.6484 46.1833 23.2225 46.1833C25.7959 46.1833 27.889 44.0669 27.889 41.4651C27.889 38.8632 25.7959 36.7461 23.2225 36.7461ZM23.2225 43.4209C22.1552 43.4209 21.2869 42.5436 21.2869 41.4651C21.2869 40.3866 22.1553 39.5085 23.2225 39.5085C24.2891 39.5085 25.1569 40.3866 25.1569 41.4651C25.1569 42.5436 24.2891 43.4209 23.2225 43.4209Z" fill="black"/>
<path d="M35.1164 36.7461C32.543 36.7461 30.4492 38.8631 30.4492 41.4651C30.4492 44.067 32.543 46.1833 35.1164 46.1833C37.6898 46.1833 39.7836 44.0669 39.7836 41.4651C39.7836 38.8632 37.6898 36.7461 35.1164 36.7461ZM35.1164 43.4209C34.0491 43.4209 33.1814 42.5436 33.1814 41.4651C33.1814 40.3866 34.0491 39.5085 35.1164 39.5085C36.1837 39.5085 37.0515 40.3866 37.0515 41.4651C37.0515 42.5436 36.1837 43.4209 35.1164 43.4209Z" fill="black"/>
<path d="M47.0141 36.7461C44.4406 36.7461 42.3477 38.8631 42.3477 41.4651C42.3477 44.067 44.4407 46.1833 47.0141 46.1833C49.5882 46.1833 51.6819 44.0669 51.6819 41.4651C51.6819 38.8632 49.5881 36.7461 47.0141 36.7461ZM47.0141 43.4209C45.9476 43.4209 45.0797 42.5436 45.0797 41.4651C45.0797 40.3866 45.9475 39.5085 47.0141 39.5085C48.0813 39.5085 48.9497 40.3866 48.9497 41.4651C48.9497 42.5436 48.0813 43.4209 47.0141 43.4209Z" fill="black"/>
</svg>
