<svg width="71" height="71" viewBox="0 0 71 71" fill="none" xmlns="http://www.w3.org/2000/svg">
<mask id="mask0_16:202" style="mask-type:alpha" maskUnits="userSpaceOnUse" x="2" y="3" width="66" height="66">
<rect x="2.85742" y="3.40665" width="65" height="65" fill="#C4C4C4"/>
</mask>
<g mask="url(#mask0_16:202)">
<path d="M29.8019 74.2313C29.8223 74.3552 29.8449 74.479 29.8654 74.6039C29.9053 74.843 29.9236 75.0789 29.9483 75.3169C29.552 75.2415 29.1589 75.1672 28.7562 75.0896C27.438 74.8312 26.0746 74.5652 24.7166 74.3659C21.7917 73.9406 18.9206 74.6255 16.1433 75.2889C14.8294 75.6033 13.4703 75.9286 12.1586 76.1159C11.5696 76.1999 11.1603 76.7459 11.2454 77.335C11.3305 77.9241 11.8819 78.3409 12.4634 78.2493C13.8731 78.0469 15.2817 77.7109 16.644 77.3846C19.3406 76.7395 21.8897 76.1299 24.4054 76.4993C25.7128 76.6889 27.0503 76.9506 28.3437 77.2036C31.0005 77.7227 33.7488 78.259 36.5412 78.259C38.512 78.259 40.4257 77.7712 42.2769 77.2973C44.4922 76.7319 46.5868 76.1978 48.6362 76.4982C49.9436 76.6878 51.28 76.9495 52.5734 77.2026C55.2313 77.7216 57.9796 78.2579 60.772 78.2579C62.7428 78.2579 64.6554 77.7701 66.5066 77.2962C68.7229 76.7309 70.8176 76.1967 72.8659 76.4972C74.1732 76.6867 75.5097 76.9484 76.8031 77.2015C79.4609 77.7206 82.2093 78.2569 85.0017 78.2569C86.9563 78.2569 88.8528 77.769 90.6879 77.2962C92.8729 76.7352 94.9352 76.2032 96.9631 76.4961L109.077 78.2461C109.129 78.2526 109.182 78.2569 109.234 78.2569C109.76 78.2569 110.221 77.8702 110.298 77.3339C110.383 76.7449 109.974 76.1999 109.385 76.1138L97.27 74.3638C94.8179 74.0106 92.4454 74.6201 90.1516 75.2113C88.3682 75.6701 86.6839 76.103 85.0017 76.103C82.4171 76.103 79.8906 75.6087 77.2166 75.0875C75.8985 74.829 74.5362 74.563 73.1771 74.3638C70.6969 74.0019 68.2965 74.6158 65.9736 75.2092C64.1729 75.669 62.4714 76.103 60.772 76.103C58.1874 76.103 55.6609 75.6087 52.9869 75.0875C51.6688 74.829 50.3065 74.563 48.9474 74.3638C46.4888 74.0062 44.1088 74.6061 41.8042 75.1941C43.7642 68.7864 46.9885 65.4609 51.6537 65.0549C52.246 65.0032 52.6843 64.4809 52.6326 63.8886C52.582 63.2962 52.0716 62.8482 51.4663 62.9096C48.5877 63.1595 46.1442 64.3322 44.1465 66.4096C45.3386 62.4842 46.5825 58.5729 47.864 54.669C48.8171 54.9275 49.8014 54.8219 50.6339 54.4095C51.5245 53.969 52.2493 53.1926 52.5874 52.1824L52.5917 52.1738L52.6046 52.135V52.1264L56.9877 38.3719C57.3162 37.3456 57.2074 36.2784 56.7626 35.3856C56.3932 34.6447 55.7805 34.0341 55.0008 33.6464L55.7406 31.5001C55.9345 30.9379 55.634 30.3252 55.0719 30.1324C54.5108 29.9396 53.898 30.239 53.7042 30.8012L52.946 33.0013C52.1922 32.9227 51.4426 33.0638 50.7868 33.3879C49.8962 33.8284 49.1714 34.6049 48.8333 35.6161L48.8289 35.6247L48.816 35.6635V35.6721L44.4319 49.4255C44.1056 50.4518 44.2122 51.519 44.6569 52.4118C44.9348 52.9696 45.358 53.4478 45.876 53.8226C44.742 57.2719 43.6306 60.7289 42.5634 64.1987C42.5042 59.1813 41.6426 54.417 38.9923 50.4604C38.6596 49.9661 37.9908 49.8336 37.4976 50.1664C37.0033 50.497 36.8708 51.1658 37.2025 51.6601C41.1031 57.4819 40.7165 65.5707 39.8345 73.4775C39.6148 74.2572 39.3865 75.0347 39.1722 75.8155C38.2859 75.9899 37.4125 76.1063 36.5402 76.1063C36.5208 76.1063 36.5003 76.1041 36.4809 76.1041V75.0562C36.9139 70.8832 37.3457 66.9459 39.9443 63.9898C40.3374 63.5429 40.2932 62.8633 39.8463 62.4702C39.3994 62.0772 38.7188 62.1213 38.3268 62.5683C37.5632 63.4373 36.9623 64.3699 36.4809 65.3456V62.2559C37.2639 61.5689 38.1426 60.9722 39.1172 60.4844C39.6492 60.2184 39.8646 59.5712 39.5986 59.0392C39.3326 58.5072 38.6865 58.2907 38.1534 58.5578C37.5632 58.8518 37.0119 59.191 36.4809 59.5496V41.8364C37.2832 41.691 38.0059 41.3087 38.5594 40.7541C39.2702 40.0433 39.7117 39.0623 39.7117 37.981V19.8295C39.7117 18.7493 39.2702 17.7672 38.5594 17.0564C38.0048 16.5018 37.2832 16.1195 36.4809 15.9752V13.7513C36.4809 13.1569 35.9985 12.6744 35.404 12.6744C34.8096 12.6744 34.3271 13.1569 34.3271 13.7513V15.9752C33.5248 16.1206 32.8022 16.5029 32.2486 17.0564C31.5379 17.7672 31.0963 18.7493 31.0963 19.8295V37.981C31.0963 39.0612 31.5379 40.0433 32.2486 40.7541C32.8032 41.3087 33.5248 41.691 34.3271 41.8364V56.5375C33.4483 54.9102 32.2303 53.2475 30.5417 51.2153C30.1626 50.7576 29.4831 50.6963 29.0254 51.0742C28.5677 51.4544 28.5052 52.1329 28.8843 52.5906C31.9029 56.2252 33.2954 58.4199 33.9017 61.7713C32.4608 63.3555 31.4032 65.2433 30.7668 67.3326C29.8956 62.6921 28.9317 58.0753 27.8343 53.4909C27.6405 52.6799 27.4369 51.8723 27.2356 51.0646C27.802 50.7167 28.2748 50.2472 28.5957 49.6861C29.0943 48.817 29.2645 47.7584 28.9823 46.7203L28.978 46.7159L28.9759 46.7063L28.9748 46.7073L25.5426 34.2344C25.2551 33.1898 24.5723 32.3573 23.7033 31.8598C23.0313 31.4753 22.2462 31.2933 21.4449 31.3569C21.1693 30.5503 20.8957 29.7447 20.6114 28.9413C20.4143 28.3813 19.8005 28.0884 19.2405 28.2855C18.6805 28.4826 18.3876 29.0964 18.5846 29.6564C18.8517 30.4092 19.1091 31.1652 19.3676 31.9212C18.618 32.2701 18.0106 32.8301 17.6176 33.5161C17.1189 34.3852 16.9499 35.4459 17.232 36.483L17.2363 36.4959L17.2385 36.5046L17.2417 36.5035L20.6717 48.9678C20.9582 50.0124 21.6409 50.8438 22.51 51.3424C23.3037 51.7969 24.2546 51.9573 25.2034 51.7732C25.3865 52.5098 25.5706 53.2464 25.7483 53.9863C26.71 58.0021 27.5716 62.061 28.3599 66.1501C23.9639 60.2033 16.6193 55.5973 10.8976 54.1672C10.3214 54.0239 9.73556 54.3739 9.59125 54.9522C9.44694 55.5284 9.79802 56.1132 10.3753 56.2586C18.5642 58.3047 28.2296 66.3332 29.8019 74.2313ZM46.4769 50.0738L50.8579 36.3279H50.8611L50.8729 36.2892C51.0226 35.8498 51.3436 35.5095 51.7377 35.3146C52.1405 35.1153 52.6165 35.0647 53.0688 35.2047L53.0677 35.2079L53.1065 35.2209L53.1086 35.2187L53.828 35.4599C54.2846 35.6129 54.6346 35.9392 54.836 36.3441C55.0428 36.7587 55.0945 37.253 54.9437 37.7236L50.5628 51.4695H50.5606L50.5477 51.5072C50.398 51.9455 50.0782 52.2869 49.6829 52.4818C49.2802 52.681 48.802 52.7316 48.3486 52.5906L48.3497 52.5884L48.3099 52.5755L47.5926 52.3353C47.1382 52.1835 46.7871 51.8572 46.5857 51.4522C46.3779 51.0387 46.3273 50.5444 46.4769 50.0738ZM23.5783 49.4761C23.1809 49.2478 22.8686 48.8719 22.7416 48.4056L19.3083 35.9295V35.9219H19.3094C19.1834 35.4556 19.2599 34.9786 19.4849 34.5866C19.7111 34.1903 20.0848 33.8812 20.5479 33.7541H20.5554V33.7563L21.2942 33.5549C21.7626 33.4278 22.2419 33.5043 22.6349 33.7293C23.0334 33.9566 23.3446 34.3324 23.4728 34.7998L26.906 47.2759V47.2803L26.9071 47.2835L26.9039 47.2856C27.0309 47.7509 26.9534 48.2279 26.7283 48.6199C26.5011 49.0152 26.1285 49.3253 25.6654 49.4513H25.6611L25.6579 49.4524L25.6568 49.4492L24.918 49.6516C24.4506 49.7776 23.9725 49.7012 23.5783 49.4761ZM33.2512 37.981V19.8295C33.2512 19.3438 33.4505 18.9001 33.7714 18.5792C34.0923 18.2583 34.536 18.059 35.0217 18.059H35.7863C36.2731 18.059 36.7157 18.2583 37.0366 18.5792C37.3576 18.9001 37.5568 19.3438 37.5568 19.8295V37.981C37.5568 38.4667 37.3565 38.9104 37.0366 39.2313C36.7157 39.5522 36.2731 39.7515 35.7863 39.7515H35.0217C34.536 39.7515 34.0923 39.5512 33.7714 39.2313C33.4505 38.9104 33.2512 38.4678 33.2512 37.981ZM34.242 64.8793C34.3799 67.3616 34.3239 70.4998 34.2442 74.8366L34.2226 75.9749C33.6799 75.9199 33.136 75.8596 32.59 75.7767C32.59 75.7013 32.604 75.627 32.5879 75.5495C31.7414 71.5724 32.3854 67.8118 34.242 64.8793Z" fill="black"/>
</g>
</svg>
