<svg height='100px' width='100px'  fill="#000000" xmlns="http://www.w3.org/2000/svg" xmlns:xlink="http://www.w3.org/1999/xlink" version="1.1" x="0px" y="0px" viewBox="0 0 100 100" enable-background="new 0 0 100 100" xml:space="preserve"><g><path d="M95.92,81.404l-11.25-1.626c-2.274-0.329-4.479,0.238-6.609,0.786c-1.656,0.427-3.221,0.829-4.783,0.829   c-2.4,0-4.748-0.459-7.231-0.944c-1.224-0.239-2.489-0.486-3.749-0.671c-2.302-0.333-4.531,0.234-6.689,0.784   c-1.672,0.428-3.252,0.831-4.83,0.831c-2.4,0-4.748-0.459-7.231-0.944c-1.224-0.239-2.489-0.486-3.749-0.671   c-2.3-0.333-4.532,0.234-6.689,0.784c-1.672,0.428-3.252,0.831-4.831,0.831c-2.4,0-4.747-0.459-7.231-0.944   c-1.224-0.239-2.489-0.486-3.75-0.671c-2.718-0.396-5.383,0.241-7.961,0.857c-1.22,0.292-2.482,0.594-3.7,0.769   c-0.547,0.078-0.927,0.584-0.848,1.131s0.591,0.932,1.131,0.848c1.31-0.187,2.618-0.499,3.882-0.802   c2.504-0.599,4.868-1.163,7.207-0.823c1.213,0.177,2.455,0.42,3.655,0.654c2.468,0.482,5.021,0.981,7.615,0.981   c1.83,0,3.607-0.454,5.326-0.893c2.058-0.524,4-1.021,5.905-0.743c1.213,0.177,2.454,0.42,3.654,0.654   c2.469,0.482,5.021,0.981,7.615,0.981c1.83,0,3.607-0.454,5.326-0.893c2.057-0.524,4-1.021,5.904-0.743   c1.213,0.177,2.454,0.42,3.654,0.654c2.469,0.482,5.021,0.981,7.615,0.981c1.815,0,3.577-0.453,5.281-0.892   c2.028-0.521,3.945-1.017,5.826-0.744l11.249,1.625c0.048,0.008,0.097,0.011,0.145,0.011c0.489,0,0.917-0.358,0.988-0.856   C96.846,81.99,96.467,81.482,95.92,81.404z"></path><path d="M22.02,73.766c0.019,0.115,0.04,0.23,0.059,0.346c0.037,0.222,0.054,0.441,0.077,0.662   c-0.368-0.07-0.733-0.139-1.107-0.211c-1.224-0.24-2.49-0.487-3.751-0.672c-2.716-0.395-5.382,0.241-7.961,0.857   c-1.22,0.292-2.482,0.594-3.7,0.768c-0.547,0.078-0.927,0.585-0.848,1.132s0.591,0.934,1.131,0.849   c1.309-0.188,2.617-0.5,3.882-0.803c2.504-0.599,4.871-1.165,7.207-0.822c1.214,0.176,2.456,0.419,3.657,0.654   c2.467,0.482,5.019,0.98,7.612,0.98c1.83,0,3.607-0.453,5.326-0.893c2.057-0.525,4.002-1.021,5.905-0.742   c1.214,0.176,2.455,0.419,3.656,0.654c2.468,0.482,5.02,0.98,7.613,0.98c1.83,0,3.606-0.453,5.325-0.893   c2.058-0.525,4.003-1.021,5.905-0.742c1.214,0.176,2.455,0.419,3.656,0.654c2.468,0.482,5.02,0.98,7.613,0.98   c1.815,0,3.576-0.453,5.28-0.892c2.029-0.521,3.944-1.015,5.827-0.743l11.249,1.625c0.048,0.006,0.097,0.01,0.145,0.01   c0.489,0,0.917-0.359,0.988-0.857c0.079-0.547-0.3-1.053-0.847-1.133l-11.25-1.625c-2.277-0.328-4.48,0.238-6.61,0.787   c-1.656,0.426-3.22,0.828-4.782,0.828c-2.4,0-4.746-0.459-7.229-0.943c-1.224-0.24-2.489-0.487-3.751-0.672   c-2.303-0.336-4.532,0.234-6.689,0.785c-1.672,0.427-3.252,0.83-4.83,0.83c-2.4,0-4.746-0.459-7.229-0.943   c-1.224-0.24-2.489-0.487-3.751-0.672c-2.283-0.332-4.493,0.225-6.633,0.771c1.82-5.95,4.814-9.038,9.146-9.415   c0.55-0.048,0.957-0.533,0.909-1.083c-0.047-0.55-0.521-0.966-1.083-0.909c-2.673,0.232-4.942,1.321-6.797,3.25   c1.107-3.645,2.262-7.277,3.452-10.902c0.885,0.24,1.799,0.142,2.572-0.241c0.827-0.409,1.5-1.13,1.814-2.068l0.004-0.008   l0.012-0.036V53.24l4.07-12.772c0.305-0.953,0.204-1.944-0.209-2.773c-0.343-0.688-0.912-1.255-1.636-1.615l0.687-1.993   c0.18-0.522-0.099-1.091-0.621-1.27c-0.521-0.179-1.09,0.099-1.27,0.621l-0.704,2.043c-0.7-0.073-1.396,0.058-2.005,0.359   c-0.827,0.409-1.5,1.13-1.814,2.069l-0.004,0.008l-0.012,0.036v0.008l-4.071,12.771c-0.303,0.953-0.204,1.944,0.209,2.773   c0.258,0.518,0.651,0.962,1.132,1.31c-1.053,3.203-2.085,6.413-3.076,9.635c-0.055-4.659-0.855-9.083-3.316-12.757   c-0.309-0.459-0.93-0.582-1.388-0.273c-0.459,0.307-0.582,0.928-0.274,1.387c3.622,5.406,3.263,12.917,2.444,20.259   c-0.204,0.724-0.416,1.446-0.615,2.171c-0.823,0.162-1.634,0.27-2.444,0.27c-0.018,0-0.037-0.002-0.055-0.002v-0.973   c0.402-3.875,0.803-7.531,3.216-10.276c0.365-0.415,0.324-1.046-0.091-1.411s-1.047-0.324-1.411,0.091   c-0.709,0.807-1.267,1.673-1.714,2.579v-2.869c0.727-0.638,1.543-1.192,2.448-1.645c0.494-0.247,0.694-0.848,0.447-1.342   s-0.847-0.695-1.342-0.447c-0.548,0.273-1.06,0.588-1.553,0.921V43.685c0.745-0.135,1.416-0.49,1.93-1.005   c0.66-0.66,1.07-1.571,1.07-2.575V23.25c0-1.003-0.41-1.915-1.07-2.575c-0.515-0.515-1.185-0.87-1.93-1.004v-2.065   c0-0.552-0.448-1-1-1c-0.552,0-1,0.448-1,1v2.065c-0.745,0.135-1.416,0.49-1.93,1.004c-0.66,0.66-1.07,1.572-1.07,2.575v16.855   c0,1.003,0.41,1.915,1.07,2.575c0.515,0.515,1.185,0.87,1.93,1.005v13.651c-0.816-1.511-1.947-3.055-3.515-4.942   c-0.352-0.425-0.983-0.482-1.408-0.131c-0.425,0.353-0.483,0.983-0.131,1.408c2.803,3.375,4.096,5.413,4.659,8.525   c-1.338,1.471-2.32,3.224-2.911,5.164c-0.809-4.309-1.704-8.596-2.723-12.853c-0.18-0.753-0.369-1.503-0.556-2.253   c0.526-0.323,0.965-0.759,1.263-1.28c0.463-0.807,0.621-1.79,0.359-2.754l-0.004-0.004l-0.002-0.009l-0.001,0.001l-3.187-11.582   c-0.267-0.97-0.901-1.743-1.708-2.205c-0.624-0.357-1.353-0.526-2.097-0.467c-0.256-0.749-0.51-1.497-0.774-2.243   c-0.183-0.52-0.753-0.792-1.273-0.609s-0.792,0.753-0.609,1.273c0.248,0.699,0.487,1.401,0.727,2.103   c-0.696,0.324-1.26,0.844-1.625,1.481c-0.463,0.807-0.62,1.792-0.358,2.755l0.004,0.012l0.002,0.008l0.003-0.001l3.185,11.574   c0.266,0.97,0.9,1.742,1.707,2.205c0.737,0.422,1.62,0.571,2.501,0.4c0.17,0.684,0.341,1.368,0.506,2.055   c0.893,3.729,1.693,7.498,2.425,11.295C16.599,60.74,9.779,56.463,4.466,55.135c-0.535-0.133-1.079,0.192-1.213,0.729   c-0.134,0.535,0.192,1.078,0.728,1.213C11.585,58.977,20.56,66.432,22.02,73.766z M37.504,51.334l4.068-12.764l0.003,0l0.011-0.036   l0,0c0.139-0.408,0.437-0.724,0.803-0.905c0.374-0.185,0.816-0.232,1.236-0.102l-0.001,0.003l0.036,0.012l0.002-0.002l0.668,0.224   c0.424,0.142,0.749,0.445,0.936,0.821c0.192,0.385,0.24,0.844,0.1,1.281l-4.068,12.764h-0.002l-0.012,0.035v0.001   c-0.139,0.407-0.436,0.723-0.803,0.904c-0.374,0.185-0.818,0.232-1.239,0.101l0.001-0.002l-0.037-0.012h0l-0.666-0.223   c-0.422-0.141-0.748-0.444-0.935-0.82C37.412,52.23,37.365,51.771,37.504,51.334z M16.241,50.779   c-0.369-0.212-0.659-0.561-0.777-0.994L12.276,38.2v-0.007l0.001,0c-0.117-0.433-0.046-0.876,0.163-1.24   c0.21-0.368,0.557-0.655,0.987-0.773h0.007l0,0.002l0.686-0.187c0.435-0.118,0.88-0.047,1.245,0.162   c0.37,0.211,0.659,0.56,0.778,0.994l3.188,11.585v0.004l0.001,0.003l-0.003,0.002c0.118,0.432,0.046,0.875-0.163,1.239   c-0.211,0.367-0.557,0.655-0.987,0.772h-0.004l-0.003,0.001l-0.001-0.003l-0.686,0.188C17.051,51.059,16.607,50.988,16.241,50.779z    M25.223,40.105V23.25c0-0.451,0.185-0.863,0.483-1.161s0.71-0.483,1.161-0.483h0.71c0.452,0,0.863,0.185,1.161,0.483   c0.298,0.298,0.483,0.71,0.483,1.161v16.855c0,0.451-0.186,0.863-0.483,1.161c-0.298,0.298-0.709,0.483-1.161,0.483h-0.71   c-0.451,0-0.863-0.186-1.161-0.483C25.408,40.968,25.223,40.557,25.223,40.105z M26.143,65.082   c0.128,2.305,0.076,5.219,0.002,9.246l-0.02,1.057c-0.504-0.051-1.009-0.107-1.516-0.184c0-0.07,0.013-0.139-0.002-0.211   C23.821,71.297,24.419,67.805,26.143,65.082z"></path></g></svg>