<svg width="71" height="70" viewBox="0 0 71 70" fill="none" xmlns="http://www.w3.org/2000/svg">
<path d="M62.456 23.3826C62.0836 23.0847 61.5623 23.0102 61.1155 23.1592C54.4134 25.1698 47.4879 25.7655 40.7113 24.9464V7.44639C40.7113 6.99958 40.4879 6.55278 40.1155 6.2549C39.7432 5.95703 39.2219 5.88256 38.7751 6.0315C29.3177 8.86129 19.3389 8.86129 9.88148 6.0315C9.43467 5.88256 8.9134 5.95703 8.54106 6.2549C8.16872 6.55278 7.94531 6.99958 7.94531 7.44639V30.5315C7.94531 41.9251 23.2113 46.6166 23.8815 46.84C24.0304 46.84 24.1794 46.9145 24.3283 46.9145C24.4772 46.9145 24.6262 46.9145 24.7751 46.84C24.9985 46.7655 27.456 46.0209 30.2857 44.457V47.6592C30.2857 59.0528 45.5517 63.7443 46.2219 63.9677C46.3709 63.9677 46.5198 64.0421 46.6687 64.0421C46.8177 64.0421 46.9666 64.0421 47.1155 63.9677C47.7857 63.7443 63.0517 59.0528 63.0517 47.6592V24.5741C63.0517 24.1272 62.8283 23.6804 62.456 23.3826ZM24.3283 43.8613C22.0198 43.0421 10.924 38.7975 10.924 30.5315V9.38256C19.7113 11.6911 28.9453 11.6911 37.7326 9.38256V30.5315C37.7326 38.7975 26.6368 43.0421 24.3283 43.8613ZM60.073 47.6592C60.073 55.9251 48.9772 60.1698 46.6687 60.9889C44.3602 60.1698 33.2645 55.9251 33.2645 47.6592V42.6698C35.3496 41.2549 37.2857 39.4677 38.7006 37.2336H42.9453C43.7645 37.2336 44.4347 36.5634 44.4347 35.7443C44.4347 34.9251 43.7645 34.2549 42.9453 34.2549H40.1155C40.4879 33.1379 40.7113 31.8719 40.7113 30.5315V27.9251C47.19 28.6698 53.7432 28.223 60.073 26.5847V47.6592ZM37.7326 44.6804V52.1272C37.7326 52.6485 38.0304 53.1698 38.4772 53.3932C38.924 53.6911 39.5198 53.6166 39.9666 53.3932C44.0623 50.9357 49.2006 50.9357 53.2964 53.3932C53.5198 53.5421 53.8177 53.6166 54.0411 53.6166C54.2645 53.6166 54.5623 53.5421 54.7857 53.3932C55.2326 53.1698 55.5304 52.6485 55.5304 52.1272V44.6804C55.5304 44.0847 55.1581 43.5634 54.5623 43.2655L47.1155 40.2868C46.7432 40.1379 46.3708 40.1379 45.9985 40.2868L38.5517 43.2655C38.1049 43.5634 37.7326 44.0847 37.7326 44.6804ZM40.7113 45.6485L46.6687 43.2655L52.6262 45.6485V49.6698C50.69 48.9251 48.6794 48.4783 46.6687 48.4783C44.6581 48.4783 42.6474 48.8506 40.7113 49.6698V45.6485ZM48.9028 35.7443C48.9028 34.9251 49.573 34.2549 50.3921 34.2549H54.1155C54.9347 34.2549 55.6049 34.9251 55.6049 35.7443C55.6049 36.5634 54.9347 37.2336 54.1155 37.2336H50.3921C49.573 37.2336 48.9028 36.5634 48.9028 35.7443ZM33.2645 25.84C33.2645 25.7655 33.2645 25.7655 33.2645 25.6911C33.2645 25.6166 33.2645 25.6166 33.19 25.5421C33.19 25.4677 33.1155 25.4677 33.1155 25.3932C33.1155 25.3932 33.1155 25.3187 33.0411 25.3187C33.0411 25.2443 32.9666 25.2443 32.9666 25.1698L32.8921 25.0953C32.8921 25.0953 32.8177 25.0209 32.7432 25.0209L32.6687 24.9464C32.5943 24.9464 32.5943 24.8719 32.5198 24.8719C32.4453 24.8719 32.4453 24.7975 32.3708 24.7975C32.2964 24.7975 32.2964 24.7975 32.2219 24.723C32.1474 24.6485 32.1474 24.723 32.073 24.6485C31.9985 24.6485 31.9985 24.6485 31.924 24.6485C31.8496 24.6485 31.7751 24.6485 31.7751 24.6485H31.7006C31.6262 24.6485 31.6262 24.6485 31.5517 24.6485C31.4772 24.6485 31.4772 24.6485 31.4028 24.6485C31.3283 24.6485 31.3283 24.6485 31.2538 24.723C31.1794 24.723 31.1794 24.7975 31.1049 24.7975C31.1049 24.7975 31.0304 24.7975 31.0304 24.8719C30.1368 25.3932 29.1687 25.84 28.1262 26.1379C25.6687 26.8826 22.9879 26.8826 20.5304 26.1379C19.5623 25.84 18.5943 25.3932 17.6262 24.8719C17.6262 24.8719 17.5517 24.8719 17.5517 24.7975C17.4772 24.7975 17.4772 24.723 17.4028 24.723C17.3283 24.723 17.3283 24.723 17.2538 24.6485C17.1794 24.6485 17.1794 24.6485 17.1049 24.6485C17.0304 24.6485 17.0304 24.6485 16.956 24.6485H16.8815C16.807 24.6485 16.807 24.6485 16.7325 24.6485C16.6581 24.6485 16.6581 24.6485 16.5836 24.6485C16.5091 24.6485 16.5091 24.6485 16.4347 24.723C16.3602 24.723 16.3602 24.723 16.2857 24.7975C16.2857 24.7975 16.2113 24.7975 16.2113 24.8719C16.1368 24.8719 16.1368 24.9464 16.0623 24.9464L15.9879 25.0209C15.9134 25.0209 15.9134 25.0953 15.8389 25.0953L15.7645 25.1698C15.7645 25.2443 15.69 25.2443 15.69 25.3187C15.69 25.3187 15.69 25.3932 15.6155 25.3932C15.6155 25.4677 15.5411 25.4677 15.5411 25.5421C15.5411 25.6166 15.5411 25.6166 15.4666 25.6911C15.4666 25.7655 15.4666 25.7655 15.4666 25.84C15.4666 25.9145 15.4666 25.9145 15.4666 25.9889V26.0634V33.5102C15.4666 34.106 15.8389 34.6272 16.4347 34.9251L23.8815 37.9038C23.956 37.9783 24.1794 37.9783 24.3283 37.9783C24.4772 37.9783 24.7006 37.9783 24.8496 37.9038L32.2964 34.9251C32.8921 34.7017 33.2645 34.1804 33.2645 33.5102V26.0634V25.9889C33.2645 25.9145 33.2645 25.84 33.2645 25.84ZM30.2857 32.4677L24.3283 34.8506L18.3708 32.4677V28.4464C20.307 29.1911 22.3177 29.6379 24.3283 29.6379C26.3389 29.6379 28.3496 29.2655 30.2857 28.4464V32.4677ZM15.3921 18.6166C15.3921 17.7975 16.0623 17.1272 16.8815 17.1272H20.6049C21.424 17.1272 22.0943 17.7975 22.0943 18.6166C22.0943 19.4358 21.424 20.106 20.6049 20.106H16.8815C16.0623 20.106 15.3921 19.4358 15.3921 18.6166ZM33.2645 18.6166C33.2645 19.4358 32.5943 20.106 31.7751 20.106H28.0517C27.2325 20.106 26.5623 19.4358 26.5623 18.6166C26.5623 17.7975 27.2325 17.1272 28.0517 17.1272H31.7751C32.5943 17.1272 33.2645 17.7975 33.2645 18.6166Z" fill="black"/>
</svg>
