<svg height='100px' width='100px'  fill="#000000" xmlns="http://www.w3.org/2000/svg" xmlns:xlink="http://www.w3.org/1999/xlink" version="1.1" x="0px" y="0px" viewBox="0 0 100 100" style="enable-background:new 0 0 100 100;" xml:space="preserve"><path d="M86.2,34.4c-0.5-0.4-1.2-0.5-1.8-0.3c-9,2.7-18.3,3.5-27.4,2.4V13c0-0.6-0.3-1.2-0.8-1.6c-0.5-0.4-1.2-0.5-1.8-0.3  c-12.7,3.8-26.1,3.8-38.8,0c-0.6-0.2-1.3-0.1-1.8,0.3c-0.5,0.4-0.8,1-0.8,1.6v31c0,15.3,20.5,21.6,21.4,21.9c0.2,0,0.4,0.1,0.6,0.1  s0.4,0,0.6-0.1c0.3-0.1,3.6-1.1,7.4-3.2V67c0,15.3,20.5,21.6,21.4,21.9c0.2,0,0.4,0.1,0.6,0.1s0.4,0,0.6-0.1  C66.5,88.6,87,82.3,87,67V36C87,35.4,86.7,34.8,86.2,34.4z M35,61.9c-3.1-1.1-18-6.8-18-17.9V15.6c11.8,3.1,24.2,3.1,36,0V44  C53,55.1,38.1,60.8,35,61.9z M83,67c0,11.1-14.9,16.8-18,17.9c-3.1-1.1-18-6.8-18-17.9v-6.7c2.8-1.9,5.4-4.3,7.3-7.3H60  c1.1,0,2-0.9,2-2c0-1.1-0.9-2-2-2h-3.8c0.5-1.5,0.8-3.2,0.8-5v-3.5c8.7,1,17.5,0.4,26-1.8V67z M53,63v10c0,0.7,0.4,1.4,1,1.7  c0.6,0.4,1.4,0.3,2,0c5.5-3.3,12.4-3.3,17.9,0c0.3,0.2,0.7,0.3,1,0.3c0.3,0,0.7-0.1,1-0.3c0.6-0.3,1-1,1-1.7V63  c0-0.8-0.5-1.5-1.3-1.9l-10-4c-0.5-0.2-1-0.2-1.5,0l-10,4C53.5,61.5,53,62.2,53,63z M57,64.3l8-3.2l8,3.2v5.4c-2.6-1-5.3-1.6-8-1.6  s-5.4,0.5-8,1.6V64.3z M68,51c0-1.1,0.9-2,2-2h5c1.1,0,2,0.9,2,2c0,1.1-0.9,2-2,2h-5C68.9,53,68,52.1,68,51z M47,37.7  c0-0.1,0-0.1,0-0.2c0-0.1,0-0.1-0.1-0.2c0-0.1-0.1-0.1-0.1-0.2c0,0,0-0.1-0.1-0.1c0,0,0,0,0,0c0-0.1-0.1-0.1-0.1-0.2  c0,0-0.1-0.1-0.1-0.1c0,0-0.1-0.1-0.2-0.1c0,0-0.1-0.1-0.1-0.1c-0.1,0-0.1-0.1-0.2-0.1c-0.1,0-0.1-0.1-0.2-0.1c-0.1,0-0.1,0-0.2-0.1  s-0.1,0-0.2-0.1c-0.1,0-0.1,0-0.2,0c-0.1,0-0.2,0-0.2,0c0,0,0,0,0,0c0,0-0.1,0-0.1,0c-0.1,0-0.1,0-0.2,0c-0.1,0-0.1,0-0.2,0  c-0.1,0-0.1,0-0.2,0.1c-0.1,0-0.1,0.1-0.2,0.1c0,0-0.1,0-0.1,0.1c-1.2,0.7-2.5,1.3-3.9,1.7c-3.3,1-6.9,1-10.2,0  c-1.3-0.4-2.6-1-3.9-1.7c0,0-0.1,0-0.1-0.1c-0.1,0-0.1-0.1-0.2-0.1c-0.1,0-0.1,0-0.2-0.1c-0.1,0-0.1,0-0.2,0c-0.1,0-0.1,0-0.2,0  c0,0-0.1,0-0.1,0c0,0,0,0,0,0c-0.1,0-0.1,0-0.2,0c-0.1,0-0.1,0-0.2,0c-0.1,0-0.1,0-0.2,0.1c-0.1,0-0.1,0-0.2,0.1c0,0-0.1,0-0.1,0.1  c-0.1,0-0.1,0.1-0.2,0.1c0,0-0.1,0.1-0.1,0.1c-0.1,0-0.1,0.1-0.2,0.1c0,0-0.1,0.1-0.1,0.1c0,0.1-0.1,0.1-0.1,0.2c0,0,0,0,0,0  c0,0,0,0.1-0.1,0.1c0,0.1-0.1,0.1-0.1,0.2c0,0.1,0,0.1-0.1,0.2c0,0.1,0,0.1,0,0.2c0,0.1,0,0.1,0,0.2c0,0,0,0.1,0,0.1v10  c0,0.8,0.5,1.5,1.3,1.9l10,4C34.5,54,34.8,54,35,54s0.5,0,0.7-0.1l10-4c0.8-0.3,1.3-1,1.3-1.9V38c0,0,0-0.1,0-0.1  C47,37.8,47,37.7,47,37.7z M43,46.6l-8,3.2l-8-3.2v-5.4c2.6,1,5.3,1.6,8,1.6s5.4-0.5,8-1.6V46.6z M23,28c0-1.1,0.9-2,2-2h5  c1.1,0,2,0.9,2,2c0,1.1-0.9,2-2,2h-5C23.9,30,23,29.1,23,28z M47,28c0,1.1-0.9,2-2,2h-5c-1.1,0-2-0.9-2-2c0-1.1,0.9-2,2-2h5  C46.1,26,47,26.9,47,28z"></path></svg>