<svg width="71" height="70" viewBox="0 0 71 70" fill="none" xmlns="http://www.w3.org/2000/svg">
<path d="M66.125 41.7812C66.125 44.0726 64.2602 45.9374 61.9688 45.9374H61.6384C61.7052 45.3938 61.75 44.848 61.75 44.2968C61.75 33.7432 49.4836 25.1562 34.4062 25.1562C31.0069 25.1562 27.6939 25.586 24.5483 26.4337L17.5767 21.0108C17.1677 20.6926 16.5902 20.7068 16.1931 21.0437C13.543 23.3154 12.2523 26.8657 12.8266 30.3088L13.1481 32.2371C11.0547 34.044 9.47422 36.0718 8.43953 38.2812H3.78125C3.1775 38.2812 2.6875 38.7712 2.6875 39.3749V44.5702C2.6875 44.7551 2.73453 44.9366 2.82422 45.0985L7.19922 53.0282C7.39062 53.3771 7.75812 53.5937 8.15625 53.5937H10.4881C12.3497 55.9408 14.9211 58.0048 17.9934 59.618L14.8467 68.543C14.7286 68.8777 14.78 69.2496 14.9845 69.5383C15.1912 69.8282 15.5238 69.9999 15.8792 69.9999H25.723C26.1867 69.9999 26.6002 69.7068 26.7544 69.2704L28.9473 63.0535C32.5513 63.5643 36.2623 63.5643 39.8662 63.0535L42.0592 69.2704C42.2134 69.7079 42.6269 69.9999 43.0906 69.9999H52.9344C53.2898 69.9999 53.6223 69.8282 53.8269 69.5383C54.0325 69.2485 54.0828 68.8777 53.9647 68.543L50.818 59.6191C56.208 56.7918 59.8611 52.6858 61.1878 48.126H61.9688C65.4666 48.126 68.3125 45.2801 68.3125 41.7823V39.3749H66.125V41.7812ZM48.9914 58.089C48.4894 58.3307 48.2498 58.9115 48.4358 59.4376L51.3889 67.8124H43.865L41.6283 61.4708C41.4522 60.9699 40.9414 60.6669 40.4175 60.7555C36.4691 61.4118 32.3456 61.4118 28.3972 60.7555C27.8722 60.6659 27.3625 60.9699 27.1864 61.4708L24.9486 67.8124H17.4247L20.3778 59.4376C20.5627 58.9126 20.3242 58.3307 19.8222 58.089C16.4819 56.4757 13.7442 54.3177 11.9056 51.8469C11.6989 51.5691 11.373 51.4062 11.0273 51.4062H8.80156L4.875 44.2891V40.4687H9.15266C9.59562 40.4687 9.99594 40.2007 10.1644 39.7905C11.1127 37.486 12.7478 35.3762 15.0217 33.5212C15.3258 33.2729 15.4745 32.8813 15.4089 32.4941L14.9845 29.9501C14.5842 27.5504 15.3422 25.084 16.9795 23.3187L23.6394 28.4987C23.9139 28.713 24.277 28.7819 24.6117 28.6868C27.7213 27.7954 31.0156 27.3437 34.4062 27.3437C48.2772 27.3437 59.5625 34.9485 59.5625 44.2968C59.5625 49.7382 55.6108 54.8941 48.9914 58.089Z" fill="black"/>
<path d="M35.4224 33.0312C32.5098 33.0498 29.7787 34.1928 27.7312 36.2491C25.6815 38.3075 24.5637 41.0353 24.5823 43.9283C24.6205 49.8761 29.5074 54.6875 35.4913 54.6875C35.5143 54.6875 35.5384 54.6875 35.5613 54.6875C38.474 54.6689 41.2051 53.5259 43.2526 51.4697C45.3023 49.4112 46.4201 46.6834 46.4015 43.7905C46.3632 37.8208 41.4391 33.0455 35.4224 33.0312ZM41.7016 49.9264C40.0643 51.5714 37.879 52.4847 35.5471 52.5C30.7773 52.5569 26.7993 48.6795 26.7687 43.9152C26.7534 41.6095 27.6459 39.4341 29.281 37.7923C30.9184 36.1473 33.1037 35.2341 35.4355 35.2188C40.2491 35.2133 44.1834 39.0403 44.214 43.8036C44.2293 46.1103 43.3368 48.2847 41.7016 49.9264Z" fill="black"/>
<path d="M37.6733 42.6285L33.3268 42.657L33.3125 40.5045L38.7879 40.4695L38.7736 38.282L36.6004 38.2962L36.5938 37.1816L34.4063 37.1959L34.4129 38.3104L33.2983 38.318C32.0919 38.3257 31.1174 39.3134 31.125 40.5198L31.1393 42.6723C31.1469 43.8787 32.1389 44.8838 33.341 44.8456L37.6875 44.816L37.7018 47.032L32.2111 47.067L32.2254 49.2545L34.4129 49.2402L34.4194 50.3198L36.6069 50.3056L36.6004 49.226L37.716 49.2195C38.9213 49.2118 39.8969 48.2241 39.8893 47.0177L39.875 44.8018C39.8685 43.5976 38.9158 42.623 37.6733 42.6285Z" fill="black"/>
<path d="M15.8125 40.4688V41.5625H18V40.4688C18 39.8661 18.4911 39.375 19.0938 39.375H20.1875V37.1875H19.0938C17.2847 37.1875 15.8125 38.6597 15.8125 40.4688Z" fill="black"/>
<path d="M7.0625 16.4062C9.47531 16.4062 11.4375 14.4441 11.4375 12.0312C11.4375 11.9186 11.4123 11.8125 11.4047 11.702L24.1961 6.78125C24.9803 7.96578 26.3213 8.75 27.8438 8.75C28.698 8.75 29.4898 8.49406 30.1636 8.06969L39.3369 15.4088C38.9945 16.0322 38.7812 16.7388 38.7812 17.5C38.7812 19.9128 40.7434 21.875 43.1562 21.875C45.2836 21.875 47.0566 20.3481 47.447 18.3334L60.2647 14.3894C61.0434 15.5991 62.3953 16.4062 63.9375 16.4062C66.3503 16.4062 68.3125 14.4441 68.3125 12.0312C68.3125 9.61844 66.3503 7.65625 63.9375 7.65625C61.5247 7.65625 59.5625 9.61844 59.5625 12.0312C59.5625 12.1264 59.5844 12.215 59.5909 12.3091L47.2797 16.0967C46.6912 14.3752 45.0747 13.125 43.1562 13.125C42.302 13.125 41.5102 13.3809 40.8364 13.8053L31.6631 6.46625C32.0055 5.84281 32.2188 5.13625 32.2188 4.375C32.2188 1.96219 30.2566 0 27.8438 0C25.4309 0 23.4688 1.96219 23.4688 4.375C23.4688 4.48766 23.4939 4.59375 23.5016 4.70422L10.7102 9.625C9.92594 8.44047 8.585 7.65625 7.0625 7.65625C4.64969 7.65625 2.6875 9.61844 2.6875 12.0312C2.6875 14.4441 4.64969 16.4062 7.0625 16.4062ZM63.9375 9.84375C65.1439 9.84375 66.125 10.8248 66.125 12.0312C66.125 13.2377 65.1439 14.2188 63.9375 14.2188C62.7311 14.2188 61.75 13.2377 61.75 12.0312C61.75 10.8248 62.7311 9.84375 63.9375 9.84375ZM45.3438 17.5C45.3438 18.7064 44.3627 19.6875 43.1562 19.6875C41.9498 19.6875 40.9688 18.7064 40.9688 17.5C40.9688 16.2936 41.9498 15.3125 43.1562 15.3125C44.3627 15.3125 45.3438 16.2936 45.3438 17.5ZM27.8438 2.1875C29.0502 2.1875 30.0312 3.16859 30.0312 4.375C30.0312 5.58141 29.0502 6.5625 27.8438 6.5625C26.6373 6.5625 25.6562 5.58141 25.6562 4.375C25.6562 3.16859 26.6373 2.1875 27.8438 2.1875ZM7.0625 9.84375C8.26891 9.84375 9.25 10.8248 9.25 12.0312C9.25 13.2377 8.26891 14.2188 7.0625 14.2188C5.85609 14.2188 4.875 13.2377 4.875 12.0312C4.875 10.8248 5.85609 9.84375 7.0625 9.84375Z" fill="black"/>
</svg>
