<svg height='100px' width='100px'  fill="#000000" xmlns="http://www.w3.org/2000/svg" xmlns:xlink="http://www.w3.org/1999/xlink" version="1.1" x="0px" y="0px" viewBox="0 0 64 64" style="enable-background:new 0 0 64 64;" xml:space="preserve"><g><path d="M60,38.2c0,2.095-1.705,3.8-3.8,3.8h-0.302C55.959,41.503,56,41.004,56,40.5C56,30.851,44.785,23,31,23   c-3.108,0-6.137,0.393-9.013,1.168l-6.374-4.958c-0.374-0.291-0.902-0.278-1.265,0.03c-2.423,2.077-3.603,5.323-3.078,8.471   l0.294,1.763C9.65,31.126,8.205,32.98,7.259,35H3c-0.552,0-1,0.448-1,1v4.75c0,0.169,0.043,0.335,0.125,0.483l4,7.25   C6.3,48.802,6.636,49,7,49h2.132c1.702,2.146,4.053,4.033,6.862,5.508l-2.877,8.16c-0.108,0.306-0.061,0.646,0.126,0.91   C13.432,63.843,13.736,64,14.061,64h9c0.424,0,0.802-0.268,0.943-0.667l2.005-5.684c3.295,0.467,6.688,0.467,9.983,0l2.005,5.684   c0.141,0.4,0.519,0.667,0.943,0.667h9c0.325,0,0.629-0.157,0.816-0.422c0.188-0.265,0.234-0.604,0.126-0.91l-2.877-8.159   c4.928-2.585,8.268-6.339,9.481-10.508H56.2c3.198,0,5.8-2.602,5.8-5.8V36h-2V38.2z M44.335,53.11   c-0.459,0.221-0.678,0.752-0.508,1.233l2.7,7.657h-6.879l-2.045-5.798c-0.161-0.458-0.628-0.735-1.107-0.654   c-3.61,0.6-7.38,0.6-10.99,0c-0.48-0.082-0.946,0.196-1.107,0.654L22.353,62h-6.879l2.7-7.657c0.169-0.48-0.049-1.012-0.508-1.233   c-3.054-1.475-5.557-3.448-7.238-5.707C10.239,47.149,9.941,47,9.625,47H7.59L4,40.493V37h3.911c0.405,0,0.771-0.245,0.925-0.62   c0.867-2.107,2.362-4.036,4.441-5.732c0.278-0.227,0.414-0.585,0.354-0.939l-0.388-2.326c-0.366-2.194,0.327-4.449,1.824-6.063   l6.089,4.736c0.251,0.196,0.583,0.259,0.889,0.172C24.888,25.413,27.9,25,31,25c12.682,0,23,6.953,23,15.5   C54,45.475,50.387,50.189,44.335,53.11z"></path><path d="M31.928,30.2c-2.663,0.017-5.16,1.062-7.032,2.942c-1.874,1.882-2.896,4.376-2.879,7.021C22.052,45.601,26.52,50,31.991,50   c0.021,0,0.043,0,0.064,0c2.663-0.017,5.16-1.062,7.032-2.942c1.874-1.882,2.896-4.376,2.879-7.021   C41.931,34.579,37.429,30.213,31.928,30.2z M37.669,45.647c-1.497,1.504-3.495,2.339-5.627,2.353   c-4.361,0.052-7.998-3.493-8.026-7.849c-0.014-2.108,0.802-4.097,2.297-5.598c1.497-1.504,3.495-2.339,5.627-2.353   c4.401-0.005,7.998,3.494,8.026,7.849C39.98,42.158,39.164,44.146,37.669,45.647z"></path><path d="M33.987,38.974L30.013,39L30,37.032L35.006,37l-0.013-2l-1.987,0.013L33,33.994l-2,0.013l0.006,1.019l-1.019,0.007   c-1.103,0.007-1.994,0.91-1.987,2.013l0.013,1.968c0.007,1.103,0.914,2.022,2.013,1.987L34,40.974L34.013,43l-5.02,0.032l0.013,2   l2-0.013l0.006,0.987l2-0.013l-0.006-0.987L34.026,45c1.102-0.007,1.994-0.91,1.987-2.013L36,40.961   C35.994,39.86,35.123,38.969,33.987,38.974z"></path><path d="M14,37v1h2v-1c0-0.551,0.449-1,1-1h1v-2h-1C15.346,34,14,35.346,14,37z"></path><path d="M6,15c2.206,0,4-1.794,4-4c0-0.103-0.023-0.2-0.03-0.301L21.665,6.2C22.382,7.283,23.608,8,25,8   c0.781,0,1.505-0.234,2.121-0.622l8.387,6.71C35.195,14.658,35,15.304,35,16c0,2.206,1.794,4,4,4c1.945,0,3.566-1.396,3.923-3.238   l11.719-3.606C55.354,14.262,56.59,15,58,15c2.206,0,4-1.794,4-4s-1.794-4-4-4s-4,1.794-4,4c0,0.087,0.02,0.168,0.026,0.254   L42.77,14.717C42.232,13.143,40.754,12,39,12c-0.781,0-1.505,0.234-2.121,0.622l-8.387-6.71C28.805,5.342,29,4.696,29,4   c0-2.206-1.794-4-4-4s-4,1.794-4,4c0,0.103,0.023,0.2,0.03,0.301L9.335,8.8C8.618,7.717,7.392,7,6,7c-2.206,0-4,1.794-4,4   S3.794,15,6,15z M58,9c1.103,0,2,0.897,2,2s-0.897,2-2,2s-2-0.897-2-2S56.897,9,58,9z M41,16c0,1.103-0.897,2-2,2s-2-0.897-2-2   s0.897-2,2-2S41,14.897,41,16z M25,2c1.103,0,2,0.897,2,2s-0.897,2-2,2s-2-0.897-2-2S23.897,2,25,2z M6,9c1.103,0,2,0.897,2,2   s-0.897,2-2,2s-2-0.897-2-2S4.897,9,6,9z"></path></g></svg>