<svg height='100px' width='100px'  fill="#000000" xmlns="http://www.w3.org/2000/svg" viewBox="0 0 64 64" x="0px" y="0px"><g data-name="Layer 13"><path d="M48.81,51.83a1,1,0,0,0,.24-.4c5.87-9,2.63-22-6.42-27.4a.89.89,0,0,0-.31-.19,20.19,20.19,0,0,0-4.46-2c5.31-2,6.06-8.91,5.88-10.66a1,1,0,0,0-1-1c-.44-.15-7.15.17-9.6,4,0-1.49-.37-5.53-3-8.19-3.24-3.24-8.54-3-8.76-3a1,1,0,0,0-.95,1C20.29,9.49,23.11,15.32,31,15.72V21a19.92,19.92,0,0,0-10.85,3.88.56.56,0,0,0-.29.21,20,20,0,0,0-7.74,18.21v0c1.28,13.36,16.71,21.9,28.72,15.6a.87.87,0,0,0,.31-.14A20.15,20.15,0,0,0,48.81,51.83ZM50,41a17.92,17.92,0,0,1-2.11,8.44c-2-2.44-3.8-5.95-2.4-8.93a4.3,4.3,0,0,0,.18-3.29c-.23-.57-.43-.75-3.07-2.93l-.54-.45c-1.79-1.48-2-1.68-2.12-1.89-.77-1.22.54-4.51,2.12-5.88A18,18,0,0,1,50,41ZM32,23a17.23,17.23,0,0,1,2.28.15,28.07,28.07,0,0,0-2.07,4.8c-.48,1.42-.7,2-1.28,2.31-1,.48-2.36-.16-4-.91a16.71,16.71,0,0,1-4.8-3.4A17.83,17.83,0,0,1,32,23Zm3.47-8.31c1.87-1.87,4.77-2.31,6.28-2.41-.17,4-2.31,7.81-7.07,8.48l2.89-2.9a1,1,0,1,0-1.41-1.41l-2.9,2.9A8.86,8.86,0,0,1,35.44,14.64ZM22.47,5c4,.15,7.81,2.31,8.49,7.07l-2.9-2.9a1,1,0,0,0-1.42,1.42l2.9,2.89C24.77,12.84,22.63,9.05,22.47,5ZM14.24,44a6.52,6.52,0,0,1,3.56.31,7.7,7.7,0,0,1,1.77,1.31,4.54,4.54,0,0,1,1,1.86c1.21,3.3,2.57,2.37,8.61.91,2.16-.55,2.64-.66,3.21-.46,3.39,1.69,4.85,7.39,6.71,9.64C28.65,62.29,15.88,55.13,14.24,44ZM40.91,56.63C38.7,53.87,37.36,47.87,33.07,46c-1.16-.41-2-.2-4.38.42-3,.78-5.69,1.43-5.79,1.21s-.25-.27-.42-.8a6.36,6.36,0,0,0-1.43-2.59,9.43,9.43,0,0,0-2.3-1.73A8.16,8.16,0,0,0,14,42a17.89,17.89,0,0,1,6.49-14.88c2.4,2.44,7.9,6.41,11.28,4.91,1.34-.68,1.76-1.9,2.29-3.46a24.09,24.09,0,0,1,2.25-5.05,18.06,18.06,0,0,1,4,1.5c-2.36,2.41-3.09,6.47-2.13,7.81-.26.37,5.38,4.71,5.68,5.15s.09,1-.22,1.88c-1.74,3.78.54,8.45,3.2,11.36A18.14,18.14,0,0,1,40.91,56.63Z"></path><path d="M10.37,41a21.51,21.51,0,0,1,5.68-14.59A1,1,0,0,0,14.57,25c-8.21,8.63-8.21,23.29,0,31.9a1,1,0,0,0,1.48-1.36A21.48,21.48,0,0,1,10.37,41Z"></path><path d="M49.43,25A1,1,0,0,0,48,26.38c7.52,7.89,7.52,21.3,0,29.18a1,1,0,0,0,1.48,1.36C57.64,48.31,57.64,33.65,49.43,25Z"></path></g></svg>