<svg width="71" height="70" viewBox="0 0 71 70" fill="none" xmlns="http://www.w3.org/2000/svg">
<path d="M53.4357 56.7044C53.5565 56.5813 53.6464 56.4314 53.6982 56.2669C60.1185 46.4231 56.5748 32.2044 46.6763 26.2981C46.5788 26.2063 46.4634 26.1355 46.3373 26.0903C44.8058 25.1663 43.1678 24.4317 41.4591 23.9028C47.267 21.7153 48.0873 14.1575 47.8904 12.2434C47.8904 11.9534 47.7752 11.6752 47.57 11.47C47.3649 11.2649 47.0867 11.1497 46.7966 11.1497C46.3154 10.9856 38.9763 11.3356 36.2966 15.5247C36.2966 13.895 35.892 9.47625 33.0154 6.56687C29.4716 3.02312 23.6748 3.28562 23.4341 3.28562C23.1536 3.29966 22.8893 3.42107 22.6959 3.62468C22.5024 3.8283 22.3947 4.09852 22.3951 4.37937C22.242 10.395 25.3263 16.7716 33.956 17.2091V22.9841C29.6686 23.1987 25.5401 24.675 22.0888 27.2278C21.9608 27.2676 21.8494 27.3483 21.7716 27.4575C18.7544 29.7581 16.3874 32.8039 14.9032 36.2958C13.419 39.7878 12.8686 43.6057 13.306 47.3747C14.706 61.9872 31.5826 71.3278 44.7185 64.4372C44.8405 64.409 44.9557 64.3569 45.0576 64.2841C48.4615 62.5284 51.349 59.916 53.4357 56.7044ZM54.7373 44.8591C54.7379 48.079 53.9453 51.2495 52.4295 54.0903C50.242 51.4216 48.2732 47.5825 49.8045 44.3231C50.0722 43.7657 50.2275 43.161 50.2612 42.5435C50.295 41.926 50.2067 41.308 50.0013 40.7247C49.7498 40.1012 49.531 39.9044 46.6435 37.52L46.0529 37.0278C44.0951 35.4091 43.8654 35.1903 43.7341 34.9606C42.892 33.6262 44.3248 30.0278 46.0529 28.5294C48.7272 30.3318 50.9178 32.7636 52.432 35.6109C53.9463 38.4583 54.7379 41.6341 54.7373 44.8591ZM35.0498 25.1716C35.8837 25.171 36.7168 25.2258 37.5435 25.3356C36.6272 27.0114 35.8692 28.769 35.2795 30.5856C34.7545 32.1387 34.5138 32.7731 33.8795 33.1122C32.7857 33.6372 31.2982 32.9372 29.5045 32.1169C27.5483 31.1975 25.7708 29.9384 24.2545 28.3981C27.4571 26.2839 31.2123 25.1615 35.0498 25.1716ZM38.8451 16.0825C40.8904 14.0372 44.0623 13.5559 45.7138 13.4466C45.5279 17.8216 43.1873 21.9887 37.981 22.7216L41.142 19.5497C41.2565 19.4516 41.3494 19.331 41.4151 19.1953C41.4807 19.0596 41.5176 18.9118 41.5235 18.7611C41.5293 18.6105 41.5039 18.4603 41.4489 18.32C41.3939 18.1796 41.3105 18.0521 41.2039 17.9455C41.0973 17.8389 40.9699 17.7555 40.8295 17.7005C40.6891 17.6456 40.5389 17.6202 40.3883 17.626C40.2377 17.6318 40.0899 17.6687 39.9542 17.7344C39.8185 17.8 39.6978 17.893 39.5998 18.0075L36.4279 21.1794C36.6906 19.2627 37.5211 17.4685 38.8123 16.0278L38.8451 16.0825ZM24.6263 5.48406C29.0013 5.64812 33.1685 8.01062 33.9123 13.2169L30.7404 10.045C30.5344 9.83904 30.2551 9.72333 29.9638 9.72333C29.6726 9.72333 29.3932 9.83904 29.1873 10.045C28.9813 10.251 28.8656 10.5303 28.8656 10.8216C28.8656 11.1128 28.9813 11.3922 29.1873 11.5981L32.3591 14.7591C27.142 14.0591 24.8013 9.91375 24.6263 5.48406ZM15.6248 48.1403C16.9289 47.8885 18.2775 48.0059 19.5185 48.4794C20.2291 48.8618 20.8811 49.3443 21.4545 49.9122C21.9739 50.4949 22.3486 51.1919 22.5482 51.9466C23.8716 55.5559 25.3591 54.5387 31.9654 52.9419C34.3279 52.3403 34.8529 52.22 35.4763 52.4387C39.1841 54.2872 40.781 60.5216 42.8154 62.9825C31.3857 68.145 17.4185 60.3137 15.6248 48.1403ZM44.7951 61.9544C42.3779 58.9356 40.9123 52.3731 36.2201 50.3278C34.9513 49.8794 34.0326 50.1091 31.4295 50.7872C28.1482 51.6403 25.206 52.3512 25.0966 52.1106C24.9873 51.87 24.8232 51.8153 24.6373 51.2356C24.3458 50.1815 23.81 49.211 23.0732 48.4028C22.3364 47.6471 21.488 47.0089 20.5576 46.5106C18.9202 45.8106 17.1109 45.6163 15.3623 45.9528C15.1783 42.8725 15.7255 39.7923 16.9592 36.9638C18.1929 34.1353 20.078 31.6387 22.4607 29.6778C25.0857 32.3466 31.1013 36.6887 34.7982 35.0481C36.2638 34.3044 36.7232 32.97 37.3029 31.2637C37.9085 29.3343 38.7343 27.4809 39.7638 25.7403C41.2819 26.1122 42.7505 26.6629 44.1388 27.3809C41.5576 30.0169 40.7591 34.4575 41.8091 35.9231C41.5248 36.3278 47.6935 41.0747 48.0216 41.5559C48.3498 42.0372 48.1201 42.6497 47.781 43.6122C45.8779 47.7466 48.3716 52.8544 51.281 56.0372C49.588 58.4692 47.3718 60.4911 44.7951 61.9544Z" fill="black"/>
<path d="M11.391 44.8585C11.3837 38.9477 13.6016 33.2507 17.6035 28.9007C17.808 28.686 17.9189 28.3989 17.9117 28.1025C17.9045 27.8061 17.7799 27.5247 17.5652 27.3202C17.3506 27.1157 17.0635 27.0049 16.7671 27.012C16.4707 27.0192 16.1893 27.1439 15.9848 27.3585C7.00508 36.7976 7.00508 52.832 15.9848 62.2491C16.0824 62.3554 16.2001 62.4414 16.331 62.5023C16.4619 62.5631 16.6035 62.5975 16.7477 62.6036C16.892 62.6097 17.036 62.5873 17.1715 62.5378C17.3071 62.4882 17.4316 62.4124 17.5379 62.3148C17.6442 62.2171 17.7302 62.0994 17.791 61.9685C17.8518 61.8376 17.8863 61.696 17.8924 61.5518C17.8985 61.4076 17.8761 61.2636 17.8265 61.128C17.777 60.9924 17.7012 60.8679 17.6035 60.7616C13.6116 56.4273 11.3942 50.7511 11.391 44.8585Z" fill="black"/>
<path d="M54.1117 27.3598C53.9045 27.1887 53.6415 27.0998 53.373 27.1102C53.1044 27.1206 52.8491 27.2295 52.6557 27.4161C52.4623 27.6027 52.3444 27.854 52.3244 28.122C52.3045 28.3901 52.384 28.656 52.5476 28.8692C60.7726 37.4989 60.7726 52.1661 52.5476 60.7848C52.3504 60.9995 52.2465 61.2837 52.2588 61.575C52.2711 61.8663 52.3986 62.1407 52.6133 62.338C52.8279 62.5352 53.1122 62.6391 53.4034 62.6268C53.6947 62.6145 53.9691 62.487 54.1664 62.2723C63.0914 52.8551 63.0914 36.8208 54.1117 27.3598Z" fill="black"/>
</svg>
