<svg width="71" height="70" viewBox="0 0 71 70" fill="none" xmlns="http://www.w3.org/2000/svg">
<path d="M16.5358 55.8323C16.3267 55.8323 16.1148 55.782 15.9189 55.6761C15.617 55.5172 8.59766 51.6064 8.59766 37.2975C8.59766 22.3108 31.5146 14.791 44.3433 14.791C58.0855 14.791 66.2435 25.4565 66.585 25.9119C66.9769 26.4388 66.9266 27.1775 66.4606 27.6409L64.7501 29.3541L66.4606 31.0646C66.7095 31.3161 66.8498 31.655 66.8498 32.0072C66.8498 32.3593 66.7068 32.6983 66.4579 32.9445C66.1111 33.2834 57.9187 41.2693 49.639 41.2693H44.3433C43.6125 41.2693 43.0194 40.6762 43.0194 39.9454C43.0194 39.2146 43.6125 38.6214 44.3433 38.6214H49.639C55.3132 38.6214 61.2973 33.9586 63.6062 31.9569L61.9407 30.2914C61.4244 29.7751 61.4244 28.9357 61.9407 28.4194L63.728 26.6321C61.5303 24.1855 54.5401 17.4388 44.3433 17.4388C30.8473 17.4388 11.2455 25.1758 11.2455 37.2975C11.2455 49.8826 17.1157 53.3142 17.174 53.346C17.8068 53.7008 18.0451 54.5031 17.6956 55.1386C17.4573 55.5808 17.0045 55.8323 16.5358 55.8323Z" fill="black"/>
<path d="M39.0482 46.5653C38.5133 46.5653 38.0288 46.2423 37.8249 45.7471C37.621 45.252 37.7349 44.6827 38.1109 44.3041C38.2009 44.2141 38.2909 44.0764 38.283 43.7427C38.2247 41.2061 33.2998 35.794 30.2097 32.9793C29.6696 32.4868 29.6299 31.6501 30.1224 31.11C30.6202 30.5672 31.4542 30.5301 31.9944 31.0226C32.8417 31.7958 39.9008 38.3359 40.8302 42.8451C42.7181 40.29 43.0543 34.2556 43.0173 32.0235C43.004 31.2927 43.5892 30.6916 44.3174 30.6784C45.0243 30.6307 45.6519 31.2477 45.6651 31.9811C45.681 32.9661 45.726 41.7039 42.3606 45.1249C41.4365 46.0675 40.29 46.5653 39.0482 46.5653Z" fill="black"/>
<path d="M49.6252 35.9737C49.4081 35.9737 49.1883 35.9181 48.9871 35.8042C48.852 35.7274 45.6641 33.8687 45.6641 28.0302C45.6641 22.1918 48.852 20.333 48.9871 20.2562C49.6199 19.8934 50.4302 20.1238 50.7903 20.7593C51.1451 21.3895 50.9279 22.1865 50.3057 22.5492C50.1892 22.626 48.3119 23.889 48.3119 28.0302C48.3119 32.2164 50.2289 33.4582 50.311 33.5112C50.92 33.8925 51.1292 34.6974 50.7611 35.317C50.5122 35.7354 50.0753 35.9737 49.6252 35.9737Z" fill="black"/>
<path d="M28.4525 65.0996C28.2009 65.0996 27.952 65.0281 27.7296 64.8825C25.524 63.4341 23.0165 62.8199 20.5884 62.2267C17.4508 61.4589 14.2072 60.6645 11.6335 58.0908C7.07393 53.5339 3.30078 49.022 3.30078 39.9453C3.30078 31.1333 8.75265 23.3567 11.6308 20.4732C12.1472 19.9569 12.9865 19.9569 13.5029 20.4732C14.0192 20.9895 14.0192 21.8289 13.5029 22.3452C10.8894 24.9586 5.94861 32.0018 5.94861 39.9453C5.94861 48.0212 9.22132 51.9399 13.5055 56.2188C15.5523 58.2656 18.306 58.9408 21.2186 59.6531C22.7914 60.0396 24.396 60.4289 25.9847 61.0432C25.4128 58.766 25.3042 55.7872 27.5204 53.5684C29.1992 51.8896 29.7261 48.3204 29.8293 45.5693C26.5725 48.5031 22.4234 51.8605 20.5116 51.8605C17.6202 51.8605 13.8921 48.0079 13.8921 43.917C13.8921 40.1968 17.7129 33.3257 23.1595 33.3257C26.1462 33.3257 29.8797 34.8403 32.8823 36.0556C34.2433 36.6064 35.9326 37.2922 36.3986 37.2975C37.1268 37.3054 37.7199 37.9038 37.7146 38.6293C37.7093 39.3575 37.1241 39.9453 36.3986 39.9453C35.4745 39.9453 34.2168 39.4528 31.8894 38.5102C29.2468 37.4404 25.6299 35.9736 23.1595 35.9736C19.5372 35.9736 16.5399 41.2321 16.5399 43.917C16.5399 46.5437 19.0871 49.2127 20.5116 49.2127C21.6582 49.067 26.4507 45.1774 30.1921 41.632C30.5628 41.2824 31.0977 41.1739 31.5716 41.3566C32.0456 41.5393 32.3792 41.9762 32.4189 42.4846C32.4507 42.8579 33.1418 51.6884 29.3872 55.4457C26.7843 58.0511 29.5725 63.074 29.6016 63.1244C29.9035 63.6566 29.8002 64.3265 29.3554 64.7422C29.1065 64.9778 28.7808 65.0996 28.4525 65.0996Z" fill="black"/>
<path d="M17.8606 25.3818C17.6355 25.3818 17.4052 25.3236 17.1933 25.2018C14.7626 23.7799 7.76708 20.0862 4.62411 20.0862C4.08925 20.0862 3.6047 19.7631 3.40082 19.268C3.19694 18.7729 3.31079 18.2062 3.68678 17.8249C10.0575 11.4596 26.0715 4.19922 33.7502 4.19922C43.3803 4.37927 48.0167 15.1427 48.21 15.6008C48.4906 16.2733 48.1755 17.0491 47.503 17.3324C46.8357 17.6131 46.0546 17.3033 45.7687 16.6281C45.729 16.5328 41.5983 6.99532 33.7237 6.84704C27.9303 6.84704 14.7229 12.1745 7.5579 17.9203C12.0539 19.1753 17.76 22.4613 18.5331 22.9141C19.1633 23.2847 19.3751 24.095 19.0071 24.7252C18.7609 25.1488 18.316 25.3818 17.8606 25.3818Z" fill="black"/>
<path d="M25.8085 20.0869C25.4695 20.0869 25.1306 19.9572 24.8711 19.7004C23.3275 18.154 16.2948 15.8398 12.2251 14.7463C11.5208 14.5556 11.0998 13.8301 11.2931 13.1232C11.4811 12.4188 12.2039 11.9978 12.9136 12.1885C14.0627 12.4983 24.1986 15.2785 26.7458 17.8257C27.2621 18.342 27.2621 19.1814 26.7458 19.6977C26.4863 19.9572 26.1474 20.0869 25.8085 20.0869Z" fill="black"/>
<path d="M39.0464 17.438C38.5459 17.438 38.0667 17.152 37.8443 16.6674C35.7895 12.1926 26.4162 9.96315 22.9767 9.48125C22.2512 9.38063 21.7481 8.71073 21.8487 7.98787C21.9494 7.26237 22.6378 6.76193 23.3421 6.8599C23.9035 6.93669 37.1691 8.85636 40.2485 15.5607C40.553 16.2253 40.2644 17.0117 39.5998 17.3162C39.4224 17.3982 39.2317 17.438 39.0464 17.438Z" fill="black"/>
<path d="M56.2572 30.6765C57.7196 30.6765 58.905 29.491 58.905 28.0287C58.905 26.5663 57.7196 25.3809 56.2572 25.3809C54.7948 25.3809 53.6094 26.5663 53.6094 28.0287C53.6094 29.491 54.7948 30.6765 56.2572 30.6765Z" fill="black"/>
</svg>
