<svg height='100px' width='100px'  fill="#000000" xmlns="http://www.w3.org/2000/svg" xmlns:xlink="http://www.w3.org/1999/xlink" version="1.1" x="0px" y="0px" viewBox="0 0 64 64" style="enable-background:new 0 0 64 64;" xml:space="preserve"><g><path d="M38,7c-8.271,0-15,6.729-15,15c0,5.895,4.273,10.811,9.885,11.813l0.017,0.031l-1.359,2.039   C30.242,37.835,28.064,39,25.719,39H23v2h2.719c3.017,0,5.815-1.498,7.488-4.008l0.804-1.207l0.851,1.489   c0.633,1.108,1.656,1.893,2.828,2.266l-1.91,3.735C34.922,44.957,33.216,46,31.329,46h-4.157c-1.634,0-3.226,0.576-4.481,1.623   l-2.662,2.219C19.132,50.588,17.995,51,16.828,51H13v2h3.828c1.634,0,3.226-0.576,4.481-1.623l2.662-2.219   c0.896-0.747,2.033-1.159,3.2-1.159h4.157c2.642,0,5.03-1.461,6.232-3.813l2.277-4.453c0.119-0.014,0.236-0.011,0.355-0.034   C48.193,38.179,54,31.156,54,23C54,14.178,46.822,7,38,7z M39.82,37.735c-1.29,0.248-2.585-0.338-3.222-1.453l-1.306-2.286   c1.198-0.029,2.353-0.236,3.441-0.593l1.434,2.151l1.664-1.109l-1.231-1.847c1.186-0.629,2.253-1.449,3.161-2.422l1.531,1.531   l1.414-1.414l-1.691-1.691c0.72-1.088,1.255-2.305,1.59-3.602H49v-2h-2.05c0.027-0.331,0.05-0.663,0.05-1   c0-1.481-0.412-2.864-1.116-4.055l1.67-1.113l-1.109-1.664l-1.782,1.188c-1.227-1.231-2.853-2.059-4.663-2.286V12h-2v2.069   c-1.457,0.183-2.792,0.759-3.898,1.619l-1.395-1.396l-1.414,1.414l1.396,1.396C32.03,17.95,31.54,18.931,31.263,20H29v2h2   c0,0.955,0.226,1.874,0.645,2.702l-2.199,1.466l1.109,1.664l2.279-1.52C33.959,27.399,35.432,28,37,28c2.206,0,4-1.794,4-4   s-1.794-4-4-4v2c1.103,0,2,0.897,2,2s-0.897,2-2,2c-1.069,0-2.073-0.417-2.829-1.172S33,23.066,33,21.997   C33.002,18.69,35.693,16,39,16c3.309,0,6,2.691,6,6c0,5.514-4.486,10-10,10s-10-4.486-10-10c0-7.168,5.832-13,13-13   c7.72,0,14,6.28,14,14C52,30.196,46.878,36.394,39.82,37.735z"></path><path d="M46,1H32.598c-5.044,0-9.732,2.721-12.235,7.1l-1.519,2.658c-1.592,2.786-4.283,4.857-7.383,5.684   C5.302,18.084,1,23.684,1,30.058v10.6C1,46.29,3.104,51.67,6.922,55.809C11.14,60.379,17.123,63,23.34,63c0.004,0,0.009,0,0.013,0   l18.177,0C48.957,63,55,56.958,55,49.53c0-2.124,0.588-4.202,1.701-6.012l4.301-6.988C62.31,34.405,63,31.964,63,29.47V18   C63,8.626,55.374,1,46,1z M61,29.47c0,2.124-0.588,4.202-1.701,6.012l-4.301,6.988C53.69,44.595,53,47.036,53,49.53   C53,55.854,47.854,61,41.529,61l-18.178,0c-0.004,0-0.007,0-0.011,0c-5.661,0-11.109-2.386-14.948-6.547   C4.915,50.685,3,45.786,3,40.658v-10.6c0-5.47,3.691-10.274,8.977-11.684c3.612-0.963,6.748-3.378,8.604-6.625l1.519-2.658   C24.246,5.334,28.27,3,32.598,3H46c8.271,0,15,6.729,15,15V29.47z"></path><path d="M13,25c2.243,0,4-1.318,4-3s-1.757-3-4-3s-4,1.318-4,3S10.757,25,13,25z M13,21c1.221,0,2,0.592,2,1s-0.779,1-2,1   s-2-0.592-2-1S11.779,21,13,21z"></path><path d="M24,53c-2.243,0-4,1.318-4,3s1.757,3,4,3s4-1.318,4-3S26.243,53,24,53z M24,57c-1.221,0-2-0.592-2-1s0.779-1,2-1   s2,0.592,2,1S25.221,57,24,57z"></path><path d="M50,38c-2.243,0-4,1.318-4,3s1.757,3,4,3s4-1.318,4-3S52.243,38,50,38z M50,42c-1.221,0-2-0.592-2-1s0.779-1,2-1   s2,0.592,2,1S51.221,42,50,42z"></path><path d="M14.293,33.207C15.602,34.516,17.086,36,21,36v-2c-3.086,0-4.108-1.023-5.293-2.207C14.398,30.484,12.914,29,9,29H7v2h2   C12.086,31,13.108,32.023,14.293,33.207z"></path><path d="M19.201,46H21v-2h-1.799c-1.729,0-3.341-0.774-4.42-2.125C13.319,40.048,11.139,39,8.799,39H7v2h1.799   c1.729,0,3.341,0.774,4.42,2.125C14.681,44.952,16.861,46,19.201,46z"></path><rect x="17" y="27" width="2" height="2"></rect><rect x="23" y="11" width="2" height="2"></rect><rect x="55" y="12" width="2" height="2"></rect><rect x="42" y="46" width="2" height="2"></rect><rect x="37" y="52" width="2" height="2"></rect><rect x="57" y="23" width="2" height="2"></rect></g></svg>