<svg width="71" height="70" viewBox="0 0 71 70" fill="none" xmlns="http://www.w3.org/2000/svg">
<path d="M42.0625 7.65625C33.0161 7.65625 25.6562 15.0161 25.6562 24.0625C25.6562 30.5102 30.3298 35.887 36.468 36.983L36.4866 37.0169L35.0002 39.247C33.5772 41.382 31.195 42.6562 28.6302 42.6562H25.6562V44.8438H28.6302C31.93 44.8438 34.9903 43.2053 36.8202 40.46L37.6995 39.1398L38.6303 40.7684C39.3227 41.9803 40.4416 42.8389 41.7234 43.2469L39.6344 47.332C38.6959 49.1717 36.83 50.3125 34.7661 50.3125H30.2194C28.4322 50.3125 26.6909 50.9425 25.3183 52.0877L22.4067 54.5147C21.4256 55.3306 20.182 55.7812 18.9056 55.7812H14.7188V57.9688H18.9056C20.6928 57.9688 22.4341 57.3387 23.8067 56.1936L26.7183 53.7666C27.6983 52.9495 28.9419 52.4989 30.2183 52.4989H34.765C37.6547 52.4989 40.2666 50.9009 41.5813 48.3284L44.0717 43.458C44.2019 43.4427 44.3298 43.4459 44.46 43.4208C53.2111 41.7583 59.5625 34.0769 59.5625 25.1562C59.5625 15.5072 51.7116 7.65625 42.0625 7.65625ZM44.0531 41.2727C42.6422 41.5439 41.2258 40.903 40.5291 39.6834L39.1006 37.1831C40.4109 37.1514 41.6742 36.925 42.8642 36.5345L44.4327 38.8872L46.2527 37.6742L44.9062 35.6541C46.2034 34.9661 47.3705 34.0692 48.3636 33.005L50.0381 34.6795L51.5847 33.133L49.7352 31.2834C50.5227 30.0934 51.1078 28.7623 51.4742 27.3438H54.0938V25.1562H51.8516C51.8811 24.7942 51.9062 24.4311 51.9062 24.0625C51.9062 22.4427 51.4556 20.93 50.6856 19.6273L52.5122 18.41L51.2992 16.59L49.3502 17.8894C48.0081 16.543 46.2297 15.6373 44.25 15.3891V13.125H42.0625V15.388C40.4689 15.5881 39.0088 16.2181 37.7991 17.1587L36.2733 15.6319L34.7267 17.1784L36.2536 18.7053C35.5328 19.6328 34.9969 20.7058 34.6939 21.875H32.2188V24.0625H34.4062C34.4062 25.107 34.6534 26.1122 35.1117 27.0178L32.7066 28.6213L33.9195 30.4412L36.4122 28.7787C37.6427 29.9677 39.2537 30.625 40.9688 30.625C43.3816 30.625 45.3438 28.6628 45.3438 26.25C45.3438 23.8372 43.3816 21.875 40.9688 21.875V24.0625C42.1752 24.0625 43.1562 25.0436 43.1562 26.25C43.1562 27.4564 42.1752 28.4375 40.9688 28.4375C39.7995 28.4375 38.7014 27.9814 37.8745 27.1556C37.0477 26.3298 36.5938 25.2284 36.5938 24.0592C36.5959 20.4422 39.5392 17.5 43.1562 17.5C46.7755 17.5 49.7188 20.4433 49.7188 24.0625C49.7188 30.0934 44.8122 35 38.7812 35C32.7503 35 27.8438 30.0934 27.8438 24.0625C27.8438 16.2225 34.2225 9.84375 42.0625 9.84375C50.5062 9.84375 57.375 16.7125 57.375 25.1562C57.375 33.0269 51.7728 39.8059 44.0531 41.2727Z" fill="black"/>
<path d="M50.8125 1.09375H36.1541C30.6372 1.09375 25.5097 4.06984 22.772 8.85938L21.1106 11.7666C19.3694 14.8138 16.4261 17.0789 13.0355 17.9834C6.29906 19.7794 1.59375 25.9044 1.59375 32.8759V44.4697C1.59375 50.6297 3.895 56.5141 8.07094 61.0411C12.6844 66.0395 19.2283 68.9062 26.0281 68.9062C26.0325 68.9062 26.038 68.9062 26.0423 68.9062H45.9234C54.0467 68.9062 60.6562 62.2978 60.6562 54.1734C60.6562 51.8503 61.2994 49.5775 62.5167 47.5978L67.2209 39.9547C68.6516 37.6305 69.4062 34.9606 69.4062 32.2328V19.6875C69.4062 9.43469 61.0653 1.09375 50.8125 1.09375ZM67.2188 32.2328C67.2188 34.5559 66.5756 36.8287 65.3583 38.8084L60.6541 46.4516C59.2234 48.7758 58.4688 51.4456 58.4688 54.1734C58.4688 61.0903 52.8403 66.7188 45.9223 66.7188H26.0402C26.0358 66.7188 26.0325 66.7188 26.0281 66.7188C19.8364 66.7188 13.8777 64.1091 9.67875 59.558C5.87578 55.4367 3.78125 50.0784 3.78125 44.4697V32.8759C3.78125 26.8931 7.81828 21.6388 13.5998 20.0966C17.5505 19.0433 20.9805 16.4019 23.0105 12.8505L24.6719 9.94328C27.0191 5.83406 31.4203 3.28125 36.1541 3.28125H50.8125C59.8589 3.28125 67.2188 10.6411 67.2188 19.6875V32.2328Z" fill="black"/>
<path d="M14.7188 27.3438C17.172 27.3438 19.0938 25.9022 19.0938 24.0625C19.0938 22.2228 17.172 20.7812 14.7188 20.7812C12.2655 20.7812 10.3438 22.2228 10.3438 24.0625C10.3438 25.9022 12.2655 27.3438 14.7188 27.3438ZM14.7188 22.9688C16.0542 22.9688 16.9062 23.6163 16.9062 24.0625C16.9062 24.5087 16.0542 25.1562 14.7188 25.1562C13.3833 25.1562 12.5312 24.5087 12.5312 24.0625C12.5312 23.6163 13.3833 22.9688 14.7188 22.9688Z" fill="black"/>
<path d="M26.75 57.9688C24.2967 57.9688 22.375 59.4103 22.375 61.25C22.375 63.0897 24.2967 64.5312 26.75 64.5312C29.2033 64.5312 31.125 63.0897 31.125 61.25C31.125 59.4103 29.2033 57.9688 26.75 57.9688ZM26.75 62.3438C25.4145 62.3438 24.5625 61.6962 24.5625 61.25C24.5625 60.8038 25.4145 60.1562 26.75 60.1562C28.0855 60.1562 28.9375 60.8038 28.9375 61.25C28.9375 61.6962 28.0855 62.3438 26.75 62.3438Z" fill="black"/>
<path d="M55.1875 41.5625C52.7342 41.5625 50.8125 43.0041 50.8125 44.8438C50.8125 46.6834 52.7342 48.125 55.1875 48.125C57.6408 48.125 59.5625 46.6834 59.5625 44.8438C59.5625 43.0041 57.6408 41.5625 55.1875 41.5625ZM55.1875 45.9375C53.852 45.9375 53 45.29 53 44.8438C53 44.3975 53.852 43.75 55.1875 43.75C56.523 43.75 57.375 44.3975 57.375 44.8438C57.375 45.29 56.523 45.9375 55.1875 45.9375Z" fill="black"/>
<path d="M16.133 36.3202C17.5647 37.7519 19.1878 39.375 23.4688 39.375V37.1875C20.0934 37.1875 18.9756 36.0686 17.6795 34.7736C16.2478 33.3419 14.6247 31.7188 10.3438 31.7188H8.15625V33.9062H10.3438C13.7191 33.9062 14.8369 35.0252 16.133 36.3202Z" fill="black"/>
<path d="M21.5011 50.3125H23.4688V48.125H21.5011C19.61 48.125 17.8469 47.2784 16.6667 45.8008C15.0677 43.8025 12.6833 42.6562 10.1239 42.6562H8.15625V44.8438H10.1239C12.015 44.8438 13.7781 45.6903 14.9583 47.168C16.5573 49.1663 18.9417 50.3125 21.5011 50.3125Z" fill="black"/>
<path d="M21.2812 29.5312H19.0938V31.7188H21.2812V29.5312Z" fill="black"/>
<path d="M27.8438 12.0312H25.6562V14.2188H27.8438V12.0312Z" fill="black"/>
<path d="M62.8438 13.125H60.6562V15.3125H62.8438V13.125Z" fill="black"/>
<path d="M48.625 50.3125H46.4375V52.5H48.625V50.3125Z" fill="black"/>
<path d="M43.1562 56.875H40.9688V59.0625H43.1562V56.875Z" fill="black"/>
<path d="M65.0312 25.1562H62.8438V27.3438H65.0312V25.1562Z" fill="black"/>
</svg>
