<svg height='100px' width='100px'  fill="#000000" xmlns="http://www.w3.org/2000/svg" viewBox="0 0 100 100" x="0px" y="0px"><title>Frog</title><g data-name="Iconos"><path d="M79.54,19.57c-1-1.38-3.2-3.91-6.27-4.2-2.43-.24-4.75.94-6.92,3.5-2,2.33-11.94,5.74-24.59,7.17C30.66,27.3,22,35.69,20,37.79a5.78,5.78,0,0,0-3.6-.89c-2.78.23-4.74,1.23-5.82,3-2.11,3.44-.5,9.17,2.59,16.72C16,63.67,17,66.25,17.27,67.16l-2.59,4.58a2.06,2.06,0,1,0,2.7,2,1.81,1.81,0,0,0-.07-.52l1.51-2.67,3.71,7.17a1.91,1.91,0,0,0-.08.54,2.07,2.07,0,1,0,4.13,0,2.05,2.05,0,0,0-1.39-1.94l-3-5.73,6.55,3a2.07,2.07,0,1,0,1.92-2.84,2,2,0,0,0-.65.12l-5.12-2.35L25.36,66a6.49,6.49,0,0,0,2.78.51c3-.14,5.43-2.58,6.52-6.49,7,2.18,12.49,2.4,16.83.66-.12,3.29.27,8.65,3.65,11.9,2.2,2.1,8.74,3.07,11.45,3.38l2.32,5.87a2.26,2.26,0,0,0-.14.74,2.07,2.07,0,1,0,2.92-1.88L70,76.47l6.09.91a2.06,2.06,0,1,0,1.63-3.32,2,2,0,0,0-1.16.36l-3.87-.58.72-.35a2.12,2.12,0,0,0,.62.1,2.07,2.07,0,1,0,0-4.13,2,2,0,0,0-1.92,1.33l-3.83,1.84c-1.2-2.09-3.8-6.1-7-7.78-.27-1.55,1.8-7,4.5-12.85L73,54.14l2.7,4.74a1.91,1.91,0,0,0-.06.48,2.07,2.07,0,1,0,2.67-2l-1.41-2.48,5.41,1A2.07,2.07,0,1,0,84,52.66,2.09,2.09,0,0,0,83,53l-2.85-.52.45-.15a2,2,0,0,0,.87.2,2.07,2.07,0,1,0-1.81-3l-4.92,1.63-3.41-5.52C80.6,41.35,85.43,36.87,86,31.91c3-2.85,5.07-5.77,4.19-8.08C88.35,19.06,82,19.28,79.54,19.57ZM70.69,50.32l-3.57-1.06c.4-.82.81-1.64,1.22-2.44l.16-.06Zm.57-11.64a1.5,1.5,0,1,0,1.52,2.59c1.94-1.13,4.69-2.82,7.45-4.77q-4,3.91-13.52,7.74a1.54,1.54,0,0,0-.77.7c-2.07,4-8.71,17.15-7.44,21a2.42,2.42,0,0,0,1.24,1.47c1.91.92,3.79,3.3,5.09,5.3-3.18-.51-6.63-1.34-7.61-2.28-3.88-3.72-2.51-12-2.5-12.08v0a1,1,0,0,0,0-.17c.13-5.46,5.11-11.48,5.16-11.54a1.5,1.5,0,0,0-2.3-1.93c-.22.27-5.23,6.32-5.8,12.55C47.9,59.44,42.39,59.37,35,57a18.06,18.06,0,0,0-2.45-8.59A1.5,1.5,0,1,0,30,50a15.51,15.51,0,0,1,2,8c-.59,3.34-2.13,5.48-4,5.56a4.41,4.41,0,0,1-2.7-.92,1.29,1.29,0,0,0-.3-.22c-3-2.27-6.41-8-9-17.83a1.51,1.51,0,0,0-1.84-1.06,1.49,1.49,0,0,0-1.06,1.83c2.42,9.18,5.79,15.77,9.52,19l-.52,2.86-2-.91c-.41-1.3-1.47-4.16-4.19-10.8-2.12-5.2-4.36-11.49-2.8-14,.55-.91,1.7-1.42,3.5-1.57h.23c4.72,0,7.4,12.06,8,16.36a1.5,1.5,0,1,0,3-.39c-.19-1.46-1.59-11.09-5.59-16,1.87-1.93,10-9.66,19.89-10.79,10.76-1.22,23.33-4.43,26.54-8.21,1.49-1.76,3-2.58,4.34-2.46,2.15.2,4,2.66,4.52,3.58a1.5,1.5,0,0,0,1.6.74c.07,0,6.94-1.25,8.27,2.23C88.08,26.76,80.4,33.33,71.26,38.68Z"></path><path d="M78.09,26.68c-1.6-3.66-5.92-4.38-9.17-3a6.09,6.09,0,0,0-3.3,8.4A5.71,5.71,0,0,0,71,35.76a7.77,7.77,0,0,0,3.08-.69c3.75-1.63,5.44-5.16,4-8.39Zm-5.23,5.64c-1,.43-3.38,1.15-4.49-1.4a3.13,3.13,0,0,1,1.75-4.45,5,5,0,0,1,2-.42,3.3,3.3,0,0,1,3.2,1.83,0,0,0,0,1,0,0,1.51,1.51,0,0,0-2-.65L70,28.9a1.5,1.5,0,0,0,.65,2.85,1.43,1.43,0,0,0,.64-.15L74.67,30a1.49,1.49,0,0,0,.85-1.47C75.84,30.18,74.46,31.62,72.86,32.32Z"></path></g></svg>