<svg width="71" height="70" viewBox="0 0 71 70" fill="none" xmlns="http://www.w3.org/2000/svg">
<g clip-path="url(#clip0)">
<path d="M57.4957 12.206C56.748 11.1593 55.1033 9.2903 52.7857 9.06601C50.9914 8.91649 49.1972 9.73887 47.6272 11.6827C46.1319 13.4022 38.7306 15.9441 29.2359 17.0655C21.0121 17.9626 14.5079 24.2426 13.0127 25.8126C12.1903 25.2892 11.2931 25.0649 10.3213 25.1397C8.22793 25.2892 6.80747 26.0368 5.98509 27.3825C4.41511 29.9244 5.61129 34.2606 7.92889 39.8677C10.0222 45.101 10.7698 47.0448 10.9941 47.7176L9.05031 51.1566C8.22793 51.4557 7.77937 52.2781 8.07841 53.1004C8.37746 53.9228 9.19983 54.3714 10.0222 54.0723C10.6203 53.848 11.0689 53.3247 11.0689 52.6519C11.0689 52.5023 11.0689 52.3528 10.9941 52.2781L12.1155 50.2595L14.8817 55.6423C14.8069 55.7918 14.8069 55.9414 14.8069 56.0161C14.7322 56.8385 15.405 57.5861 16.2274 57.6609C17.0498 57.7356 17.7974 57.0628 17.8721 56.2404C17.8721 56.1656 17.8721 56.0909 17.8721 56.0161C17.8721 55.3433 17.4236 54.7452 16.8255 54.5957L14.5826 50.3343L19.4421 52.5771C19.7412 53.3995 20.6383 53.7733 21.4607 53.4742C22.2831 53.1752 22.6569 52.2781 22.3578 51.4557C22.1335 50.8576 21.5355 50.4838 20.9374 50.4838C20.7878 50.4838 20.6383 50.4838 20.4888 50.5586L16.676 48.839L17.0498 46.97C17.7226 47.2691 18.3955 47.3438 19.1431 47.3438C21.3859 47.2691 23.1802 45.4 24.0026 42.4843C29.2359 44.1291 33.3477 44.2786 36.5625 43.0077C36.4877 45.4748 36.7868 49.4371 39.3287 51.9043C40.9734 53.4742 45.8329 54.2219 47.8514 54.4461L49.571 58.8571C49.4962 59.0066 49.4962 59.2309 49.4962 59.3804C49.4962 60.2028 50.169 60.9504 51.0662 60.9504C51.8886 60.9504 52.6362 60.2775 52.6362 59.3804C52.6362 58.7823 52.2624 58.1842 51.739 57.9599L50.3933 54.7452L54.9538 55.418C55.4771 56.0909 56.449 56.2404 57.1218 55.7171C57.7947 55.1938 57.9442 54.2219 57.4209 53.549C57.1218 53.1752 56.6733 52.9509 56.2247 52.9509C55.9257 52.9509 55.6266 53.0257 55.3276 53.25L52.4119 52.8014L52.9352 52.5771C53.0847 52.6519 53.2343 52.6519 53.3838 52.6519C54.2062 52.7266 54.9538 52.0538 55.0285 51.2314C55.1033 50.409 54.4304 49.6614 53.6081 49.5867C53.5333 49.5867 53.4585 49.5867 53.3838 49.5867C52.7109 49.5867 52.1876 49.9605 51.9633 50.5586L49.1224 51.9043C48.2253 50.3343 46.2815 47.3438 43.8891 46.0729C43.6648 44.9515 45.2348 40.8396 47.2534 36.5034L52.6362 38.0734L54.6547 41.5872C54.6547 41.7367 54.58 41.8115 54.58 41.961C54.58 42.7834 55.2528 43.531 56.1499 43.531C56.9723 43.531 57.7199 42.8581 57.7199 41.961C57.7199 41.2881 57.2714 40.6901 56.5985 40.4658L55.5519 38.5967L59.589 39.3444C60.0375 40.092 61.0094 40.2415 61.757 39.7929C62.5047 39.3444 62.6542 38.3725 62.2056 37.6248C61.9066 37.1763 61.458 36.952 60.8599 36.952C60.5609 36.952 60.3366 37.0268 60.1123 37.1763L58.019 36.8025L58.318 36.6529C58.5423 36.7277 58.7666 36.8025 58.9909 36.8025C59.8133 36.8025 60.5609 36.1296 60.5609 35.3072C60.5609 34.4849 59.888 33.7373 59.0656 33.7373C58.4676 33.7373 57.9442 34.0363 57.6452 34.5596L53.9819 35.7558L51.44 31.6439C58.3928 28.4292 61.9813 25.0649 62.4299 21.4016C64.6727 19.2336 66.2427 17.0655 65.5699 15.346C64.0747 11.8322 59.3647 11.9817 57.4957 12.206ZM50.9167 35.1577L48.2253 34.3353C48.5243 33.7373 48.8233 33.1392 49.1224 32.5411L49.2719 32.4663L50.9167 35.1577ZM51.3652 26.4854C50.8419 26.7845 50.6176 27.4573 50.9914 28.0554C51.2905 28.5787 51.9633 28.803 52.5614 28.4292C53.9819 27.6068 56.0752 26.3359 58.0938 24.8407C56.0752 26.7844 52.7109 28.7282 48.001 30.5973C47.7767 30.672 47.5524 30.8963 47.4029 31.1206C45.8329 34.1111 40.8986 43.9048 41.8705 46.8205C42.0201 47.2691 42.3191 47.7176 42.7677 47.9419C44.1881 48.6148 45.6086 50.409 46.5805 51.9043C44.1881 51.5304 41.6463 50.9324 40.8986 50.1847C37.9829 47.4186 39.0296 41.2134 39.0296 41.1386C39.0296 41.0639 39.0296 41.0639 39.0296 40.9891C39.1044 36.8772 42.8424 32.3915 42.9172 32.3915C43.291 31.943 43.291 31.1954 42.7677 30.8216C42.3191 30.4478 41.5715 30.4478 41.1977 30.9711C41.0482 31.1954 37.3101 35.681 36.8615 40.3162C33.9458 41.961 29.834 41.8862 24.3016 40.092C24.2269 37.8491 23.6288 35.6063 22.4326 33.6625C22.1335 33.1392 21.3859 32.9896 20.8626 33.2887C20.3393 33.5877 20.1897 34.4101 20.4888 34.9334C21.5355 36.7277 22.0588 38.821 21.984 40.9143C21.5355 43.3815 20.414 45.0262 18.9936 45.101C18.246 45.101 17.5731 44.8767 16.975 44.4281C16.9002 44.3534 16.8255 44.2786 16.7507 44.2786C14.5079 42.5591 11.966 38.2977 10.0222 30.9711C9.87268 30.373 9.27459 29.9992 8.6765 30.1487C8.07841 30.2982 7.70461 30.8963 7.85413 31.4944C9.6484 38.3725 12.1903 43.3067 14.9565 45.6991L14.5826 47.8671L13.0874 47.1943C12.7884 46.2224 11.966 44.0543 9.94745 39.1201C8.37746 35.2325 6.65795 30.5225 7.85413 28.6535C8.3027 27.9806 9.12507 27.6068 10.4708 27.4573H10.6203C14.1341 27.4573 16.1526 36.5034 16.6012 39.7182C16.676 40.3162 17.2741 40.7648 17.8721 40.6901C18.4702 40.6153 18.9188 40.0172 18.844 39.4191C18.6945 38.2977 17.6479 31.1206 14.6574 27.4573C16.0779 26.0368 22.1335 20.2055 29.5349 19.3831C37.6091 18.4859 46.9543 16.0936 49.3467 13.2526C50.4681 11.9069 51.5895 11.3089 52.5614 11.3836C54.2062 11.5331 55.5519 13.4022 55.9257 14.075C56.15 14.5236 56.6733 14.7479 57.1218 14.5984C57.1966 14.5984 62.2804 13.6265 63.327 16.2431C63.9251 17.5888 58.1685 22.4483 51.3652 26.4854Z" fill="black"/>
<path d="M56.4497 17.5151C55.2535 14.7489 52.0387 14.2256 49.5716 15.2722C47.254 16.1694 46.0578 18.786 46.955 21.1784C47.0297 21.3279 47.1045 21.4774 47.1045 21.5522C47.7026 23.1969 49.3473 24.3184 51.1416 24.3184C51.964 24.3184 52.7116 24.0941 53.4592 23.795C56.2254 22.5241 57.4963 19.9074 56.4497 17.5151Z" fill="black"/>
<path d="M52.5628 21.7009C51.8152 21.9999 50.0209 22.598 49.1985 20.6542C48.6004 19.5328 48.9742 18.1123 50.1704 17.5142C50.3199 17.4395 50.3947 17.3647 50.5442 17.3647C50.9928 17.1404 51.5161 17.0657 52.0395 17.0657C53.0114 16.9909 53.9833 17.5142 54.4318 18.4114C54.1328 17.888 53.4599 17.6637 52.9366 17.9628L50.3947 19.159C49.8714 19.458 49.5723 20.1309 49.8714 20.6542C50.0957 21.028 50.4695 21.2523 50.8433 21.2523C50.9928 21.2523 51.1423 21.1775 51.2918 21.1775L53.8337 19.9813C54.2823 19.7571 54.5066 19.3085 54.4318 18.8599C54.7309 20.1309 53.759 21.1775 52.5628 21.7009Z" fill="white"/>
</g>
<defs>
<clipPath id="clip0">
<rect width="70" height="70" fill="white" transform="translate(0.5)"/>
</clipPath>
</defs>
</svg>
