<svg width="71" height="63" viewBox="0 0 71 63" fill="none" xmlns="http://www.w3.org/2000/svg">
<path d="M64.8263 42.2591C64.7791 38.9595 63.1647 35.8161 60.2664 33.3936C57.5016 31.0834 54.023 29.8003 50.4203 29.7617C49.0127 29.76 47.6134 29.9775 46.2726 30.4063C44.2224 26.1915 40.122 23.5293 35.5385 23.5293C31.1076 23.5293 27.0489 26.0716 24.9351 30.1503C23.4969 29.648 21.984 29.3932 20.4606 29.3967C13.0987 29.3967 6.86999 35.1042 6.78101 41.8941C3.0256 44.4001 0.804688 48.2118 0.804688 52.2124C0.804688 56.213 2.95297 59.9447 6.69929 62.4744C6.89558 62.6109 7.1285 62.6849 7.36756 62.6869H64.7518C65.0079 62.686 65.2571 62.604 65.4637 62.4526C68.8541 59.9339 70.8026 56.331 70.8026 52.5774C70.8026 48.5768 68.5817 44.7651 64.8263 42.2591ZM64.3541 60.2916H7.74165C4.84701 58.2214 3.20175 55.2941 3.20175 52.2106C3.20175 48.7984 5.1757 45.6459 8.61512 43.5612C8.79883 43.4504 8.94915 43.292 9.05018 43.1027C9.1512 42.9135 9.19915 42.7004 9.18897 42.4861C9.18897 42.339 9.17807 42.1901 9.17807 42.0412C9.17807 36.4807 14.3481 31.7828 20.4697 31.7828C22.0411 31.7784 23.5955 32.1083 25.0296 32.7507C25.1726 32.8153 25.327 32.8509 25.4838 32.8556C25.6406 32.8603 25.7969 32.834 25.9435 32.7781C26.0901 32.7223 26.2243 32.638 26.3383 32.5301C26.4522 32.4223 26.5438 32.293 26.6076 32.1497C26.7311 31.8736 26.8709 31.5958 27.0253 31.3216L27.0453 31.2835C28.7432 27.973 32.001 25.9155 35.5476 25.9155C39.5136 25.9155 43.0348 28.4378 44.5202 32.3403C44.5772 32.4903 44.6638 32.6273 44.7748 32.743C44.8858 32.8588 45.019 32.9511 45.1664 33.0143C45.3139 33.0775 45.4725 33.1104 45.6329 33.111C45.7934 33.1115 45.9522 33.0798 46.1001 33.0177C47.4701 32.4398 48.9425 32.144 50.4294 32.1478C56.1024 32.1478 62.4474 36.5352 62.4474 42.4062C62.4474 42.5563 62.4438 42.7052 62.4365 42.8529C62.4267 43.0672 62.4748 43.2801 62.5758 43.4692C62.6768 43.6584 62.8269 43.8169 63.0103 43.928C66.4498 46.0127 68.4237 49.1652 68.4237 52.5774C68.4146 55.4611 66.9401 58.2523 64.3541 60.2916Z" fill="black"/>
<path d="M32.3149 18.3895C33.2804 18.3895 34.2242 18.1032 35.027 17.5668C35.8297 17.0303 36.4554 16.2679 36.8248 15.3758C37.1942 14.4838 37.2908 13.5022 37.1023 12.5553C36.9138 11.6084 36.4487 10.7386 35.7658 10.056C35.083 9.37342 34.2131 8.90867 33.2661 8.72053C32.3191 8.53239 31.3375 8.62931 30.4456 8.99904C29.5537 9.36877 28.7915 9.9947 28.2554 10.7977C27.7192 11.6006 27.4332 12.5446 27.4336 13.5101C27.435 14.804 27.9498 16.0446 28.865 16.9594C29.7802 17.8742 31.0209 18.3886 32.3149 18.3895ZM32.3149 11.0168C32.808 11.0168 33.2901 11.163 33.7001 11.437C34.1101 11.7109 34.4297 12.1003 34.6184 12.5559C34.8071 13.0115 34.8565 13.5128 34.7603 13.9965C34.6641 14.4801 34.4266 14.9244 34.0779 15.2731C33.7292 15.6218 33.285 15.8593 32.8013 15.9555C32.3177 16.0517 31.8163 16.0023 31.3607 15.8136C30.9051 15.6249 30.5157 15.3053 30.2418 14.8953C29.9678 14.4852 29.8216 14.0032 29.8216 13.5101C29.8221 12.8489 30.0849 12.215 30.5524 11.7476C31.0199 11.2801 31.6538 11.0172 32.3149 11.0168Z" fill="black"/>
<path d="M43.7033 16.5824C45.4013 16.5824 46.7777 15.206 46.7777 13.508C46.7777 11.8101 45.4013 10.4336 43.7033 10.4336C42.0054 10.4336 40.6289 11.8101 40.6289 13.508C40.6289 15.206 42.0054 16.5824 43.7033 16.5824Z" fill="black"/>
<path d="M52.9374 27.8202C53.8025 27.8202 54.6481 27.5635 55.3671 27.0826C56.0862 26.6018 56.6464 25.9184 56.9769 25.1189C57.3074 24.3195 57.3932 23.44 57.2235 22.5917C57.0538 21.7435 56.6362 20.9647 56.0237 20.3539C55.4111 19.7431 54.6311 19.3278 53.7823 19.1606C52.9336 18.9934 52.0544 19.0817 51.2559 19.4145C50.4574 19.7473 49.7756 20.3095 49.2969 21.03C48.8181 21.7505 48.5639 22.5968 48.5664 23.4619C48.5712 24.6185 49.0337 25.7262 49.8527 26.5428C50.6718 27.3595 51.7808 27.8187 52.9374 27.8202ZM52.9374 21.4643C53.329 21.4643 53.7118 21.5803 54.0376 21.7975C54.3634 22.0148 54.6176 22.3236 54.7681 22.6851C54.9186 23.0466 54.9587 23.4446 54.8833 23.8289C54.808 24.2132 54.6206 24.5665 54.3447 24.8444C54.0688 25.1223 53.7168 25.3123 53.3331 25.3905C52.9494 25.4686 52.5512 25.4314 52.1886 25.2835C51.826 25.1357 51.5153 24.8838 51.2956 24.5596C51.076 24.2354 50.9573 23.8534 50.9544 23.4619C50.9527 23.2003 51.0028 22.941 51.1017 22.6988C51.2005 22.4566 51.3463 22.2364 51.5306 22.0508C51.7149 21.8651 51.934 21.7178 52.1755 21.6171C52.4169 21.5165 52.6759 21.4645 52.9374 21.4643Z" fill="black"/>
<path d="M52.3726 12.9445C53.1229 12.1942 53.1229 10.9777 52.3726 10.2274C51.6222 9.47708 50.4057 9.47708 49.6554 10.2274C48.9051 10.9777 48.9051 12.1942 49.6554 12.9445C50.4057 13.6948 51.6222 13.6948 52.3726 12.9445Z" fill="black"/>
<path d="M13.7347 26.9119C14.6148 26.913 15.4756 26.6529 16.2079 26.1647C16.9403 25.6765 17.5114 24.982 17.849 24.1692C18.1865 23.3563 18.2754 22.4615 18.1044 21.5981C17.9333 20.7347 17.51 19.9415 16.888 19.3187C16.266 18.696 15.4733 18.2717 14.6101 18.0996C13.7469 17.9274 12.8521 18.0152 12.0388 18.3518C11.2255 18.6884 10.5303 19.2587 10.0412 19.9904C9.55209 20.7222 9.29102 21.5826 9.29102 22.4628C9.29245 23.6414 9.76091 24.7714 10.5938 25.6053C11.4267 26.4392 12.5561 26.909 13.7347 26.9119ZM13.7347 20.4017C14.1423 20.4017 14.5408 20.5225 14.8798 20.749C15.2187 20.9755 15.4829 21.2974 15.6389 21.674C15.7949 22.0506 15.8357 22.4651 15.7562 22.8649C15.6766 23.2647 15.4803 23.632 15.1921 23.9202C14.9038 24.2085 14.5366 24.4048 14.1368 24.4843C13.7369 24.5638 13.3225 24.523 12.9459 24.367C12.5693 24.211 12.2474 23.9468 12.0209 23.6079C11.7944 23.2689 11.6736 22.8704 11.6736 22.4628C11.674 21.9163 11.8913 21.3923 12.2778 21.0059C12.6642 20.6194 13.1882 20.4021 13.7347 20.4017Z" fill="black"/>
<path d="M22.3903 10.6303C23.2779 10.6303 23.9974 9.91073 23.9974 9.02314C23.9974 8.13555 23.2779 7.41602 22.3903 7.41602C21.5027 7.41602 20.7832 8.13555 20.7832 9.02314C20.7832 9.91073 21.5027 10.6303 22.3903 10.6303Z" fill="black"/>
<path d="M23.9997 25.0619C24.8873 25.0619 25.6068 24.3423 25.6068 23.4548C25.6068 22.5672 24.8873 21.8477 23.9997 21.8477C23.1121 21.8477 22.3926 22.5672 22.3926 23.4548C22.3926 24.3423 23.1121 25.0619 23.9997 25.0619Z" fill="black"/>
<path d="M38.5791 5.00206C39.0368 5.00206 39.4842 4.86632 39.8647 4.61203C40.2452 4.35774 40.5417 3.99631 40.7167 3.57346C40.8918 3.15061 40.9375 2.68534 40.8481 2.23651C40.7587 1.78768 40.5381 1.37546 40.2144 1.05198C39.8907 0.728495 39.4783 0.508297 39.0294 0.419234C38.5805 0.330171 38.1153 0.376245 37.6925 0.551629C37.2698 0.727013 36.9086 1.02383 36.6546 1.40452C36.4006 1.78522 36.2653 2.2327 36.2656 2.69035C36.2661 3.30362 36.5101 3.8916 36.9439 4.32508C37.3777 4.75856 37.9659 5.00206 38.5791 5.00206ZM38.5791 2.61407C38.5891 2.61407 38.5989 2.61606 38.6081 2.61991C38.6172 2.62377 38.6255 2.62941 38.6324 2.63652C38.6394 2.64363 38.6448 2.65205 38.6485 2.6613C38.6521 2.67054 38.6538 2.68042 38.6536 2.69035C38.6536 2.71009 38.6458 2.72903 38.6318 2.74299C38.6178 2.75695 38.5989 2.7648 38.5791 2.7648C38.5692 2.76504 38.5593 2.76329 38.5501 2.75966C38.5409 2.75603 38.5324 2.75058 38.5253 2.74364C38.5182 2.73671 38.5126 2.72842 38.5087 2.71926C38.5049 2.71011 38.5029 2.70028 38.5029 2.69035C38.5029 2.67012 38.5109 2.65072 38.5252 2.63641C38.5395 2.62211 38.5589 2.61407 38.5791 2.61407Z" fill="black"/>
<path d="M64.4952 31.3927C64.9527 31.3927 65.4 31.257 65.7805 31.0028C66.1609 30.7486 66.4575 30.3872 66.6326 29.9645C66.8077 29.5418 66.8535 29.0766 66.7642 28.6278C66.675 28.179 66.4546 27.7668 66.1311 27.4432C65.8075 27.1197 65.3953 26.8993 64.9465 26.8101C64.4977 26.7208 64.0326 26.7666 63.6098 26.9417C63.1871 27.1168 62.8258 27.4134 62.5715 27.7938C62.3173 28.1743 62.1816 28.6216 62.1816 29.0792C62.1821 29.6926 62.426 30.2808 62.8598 30.7145C63.2936 31.1483 63.8817 31.3922 64.4952 31.3927ZM64.4952 29.0047C64.5103 29.0047 64.5251 29.0092 64.5377 29.0177C64.5503 29.0262 64.5601 29.0382 64.5658 29.0522C64.5715 29.0663 64.5729 29.0817 64.5698 29.0965C64.5667 29.1114 64.5593 29.125 64.5484 29.1355C64.5376 29.1461 64.5238 29.1533 64.5089 29.156C64.494 29.1587 64.4786 29.1569 64.4647 29.1509C64.4508 29.1448 64.439 29.1348 64.4309 29.122C64.4227 29.1092 64.4185 29.0943 64.4189 29.0792C64.4194 29.0592 64.4276 29.0403 64.4419 29.0264C64.4561 29.0125 64.4752 29.0047 64.4952 29.0047Z" fill="black"/>
<path d="M26.3438 41.45C27.7965 41.45 28.8262 42.1546 29.0114 43.4875H32.4617C32.3691 40.3023 29.2765 38.4863 26.4237 38.4863C22.4286 38.4863 19.8281 41.5426 19.8281 45.3779C19.8281 49.2132 22.4213 52.2695 26.4237 52.2695C29.7759 52.2695 32.2765 50.2719 32.4617 46.8597H29.0114C28.8807 48.3779 27.9545 49.304 26.3438 49.304C24.121 49.304 23.2694 47.341 23.2694 45.3779C23.2694 43.4149 24.121 41.45 26.3438 41.45Z" fill="black"/>
<path d="M40.3102 38.4863C36.1335 38.4863 33.7891 41.5426 33.7891 45.3779C33.7891 49.2132 36.1498 52.2695 40.3102 52.2695C44.4705 52.2695 46.8295 49.2114 46.8295 45.3779C46.8295 41.5444 44.4778 38.4863 40.3102 38.4863ZM40.3102 49.304C38.0874 49.304 37.2339 47.341 37.2339 45.3779C37.2339 43.4149 38.0874 41.45 40.3102 41.45C42.5329 41.45 43.3846 43.4149 43.3846 45.3779C43.3846 47.341 42.5329 49.304 40.3102 49.304Z" fill="black"/>
<path d="M49.5706 53.9249C50.6711 53.2458 51.708 52.7046 51.708 51.2573C51.708 49.6483 50.3806 48.8711 48.8897 48.8711C47.0101 48.8711 45.8225 50.1423 45.9315 52.0036H47.6475C47.6584 51.1828 47.929 50.48 48.9006 50.48C49.4835 50.48 49.8721 50.8432 49.8721 51.4207C49.8721 51.9274 49.4617 52.2942 48.8897 52.6719C48.3176 53.0496 47.5731 53.4292 46.9248 53.9903C46.5608 54.2991 46.2674 54.6826 46.0644 55.1146C45.8614 55.5466 45.7535 56.0172 45.748 56.4945H51.7843V54.9401H48.2087C48.6173 54.5447 49.075 54.2035 49.5706 53.9249Z" fill="black"/>
</svg>
