<svg width="71" height="70" viewBox="0 0 71 70" fill="none" xmlns="http://www.w3.org/2000/svg">
<g clip-path="url(#clip0)">
<path d="M33.2628 54.3305C28.1887 54.3305 23.7065 51.0496 22.0996 46.347C21.2811 46.7119 20.3946 46.902 19.4917 46.902C18.3132 46.902 17.1657 46.5738 16.1745 45.9795C16.3673 46.597 16.4667 47.2435 16.4667 47.898C16.4667 51.445 13.5811 54.3305 10.0341 54.3305C6.4871 54.3305 3.60156 51.445 3.60156 47.898C3.60156 46.9192 3.82348 45.9589 4.24803 45.0868C2.85163 42.2028 3.81455 38.6269 6.56411 36.8651C7.60225 36.1998 8.80014 35.8482 10.0282 35.8482C11.457 35.8482 12.84 36.3308 13.954 37.1844C14.4608 36.3303 15.1628 35.5995 16.0146 35.0538C17.0231 34.4077 18.1825 34.0576 19.3742 34.0383C19.0844 31.2366 20.2637 28.4282 22.517 26.6815C20.7656 21.5731 22.7007 15.9141 27.3198 12.9542C29.2233 11.7345 31.4191 11.0898 33.6702 11.0898C36.7292 11.0898 39.6426 12.2663 41.8239 14.3511C42.0929 14.1255 42.3757 13.9173 42.6711 13.7281C43.998 12.8779 45.5291 12.4284 47.0988 12.4284C49.9175 12.4284 52.5072 13.8435 54.0261 16.2143C56.4714 20.03 55.3561 25.1239 51.5403 27.5691C50.2136 28.4191 48.6828 28.8685 47.1138 28.8685C47.1137 28.8685 47.1138 28.8685 47.1136 28.8685C46.0989 28.8685 45.0917 28.6798 44.1486 28.3171C43.2021 30.1482 41.7996 31.6885 40.0452 32.8127C40.0252 32.8256 40.005 32.8385 39.985 32.851C43.1174 35.0318 45.0558 38.6481 45.0558 42.5375C45.0558 49.0403 39.7655 54.3305 33.2628 54.3305ZM22.7622 43.6368C22.8878 43.6368 23.0141 43.6589 23.1352 43.7038C23.4817 43.8324 23.7376 44.1306 23.8121 44.4928C24.7294 48.9508 28.7039 52.1863 33.2628 52.1863C38.583 52.1863 42.9116 47.8579 42.9116 42.5375C42.9116 38.7888 40.71 35.3493 37.3026 33.7755C36.9156 33.5968 36.6711 33.2057 36.6804 32.7793C36.6897 32.353 36.9504 31.9726 37.3447 31.8107C37.8812 31.5904 38.4006 31.32 38.8884 31.0075C40.5844 29.9208 41.8779 28.3591 42.6294 26.4912C42.7443 26.2056 42.9761 25.9833 43.2663 25.8806C43.5561 25.7779 43.8765 25.8048 44.1454 25.9546C45.0502 26.4583 46.0768 26.7247 47.1136 26.7247C48.272 26.7247 49.4029 26.3925 50.3835 25.7641C53.204 23.9567 54.0283 20.1917 52.2209 17.3712C51.0983 15.6189 49.1833 14.5727 47.099 14.5727C45.9402 14.5727 44.809 14.9051 43.8279 15.5337C43.3708 15.8265 42.9534 16.1812 42.5876 16.5877C42.3841 16.8137 42.0945 16.9428 41.7907 16.9428C41.787 16.9428 41.7832 16.9428 41.7795 16.9428C41.4716 16.9395 41.1802 16.8043 40.979 16.5711C39.1493 14.4505 36.4853 13.2342 33.6702 13.2342C31.8301 13.2342 30.0342 13.7617 28.4768 14.7598C24.4927 17.3128 22.9489 22.3193 24.8061 26.6645C25.0153 27.1539 24.8336 27.7228 24.3796 28.0005L24.3192 28.0368C24.3024 28.0468 24.2854 28.0566 24.2686 28.0673C21.9917 29.5264 20.9485 32.3534 21.7333 34.9412C21.8446 35.3079 21.7515 35.7061 21.4894 35.9856C21.2273 36.2651 20.836 36.3837 20.4627 36.2962C20.1398 36.2206 19.8085 36.1822 19.4778 36.1822C18.6607 36.1822 17.8631 36.4164 17.1714 36.8595C16.2762 37.4331 15.629 38.3137 15.349 39.3387C15.2411 39.7335 14.9182 40.0324 14.5162 40.1094C14.1145 40.1862 13.7039 40.0277 13.4578 39.7008C12.6536 38.6313 11.3715 37.9927 10.0282 37.9927C9.2111 37.9927 8.41329 38.2272 7.72107 38.6708C5.76683 39.9229 5.16664 42.5497 6.38275 44.5264C6.59502 44.8715 6.59466 45.3067 6.38185 45.6514C5.9657 46.3249 5.74575 47.1019 5.74575 47.898C5.74575 50.2625 7.66944 52.1863 10.0341 52.1863C12.3986 52.1863 14.3225 50.2625 14.3225 47.898C14.3225 47.1028 14.1029 46.3261 13.6873 45.6519C13.475 45.3076 13.4748 44.8731 13.6864 44.5284C13.9006 44.1794 14.0636 43.8038 14.1706 43.4116C14.2785 43.0169 14.6014 42.718 15.0033 42.641C15.4053 42.564 15.8157 42.7226 16.0616 43.0496C16.8658 44.119 18.1481 44.7576 19.4914 44.7576C20.3085 44.7576 21.1063 44.5232 21.7985 44.0797C21.892 44.0199 21.9901 43.95 22.1075 43.8596C22.2979 43.7131 22.5288 43.6368 22.7622 43.6368Z" fill="black"/>
<path d="M9.16815 27.6335C8.53151 27.6335 7.88289 27.5611 7.24035 27.4182C5.63829 27.0623 4.21241 26.2991 3.22573 25.2695C2.14363 24.1406 1.68549 22.7621 1.9687 21.4879C2.41451 19.4811 4.56817 18.1328 7.32809 18.1328C7.96473 18.1328 8.61317 18.2052 9.25589 18.3479C10.8579 18.7041 12.2837 19.467 13.2705 20.4966C14.3526 21.6257 14.8108 23.004 14.5275 24.2784C14.0815 26.2853 11.9279 27.6335 9.16815 27.6335ZM7.32791 20.2772C5.624 20.2772 4.28084 20.9663 4.06178 21.953C3.8906 22.723 4.43433 23.432 4.77365 23.7861C5.46068 24.503 6.5292 25.0639 7.70528 25.3253C8.19541 25.4341 8.68768 25.4893 9.16815 25.4893C10.8721 25.4893 12.215 24.8001 12.4343 23.8133C12.6055 23.0433 12.0617 22.3343 11.7224 21.9802C11.0354 21.2633 9.96686 20.7024 8.79078 20.441C8.30047 20.3322 7.80838 20.2772 7.32791 20.2772Z" fill="black"/>
<path d="M65.427 25.7407C62.8652 25.7407 60.7812 23.6565 60.7812 21.0949C60.7812 18.5334 62.8652 16.4492 65.427 16.4492C67.9887 16.4492 70.0727 18.5334 70.0727 21.0949C70.0727 23.6565 67.9887 25.7407 65.427 25.7407ZM65.427 18.5934C64.0476 18.5934 62.9254 19.7155 62.9254 21.0949C62.9254 22.4744 64.0476 23.5965 65.427 23.5965C66.8064 23.5965 67.9285 22.4744 67.9285 21.0949C67.9285 19.7155 66.8064 18.5934 65.427 18.5934Z" fill="black"/>
</g>
<defs>
<clipPath id="clip0">
<rect width="70" height="70" fill="white" transform="translate(0.5)"/>
</clipPath>
</defs>
</svg>
