<svg height='100px' width='100px'  fill="#000000" xmlns="http://www.w3.org/2000/svg" data-name="Layer 1" viewBox="0 0 98 98" x="0px" y="0px"><title>24</title><path d="M82.6,19A22.1,22.1,0,0,0,67,12.5h-.1A27.4,27.4,0,0,0,49,19.6c-5.7-5.3-11.1-8-16.1-8A24.7,24.7,0,0,0,15.4,19a25.8,25.8,0,0,0,.1,35.8l32.1,31a1.9,1.9,0,0,0,2.8,0L82.6,54.7a25.7,25.7,0,0,0,0-35.7ZM79.7,51.9,49,81.6,18.3,51.9A8.6,8.6,0,0,1,17,50.5H28.1a2.2,2.2,0,0,0,1.7-.9l5-7.7,9.4,18A2.3,2.3,0,0,0,45.9,61H46a2.1,2.1,0,0,0,1.7-1L58.3,42.6l6.5,6.3a1.9,1.9,0,0,0,2.8,0,2.1,2.1,0,0,0,0-2.9l-8.3-8a2.2,2.2,0,0,0-1.7-.5,1.9,1.9,0,0,0-1.4.9L46.1,54.9,36.8,37a2.1,2.1,0,0,0-3.5-.1L27,46.5H14.5a21.7,21.7,0,0,1,3.8-24.7,20.3,20.3,0,0,1,14.6-6.2c4.2,0,9.3,2.8,14.7,8.1a1.9,1.9,0,0,0,2.8,0,23.7,23.7,0,0,1,16.5-7.2H67a18.1,18.1,0,0,1,12.7,5.3,21.6,21.6,0,0,1,6.1,15.1A21.3,21.3,0,0,1,79.7,51.9Z"></path></svg>