<svg width="71" height="70" viewBox="0 0 71 70" fill="none" xmlns="http://www.w3.org/2000/svg">
<path d="M61.1439 11.3552C57.929 8.12905 53.5651 6.31077 49.0106 6.29961H48.9328C43.7768 6.39525 38.8304 8.35725 35.0106 11.8218C30.5773 7.69961 26.3773 5.59961 22.4884 5.59961C19.952 5.61294 17.4434 6.12841 15.1073 7.11625C12.7711 8.1041 10.6537 9.54478 8.87727 11.3552C5.28518 15.1047 3.28636 20.1006 3.30086 25.2931C3.31536 30.4855 5.34207 35.4702 8.95505 39.1996L33.9217 63.3107C34.0602 63.4616 34.2284 63.5821 34.4159 63.6645C34.6033 63.7469 34.8058 63.7894 35.0106 63.7894C35.2154 63.7894 35.4179 63.7469 35.6053 63.6645C35.7928 63.5821 35.9611 63.4616 36.0995 63.3107L61.1439 39.1218C64.7414 35.3954 66.752 30.4181 66.752 25.2385C66.752 20.0589 64.7414 15.0816 61.1439 11.3552ZM58.8884 36.9441L35.0106 60.044L11.1328 36.9441C10.7564 36.6198 10.4173 36.2546 10.1217 35.8552H18.7551C19.0141 35.8462 19.2677 35.7786 19.4967 35.6573C19.7258 35.5361 19.9243 35.3644 20.0773 35.1552L23.9662 29.1663L31.2773 43.1663C31.4178 43.4003 31.61 43.5991 31.8392 43.7474C32.0684 43.8957 32.3284 43.9896 32.5995 44.0218H32.6773C32.9445 44.0104 33.2048 43.9334 33.4354 43.7978C33.6659 43.6622 33.8596 43.472 33.9995 43.244L42.2439 29.7107L47.2995 34.6107C47.4379 34.7616 47.6062 34.8821 47.7937 34.9645C47.9811 35.0469 48.1836 35.0894 48.3884 35.0894C48.5931 35.0894 48.7957 35.0469 48.9831 34.9645C49.1706 34.8821 49.3388 34.7616 49.4773 34.6107C49.7673 34.3069 49.9291 33.903 49.9291 33.4829C49.9291 33.0629 49.7673 32.659 49.4773 32.3552L43.0217 26.1329C42.8403 25.98 42.6291 25.8664 42.4015 25.7995C42.1739 25.7325 41.9348 25.7137 41.6995 25.744C41.4768 25.7705 41.263 25.8472 41.0743 25.9685C40.8857 26.0898 40.7271 26.2524 40.6106 26.4441L32.7551 39.2774L25.5217 25.3552C25.3793 25.1262 25.1823 24.936 24.9484 24.8016C24.7146 24.6673 24.4511 24.593 24.1815 24.5853C23.9119 24.5776 23.6446 24.6367 23.4034 24.7575C23.1623 24.8783 22.9548 25.0569 22.7995 25.2774L17.8995 32.7441H8.17727C6.62959 29.6278 6.08287 26.1093 6.61195 22.6703C7.14102 19.2313 8.72003 16.0399 11.1328 13.5329C12.605 12.0081 14.3692 10.7953 16.3201 9.96681C18.2711 9.13834 20.3688 8.71115 22.4884 8.71072C25.7551 8.71072 29.7217 10.8885 33.9217 15.0107C34.0602 15.1616 34.2284 15.2821 34.4159 15.3645C34.6033 15.4469 34.8058 15.4894 35.0106 15.4894C35.2154 15.4894 35.4179 15.4469 35.6053 15.3645C35.7928 15.2821 35.9611 15.1616 36.0995 15.0107C39.4742 11.5288 44.085 9.51679 48.9328 9.41072H49.0106C52.7175 9.43069 56.2669 10.912 58.8884 13.5329C61.9416 16.6788 63.6443 20.8935 63.6328 25.2774C63.6489 29.6392 61.9441 33.8314 58.8884 36.9441Z" fill="black"/>
</svg>
