<svg width="76" height="75" viewBox="0 0 76 75" fill="none" xmlns="http://www.w3.org/2000/svg">
<path fill-rule="evenodd" clip-rule="evenodd" d="M62.2025 13.6481C55.7537 7.2533 47.1554 3.76172 37.9998 3.76172C28.8441 3.76172 20.2458 7.2533 13.797 13.6481C7.30849 20.0036 3.76562 28.4775 3.76562 37.5007C3.76562 46.524 7.30849 54.998 13.797 61.3535C20.2458 67.709 28.8441 71.2398 37.9998 71.2398C47.1554 71.2398 55.7537 67.709 62.2025 61.3535C68.691 54.998 72.2339 46.524 72.2339 37.5007C72.2339 28.4775 68.691 20.0036 62.2025 13.6481ZM37.9998 69.1998C20.2458 69.1998 5.83558 54.9587 5.83558 37.5007C5.83558 20.0036 20.2458 5.80174 37.9998 5.80174C55.7537 5.80174 70.1639 20.0036 70.1639 37.5007C70.1639 54.9587 55.7537 69.1998 37.9998 69.1998Z" fill="black"/>
<path fill-rule="evenodd" clip-rule="evenodd" d="M25.3051 33.7326C25.1857 33.6934 25.1857 33.6934 25.1857 33.6934C26.2608 32.3206 26.2608 32.3206 26.2608 32.3206C26.3007 32.2422 26.3405 32.1637 26.3804 32.0461C26.7388 31.2225 29.6857 23.5743 28.7697 19.8483C28.7697 19.8483 28.7697 19.8483 28.7697 19.8091C28.8494 19.4561 28.7697 19.0639 28.4512 18.7894C28.2123 18.5932 27.8937 18.4756 27.6149 18.554C27.575 18.5148 27.4954 18.5148 27.4556 18.4756C26.4201 18.2402 24.7078 18.5148 19.8891 22.8291C17.3404 25.0647 15.15 27.3788 15.0703 27.4572C14.8713 27.6533 14.7518 27.9279 14.7916 28.2024C14.8315 30.8302 14.8315 30.8302 14.8315 30.8302C14.4332 31.0263 14.4332 31.0263 14.4332 31.0263C14.2739 31.1048 14.1545 31.1832 14.035 31.3401C12.7606 32.9482 12.2031 36.5565 12.1234 36.9487C12.0836 37.2625 12.1633 37.537 12.3226 37.7724C12.7208 38.2038 12.7208 38.2038 12.7208 38.2038C12.5217 38.3607 12.5217 38.3607 12.5217 38.3607C12.2031 38.596 12.0836 38.949 12.1234 39.3412C12.5217 42.0082 14.3137 43.2241 15.4288 43.734C14.9908 46.7932 15.0306 48.715 15.0306 48.8328C15.0306 49.3818 15.4686 49.8133 16.0659 49.8133C16.6235 49.8133 17.1014 49.3426 17.1014 48.7935C17.1014 48.7543 17.0615 47.0286 17.4598 44.2831C17.5395 44.2831 17.6589 44.2831 17.7784 44.2831C18.4952 44.2831 19.1723 44.1262 19.8891 43.7732C23.6723 41.8906 25.7431 35.223 25.8228 34.9485C25.9821 34.4778 25.7431 33.968 25.3051 33.7326ZM14.3137 39.6158C14.8315 39.2236 14.8315 39.2236 14.8315 39.2236C15.0306 39.0667 15.1899 38.7922 15.2296 38.5176C15.2695 38.243 15.1899 37.9685 14.9908 37.7724C14.234 36.8311 14.234 36.8311 14.234 36.8311C14.473 35.5368 14.9509 33.6541 15.5483 32.7521C16.3448 32.3991 16.3448 32.3991 16.3448 32.3991C16.7032 32.2422 16.9421 31.85 16.9421 31.4578C16.8625 28.5554 16.8625 28.5554 16.8625 28.5554C17.5395 27.8886 19.2519 26.1629 21.1634 24.4372C22.7166 23.0644 23.8715 22.1624 24.7475 21.5741C19.9289 27.8102 17.5395 34.3209 16.3846 38.9098C16.1456 39.8511 15.9465 40.7532 15.7872 41.616C15.2296 41.2238 14.5925 40.6355 14.3137 39.6158ZM22.5573 34.2817C22.6369 34.5563 22.836 34.8308 23.1148 34.9485C23.5529 35.1838 23.5529 35.1838 23.5529 35.1838C22.7962 37.2233 21.0837 40.8708 18.9333 41.969C18.5748 42.1651 18.1767 42.2436 17.7784 42.2436C17.9377 41.3415 18.1368 40.361 18.4156 39.3412C19.5704 34.7916 21.9599 28.3201 26.8583 22.2016C26.6591 25.104 25.2255 29.3399 24.5086 31.1832C22.7563 33.4188 22.7563 33.4188 22.7563 33.4188C22.5573 33.6541 22.5175 33.968 22.5573 34.2817Z" fill="black"/>
<path fill-rule="evenodd" clip-rule="evenodd" d="M46.7531 46.9062C45.6384 46.9062 44.4839 47.1811 43.4886 47.7307C42.9312 48.0447 42.4138 48.4373 41.9758 48.8691C38.6316 52.1274 38.6316 52.1274 38.6316 52.1274C35.3273 48.8691 35.3273 48.8691 35.3273 48.8691C34.8894 48.4373 34.3718 48.0447 33.8144 47.7307C32.8191 47.1811 31.6646 46.9062 30.5101 46.9062C26.8076 46.9062 23.7422 49.8898 23.7422 53.5799C23.7422 57.2701 26.8076 60.2536 30.5101 60.2536C31.6646 60.2536 32.8191 59.9788 33.8144 59.4292C34.3718 59.1151 34.8894 58.7618 35.3273 58.33C38.6316 55.0324 38.6316 55.0324 38.6316 55.0324C41.9758 58.33 41.9758 58.33 41.9758 58.33C42.4138 58.7618 42.9312 59.1151 43.4886 59.4292C44.4839 59.9788 45.6384 60.2536 46.7531 60.2536C50.4954 60.2536 53.5609 57.2701 53.5609 53.5799C53.5609 49.8898 50.4954 46.9062 46.7531 46.9062ZM33.8543 56.8775C33.5358 57.1916 33.1775 57.4271 32.8191 57.6626C32.1026 58.0552 31.3461 58.2122 30.5101 58.2122C27.9224 58.2122 25.8123 56.1316 25.8123 53.5799C25.8123 51.0282 27.9224 48.9476 30.5101 48.9476C31.3461 48.9476 32.1026 49.1439 32.8191 49.5365C33.1775 49.7328 33.5358 50.0076 33.8543 50.3216C37.1984 53.5799 37.1984 53.5799 37.1984 53.5799L33.8543 56.8775ZM46.7531 58.2122C45.9569 58.2122 45.2005 58.0159 44.4839 57.6626C44.1256 57.4271 43.7673 57.1916 43.4488 56.8775C40.1046 53.5799 40.1046 53.5799 40.1046 53.5799C43.4488 50.3216 43.4488 50.3216 43.4488 50.3216C43.7673 50.0076 44.1256 49.7328 44.4839 49.5365C45.2005 49.1439 45.9569 48.9476 46.7531 48.9476C49.3808 48.9476 51.4907 51.0282 51.4907 53.5799C51.4907 56.1316 49.3808 58.2122 46.7531 58.2122Z" fill="black"/>
<path fill-rule="evenodd" clip-rule="evenodd" d="M59.1023 22.7122C58.943 22.7122 44.6936 22.0465 33.9865 22.908C33.6681 22.9471 33.3895 23.1037 33.1904 23.3778C33.0312 23.6128 32.9914 23.926 33.0711 24.2393C33.8671 26.8238 33.8671 26.8238 33.8671 26.8238C33.9865 27.2545 34.3845 27.5677 34.8622 27.5677C57.948 27.881 57.948 27.881 57.948 27.881C58.3858 27.881 58.7838 27.6069 58.943 27.2153C60.0177 24.0436 60.0177 24.0436 60.0177 24.0436C60.1372 23.7303 60.0973 23.417 59.8983 23.1429C59.6993 22.8688 59.4207 22.7122 59.1023 22.7122ZM57.2315 25.8448C35.6185 25.5315 35.6185 25.5315 35.6185 25.5315C35.4194 24.8659 35.4194 24.8659 35.4194 24.8659C43.8577 24.2785 53.9677 24.5526 57.6296 24.6701L57.2315 25.8448Z" fill="black"/>
<path fill-rule="evenodd" clip-rule="evenodd" d="M42.3791 21.499C49.8543 21.4597 49.8543 21.4597 49.8543 21.4597C50.1724 21.4597 50.4507 21.3421 50.6495 21.1067C50.8484 20.8713 50.9278 20.5575 50.8484 20.2437C49.8145 14.7125 49.8145 14.7125 49.8145 14.7125C49.7351 14.2417 49.2976 13.8887 48.7808 13.8887C43.3334 13.8887 43.3334 13.8887 43.3334 13.8887C42.8563 13.8887 42.4188 14.2025 42.2996 14.634C42.1803 15.0655 41.1863 18.9492 41.3453 20.5575C41.3851 21.1067 41.8224 21.499 42.3791 21.499ZM44.1286 15.9285C47.9458 15.9285 47.9458 15.9285 47.9458 15.9285C48.582 19.4199 48.582 19.4199 48.582 19.4199C43.4527 19.4591 43.4527 19.4591 43.4527 19.4591C43.5719 18.4392 43.8503 17.0269 44.1286 15.9285Z" fill="black"/>
<path fill-rule="evenodd" clip-rule="evenodd" d="M54.6296 34.3603C54.4306 34.1643 54.1521 34.0859 53.8735 34.0859C48.3431 34.3603 48.3431 34.3603 48.3431 34.3603C47.8259 34.3995 47.4281 34.7914 47.3883 35.301C46.871 42.0818 46.871 42.0818 46.871 42.0818C46.8312 42.3562 46.9505 42.6697 47.1097 42.8657C47.3086 43.0617 47.5872 43.1792 47.8657 43.1792C54.1918 43.1792 54.1918 43.1792 54.1918 43.1792C54.4704 43.1792 54.7489 43.0617 54.9479 42.8657C55.1468 42.6697 55.2263 42.3953 55.2263 42.121C54.9877 35.0659 54.9877 35.0659 54.9877 35.0659C54.9479 34.7914 54.8285 34.5563 54.6296 34.3603ZM49.0195 41.1411C49.3776 36.3593 49.3776 36.3593 49.3776 36.3593C52.9585 36.1633 52.9585 36.1633 52.9585 36.1633C53.1176 41.1411 53.1176 41.1411 53.1176 41.1411H49.0195Z" fill="black"/>
<path fill-rule="evenodd" clip-rule="evenodd" d="M39.4289 43.1796C44.8399 43.1796 44.8399 43.1796 44.8399 43.1796C45.3571 43.1796 45.7948 42.8268 45.8744 42.3172C46.7894 35.6136 46.7894 35.6136 46.7894 35.6136C46.8292 35.3 46.7497 35.0256 46.5508 34.7904C46.312 34.5551 46.0335 34.4375 45.7152 34.4375C39.4289 34.7512 39.4289 34.7512 39.4289 34.7512C38.8719 34.7904 38.4343 35.2216 38.4343 35.7704C38.3945 42.1604 38.3945 42.1604 38.3945 42.1604C38.3945 42.4348 38.5139 42.7092 38.673 42.9052C38.8719 43.062 39.1505 43.1796 39.4289 43.1796ZM40.5032 36.7504C44.5614 36.5544 44.5614 36.5544 44.5614 36.5544C43.9249 41.1411 43.9249 41.1411 43.9249 41.1411C40.4634 41.1411 40.4634 41.1411 40.4634 41.1411L40.5032 36.7504Z" fill="black"/>
<path fill-rule="evenodd" clip-rule="evenodd" d="M55.7552 28.7997C37.1158 28.4863 37.1158 28.4863 37.1158 28.4863C36.7972 28.4863 36.5184 28.6038 36.3192 28.878C36.1202 29.113 36.0404 29.4263 36.0803 29.7005C36.837 33.1863 36.837 33.1863 36.837 33.1863C36.9167 33.6563 37.3548 33.9696 37.8327 33.9696C37.8725 33.9696 37.8725 33.9696 37.8725 33.9696C55.7951 33.108 55.7951 33.108 55.7951 33.108C56.3526 33.108 56.7908 32.638 56.7908 32.0897C56.7908 29.818 56.7908 29.818 56.7908 29.818C56.7908 29.2696 56.3128 28.7997 55.7552 28.7997ZM54.7197 31.1497C38.6691 31.8938 38.6691 31.8938 38.6691 31.8938C38.3903 30.5622 38.3903 30.5622 38.3903 30.5622C54.7197 30.7972 54.7197 30.7972 54.7197 30.7972V31.1497Z" fill="black"/>
</svg>
