<svg height='100px' width='100px'  fill="#000000" xmlns="http://www.w3.org/2000/svg" xmlns:xlink="http://www.w3.org/1999/xlink" version="1.1" x="0px" y="0px" viewBox="0 0 64 64" style="enable-background:new 0 0 64 64;" xml:space="preserve"><g><polygon points="35,63 37,63 37,37 63,37 63,35 35,35  "></polygon><polygon points="1,37 27,37 27,63 29,63 29,35 1,35  "></polygon><path d="M27,27h-2V15h-4.695l0.8-8H18c0-3.309-2.691-6-6-6S6,3.691,6,7H2.895l2,20H1v2h28V1h-2V27z M23,27h-8V17h8V27z M12,3   c2.206,0,4,1.794,4,4s-1.794,4-4,4S8,9.206,8,7S9.794,3,12,3z M5.105,9H6.35c0.826,2.327,3.043,4,5.65,4s4.824-1.673,5.65-4h1.245   l-0.6,6H13v12H6.905L5.105,9z"></path><path d="M61,27V15h-8V3H39v24h-2V1h-2v28h28v-2H61z M59,27H49V17h10V27z M41,5h10v10h-4v12h-6V5z"></path><path d="M12.657,39L3,46.511V49h2v10h18V49h2v-2.489L15.343,39H12.657z M17,57h-6v-4h6V57z M21,57h-2v-6H9v6H7v-8h14V57z M5.629,47   l7.714-6h1.313l7.714,6H5.629z"></path><polygon points="11,10 13,10 13,8 15,8 15,6 13,6 13,4 11,4 11,6 9,6 9,8 11,8  "></polygon><rect x="17" y="19" width="4" height="2"></rect><rect x="17" y="23" width="4" height="2"></rect><rect x="9" y="15" width="2" height="2"></rect><rect x="9" y="19" width="2" height="2"></rect><rect x="9" y="23" width="2" height="2"></rect><path d="M56,57h6.5l-5.192-12.462C56.918,43.604,56.012,43,55,43s-1.918,0.604-2.308,1.538L51.333,47.8l-3.026-7.262   C47.918,39.604,47.012,39,46,39s-1.918,0.604-2.308,1.538L38.5,53H45v8h-6v2h24v-2h-7V57z M54.538,45.308   c0.156-0.373,0.768-0.373,0.924,0L59.5,55h-9l0.833-2H53.5l-1.083-2.599L54.538,45.308z M45.538,41.308   c0.156-0.373,0.768-0.373,0.924,0L50.5,51h-9L45.538,41.308z M47,53h2.167L47.5,57H54v4h-7V53z"></path><rect x="51" y="19" width="2" height="2"></rect><rect x="51" y="23" width="2" height="2"></rect><rect x="55" y="19" width="2" height="2"></rect><rect x="55" y="23" width="2" height="2"></rect><rect x="47" y="7" width="2" height="2"></rect><rect x="43" y="7" width="2" height="2"></rect><rect x="43" y="11" width="2" height="2"></rect><rect x="47" y="11" width="2" height="2"></rect><rect x="43" y="23" width="2" height="2"></rect><rect x="43" y="19" width="2" height="2"></rect><rect x="43" y="15" width="2" height="2"></rect></g></svg>