<svg width="71" height="70" viewBox="0 0 71 70" fill="none" xmlns="http://www.w3.org/2000/svg">
<g clip-path="url(#clip0)">
<path d="M39.3867 69.9998H41.6089V41.1109H70.4978V38.8887H39.3867V69.9998Z" fill="black"/>
<path d="M1.60938 41.1109H30.4983V69.9998H32.7205V38.8887H1.60938V41.1109Z" fill="black"/>
<path d="M30.4983 30.0002H28.276V16.6669H23.0594L23.9483 7.77799H20.4983C20.4983 4.10133 17.5083 1.11133 13.8316 1.11133C10.1549 1.11133 7.16493 4.10133 7.16493 7.77799H3.71493L5.93715 30.0002H1.60938V32.2224H32.7205V1.11133H30.4983V30.0002ZM26.0538 30.0002H17.1649V18.8891H26.0538V30.0002ZM13.8316 3.33355C16.2827 3.33355 18.276 5.32688 18.276 7.77799C18.276 10.2291 16.2827 12.2224 13.8316 12.2224C11.3805 12.2224 9.38715 10.2291 9.38715 7.77799C9.38715 5.32688 11.3805 3.33355 13.8316 3.33355ZM6.17049 10.0002H7.55382C8.4716 12.5858 10.9349 14.4447 13.8316 14.4447C16.7283 14.4447 19.1916 12.5858 20.1094 10.0002H21.4927L20.826 16.6669H14.9427V30.0002H8.17049L6.17049 10.0002Z" fill="black"/>
<path d="M68.2756 30.0002V16.6669H59.3867V3.33355H43.8312V30.0002H41.6089V1.11133H39.3867V32.2224H70.4978V30.0002H68.2756ZM66.0534 30.0002H54.9423V18.8891H66.0534V30.0002ZM46.0534 5.55577H57.1645V16.6669H52.72V30.0002H46.0534V5.55577Z" fill="black"/>
<path d="M14.562 43.334L3.83203 51.6795V54.4451H6.05425V65.5562H26.0543V54.4451H28.2765V51.6795L17.5465 43.334H14.562ZM19.3876 63.334H12.7209V58.8895H19.3876V63.334ZM23.832 63.334H21.6098V56.6673H10.4987V63.334H8.27648V54.4451H23.832V63.334ZM6.75314 52.2229L15.3243 45.5562H16.7831L25.3543 52.2229H6.75314Z" fill="black"/>
<path d="M12.7222 11.112H14.9444V8.88976H17.1667V6.66753H14.9444V4.44531H12.7222V6.66753H10.5V8.88976H12.7222V11.112Z" fill="black"/>
<path d="M23.8312 21.1113H19.3867V23.3336H23.8312V21.1113Z" fill="black"/>
<path d="M23.8312 25.5566H19.3867V27.7789H23.8312V25.5566Z" fill="black"/>
<path d="M12.7222 16.666H10.5V18.8882H12.7222V16.666Z" fill="black"/>
<path d="M12.7222 21.1113H10.5V23.3336H12.7222V21.1113Z" fill="black"/>
<path d="M12.7222 25.5566H10.5V27.7789H12.7222V25.5566Z" fill="black"/>
<path d="M62.7218 63.334H69.944L64.1751 49.4873C63.7418 48.4495 62.7351 47.7784 61.6107 47.7784C60.4862 47.7784 59.4796 48.4495 59.0462 49.4873L57.5362 53.1118L54.174 45.0429C53.7418 44.0051 52.7351 43.334 51.6107 43.334C50.4862 43.334 49.4796 44.0051 49.0462 45.0429L43.2773 58.8895H50.4996V67.7784H43.8329V70.0007H70.4996V67.7784H62.7218V63.334ZM61.0973 50.3429C61.2707 49.9284 61.9507 49.9284 62.124 50.3429L66.6107 61.1118H56.6107L57.5362 58.8895H59.944L58.7407 56.0018L61.0973 50.3429ZM51.0973 45.8984C51.2707 45.484 51.9507 45.484 52.124 45.8984L56.6107 56.6673H46.6107L51.0973 45.8984ZM52.7218 58.8895H55.1296L53.2773 63.334H60.4996V67.7784H52.7218V58.8895Z" fill="black"/>
<path d="M59.3863 21.1113H57.1641V23.3336H59.3863V21.1113Z" fill="black"/>
<path d="M59.3863 25.5566H57.1641V27.7789H59.3863V25.5566Z" fill="black"/>
<path d="M63.8316 21.1113H61.6094V23.3336H63.8316V21.1113Z" fill="black"/>
<path d="M63.8316 25.5566H61.6094V27.7789H63.8316V25.5566Z" fill="black"/>
<path d="M54.941 7.77734H52.7188V9.99957H54.941V7.77734Z" fill="black"/>
<path d="M50.4996 7.77734H48.2773V9.99957H50.4996V7.77734Z" fill="black"/>
<path d="M50.4996 12.2227H48.2773V14.4449H50.4996V12.2227Z" fill="black"/>
<path d="M54.941 12.2227H52.7188V14.4449H54.941V12.2227Z" fill="black"/>
<path d="M50.4996 25.5566H48.2773V27.7789H50.4996V25.5566Z" fill="black"/>
<path d="M50.4996 21.1113H48.2773V23.3336H50.4996V21.1113Z" fill="black"/>
<path d="M50.4996 16.666H48.2773V18.8882H50.4996V16.666Z" fill="black"/>
</g>
<defs>
<clipPath id="clip0">
<rect width="70" height="70" fill="white" transform="translate(0.5)"/>
</clipPath>
</defs>
</svg>
