<svg width="71" height="70" viewBox="0 0 71 70" fill="none" xmlns="http://www.w3.org/2000/svg">
<g clip-path="url(#clip0)">
<path d="M38.5605 26.8369H53.866C57.2423 26.8369 59.9881 24.0911 59.9881 20.7148C59.9881 17.5394 57.5576 14.9201 54.4598 14.6212C53.7629 12.9927 52.2681 11.8397 50.5181 11.5846C49.6488 8.55306 46.8856 6.42969 43.6623 6.42969C39.9696 6.42969 36.9228 9.24589 36.5565 12.8437C33.5342 13.7181 31.418 16.4782 31.418 19.6944C31.418 23.633 34.6219 26.8369 38.5605 26.8369ZM37.7126 14.6701C38.2044 14.5875 38.5605 14.0712 38.5605 13.5722C38.5605 10.7591 40.8492 8.47041 43.6623 8.47041C46.1632 8.47041 48.2764 10.2612 48.6876 12.7284C48.7703 13.2212 49.1957 13.5814 49.6937 13.5814C49.7284 13.5824 49.7784 13.5784 49.8284 13.5732C51.2028 13.5926 52.3946 14.5354 52.7374 15.8793C52.8527 16.3323 53.2609 16.6476 53.7262 16.6476C53.7619 16.6496 53.8394 16.6415 53.9057 16.6333C56.1383 16.6547 57.9474 18.4781 57.9474 20.7148C57.9474 22.9657 56.1169 24.7962 53.866 24.7962H38.5605C35.7474 24.7962 33.4587 22.5075 33.4587 19.6944C33.4587 17.1955 35.2474 15.0824 37.7126 14.6701Z" fill="black"/>
<path d="M15.0932 29.8967H16.1135C16.1135 28.2091 17.4869 26.8356 19.1746 26.8356V24.7949C17.0625 24.7949 15.2472 26.0857 14.4728 27.9193C12.5178 28.2203 11.0117 29.8998 11.0117 31.9375H13.0524C13.0524 30.812 13.9677 29.8967 15.0932 29.8967Z" fill="black"/>
<path d="M44.6822 19.6936H46.7229C46.7229 16.8805 44.4342 14.5918 41.6211 14.5918V16.6325C43.3088 16.6325 44.6822 18.0059 44.6822 19.6936Z" fill="black"/>
<path d="M25.2946 8.4707H23.2539V10.5114H25.2946V8.4707Z" fill="black"/>
<path d="M29.3767 8.4707H27.3359V10.5114H29.3767V8.4707Z" fill="black"/>
<path d="M17.1345 2.34766H15.0938V4.38838H17.1345V2.34766Z" fill="black"/>
<path d="M21.2126 2.34766H19.1719V4.38838H21.2126V2.34766Z" fill="black"/>
<path d="M25.2946 2.34766H23.2539V4.38838H25.2946V2.34766Z" fill="black"/>
<path d="M6.92744 12.5508H4.88672V14.5915H6.92744V12.5508Z" fill="black"/>
<path d="M56.927 10.5099C57.1882 10.5099 57.4494 10.4099 57.6484 10.2109L60.7095 7.14982L59.2667 5.70703L56.927 8.04672L54.5873 5.70703L53.1445 7.14982L56.2056 10.2109C56.4046 10.4099 56.6658 10.5099 56.927 10.5099Z" fill="black"/>
<path d="M63.3462 17.3535C63.5452 17.5525 63.8064 17.6525 64.0676 17.6525C64.3289 17.6525 64.5901 17.5525 64.789 17.3535L67.8501 14.2924L66.4073 12.8496L64.0676 15.1893L61.728 12.8496L60.2852 14.2924L63.3462 17.3535Z" fill="black"/>
<path d="M4.88838 6.42969H2.84766V8.47041H4.88838V6.42969Z" fill="black"/>
<path d="M8.97041 6.42969H6.92969V8.47041H8.97041V6.42969Z" fill="black"/>
<path d="M13.0524 6.42969H11.0117V8.47041H13.0524V6.42969Z" fill="black"/>
<path d="M68.1509 39.0805V37.0398C65.852 37.0398 63.9307 36.7378 62.1022 36.0888C60.5206 35.5276 58.886 35.2501 57.3371 35.0399C56.6636 33.3532 55.4586 31.938 53.8658 31.938C52.2944 31.938 51.1016 33.3144 50.4221 34.9705C48.113 34.7736 45.6488 34.9072 42.701 35.4184C40.2144 35.848 37.74 36.7429 35.3483 38.0765C34.2963 38.6632 33.283 39.3203 32.3025 39.957C31.0209 40.7896 29.8107 41.5733 28.5077 42.2232C26.7527 43.0987 25.0885 43.5446 23.562 43.5609C22.0958 43.5915 20.6622 43.0201 19.1745 42.4385V39.0683C19.5581 38.7785 19.9061 38.4428 20.1948 38.0581C21.1254 39.2968 22.608 40.1009 24.2753 40.1009C27.0884 40.1009 29.3771 37.8122 29.3771 34.9991C29.3771 33.5583 28.7812 32.2257 27.7425 31.2727C28.1435 30.5339 28.3567 29.7105 28.3567 28.8769C28.3567 26.4127 26.316 24.3516 24.2753 23.8771C24.2753 23.8434 24.2753 23.8087 24.2753 23.7751C24.2753 21.715 23.0355 19.8885 21.1795 19.0977C20.8836 16.5642 18.7245 14.5918 16.1124 14.5918C13.5002 14.5918 11.3412 16.5642 11.0453 19.0977C9.18921 19.8885 7.94947 21.715 7.94947 23.7751C7.94947 23.8087 7.94947 23.8434 7.94947 23.8771C5.90874 24.3505 3.867 26.4127 3.867 28.8769C3.867 29.7105 4.08127 30.5339 4.48126 31.2727C3.44457 32.2257 2.84766 33.5583 2.84766 34.9991C2.84766 37.8122 5.13633 40.1009 7.94947 40.1009C9.61674 40.1009 11.0993 39.2968 12.0309 38.0571C12.3197 38.4418 12.6666 38.7785 13.0513 39.0672V40.6937C11.434 40.3876 9.84428 40.6661 8.68209 41.0141C7.82907 41.2692 7.02502 41.663 6.24648 42.0436C5.07103 42.6191 3.96087 43.162 2.84766 43.162V45.2027C4.4333 45.2027 5.81079 44.5282 7.14338 43.8772C7.88009 43.517 8.57597 43.1762 9.26676 42.9691C10.2871 42.664 11.7105 42.4171 13.0513 42.7854V48.6291C12.9748 48.6393 12.9003 48.6423 12.8227 48.6525C11.4983 48.8321 10.1698 49.125 8.88514 49.4086C6.80054 49.8698 4.83124 50.3045 2.84766 50.3045V52.3452C5.05368 52.3452 7.22603 51.8657 9.32594 51.4014C10.6269 51.1136 11.8554 50.8422 13.0962 50.6749C17.2878 50.1055 20.9315 50.6382 24.2365 52.3003C26.2538 53.3146 28.2037 54.7012 30.0883 56.042C32.4565 57.7266 34.8871 59.4531 37.6104 60.5949C32.9351 62.2958 27.8741 63.0376 22.9508 63.7488L22.2866 63.8447C16.444 64.6916 10.6361 65.464 3.86802 65.6099H2.84766V67.6507H3.88945C10.7953 67.5017 16.6715 66.7201 22.5805 65.864L23.2437 65.7681C25.214 65.4834 27.2047 65.1895 29.1914 64.8385C31.2229 66.5099 34.0442 67.4548 36.989 67.4548C37.6022 67.4548 38.2216 67.4139 38.8379 67.3313C41.4276 66.9823 43.8673 65.8752 46.2274 64.8049C49.6139 63.2692 52.8128 61.8183 56.2769 62.5417C58.0625 62.9152 59.7155 63.9396 61.3144 64.9304L61.6787 65.1559C62.2154 65.4875 62.6409 65.7232 63.0593 65.9201C64.549 66.6201 66.0357 66.664 67.1305 66.6313H68.1509V64.5906H67.0968C65.7428 64.5906 64.7949 64.4794 63.9266 64.0723C63.5817 63.91 63.2195 63.709 62.7511 63.4202L62.3899 63.1968C60.641 62.1132 58.8329 60.9908 56.6942 60.5438C52.572 59.6827 48.9191 61.3428 45.3835 62.9468C43.0561 64.0029 40.8572 65.0008 38.5655 65.3089C36.2911 65.6171 33.9534 65.214 32.078 64.2794C35.0942 63.6274 38.0665 62.7621 40.898 61.4642C42.0531 60.9346 43.1489 60.3081 44.2091 59.702C45.3284 59.0623 46.3855 58.4582 47.5161 57.9511C50.1854 56.7552 52.6301 55.9951 54.9902 55.6287C57.2697 55.2737 59.4431 55.3145 61.4522 55.7512C62.2185 55.9175 62.8276 56.2073 63.4715 56.5154C64.5102 57.0103 65.5816 57.5236 67.1305 57.447H68.1509V55.4063H67.0826C66.001 55.4063 65.2724 55.1124 64.3541 54.6737C63.6654 54.3451 62.8858 53.9737 61.8879 53.7574C59.6339 53.2687 57.2085 53.2197 54.679 53.6125C52.1373 54.0084 49.5221 54.8186 46.6855 56.0889C45.4631 56.6369 44.3121 57.294 43.1989 57.9307C42.2673 58.4633 41.3755 58.9592 40.4531 59.4061C37.8339 58.7113 35.5156 57.3246 33.1922 55.7247C33.2116 55.7247 33.23 55.7267 33.2494 55.7267C38.8032 55.7267 44.9274 53.9921 49.4925 50.9851L49.6466 50.883C55.4076 47.0873 61.3655 43.162 68.1509 43.162V41.1212C63.3644 41.1212 58.9564 42.9171 54.8862 45.2057V42.0426C56.8187 41.6794 57.9473 40.2529 57.9473 38.0601C57.9473 37.7775 57.9248 37.4806 57.8881 37.1796C59.0707 37.3622 60.2788 37.6071 61.4206 38.0122C63.4735 38.7407 65.6122 39.0805 68.1509 39.0805ZM12.0309 33.9787C11.4677 33.9787 11.0106 34.4358 11.0106 34.9991C11.0106 36.6867 9.63715 38.0601 7.94947 38.0601C6.26179 38.0601 4.88838 36.6867 4.88838 34.9991C4.88838 33.9216 5.4506 32.942 6.39342 32.3808C6.65055 32.2277 6.82809 31.9676 6.87707 31.6717C6.92605 31.3757 6.84238 31.0727 6.64851 30.8441C6.31077 30.4472 5.90874 29.7819 5.90874 28.8769C5.90874 27.1892 7.28215 25.8158 8.90657 25.8137C8.94126 25.8188 9.0433 25.8291 9.07799 25.8301C9.40043 25.8433 9.71164 25.7015 9.91367 25.4495C10.1167 25.1974 10.1871 24.8638 10.1045 24.5505C10.0269 24.2526 9.9902 24.0057 9.9902 23.7751C9.9902 22.3833 10.9391 21.1691 12.2972 20.8221C12.7615 20.7038 13.0799 20.2793 13.0645 19.8007C13.0625 19.7405 13.0605 19.6865 13.0513 19.6936C13.0513 18.0059 14.4247 16.6325 16.1124 16.6325C17.8001 16.6325 19.1735 18.0059 19.1765 19.6232C19.1714 19.661 19.1602 19.764 19.1592 19.8007C19.1439 20.2793 19.4632 20.7038 19.9265 20.8221C21.2856 21.1691 22.2346 22.3833 22.2346 23.7751C22.2346 24.0057 22.1978 24.2526 22.1192 24.5495C22.0366 24.8628 22.107 25.1964 22.3101 25.4485C22.5121 25.7005 22.8202 25.8423 23.1457 25.8291C23.2049 25.828 23.261 25.8209 23.2549 25.8158C24.9426 25.8158 26.316 27.1892 26.316 28.8769C26.316 29.7819 25.914 30.4472 25.5762 30.8441C25.3824 31.0737 25.2987 31.3757 25.3477 31.6717C25.3967 31.9676 25.5742 32.2267 25.8313 32.3808C26.7741 32.942 27.3364 33.9216 27.3364 34.9991C27.3364 36.6867 25.963 38.0601 24.2753 38.0601C22.5876 38.0601 21.2142 36.6867 21.2142 34.9991C21.2142 34.4358 20.7571 33.9787 20.1938 33.9787C19.6306 33.9787 19.1735 34.4358 19.1735 34.9991C19.1735 36.6867 17.8001 38.0601 16.1124 38.0601C14.4247 38.0601 13.0513 36.6867 13.0513 34.9991C13.0513 34.4358 12.5942 33.9787 12.0309 33.9787ZM15.092 48.4587V39.9907C15.4226 40.058 15.7624 40.1009 16.1124 40.1009C16.4624 40.1009 16.8021 40.058 17.1327 39.9907V48.4556C16.4634 48.427 15.7828 48.427 15.092 48.4587ZM44.6825 47.2434C43.2714 47.2434 42.6418 46.6138 42.6418 45.2027C42.6418 43.2324 43.8397 41.1212 44.6825 41.1212C45.5254 41.1212 46.7233 43.2324 46.7233 45.2027C46.7233 46.6138 46.0937 47.2434 44.6825 47.2434ZM48.5232 49.179L48.3691 49.2811C47.5334 49.8321 46.6365 50.331 45.7039 50.7861V49.1841C47.6365 48.8209 48.765 47.3944 48.765 45.2017C48.765 42.6457 47.212 39.0795 44.6836 39.0795C42.1551 39.0795 40.6021 42.6457 40.6021 45.2017C40.6021 47.3944 41.7306 48.8199 43.6632 49.1841V51.681C39.2358 53.4115 34.2065 54.0951 29.9414 53.436C28.4077 52.3626 26.8252 51.3136 25.1548 50.4749C23.2927 49.5392 21.2928 48.927 19.1745 48.6301V44.419C20.5265 44.8864 21.9325 45.2027 23.4967 45.2027C23.5253 45.2027 23.5539 45.2027 23.5824 45.2027C25.4201 45.2027 27.3833 44.8639 29.4169 43.8497C30.8229 43.1477 32.1392 42.4977 33.4126 41.6702C34.3646 41.0518 35.3483 40.4131 36.34 39.8601C38.5308 38.6387 40.7878 37.8204 43.0479 37.4296C45.658 36.9786 47.8436 36.8428 49.8701 36.9786C49.815 37.35 49.7843 37.7142 49.7843 38.0601C49.7843 40.2529 50.9129 41.6783 52.8454 42.0426V46.4026C51.3577 47.3118 49.918 48.2597 48.5232 49.179ZM53.8658 40.1009C52.4546 40.1009 51.8251 39.4713 51.8251 38.0601C51.8251 36.0898 53.023 33.9787 53.8658 33.9787C54.7086 33.9787 55.9065 36.0898 55.9065 38.0601C55.9065 39.4713 55.277 40.1009 53.8658 40.1009Z" fill="black"/>
<path d="M6.92744 60.5078H4.88672V62.5485H6.92744V60.5078Z" fill="black"/>
<path d="M11.0095 60.5078H8.96875V62.5485H11.0095V60.5078Z" fill="black"/>
<path d="M15.0915 60.5078H13.0508V62.5485H15.0915V60.5078Z" fill="black"/>
</g>
<defs>
<clipPath id="clip0">
<rect width="70" height="70" fill="white" transform="translate(0.5)"/>
</clipPath>
</defs>
</svg>
