<svg height='100px' width='100px'  fill="#000000" xmlns="http://www.w3.org/2000/svg" xmlns:xlink="http://www.w3.org/1999/xlink" version="1.1" x="0px" y="0px" viewBox="0 0 64 64" style="enable-background:new 0 0 64 64;" xml:space="preserve"><path d="M35,24h15c3.309,0,6-2.691,6-6c0-3.112-2.382-5.679-5.418-5.972c-0.683-1.596-2.148-2.726-3.863-2.976  C45.867,6.081,43.159,4,40,4c-3.619,0-6.605,2.76-6.964,6.286C30.074,11.143,28,13.848,28,17C28,20.86,31.14,24,35,24z   M34.169,12.076C34.651,11.995,35,11.489,35,11c0-2.757,2.243-5,5-5c2.451,0,4.522,1.755,4.925,4.173  c0.081,0.483,0.498,0.836,0.986,0.836c0.034,0.001,0.083-0.003,0.132-0.008c1.347,0.019,2.515,0.943,2.851,2.26  c0.113,0.444,0.513,0.753,0.969,0.753c0.035,0.002,0.111-0.006,0.176-0.014C52.227,14.021,54,15.808,54,18c0,2.206-1.794,4-4,4H35  c-2.757,0-5-2.243-5-5C30,14.551,31.753,12.48,34.169,12.076z"></path><path d="M12,27h1c0-1.654,1.346-3,3-3v-2c-2.07,0-3.849,1.265-4.608,3.062C9.476,25.357,8,27.003,8,29h2C10,27.897,10.897,27,12,27z  "></path><path d="M41,17h2c0-2.757-2.243-5-5-5v2C39.654,14,41,15.346,41,17z"></path><rect x="20" y="6" width="2" height="2"></rect><rect x="24" y="6" width="2" height="2"></rect><rect x="12" width="2" height="2"></rect><rect x="16" width="2" height="2"></rect><rect x="20" width="2" height="2"></rect><rect x="2" y="10" width="2" height="2"></rect><path d="M53,8c0.256,0,0.512-0.098,0.707-0.293l3-3l-1.414-1.414L53,5.586l-2.293-2.293l-1.414,1.414l3,3  C52.488,7.902,52.744,8,53,8z"></path><path d="M59.293,14.707C59.488,14.902,59.744,15,60,15s0.512-0.098,0.707-0.293l3-3l-1.414-1.414L60,12.586l-2.293-2.293  l-1.414,1.414L59.293,14.707z"></path><rect y="4" width="2" height="2"></rect><rect x="4" y="4" width="2" height="2"></rect><rect x="8" y="4" width="2" height="2"></rect><path d="M64,36v-2c-2.253,0-4.136-0.296-5.928-0.932c-1.55-0.55-3.152-0.822-4.67-1.028C52.742,30.387,51.561,29,50,29  c-1.54,0-2.709,1.349-3.375,2.972c-2.263-0.193-4.678-0.062-7.567,0.439c-2.437,0.421-4.862,1.298-7.206,2.605  c-1.031,0.575-2.024,1.219-2.985,1.843c-1.256,0.816-2.442,1.584-3.719,2.221c-1.72,0.858-3.351,1.295-4.847,1.311  c-1.437,0.03-2.842-0.53-4.3-1.1v-3.303c0.376-0.284,0.717-0.613,1-0.99C17.913,36.212,19.366,37,21,37c2.757,0,5-2.243,5-5  c0-1.412-0.584-2.718-1.602-3.652C24.791,27.624,25,26.817,25,26c0-2.415-2-4.435-4-4.9c0-0.033,0-0.067,0-0.1  c0-2.019-1.215-3.809-3.034-4.584C17.676,13.933,15.56,12,13,12s-4.676,1.933-4.966,4.416C6.215,17.191,5,18.981,5,21  c0,0.033,0,0.067,0,0.1c-2,0.464-4.001,2.485-4.001,4.9c0,0.817,0.21,1.624,0.602,2.348C0.585,29.282,0,30.588,0,32  c0,2.757,2.243,5,5,5c1.634,0,3.087-0.788,4-2.003c0.283,0.377,0.623,0.707,1,0.99v1.594c-1.585-0.3-3.143-0.027-4.282,0.314  c-0.836,0.25-1.624,0.636-2.387,1.009C2.179,39.468,1.091,40,0,40v2c1.554,0,2.904-0.661,4.21-1.299  c0.722-0.353,1.404-0.687,2.081-0.89c1-0.299,2.395-0.541,3.709-0.18v5.727c-0.075,0.01-0.148,0.013-0.224,0.023  c-1.298,0.176-2.6,0.463-3.859,0.741C3.874,46.574,1.944,47,0,47v2c2.162,0,4.291-0.47,6.349-0.925  c1.275-0.282,2.479-0.548,3.695-0.712c4.108-0.558,7.679-0.036,10.918,1.593c1.977,0.994,3.888,2.353,5.735,3.667  c2.321,1.651,4.703,3.343,7.372,4.462c-4.582,1.667-9.542,2.394-14.367,3.091l-0.651,0.094C13.325,61.1,7.633,61.857,1,62H0v2h1.021  c6.768-0.146,12.527-0.912,18.318-1.751l0.65-0.094c1.931-0.279,3.882-0.567,5.829-0.911c1.991,1.638,4.756,2.564,7.642,2.564  c0.601,0,1.208-0.04,1.812-0.121c2.538-0.342,4.929-1.427,7.242-2.476c3.319-1.505,6.454-2.927,9.849-2.218  c1.75,0.366,3.37,1.37,4.937,2.341l0.357,0.221c0.526,0.325,0.943,0.556,1.353,0.749c1.46,0.686,2.917,0.729,3.99,0.697h1v-2h-1.033  c-1.327,0-2.256-0.109-3.107-0.508c-0.338-0.159-0.693-0.356-1.152-0.639l-0.354-0.219c-1.714-1.062-3.486-2.162-5.582-2.6  c-4.04-0.844-7.62,0.783-11.085,2.355c-2.281,1.035-4.436,2.013-6.682,2.315c-2.229,0.302-4.52-0.093-6.358-1.009  c2.956-0.639,5.869-1.487,8.644-2.759c1.132-0.519,2.206-1.133,3.245-1.727c1.097-0.627,2.133-1.219,3.241-1.716  c2.616-1.172,5.012-1.917,7.325-2.276c2.234-0.348,4.364-0.308,6.333,0.12c0.751,0.163,1.348,0.447,1.979,0.749  C60.432,53.572,61.482,54.075,63,54h1v-2h-1.047c-1.06,0-1.774-0.288-2.674-0.718c-0.675-0.322-1.439-0.686-2.417-0.898  c-2.209-0.479-4.586-0.527-7.065-0.142c-2.491,0.388-5.054,1.182-7.834,2.427c-1.198,0.537-2.326,1.181-3.417,1.805  c-0.913,0.522-1.787,1.008-2.691,1.446c-2.567-0.681-4.839-2.04-7.116-3.608c0.019,0,0.037,0.002,0.056,0.002  c5.443,0,11.445-1.7,15.919-4.647l0.151-0.1C51.511,43.847,57.35,40,64,40v-2c-4.691,0-9.011,1.76-13,4.003v-3.1  c1.894-0.356,3-1.754,3-3.903c0-0.277-0.022-0.568-0.058-0.863c1.159,0.179,2.343,0.419,3.462,0.816C59.416,35.667,61.512,36,64,36z   M9,31c-0.552,0-1,0.448-1,1c0,1.654-1.346,3-3,3s-3-1.346-3-3c0-1.056,0.551-2.016,1.475-2.566c0.252-0.15,0.426-0.405,0.474-0.695  c0.048-0.29-0.034-0.587-0.224-0.811C3.394,27.539,3,26.887,3,26c0-1.654,1.346-3,2.938-3.002c0.034,0.005,0.134,0.015,0.168,0.016  c0.316,0.013,0.621-0.126,0.819-0.373c0.199-0.247,0.268-0.574,0.187-0.881C7.036,21.468,7,21.226,7,21  c0-1.364,0.93-2.554,2.261-2.894c0.455-0.116,0.767-0.532,0.752-1.001C10.011,17.046,10.009,16.993,10,17c0-1.654,1.346-3,3-3  s3,1.346,3.003,2.931c-0.005,0.037-0.016,0.138-0.017,0.174c-0.015,0.469,0.298,0.885,0.752,1.001C18.07,18.446,19,19.636,19,21  c0,0.226-0.036,0.468-0.113,0.759c-0.081,0.307-0.012,0.634,0.187,0.881c0.198,0.247,0.5,0.386,0.819,0.373  C19.951,23.012,20.006,23.005,20,23c1.654,0,3,1.346,3,3c0,0.887-0.394,1.539-0.725,1.928c-0.19,0.225-0.272,0.521-0.224,0.811  c0.048,0.29,0.222,0.544,0.474,0.695C23.449,29.984,24,30.944,24,32c0,1.654-1.346,3-3,3s-3-1.346-3-3c0-0.552-0.448-1-1-1  s-1,0.448-1,1c0,1.654-1.346,3-3,3s-3-1.346-3-3C10,31.448,9.552,31,9,31z M12,45.191v-8.299C12.324,36.958,12.657,37,13,37  s0.676-0.042,1-0.108v8.296C13.344,45.16,12.677,45.16,12,45.191z M41,44c-1.383,0-2-0.617-2-2c0-1.931,1.174-4,2-4s2,2.069,2,4  C43,43.383,42.383,44,41,44z M44.764,45.897l-0.151,0.1c-0.819,0.54-1.698,1.029-2.612,1.475v-1.57c1.894-0.356,3-1.754,3-3.903  c0-2.505-1.522-6-4-6s-4,3.495-4,6c0,2.149,1.106,3.546,3,3.903v2.447c-4.339,1.696-9.268,2.366-13.448,1.72  c-1.503-1.052-3.054-2.08-4.691-2.902c-1.825-0.917-3.785-1.517-5.861-1.808v-4.127C17.326,41.69,18.704,42,20.237,42  c0.028,0,0.056,0,0.084,0c1.801,0,3.725-0.332,5.718-1.326c1.378-0.688,2.668-1.325,3.916-2.136  c0.933-0.606,1.897-1.232,2.869-1.774c2.147-1.197,4.359-1.999,6.574-2.382c2.558-0.442,4.7-0.575,6.686-0.442  C46.03,34.304,46,34.661,46,35c0,2.149,1.106,3.546,3,3.903v4.273C47.542,44.067,46.131,44.996,44.764,45.897z M50,37  c-1.383,0-2-0.617-2-2c0-1.931,1.174-4,2-4s2,2.069,2,4C52,36.383,51.383,37,50,37z"></path><rect x="2" y="57" width="2" height="2"></rect><rect x="6" y="57" width="2" height="2"></rect><rect x="10" y="57" width="2" height="2"></rect></svg>