<svg height='100px' width='100px'  fill="#000000" xmlns="http://www.w3.org/2000/svg" xmlns:xlink="http://www.w3.org/1999/xlink" version="1.1" x="0px" y="0px" viewBox="0 0 100 100" style="enable-background:new 0 0 100 100;" xml:space="preserve"><g><path d="M77.613,51.287c-1.042-1.042-2.429-1.616-3.904-1.616c-1.472,0-2.854,0.571-3.891,1.609L50.104,70.993   c-2.085,2.085-4.862,3.233-7.82,3.233c-2.888,0-5.616-1.101-7.68-3.1c-2.072-2.008-3.226-4.756-3.25-7.739   c-0.024-3.088,1.2-6.098,3.36-8.257L54.184,35.66c1.041-1.041,1.615-2.427,1.615-3.901c0-1.475-0.574-2.86-1.615-3.902   l-6.893-6.893c-1.038-1.038-2.421-1.61-3.894-1.61s-2.856,0.571-3.894,1.61L20.19,40.277C7.848,52.619,7.429,72.751,19.256,85.155   C25.317,91.504,33.496,95,42.287,95c8.513,0,16.508-3.306,22.512-9.311l9.012-9.012c0,0,0.001,0,0.001-0.001   c0,0,0-0.001,0.001-0.001l10.701-10.701c1.04-1.039,1.61-2.424,1.608-3.899c-0.002-1.474-0.579-2.86-1.622-3.903L77.613,51.287z    M62.652,83.542c-5.431,5.431-12.663,8.421-20.365,8.421c-7.953,0-15.352-3.162-20.834-8.904   C10.755,71.839,11.152,53.61,22.337,42.425l7.537-7.537l1.94,1.94c0.297,0.296,0.685,0.444,1.074,0.444   c0.389,0,0.778-0.148,1.074-0.445c0.593-0.593,0.593-1.555,0-2.148l-1.94-1.939l9.628-9.628c0.465-0.465,1.085-0.72,1.747-0.72   s1.282,0.256,1.746,0.72l6.894,6.893c0.468,0.468,0.726,1.091,0.726,1.754c0,0.663-0.258,1.286-0.726,1.754l-9.621,9.621   l-4.638-4.639c-0.593-0.593-1.554-0.593-2.147,0c-0.593,0.593-0.593,1.555,0,2.147l4.638,4.639l-7.703,7.703   c-2.732,2.731-4.28,6.532-4.25,10.429c0.03,3.803,1.513,7.317,4.174,9.896c2.635,2.551,6.113,3.955,9.794,3.955   c3.769,0,7.309-1.464,9.967-4.123l7.939-7.939l10.401,10.401L62.652,83.542z M82.367,63.828l-9.628,9.628L62.337,63.055   l9.628-9.627c0.931-0.932,2.565-0.928,3.501,0.007l6.887,6.886C83.323,61.291,83.33,62.865,82.367,63.828z"></path><path d="M55.208,81.513c-3.425,2.355-7.445,3.731-11.625,3.978c-0.837,0.049-1.476,0.769-1.427,1.605   c0.048,0.807,0.717,1.429,1.515,1.429c0.03,0,0.061-0.001,0.091-0.002c4.733-0.28,9.286-1.839,13.167-4.508   c0.691-0.475,0.866-1.421,0.39-2.112C56.844,81.214,55.9,81.038,55.208,81.513z"></path><path d="M38.352,85.207c-1.672-0.283-3.313-0.752-4.878-1.394c-0.773-0.317-1.662,0.053-1.981,0.828   c-0.318,0.776,0.052,1.663,0.828,1.981c1.772,0.728,3.631,1.259,5.524,1.579c0.086,0.014,0.171,0.021,0.256,0.021   c0.727,0,1.37-0.524,1.495-1.265C39.735,86.131,39.179,85.347,38.352,85.207z"></path><path d="M87.206,5c-0.354,0-1.036,0.11-1.632,0.848c-0.102,0.127-0.183,0.268-0.24,0.421L79.442,21.97l-9.801-8.792   c-0.401-0.36-0.962-0.48-1.476-0.316c-0.514,0.164-0.901,0.588-1.019,1.115l-6.507,29.054c-0.152,0.725,0.036,1.478,0.514,2.067   c0.477,0.587,1.187,0.938,1.9,0.938c0.841,0,1.569-0.467,1.97-1.303l6.784-15.633l11.091,9.58c0.423,0.365,1.012,0.469,1.532,0.27   c0.521-0.198,0.892-0.667,0.965-1.22l3.847-29.065c0.246-0.984,0.058-2.137-0.473-2.848C88.38,5.297,87.811,5,87.206,5z    M82.753,34.541L72.228,25.45c-0.366-0.316-0.861-0.439-1.331-0.331c-0.471,0.108-0.863,0.433-1.055,0.876l-4.706,10.847   l4.406-19.672l9.526,8.545c0.373,0.335,0.888,0.463,1.375,0.345c0.487-0.12,0.884-0.472,1.06-0.942l3.856-10.273L82.753,34.541z"></path></g></svg>