<svg width="71" height="70" viewBox="0 0 71 70" fill="none" xmlns="http://www.w3.org/2000/svg">
<path d="M55.7338 36.3167C54.966 35.5489 53.944 35.1259 52.8572 35.1259C51.7726 35.1259 50.7542 35.5467 49.9901 36.3115L35.464 50.8369C33.9277 52.3732 31.8815 53.2191 29.7019 53.2191C27.5739 53.2191 25.5638 52.4078 24.043 50.9349C22.5162 49.4553 21.6659 47.4305 21.6482 45.2325C21.6306 42.9571 22.5325 40.7392 24.124 39.1484L38.4704 24.8021C39.2374 24.035 39.6604 23.0137 39.6604 21.9276C39.6604 20.8408 39.2374 19.8203 38.4704 19.0525L33.3913 13.9734C32.6265 13.2086 31.6074 12.7871 30.522 12.7871C29.4367 12.7871 28.4176 13.2078 27.6528 13.9734L13.4221 28.2041C4.32804 37.2982 4.0193 52.1323 12.7339 61.272C17.1999 65.9503 23.2266 68.5263 29.7041 68.5263C35.9769 68.5263 41.8679 66.0903 46.2919 61.6655L52.9324 55.0251C52.9324 55.0251 52.9331 55.0251 52.9331 55.0244C52.9331 55.0244 52.9331 55.0236 52.9338 55.0236L60.8188 47.1387C61.5851 46.3731 62.0051 45.3526 62.0036 44.2657C62.0021 43.1796 61.577 42.1584 60.8085 41.3898L55.7338 36.3167ZM44.7099 60.0835C40.7081 64.0853 35.3793 66.2885 29.7041 66.2885C23.844 66.2885 18.3921 63.9586 14.3528 59.7276C6.47004 51.4603 6.76256 38.0284 15.0041 29.7868L20.5577 24.2332L21.9872 25.6627C22.206 25.8808 22.4919 25.9898 22.7786 25.9898C23.0652 25.9898 23.3518 25.8808 23.5699 25.662C24.0069 25.225 24.0069 24.5162 23.5699 24.0792L22.1405 22.6505L29.2348 15.5562C29.5774 15.2135 30.0342 15.0256 30.522 15.0256C31.0098 15.0256 31.4667 15.2143 31.8086 15.5562L36.8884 20.6352C37.2332 20.9801 37.4233 21.4391 37.4233 21.9276C37.4233 22.4162 37.2332 22.8752 36.8884 23.2201L29.7992 30.3092L26.3817 26.891C25.9448 26.4541 25.2367 26.4541 24.7997 26.891C24.3628 27.3279 24.3628 28.0368 24.7997 28.473L28.2172 31.8912L22.5413 37.5671C20.5283 39.5794 19.3876 42.3802 19.4097 45.2516C19.4318 48.0538 20.5246 50.6431 22.4853 52.5434C24.4269 54.4231 26.9896 55.4576 29.7019 55.4576C32.4791 55.4576 35.0875 54.3789 37.046 52.4196L42.8958 46.5698L50.5597 54.2337L44.7099 60.0835ZM59.2368 45.5574L52.1425 52.6517L44.4778 44.9878L51.5721 37.8943C52.2581 37.2075 53.4621 37.2105 54.1518 37.8994L59.2265 42.9733C59.9412 43.6881 59.9464 44.8478 59.2368 45.5574Z" fill="black"/>
<path d="M39.2247 58.5894C36.701 60.3246 33.7389 61.3385 30.6589 61.5205C30.0422 61.5566 29.5713 62.0872 29.6074 62.7032C29.6428 63.2978 30.1357 63.7561 30.7237 63.7561C30.7458 63.7561 30.7687 63.7554 30.7908 63.7546C34.2783 63.5483 37.6331 62.3996 40.4928 60.4329C41.0019 60.0829 41.1309 59.3859 40.7801 58.8767C40.4301 58.369 39.7346 58.2394 39.2247 58.5894Z" fill="black"/>
<path d="M26.806 61.31C25.574 61.1014 24.3648 60.7559 23.2116 60.2828C22.6421 60.0492 21.987 60.3219 21.752 60.8929C21.5176 61.4647 21.7903 62.1183 22.3621 62.3526C23.6678 62.889 25.0375 63.2803 26.4324 63.5161C26.4957 63.5264 26.5584 63.5315 26.621 63.5315C27.1567 63.5315 27.6305 63.1454 27.7226 62.5994C27.825 61.9908 27.4153 61.4131 26.806 61.31Z" fill="black"/>
<path d="M62.8012 2.21094C62.5403 2.21094 62.0378 2.29199 61.5986 2.83578C61.5235 2.92936 61.4638 3.03325 61.4218 3.14599L57.0803 14.7151L49.8585 8.23683C49.5631 7.97157 49.1497 7.88315 48.7709 8.00399C48.3922 8.12483 48.1071 8.43725 48.0201 8.82557L43.2255 30.2338C43.1135 30.768 43.252 31.3228 43.6042 31.7568C43.9557 32.1894 44.4788 32.448 45.0042 32.448C45.6239 32.448 46.1603 32.1039 46.4558 31.4879L51.4545 19.9688L59.6268 27.0278C59.9385 27.2967 60.3725 27.3734 60.7557 27.2267C61.1396 27.0808 61.4129 26.7353 61.4667 26.3278L64.3014 4.91146C64.4826 4.18641 64.3441 3.33683 63.9528 2.81294C63.6662 2.42978 63.2469 2.21094 62.8012 2.21094ZM59.52 23.978L51.7647 17.2794C51.495 17.0465 51.1303 16.9559 50.784 17.0355C50.4369 17.115 50.1481 17.3545 50.0066 17.6809L46.5391 25.6735L49.7856 11.1783L56.8047 17.4746C57.0796 17.7215 57.459 17.8158 57.8179 17.7288C58.1767 17.6404 58.4693 17.381 58.5989 17.0347L61.4402 9.46515L59.52 23.978Z" fill="black"/>
</svg>
