<svg width="71" height="70" viewBox="0 0 71 70" fill="none" xmlns="http://www.w3.org/2000/svg">
<g clip-path="url(#clip0)">
<path d="M28.6096 1.96982C18.08 -1.94105 10.9088 4.73558 10.3008 5.32829C0.61802 13.4643 3.64932 25.3506 3.78324 25.8535L6.724 25.0698C6.60454 24.6118 4.08074 14.4709 12.3149 7.60862L12.3681 7.56449L12.4168 7.51579C12.6633 7.27308 18.6453 1.51482 27.5505 4.82308C35.3289 7.71134 38.0505 24.0632 36.9404 32.0036C35.8364 39.903 33.7212 49.1201 22.5349 58.5367C18.2877 62.112 14.0603 63.2563 10.3115 61.8464C7.18432 60.6694 5.5378 58.1889 5.44193 57.562C5.44193 57.562 5.44422 57.578 5.44422 57.6092H2.40074C2.40074 59.5136 4.79824 62.6674 8.36748 64.3284C11.2565 65.6736 17.1943 67.0112 24.4949 60.8657C36.5044 50.7545 38.7711 40.8837 39.9535 32.4251C41.1708 23.7185 38.3473 5.58623 28.6096 1.96982ZM6.21574 45.0335C7.96802 44.3092 9.17019 42.8057 9.43193 41.0123C9.73324 38.9534 8.80193 36.8755 6.87922 35.3142C6.41432 34.936 6.33063 34.5997 6.30932 34.3486C6.22867 33.3762 7.10672 32.1611 7.34639 31.8887L5.06226 29.877C4.85835 30.1083 3.07639 32.2075 3.2765 34.6005C3.37617 35.7981 3.95824 36.8618 4.95954 37.6751C6.02932 38.5448 6.56193 39.6001 6.41965 40.5725C6.31313 41.3045 5.814 41.9056 5.05161 42.2213C2.79715 43.1542 1.13161 46.0173 1.26095 48.7405L4.30063 48.5967C4.23443 47.1989 5.16498 45.468 6.21574 45.0335ZM14.1836 22.6198V22.6221V22.6198ZM66.7513 30.2856L65.5978 28.83L64.3971 30.2475L61.9083 33.1853L59.4393 30.2513L58.282 28.8764L57.1172 30.243L54.5827 33.2157L51.9714 30.2293L50.8438 28.9388L49.6956 30.2118L46.9458 33.2621L44.244 30.2201L41.969 32.241L45.7992 36.5544L46.9276 37.8258L48.0666 36.5628L50.808 33.5223L53.4513 36.5453L54.6108 37.8722L55.7544 36.5308L58.2676 33.584L60.7404 36.5232L61.9007 37.9026L63.0656 36.527L65.5187 33.6304L67.7838 36.4882L70.1691 34.5982L66.7513 30.2856ZM17.4576 51.5785L19.2997 54.0011C33.4054 43.2774 31.4142 25.3491 31.2156 23.8182C31.1806 22.8055 30.7485 13.8386 26.2616 9.77862C24.6044 8.27895 22.6178 7.60558 20.3573 7.77601C17.682 7.97764 15.5204 9.05655 13.9332 10.9831C10.3115 15.3801 11.1249 22.6685 11.1606 22.9774L12.6717 22.7986L14.1828 22.6198C14.179 22.5825 14.042 21.3066 14.1417 19.6083L14.1569 19.6159L14.1486 19.6326C14.4202 19.1274 15.5014 17.5836 18.0077 18.9113C21.1858 20.5944 23.6625 30.1973 18.1743 40.8366C18.1652 40.8541 16.4411 44.0862 14.6028 45.9953L16.7956 48.1051C18.9337 45.8842 20.7932 42.3933 20.8716 42.2457C27.1229 30.1288 24.1928 18.7432 19.4328 16.2217C17.835 15.3756 16.3125 15.1382 14.8995 15.4996C15.2229 14.5622 15.6657 13.6636 16.2874 12.9111C17.3404 11.6359 18.7465 10.9481 20.5848 10.8096C21.9992 10.7031 23.1877 11.1033 24.2156 12.0316C27.2789 14.7988 28.112 21.5934 28.1744 23.978L28.1767 24.0639C28.1767 24.0647 28.1889 24.1499 28.1889 24.1499C28.2132 24.3242 30.4449 41.7047 17.4576 51.5785ZM59.3807 45.2945L58.8831 46.9212L57.684 50.8359L54.0113 49.213L52.399 48.5L51.9295 50.1983L50.8986 53.9304L47.4145 52.312L45.7802 51.5526L45.3054 53.2912L44.3064 56.9533L41.0461 55.3205L39.6833 58.0413L44.6046 60.5066L46.2656 61.3389L46.7549 59.5471L47.7683 55.8318L51.2463 57.4479L52.8761 58.2049L53.3547 56.4739L54.3948 52.7092L58.0241 54.3116L59.593 55.004L60.0944 53.3658L61.2974 49.4397L65.031 51.055L66.2392 48.2611L60.9443 45.9701L59.3807 45.2945ZM10.6706 30.2118C13.021 29.3117 15.5531 30.1981 16.3155 32.187C17.0764 34.1751 15.7829 36.5262 13.4318 37.4263L14.5206 40.2689C18.4383 38.7678 20.5186 34.6545 19.1581 31.0982C17.7946 27.5419 13.4995 25.8695 9.58259 27.3692L10.6706 30.2118ZM43.9328 15.2181L45.6196 14.4405L49.1174 12.8289L50.1156 16.5321L50.5828 18.2661L52.2164 17.5205L55.7696 15.8983L56.8737 19.708L57.3507 21.3545L58.9288 20.6864L62.7103 19.0848L63.8722 22.9827L66.7893 22.1131L65.1413 16.5854L64.6551 14.9556L63.0885 15.6191L59.3191 17.2161L58.2014 13.36L57.7106 11.6671L56.1075 12.3991L52.5847 14.0075L51.5856 10.2983L51.1169 8.55742L49.4803 9.31221L46.0328 10.9009L45.189 7.35373L42.2285 8.05829L43.5029 13.4125L43.9328 15.2181Z" fill="black"/>
</g>
<defs>
<clipPath id="clip0">
<rect width="70" height="70" fill="white" transform="translate(0.5)"/>
</clipPath>
</defs>
</svg>
