<svg height='100px' width='100px'  fill="#000000" xmlns:x="http://ns.adobe.com/Extensibility/1.0/" xmlns:i="http://ns.adobe.com/AdobeIllustrator/10.0/" xmlns:graph="http://ns.adobe.com/Graphs/1.0/" xmlns="http://www.w3.org/2000/svg" xmlns:xlink="http://www.w3.org/1999/xlink" xmlns:a="http://ns.adobe.com/AdobeSVGViewerExtensions/3.0/" i:viewOrigin="6.5024 92.2139" i:rulerOrigin="0 0" i:pageBounds="0 100 100 0" viewBox="0 0 90.565 84.962" overflow="visible" enable-background="new 0 0 90.565 84.962" xml:space="preserve" x="0px" y="0px"><metadata><variableSets xmlns="http://ns.adobe.com/Variables/1.0/"><variableSet varSetName="binding1" locked="none"><variables></variables><v:sampleDataSets xmlns="http://ns.adobe.com/GenericCustomNamespace/1.0/" xmlns:v="http://ns.adobe.com/Variables/1.0/"></v:sampleDataSets></variableSet></variableSets><sfw xmlns="http://ns.adobe.com/SaveForWeb/1.0/"><slices></slices><sliceSourceBounds y="7.252" x="6.502" width="90.565" height="84.962" bottomLeftOrigin="true"></sliceSourceBounds></sfw></metadata><g i:layer="yes" i:dimmedPercent="50" i:rgbTrio="#4F008000FFFF"><path i:knockout="Off" d="M35.944,1.589C22.105-3.551,12.68,5.224,11.881,6.003C-0.845,16.696,3.139,32.318,3.315,32.979    l3.865-1.03C7.023,31.347,3.706,18.019,14.528,9l0.07-0.058l0.064-0.064c0.324-0.319,8.186-7.887,19.89-3.539    c10.223,3.796,13.8,25.287,12.341,35.723c-1.451,10.382-4.231,22.496-18.933,34.872c-5.582,4.699-11.138,6.203-16.065,4.35    c-4.11-1.547-6.274-4.807-6.4-5.631c0,0,0.003,0.021,0.003,0.062h-4c0,2.503,3.151,6.648,7.842,8.831    c3.797,1.768,11.601,3.526,21.196-4.551C46.32,65.706,49.299,52.733,50.853,41.616C52.453,30.173,48.742,6.342,35.944,1.589z     M6.512,58.187c2.303-0.952,3.883-2.928,4.227-5.285c0.396-2.706-0.828-5.437-3.355-7.489c-0.611-0.497-0.721-0.939-0.749-1.269    c-0.106-1.278,1.048-2.875,1.363-3.233l-3.002-2.644c-0.268,0.304-2.61,3.063-2.347,6.208c0.131,1.574,0.896,2.972,2.212,4.041    c1.406,1.143,2.106,2.53,1.919,3.808c-0.14,0.962-0.796,1.752-1.798,2.167C2.019,55.717-0.17,59.48,0,63.059l3.995-0.189    C3.908,61.033,5.131,58.758,6.512,58.187z M16.984,28.729c0,0,0,0.003,0,0.003V28.729z M86.073,38.804l-1.516-1.913l-1.578,1.863    l-3.271,3.861l-3.245-3.856l-1.521-1.807l-1.531,1.796l-3.331,3.907l-3.432-3.925l-1.482-1.696l-1.509,1.673l-3.614,4.009    l-3.551-3.998l-2.99,2.656l5.034,5.669l1.483,1.671l1.497-1.66l3.603-3.996l3.474,3.973l1.524,1.744l1.503-1.763l3.303-3.873    l3.25,3.863l1.525,1.813l1.531-1.808l3.224-3.807l2.977,3.756l3.135-2.484L86.073,38.804z M21.287,66.789l2.421,3.184    C42.247,55.879,39.63,32.316,39.369,30.304c-0.046-1.331-0.614-13.116-6.511-18.452c-2.178-1.971-4.789-2.856-7.76-2.632    c-3.516,0.265-6.357,1.683-8.443,4.215c-4.76,5.779-3.691,15.358-3.644,15.764l1.986-0.235l1.986-0.235    c-0.005-0.049-0.185-1.726-0.054-3.958l0.02,0.01l-0.011,0.022c0.357-0.664,1.778-2.693,5.072-0.948    c4.177,2.212,7.432,14.833,0.219,28.816c-0.012,0.023-2.278,4.271-4.694,6.78l2.882,2.773c2.81-2.919,5.254-7.507,5.357-7.701    c8.216-15.925,4.365-30.889-1.891-34.203c-2.1-1.112-4.101-1.424-5.958-0.949c0.425-1.232,1.007-2.413,1.824-3.402    c1.384-1.676,3.232-2.58,5.648-2.762c1.859-0.14,3.421,0.386,4.772,1.606c4.026,3.637,5.121,12.567,5.203,15.701l0.003,0.113    c0,0.001,0.016,0.113,0.016,0.113C35.423,30.969,38.356,53.812,21.287,66.789z M76.386,58.53l-0.654,2.138l-1.576,5.145    l-4.827-2.133l-2.119-0.937l-0.617,2.232l-1.355,4.905l-4.579-2.127l-2.148-0.998l-0.624,2.285l-1.313,4.813l-4.285-2.146    l-1.791,3.576l6.468,3.24l2.183,1.094l0.643-2.355l1.332-4.883l4.571,2.124l2.142,0.995l0.629-2.275l1.367-4.948l4.77,2.106    l2.062,0.91l0.659-2.153l1.581-5.16l4.907,2.123l1.588-3.672l-6.959-3.011L76.386,58.53z M12.367,38.707    c3.089-1.183,6.417-0.018,7.419,2.596c1,2.613-0.7,5.703-3.79,6.886l1.431,3.736c5.149-1.973,7.883-7.379,6.095-12.053    C21.73,35.198,16.085,33,10.937,34.971L12.367,38.707z M56.083,19.001l2.217-1.022l4.597-2.118l1.312,4.867l0.614,2.279    l2.147-0.98l4.67-2.132l1.451,5.007l0.627,2.164l2.074-0.878l4.97-2.105l1.527,5.123l3.834-1.143l-2.166-7.265l-0.639-2.142    l-2.059,0.872l-4.954,2.099l-1.469-5.068l-0.645-2.225l-2.107,0.962l-4.63,2.114l-1.313-4.875l-0.616-2.288l-2.151,0.992    l-4.531,2.088l-1.109-4.662l-3.891,0.926l1.675,7.037L56.083,19.001z"></path></g></svg>