<svg width="71" height="70" viewBox="0 0 71 70" fill="none" xmlns="http://www.w3.org/2000/svg">
<path d="M54.9779 29.5597C56.4271 28.3412 57.3306 26.5453 57.3306 24.5995C57.3306 22.2677 56.0706 20.2213 54.1806 19.0553C54.1718 18.912 54.1357 18.7666 54.0668 18.6298C53.252 17.0198 51.2974 14.9034 48.7315 13.7156C50.1796 12.4972 51.082 10.7023 51.082 8.75656C51.082 5.13406 48.0501 2.1875 44.3215 2.1875C40.5929 2.1875 37.561 5.13406 37.561 8.75656C37.561 10.7023 38.4645 12.4994 39.9148 13.7178C38.4896 14.4156 36.896 15.8627 35.6273 17.313C34.6123 15.9939 33.0449 14.5983 31.1385 13.7156C32.5877 12.4972 33.4901 10.7023 33.4901 8.75656C33.4923 5.13406 30.4604 2.1875 26.7318 2.1875C23.0032 2.1875 19.9702 5.13406 19.9702 8.75656C19.9702 10.7034 20.8737 12.4994 22.3251 13.7178C20.4887 14.6158 18.3668 16.7573 17.0313 18.5478C16.9187 18.6987 16.8673 18.8683 16.841 19.0422C14.939 20.2048 13.6692 22.2589 13.6692 24.5995C13.6692 26.5453 14.5726 28.3423 16.0218 29.5597C13.4679 30.8219 9.81806 34.8873 9.01525 37.4248C8.3754 39.4953 8.90806 45.2178 8.96603 45.757C8.96603 48.3438 10.9687 50.4634 13.5434 50.7861L13.8299 56.2625C13.8299 58.2958 15.4607 59.9506 17.4656 59.9506H20.4132C20.4187 59.9506 20.4242 59.9539 20.4296 59.9539C20.4351 59.9539 20.4406 59.9506 20.446 59.9506H23.3926C25.1207 59.9506 26.5645 58.7202 26.932 57.1091C27.1802 57.1659 27.4329 57.2064 27.6888 57.2316L28.0257 63.7186C28.0257 65.9761 29.837 67.8125 32.0627 67.8125H38.9348C41.1606 67.8125 42.9718 65.9761 42.9707 63.7755L43.3098 57.2316C43.569 57.2064 43.8238 57.1659 44.0743 57.108C44.4527 58.7344 45.8867 59.9517 47.606 59.9517H50.5526C50.5581 59.9517 50.5635 59.955 50.569 59.955C50.5745 59.955 50.5799 59.9517 50.5854 59.9517H53.5331C55.5379 59.9517 57.1687 58.2969 57.1676 56.3216L57.4563 50.7883C60.031 50.4667 62.0326 48.3547 62.0271 45.8653C62.0906 45.22 62.6232 39.4975 61.9812 37.4194C61.1806 34.8852 57.5252 30.8153 54.9779 29.5597ZM41.0381 15.6089C41.4788 15.412 42.2685 15.2578 43.2026 15.1834C43.744 15.1397 44.1727 14.7055 44.2077 14.1619C44.2417 13.6194 43.872 13.1337 43.3404 13.0222C41.2601 12.5858 39.7496 10.792 39.7496 8.75656C39.7496 6.34047 41.8004 4.375 44.3215 4.375C46.8426 4.375 48.8945 6.34047 48.8945 8.75656C48.8945 10.792 47.384 12.5858 45.3048 13.0222C44.7732 13.1337 44.4035 13.6194 44.4374 14.1619C44.4713 14.7055 44.9001 15.1397 45.4426 15.1834C46.3767 15.2567 47.1652 15.412 47.6137 15.6122C48.9317 16.1842 50.1173 17.115 50.9792 18.0512C50.8435 18.0436 50.7079 18.0305 50.5701 18.0305C46.8426 18.0305 43.8096 20.977 43.8096 24.5995C43.8096 26.5453 44.7131 28.3423 46.1634 29.5597C44.607 30.322 42.8504 31.9769 41.5368 33.5541C41.1004 33.2642 40.6782 33.0116 40.2856 32.8355C42.0454 31.4584 43.1534 29.3486 43.1534 27.0539C43.1534 23.2881 40.2495 20.1742 36.5023 19.6952C37.8935 17.8784 39.812 16.1405 41.0381 15.6089ZM23.4506 15.6078C23.8892 15.412 24.6777 15.2567 25.6129 15.1834C26.1554 15.1397 26.5831 14.7055 26.6181 14.1619C26.652 13.6194 26.2823 13.1337 25.7507 13.0222C23.6693 12.5869 22.1588 10.7931 22.1588 8.75766C22.1588 6.34047 24.2107 4.375 26.7318 4.375C29.2529 4.375 31.3048 6.34047 31.3048 8.75656C31.3048 10.792 29.7943 12.5858 27.714 13.0222C27.1824 13.1337 26.8127 13.6194 26.8467 14.1619C26.8817 14.7055 27.3104 15.1397 27.8518 15.1834C28.7859 15.2567 29.5734 15.412 30.0229 15.6122C32.1612 16.5408 33.816 18.2853 34.4832 19.5475C34.4996 19.5956 34.5095 19.6459 34.5335 19.6919C30.7699 20.1556 27.8463 23.2772 27.8463 27.055C27.8463 29.3508 28.9543 31.4595 30.7142 32.8366C30.3248 33.0116 29.9015 33.2642 29.4629 33.5552C28.1471 31.9758 26.3862 30.3177 24.8363 29.5608C26.2867 28.3423 27.1901 26.5464 27.1901 24.6006C27.1901 20.9781 24.1582 18.0316 20.4296 18.0316C20.4034 18.0316 20.3771 18.0348 20.3509 18.0348C21.4479 16.9028 22.6117 15.972 23.4506 15.6078ZM23.3937 57.7631H21.5245V49.2439C21.5245 48.6402 21.0356 48.1502 20.4307 48.1502C19.8259 48.1502 19.337 48.6402 19.337 49.2439V57.7631H17.4667C16.6682 57.7631 16.0185 57.0905 16.0174 56.2056L15.1632 39.7994C15.1315 39.1956 14.6087 38.7198 14.0137 38.7647C13.4099 38.7964 12.9462 39.3105 12.9779 39.9142L13.4285 48.5548C12.1248 48.2213 11.1546 47.0848 11.1502 45.652C10.9293 43.3825 10.7215 39.317 11.1043 38.0778C11.7496 36.0402 15.1337 32.3247 17.1462 31.4497C17.5881 31.2528 18.3767 31.0986 19.3096 31.0253C19.8521 30.9827 20.2809 30.5473 20.3159 30.0048C20.3498 29.4613 19.9812 28.9767 19.4485 28.8652C17.3693 28.4288 15.8588 26.635 15.8588 24.5995C15.8588 22.1834 17.9096 20.218 20.4318 20.218C22.954 20.218 25.0048 22.1834 25.0048 24.5995C25.0048 26.635 23.4943 28.4287 21.4129 28.8641C20.8813 28.9756 20.5117 29.4613 20.5456 30.0048C20.5806 30.5484 21.0093 30.9827 21.5518 31.0253C22.4859 31.0986 23.2734 31.2528 23.7229 31.4541C24.7948 31.9189 26.4102 33.3222 27.7326 34.8917C25.5276 36.8353 23.1443 39.7622 22.4629 41.9552C21.7246 44.3177 22.3448 50.9119 22.4126 51.5495C22.4126 53.3914 23.3335 55.1053 24.8484 56.175L24.8451 56.2625C24.8429 57.0905 24.1921 57.7631 23.3937 57.7631ZM42.9204 43.6264C42.3232 43.5805 41.8037 44.0595 41.7709 44.6622L40.7865 63.7186C40.7865 64.7697 39.9563 65.625 38.937 65.625H36.5942V53.8705C36.5942 53.2667 36.1052 52.7767 35.5004 52.7767C34.8956 52.7767 34.4067 53.2667 34.4067 53.8705V65.625H32.0638C31.0434 65.625 30.2143 64.7697 30.2132 63.6617L29.2299 44.6611C29.1982 44.0584 28.6732 43.5794 28.0804 43.6253C27.4767 43.6559 27.0129 44.1711 27.0446 44.7738L27.574 54.9916C27.1945 54.9194 26.827 54.8111 26.4857 54.6263C25.322 53.9973 24.5979 52.8183 24.5935 51.4423C24.3343 48.802 24.0926 44.0683 24.5498 42.6059C25.1076 40.8122 27.5696 37.7442 29.9267 35.9045C30.5567 35.4113 31.1429 35.0383 31.6165 34.8283C32.1634 34.5909 33.0996 34.4061 34.189 34.323C34.7315 34.2803 35.1613 33.8461 35.1963 33.3025C35.2302 32.7589 34.8606 32.2722 34.3268 32.1617C31.8407 31.6444 30.0349 29.4963 30.0349 27.0539C30.0349 24.1631 32.4871 21.8116 35.5015 21.8116C38.5159 21.8116 40.9681 24.1631 40.9681 27.0539C40.9681 29.4963 39.1634 31.6444 36.6762 32.1617C36.1424 32.2722 35.7727 32.7589 35.8067 33.3025C35.8417 33.8461 36.2715 34.2814 36.814 34.323C37.9023 34.4072 38.8396 34.592 39.3777 34.825C39.8579 35.0383 40.4463 35.4123 41.0785 35.9056C43.4345 37.7453 45.8954 40.8133 46.4543 42.607C46.9104 44.0672 46.6687 48.8009 46.404 51.5484C46.404 52.8183 45.681 53.9973 44.5162 54.6252C44.1749 54.81 43.8074 54.9183 43.429 54.9894L43.9573 44.7716C43.9879 44.1711 43.5242 43.657 42.9204 43.6264ZM59.8462 45.7581C59.8462 47.1023 58.8782 48.2245 57.5745 48.5559L58.024 39.9142C58.0546 39.3105 57.5909 38.7964 56.9882 38.7647C56.3888 38.7209 55.8715 39.1967 55.8387 39.7994L54.9834 56.2625C54.9834 57.0894 54.3337 57.7631 53.5352 57.7631H51.6649V49.2439C51.6649 48.6402 51.176 48.1502 50.5712 48.1502C49.9663 48.1502 49.4774 48.6402 49.4774 49.2439V57.7631H47.6082C46.8098 57.7631 46.159 57.0905 46.1579 56.2155L46.1557 56.175C47.6717 55.1064 48.5904 53.4034 48.586 51.6567C48.6593 50.913 49.2795 44.3177 48.5423 41.9573C47.8598 39.7633 45.4754 36.8353 43.2726 34.8917C44.5927 33.3222 46.2104 31.9189 47.2899 31.4508C47.7318 31.2539 48.5204 31.0997 49.4534 31.0264C49.9959 30.9838 50.4246 30.5484 50.4596 30.0059C50.4935 29.4623 50.1238 28.9767 49.5923 28.8652C47.5109 28.4298 46.0004 26.6361 46.0004 24.6006C46.0004 22.1845 48.0512 20.2191 50.5734 20.2191C53.0956 20.2191 55.1463 22.1845 55.1463 24.6006C55.1463 26.6361 53.637 28.4298 51.5567 28.8663C51.0251 28.9778 50.6554 29.4634 50.6893 30.0059C50.7243 30.5495 51.1531 30.9838 51.6956 31.0264C52.6285 31.0997 53.416 31.2539 53.8667 31.4541C55.8715 32.3258 59.2556 36.0402 59.8987 38.0712C60.2782 39.3159 60.0715 43.3814 59.8462 45.7581Z" fill="black"/>
</svg>
