<svg height='100px' width='100px'  fill="#000000" xmlns="http://www.w3.org/2000/svg" xmlns:xlink="http://www.w3.org/1999/xlink" version="1.1" x="0px" y="0px" viewBox="0 0 64 64" enable-background="new 0 0 64 64" xml:space="preserve"><g><g><path d="M49.808,27.026c1.325-1.114,2.151-2.756,2.151-4.535c0-2.132-1.152-4.003-2.88-5.069    c-0.008-0.131-0.041-0.264-0.104-0.389c-0.745-1.472-2.532-3.407-4.878-4.493c1.324-1.114,2.149-2.755,2.149-4.534    C46.246,4.694,43.474,2,40.065,2s-6.181,2.694-6.181,6.006c0,1.779,0.826,3.422,2.152,4.536c-1.303,0.638-2.76,1.961-3.92,3.287    c-0.928-1.206-2.361-2.482-4.104-3.289c1.325-1.114,2.15-2.755,2.15-4.534C30.164,4.694,27.392,2,23.983,2    s-6.182,2.694-6.182,6.006c0,1.78,0.826,3.422,2.153,4.536c-1.679,0.821-3.619,2.779-4.84,4.416    c-0.103,0.138-0.15,0.293-0.174,0.452c-1.739,1.063-2.9,2.941-2.9,5.081c0,1.779,0.826,3.422,2.151,4.535    c-2.335,1.154-5.672,4.871-6.406,7.191c-0.585,1.893-0.098,7.125-0.045,7.618c0,2.365,1.831,4.303,4.185,4.598l0.262,5.007    c0,1.859,1.491,3.372,3.324,3.372h2.695c0.005,0,0.01,0.003,0.015,0.003s0.01-0.003,0.015-0.003h2.694    c1.58,0,2.9-1.125,3.236-2.598c0.227,0.052,0.458,0.089,0.692,0.112l0.308,5.931c0,2.064,1.656,3.743,3.691,3.743h6.283    c2.035,0,3.691-1.679,3.69-3.691l0.31-5.983c0.237-0.023,0.47-0.06,0.699-0.113c0.346,1.487,1.657,2.6,3.229,2.6h2.694    c0.005,0,0.01,0.003,0.015,0.003s0.01-0.003,0.015-0.003h2.695c1.833,0,3.324-1.513,3.323-3.319l0.264-5.059    c2.354-0.294,4.184-2.225,4.179-4.501c0.058-0.59,0.545-5.822-0.042-7.722C55.479,31.895,52.137,28.174,49.808,27.026z     M37.063,14.271c0.403-0.18,1.125-0.321,1.979-0.389c0.495-0.04,0.887-0.437,0.919-0.934c0.031-0.496-0.307-0.94-0.793-1.042    c-1.902-0.399-3.283-2.039-3.283-3.9C35.885,5.797,37.76,4,40.065,4s4.181,1.797,4.181,4.006c0,1.861-1.381,3.501-3.282,3.9    c-0.486,0.102-0.824,0.546-0.793,1.042c0.031,0.497,0.423,0.894,0.919,0.934c0.854,0.067,1.575,0.209,1.985,0.392    c1.205,0.523,2.289,1.374,3.077,2.23c-0.124-0.007-0.248-0.019-0.374-0.019c-3.408,0-6.181,2.694-6.181,6.006    c0,1.779,0.826,3.422,2.152,4.535c-1.423,0.697-3.029,2.21-4.23,3.652c-0.399-0.265-0.785-0.496-1.144-0.657    c1.609-1.259,2.622-3.188,2.622-5.286c0-3.443-2.655-6.29-6.081-6.728C34.188,16.346,35.942,14.757,37.063,14.271z M20.983,14.27    c0.401-0.179,1.122-0.321,1.977-0.388c0.496-0.04,0.887-0.437,0.919-0.934c0.031-0.496-0.307-0.94-0.793-1.042    c-1.903-0.398-3.284-2.038-3.284-3.899C19.802,5.797,21.678,4,23.983,4s4.181,1.797,4.181,4.006c0,1.861-1.381,3.501-3.283,3.9    c-0.486,0.102-0.824,0.546-0.793,1.042c0.032,0.497,0.424,0.894,0.919,0.934c0.854,0.067,1.574,0.209,1.985,0.392    c1.955,0.849,3.468,2.444,4.078,3.598c0.015,0.044,0.024,0.09,0.046,0.132c-3.441,0.424-6.114,3.278-6.114,6.732    c0,2.099,1.013,4.027,2.622,5.286c-0.356,0.16-0.743,0.391-1.144,0.657c-1.203-1.444-2.813-2.96-4.23-3.652    c1.326-1.114,2.152-2.756,2.152-4.535c0-3.312-2.772-6.006-6.181-6.006c-0.024,0-0.048,0.003-0.072,0.003    C19.152,15.454,20.216,14.603,20.983,14.27z M20.931,52.812h-1.709v-7.789c0-0.552-0.447-1-1-1s-1,0.448-1,1v7.789h-1.71    c-0.73,0-1.324-0.615-1.325-1.424l-0.781-15c-0.029-0.552-0.507-0.987-1.051-0.946c-0.552,0.029-0.976,0.499-0.947,1.051    l0.412,7.9c-1.192-0.305-2.079-1.344-2.083-2.654c-0.202-2.075-0.392-5.792-0.042-6.925c0.59-1.863,3.684-5.26,5.524-6.06    c0.404-0.18,1.125-0.321,1.978-0.388c0.496-0.039,0.888-0.437,0.92-0.933c0.031-0.497-0.306-0.94-0.793-1.042    c-1.901-0.399-3.282-2.039-3.282-3.9c0-2.209,1.875-4.006,4.181-4.006s4.181,1.797,4.181,4.006c0,1.861-1.381,3.501-3.284,3.899    c-0.486,0.102-0.824,0.546-0.793,1.043c0.032,0.497,0.424,0.894,0.92,0.933c0.854,0.067,1.574,0.208,1.985,0.392    c0.98,0.425,2.457,1.708,3.666,3.143c-2.016,1.777-4.195,4.453-4.818,6.458c-0.675,2.16-0.108,8.189-0.046,8.772    c0,1.684,0.842,3.251,2.227,4.229l-0.003,0.08C22.256,52.197,21.661,52.812,20.931,52.812z M38.784,39.887    c-0.546-0.042-1.021,0.396-1.051,0.947l-0.9,17.423c0,0.961-0.759,1.743-1.691,1.743H33V49.253c0-0.552-0.447-1-1-1s-1,0.448-1,1    V60h-2.142c-0.933,0-1.691-0.782-1.692-1.795l-0.899-17.372c-0.029-0.551-0.509-0.989-1.051-0.947    c-0.552,0.028-0.976,0.499-0.947,1.05l0.484,9.342c-0.347-0.066-0.683-0.165-0.995-0.334c-1.064-0.575-1.726-1.653-1.73-2.911    c-0.237-2.414-0.458-6.742-0.04-8.079c0.51-1.64,2.761-4.445,4.916-6.127c0.576-0.451,1.112-0.792,1.545-0.984    c0.5-0.217,1.356-0.386,2.352-0.462c0.496-0.039,0.889-0.436,0.921-0.933c0.031-0.497-0.307-0.942-0.795-1.043    c-2.273-0.473-3.924-2.437-3.924-4.67c0-2.643,2.242-4.793,4.998-4.793s4.998,2.15,4.998,4.793c0,2.233-1.65,4.197-3.924,4.67    c-0.488,0.101-0.826,0.546-0.795,1.043c0.032,0.497,0.425,0.895,0.921,0.933c0.995,0.077,1.852,0.246,2.344,0.459    c0.439,0.195,0.977,0.537,1.555,0.988c2.154,1.682,4.404,4.487,4.915,6.127c0.417,1.335,0.196,5.663-0.046,8.175    c0,1.161-0.661,2.239-1.726,2.813c-0.312,0.169-0.648,0.268-0.994,0.333l0.483-9.342C39.76,40.385,39.336,39.915,38.784,39.887z     M54.259,41.836c0,1.229-0.885,2.255-2.077,2.558l0.411-7.901c0.028-0.552-0.396-1.022-0.947-1.051    c-0.548-0.04-1.021,0.395-1.051,0.946L49.813,51.44c0,0.756-0.594,1.372-1.324,1.372h-1.71v-7.789c0-0.552-0.447-1-1-1    s-1,0.448-1,1v7.789h-1.709c-0.73,0-1.325-0.615-1.326-1.415l-0.002-0.037c1.386-0.977,2.226-2.534,2.222-4.131    c0.067-0.68,0.634-6.71-0.04-8.868c-0.624-2.006-2.804-4.683-4.818-6.46c1.207-1.435,2.686-2.718,3.673-3.146    c0.404-0.18,1.125-0.321,1.978-0.388c0.496-0.039,0.888-0.437,0.92-0.933c0.031-0.497-0.307-0.941-0.793-1.043    c-1.903-0.398-3.284-2.038-3.284-3.899c0-2.209,1.875-4.006,4.181-4.006s4.181,1.797,4.181,4.006c0,1.861-1.38,3.501-3.282,3.9    c-0.486,0.102-0.824,0.546-0.793,1.042c0.032,0.497,0.424,0.894,0.92,0.933c0.853,0.067,1.573,0.208,1.985,0.391    c1.833,0.797,4.927,4.193,5.515,6.05C54.654,35.946,54.465,39.663,54.259,41.836z"></path></g></g></svg>