<svg height='100px' width='100px'  fill="#000000" xmlns="http://www.w3.org/2000/svg" xmlns:xlink="http://www.w3.org/1999/xlink" version="1.1" x="0px" y="0px" viewBox="0 0 100 100" style="enable-background:new 0 0 100 100;" xml:space="preserve"><g><path d="M44.9423828,73.4570313c-0.1181641-0.4003906-0.3984375-0.7333984-0.7724609-0.9189453   c-0.3730469-0.1855469-0.8076172-0.2080078-1.1982422-0.0585938l-4.3703613,1.6584473l-0.8151855-12.317627   c-0.0878906-1.375-0.7548828-2.6552734-1.8291016-3.5146484c-1.0732422-0.859375-2.4746094-1.2255859-3.8349609-1.0097656   c-1.2197266,0.2011719-2.3115234,0.8408203-3.0751953,1.8027344c-0.6005859,0.7587891-0.96875,1.7158203-1.0351563,2.6953125   l-0.0537109,0.7695313l-6.5693359-5.3486328L20.5,47.7158203c-0.1494141-1.5332031-0.9326172-2.9541016-2.1494141-3.8974609   c-1.2324219-0.9560547-2.7597656-1.3515625-4.3017578-1.1103516c-1.3886719,0.2167969-2.6386719,0.9482422-3.5205078,2.0605469   c-0.8144531,1.0283203-1.2431641,2.3115234-1.2060547,3.6035156l0.3095703,13.7617188   c0.0078125,0.3378906,0.1298828,0.6640625,0.3466797,0.9248047l13.869873,16.6774902l-2.095459,0.795166   c-0.3798828,0.1445313-0.6845703,0.4375-0.8447266,0.8105469s-0.1630859,0.7949219-0.0058594,1.1699219l3.6064453,8.6386719   c0.2392578,0.5751953,0.796875,0.921875,1.3847656,0.921875c0.1855469,0,0.375-0.0341797,0.5576172-0.1074219l20.1552734-8.0859375   c0.7177734-0.2880859,1.0996094-1.0761719,0.8798828-1.8173828L44.9423828,73.4570313z M26.8115234,78.6074219   L12.6201172,61.5429688l-0.2988281-13.2480469c-0.0166016-0.5966797,0.1816406-1.1875,0.5585938-1.6630859   c0.4111328-0.5195313,0.9902344-0.859375,1.6298828-0.9589844c0.71875-0.109375,1.4296875,0.0712891,2.0019531,0.515625   c0.5751953,0.4462891,0.9316406,1.0917969,1.0019531,1.8125l0.9472656,10.1191406   c0.0371094,0.4003906,0.234375,0.7695313,0.5458984,1.0234375l9.3017578,7.5742188   c0.4345703,0.3544922,1.03125,0.4345703,1.5439453,0.2128906c0.5146484-0.2226563,0.8613281-0.7138672,0.8994141-1.2724609   L31.0039063,62c0.0263672-0.3818359,0.1669922-0.7509766,0.3935547-1.0371094   c0.2988281-0.3759766,0.7294922-0.6279297,1.2041016-0.7060547c0.5322266-0.0869141,1.0585938,0.0537109,1.4814453,0.3916016   s0.6748047,0.8222656,0.7089844,1.3662109l0.8758545,13.2363281l-2.765564,1.0495605L26.8115234,78.6074219z    M26.7070313,88.6289063l-2.4404297-5.84375l10.1837158-3.8635254l3.3192139-1.2575684   c0.0032349-0.0012207,0.0055542-0.0039063,0.0087891-0.005127l4.7460938-1.8005371l1.6982422,5.7441406L26.7070313,88.6289063z"></path><path d="M85.9511719,42.7080078c-1.5410156-0.2412109-3.0683594,0.1542969-4.3017578,1.1103516   c-1.2167969,0.9433594-2,2.3642578-2.1494141,3.9033203l-0.8886719,9.4931641l-6.5693359,5.3486328l-0.0537109-0.7685547   c-0.0664063-0.9804688-0.4345703-1.9375-1.0361328-2.6972656c-0.7626953-0.9609375-1.8544922-1.6005859-3.0830078-1.8037109   c-1.3583984-0.2128906-2.7529297,0.1523438-3.8261719,1.0117188c-1.0742188,0.859375-1.7412109,2.1396484-1.8291016,3.5117188   l-0.8151855,12.3205566l-4.3703613-1.6584473c-0.3896484-0.1484375-0.8251953-0.1269531-1.1982422,0.0585938   c-0.3740234,0.1855469-0.6542969,0.5185547-0.7724609,0.9189453l-2.5439453,8.6044922   c-0.2197266,0.7412109,0.1621094,1.5292969,0.8798828,1.8173828l20.1552734,8.0859375   c0.1835938,0.0732422,0.3720703,0.1074219,0.5576172,0.1074219c0.5878906,0,1.1455078-0.3466797,1.3847656-0.921875   l3.6064453-8.6386719c0.1572266-0.375,0.1542969-0.796875-0.0058594-1.1699219s-0.4648438-0.6660156-0.8447266-0.8105469   l-2.095459-0.795166l13.869873-16.6774902c0.2167969-0.2607422,0.3388672-0.5869141,0.3466797-0.9248047l0.3085938-13.7529297   c0.0380859-1.3007813-0.390625-2.5839844-1.2050781-3.6123047C88.5898438,43.65625,87.3398438,42.9248047,85.9511719,42.7080078z    M73.2929688,88.6289063l-17.515625-7.0263672l1.6982422-5.7441406l4.7460938,1.8005371   c0.0032349,0.0012207,0.0055542,0.0039063,0.0087891,0.005127l3.3192139,1.2575684l10.1837158,3.8635254L73.2929688,88.6289063z    M87.3798828,61.5429688L73.1884766,78.6074219l-6.0907593-2.3068848l-2.765564-1.0495605l0.8758545-13.2392578   c0.0341797-0.5410156,0.2861328-1.0253906,0.7089844-1.3632813c0.421875-0.3369141,0.9472656-0.4755859,1.4726563-0.3935547   c0.4833984,0.0800781,0.9140625,0.3320313,1.2119141,0.7070313c0.2275391,0.2871094,0.3681641,0.65625,0.3945313,1.0390625   l0.2519531,3.6572266c0.0380859,0.5585938,0.3847656,1.0498047,0.8994141,1.2724609   c0.5117188,0.2216797,1.109375,0.1416016,1.5439453-0.2128906l9.3017578-7.5742188   c0.3115234-0.2539063,0.5087891-0.6230469,0.5458984-1.0234375l0.9472656-10.1132813   c0.0703125-0.7265625,0.4267578-1.3720703,1.0019531-1.8183594c0.5732422-0.4443359,1.2861328-0.6259766,2.0019531-0.515625   c0.6396484,0.0996094,1.21875,0.4394531,1.6298828,0.9589844c0.3769531,0.4755859,0.5751953,1.0664063,0.5576172,1.671875   L87.3798828,61.5429688z"></path><path d="M54.8583984,56.0146484c2.9648438,0,6.6738281-0.5566406,9.6513672-2.7861328   c5.8291016-4.3544922,6.3105469-13.2109375,6.328125-13.5859375c0.0341797-0.7167969-0.4443359-1.3564453-1.1416016-1.5273438   c-0.3652344-0.0898438-9.0039063-2.1376953-14.8359375,2.2216797c-0.1591797,0.1201172-0.3056641,0.234375-0.4492188,0.3554688   c-1.2235107,1.0124512-2.1821289,2.2302246-2.9501953,3.506958v-5.3193359c0.0197144,0,0.0393677,0,0.059082,0   c1.2927246-0.6744385,2.5776367-1.3643799,3.8834229-2.0123291c0.3428955-0.170166,0.7449341-0.2514648,1.1292725-0.3032227   c3.7440186-0.5039063,6.3873901-3.2367554,6.7493286-6.9868774c0.0258179-0.2670288,0.0245972-0.616394,0.1858521-0.7780151   C64.7991333,27.465271,65.2496338,25.7401733,65.6799927,24c0-0.3200073,0-0.6400146,0-0.960022   c-0.4381104-1.7356567-0.8795776-3.4622803-2.1986084-4.8065796c-0.1832886-0.1868896-0.1725464-0.5891724-0.2036743-0.8966064   c-0.3626709-3.579834-3.0641479-6.3407593-6.6295776-6.8497925c-0.5903931-0.0842896-1.1488647-0.4341431-1.7069702-0.6937256   c-1.145813-0.5327759-2.2813721-1.0875854-3.4211426-1.6333008c-0.8800049,0-1.7600098,0-2.6400146,0   c-1.2885132,0.678894-2.5689087,1.3739624-3.8710938,2.0255737c-0.3408813,0.1705933-0.7440796,0.2476196-1.1277466,0.296936   c-3.6739502,0.4724121-6.3535767,3.1852417-6.7550049,6.8479004c-0.0337524,0.3078003-0.0203247,0.7092285-0.2033081,0.8980103   c-1.309082,1.350708-1.7831421,3.0649414-2.2028809,4.8115845c0,0.3200073,0,0.6400146,0,0.960022   c0.4202881,1.7453003,0.899292,3.4546509,2.1898804,4.8174438c0.2050781,0.2165527,0.1861572,0.6659546,0.2281494,1.0128174   c0.4293823,3.5467529,3.0825195,6.2156372,6.6170044,6.7300415c0.5900269,0.0859375,1.1488647,0.4294434,1.7061768,0.6879883   c1.0049438,0.4665527,2.0011597,0.9516602,2.9997559,1.4316406v5.3903809   c-0.7544556-1.2281494-1.6867065-2.3972168-2.8671875-3.3740234c-0.1484375-0.125-0.2949219-0.2392578-0.4580078-0.3623047   c-5.828125-4.3554688-14.4677734-2.3085938-14.8320313-2.21875c-0.6972656,0.1708984-1.1757813,0.8105469-1.1416016,1.5273438   c0.0175781,0.375,0.4990234,9.2314453,6.3271484,13.5859375c2.9785156,2.2294922,6.6875,2.7861328,9.6523438,2.7861328   c1.293335,0,2.4315796-0.1068115,3.3193359-0.2263184v5.6677246c0,0.8032227,0.671875,1.4550781,1.5,1.4550781   s1.5-0.6518555,1.5-1.4550781v-5.6778564C52.3585205,55.9018555,53.5279541,56.0146484,54.8583984,56.0146484z    M56.328125,42.9990234c0.1113281-0.0917969,0.21875-0.1767578,0.3330078-0.2626953   c3.5214844-2.6318359,8.6728516-2.2802734,11.0410156-1.9375c-0.3378906,2.3671875-1.453125,7.3857422-4.9882813,10.0273438   c-2.6430664,1.9786377-6.1983032,2.2785645-8.8103638,2.1601563l6.2332153-4.6621094   c0.6630859-0.4960938,0.7988281-1.4365234,0.3027344-2.0996094c-0.4960938-0.6621094-1.4355469-0.796875-2.0996094-0.3027344   l-6.2427368,4.6691895C52.6893311,48.1644287,53.8938599,45.0140381,56.328125,42.9990234z M45.036438,33.6298828   c-2.9385986-0.0892334-4.7799072-1.8956299-4.9522705-4.8031006c-0.0401611-0.6768188-0.4891968-1.3470459-0.8182983-1.9851074   c-0.1374512-0.2666016-0.2783813-0.5314331-0.4229736-0.7977295c-0.8556519-1.5756836-0.8602295-3.4701538-0.0036621-5.0452881   c0.1446533-0.2659912,0.2863159-0.5301514,0.4255981-0.7955322c0.3168945-0.6038818,0.7825317-1.2282715,0.8187256-1.8640747   c0.175293-3.078064,1.911499-4.8012085,5.0175171-4.9264526c0.4935303-0.0198975,1.2088623-0.305481,1.5700684-0.642334   c2.2703857-2.1170654,4.7670288-2.1332397,7.0098267-0.0535278c0.453064,0.420105,1.0479736,0.6687012,1.6653442,0.6930542   c3.008728,0.1186523,4.8007813,1.8809814,4.9675903,4.8568726c0.0393066,0.7014771,0.3264771,1.3649292,0.8030396,1.8811646   c1.9000854,2.0580444,1.9007568,4.6933594,0.0016479,6.7427979c-0.4772339,0.5150757-0.7652588,1.1776733-0.8046265,1.8787231   c-0.1669312,2.9755859-1.9517822,4.7394409-4.9451904,4.8602295c-0.6235352,0.0251465-1.225769,0.272644-1.6868286,0.6931763   c-2.2939453,2.0922852-4.6989136,2.0754395-7.0065918-0.0430908C46.2299194,33.8707275,45.6408691,33.6482544,45.036438,33.6298828   z M37.2851563,50.8261719c-3.5195313-2.6308594-4.6416016-7.6582031-4.984375-10.0283203   c2.3720703-0.34375,7.5185547-0.6923828,11.0341797,1.9355469c0.1181641,0.0888672,0.2255859,0.1738281,0.3417969,0.2695313   c2.4189453,2.0026855,3.6234741,5.152832,4.2188721,7.5826416l-6.2354736-4.6636963   c-0.6640625-0.4951172-1.6025391-0.3603516-2.0996094,0.3027344c-0.4960938,0.6630859-0.3603516,1.6035156,0.3027344,2.0996094   l6.2332153,4.6619873C43.4845581,53.104126,39.9301147,52.8041992,37.2851563,50.8261719z"></path><path d="M53.59375,26.6064453c0.7988281-0.8798828,1.2587891-2.0009766,1.2958984-3.2099609v-0.2275391   c0-0.015625,0-0.0322266-0.0009766-0.0478516c-0.0371094-1.1826172-0.4990234-2.3056641-1.3017578-3.171875   c-0.0917969-0.1103516-0.1962891-0.2138672-0.3066406-0.3046875c-0.8808594-0.8007813-1.9980469-1.2597656-3.1972656-1.2958984   l-0.2871094,0.0009766c-1.1582031,0.0351563-2.265625,0.4863281-3.1298828,1.2734375   c-0.1513672,0.1181641-0.265625,0.2431641-0.3496094,0.3496094c-0.7900391,0.8564453-1.2441406,1.9726563-1.28125,3.1962891   l0.0009766,0.2734375c0.0361328,1.1826172,0.4931641,2.3017578,1.2890625,3.1591797   c0.0869141,0.1054688,0.1865234,0.2060547,0.2978516,0.3007813c0.8691406,0.8105469,1.9990234,1.2763672,3.2324219,1.3134766   l0.2597656-0.0009766c1.1826172-0.0361328,2.3066406-0.4980469,3.1728516-1.3007813   C53.3984375,26.8222656,53.5019531,26.7177734,53.59375,26.6064453z M51.3544922,24.609375   c-0.0117188,0.0126953-0.0224609,0.0253906-0.0341797,0.0380859c-0.0175781,0.015625-0.0351563,0.03125-0.0517578,0.046875   c-0.3369141,0.3222656-0.7792969,0.5078125-1.1992188,0.5214844l-0.1689453,0.0009766   c-0.4716797-0.0146484-0.9023438-0.1953125-1.2451172-0.5224609c-0.0175781-0.0166016-0.0361328-0.0332031-0.0556641-0.0498047   c-0.0175781-0.0214844-0.0371094-0.0419922-0.0556641-0.0625c-0.3193359-0.3330078-0.4951172-0.7597656-0.5087891-1.1855469   l-0.0009766-0.1816406c0.0146484-0.4726563,0.1904297-0.8994141,0.5097656-1.2324219   c0.0166016-0.0175781,0.0351563-0.0380859,0.0537109-0.0595703c0.0185547-0.0166016,0.0380859-0.0341797,0.0556641-0.0517578   c0.3398438-0.3232422,0.7783203-0.5097656,1.1884766-0.5224609l0.1953125-0.0009766   c0.4472656,0.0136719,0.8896484,0.2041016,1.2451172,0.5351563c0.0126953,0.0117188,0.0253906,0.0224609,0.0380859,0.0341797   c0.015625,0.0175781,0.03125,0.0351563,0.046875,0.0517578c0.3183594,0.3330078,0.5039063,0.7695313,0.5224609,1.2304688   l0.0009766,0.1503906C51.8720703,23.9355469,51.5888672,24.3574219,51.3544922,24.609375z"></path></g></svg>