<svg width="71" height="70" viewBox="0 0 71 70" fill="none" xmlns="http://www.w3.org/2000/svg">
<path d="M31.9043 52.5362C31.8172 52.2412 31.6107 51.9958 31.3351 51.8591C31.0602 51.7223 30.74 51.7058 30.4522 51.8159L27.2319 53.0379L26.6313 43.9618C26.5665 42.9486 26.075 42.0052 25.2835 41.372C24.4927 40.7388 23.4601 40.469 22.4577 40.628C21.559 40.7762 20.7545 41.2475 20.1918 41.9563C19.7493 42.5154 19.478 43.2206 19.4291 43.9423L19.3895 44.5094L14.5489 40.5683L13.8941 33.569C13.784 32.4392 13.2069 31.3923 12.3103 30.6972C11.4022 29.9927 10.2768 29.7013 9.14062 29.879C8.11739 30.0388 7.19633 30.5777 6.54656 31.3973C5.94644 32.155 5.63054 33.1005 5.65789 34.0525L5.88599 44.1927C5.89175 44.4417 5.9817 44.6821 6.14144 44.8742L16.3613 57.1629L14.8173 57.7488C14.5374 57.8553 14.3129 58.0711 14.1949 58.346C14.0769 58.6209 14.0747 58.9317 14.1906 59.2081L16.848 65.5734C17.0243 65.9972 17.4351 66.2527 17.8683 66.2527C18.005 66.2527 18.1446 66.2275 18.2792 66.1735L33.1304 60.2155C33.6593 60.0032 33.9407 59.4225 33.7788 58.8763L31.9043 52.5362ZM18.5447 56.3312L8.08788 43.7574L7.86769 33.9957C7.85546 33.556 8.00153 33.1207 8.27929 32.7703C8.58223 32.3874 9.00894 32.137 9.48026 32.0636C10.0099 31.983 10.5337 32.1162 10.9554 32.4436C11.3792 32.7724 11.6419 33.248 11.6937 33.7791L12.3916 41.2353C12.419 41.5303 12.5643 41.8023 12.7939 41.9894L19.6478 47.5704C19.968 47.8316 20.4077 47.8906 20.7855 47.7273C21.1647 47.5632 21.4201 47.2013 21.4482 46.7897L21.6338 44.0942C21.6533 43.8128 21.7569 43.5408 21.9238 43.33C22.144 43.0529 22.4613 42.8673 22.8111 42.8097C23.2032 42.7457 23.5911 42.8493 23.9026 43.0983C24.2142 43.3472 24.3999 43.7042 24.4251 44.105L25.0704 53.858L23.0326 54.6314L18.5447 56.3312ZM18.4677 63.7155L16.6695 59.4095L24.1733 56.5627L26.619 55.6361C26.6214 55.6352 26.6231 55.6332 26.6255 55.6323L30.1226 54.3056L31.374 58.5381L18.4677 63.7155Z" fill="black"/>
<path d="M62.1213 29.879C60.9858 29.7013 59.8604 29.9927 58.9516 30.6972C58.055 31.3923 57.4779 32.4392 57.3678 33.5733L56.713 40.5683L51.8724 44.5094L51.8328 43.9431C51.7839 43.2206 51.5126 42.5154 51.0694 41.9556C50.5074 41.2475 49.7029 40.7762 48.7977 40.6265C47.7968 40.4697 46.7692 40.7388 45.9784 41.372C45.1869 42.0052 44.6954 42.9486 44.6306 43.9596L44.03 53.0379L40.8097 51.8159C40.5226 51.7065 40.2017 51.7223 39.9268 51.8591C39.6512 51.9958 39.4447 52.2412 39.3576 52.5362L37.4831 58.8763C37.3212 59.4225 37.6026 60.0032 38.1315 60.2155L52.9827 66.1735C53.118 66.2275 53.2569 66.2527 53.3936 66.2527C53.8268 66.2527 54.2376 65.9972 54.4139 65.5734L57.0713 59.2081C57.1872 58.9317 57.185 58.6209 57.067 58.346C56.949 58.0711 56.7245 57.8553 56.4446 57.7488L54.9006 57.1629L65.1205 44.8742C65.2802 44.6821 65.3702 44.4417 65.3759 44.1927L65.6033 34.059C65.6314 33.1005 65.3155 32.155 64.7153 31.3973C64.0656 30.5777 63.1445 30.0388 62.1213 29.879ZM52.7942 63.7155L39.8879 58.5381L41.1393 54.3056L44.6364 55.6323C44.6388 55.6332 44.6405 55.6352 44.6429 55.6361L47.0886 56.5627L54.5924 59.4095L52.7942 63.7155ZM63.174 43.7574L52.7172 56.3312L48.2293 54.6314L46.1915 53.858L46.8368 44.1028C46.862 43.7042 47.0477 43.3472 47.3593 43.0983C47.6701 42.85 48.0572 42.7478 48.4444 42.8083C48.8006 42.8673 49.1179 43.0529 49.3374 43.3293C49.505 43.5408 49.6086 43.8128 49.6281 44.0949L49.8137 46.7897C49.8418 47.2013 50.0972 47.5632 50.4764 47.7273C50.8535 47.8906 51.2939 47.8316 51.6141 47.5704L58.468 41.9894C58.6976 41.8023 58.8429 41.5303 58.8703 41.2353L59.5682 33.7834C59.6201 33.248 59.8827 32.7724 60.3065 32.4436C60.7289 32.1162 61.2542 31.9823 61.7816 32.0636C62.253 32.137 62.6797 32.3874 62.9826 32.7703C63.2604 33.1207 63.4064 33.556 63.3935 34.0022L63.174 43.7574Z" fill="black"/>
<path d="M39.2127 39.6832C41.3973 39.6832 44.1303 39.2731 46.3243 37.6303C50.6194 34.4217 50.9741 27.8959 50.9871 27.6196C51.0123 27.0914 50.6597 26.6201 50.1459 26.4942C49.8768 26.428 43.5114 24.919 39.2142 28.1312C39.0969 28.2197 38.9889 28.3039 38.8832 28.3931C37.9816 29.1391 37.2753 30.0364 36.7093 30.9772V27.0577C36.7239 27.0577 36.7383 27.0577 36.7529 27.0577C37.7054 26.5607 38.6522 26.0524 39.6143 25.5749C39.867 25.4495 40.1632 25.3896 40.4464 25.3515C43.2052 24.9802 45.1529 22.9665 45.4196 20.2033C45.4386 20.0065 45.4377 19.7491 45.5566 19.63C46.5375 18.6468 46.8694 17.3757 47.1865 16.0935C47.1865 15.8577 47.1865 15.6219 47.1865 15.3861C46.8637 14.1072 46.5384 12.8349 45.5665 11.8444C45.4314 11.7067 45.4394 11.4103 45.4164 11.1837C45.1492 8.54597 43.1586 6.5116 40.5315 6.13653C40.0964 6.07442 39.6849 5.81663 39.2737 5.62536C38.4294 5.23279 37.5927 4.82398 36.7529 4.42188C36.1044 4.42188 35.456 4.42188 34.8076 4.42188C33.8582 4.92211 32.9147 5.43427 31.9552 5.9144C31.704 6.0401 31.4069 6.09686 31.1242 6.1332C28.4171 6.48129 26.4426 8.48022 26.1469 11.179C26.122 11.4058 26.1319 11.7016 25.9971 11.8407C25.0325 12.836 24.6832 14.0991 24.3739 15.3861C24.3739 15.6219 24.3739 15.8577 24.3739 16.0935C24.6836 17.3795 25.0365 18.639 25.9875 19.6432C26.1386 19.8027 26.1246 20.1339 26.1556 20.3895C26.472 23.0029 28.4269 24.9694 31.0313 25.3484C31.466 25.4118 31.8778 25.6649 32.2885 25.8554C33.0289 26.1991 33.763 26.5566 34.4988 26.9103V30.8821C33.9429 29.9772 33.256 29.1158 32.3861 28.396C32.2768 28.3039 32.1688 28.2197 32.0487 28.129C27.7542 24.9197 21.3882 26.428 21.1198 26.4942C20.606 26.6201 20.2534 27.0914 20.2786 27.6196C20.2916 27.8959 20.6463 34.4217 24.9407 37.6303C27.1354 39.2731 29.8684 39.6832 32.053 39.6832C33.006 39.6832 33.8447 39.6045 34.4988 39.5164V43.6927C34.4988 44.2845 34.9939 44.7648 35.6041 44.7648C36.2143 44.7648 36.7093 44.2845 36.7093 43.6927V39.509C37.3707 39.6001 38.2324 39.6832 39.2127 39.6832ZM40.2957 30.0928C40.3777 30.0251 40.4569 29.9625 40.541 29.8992C43.1358 27.9599 46.9316 28.219 48.6765 28.4716C48.4276 30.2158 47.6058 33.9137 45.001 35.8601C43.0534 37.3181 40.4338 37.5391 38.5091 37.4518L43.102 34.0166C43.5906 33.651 43.6906 32.9581 43.3251 32.4695C42.9595 31.9816 42.2673 31.8823 41.778 32.2464L37.1781 35.6869C37.6145 33.8988 38.502 31.5775 40.2957 30.0928ZM31.9755 23.1892C29.8102 23.1234 28.4534 21.7924 28.3264 19.65C28.2969 19.1513 27.966 18.6575 27.7235 18.1873C27.6222 17.9909 27.5184 17.7958 27.4118 17.5995C26.7813 16.4385 26.778 15.0426 27.4091 13.882C27.5157 13.686 27.6201 13.4913 27.7227 13.2958C27.9562 12.8508 28.2993 12.3907 28.326 11.9222C28.4552 9.6542 29.7345 8.38451 32.0231 8.29223C32.3868 8.27757 32.9139 8.06714 33.18 7.81893C34.8529 6.25899 36.6926 6.24707 38.3451 7.77949C38.679 8.08904 39.1173 8.27222 39.5722 8.29016C41.7892 8.37759 43.1097 9.67615 43.2326 11.8689C43.2615 12.3858 43.4731 12.8746 43.8243 13.255C45.2243 14.7715 45.2248 16.7133 43.8255 18.2234C43.4738 18.6029 43.2616 19.0912 43.2326 19.6077C43.1096 21.8003 41.7945 23.0999 39.5888 23.1889C39.1293 23.2075 38.6856 23.3898 38.3459 23.6997C36.6556 25.2414 34.8835 25.229 33.1831 23.668C32.8549 23.3666 32.4209 23.2027 31.9755 23.1892ZM26.264 35.8601C23.6707 33.9216 22.8439 30.2172 22.5913 28.4708C24.3392 28.2175 28.1313 27.9607 30.7218 29.897C30.8088 29.9625 30.888 30.0251 30.9736 30.0956C32.756 31.5713 33.6435 33.8925 34.0823 35.6828L29.4877 32.2464C28.9984 31.8816 28.3069 31.9809 27.9406 32.4695C27.5751 32.9581 27.6751 33.651 28.1637 34.0166L32.7566 37.4517C30.832 37.5386 28.2129 37.3176 26.264 35.8601Z" fill="black"/>
<path d="M38.279 18.0144C38.8676 17.3661 39.2065 16.54 39.2339 15.6492V15.4815C39.2339 15.47 39.2339 15.4578 39.2331 15.4462C39.2058 14.5748 38.8654 13.7473 38.274 13.1091C38.2063 13.0278 38.1293 12.9515 38.048 12.8846C37.399 12.2945 36.5758 11.9563 35.6921 11.9297L35.4806 11.9304C34.6272 11.9563 33.8112 12.2888 33.1743 12.8687C33.0628 12.9558 32.9786 13.0479 32.9167 13.1263C32.3346 13.7574 32 14.5799 31.9727 15.4815L31.9734 15.683C32 16.5544 32.3368 17.379 32.9232 18.0108C32.9873 18.0885 33.0607 18.1626 33.1427 18.2324C33.7831 18.8297 34.6156 19.1729 35.5245 19.2002L35.7159 19.1995C36.5873 19.1729 37.4155 18.8325 38.0538 18.2411C38.1351 18.1734 38.2114 18.0964 38.279 18.0144ZM36.629 16.5429C36.6204 16.5522 36.6125 16.5616 36.6038 16.5709C36.5909 16.5824 36.5779 16.594 36.5657 16.6055C36.3174 16.8429 35.9915 16.9796 35.6821 16.9897L35.5576 16.9904C35.21 16.9796 34.8927 16.8465 34.6401 16.6055C34.6272 16.5932 34.6135 16.581 34.5991 16.5688C34.5861 16.5529 34.5718 16.5378 34.5581 16.5227C34.3228 16.2773 34.1933 15.9629 34.1832 15.6492L34.1825 15.5153C34.1933 15.167 34.3228 14.8526 34.5581 14.6072C34.5703 14.5943 34.584 14.5792 34.5977 14.5633C34.6113 14.5511 34.6257 14.5381 34.6387 14.5252C34.8891 14.287 35.2122 14.1496 35.5144 14.1402L35.6583 14.1395C35.9879 14.1496 36.3138 14.2899 36.5758 14.5338C36.5851 14.5425 36.5945 14.5504 36.6038 14.559C36.6153 14.572 36.6269 14.5849 36.6384 14.5971C36.8729 14.8425 37.0097 15.1642 37.0233 15.5038L37.0241 15.6146C37.0104 16.0464 36.8017 16.3572 36.629 16.5429Z" fill="black"/>
</svg>
