<svg width="71" height="70" viewBox="0 0 71 70" fill="none" xmlns="http://www.w3.org/2000/svg">
<path d="M21.3945 47.3811H11.8242C11.0691 47.3811 10.457 46.7679 10.457 46.0117V45.7378C10.457 43.2395 12.2238 41.1466 14.5719 40.6472L18.2757 26.7354C18.37 26.381 18.6025 26.0794 18.9207 25.8979C19.239 25.7165 19.6165 25.6706 19.9691 25.7706C20.8647 26.0245 21.5999 26.1896 22.2483 26.3352C23.8589 26.6967 25.0225 26.9578 26.0025 28.1109C26.8761 29.1388 27.4385 30.7074 28.2972 33.6236C28.3915 33.9439 28.3657 34.2876 28.2249 34.5901L22.6336 46.5907C22.4088 47.073 21.9258 47.3811 21.3945 47.3811ZM13.4482 44.6423H20.5239L25.5275 33.9029C24.9027 31.8158 24.426 30.4812 23.9205 29.8863C23.5515 29.4522 23.0491 29.3216 21.6505 29.0076C21.3285 28.9354 20.9674 28.8543 20.5672 28.7575L16.9735 42.2562C16.8139 42.8557 16.2718 43.2729 15.6525 43.2729C14.6881 43.2729 13.8515 43.8313 13.4482 44.6423Z" fill="black"/>
<path d="M55.2183 48.8342C55.2146 48.8342 55.2108 48.8342 55.2071 48.8342L45.6896 48.7573C45.1521 48.7529 44.667 48.4335 44.4499 47.941C43.8246 46.5221 44.9714 45.4923 45.3483 45.1538C45.3878 45.1182 45.4257 45.0849 45.4589 45.0532C45.6911 44.7638 46.2107 43.6302 46.6808 42.4772C46.3943 42.2838 46.113 42.0707 45.9177 41.8693C44.2603 40.1541 44.041 38.5586 43.9947 37.6319C43.8285 37.5922 43.6524 37.5433 43.4751 37.4725C42.7594 37.1851 42.1783 36.8456 41.7108 36.5447C41.3681 37.3523 40.8277 38.6835 39.9754 40.8711L39.8731 41.1332C38.7643 43.9617 38.74 44.985 38.7205 45.8069C38.7071 46.3707 38.6934 46.9538 38.434 47.7896C38.2564 48.3623 37.7275 48.7526 37.1288 48.7528L25.8324 48.7556C25.8324 48.7556 25.8323 48.7556 25.8321 48.7556C25.4497 48.7556 25.0848 48.5951 24.8259 48.3133C24.5668 48.0313 24.4377 47.6537 24.4697 47.2719C24.6628 44.9674 25.924 43.9338 27.3802 43.0177C27.1869 40.8009 26.4982 37.2478 25.9504 35.3481C25.8541 35.0141 25.7624 34.6986 25.6738 34.3979C24.6599 30.9549 24.1903 29.9105 23.489 29.539C23.0999 29.3329 22.4918 29.1963 21.6499 29.0074C21.0005 28.8617 20.1922 28.6802 19.2235 28.4055C19.0289 28.3503 18.8279 28.2916 18.6194 28.2282C17.4726 27.8791 16.7701 27.554 16.2057 27.2927C15.7386 27.0764 15.4299 26.9335 15.0159 26.8464C14.0794 26.6496 13.0079 26.5222 11.9718 26.3989C11.5286 26.3462 11.0702 26.2915 10.6243 26.232C10.2057 26.1771 9.80608 26.1536 9.41957 26.1309C8.19498 26.0593 6.92856 25.9851 5.86338 24.8508L5.84848 24.8348C3.91856 22.7564 3.26108 21.3166 3.71662 20.1662C3.89655 19.7139 4.26924 18.7766 8.05061 17.6641C8.06469 17.66 8.07836 17.656 8.09176 17.6522C8.17325 17.4749 8.23887 17.3223 8.29862 17.1832C8.76032 16.1083 9.07737 15.7261 10.4275 15.0855C11.4449 14.6043 12.0876 14.3663 12.4717 14.224C12.491 14.2169 12.5105 14.2096 12.5302 14.2023C12.5312 14.1992 12.5323 14.1962 12.5331 14.1934C12.5768 14.0616 12.6293 13.904 12.6973 13.7135C13.2986 12.032 13.8177 10.5806 15.313 10.5806C16.0965 10.5806 16.7246 11.0558 17.2868 11.5691C17.5928 11.8482 17.7959 12.0847 17.9362 12.2634C18.4278 12.2556 18.9059 12.2399 19.4107 12.2232C19.6893 12.2139 19.9693 12.2047 20.2539 12.1968C23.8974 12.0997 25.2918 11.989 27.9394 10.4777C29.6121 9.52188 31.3015 9.03711 32.9602 9.03711C34.5325 9.03711 36.0315 9.47436 37.4155 10.3367C38.4847 11.0019 38.9578 11.235 40.0624 11.2349C40.2688 11.2349 40.4919 11.2264 40.7443 11.209C41.6811 11.1439 42.7405 10.9719 43.7651 10.8056C44.2187 10.7319 44.688 10.6558 45.1346 10.5911C46.752 10.3556 48.5411 10.2311 50.3071 10.2311C52.1424 10.2311 53.8651 10.3705 55.2893 10.634C60.6264 11.628 64.6415 15.5573 66.597 21.6983C67.6302 24.9558 66.7136 28.8408 65.9772 31.9627L65.9659 32.0108C65.8848 32.3535 65.8055 32.6774 65.7298 32.9862C65.0611 35.7138 64.7845 36.8427 66.1698 39.3009C66.2527 39.4482 66.3338 39.5873 66.4116 39.7204C67.0666 40.8436 67.6853 41.9045 67.3092 44.0831C67.2081 44.6689 66.6529 47.6342 65.6505 48.4496C65.4069 48.6477 65.1025 48.7559 64.7886 48.7559C64.7882 48.7559 64.7877 48.7559 64.7873 48.7559L59.0598 48.75C58.6121 48.7496 58.1929 48.5297 57.9378 48.1612C57.6827 47.7927 57.6237 47.3224 57.7801 46.9023C58.0074 46.2918 58.3231 45.837 58.6124 45.4384C58.2909 45.2876 57.9737 45.1298 57.7023 44.9541C57.6434 44.9159 57.5891 44.8814 57.5391 44.8503C57.4668 45.1426 57.3902 45.4992 57.3187 45.8326C57.2685 46.0667 57.2145 46.3175 57.1551 46.5854C57.1493 46.6107 57.143 46.6358 57.1359 46.6608C56.9947 47.1601 56.8027 47.457 56.6626 47.6738C56.5864 47.7916 56.5315 47.8767 56.4679 48.0204C56.2485 48.5154 55.7583 48.8342 55.2183 48.8342ZM48.054 46.0375L54.4286 46.089C54.4639 46.0316 54.4789 45.9996 54.4956 45.9456C54.5498 45.7013 54.5991 45.4716 54.6452 45.2568C54.8289 44.4013 54.9615 43.7833 55.1713 43.2777C55.6881 42.031 56.6057 41.8449 57.1067 41.8449C57.7006 41.8449 58.3039 42.0798 59.1892 42.6556C59.3755 42.7764 59.7315 42.94 60.0454 43.0846C60.5375 43.3109 61.0021 43.5248 61.3475 43.79C61.8114 44.1463 61.9979 44.7583 61.8117 45.3132C61.725 45.5713 61.6208 45.8025 61.5076 46.0135L63.9889 46.0161C64.2158 45.3861 64.4941 44.3155 64.6147 43.6165C64.8209 42.4227 64.6112 42.0629 64.0505 41.1017C63.9665 40.9575 63.8788 40.8072 63.7887 40.6474C61.8706 37.2437 62.3496 35.2901 63.0742 32.333C63.1481 32.0312 63.2257 31.7147 63.3048 31.3803L63.316 31.3326C63.975 28.5393 64.795 25.0629 63.9914 22.5287C63.045 19.5566 60.5907 14.4068 54.7909 13.3267C53.5294 13.0932 51.9783 12.9696 50.307 12.9696C48.6935 12.9696 46.9959 13.0874 45.5267 13.3013C45.1023 13.3628 44.6653 13.4337 44.2026 13.5089C43.1173 13.6853 41.995 13.8676 40.9327 13.9412C40.6166 13.963 40.332 13.9737 40.0622 13.9737C38.2171 13.9737 37.2447 13.4547 35.9717 12.6628C33.9717 11.4167 31.6725 11.4977 29.2931 12.8569C26.0582 14.7035 24.101 14.8338 20.3278 14.9343C20.0497 14.9421 19.7745 14.9512 19.5007 14.9602C18.9806 14.9775 18.4429 14.9953 17.8955 15.0029L17.8104 15.0035C16.7675 15.0035 16.3121 14.664 15.8778 14.0775C15.8039 13.9778 15.7285 13.8758 15.6013 13.7447C15.4772 14.0604 15.3519 14.4105 15.2711 14.6361C15.2115 14.803 15.1656 14.9417 15.127 15.0577C14.7836 16.0915 14.4805 16.3995 13.4196 16.7925C13.0551 16.9275 12.5044 17.1316 11.596 17.5611C11.1724 17.7622 11.0294 17.8512 10.9814 17.889C10.9452 17.9502 10.8736 18.1173 10.8097 18.2657C10.7217 18.4706 10.6122 18.7256 10.4573 19.048C10.0807 19.8326 9.64133 20.0795 9.00955 20.2409C8.95623 20.2545 8.89416 20.2701 8.82075 20.2919C7.66561 20.6316 6.88112 20.9593 6.45961 21.1825C6.65553 21.5319 7.06705 22.1261 7.85018 22.9695L7.85989 22.9799C8.14932 23.288 8.51723 23.3344 9.57871 23.3966C9.99325 23.4208 10.4631 23.4484 10.9827 23.5166C11.4122 23.574 11.8604 23.6274 12.2941 23.679C13.3892 23.8094 14.5216 23.9441 15.5774 24.1658C16.2953 24.317 16.8088 24.5547 17.3524 24.8064C17.8658 25.044 18.4478 25.3135 19.4133 25.6074C19.6042 25.6653 19.789 25.7194 19.9678 25.7701C20.8636 26.0241 21.5988 26.1891 22.2472 26.3347C23.2569 26.5613 24.0544 26.7403 24.7669 27.1178C26.4977 28.0348 27.1713 29.8042 28.2959 33.6231C28.3859 33.9289 28.4791 34.2491 28.5769 34.5883C29.1865 36.7024 30.0842 41.1966 30.1612 43.7137C30.1764 44.2074 29.9248 44.671 29.5031 44.9269L29.4165 44.9795C28.7219 45.4007 28.2314 45.7081 27.89 46.0164L35.9784 46.0142C35.9816 45.9293 35.9838 45.8396 35.9861 45.7418C36.0107 44.704 36.0413 43.4121 37.3266 40.1334L37.4272 39.8753C39.4315 34.7314 39.8113 34.0445 40.0731 33.7202C40.454 33.2483 41.0998 33.0838 41.6594 33.3159C42.0427 33.4748 42.3987 33.7142 42.7758 33.9676C43.2502 34.2864 43.7879 34.6478 44.489 34.9292C44.5396 34.9494 44.7009 34.9848 44.8077 35.0083C45.1572 35.0851 45.5919 35.1805 45.9786 35.4448C46.0489 35.4929 46.1143 35.5473 46.1745 35.6075C46.6812 36.1152 46.7003 36.7426 46.7158 37.2468C46.7368 37.9419 46.7633 38.807 47.8806 39.9633C48.0244 40.1056 48.6052 40.4704 49.0266 40.6997C49.6258 41.0259 49.8935 41.7445 49.6539 42.3842C49.274 43.3989 48.6497 44.9692 48.054 46.0375Z" fill="black"/>
<path d="M17.2976 19.9927C16.5426 19.9927 15.9297 19.3796 15.9297 18.6233C15.9297 17.867 16.5411 17.2539 17.2962 17.2539H17.2976C18.0527 17.2539 18.6647 17.867 18.6647 18.6233C18.6647 19.3796 18.0527 19.9927 17.2976 19.9927Z" fill="black"/>
<path d="M41.136 35.9496C40.8245 35.9496 40.5111 35.8436 40.2545 35.6263C39.6777 35.1382 39.6051 34.2741 40.0923 33.6965C40.1171 33.6669 42.7958 30.4051 41.9469 27.1885C41.754 26.4574 42.1892 25.7079 42.9193 25.5145C43.6495 25.3213 44.3975 25.7572 44.5905 26.4885C45.8066 31.096 42.3296 35.2877 42.181 35.4639C41.9107 35.7846 41.5246 35.9496 41.136 35.9496Z" fill="black"/>
<path d="M56.9432 44.641C56.4886 44.641 56.0441 44.4142 55.7842 44.0001C55.3825 43.3598 55.5749 42.5144 56.2143 42.112C57.0731 41.5713 56.4904 38.7614 55.6944 36.985C55.3853 36.295 55.6931 35.4847 56.3821 35.1751C57.071 34.8653 57.88 35.1739 58.1892 35.8639C58.4839 36.5218 60.973 42.3509 57.6693 44.4311C57.4434 44.5732 57.1919 44.641 56.9432 44.641Z" fill="black"/>
<path d="M31.1291 32.4419C27.2555 32.4419 23.4717 29.5505 23.2927 29.4119C22.6954 28.9493 22.5855 28.0892 23.0474 27.4909C23.5087 26.893 24.3662 26.7826 24.9638 27.244C26.065 28.0915 29.4828 30.1691 32.0408 29.6099C32.7789 29.4489 33.5071 29.9171 33.668 30.6559C33.8289 31.3948 33.3614 32.1246 32.6238 32.2858C32.129 32.3939 31.6282 32.4419 31.1291 32.4419Z" fill="black"/>
<path d="M37.8009 56.9673H11.8242C11.0691 56.9673 10.457 56.3541 10.457 55.5979C10.457 54.8417 11.0691 54.2285 11.8242 54.2285H37.8009C38.5559 54.2285 39.1681 54.8417 39.1681 55.5979C39.1681 56.3541 38.556 56.9673 37.8009 56.9673Z" fill="black"/>
<path d="M51.4727 61.0748H40.5352C39.7802 61.0748 39.168 60.4615 39.168 59.7053C39.168 58.9492 39.7802 58.3359 40.5352 58.3359H51.4727C52.2276 58.3359 52.8398 58.9492 52.8398 59.7053C52.8398 60.4615 52.2278 61.0748 51.4727 61.0748Z" fill="black"/>
</svg>
