<svg width="71" height="71" viewBox="0 0 71 71" fill="none" xmlns="http://www.w3.org/2000/svg">
<mask id="mask0" mask-type="alpha" maskUnits="userSpaceOnUse" x="3" y="2" width="65" height="66">
<rect x="3" y="2.57812" width="65" height="65" fill="#C4C4C4"/>
</mask>
<g mask="url(#mask0)">
<path d="M29.9462 73.4026C29.9666 73.5265 29.9892 73.6503 30.0097 73.7752C30.0495 74.0143 30.0678 74.2502 30.0926 74.4882C29.6963 74.4128 29.3032 74.3385 28.9005 74.2609C27.5823 74.0025 26.2189 73.7365 24.8609 73.5372C21.936 73.1119 19.0649 73.7968 16.2875 74.4602C14.9737 74.7746 13.6146 75.0998 12.3029 75.2872C11.7138 75.3712 11.3046 75.9172 11.3897 76.5063C11.4748 77.0954 12.0262 77.5122 12.6077 77.4206C14.0174 77.2182 15.426 76.8822 16.7883 76.5558C19.4849 75.9108 22.034 75.3012 24.5497 75.6706C25.8571 75.8602 27.1946 76.1218 28.488 76.3749C31.1448 76.894 33.8931 77.4303 36.6855 77.4303C38.6563 77.4303 40.57 76.9425 42.4212 76.4686C44.6365 75.9032 46.7311 75.3691 48.7805 75.6695C50.0878 75.8591 51.4243 76.1208 52.7177 76.3738C55.3755 76.8929 58.1238 77.4292 60.9163 77.4292C62.8871 77.4292 64.7997 76.9414 66.6509 76.4675C68.8672 75.9022 70.9618 75.368 73.0102 75.6685C74.3175 75.858 75.654 76.1197 76.9474 76.3728C79.6052 76.8919 82.3535 77.4282 85.146 77.4282C87.1006 77.4282 88.9971 76.9403 90.8322 76.4675C93.0172 75.9065 95.0795 75.3745 97.1074 75.6674L109.222 77.4174C109.273 77.4239 109.326 77.4282 109.378 77.4282C109.904 77.4282 110.365 77.0415 110.442 76.5052C110.527 75.9162 110.119 75.3712 109.53 75.2851L97.4143 73.5351C94.9622 73.1819 92.5897 73.7914 90.2958 74.3826C88.5125 74.8414 86.8281 75.2743 85.146 75.2743C82.5614 75.2743 80.0349 74.78 77.3609 74.2588C76.0428 74.0003 74.6805 73.7343 73.3214 73.5351C70.8412 73.1732 68.4408 73.7871 66.1178 74.3805C64.3172 74.8403 62.6157 75.2743 60.9163 75.2743C58.3317 75.2743 55.8052 74.78 53.1312 74.2588C51.8131 74.0003 50.4508 73.7343 49.0917 73.5351C46.6331 73.1775 44.2531 73.7774 41.9485 74.3654C43.9085 67.9577 47.1328 64.6322 51.798 64.2262C52.3903 64.1745 52.8286 63.6522 52.7769 63.0599C52.7263 62.4675 52.2158 62.0195 51.6106 62.0809C48.732 62.3308 46.2885 63.5035 44.2908 65.5809C45.4829 61.6555 46.7268 57.7442 48.0083 53.8403C48.9614 54.0988 49.9457 53.9932 50.7782 53.5808C51.6688 53.1403 52.3935 52.3638 52.7317 51.3537L52.736 51.3451L52.7489 51.3063V51.2977L57.132 37.5432C57.4605 36.5169 57.3517 35.4497 56.9069 34.5569C56.5375 33.816 55.9248 33.2054 55.1451 32.8177L55.8849 30.6714C56.0788 30.1092 55.7783 29.4965 55.2162 29.3037C54.6551 29.1109 54.0423 29.4103 53.8485 29.9725L53.0903 32.1726C52.3365 32.094 51.5869 32.2351 50.9311 32.5592C50.0405 32.9997 49.3157 33.7762 48.9775 34.7874L48.9732 34.796L48.9603 34.8348V34.8434L44.5762 48.5968C44.2498 49.6231 44.3565 50.6903 44.8012 51.5831C45.0791 52.1409 45.5023 52.6191 46.0203 52.9939C44.8863 56.4432 43.7749 59.9002 42.7077 63.37C42.6485 58.3526 41.7869 53.5883 39.1366 49.6317C38.8038 49.1374 38.1351 49.0049 37.6418 49.3377C37.1475 49.6683 37.0151 50.3371 37.3468 50.8314C41.2474 56.6532 40.8608 64.742 39.9788 72.6488C39.7591 73.4285 39.5308 74.206 39.3165 74.9868C38.4302 75.1612 37.5568 75.2775 36.6845 75.2775C36.6651 75.2775 36.6446 75.2754 36.6252 75.2754V74.2275C37.0582 70.0545 37.49 66.1172 40.0886 63.1611C40.4817 62.7142 40.4375 62.0346 39.9906 61.6415C39.5437 61.2485 38.8631 61.2926 38.4711 61.7395C37.7075 62.6086 37.1066 63.5412 36.6252 64.5169V61.4272C37.4082 60.7402 38.2869 60.1435 39.2615 59.6557C39.7935 59.3897 40.0089 58.7425 39.7429 58.2105C39.4769 57.6785 38.8308 57.462 38.2977 57.7291C37.7075 58.0231 37.1562 58.3623 36.6252 58.7209V41.0077C37.4275 40.8623 38.1502 40.48 38.7037 39.9254C39.4145 39.2146 39.856 38.2335 39.856 37.1523V19.0008C39.856 17.9206 39.4145 16.9385 38.7037 16.2277C38.1491 15.6731 37.4275 15.2908 36.6252 15.1465V12.9226C36.6252 12.3282 36.1428 11.8457 35.5483 11.8457C34.9538 11.8457 34.4714 12.3282 34.4714 12.9226V15.1465C33.6691 15.2919 32.9465 15.6742 32.3929 16.2277C31.6822 16.9385 31.2406 17.9206 31.2406 19.0008V37.1523C31.2406 38.2325 31.6822 39.2146 32.3929 39.9254C32.9475 40.48 33.6691 40.8623 34.4714 41.0077V55.7088C33.5926 54.0815 32.3746 52.4188 30.686 50.3866C30.3069 49.9289 29.6274 49.8675 29.1697 50.2455C28.712 50.6257 28.6495 51.3042 29.0286 51.7619C32.0472 55.3965 33.4397 57.5912 34.046 60.9426C32.6051 62.5268 31.5475 64.4146 30.9111 66.5039C30.0398 61.8634 29.076 57.2466 27.9786 52.6622C27.7848 51.8512 27.5812 51.0435 27.3798 50.2359C27.9463 49.888 28.4191 49.4185 28.74 48.8574C29.2386 47.9883 29.4088 46.9297 29.1266 45.8915L29.1223 45.8872L29.1202 45.8775L29.1191 45.8786L25.6869 33.4057C25.3994 32.3611 24.7166 31.5286 23.8475 31.0311C23.1755 30.6466 22.3905 30.4646 21.5892 30.5282C21.3135 29.7215 21.04 28.916 20.7557 28.1126C20.5586 27.5526 19.9448 27.2597 19.3848 27.4568C18.8248 27.6539 18.5318 28.2677 18.7289 28.8277C18.996 29.5805 19.2534 30.3365 19.5118 31.0925C18.7623 31.4414 18.1549 32.0014 17.7618 32.6874C17.2632 33.5565 17.0942 34.6172 17.3763 35.6543L17.3806 35.6672L17.3828 35.6759L17.386 35.6748L20.816 48.1391C21.1025 49.1837 21.7852 50.0151 22.6543 50.5137C23.448 50.9682 24.3989 51.1286 25.3477 50.9445C25.5308 51.6811 25.7149 52.4177 25.8926 53.1575C26.8543 57.1734 27.7158 61.2323 28.5042 65.3214C24.1082 59.3746 16.7635 54.7686 11.0418 53.3385C10.4657 53.1952 9.87985 53.5452 9.73554 54.1235C9.59123 54.6997 9.94231 55.2845 10.5195 55.4299C18.7085 57.476 28.3738 65.5045 29.9462 73.4026ZM46.6212 49.2451L51.0022 35.4992H51.0054L51.0172 35.4605C51.1669 35.0211 51.4878 34.6808 51.882 34.4859C52.2848 34.2866 52.7608 34.236 53.2131 34.376L53.212 34.3792L53.2508 34.3922L53.2529 34.39L53.9723 34.6312C54.4289 34.7842 54.7789 35.1105 54.9803 35.5154C55.1871 35.93 55.2388 36.4243 55.088 36.8949L50.7071 50.6408H50.7049L50.692 50.6785C50.5423 51.1168 50.2225 51.4582 49.8272 51.6531C49.4245 51.8523 48.9463 51.9029 48.4929 51.7619L48.494 51.7597L48.4542 51.7468L47.7369 51.5066C47.2825 51.3548 46.9314 51.0285 46.73 50.6235C46.5222 50.21 46.4715 49.7157 46.6212 49.2451ZM23.7226 48.6474C23.3252 48.4191 23.0129 48.0432 22.8858 47.5769L19.4526 35.1008V35.0932H19.4537C19.3277 34.6269 19.4042 34.1499 19.6292 33.7579C19.8554 33.3615 20.2291 33.0525 20.6922 32.9254H20.6997V32.9275L21.4385 32.7262C21.9069 32.5991 22.3862 32.6755 22.7792 32.9006C23.1777 33.1279 23.4889 33.5037 23.6171 33.9711L27.0503 46.4472V46.4515L27.0514 46.4548L27.0482 46.4569C27.1752 46.9222 27.0977 47.3992 26.8726 47.7912C26.6454 48.1865 26.2728 48.4966 25.8097 48.6226H25.8054L25.8022 48.6237L25.8011 48.6205L25.0623 48.8229C24.5949 48.9489 24.1168 48.8725 23.7226 48.6474ZM33.3955 37.1523V19.0008C33.3955 18.5151 33.5948 18.0714 33.9157 17.7505C34.2366 17.4295 34.6803 17.2303 35.166 17.2303H35.9306C36.4174 17.2303 36.86 17.4295 37.1809 17.7505C37.5018 18.0714 37.7011 18.5151 37.7011 19.0008V37.1523C37.7011 37.638 37.5008 38.0817 37.1809 38.4026C36.86 38.7235 36.4174 38.9228 35.9306 38.9228H35.166C34.6803 38.9228 34.2366 38.7225 33.9157 38.4026C33.5948 38.0817 33.3955 37.6391 33.3955 37.1523ZM34.3863 64.0506C34.5242 66.5329 34.4682 69.6711 34.3885 74.0079L34.3669 75.1462C33.8242 75.0912 33.2803 75.0309 32.7343 74.948C32.7343 74.8726 32.7483 74.7983 32.7322 74.7208C31.8857 70.7437 32.5297 66.9831 34.3863 64.0506Z" fill="black"/>
</g>
</svg>
