<svg height='100px' width='100px'  fill="#000000" xmlns="http://www.w3.org/2000/svg" viewBox="0 0 48 48" x="0px" y="0px"><title>38. Soil</title><g data-name="38. Soil"><path d="M1,9c49.72,0,47,.43,47-1S50.71,7,1,7A1,1,0,0,0,1,9Z"></path><path d="M47,39c-49.72,0-47-.43-47,1s-2.71,1,47,1A1,1,0,0,0,47,39Z"></path><path d="M47,15c-49.72,0-47-.43-47,1s-2.71,1,47,1A1,1,0,0,0,47,15Z"></path><path d="M47,21c-2.33,0-2.6-2-5.75-2s-3.45,2-5.75,2-2.6-2-5.74-2S26.3,21,24,21s-2.6-2-5.75-2-3.45,2-5.75,2-2.6-2-5.76-2S3.34,21,1,21a1,1,0,0,0,0,2c3.15,0,3.42-2,5.75-2s2.6,2,5.76,2,3.45-2,5.75-2,2.6,2,5.75,2,3.45-2,5.75-2,2.6,2,5.74,2,3.46-2,5.75-2,2.6,2,5.75,2A1,1,0,0,0,47,21Z"></path><path d="M1,12a1,1,0,0,0,2,0A1,1,0,0,0,1,12Z"></path><path d="M5.8,11A1,1,0,1,0,7,12,1,1,0,0,0,5.8,11Z"></path><path d="M9,12a1,1,0,0,0,2,0A1,1,0,0,0,9,12Z"></path><path d="M13.29,12.71a1,1,0,0,0,1.63-1.09C14.31,10.16,12.16,11.58,13.29,12.71Z"></path><path d="M18.2,11a1,1,0,1,0,.8,1A1,1,0,0,0,18.2,11Z"></path><path d="M21,12a1,1,0,0,0,2,0A1,1,0,0,0,21,12Z"></path><path d="M25.29,12.71a1,1,0,0,0,1.42-1.42A1,1,0,0,0,25.29,12.71Z"></path><path d="M30.19,11A1,1,0,1,0,31,12,1,1,0,0,0,30.19,11Z"></path><path d="M33.8,11A1,1,0,1,0,35,12,1,1,0,0,0,33.8,11Z"></path><path d="M38.38,11.08A1,1,0,1,0,38,13,1,1,0,0,0,38.38,11.08Z"></path><path d="M41,12a1,1,0,0,0,2,0A1,1,0,0,0,41,12Z"></path><path d="M45.29,11.29a1,1,0,0,0,1.42,1.42A1,1,0,0,0,45.29,11.29Z"></path><path d="M6,26c-3.58,0-5-.35-5,1s1.36,1,5,1A1,1,0,0,0,6,26Z"></path><path d="M4,34a1,1,0,0,0,0,2c3.58,0,5,.35,5-1S7.64,34,4,34Z"></path><path d="M8,31c0,1.33,1.36,1,5,1a1,1,0,0,0,0-2C9.42,30,8,29.65,8,31Z"></path><path d="M17,26c-3.58,0-5-.35-5,1s1.36,1,5,1A1,1,0,0,0,17,26Z"></path><path d="M15,34a1,1,0,0,0,0,2c3.58,0,5,.35,5-1S18.64,34,15,34Z"></path><path d="M19,31c0,1.33,1.36,1,5,1a1,1,0,0,0,0-2C20.42,30,19,29.65,19,31Z"></path><path d="M28,26c-3.58,0-5-.35-5,1s1.36,1,5,1A1,1,0,0,0,28,26Z"></path><path d="M26,34a1,1,0,0,0,0,2c3.58,0,5,.35,5-1S29.63,34,26,34Z"></path><path d="M30,31c0,1.33,1.37,1,5,1a1,1,0,0,0,0-2C31.42,30,30,29.65,30,31Z"></path><path d="M39,26c-3.58,0-5-.35-5,1s1.37,1,5,1A1,1,0,0,0,39,26Z"></path><path d="M37,34a1,1,0,0,0,0,2c3.58,0,5,.35,5-1S40.63,34,37,34Z"></path><path d="M46,32a1,1,0,0,0,0-2c-3.58,0-5-.35-5,1S42.37,32,46,32Z"></path></g></svg>