<svg width="71" height="70" viewBox="0 0 71 70" fill="none" xmlns="http://www.w3.org/2000/svg">
<g clip-path="url(#clip0)">
<path d="M3.93114 14.4123C72.1743 14.4123 68.441 15.0025 68.441 13.0398C68.441 11.077 72.1606 11.6672 3.93114 11.6672C3.56712 11.6672 3.21801 11.8118 2.9606 12.0692C2.7032 12.3266 2.55859 12.6757 2.55859 13.0398C2.55859 13.4038 2.7032 13.7529 2.9606 14.0103C3.21801 14.2677 3.56712 14.4123 3.93114 14.4123Z" fill="black"/>
<path d="M67.0696 55.5891C-1.17359 55.5891 2.55975 54.9989 2.55975 56.9616C2.55975 58.9244 -1.15986 58.3342 67.0696 58.3342C67.4336 58.3342 67.7827 58.1896 68.0401 57.9322C68.2975 57.6748 68.4421 57.3257 68.4421 56.9616C68.4421 56.5976 68.2975 56.2485 68.0401 55.9911C67.7827 55.7337 67.4336 55.5891 67.0696 55.5891Z" fill="black"/>
<path d="M67.0696 22.6477C-1.17359 22.6477 2.55975 22.0575 2.55975 24.0202C2.55975 25.983 -1.15986 25.3928 67.0696 25.3928C67.4336 25.3928 67.7827 25.2482 68.0401 24.9908C68.2975 24.7334 68.4421 24.3843 68.4421 24.0202C68.4421 23.6562 68.2975 23.3071 68.0401 23.0497C67.7827 22.7923 67.4336 22.6477 67.0696 22.6477Z" fill="black"/>
<path d="M67.0684 30.8838C63.8704 30.8838 63.4998 28.1387 59.1762 28.1387C54.8527 28.1387 54.4409 30.8838 51.2841 30.8838C48.1272 30.8838 47.7155 28.1387 43.4057 28.1387C39.0958 28.1387 38.6566 30.8838 35.4998 30.8838C32.3429 30.8838 31.9311 28.1387 27.6076 28.1387C23.2841 28.1387 22.8723 30.8838 19.7155 30.8838C16.5586 30.8838 16.1468 28.1387 11.8096 28.1387C7.47232 28.1387 7.14291 30.8838 3.93114 30.8838C3.56712 30.8838 3.21801 31.0284 2.9606 31.2858C2.7032 31.5432 2.55859 31.8923 2.55859 32.2563C2.55859 32.6203 2.7032 32.9695 2.9606 33.2269C3.21801 33.4843 3.56712 33.6289 3.93114 33.6289C8.25467 33.6289 8.62526 30.8838 11.8233 30.8838C15.0213 30.8838 15.3919 33.6289 19.7292 33.6289C24.0664 33.6289 24.4645 30.8838 27.6213 30.8838C30.7782 30.8838 31.19 33.6289 35.5135 33.6289C39.837 33.6289 40.2488 30.8838 43.4057 30.8838C46.5625 30.8838 46.9743 33.6289 51.2841 33.6289C55.5939 33.6289 56.0331 30.8838 59.1762 30.8838C62.3194 30.8838 62.7449 33.6289 67.0684 33.6289C67.4324 33.6289 67.7815 33.4843 68.0389 33.2269C68.2963 32.9695 68.4409 32.6203 68.4409 32.2563C68.4409 31.8923 68.2963 31.5432 68.0389 31.2858C67.7815 31.0284 67.4324 30.8838 67.0684 30.8838Z" fill="black"/>
<path d="M3.93359 18.5308C3.93359 18.8948 4.0782 19.2439 4.3356 19.5013C4.59301 19.7587 4.94212 19.9033 5.30614 19.9033C5.67017 19.9033 6.01928 19.7587 6.27668 19.5013C6.53409 19.2439 6.67869 18.8948 6.67869 18.5308C6.67869 18.1667 6.53409 17.8176 6.27668 17.5602C6.01928 17.3028 5.67017 17.1582 5.30614 17.1582C4.94212 17.1582 4.59301 17.3028 4.3356 17.5602C4.0782 17.8176 3.93359 18.1667 3.93359 18.5308Z" fill="black"/>
<path d="M10.5196 17.1567C10.2664 17.2085 10.0328 17.3307 9.84597 17.5093C9.65911 17.688 9.52649 17.9157 9.46339 18.1664C9.40029 18.4171 9.40927 18.6805 9.4893 18.9263C9.56932 19.1722 9.71714 19.3904 9.91574 19.5559C10.1143 19.7214 10.3556 19.8274 10.6118 19.8618C10.8681 19.8962 11.1288 19.8575 11.364 19.7502C11.5992 19.643 11.7993 19.4715 11.9413 19.2554C12.0833 19.0394 12.1615 18.7877 12.1667 18.5292C12.1709 18.3234 12.1287 18.1192 12.0432 17.9319C11.9578 17.7446 11.8313 17.5788 11.6731 17.447C11.5149 17.3152 11.3291 17.2207 11.1295 17.1704C10.9298 17.1202 10.7214 17.1155 10.5196 17.1567Z" fill="black"/>
<path d="M14.9141 18.5308C14.9141 18.8948 15.0587 19.2439 15.3161 19.5013C15.5735 19.7587 15.9226 19.9033 16.2866 19.9033C16.6506 19.9033 16.9997 19.7587 17.2571 19.5013C17.5146 19.2439 17.6592 18.8948 17.6592 18.5308C17.6592 18.1667 17.5146 17.8176 17.2571 17.5602C16.9997 17.3028 16.6506 17.1582 16.2866 17.1582C15.9226 17.1582 15.5735 17.3028 15.3161 17.5602C15.0587 17.8176 14.9141 18.1667 14.9141 18.5308Z" fill="black"/>
<path d="M20.8027 19.5042C21.0274 19.728 21.3227 19.867 21.6383 19.8977C21.954 19.9284 22.2705 19.8488 22.5341 19.6726C22.7977 19.4963 22.9922 19.2342 23.0844 18.9307C23.1766 18.6273 23.1609 18.3013 23.04 18.0082C22.2027 16.0042 19.2517 17.9533 20.8027 19.5042Z" fill="black"/>
<path d="M27.5413 17.1566C27.2649 17.1002 26.9779 17.1304 26.7193 17.2429C26.4607 17.3555 26.243 17.545 26.0959 17.7857C25.9489 18.0263 25.8795 18.3065 25.8973 18.588C25.915 18.8695 26.0191 19.1386 26.1953 19.3589C26.3715 19.5791 26.6113 19.7397 26.882 19.8189C27.1527 19.898 27.4412 19.8918 27.7083 19.8011C27.9754 19.7105 28.2081 19.5397 28.3747 19.3121C28.5412 19.0845 28.6337 18.8111 28.6394 18.5291C28.6458 18.208 28.5395 17.8948 28.3389 17.644C28.1382 17.3932 27.856 17.2207 27.5413 17.1566Z" fill="black"/>
<path d="M31.3828 18.5308C31.3828 18.8948 31.5274 19.2439 31.7848 19.5013C32.0422 19.7587 32.3913 19.9033 32.7554 19.9033C33.1194 19.9033 33.4685 19.7587 33.7259 19.5013C33.9833 19.2439 34.1279 18.8948 34.1279 18.5308C34.1279 18.1667 33.9833 17.8176 33.7259 17.5602C33.4685 17.3028 33.1194 17.1582 32.7554 17.1582C32.3913 17.1582 32.0422 17.3028 31.7848 17.5602C31.5274 17.8176 31.3828 18.1667 31.3828 18.5308Z" fill="black"/>
<path d="M37.2708 19.505C37.5293 19.7635 37.8798 19.9087 38.2454 19.9087C38.6109 19.9087 38.9614 19.7635 39.2199 19.505C39.4783 19.2466 39.6235 18.896 39.6235 18.5305C39.6235 18.165 39.4783 17.8145 39.2199 17.556C39.0919 17.428 38.94 17.3265 38.7728 17.2572C38.6055 17.188 38.4263 17.1523 38.2454 17.1523C37.8798 17.1523 37.5293 17.2975 37.2708 17.556C37.1429 17.684 37.0414 17.8359 36.9721 18.0031C36.9028 18.1703 36.8672 18.3495 36.8672 18.5305C36.8672 18.896 37.0124 19.2466 37.2708 19.505Z" fill="black"/>
<path d="M43.9964 17.1578C43.7199 17.1043 43.4337 17.1372 43.1766 17.2519C42.9194 17.3666 42.7038 17.5577 42.5589 17.7991C42.414 18.0405 42.3469 18.3207 42.3667 18.6016C42.3864 18.8825 42.492 19.1505 42.6693 19.3693C42.8465 19.5881 43.0867 19.7471 43.3574 19.8247C43.6281 19.9023 43.916 19.8949 44.1823 19.8033C44.4486 19.7117 44.6802 19.5404 44.8458 19.3127C45.0115 19.085 45.103 18.8118 45.1082 18.5303C45.114 18.2073 45.0058 17.8925 44.8024 17.6414C44.599 17.3904 44.3136 17.2191 43.9964 17.1578Z" fill="black"/>
<path d="M48.9532 17.1567C48.6999 17.2085 48.4664 17.3307 48.2796 17.5093C48.0927 17.688 47.9601 17.9157 47.897 18.1664C47.8339 18.4171 47.8429 18.6805 47.9229 18.9263C48.0029 19.1722 48.1507 19.3904 48.3493 19.5559C48.5479 19.7214 48.7892 19.8274 49.0454 19.8618C49.3017 19.8962 49.5624 19.8575 49.7976 19.7502C50.0328 19.643 50.2329 19.4715 50.3749 19.2554C50.5169 19.0394 50.5951 18.7877 50.6003 18.5292C50.6045 18.3234 50.5623 18.1192 50.4768 17.9319C50.3914 17.7446 50.2649 17.5788 50.1067 17.447C49.9485 17.3152 49.7627 17.2207 49.5631 17.1704C49.3634 17.1202 49.155 17.1155 48.9532 17.1567Z" fill="black"/>
<path d="M55.2384 17.2679C55.0505 17.1879 54.8471 17.1508 54.6431 17.1594C54.4391 17.168 54.2396 17.222 54.059 17.3174C53.8785 17.4129 53.7216 17.5474 53.5997 17.7112C53.4777 17.875 53.3939 18.064 53.3542 18.2643C53.3146 18.4646 53.3201 18.6712 53.3705 18.8691C53.4208 19.067 53.5147 19.2512 53.6452 19.4082C53.7758 19.5652 53.9397 19.6912 54.1251 19.7768C54.3105 19.8624 54.5126 19.9056 54.7168 19.9032C55.0318 19.8995 55.3359 19.7876 55.5781 19.5862C55.8204 19.3848 55.9859 19.1062 56.0471 18.7972C56.1083 18.4882 56.0613 18.1676 55.914 17.8891C55.7668 17.6107 55.5282 17.3913 55.2384 17.2679Z" fill="black"/>
<path d="M58.8359 18.5308C58.8359 18.8948 58.9805 19.2439 59.2379 19.5013C59.4953 19.7587 59.8445 19.9033 60.2085 19.9033C60.5725 19.9033 60.9216 19.7587 61.179 19.5013C61.4364 19.2439 61.581 18.8948 61.581 18.5308C61.581 18.1667 61.4364 17.8176 61.179 17.5602C60.9216 17.3028 60.5725 17.1582 60.2085 17.1582C59.8445 17.1582 59.4953 17.3028 59.2379 17.5602C58.9805 17.8176 58.8359 18.1667 58.8359 18.5308Z" fill="black"/>
<path d="M64.724 17.556C64.4655 17.8145 64.3203 18.165 64.3203 18.5305C64.3203 18.896 64.4655 19.2466 64.724 19.505C64.9824 19.7635 65.333 19.9087 65.6985 19.9087C66.064 19.9087 66.4145 19.7635 66.673 19.505C66.9314 19.2466 67.0766 18.896 67.0766 18.5305C67.0766 18.165 66.9314 17.8145 66.673 17.556C66.4145 17.2975 66.064 17.1523 65.6985 17.1523C65.333 17.1523 64.9824 17.2975 64.724 17.556Z" fill="black"/>
<path d="M10.7963 37.7455C5.88261 37.7455 3.93359 37.2651 3.93359 39.118C3.93359 40.971 5.80026 40.4906 10.7963 40.4906C11.1604 40.4906 11.5095 40.346 11.7669 40.0886C12.0243 39.8311 12.1689 39.482 12.1689 39.118C12.1689 38.754 12.0243 38.4049 11.7669 38.1475C11.5095 37.8901 11.1604 37.7455 10.7963 37.7455Z" fill="black"/>
<path d="M8.04833 48.7259C7.68431 48.7259 7.33519 48.8705 7.07779 49.1279C6.82039 49.3853 6.67578 49.7345 6.67578 50.0985C6.67578 50.4625 6.82039 50.8116 7.07779 51.069C7.33519 51.3264 7.68431 51.471 8.04833 51.471C12.9621 51.471 14.9111 51.9514 14.9111 50.0985C14.9111 48.2455 13.0444 48.7259 8.04833 48.7259Z" fill="black"/>
<path d="M13.5391 44.6082C13.5391 46.4337 15.4057 45.9808 20.4018 45.9808C20.7658 45.9808 21.1149 45.8362 21.3723 45.5788C21.6297 45.3214 21.7744 44.9723 21.7744 44.6082C21.7744 44.2442 21.6297 43.8951 21.3723 43.6377C21.1149 43.3803 20.7658 43.2357 20.4018 43.2357C15.4881 43.2357 13.5391 42.7553 13.5391 44.6082Z" fill="black"/>
<path d="M25.894 37.7455C20.9803 37.7455 19.0312 37.2651 19.0312 39.118C19.0312 40.971 20.8979 40.4906 25.894 40.4906C26.258 40.4906 26.6071 40.346 26.8645 40.0886C27.1219 39.8311 27.2665 39.482 27.2665 39.118C27.2665 38.754 27.1219 38.4049 26.8645 38.1475C26.6071 37.8901 26.258 37.7455 25.894 37.7455Z" fill="black"/>
<path d="M23.1499 48.7259C22.7859 48.7259 22.4368 48.8705 22.1794 49.1279C21.922 49.3853 21.7773 49.7345 21.7773 50.0985C21.7773 50.4625 21.922 50.8116 22.1794 51.069C22.4368 51.3264 22.7859 51.471 23.1499 51.471C28.0636 51.471 30.0126 51.9514 30.0126 50.0985C30.0126 48.2455 28.146 48.7259 23.1499 48.7259Z" fill="black"/>
<path d="M28.6367 44.6082C28.6367 46.4337 30.5034 45.9808 35.4995 45.9808C35.8635 45.9808 36.2126 45.8362 36.47 45.5788C36.7274 45.3214 36.872 44.9723 36.872 44.6082C36.872 44.2442 36.7274 43.8951 36.47 43.6377C36.2126 43.3803 35.8635 43.2357 35.4995 43.2357C30.5857 43.2357 28.6367 42.7553 28.6367 44.6082Z" fill="black"/>
<path d="M40.9916 37.7455C36.0779 37.7455 34.1289 37.2651 34.1289 39.118C34.1289 40.971 35.9956 40.4906 40.9916 40.4906C41.3557 40.4906 41.7048 40.346 41.9622 40.0886C42.2196 39.8311 42.3642 39.482 42.3642 39.118C42.3642 38.754 42.2196 38.4049 41.9622 38.1475C41.7048 37.8901 41.3557 37.7455 40.9916 37.7455Z" fill="black"/>
<path d="M38.2475 48.7259C37.8835 48.7259 37.5344 48.8705 37.277 49.1279C37.0196 49.3853 36.875 49.7345 36.875 50.0985C36.875 50.4625 37.0196 50.8116 37.277 51.069C37.5344 51.3264 37.8835 51.471 38.2475 51.471C43.1613 51.471 45.1103 51.9514 45.1103 50.0985C45.1103 48.2455 43.2299 48.7259 38.2475 48.7259Z" fill="black"/>
<path d="M43.7344 44.6082C43.7344 46.4337 45.6148 45.9808 50.5971 45.9808C50.9611 45.9808 51.3103 45.8362 51.5677 45.5788C51.8251 45.3214 51.9697 44.9723 51.9697 44.6082C51.9697 44.2442 51.8251 43.8951 51.5677 43.6377C51.3103 43.3803 50.9611 43.2357 50.5971 43.2357C45.6834 43.2357 43.7344 42.7553 43.7344 44.6082Z" fill="black"/>
<path d="M56.0893 37.7455C51.1756 37.7455 49.2266 37.2651 49.2266 39.118C49.2266 40.971 51.107 40.4906 56.0893 40.4906C56.4533 40.4906 56.8025 40.346 57.0599 40.0886C57.3173 39.8311 57.4619 39.482 57.4619 39.118C57.4619 38.754 57.3173 38.4049 57.0599 38.1475C56.8025 37.8901 56.4533 37.7455 56.0893 37.7455Z" fill="black"/>
<path d="M53.3452 48.7259C52.9812 48.7259 52.6321 48.8705 52.3747 49.1279C52.1173 49.3853 51.9727 49.7345 51.9727 50.0985C51.9727 50.4625 52.1173 50.8116 52.3747 51.069C52.6321 51.3264 52.9812 51.471 53.3452 51.471C58.2589 51.471 60.2079 51.9514 60.2079 50.0985C60.2079 48.2455 58.3276 48.7259 53.3452 48.7259Z" fill="black"/>
<path d="M65.6987 45.9808C66.0627 45.9808 66.4118 45.8362 66.6692 45.5788C66.9266 45.3214 67.0712 44.9723 67.0712 44.6082C67.0712 44.2442 66.9266 43.8951 66.6692 43.6377C66.4118 43.3803 66.0627 43.2357 65.6987 43.2357C60.785 43.2357 58.8359 42.7553 58.8359 44.6082C58.8359 46.4612 60.7163 45.9808 65.6987 45.9808Z" fill="black"/>
</g>
<defs>
<clipPath id="clip0">
<rect width="70" height="70" fill="white" transform="translate(0.5)"/>
</clipPath>
</defs>
</svg>
