<svg width="71" height="70" viewBox="0 0 71 70" fill="none" xmlns="http://www.w3.org/2000/svg">
<path d="M68.5715 34.1484L56.9854 14.0743C55.9844 12.3409 53.7625 11.7477 52.0298 12.7479L46.9321 15.6879C45.4534 16.5416 44.77 18.3212 45.2932 19.942L36.6175 20.1628C36.2856 20.1708 35.981 20.2819 35.7328 20.4652L31.719 23.1822L27.7052 20.2545C28.5055 18.5528 27.8661 16.5134 26.2359 15.5724L21.1382 12.6324C19.4055 11.6322 17.1835 12.2254 16.1826 13.9588L4.59578 34.0322C3.59485 35.7663 4.18805 37.9868 5.92217 38.9878L11.0199 41.9278C12.4812 42.7714 14.3308 42.4957 15.4811 41.2682L16.7094 42.5628C14.2478 46.0029 16 49.0512 19.666 50.0896C20.3046 52.396 22.2957 53.6279 24.6266 53.5622C25.2184 55.5691 27.0044 57.0023 29.0972 57.1257C30.8155 60.0614 33.124 60.9598 35.7335 58.9075C38.4419 60.6019 41.2686 59.3405 42.7761 56.78C44.6827 56.4712 45.8792 54.841 46.4955 53.1292C48.1986 52.9279 49.8093 52.2488 50.5136 50.5645C53.6174 50.1495 55.6893 47.0233 54.9049 43.9823L57.3087 40.9081C57.8131 41.6694 58.5658 42.1847 59.3957 42.4069C60.2891 42.6465 61.2785 42.5448 62.1459 42.044L67.2436 39.104C68.9792 38.1023 69.5724 35.8818 68.5715 34.1484ZM13.2816 39.0405C13.2116 39.1624 13.0954 39.2447 12.9655 39.2793C12.8334 39.3147 12.692 39.3031 12.5729 39.2353L12.5743 39.2324L7.48238 36.2924C7.24207 36.1539 7.15042 35.8262 7.28681 35.5838L18.8758 15.5176C19.0143 15.2773 19.342 15.1863 19.5844 15.322L24.675 18.2642C24.9153 18.4027 25.0062 18.7304 24.8705 18.9728L13.2816 39.0405ZM20.3075 47.0363C19.0519 46.6459 18.2977 46.1444 18.9703 44.8151C19.2749 44.2132 21.1014 41.5135 21.582 41.5157C23.0253 41.5208 22.9372 42.8529 22.4631 43.856C22.2019 44.105 20.3985 46.6401 20.3075 47.0363ZM25.0206 50.3978C24.1222 50.5616 23.0613 50.3927 22.7135 49.4257C22.4285 48.6319 24.5941 45.6414 26.0151 45.505C28.6765 45.2495 25.4363 49.7974 25.0206 50.3978ZM29.2495 54.0161C28.2818 53.9461 27.607 53.1797 27.5284 52.2358C28.3626 51.0299 29.3303 49.303 30.8956 49.1912C33.7028 48.9913 29.681 53.5182 29.2495 54.0161ZM33.0576 56.889C32.7646 56.9352 32.3894 56.6119 31.8734 55.725C32.1794 55.3584 33.5274 53.7744 33.6559 53.4114C33.697 53.2952 34.8206 53.6315 34.8971 53.9476C35.0689 54.6577 33.697 56.7894 33.0576 56.889ZM38.0284 56.5376C38.605 55.5684 38.0911 54.89 37.9569 54.7205C38.5335 55.2227 39.0856 55.6102 39.5727 55.9054C39.1614 56.3449 38.6468 56.6545 38.0284 56.5376ZM49.7811 47.4715C46.9797 46.454 44.8739 44.1035 43.1412 41.7697C41.9224 40.1258 39.4233 41.979 40.6422 43.6229C42.4355 46.0383 44.5405 48.3526 47.246 49.7533C46.8404 49.9771 46.1628 50.0463 45.7038 50.0795C43.5714 48.7791 41.9419 47.6627 40.2294 45.8189C38.8344 44.3193 36.5548 46.441 37.9497 47.9398C39.6687 49.7916 41.3328 51.0321 43.4609 52.3585C43.2278 52.9171 42.7898 53.7073 42.0963 53.7152C41.5904 53.5341 39.7192 52.7157 38.0349 50.0557C37.2649 48.8325 35.4023 49.2417 35.1815 50.6431C35.0638 50.6135 34.9447 50.589 34.8264 50.5688C35.5257 47.4866 33.0778 45.6147 30.0794 46.1581C30.1436 43.7095 28.3034 42.2359 25.8909 42.394C25.761 38.5974 20.4483 36.9094 18.4803 39.9209L17.1915 38.4956L26.1558 22.9693L28.9839 25.0325L27.5269 26.019C27.2549 26.2038 27.0593 26.4592 26.9496 26.745L23.5189 35.6343C23.1595 36.5638 23.695 37.3951 24.5696 37.7047C29.6904 39.516 33.5736 37.8064 35.6274 32.7823L40.075 32.1595C43.3166 37.1735 46.3483 41.6247 51.8884 44.7602C52.221 46.083 50.9921 47.7775 49.7811 47.4715ZM52.7688 41.6687C48.0398 38.759 45.2961 34.5056 42.2334 29.7586C41.8654 29.1878 41.3523 28.8378 40.6321 28.9374L34.3314 29.8199C33.7461 29.8827 33.2222 30.2753 33.0208 30.8692C31.9961 33.8677 30.3839 35.8226 27.034 35.1681L29.6767 28.3167L37.1465 23.2594L46.9682 23.0097L55.6287 38.0107L52.7688 41.6687ZM65.6849 36.41L60.5943 39.3522C60.3519 39.4886 60.0242 39.3977 59.8857 39.1566L48.2967 19.0905C48.1603 18.848 48.2512 18.5204 48.4923 18.3818L53.5828 15.4389C53.8253 15.3025 54.1529 15.3934 54.2915 15.6345L65.8797 35.7007C66.0161 35.9439 65.9252 36.2708 65.6849 36.41Z" fill="black"/>
</svg>
