<svg height='100px' width='100px'  fill="#000000" xmlns="http://www.w3.org/2000/svg" xmlns:xlink="http://www.w3.org/1999/xlink" version="1.1" x="0px" y="0px" viewBox="0 0 100 100" enable-background="new 0 0 100 100" xml:space="preserve"><g><path fill="none" d="M35.355,63.056c-1.969,0.189-4.97,4.333-4.575,5.433c0.482,1.341,1.952,1.574,3.197,1.347   C34.553,69.004,39.043,62.702,35.355,63.056z"></path><path fill="none" d="M45.942,74.013c-0.177,0.503-2.046,2.698-2.47,3.206c0.716,1.229,1.235,1.677,1.641,1.613   c0.886-0.138,2.787-3.092,2.548-4.075C47.556,74.318,46,73.852,45.942,74.013z"></path><path fill="none" d="M29.213,57.528c-0.666-0.002-3.197,3.738-3.619,4.572c-0.933,1.842,0.113,2.537,1.853,3.078   c0.126-0.549,2.625-4.063,2.988-4.407C31.091,59.381,31.213,57.535,29.213,57.528z"></path><path fill="none" d="M33.498,25.31l-7.054-4.077c-0.336-0.189-0.79-0.063-0.982,0.271L9.404,49.309   c-0.189,0.336-0.063,0.79,0.271,0.982l7.056,4.074l-0.002,0.004c0.166,0.093,0.362,0.11,0.544,0.061   c0.18-0.048,0.34-0.163,0.438-0.331l16.059-27.806C33.958,25.956,33.831,25.503,33.498,25.31z"></path><path fill="none" d="M42.118,68.165c-2.169,0.155-3.51,2.548-4.666,4.219c0.109,1.307,1.044,2.369,2.385,2.467   C40.435,74.16,46.008,67.887,42.118,68.165z"></path><path fill="none" d="M52.002,78.344c0.857,0.163,1.57-0.267,2.14-0.876c-0.674-0.409-1.44-0.945-2.239-1.642   C52.089,76.061,52.801,77.001,52.002,78.344z"></path><path fill="none" d="M50.78,32.23l-10.352,7.008l-3.662,9.494c4.642,0.907,6.876-1.802,8.296-5.957   c0.279-0.823,1.005-1.367,1.816-1.454l8.731-1.223c0.998-0.138,1.709,0.347,2.219,1.138c4.244,6.579,8.047,12.472,14.599,16.504   l3.963-5.069L64.389,31.884L50.78,32.23z"></path><path fill="none" d="M74.538,21.664c-0.192-0.333-0.646-0.459-0.982-0.271l-7.054,4.078c-0.333,0.192-0.459,0.646-0.271,0.982   L82.29,54.26c0.192,0.333,0.646,0.459,0.982,0.271l7.054-4.077c0.333-0.193,0.46-0.646,0.271-0.982L74.538,21.664z"></path><path fill="none" d="M54.839,44.563l-6.163,0.863c-2.847,6.961-8.228,9.331-15.323,6.821c-1.212-0.429-1.954-1.58-1.456-2.869   l4.754-12.318c0.152-0.396,0.423-0.75,0.8-1.006l2.019-1.367l-3.919-2.859L23.128,53.344l1.786,1.975   c2.727-4.173,10.088-1.834,10.269,3.427c3.343-0.219,5.893,1.823,5.804,5.216c4.156-0.753,7.547,1.841,6.578,6.112   c0.165,0.028,0.329,0.062,0.492,0.103c0.306-1.942,2.887-2.509,3.954-0.814c2.334,3.686,4.927,4.82,5.628,5.071   c0.961-0.011,1.568-1.106,1.891-1.88c-2.949-1.838-5.254-3.557-7.637-6.123c-1.933-2.077,1.226-5.017,3.159-2.939   c2.372,2.555,4.631,4.102,7.586,5.904c0.636-0.046,1.575-0.142,2.137-0.452c-3.749-1.941-6.665-5.148-9.151-8.495   c-1.689-2.278,1.774-4.845,3.463-2.568c2.401,3.234,5.319,6.492,9.201,7.901c1.678,0.424,3.381-1.924,2.92-3.758   C63.532,57.679,59.331,51.51,54.839,44.563z"></path><path d="M94.326,47.319L78.271,19.502c-1.387-2.402-4.466-3.224-6.867-1.838l-7.064,4.074c-2.049,1.183-2.996,3.649-2.271,5.895   l-12.022,0.306c-0.46,0.011-0.882,0.165-1.226,0.419l-5.562,3.765l-5.562-4.057c1.109-2.358,0.223-5.184-2.036-6.488l-7.064-4.074   c-2.401-1.386-5.48-0.564-6.867,1.838L5.674,47.158c-1.387,2.403-0.565,5.48,1.838,6.867l7.064,4.074   c2.025,1.169,4.588,0.787,6.182-0.914l1.702,1.794c-3.411,4.767-0.983,8.991,4.097,10.43c0.885,3.196,3.644,4.903,6.874,4.812   c0.82,2.781,3.295,4.767,6.195,4.938c2.381,4.068,5.58,5.313,9.196,2.469c3.753,2.348,7.67,0.6,9.759-2.948   c2.642-0.428,4.3-2.687,5.154-5.059c2.36-0.279,4.592-1.22,5.568-3.554c4.301-0.575,7.172-4.907,6.085-9.121l3.331-4.26   c0.699,1.055,1.742,1.769,2.892,2.077c1.238,0.332,2.609,0.191,3.811-0.503l7.064-4.074C94.891,52.798,95.713,49.721,94.326,47.319   z M17.71,54.098c-0.097,0.169-0.258,0.283-0.438,0.331c-0.183,0.049-0.379,0.033-0.544-0.061l0.002-0.004l-7.056-4.074   c-0.333-0.192-0.46-0.646-0.271-0.982l16.059-27.806c0.192-0.333,0.646-0.459,0.982-0.271l7.054,4.077   c0.333,0.192,0.459,0.646,0.271,0.982L17.71,54.098z M27.446,65.178c-1.74-0.541-2.785-1.236-1.853-3.078   c0.422-0.834,2.953-4.575,3.619-4.572c2,0.007,1.878,1.853,1.221,3.243C30.071,61.116,27.572,64.629,27.446,65.178z M33.977,69.836   c-1.245,0.227-2.715-0.007-3.197-1.347c-0.395-1.1,2.606-5.244,4.575-5.433C39.043,62.702,34.553,69.004,33.977,69.836z    M39.837,74.85c-1.341-0.097-2.276-1.159-2.385-2.467c1.156-1.671,2.497-4.064,4.666-4.219   C46.008,67.887,40.435,74.16,39.837,74.85z M45.114,78.831c-0.406,0.064-0.926-0.384-1.641-1.613   c0.424-0.508,2.292-2.703,2.47-3.206c0.057-0.161,1.614,0.305,1.72,0.743C47.901,75.739,46,78.693,45.114,78.831z M52.002,78.344   c0.799-1.343,0.087-2.283-0.099-2.518c0.799,0.696,1.564,1.233,2.239,1.642C53.572,78.077,52.859,78.506,52.002,78.344z    M68.288,65.781c-3.882-1.41-6.8-4.667-9.201-7.901c-1.689-2.278-5.152,0.29-3.463,2.568c2.485,3.347,5.402,6.554,9.151,8.495   c-0.562,0.31-1.501,0.406-2.137,0.452c-2.955-1.802-5.213-3.349-7.586-5.904c-1.933-2.078-5.092,0.862-3.159,2.939   c2.382,2.566,4.688,4.285,7.637,6.123c-0.323,0.774-0.93,1.869-1.891,1.88c-0.701-0.251-3.294-1.385-5.628-5.071   c-1.067-1.695-3.648-1.128-3.954,0.814c-0.163-0.041-0.328-0.075-0.492-0.103c0.969-4.271-2.423-6.865-6.578-6.112   c0.089-3.393-2.461-5.435-5.804-5.216c-0.18-5.261-7.542-7.6-10.269-3.427l-1.786-1.975L35.55,31.828l3.919,2.859l-2.019,1.367   c-0.377,0.256-0.648,0.61-0.8,1.006l-4.754,12.318c-0.498,1.288,0.244,2.44,1.456,2.869c7.096,2.51,12.477,0.141,15.323-6.821   l6.163-0.863c4.492,6.948,8.693,13.116,16.37,17.461C71.669,63.857,69.966,66.205,68.288,65.781z M72.428,57.74   c-6.553-4.032-10.355-9.926-14.599-16.504c-0.51-0.791-1.221-1.276-2.219-1.138l-8.731,1.223c-0.811,0.087-1.537,0.631-1.816,1.454   c-1.42,4.155-3.654,6.864-8.296,5.957l3.662-9.494L50.78,32.23l13.61-0.346l12.001,20.787L72.428,57.74z M90.326,50.453   l-7.054,4.077c-0.336,0.189-0.79,0.063-0.982-0.271L66.231,26.453c-0.189-0.336-0.063-0.79,0.271-0.982l7.054-4.078   c0.336-0.189,0.79-0.063,0.982,0.271L90.596,49.47C90.785,49.807,90.659,50.26,90.326,50.453z"></path></g></svg>