<svg width="71" height="70" viewBox="0 0 71 70" fill="none" xmlns="http://www.w3.org/2000/svg">
<path d="M67.8519 54.6777C66.8592 53.9429 65.9686 53.0793 65.2034 52.1098C63.3358 49.9443 61.2187 47.5293 56.9844 47.5293C52.7501 47.5293 50.6329 49.9443 48.7654 52.1098C47.0748 54.0498 45.7385 55.5793 42.9774 55.5793C40.2162 55.5793 38.8719 54.0498 37.1814 52.1098C35.3138 49.9443 33.1966 47.5293 28.9623 47.5293C24.728 47.5293 22.6109 49.9443 20.7433 52.1098C19.0608 54.0498 17.7245 55.5793 14.9553 55.5793C12.1861 55.5793 10.8579 54.0498 9.1674 52.1098C8.00966 50.5889 6.54857 49.3252 4.87675 48.3987C4.49549 48.2257 4.06184 48.2081 3.66778 48.3495C3.27372 48.4909 2.95024 48.7802 2.76594 49.1561C2.58165 49.5321 2.55104 49.965 2.6806 50.3631C2.81016 50.7612 3.0897 51.0932 3.45995 51.2886C4.73492 52.0393 5.84849 53.0352 6.7363 54.2188C8.61195 56.3843 10.7291 58.7993 14.9553 58.7993C19.1816 58.7993 21.3068 56.3843 23.1744 54.2188C24.8649 52.2788 26.2012 50.7493 28.9623 50.7493C31.7235 50.7493 33.0598 52.2788 34.7503 54.2188C36.6179 56.3843 38.7351 58.7993 42.9774 58.7993C47.2197 58.7993 49.3289 56.3843 51.1965 54.2188C52.8789 52.2788 54.2152 50.7493 56.9844 50.7493C59.7536 50.7493 61.0899 52.2788 62.7724 54.2188C63.7242 55.4161 64.8377 56.4754 66.0809 57.3664C66.2574 57.4869 66.4561 57.571 66.6654 57.6139C66.8747 57.6569 67.0905 57.6577 67.3001 57.6163C67.5098 57.575 67.7091 57.4924 67.8864 57.3732C68.0638 57.2541 68.2157 57.1008 68.3332 56.9224C68.4508 56.7439 68.5316 56.5439 68.571 56.3339C68.6105 56.1238 68.6077 55.9081 68.5629 55.6992C68.5181 55.4902 68.4322 55.2923 68.3101 55.117C68.188 54.9416 68.0323 54.7923 67.8519 54.6777Z" fill="black"/>
<path d="M67.8519 42.6035C66.8594 41.8684 65.9688 41.0049 65.2034 40.0355C63.3358 37.8701 61.2187 35.4551 56.9844 35.4551C52.7501 35.4551 50.6329 37.8701 48.7654 40.0355C47.0748 41.9756 45.7385 43.5051 42.9693 43.5051C40.2001 43.5051 38.8719 41.9756 37.1814 40.0355C35.3138 37.8701 33.1966 35.4551 28.9623 35.4551C24.728 35.4551 22.6109 37.8701 20.7433 40.0355C19.0608 41.9756 17.7245 43.5051 14.9553 43.5051C12.1861 43.5051 10.8579 41.9756 9.1674 40.0355C8.00966 38.5147 6.54857 37.251 4.87675 36.3245C4.49549 36.1515 4.06184 36.1338 3.66778 36.2753C3.27372 36.4167 2.95024 36.706 2.76594 37.0819C2.58165 37.4578 2.55104 37.8908 2.6806 38.2889C2.81016 38.687 3.0897 39.019 3.45995 39.2144C4.73492 39.9651 5.84849 40.961 6.7363 42.1446C8.61195 44.3101 10.7291 46.7251 14.9553 46.7251C19.1816 46.7251 21.3068 44.3101 23.1744 42.1446C24.8649 40.2046 26.1931 38.6751 28.9623 38.6751C31.7315 38.6751 33.0678 40.2046 34.7503 42.1446C36.6179 44.3101 38.735 46.7251 42.9693 46.7251C47.2036 46.7251 49.3208 44.3101 51.1884 42.1446C52.8789 40.2046 54.2152 38.6751 56.9844 38.6751C59.7536 38.6751 61.0899 40.2046 62.7724 42.1446C63.7242 43.3419 64.8376 44.4012 66.0809 45.2922C66.2574 45.4127 66.4561 45.4968 66.6654 45.5397C66.8747 45.5826 67.0905 45.5834 67.3001 45.5421C67.5098 45.5008 67.7091 45.4181 67.8864 45.299C68.0638 45.1798 68.2157 45.0266 68.3332 44.8481C68.4508 44.6697 68.5316 44.4696 68.571 44.2596C68.6105 44.0496 68.6077 43.8339 68.5629 43.625C68.5181 43.416 68.4322 43.2181 68.3101 43.0427C68.188 42.8674 68.0323 42.718 67.8519 42.6035Z" fill="black"/>
<path d="M67.8519 29.7226C66.8592 28.9878 65.9686 28.1242 65.2034 27.1547C63.3358 24.9892 61.2187 22.5742 56.9844 22.5742C52.7501 22.5742 50.6329 24.9892 48.7654 27.1547C47.0748 29.0947 45.7385 30.6242 42.9774 30.6242C40.2162 30.6242 38.8719 29.0947 37.1814 27.1547C35.3138 24.9892 33.1966 22.5742 28.9623 22.5742C24.728 22.5742 22.6109 24.9892 20.7433 27.1547C19.0608 29.0947 17.7245 30.6242 14.9553 30.6242C12.1861 30.6242 10.8579 29.0947 9.1674 27.1547C8.00966 25.6338 6.54857 24.3701 4.87675 23.4436C4.49549 23.2706 4.06184 23.253 3.66778 23.3944C3.27372 23.5358 2.95024 23.8251 2.76594 24.2011C2.58165 24.577 2.55104 25.0099 2.6806 25.408C2.81016 25.8061 3.0897 26.1381 3.45995 26.3336C4.73492 27.0843 5.84849 28.0802 6.7363 29.2638C8.61195 31.4292 10.7291 33.8442 14.9553 33.8442C19.1816 33.8442 21.3068 31.4292 23.1744 29.2638C24.8649 27.3237 26.2012 25.7942 28.9623 25.7942C31.7235 25.7942 33.0598 27.3237 34.7503 29.2638C36.6179 31.4292 38.7351 33.8442 42.9774 33.8442C47.2197 33.8442 49.3289 31.4292 51.1965 29.2638C52.8789 27.3237 54.2152 25.7942 56.9844 25.7942C59.7536 25.7942 61.0899 27.3237 62.7724 29.2638C63.7242 30.461 64.8377 31.5203 66.0809 32.4113C66.2574 32.5318 66.4561 32.6159 66.6654 32.6589C66.8747 32.7018 67.0905 32.7026 67.3001 32.6613C67.5098 32.6199 67.7091 32.5373 67.8864 32.4181C68.0638 32.299 68.2157 32.1457 68.3332 31.9673C68.4508 31.7888 68.5316 31.5888 68.571 31.3788C68.6105 31.1688 68.6077 30.953 68.5629 30.7441C68.5181 30.5352 68.4322 30.3372 68.3101 30.1619C68.188 29.9865 68.0323 29.8372 67.8519 29.7226Z" fill="black"/>
<path d="M67.8519 17.6484C66.8594 16.9134 65.9688 16.0498 65.2034 15.0805C63.3358 12.915 61.2187 10.5 56.9844 10.5C52.7501 10.5 50.6329 12.915 48.7654 15.0805C47.0748 17.0205 45.7385 18.55 42.9693 18.55C40.2001 18.55 38.8719 17.0205 37.1814 15.0805C35.3138 12.915 33.1966 10.5 28.9623 10.5C24.728 10.5 22.6109 12.915 20.7433 15.0805C19.0608 17.0205 17.7245 18.55 14.9553 18.55C12.1861 18.55 10.8579 17.0205 9.1674 15.0805C8.00966 13.5596 6.54857 12.2959 4.87675 11.3694C4.49549 11.1964 4.06184 11.1788 3.66778 11.3202C3.27372 11.4616 2.95024 11.7509 2.76594 12.1268C2.58165 12.5028 2.55104 12.9357 2.6806 13.3338C2.81016 13.7319 3.0897 14.0639 3.45995 14.2594C4.73492 15.01 5.84849 16.006 6.7363 17.1896C8.61195 19.355 10.7291 21.77 14.9553 21.77C19.1816 21.77 21.3068 19.355 23.1744 17.1896C24.8649 15.2495 26.1931 13.72 28.9623 13.72C31.7315 13.72 33.0678 15.2495 34.7503 17.1896C36.6179 19.355 38.735 21.77 42.9693 21.77C47.2036 21.77 49.3208 19.355 51.1884 17.1896C52.8789 15.2495 54.2152 13.72 56.9844 13.72C59.7536 13.72 61.0899 15.2495 62.7724 17.1896C63.7242 18.3869 64.8376 19.4462 66.0809 20.3371C66.2574 20.4576 66.4561 20.5417 66.6654 20.5846C66.8747 20.6276 67.0905 20.6284 67.3001 20.587C67.5098 20.5457 67.7091 20.4631 67.8864 20.3439C68.0638 20.2248 68.2157 20.0715 68.3332 19.8931C68.4508 19.7146 68.5316 19.5146 68.571 19.3046C68.6105 19.0946 68.6077 18.8788 68.5629 18.6699C68.5181 18.4609 68.4322 18.263 68.3101 18.0877C68.188 17.9123 68.0323 17.763 67.8519 17.6484Z" fill="black"/>
</svg>
