<?xml version="1.0" encoding="utf-8"?>
<!-- Generator: Adobe Illustrator 24.1.0, SVG Export Plug-In . SVG Version: 6.00 Build 0)  -->
<svg version="1.1" id="Layer_1" xmlns="http://www.w3.org/2000/svg" xmlns:xlink="http://www.w3.org/1999/xlink" x="0px" y="0px"
	 viewBox="0 0 63 56" style="enable-background:new 0 0 63 56;" xml:space="preserve">
<style type="text/css">
	.st0{stroke:#FFFFFF;}
</style>
<path class="st0" d="M42,18.3h-0.5v0.5v7.6h-9.6v-7.6v-0.5h-0.5h-7.6V8.6h7.6h0.5V8.1V0.5h9.6v7.6v0.5H42h7.6v9.6H42z M24.5,17v0.5
	H25h7.6v7.6v0.5h0.5h7.2h0.5v-0.5v-7.6h7.6H49V17V9.9V9.4h-0.5h-7.6V1.7V1.2h-0.5h-7.2h-0.5v0.5v7.6H25h-0.5v0.5V17z"/>
<path fill="#FFFFFF" d="M1.5,25.8L1.5,25.8c1.6,0,4.4,0.1,7.1,0.5c2.8,0.4,5.4,0.8,7.2,1.8L1.5,25.8z M1.5,25.8c-0.6,0-1.1,0.5-1.1,1.1
	S0.9,28,1.5,28v0h0c1.5,0,4.2,0.1,6.9,0.5c2.1,0.3,4.1,0.7,5.4,1.2l0.3,0.1l-0.1,0.3l-4.5,18l-0.1,0.3H9.1l-7.6,0l0,0
	c-0.6,0-1.1,0.5-1.1,1.1c0,0.6,0.5,1.1,1.1,1.1v0h0h8.7c0,0,0,0,0,0c0.5,0,0.9-0.4,1-0.8l0,0l0,0l0.1-0.3l0.1-0.4l0.4,0.1
	c1.5,0.5,2.9,0.9,4.3,1.4c5.9,2,11.9,3.9,19.4,5v0l0,0c0,0,0,0,0.1,0c0,0,0,0,0.1,0c1.2,0,2.4-0.4,4.3-1.1l0.1,0l0,0
	c1.9-0.7,4.2-1.6,6.7-2.7l0,0c2.5-1.1,5.1-2.2,7.7-3.4l0,0c2.5-1.1,5-2.2,7-3.1c0.4-0.2,0.7-0.6,0.7-1v0c0-1.2-0.5-2.3-1.2-3.1h0
	c-0.7-0.8-1.6-1.2-2.4-1.6h0c-0.8-0.3-1.6-0.5-2.2-0.6C56,39,55.8,39,55.6,38.9c-0.1,0-0.2,0-0.2,0c0,0,0,0-0.1,0l0,0c0,0,0,0,0,0v0
	l0,0c-3.4,0-6.8,0.9-10.1,2l-0.5,0.2l0-0.5c0-1.5-0.9-2.8-2.1-3.6l0.2-0.3L42.7,37c-1.1-0.8-2.5-1.4-3.8-1.7
	c-1.8-0.5-3.6-0.9-5.4-1.4c-4.8-1.2-9.6-2.5-14.4-3.7c0,0-0.1,0-0.1,0l0,0l0,0l0,0h0h0l0,0l0,0l0,0c0,0-0.1,0-0.1,0
	c-0.1,0-0.3,0-0.5,0c-0.4,0-0.9,0.1-1.5,0.1h0c0,0-0.1,0-0.2,0c0,0-0.1,0-0.1,0L16,30.5 M1.5,25.8L16,30.5 M16,30.5l0.2-0.6
	 M16,30.5l0.2-0.6 M16.2,29.9l0.2-0.6c0,0,0,0,0,0 M16.2,29.9l0.2-0.6 M16.3,29.3c0.1-0.4-0.1-1-0.5-1.2L16.3,29.3z M18.8,32.4
	L18.8,32.4L18.8,32.4l19.5,5.1c1.1,0.3,2.3,0.8,3.1,1.4c0.8,0.6,1.2,1.2,1.2,2v0.9v0.3L42.3,42c-1.3,0.5-2.5,0.9-3.8,1.2l-0.1,0
	l-0.1,0l-14.1-2.8l0,0l0,0c-0.3-0.1-0.6,0-0.8,0.1c-0.3,0.2-0.5,0.4-0.5,0.7c-0.1,0.3,0,0.6,0.2,0.8c0.2,0.3,0.4,0.4,0.7,0.5l0,0
	l0,0l14.5,2.9l0,0l0,0c0.2,0,0.4,0,0.5,0c1.7-0.5,3.4-1.1,5.1-1.7c1.1-0.4,2.2-0.8,3.3-1.1c2.8-0.9,5.5-1.6,8-1.5l0,0l0,0
	c0.1,0,1.3,0.1,2.5,0.6h0c0.6,0.3,1.2,0.6,1.6,1l0,0c0.1,0.1,0.2,0.3,0.2,0.4c0,0,0,0.1,0,0.1c0,0.1,0,0.1,0,0.1l0.2,0.4l-0.4,0.2
	c-1.8,0.8-3.9,1.7-6,2.6c-2.5,1.1-5.1,2.3-7.6,3.3c-2.5,1.1-4.8,2-6.6,2.7c-0.9,0.3-1.7,0.6-2.3,0.7c-0.3,0.1-0.6,0.1-0.8,0.2
	c-0.2,0-0.4,0.1-0.4,0.1l0,0l0,0c-7.1-1-13-3-18.9-4.9c-1.5-0.5-3-1-4.6-1.5L11.9,47l0.1-0.3l3.2-12.9l0,0l0,0c0,0,0,0,0,0
	c0-0.1,0.1-0.4,0.4-0.6l0,0l0,0c0,0,0,0,0,0c0.1-0.1,0.7-0.4,1.5-0.6C18,32.3,18.6,32.3,18.8,32.4C18.7,32.4,18.8,32.4,18.8,32.4z"
	/>
<path fill="#FFFFFF" d="M1.3,25.8c0,0,4,0,6.7,0.4s5.7,0.7,6.9,1.5c0.3,0.2,0.6,0.3,0.8,0.4c0.5,0.3,0.7,0.6,0.5,1.3c-0.3,1-0.3,1-0.3,1L1.3,25.8z"
	/>
</svg>
