<svg width="194" height="61" viewBox="0 0 194 61" fill="none" xmlns="http://www.w3.org/2000/svg">
<mask id="mask0" mask-type="alpha" maskUnits="userSpaceOnUse" x="0" y="0" width="194" height="61">
<path d="M44.4648 39.2009C44.4648 42.1875 43.9048 44.9875 42.7848 47.6009C41.6648 50.2142 40.1448 52.4809 38.2248 54.4009C36.3048 56.3209 34.0114 57.8409 31.3448 58.9609C28.7314 60.0275 25.9314 60.5609 22.9448 60.5609C20.8648 60.5609 18.8381 60.2675 16.8648 59.6809C14.8914 59.0942 13.0781 58.2675 11.4248 57.2009V60.0009H0.624756V4.00086L11.5848 1.60086V21.6009C13.2381 20.3742 15.0514 19.4409 17.0248 18.8009C19.0514 18.1075 21.1314 17.7609 23.2648 17.7609C26.1981 17.7609 28.9448 18.3209 31.5048 19.4409C34.1181 20.5609 36.3848 22.0809 38.3048 24.0009C40.2248 25.9209 41.7181 28.1875 42.7848 30.8009C43.9048 33.4142 44.4648 36.2142 44.4648 39.2009ZM21.5048 27.1209C19.5314 27.1209 17.6914 27.4675 15.9848 28.1609C14.2781 28.8009 12.8114 29.7609 11.5848 31.0409V47.4409C12.7581 48.6142 14.1981 49.5475 15.9048 50.2409C17.6648 50.9342 19.5314 51.2809 21.5048 51.2809C24.9181 51.2809 27.7981 50.1342 30.1448 47.8409C32.4914 45.4942 33.6648 42.6142 33.6648 39.2009C33.6648 35.7875 32.4648 32.9342 30.0648 30.6409C27.7181 28.2942 24.8648 27.1209 21.5048 27.1209Z" fill="black"/>
<path d="M88.8441 54.8009C86.2841 56.8809 83.6441 58.4009 80.9241 59.3609C78.2575 60.3209 75.2708 60.8009 71.9641 60.8009C68.8175 60.8009 65.8575 60.2409 63.0841 59.1209C60.3641 58.0009 57.9908 56.4809 55.9641 54.5609C53.9908 52.6409 52.4175 50.3742 51.2441 47.7609C50.1241 45.0942 49.5641 42.2409 49.5641 39.2009C49.5641 36.2142 50.0975 33.4142 51.1641 30.8009C52.2841 28.1342 53.8041 25.8409 55.7241 23.9209C57.6441 21.9475 59.9108 20.4009 62.5241 19.2809C65.1908 18.1609 68.0175 17.6009 71.0041 17.6009C73.9375 17.6009 76.6575 18.1875 79.1641 19.3609C81.7241 20.4809 83.9108 22.0275 85.7241 24.0009C87.5908 25.9742 89.0308 28.3475 90.0441 31.1209C91.1108 33.8409 91.6441 36.8009 91.6441 40.0009V42.8809H60.6041C61.3508 45.4942 62.7908 47.6009 64.9241 49.2009C67.0575 50.8009 69.5641 51.6009 72.4441 51.6009C74.2575 51.6009 75.9641 51.3075 77.5641 50.7209C79.1641 50.1342 80.5241 49.3075 81.6441 48.2409L88.8441 54.8009ZM70.7641 26.6409C68.2575 26.6409 66.0975 27.4142 64.2841 28.9609C62.4708 30.4542 61.2175 32.4809 60.5241 35.0409H80.9241C80.2308 32.5875 78.9508 30.5875 77.0841 29.0409C75.2708 27.4409 73.1641 26.6409 70.7641 26.6409Z" fill="black"/>
<path d="M98.3591 60.0009V18.3209H109.319V22.8809C110.652 21.0675 112.252 19.7075 114.119 18.8009C116.039 17.8409 118.146 17.3609 120.439 17.3609C121.506 17.4142 122.386 17.5209 123.079 17.6809C123.826 17.7875 124.466 18.0009 124.999 18.3209V27.9209C124.199 27.5475 123.319 27.2809 122.359 27.1209C121.399 26.9075 120.412 26.8009 119.399 26.8009C117.266 26.8009 115.292 27.3342 113.479 28.4009C111.719 29.4675 110.332 31.0142 109.319 33.0409V60.0009H98.3591Z" fill="black"/>
<path d="M162.057 60.0009V56.5609C160.404 57.8942 158.564 58.9075 156.537 59.6009C154.511 60.2409 152.404 60.5609 150.217 60.5609C147.284 60.5609 144.511 60.0009 141.897 58.8809C139.337 57.7609 137.097 56.2409 135.177 54.3209C133.257 52.4009 131.737 50.1342 130.617 47.5209C129.551 44.9075 129.017 42.1075 129.017 39.1209C129.017 36.1342 129.577 33.3342 130.697 30.7209C131.817 28.1075 133.337 25.8409 135.257 23.9209C137.177 22.0009 139.444 20.5075 142.057 19.4409C144.724 18.3209 147.551 17.7609 150.537 17.7609C152.564 17.7609 154.537 18.0542 156.457 18.6409C158.431 19.1742 160.244 19.9742 161.897 21.0409V4.00086L172.857 1.60086V60.0009H162.057ZM139.817 39.1209C139.817 42.4809 140.991 45.3342 143.337 47.6809C145.684 50.0275 148.564 51.2009 151.977 51.2009C154.004 51.2009 155.844 50.8542 157.497 50.1609C159.204 49.4675 160.671 48.4809 161.897 47.2009V30.9609C160.724 29.7342 159.257 28.7742 157.497 28.0809C155.791 27.3875 153.951 27.0409 151.977 27.0409C148.511 27.0409 145.604 28.2142 143.257 30.5609C140.964 32.8542 139.817 35.7075 139.817 39.1209Z" fill="black"/>
<path d="M186.924 13.3609C185.217 13.3609 183.751 12.7475 182.524 11.5209C181.297 10.2942 180.684 8.82753 180.684 7.12086C180.684 5.41419 181.297 3.94753 182.524 2.72086C183.751 1.49419 185.217 0.880859 186.924 0.880859C188.631 0.880859 190.097 1.49419 191.324 2.72086C192.551 3.94753 193.164 5.41419 193.164 7.12086C193.164 8.82753 192.551 10.2942 191.324 11.5209C190.097 12.7475 188.631 13.3609 186.924 13.3609ZM192.444 18.3209V60.0009H181.484V18.3209H192.444Z" fill="black"/>
</mask>
<g mask="url(#mask0)">
<path d="M44.4648 39.2009C44.4648 42.1875 43.9048 44.9875 42.7848 47.6009C41.6648 50.2142 40.1448 52.4809 38.2248 54.4009C36.3048 56.3209 34.0114 57.8409 31.3448 58.9609C28.7314 60.0275 25.9314 60.5609 22.9448 60.5609C20.8648 60.5609 18.8381 60.2675 16.8648 59.6809C14.8914 59.0942 13.0781 58.2675 11.4248 57.2009V60.0009H0.624756V4.00086L11.5848 1.60086V21.6009C13.2381 20.3742 15.0514 19.4409 17.0248 18.8009C19.0514 18.1075 21.1314 17.7609 23.2648 17.7609C26.1981 17.7609 28.9448 18.3209 31.5048 19.4409C34.1181 20.5609 36.3848 22.0809 38.3048 24.0009C40.2248 25.9209 41.7181 28.1875 42.7848 30.8009C43.9048 33.4142 44.4648 36.2142 44.4648 39.2009ZM21.5048 27.1209C19.5314 27.1209 17.6914 27.4675 15.9848 28.1609C14.2781 28.8009 12.8114 29.7609 11.5848 31.0409V47.4409C12.7581 48.6142 14.1981 49.5475 15.9048 50.2409C17.6648 50.9342 19.5314 51.2809 21.5048 51.2809C24.9181 51.2809 27.7981 50.1342 30.1448 47.8409C32.4914 45.4942 33.6648 42.6142 33.6648 39.2009C33.6648 35.7875 32.4648 32.9342 30.0648 30.6409C27.7181 28.2942 24.8648 27.1209 21.5048 27.1209Z" fill="black"/>
<path d="M88.8441 54.8009C86.2841 56.8809 83.6441 58.4009 80.9241 59.3609C78.2575 60.3209 75.2708 60.8009 71.9641 60.8009C68.8175 60.8009 65.8575 60.2409 63.0841 59.1209C60.3641 58.0009 57.9908 56.4809 55.9641 54.5609C53.9908 52.6409 52.4175 50.3742 51.2441 47.7609C50.1241 45.0942 49.5641 42.2409 49.5641 39.2009C49.5641 36.2142 50.0975 33.4142 51.1641 30.8009C52.2841 28.1342 53.8041 25.8409 55.7241 23.9209C57.6441 21.9475 59.9108 20.4009 62.5241 19.2809C65.1908 18.1609 68.0175 17.6009 71.0041 17.6009C73.9375 17.6009 76.6575 18.1875 79.1641 19.3609C81.7241 20.4809 83.9108 22.0275 85.7241 24.0009C87.5908 25.9742 89.0308 28.3475 90.0441 31.1209C91.1108 33.8409 91.6441 36.8009 91.6441 40.0009V42.8809H60.6041C61.3508 45.4942 62.7908 47.6009 64.9241 49.2009C67.0575 50.8009 69.5641 51.6009 72.4441 51.6009C74.2575 51.6009 75.9641 51.3075 77.5641 50.7209C79.1641 50.1342 80.5241 49.3075 81.6441 48.2409L88.8441 54.8009ZM70.7641 26.6409C68.2575 26.6409 66.0975 27.4142 64.2841 28.9609C62.4708 30.4542 61.2175 32.4809 60.5241 35.0409H80.9241C80.2308 32.5875 78.9508 30.5875 77.0841 29.0409C75.2708 27.4409 73.1641 26.6409 70.7641 26.6409Z" fill="black"/>
<path d="M98.3591 60.0009V18.3209H109.319V22.8809C110.652 21.0675 112.252 19.7075 114.119 18.8009C116.039 17.8409 118.146 17.3609 120.439 17.3609C121.506 17.4142 122.386 17.5209 123.079 17.6809C123.826 17.7875 124.466 18.0009 124.999 18.3209V27.9209C124.199 27.5475 123.319 27.2809 122.359 27.1209C121.399 26.9075 120.412 26.8009 119.399 26.8009C117.266 26.8009 115.292 27.3342 113.479 28.4009C111.719 29.4675 110.332 31.0142 109.319 33.0409V60.0009H98.3591Z" fill="black"/>
<path d="M162.057 60.0009V56.5609C160.404 57.8942 158.564 58.9075 156.537 59.6009C154.511 60.2409 152.404 60.5609 150.217 60.5609C147.284 60.5609 144.511 60.0009 141.897 58.8809C139.337 57.7609 137.097 56.2409 135.177 54.3209C133.257 52.4009 131.737 50.1342 130.617 47.5209C129.551 44.9075 129.017 42.1075 129.017 39.1209C129.017 36.1342 129.577 33.3342 130.697 30.7209C131.817 28.1075 133.337 25.8409 135.257 23.9209C137.177 22.0009 139.444 20.5075 142.057 19.4409C144.724 18.3209 147.551 17.7609 150.537 17.7609C152.564 17.7609 154.537 18.0542 156.457 18.6409C158.431 19.1742 160.244 19.9742 161.897 21.0409V4.00086L172.857 1.60086V60.0009H162.057ZM139.817 39.1209C139.817 42.4809 140.991 45.3342 143.337 47.6809C145.684 50.0275 148.564 51.2009 151.977 51.2009C154.004 51.2009 155.844 50.8542 157.497 50.1609C159.204 49.4675 160.671 48.4809 161.897 47.2009V30.9609C160.724 29.7342 159.257 28.7742 157.497 28.0809C155.791 27.3875 153.951 27.0409 151.977 27.0409C148.511 27.0409 145.604 28.2142 143.257 30.5609C140.964 32.8542 139.817 35.7075 139.817 39.1209Z" fill="black"/>
<path d="M186.924 13.3609C185.217 13.3609 183.751 12.7475 182.524 11.5209C181.297 10.2942 180.684 8.82753 180.684 7.12086C180.684 5.41419 181.297 3.94753 182.524 2.72086C183.751 1.49419 185.217 0.880859 186.924 0.880859C188.631 0.880859 190.097 1.49419 191.324 2.72086C192.551 3.94753 193.164 5.41419 193.164 7.12086C193.164 8.82753 192.551 10.2942 191.324 11.5209C190.097 12.7475 188.631 13.3609 186.924 13.3609ZM192.444 18.3209V60.0009H181.484V18.3209H192.444Z" fill="black"/>
<rect x="129" y="-5" width="70" height="66" fill="#20B1EF"/>
</g>
</svg>
