<svg width="189" height="60" viewBox="0 0 189 60" fill="none" xmlns="http://www.w3.org/2000/svg">
<mask id="mask0" mask-type="alpha" maskUnits="userSpaceOnUse" x="0" y="0" width="189" height="60">
<path d="M22.32 50.32C24.1867 50.32 25.92 49.9467 27.52 49.2C29.1733 48.4533 30.7467 47.28 32.24 45.68L38.8 52.48C36.6667 54.8267 34.1067 56.6667 31.12 58C28.1333 59.28 25.04 59.92 21.84 59.92C18.8 59.92 15.92 59.36 13.2 58.24C10.5333 57.12 8.21333 55.6 6.24 53.68C4.32 51.76 2.8 49.4933 1.68 46.88C0.56 44.2133 0 41.36 0 38.32C0 35.28 0.56 32.4533 1.68 29.84C2.8 27.1733 4.32 24.88 6.24 22.96C8.21333 20.9867 10.5333 19.44 13.2 18.32C15.92 17.2 18.8 16.64 21.84 16.64C25.1467 16.64 28.32 17.3067 31.36 18.64C34.4 19.92 36.9867 21.7333 39.12 24.08L32.4 31.2C30.9067 29.5467 29.3067 28.2933 27.6 27.44C25.8933 26.5867 24.0533 26.16 22.08 26.16C18.9333 26.16 16.2667 27.3333 14.08 29.68C11.9467 32.0267 10.88 34.9067 10.88 38.32C10.88 41.7333 11.9733 44.5867 14.16 46.88C16.4 49.1733 19.12 50.32 22.32 50.32Z" fill="#20B1EF"/>
<path d="M49.9381 12.48C48.2315 12.48 46.7648 11.8667 45.5381 10.64C44.3115 9.41334 43.6981 7.94667 43.6981 6.24C43.6981 4.53333 44.3115 3.06667 45.5381 1.84C46.7648 0.613333 48.2315 0 49.9381 0C51.6448 0 53.1115 0.613333 54.3381 1.84C55.5648 3.06667 56.1781 4.53333 56.1781 6.24C56.1781 7.94667 55.5648 9.41334 54.3381 10.64C53.1115 11.8667 51.6448 12.48 49.9381 12.48ZM55.4581 17.44V59.12H44.4981V17.44H55.4581Z" fill="#20B1EF"/>
<path d="M107.869 38.32C107.869 41.3067 107.309 44.1067 106.189 46.72C105.069 49.3333 103.549 51.6 101.629 53.52C99.7094 55.44 97.416 56.96 94.7494 58.08C92.136 59.1467 89.336 59.68 86.3494 59.68C84.2694 59.68 82.2427 59.3867 80.2694 58.8C78.296 58.2133 76.4827 57.3867 74.8294 56.32V59.12H64.0294V3.12L74.9894 0.720001V20.72C76.6427 19.4933 78.456 18.56 80.4294 17.92C82.456 17.2267 84.536 16.88 86.6694 16.88C89.6027 16.88 92.3494 17.44 94.9094 18.56C97.5227 19.68 99.7894 21.2 101.709 23.12C103.629 25.04 105.123 27.3067 106.189 29.92C107.309 32.5333 107.869 35.3333 107.869 38.32ZM84.9094 26.24C82.936 26.24 81.096 26.5867 79.3894 27.28C77.6827 27.92 76.216 28.88 74.9894 30.16V46.56C76.1627 47.7333 77.6027 48.6667 79.3094 49.36C81.0694 50.0533 82.936 50.4 84.9094 50.4C88.3227 50.4 91.2027 49.2533 93.5494 46.96C95.896 44.6133 97.0694 41.7333 97.0694 38.32C97.0694 34.9067 95.8694 32.0533 93.4694 29.76C91.1227 27.4133 88.2694 26.24 84.9094 26.24Z" fill="#20B1EF"/>
<path d="M152.249 53.92C149.689 56 147.049 57.52 144.329 58.48C141.662 59.44 138.675 59.92 135.369 59.92C132.222 59.92 129.262 59.36 126.489 58.24C123.769 57.12 121.395 55.6 119.369 53.68C117.395 51.76 115.822 49.4933 114.649 46.88C113.529 44.2133 112.969 41.36 112.969 38.32C112.969 35.3333 113.502 32.5333 114.569 29.92C115.689 27.2533 117.209 24.96 119.129 23.04C121.049 21.0667 123.315 19.52 125.929 18.4C128.595 17.28 131.422 16.72 134.409 16.72C137.342 16.72 140.062 17.3067 142.569 18.48C145.129 19.6 147.315 21.1467 149.129 23.12C150.995 25.0933 152.435 27.4667 153.449 30.24C154.515 32.96 155.049 35.92 155.049 39.12V42H124.009C124.755 44.6133 126.195 46.72 128.329 48.32C130.462 49.92 132.969 50.72 135.849 50.72C137.662 50.72 139.369 50.4267 140.969 49.84C142.569 49.2533 143.929 48.4267 145.049 47.36L152.249 53.92ZM134.169 25.76C131.662 25.76 129.502 26.5333 127.689 28.08C125.875 29.5733 124.622 31.6 123.929 34.16H144.329C143.635 31.7067 142.355 29.7067 140.489 28.16C138.675 26.56 136.569 25.76 134.169 25.76Z" fill="#20B1EF"/>
<path d="M161.764 59.12V17.44H172.724V22C174.057 20.1867 175.657 18.8267 177.524 17.92C179.444 16.96 181.55 16.48 183.844 16.48C184.91 16.5333 185.79 16.64 186.484 16.8C187.23 16.9067 187.87 17.12 188.404 17.44V27.04C187.604 26.6667 186.724 26.4 185.764 26.24C184.804 26.0267 183.817 25.92 182.804 25.92C180.67 25.92 178.697 26.4533 176.884 27.52C175.124 28.5867 173.737 30.1333 172.724 32.16V59.12H161.764Z" fill="#20B1EF"/>
</mask>
<g mask="url(#mask0)">
<path d="M22.32 50.32C24.1867 50.32 25.92 49.9467 27.52 49.2C29.1733 48.4533 30.7467 47.28 32.24 45.68L38.8 52.48C36.6667 54.8267 34.1067 56.6667 31.12 58C28.1333 59.28 25.04 59.92 21.84 59.92C18.8 59.92 15.92 59.36 13.2 58.24C10.5333 57.12 8.21333 55.6 6.24 53.68C4.32 51.76 2.8 49.4933 1.68 46.88C0.56 44.2133 0 41.36 0 38.32C0 35.28 0.56 32.4533 1.68 29.84C2.8 27.1733 4.32 24.88 6.24 22.96C8.21333 20.9867 10.5333 19.44 13.2 18.32C15.92 17.2 18.8 16.64 21.84 16.64C25.1467 16.64 28.32 17.3067 31.36 18.64C34.4 19.92 36.9867 21.7333 39.12 24.08L32.4 31.2C30.9067 29.5467 29.3067 28.2933 27.6 27.44C25.8933 26.5867 24.0533 26.16 22.08 26.16C18.9333 26.16 16.2667 27.3333 14.08 29.68C11.9467 32.0267 10.88 34.9067 10.88 38.32C10.88 41.7333 11.9733 44.5867 14.16 46.88C16.4 49.1733 19.12 50.32 22.32 50.32Z" fill="#66C8C3"/>
<path d="M49.9381 12.48C48.2315 12.48 46.7648 11.8667 45.5381 10.64C44.3115 9.41334 43.6981 7.94667 43.6981 6.24C43.6981 4.53333 44.3115 3.06667 45.5381 1.84C46.7648 0.613333 48.2315 0 49.9381 0C51.6448 0 53.1115 0.613333 54.3381 1.84C55.5648 3.06667 56.1781 4.53333 56.1781 6.24C56.1781 7.94667 55.5648 9.41334 54.3381 10.64C53.1115 11.8667 51.6448 12.48 49.9381 12.48ZM55.4581 17.44V59.12H44.4981V17.44H55.4581Z" fill="#66C8C3"/>
<path d="M107.869 38.32C107.869 41.3067 107.309 44.1067 106.189 46.72C105.069 49.3333 103.549 51.6 101.629 53.52C99.7094 55.44 97.416 56.96 94.7494 58.08C92.136 59.1467 89.336 59.68 86.3494 59.68C84.2694 59.68 82.2427 59.3867 80.2694 58.8C78.296 58.2133 76.4827 57.3867 74.8294 56.32V59.12H64.0294V3.12L74.9894 0.720001V20.72C76.6427 19.4933 78.456 18.56 80.4294 17.92C82.456 17.2267 84.536 16.88 86.6694 16.88C89.6027 16.88 92.3494 17.44 94.9094 18.56C97.5227 19.68 99.7894 21.2 101.709 23.12C103.629 25.04 105.123 27.3067 106.189 29.92C107.309 32.5333 107.869 35.3333 107.869 38.32ZM84.9094 26.24C82.936 26.24 81.096 26.5867 79.3894 27.28C77.6827 27.92 76.216 28.88 74.9894 30.16V46.56C76.1627 47.7333 77.6027 48.6667 79.3094 49.36C81.0694 50.0533 82.936 50.4 84.9094 50.4C88.3227 50.4 91.2027 49.2533 93.5494 46.96C95.896 44.6133 97.0694 41.7333 97.0694 38.32C97.0694 34.9067 95.8694 32.0533 93.4694 29.76C91.1227 27.4133 88.2694 26.24 84.9094 26.24Z" fill="#66C8C3"/>
<path d="M152.249 53.92C149.689 56 147.049 57.52 144.329 58.48C141.662 59.44 138.675 59.92 135.369 59.92C132.222 59.92 129.262 59.36 126.489 58.24C123.769 57.12 121.395 55.6 119.369 53.68C117.395 51.76 115.822 49.4933 114.649 46.88C113.529 44.2133 112.969 41.36 112.969 38.32C112.969 35.3333 113.502 32.5333 114.569 29.92C115.689 27.2533 117.209 24.96 119.129 23.04C121.049 21.0667 123.315 19.52 125.929 18.4C128.595 17.28 131.422 16.72 134.409 16.72C137.342 16.72 140.062 17.3067 142.569 18.48C145.129 19.6 147.315 21.1467 149.129 23.12C150.995 25.0933 152.435 27.4667 153.449 30.24C154.515 32.96 155.049 35.92 155.049 39.12V42H124.009C124.755 44.6133 126.195 46.72 128.329 48.32C130.462 49.92 132.969 50.72 135.849 50.72C137.662 50.72 139.369 50.4267 140.969 49.84C142.569 49.2533 143.929 48.4267 145.049 47.36L152.249 53.92ZM134.169 25.76C131.662 25.76 129.502 26.5333 127.689 28.08C125.875 29.5733 124.622 31.6 123.929 34.16H144.329C143.635 31.7067 142.355 29.7067 140.489 28.16C138.675 26.56 136.569 25.76 134.169 25.76Z" fill="#66C8C3"/>
<path d="M161.764 59.12V17.44H172.724V22C174.057 20.1867 175.657 18.8267 177.524 17.92C179.444 16.96 181.55 16.48 183.844 16.48C184.91 16.5333 185.79 16.64 186.484 16.8C187.23 16.9067 187.87 17.12 188.404 17.44V27.04C187.604 26.6667 186.724 26.4 185.764 26.24C184.804 26.0267 183.817 25.92 182.804 25.92C180.67 25.92 178.697 26.4533 176.884 27.52C175.124 28.5867 173.737 30.1333 172.724 32.16V59.12H161.764Z" fill="#66C8C3"/>
<rect x="60.311" y="-3.88086" width="128" height="67" fill="#26374A"/>
</g>
</svg>
