<svg width="331" height="159" viewBox="0 0 331 159" fill="none" xmlns="http://www.w3.org/2000/svg">
<path d="M72.447 90.8C72.447 95.28 71.607 99.48 69.927 103.4C68.247 107.32 65.967 110.72 63.087 113.6C60.207 116.48 56.767 118.76 52.767 120.44C48.847 122.04 44.647 122.84 40.167 122.84C37.047 122.84 34.007 122.4 31.047 121.52C28.087 120.64 25.367 119.4 22.887 117.8V122H6.68703V38L23.127 34.4V64.4C25.607 62.56 28.327 61.16 31.287 60.2C34.327 59.16 37.447 58.64 40.647 58.64C45.047 58.64 49.167 59.48 53.007 61.16C56.927 62.84 60.327 65.12 63.207 68C66.087 70.88 68.327 74.28 69.927 78.2C71.607 82.12 72.447 86.32 72.447 90.8ZM38.007 72.68C35.047 72.68 32.287 73.2 29.727 74.24C27.167 75.2 24.967 76.64 23.127 78.56V103.16C24.887 104.92 27.047 106.32 29.607 107.36C32.247 108.4 35.047 108.92 38.007 108.92C43.127 108.92 47.447 107.2 50.967 103.76C54.487 100.24 56.247 95.92 56.247 90.8C56.247 85.68 54.447 81.4 50.847 77.96C47.327 74.44 43.047 72.68 38.007 72.68ZM139.016 114.2C135.176 117.32 131.216 119.6 127.136 121.04C123.136 122.48 118.656 123.2 113.696 123.2C108.976 123.2 104.536 122.36 100.376 120.68C96.2961 119 92.7361 116.72 89.6961 113.84C86.7361 110.96 84.3761 107.56 82.6161 103.64C80.9361 99.64 80.0961 95.36 80.0961 90.8C80.0961 86.32 80.8961 82.12 82.4961 78.2C84.1761 74.2 86.4561 70.76 89.3361 67.88C92.2161 64.92 95.6161 62.6 99.5361 60.92C103.536 59.24 107.776 58.4 112.256 58.4C116.656 58.4 120.736 59.28 124.496 61.04C128.336 62.72 131.616 65.04 134.336 68C137.136 70.96 139.296 74.52 140.816 78.68C142.416 82.76 143.216 87.2 143.216 92V96.32H96.6561C97.7761 100.24 99.9361 103.4 103.136 105.8C106.336 108.2 110.096 109.4 114.416 109.4C117.136 109.4 119.696 108.96 122.096 108.08C124.496 107.2 126.536 105.96 128.216 104.36L139.016 114.2ZM111.896 71.96C108.136 71.96 104.896 73.12 102.176 75.44C99.4561 77.68 97.5761 80.72 96.5361 84.56H127.136C126.096 80.88 124.176 77.88 121.376 75.56C118.656 73.16 115.496 71.96 111.896 71.96ZM153.289 122V59.48H169.729V66.32C171.729 63.6 174.129 61.56 176.929 60.2C179.809 58.76 182.969 58.04 186.409 58.04C188.009 58.12 189.329 58.28 190.369 58.52C191.489 58.68 192.449 59 193.249 59.48V73.88C192.049 73.32 190.729 72.92 189.289 72.68C187.849 72.36 186.369 72.2 184.849 72.2C181.649 72.2 178.689 73 175.969 74.6C173.329 76.2 171.249 78.52 169.729 81.56V122H153.289Z" fill="white"/>
<path d="M248.836 122V116.84C246.356 118.84 243.596 120.36 240.556 121.4C237.516 122.36 234.356 122.84 231.076 122.84C226.676 122.84 222.516 122 218.596 120.32C214.756 118.64 211.396 116.36 208.516 113.48C205.636 110.6 203.356 107.2 201.676 103.28C200.076 99.36 199.276 95.16 199.276 90.68C199.276 86.2 200.116 82 201.796 78.08C203.476 74.16 205.756 70.76 208.636 67.88C211.516 65 214.916 62.76 218.836 61.16C222.836 59.48 227.076 58.64 231.556 58.64C234.596 58.64 237.556 59.08 240.436 59.96C243.396 60.76 246.116 61.96 248.596 63.56V38L265.036 34.4V122H248.836ZM215.476 90.68C215.476 95.72 217.236 100 220.756 103.52C224.276 107.04 228.596 108.8 233.716 108.8C236.756 108.8 239.516 108.28 241.996 107.24C244.556 106.2 246.756 104.72 248.596 102.8V78.44C246.836 76.6 244.636 75.16 241.996 74.12C239.436 73.08 236.676 72.56 233.716 72.56C228.516 72.56 224.156 74.32 220.636 77.84C217.196 81.28 215.476 85.56 215.476 90.68ZM286.136 52.04C283.576 52.04 281.376 51.12 279.536 49.28C277.696 47.44 276.776 45.24 276.776 42.68C276.776 40.12 277.696 37.92 279.536 36.08C281.376 34.24 283.576 33.32 286.136 33.32C288.696 33.32 290.896 34.24 292.736 36.08C294.576 37.92 295.496 40.12 295.496 42.68C295.496 45.24 294.576 47.44 292.736 49.28C290.896 51.12 288.696 52.04 286.136 52.04ZM294.416 59.48V122H277.976V59.48H294.416Z" fill="#66C8C3"/>
<path d="M317.686 47.8981L317.408 54.1019H318V25C317.686 25.639 316.878 27.2654 316.153 28.6595C315.428 30.0536 314.782 29.8677 314.55 29.6005L312.877 28.6595L314.131 35.5603C314.215 36.9823 313.516 36.5943 313.155 36.2225L310.228 32.8418C310.181 33.1206 310.033 33.8456 309.81 34.5147C309.587 35.1839 308.973 35.0492 308.694 34.8981L305.418 34.1662C305.558 34.7587 305.962 36.2853 306.464 37.6515C306.966 39.0177 306.371 39.336 306.011 39.3244L305 39.882L310.96 44.9705C311.713 45.3051 311.529 46.1555 311.343 46.5389L310.96 47.8981C312.598 47.7239 316.069 47.3405 316.85 47.2011C317.631 47.0617 317.733 47.6077 317.686 47.8981Z" fill="white"/>
<path d="M318.314 47.8981L318.592 54.1019H318V25C318.314 25.639 319.122 27.2654 319.847 28.6595C320.572 30.0536 321.218 29.8677 321.45 29.6005L323.123 28.6595L321.869 35.5603C321.785 36.9823 322.484 36.5943 322.845 36.2225L325.772 32.8418C325.819 33.1206 325.967 33.8456 326.19 34.5147C326.413 35.1839 327.027 35.0492 327.306 34.8981L330.582 34.1662C330.442 34.7587 330.038 36.2853 329.536 37.6515C329.034 39.0177 329.629 39.336 329.989 39.3244L331 39.882L325.04 44.9705C324.287 45.3051 324.471 46.1555 324.657 46.5389L325.04 47.8981C323.402 47.7239 319.931 47.3405 319.15 47.2011C318.369 47.0617 318.267 47.6077 318.314 47.8981Z" fill="white"/>
</svg>
