<svg width="325" height="159" viewBox="0 0 325 159" fill="none" xmlns="http://www.w3.org/2000/svg">
<path d="M37.2636 108.8C40.0636 108.8 42.6636 108.24 45.0636 107.12C47.5436 106 49.9036 104.24 52.1436 101.84L61.9836 112.04C58.7836 115.56 54.9436 118.32 50.4636 120.32C45.9836 122.24 41.3436 123.2 36.5436 123.2C31.9836 123.2 27.6636 122.36 23.5836 120.68C19.5836 119 16.1036 116.72 13.1436 113.84C10.2636 110.96 7.98359 107.56 6.30359 103.64C4.62359 99.64 3.78359 95.36 3.78359 90.8C3.78359 86.24 4.62359 82 6.30359 78.08C7.98359 74.08 10.2636 70.64 13.1436 67.76C16.1036 64.8 19.5836 62.48 23.5836 60.8C27.6636 59.12 31.9836 58.28 36.5436 58.28C41.5036 58.28 46.2636 59.28 50.8236 61.28C55.3836 63.2 59.2636 65.92 62.4636 69.44L52.3836 80.12C50.1436 77.64 47.7436 75.76 45.1836 74.48C42.6236 73.2 39.8636 72.56 36.9036 72.56C32.1836 72.56 28.1836 74.32 24.9036 77.84C21.7036 81.36 20.1036 85.68 20.1036 90.8C20.1036 95.92 21.7436 100.2 25.0236 103.64C28.3836 107.08 32.4636 108.8 37.2636 108.8ZM78.6908 52.04C76.1308 52.04 73.9308 51.12 72.0908 49.28C70.2508 47.44 69.3308 45.24 69.3308 42.68C69.3308 40.12 70.2508 37.92 72.0908 36.08C73.9308 34.24 76.1308 33.32 78.6908 33.32C81.2508 33.32 83.4508 34.24 85.2908 36.08C87.1308 37.92 88.0508 40.12 88.0508 42.68C88.0508 45.24 87.1308 47.44 85.2908 49.28C83.4508 51.12 81.2508 52.04 78.6908 52.04ZM86.9708 59.48V122H70.5308V59.48H86.9708Z" fill="#66C8C3"/>
<path d="M165.588 90.8C165.588 95.28 164.748 99.48 163.068 103.4C161.388 107.32 159.108 110.72 156.228 113.6C153.348 116.48 149.908 118.76 145.908 120.44C141.988 122.04 137.788 122.84 133.308 122.84C130.188 122.84 127.148 122.4 124.188 121.52C121.228 120.64 118.508 119.4 116.028 117.8V122H99.8277V38L116.268 34.4V64.4C118.748 62.56 121.468 61.16 124.428 60.2C127.468 59.16 130.588 58.64 133.788 58.64C138.188 58.64 142.308 59.48 146.148 61.16C150.068 62.84 153.468 65.12 156.348 68C159.228 70.88 161.468 74.28 163.068 78.2C164.748 82.12 165.588 86.32 165.588 90.8ZM131.148 72.68C128.188 72.68 125.428 73.2 122.868 74.24C120.308 75.2 118.108 76.64 116.268 78.56V103.16C118.028 104.92 120.188 106.32 122.748 107.36C125.388 108.4 128.188 108.92 131.148 108.92C136.268 108.92 140.588 107.2 144.108 103.76C147.628 100.24 149.388 95.92 149.388 90.8C149.388 85.68 147.588 81.4 143.988 77.96C140.468 74.44 136.188 72.68 131.148 72.68ZM232.157 114.2C228.317 117.32 224.357 119.6 220.277 121.04C216.277 122.48 211.797 123.2 206.837 123.2C202.117 123.2 197.677 122.36 193.517 120.68C189.437 119 185.877 116.72 182.837 113.84C179.877 110.96 177.517 107.56 175.757 103.64C174.077 99.64 173.237 95.36 173.237 90.8C173.237 86.32 174.037 82.12 175.637 78.2C177.317 74.2 179.597 70.76 182.477 67.88C185.357 64.92 188.757 62.6 192.677 60.92C196.677 59.24 200.917 58.4 205.397 58.4C209.797 58.4 213.877 59.28 217.637 61.04C221.477 62.72 224.757 65.04 227.477 68C230.277 70.96 232.437 74.52 233.957 78.68C235.557 82.76 236.357 87.2 236.357 92V96.32H189.797C190.917 100.24 193.077 103.4 196.277 105.8C199.477 108.2 203.237 109.4 207.557 109.4C210.277 109.4 212.837 108.96 215.237 108.08C217.637 107.2 219.677 105.96 221.357 104.36L232.157 114.2ZM205.037 71.96C201.277 71.96 198.037 73.12 195.317 75.44C192.597 77.68 190.717 80.72 189.677 84.56H220.277C219.237 80.88 217.317 77.88 214.517 75.56C211.797 73.16 208.637 71.96 205.037 71.96ZM246.429 122V59.48H262.869V66.32C264.869 63.6 267.269 61.56 270.069 60.2C272.949 58.76 276.109 58.04 279.549 58.04C281.149 58.12 282.469 58.28 283.509 58.52C284.629 58.68 285.589 59 286.389 59.48V73.88C285.189 73.32 283.869 72.92 282.429 72.68C280.989 72.36 279.509 72.2 277.989 72.2C274.789 72.2 271.829 73 269.109 74.6C266.469 76.2 264.389 78.52 262.869 81.56V122H246.429Z" fill="white"/>
<path d="M311.686 47.8981L311.408 54.1019H312V25C311.686 25.639 310.878 27.2654 310.153 28.6595C309.428 30.0536 308.782 29.8677 308.55 29.6005L306.877 28.6595L308.131 35.5603C308.215 36.9823 307.516 36.5943 307.155 36.2225L304.228 32.8418C304.181 33.1206 304.033 33.8456 303.81 34.5147C303.587 35.1839 302.973 35.0492 302.694 34.8981L299.418 34.1662C299.558 34.7587 299.962 36.2853 300.464 37.6515C300.966 39.0177 300.371 39.336 300.011 39.3244L299 39.882L304.96 44.9705C305.713 45.3051 305.529 46.1555 305.343 46.5389L304.96 47.8981C306.598 47.7239 310.069 47.3405 310.85 47.2011C311.631 47.0617 311.733 47.6077 311.686 47.8981Z" fill="white"/>
<path d="M312.314 47.8981L312.592 54.1019H312V25C312.314 25.639 313.122 27.2654 313.847 28.6595C314.572 30.0536 315.218 29.8677 315.45 29.6005L317.123 28.6595L315.869 35.5603C315.785 36.9823 316.484 36.5943 316.845 36.2225L319.772 32.8418C319.819 33.1206 319.967 33.8456 320.19 34.5147C320.413 35.1839 321.027 35.0492 321.306 34.8981L324.582 34.1662C324.442 34.7587 324.038 36.2853 323.536 37.6515C323.034 39.0177 323.629 39.336 323.989 39.3244L325 39.882L319.04 44.9705C318.287 45.3051 318.471 46.1555 318.657 46.5389L319.04 47.8981C317.402 47.7239 313.931 47.3405 313.15 47.2011C312.369 47.0617 312.267 47.6077 312.314 47.8981Z" fill="white"/>
</svg>
