<svg width="190" height="61" viewBox="0 0 190 61" fill="none" xmlns="http://www.w3.org/2000/svg">
<mask id="mask0" mask-type="alpha" maskUnits="userSpaceOnUse" x="0" y="0" width="190" height="61">
<path d="M23.009 51.2009C24.8756 51.2009 26.609 50.8275 28.209 50.0809C29.8623 49.3342 31.4356 48.1609 32.929 46.5609L39.489 53.3609C37.3556 55.7075 34.7956 57.5475 31.809 58.8809C28.8223 60.1609 25.729 60.8009 22.529 60.8009C19.489 60.8009 16.609 60.2409 13.889 59.1209C11.2223 58.0009 8.9023 56.4809 6.92897 54.5609C5.00897 52.6409 3.48897 50.3742 2.36897 47.7609C1.24897 45.0942 0.688965 42.2409 0.688965 39.2009C0.688965 36.1609 1.24897 33.3342 2.36897 30.7209C3.48897 28.0542 5.00897 25.7609 6.92897 23.8409C8.9023 21.8675 11.2223 20.3209 13.889 19.2009C16.609 18.0809 19.489 17.5209 22.529 17.5209C25.8356 17.5209 29.009 18.1875 32.049 19.5209C35.089 20.8009 37.6756 22.6142 39.809 24.9609L33.089 32.0809C31.5956 30.4275 29.9956 29.1742 28.289 28.3209C26.5823 27.4675 24.7423 27.0409 22.769 27.0409C19.6223 27.0409 16.9556 28.2142 14.769 30.5609C12.6356 32.9075 11.569 35.7875 11.569 39.2009C11.569 42.6142 12.6623 45.4675 14.849 47.7609C17.089 50.0542 19.809 51.2009 23.009 51.2009Z" fill="#20B1EF"/>
<path d="M50.6271 13.3609C48.9204 13.3609 47.4538 12.7475 46.2271 11.5209C45.0004 10.2942 44.3871 8.82753 44.3871 7.12086C44.3871 5.41419 45.0004 3.94753 46.2271 2.72086C47.4538 1.49419 48.9204 0.880859 50.6271 0.880859C52.3338 0.880859 53.8004 1.49419 55.0271 2.72086C56.2538 3.94753 56.8671 5.41419 56.8671 7.12086C56.8671 8.82753 56.2538 10.2942 55.0271 11.5209C53.8004 12.7475 52.3338 13.3609 50.6271 13.3609ZM56.1471 18.3209V60.0009H45.1871V18.3209H56.1471Z" fill="#20B1EF"/>
<path d="M108.558 39.2009C108.558 42.1875 107.998 44.9875 106.878 47.6009C105.758 50.2142 104.238 52.4809 102.318 54.4009C100.398 56.3209 98.105 57.8409 95.4383 58.9609C92.825 60.0275 90.025 60.5609 87.0383 60.5609C84.9583 60.5609 82.9317 60.2675 80.9583 59.6809C78.985 59.0942 77.1717 58.2675 75.5183 57.2009V60.0009H64.7183V4.00086L75.6783 1.60086V21.6009C77.3317 20.3742 79.145 19.4409 81.1183 18.8009C83.145 18.1075 85.225 17.7609 87.3583 17.7609C90.2917 17.7609 93.0383 18.3209 95.5983 19.4409C98.2117 20.5609 100.478 22.0809 102.398 24.0009C104.318 25.9209 105.812 28.1875 106.878 30.8009C107.998 33.4142 108.558 36.2142 108.558 39.2009ZM85.5983 27.1209C83.625 27.1209 81.785 27.4675 80.0783 28.1609C78.3717 28.8009 76.905 29.7609 75.6783 31.0409V47.4409C76.8517 48.6142 78.2917 49.5475 79.9983 50.2409C81.7583 50.9342 83.625 51.2809 85.5983 51.2809C89.0117 51.2809 91.8917 50.1342 94.2383 47.8409C96.585 45.4942 97.7583 42.6142 97.7583 39.2009C97.7583 35.7875 96.5583 32.9342 94.1583 30.6409C91.8117 28.2942 88.9583 27.1209 85.5983 27.1209Z" fill="#20B1EF"/>
<path d="M152.938 54.8009C150.378 56.8809 147.738 58.4009 145.018 59.3609C142.351 60.3209 139.364 60.8009 136.058 60.8009C132.911 60.8009 129.951 60.2409 127.178 59.1209C124.458 58.0009 122.084 56.4809 120.058 54.5609C118.084 52.6409 116.511 50.3742 115.338 47.7609C114.218 45.0942 113.658 42.2409 113.658 39.2009C113.658 36.2142 114.191 33.4142 115.258 30.8009C116.378 28.1342 117.898 25.8409 119.818 23.9209C121.738 21.9475 124.004 20.4009 126.618 19.2809C129.284 18.1609 132.111 17.6009 135.098 17.6009C138.031 17.6009 140.751 18.1875 143.258 19.3609C145.818 20.4809 148.004 22.0275 149.818 24.0009C151.684 25.9742 153.124 28.3475 154.138 31.1209C155.204 33.8409 155.738 36.8009 155.738 40.0009V42.8809H124.698C125.444 45.4942 126.884 47.6009 129.018 49.2009C131.151 50.8009 133.658 51.6009 136.538 51.6009C138.351 51.6009 140.058 51.3075 141.658 50.7209C143.258 50.1342 144.618 49.3075 145.738 48.2409L152.938 54.8009ZM134.858 26.6409C132.351 26.6409 130.191 27.4142 128.378 28.9609C126.564 30.4542 125.311 32.4809 124.618 35.0409H145.018C144.324 32.5875 143.044 30.5875 141.178 29.0409C139.364 27.4409 137.258 26.6409 134.858 26.6409Z" fill="#20B1EF"/>
<path d="M162.453 60.0009V18.3209H173.413V22.8809C174.746 21.0675 176.346 19.7075 178.213 18.8009C180.133 17.8409 182.239 17.3609 184.533 17.3609C185.599 17.4142 186.479 17.5209 187.173 17.6809C187.919 17.7875 188.559 18.0009 189.093 18.3209V27.9209C188.293 27.5475 187.413 27.2809 186.453 27.1209C185.493 26.9075 184.506 26.8009 183.493 26.8009C181.359 26.8009 179.386 27.3342 177.573 28.4009C175.813 29.4675 174.426 31.0142 173.413 33.0409V60.0009H162.453Z" fill="#20B1EF"/>
</mask>
<g mask="url(#mask0)">
<path d="M23.009 51.2009C24.8756 51.2009 26.609 50.8275 28.209 50.0809C29.8623 49.3342 31.4356 48.1609 32.929 46.5609L39.489 53.3609C37.3556 55.7075 34.7956 57.5475 31.809 58.8809C28.8223 60.1609 25.729 60.8009 22.529 60.8009C19.489 60.8009 16.609 60.2409 13.889 59.1209C11.2223 58.0009 8.9023 56.4809 6.92897 54.5609C5.00897 52.6409 3.48897 50.3742 2.36897 47.7609C1.24897 45.0942 0.688965 42.2409 0.688965 39.2009C0.688965 36.1609 1.24897 33.3342 2.36897 30.7209C3.48897 28.0542 5.00897 25.7609 6.92897 23.8409C8.9023 21.8675 11.2223 20.3209 13.889 19.2009C16.609 18.0809 19.489 17.5209 22.529 17.5209C25.8356 17.5209 29.009 18.1875 32.049 19.5209C35.089 20.8009 37.6756 22.6142 39.809 24.9609L33.089 32.0809C31.5956 30.4275 29.9956 29.1742 28.289 28.3209C26.5823 27.4675 24.7423 27.0409 22.769 27.0409C19.6223 27.0409 16.9556 28.2142 14.769 30.5609C12.6356 32.9075 11.569 35.7875 11.569 39.2009C11.569 42.6142 12.6623 45.4675 14.849 47.7609C17.089 50.0542 19.809 51.2009 23.009 51.2009Z" fill="#20B1EF"/>
<path d="M50.6271 13.3609C48.9204 13.3609 47.4538 12.7475 46.2271 11.5209C45.0004 10.2942 44.3871 8.82753 44.3871 7.12086C44.3871 5.41419 45.0004 3.94753 46.2271 2.72086C47.4538 1.49419 48.9204 0.880859 50.6271 0.880859C52.3338 0.880859 53.8004 1.49419 55.0271 2.72086C56.2538 3.94753 56.8671 5.41419 56.8671 7.12086C56.8671 8.82753 56.2538 10.2942 55.0271 11.5209C53.8004 12.7475 52.3338 13.3609 50.6271 13.3609ZM56.1471 18.3209V60.0009H45.1871V18.3209H56.1471Z" fill="#20B1EF"/>
<path d="M108.558 39.2009C108.558 42.1875 107.998 44.9875 106.878 47.6009C105.758 50.2142 104.238 52.4809 102.318 54.4009C100.398 56.3209 98.105 57.8409 95.4383 58.9609C92.825 60.0275 90.025 60.5609 87.0383 60.5609C84.9583 60.5609 82.9317 60.2675 80.9583 59.6809C78.985 59.0942 77.1717 58.2675 75.5183 57.2009V60.0009H64.7183V4.00086L75.6783 1.60086V21.6009C77.3317 20.3742 79.145 19.4409 81.1183 18.8009C83.145 18.1075 85.225 17.7609 87.3583 17.7609C90.2917 17.7609 93.0383 18.3209 95.5983 19.4409C98.2117 20.5609 100.478 22.0809 102.398 24.0009C104.318 25.9209 105.812 28.1875 106.878 30.8009C107.998 33.4142 108.558 36.2142 108.558 39.2009ZM85.5983 27.1209C83.625 27.1209 81.785 27.4675 80.0783 28.1609C78.3717 28.8009 76.905 29.7609 75.6783 31.0409V47.4409C76.8517 48.6142 78.2917 49.5475 79.9983 50.2409C81.7583 50.9342 83.625 51.2809 85.5983 51.2809C89.0117 51.2809 91.8917 50.1342 94.2383 47.8409C96.585 45.4942 97.7583 42.6142 97.7583 39.2009C97.7583 35.7875 96.5583 32.9342 94.1583 30.6409C91.8117 28.2942 88.9583 27.1209 85.5983 27.1209Z" fill="#20B1EF"/>
<path d="M152.938 54.8009C150.378 56.8809 147.738 58.4009 145.018 59.3609C142.351 60.3209 139.364 60.8009 136.058 60.8009C132.911 60.8009 129.951 60.2409 127.178 59.1209C124.458 58.0009 122.084 56.4809 120.058 54.5609C118.084 52.6409 116.511 50.3742 115.338 47.7609C114.218 45.0942 113.658 42.2409 113.658 39.2009C113.658 36.2142 114.191 33.4142 115.258 30.8009C116.378 28.1342 117.898 25.8409 119.818 23.9209C121.738 21.9475 124.004 20.4009 126.618 19.2809C129.284 18.1609 132.111 17.6009 135.098 17.6009C138.031 17.6009 140.751 18.1875 143.258 19.3609C145.818 20.4809 148.004 22.0275 149.818 24.0009C151.684 25.9742 153.124 28.3475 154.138 31.1209C155.204 33.8409 155.738 36.8009 155.738 40.0009V42.8809H124.698C125.444 45.4942 126.884 47.6009 129.018 49.2009C131.151 50.8009 133.658 51.6009 136.538 51.6009C138.351 51.6009 140.058 51.3075 141.658 50.7209C143.258 50.1342 144.618 49.3075 145.738 48.2409L152.938 54.8009ZM134.858 26.6409C132.351 26.6409 130.191 27.4142 128.378 28.9609C126.564 30.4542 125.311 32.4809 124.618 35.0409H145.018C144.324 32.5875 143.044 30.5875 141.178 29.0409C139.364 27.4409 137.258 26.6409 134.858 26.6409Z" fill="#20B1EF"/>
<path d="M162.453 60.0009V18.3209H173.413V22.8809C174.746 21.0675 176.346 19.7075 178.213 18.8009C180.133 17.8409 182.239 17.3609 184.533 17.3609C185.599 17.4142 186.479 17.5209 187.173 17.6809C187.919 17.7875 188.559 18.0009 189.093 18.3209V27.9209C188.293 27.5475 187.413 27.2809 186.453 27.1209C185.493 26.9075 184.506 26.8009 183.493 26.8009C181.359 26.8009 179.386 27.3342 177.573 28.4009C175.813 29.4675 174.426 31.0142 173.413 33.0409V60.0009H162.453Z" fill="#20B1EF"/>
<rect x="61" y="-3" width="128" height="67" fill="black"/>
</g>
</svg>
