<svg width="193" height="60" viewBox="0 0 193 60" fill="none" xmlns="http://www.w3.org/2000/svg">
<mask id="mask0" mask-type="alpha" maskUnits="userSpaceOnUse" x="0" y="0" width="193" height="60">
<path d="M43.84 38.32C43.84 41.3067 43.28 44.1067 42.16 46.72C41.04 49.3333 39.52 51.6 37.6 53.52C35.68 55.44 33.3867 56.96 30.72 58.08C28.1067 59.1467 25.3067 59.68 22.32 59.68C20.24 59.68 18.2133 59.3867 16.24 58.8C14.2667 58.2133 12.4533 57.3867 10.8 56.32V59.12H0V3.12L10.96 0.720001V20.72C12.6133 19.4933 14.4267 18.56 16.4 17.92C18.4267 17.2267 20.5067 16.88 22.64 16.88C25.5733 16.88 28.32 17.44 30.88 18.56C33.4933 19.68 35.76 21.2 37.68 23.12C39.6 25.04 41.0933 27.3067 42.16 29.92C43.28 32.5333 43.84 35.3333 43.84 38.32ZM20.88 26.24C18.9067 26.24 17.0667 26.5867 15.36 27.28C13.6533 27.92 12.1867 28.88 10.96 30.16V46.56C12.1333 47.7333 13.5733 48.6667 15.28 49.36C17.04 50.0533 18.9067 50.4 20.88 50.4C24.2933 50.4 27.1733 49.2533 29.52 46.96C31.8667 44.6133 33.04 41.7333 33.04 38.32C33.04 34.9067 31.84 32.0533 29.44 29.76C27.0933 27.4133 24.24 26.24 20.88 26.24Z" fill="black"/>
<path d="M88.2194 53.92C85.6594 56 83.0194 57.52 80.2994 58.48C77.6327 59.44 74.646 59.92 71.3394 59.92C68.1927 59.92 65.2327 59.36 62.4594 58.24C59.7394 57.12 57.366 55.6 55.3394 53.68C53.366 51.76 51.7927 49.4933 50.6194 46.88C49.4994 44.2133 48.9394 41.36 48.9394 38.32C48.9394 35.3333 49.4727 32.5333 50.5394 29.92C51.6594 27.2533 53.1794 24.96 55.0994 23.04C57.0194 21.0667 59.286 19.52 61.8994 18.4C64.566 17.28 67.3927 16.72 70.3794 16.72C73.3127 16.72 76.0327 17.3067 78.5394 18.48C81.0994 19.6 83.286 21.1467 85.0994 23.12C86.966 25.0933 88.406 27.4667 89.4194 30.24C90.486 32.96 91.0194 35.92 91.0194 39.12V42H59.9794C60.726 44.6133 62.166 46.72 64.2994 48.32C66.4327 49.92 68.9394 50.72 71.8194 50.72C73.6327 50.72 75.3394 50.4267 76.9394 49.84C78.5394 49.2533 79.8994 48.4267 81.0194 47.36L88.2194 53.92ZM70.1394 25.76C67.6327 25.76 65.4727 26.5333 63.6594 28.08C61.846 29.5733 60.5927 31.6 59.8994 34.16H80.2994C79.606 31.7067 78.326 29.7067 76.4594 28.16C74.646 26.56 72.5394 25.76 70.1394 25.76Z" fill="black"/>
<path d="M97.7344 59.12V17.44H108.694V22C110.028 20.1867 111.628 18.8267 113.494 17.92C115.414 16.96 117.521 16.48 119.814 16.48C120.881 16.5333 121.761 16.64 122.454 16.8C123.201 16.9067 123.841 17.12 124.374 17.44V27.04C123.574 26.6667 122.694 26.4 121.734 26.24C120.774 26.0267 119.788 25.92 118.774 25.92C116.641 25.92 114.668 26.4533 112.854 27.52C111.094 28.5867 109.708 30.1333 108.694 32.16V59.12H97.7344Z" fill="black"/>
<path d="M161.432 59.12V55.68C159.779 57.0133 157.939 58.0267 155.912 58.72C153.886 59.36 151.779 59.68 149.592 59.68C146.659 59.68 143.886 59.12 141.272 58C138.712 56.88 136.472 55.36 134.552 53.44C132.632 51.52 131.112 49.2533 129.992 46.64C128.926 44.0267 128.392 41.2267 128.392 38.24C128.392 35.2533 128.952 32.4533 130.072 29.84C131.192 27.2267 132.712 24.96 134.632 23.04C136.552 21.12 138.819 19.6267 141.432 18.56C144.099 17.44 146.926 16.88 149.912 16.88C151.939 16.88 153.912 17.1733 155.832 17.76C157.806 18.2933 159.619 19.0933 161.272 20.16V3.12L172.232 0.720001V59.12H161.432ZM139.192 38.24C139.192 41.6 140.366 44.4533 142.712 46.8C145.059 49.1467 147.939 50.32 151.352 50.32C153.379 50.32 155.219 49.9733 156.872 49.28C158.579 48.5867 160.046 47.6 161.272 46.32V30.08C160.099 28.8533 158.632 27.8933 156.872 27.2C155.166 26.5067 153.326 26.16 151.352 26.16C147.886 26.16 144.979 27.3333 142.632 29.68C140.339 31.9733 139.192 34.8267 139.192 38.24Z" fill="black"/>
<path d="M186.299 12.48C184.593 12.48 183.126 11.8667 181.899 10.64C180.673 9.41334 180.059 7.94667 180.059 6.24C180.059 4.53333 180.673 3.06667 181.899 1.84C183.126 0.613333 184.593 0 186.299 0C188.006 0 189.473 0.613333 190.699 1.84C191.926 3.06667 192.539 4.53333 192.539 6.24C192.539 7.94667 191.926 9.41334 190.699 10.64C189.473 11.8667 188.006 12.48 186.299 12.48ZM191.819 17.44V59.12H180.859V17.44H191.819Z" fill="black"/>
</mask>
<g mask="url(#mask0)">
<path d="M43.84 38.32C43.84 41.3067 43.28 44.1067 42.16 46.72C41.04 49.3333 39.52 51.6 37.6 53.52C35.68 55.44 33.3867 56.96 30.72 58.08C28.1067 59.1467 25.3067 59.68 22.32 59.68C20.24 59.68 18.2133 59.3867 16.24 58.8C14.2667 58.2133 12.4533 57.3867 10.8 56.32V59.12H0V3.12L10.96 0.720001V20.72C12.6133 19.4933 14.4267 18.56 16.4 17.92C18.4267 17.2267 20.5067 16.88 22.64 16.88C25.5733 16.88 28.32 17.44 30.88 18.56C33.4933 19.68 35.76 21.2 37.68 23.12C39.6 25.04 41.0933 27.3067 42.16 29.92C43.28 32.5333 43.84 35.3333 43.84 38.32ZM20.88 26.24C18.9067 26.24 17.0667 26.5867 15.36 27.28C13.6533 27.92 12.1867 28.88 10.96 30.16V46.56C12.1333 47.7333 13.5733 48.6667 15.28 49.36C17.04 50.0533 18.9067 50.4 20.88 50.4C24.2933 50.4 27.1733 49.2533 29.52 46.96C31.8667 44.6133 33.04 41.7333 33.04 38.32C33.04 34.9067 31.84 32.0533 29.44 29.76C27.0933 27.4133 24.24 26.24 20.88 26.24Z" fill="#26374A"/>
<path d="M88.2194 53.92C85.6594 56 83.0194 57.52 80.2994 58.48C77.6327 59.44 74.646 59.92 71.3394 59.92C68.1927 59.92 65.2327 59.36 62.4594 58.24C59.7394 57.12 57.366 55.6 55.3394 53.68C53.366 51.76 51.7927 49.4933 50.6194 46.88C49.4994 44.2133 48.9394 41.36 48.9394 38.32C48.9394 35.3333 49.4727 32.5333 50.5394 29.92C51.6594 27.2533 53.1794 24.96 55.0994 23.04C57.0194 21.0667 59.286 19.52 61.8994 18.4C64.566 17.28 67.3927 16.72 70.3794 16.72C73.3127 16.72 76.0327 17.3067 78.5394 18.48C81.0994 19.6 83.286 21.1467 85.0994 23.12C86.966 25.0933 88.406 27.4667 89.4194 30.24C90.486 32.96 91.0194 35.92 91.0194 39.12V42H59.9794C60.726 44.6133 62.166 46.72 64.2994 48.32C66.4327 49.92 68.9394 50.72 71.8194 50.72C73.6327 50.72 75.3394 50.4267 76.9394 49.84C78.5394 49.2533 79.8994 48.4267 81.0194 47.36L88.2194 53.92ZM70.1394 25.76C67.6327 25.76 65.4727 26.5333 63.6594 28.08C61.846 29.5733 60.5927 31.6 59.8994 34.16H80.2994C79.606 31.7067 78.326 29.7067 76.4594 28.16C74.646 26.56 72.5394 25.76 70.1394 25.76Z" fill="#26374A"/>
<path d="M97.7344 59.12V17.44H108.694V22C110.028 20.1867 111.628 18.8267 113.494 17.92C115.414 16.96 117.521 16.48 119.814 16.48C120.881 16.5333 121.761 16.64 122.454 16.8C123.201 16.9067 123.841 17.12 124.374 17.44V27.04C123.574 26.6667 122.694 26.4 121.734 26.24C120.774 26.0267 119.788 25.92 118.774 25.92C116.641 25.92 114.668 26.4533 112.854 27.52C111.094 28.5867 109.708 30.1333 108.694 32.16V59.12H97.7344Z" fill="#26374A"/>
<path d="M161.432 59.12V55.68C159.779 57.0133 157.939 58.0267 155.912 58.72C153.886 59.36 151.779 59.68 149.592 59.68C146.659 59.68 143.886 59.12 141.272 58C138.712 56.88 136.472 55.36 134.552 53.44C132.632 51.52 131.112 49.2533 129.992 46.64C128.926 44.0267 128.392 41.2267 128.392 38.24C128.392 35.2533 128.952 32.4533 130.072 29.84C131.192 27.2267 132.712 24.96 134.632 23.04C136.552 21.12 138.819 19.6267 141.432 18.56C144.099 17.44 146.926 16.88 149.912 16.88C151.939 16.88 153.912 17.1733 155.832 17.76C157.806 18.2933 159.619 19.0933 161.272 20.16V3.12L172.232 0.720001V59.12H161.432ZM139.192 38.24C139.192 41.6 140.366 44.4533 142.712 46.8C145.059 49.1467 147.939 50.32 151.352 50.32C153.379 50.32 155.219 49.9733 156.872 49.28C158.579 48.5867 160.046 47.6 161.272 46.32V30.08C160.099 28.8533 158.632 27.8933 156.872 27.2C155.166 26.5067 153.326 26.16 151.352 26.16C147.886 26.16 144.979 27.3333 142.632 29.68C140.339 31.9733 139.192 34.8267 139.192 38.24Z" fill="#26374A"/>
<path d="M186.299 12.48C184.593 12.48 183.126 11.8667 181.899 10.64C180.673 9.41334 180.059 7.94667 180.059 6.24C180.059 4.53333 180.673 3.06667 181.899 1.84C183.126 0.613333 184.593 0 186.299 0C188.006 0 189.473 0.613333 190.699 1.84C191.926 3.06667 192.539 4.53333 192.539 6.24C192.539 7.94667 191.926 9.41334 190.699 10.64C189.473 11.8667 188.006 12.48 186.299 12.48ZM191.819 17.44V59.12H180.859V17.44H191.819Z" fill="#26374A"/>
<rect x="128.375" y="-5.88086" width="70" height="66" fill="#66C8C3"/>
</g>
</svg>
