<svg width="24" height="26" viewBox="0 0 24 26" fill="none" xmlns="http://www.w3.org/2000/svg">
<path d="M11.9461 26C11.6597 26 11.4319 25.7599 11.4468 25.474L11.7097 20.4323C11.7139 20.3407 11.6975 20.2493 11.6618 20.1649C11.626 20.0805 11.5718 20.0052 11.5031 19.9446C11.4344 19.8839 11.3529 19.8394 11.2647 19.8144C11.1766 19.7894 11.0839 19.7845 10.9935 19.8L6.30277 20.6246C5.92408 20.6911 5.6151 20.3232 5.74613 19.9617L6.2 18.7097C6.23036 18.6275 6.23425 18.5379 6.21111 18.4535C6.18797 18.369 6.13896 18.2939 6.07097 18.2387L0.62147 13.8258C0.334375 13.5933 0.389847 13.1405 0.724568 12.9842L1.36774 12.6839C1.46012 12.6402 1.53338 12.5643 1.57377 12.4705C1.61416 12.3767 1.6189 12.2713 1.5871 12.1742L0.654863 9.30732C0.535847 8.94132 0.857644 8.58371 1.23413 8.66359L3.88387 9.22581C3.97861 9.24556 4.07726 9.23194 4.1631 9.18725C4.24893 9.14257 4.31668 9.06958 4.35484 8.98065L4.73108 8.09558C4.87268 7.76248 5.31032 7.68553 5.55705 7.95035L7.76129 10.3161C7.82369 10.3819 7.90575 10.4258 7.99515 10.441C8.08456 10.4562 8.1765 10.4421 8.25718 10.4007C8.33786 10.3592 8.40293 10.2928 8.44264 10.2112C8.48235 10.1297 8.49455 10.0374 8.47742 9.94839L7.37016 4.23841C7.28853 3.81743 7.73995 3.49575 8.11122 3.71033L9.27097 4.38065C9.3205 4.40968 9.37546 4.42823 9.43246 4.43515C9.48945 4.44207 9.54726 4.43721 9.6023 4.42088C9.65734 4.40455 9.70844 4.37709 9.75243 4.34021C9.79643 4.30332 9.83238 4.2578 9.85806 4.20645L11.5544 0.875018C11.7399 0.510859 12.2601 0.51086 12.4456 0.875018L14.1419 4.20645C14.1676 4.2578 14.2036 4.30332 14.2476 4.34021C14.2916 4.37709 14.3427 4.40455 14.3977 4.42088C14.4527 4.43721 14.5106 4.44207 14.5675 4.43515C14.6245 4.42823 14.6795 4.40968 14.729 4.38065L15.8888 3.71033C16.26 3.49575 16.7115 3.81744 16.6298 4.23841L15.5226 9.94839C15.5054 10.0374 15.5176 10.1297 15.5574 10.2112C15.5971 10.2928 15.6621 10.3592 15.7428 10.4007C15.8235 10.4421 15.9154 10.4562 16.0048 10.441C16.0943 10.4258 16.1763 10.3819 16.2387 10.3161L18.4429 7.95035C18.6897 7.68553 19.1273 7.76248 19.2689 8.09558L19.6452 8.98065C19.6833 9.06958 19.7511 9.14257 19.8369 9.18725C19.9227 9.23194 20.0214 9.24556 20.1161 9.22581L22.7659 8.66359C23.1424 8.58371 23.4642 8.94132 23.3451 9.30732L22.4129 12.1742C22.3811 12.2713 22.3858 12.3767 22.4262 12.4705C22.4666 12.5643 22.5399 12.6402 22.6323 12.6839L23.2754 12.9842C23.6102 13.1405 23.6656 13.5933 23.3785 13.8258L17.929 18.2387C17.861 18.2939 17.812 18.369 17.7889 18.4535C17.7658 18.5379 17.7696 18.6275 17.8 18.7097L18.2539 19.9617C18.3849 20.3232 18.0759 20.6911 17.6972 20.6246L13.0065 19.8C12.9161 19.7845 12.8234 19.7894 12.7353 19.8144C12.6471 19.8394 12.5656 19.8839 12.4969 19.9446C12.4282 20.0052 12.374 20.0805 12.3382 20.1649C12.3025 20.2493 12.2861 20.3407 12.2903 20.4323L12.5532 25.474C12.5681 25.7599 12.3403 26 12.0539 26H11.9461Z" fill="#686B6F"/>
</svg>
