<svg width="20" height="19" viewBox="0 0 20 19" fill="none" xmlns="http://www.w3.org/2000/svg">
<path d="M11 9.99486C11 10.5471 10.5523 10.9949 10 10.9949C9.44771 10.9949 9 10.5471 9 9.99486V7.78433C9 7.23205 9.44771 6.78433 10 6.78433C10.5523 6.78433 11 7.23205 11 7.78433V9.99486ZM11 14.2054C11 14.7577 10.5523 15.2054 10 15.2054C9.44771 15.2054 9 14.7577 9 14.2054V14.1001C9 13.5478 9.44771 13.1001 10 13.1001C10.5523 13.1001 11 13.5478 11 14.1001V14.2054ZM0.630109 15.3994C-0.102989 16.7324 0.861336 18.3633 2.38254 18.3633H17.6175C19.1387 18.3633 20.103 16.7323 19.3699 15.3994L11.7524 1.54952C10.9926 0.167969 9.00742 0.167971 8.24757 1.54952L0.630109 15.3994Z" fill="#FFBE4B"/>
</svg>
