<svg width="41" height="36" viewBox="0 0 41 36" fill="none" xmlns="http://www.w3.org/2000/svg">
<rect x="0.46875" y="30.7695" width="40" height="4.61538" rx="2" fill="#07456B"/>
<rect x="3.54688" y="27.6914" width="16.9231" height="7.69231" rx="2" transform="rotate(-90 3.54688 27.6914)" fill="#07456B"/>
<rect x="30.5547" y="28.3379" width="18.3493" height="7.69231" rx="2" transform="rotate(-102.367 30.5547 28.3379)" fill="#07456B"/>
<rect x="15.8555" y="27.6914" width="27.6923" height="7.69231" rx="2" transform="rotate(-90 15.8555 27.6914)" fill="#07456B"/>
<rect x="17.4688" y="4" width="1" height="5" rx="0.5" transform="rotate(-90 17.4688 4)" fill="#D2EDEB"/>
<rect x="17.4688" y="25" width="1" height="5" rx="0.5" transform="rotate(-90 17.4688 25)" fill="#D2EDEB"/>
<rect x="5.46875" y="25" width="1" height="5" rx="0.5" transform="rotate(-90 5.46875 25)" fill="#D2EDEB"/>
<rect x="31.6875" y="25.0605" width="1" height="5" rx="0.5" transform="rotate(-102.52 31.6875 25.0605)" fill="#D2EDEB"/>
<rect x="5.46875" y="14" width="1" height="5" rx="0.5" transform="rotate(-90 5.46875 14)" fill="#D2EDEB"/>
<rect x="28.6875" y="13.0605" width="1" height="5" rx="0.5" transform="rotate(-102.52 28.6875 13.0605)" fill="#D2EDEB"/>
</svg>
